<?xml version="1.0" encoding="UTF-8" standalone="no"?>
<!-- Created with Inkscape (http://www.inkscape.org/) -->

<svg
   xmlns:dc="http://purl.org/dc/elements/1.1/"
   xmlns:cc="http://creativecommons.org/ns#"
   xmlns:rdf="http://www.w3.org/1999/02/22-rdf-syntax-ns#"
   xmlns:svg="http://www.w3.org/2000/svg"
   xmlns="http://www.w3.org/2000/svg"
   xmlns:sodipodi="http://sodipodi.sourceforge.net/DTD/sodipodi-0.dtd"
   xmlns:inkscape="http://www.inkscape.org/namespaces/inkscape"
   width="64px"
   height="64px"
   id="svg21172"
   version="1.1"
   inkscape:version="0.48.5 r10040"
   sodipodi:docname="Nowy dokument 5">
  <defs
     id="defs21174" />
  <sodipodi:namedview
     id="base"
     pagecolor="#ffffff"
     bordercolor="#666666"
     borderopacity="1.0"
     inkscape:pageopacity="0.0"
     inkscape:pageshadow="2"
     inkscape:zoom="5.5"
     inkscape:cx="32"
     inkscape:cy="32"
     inkscape:current-layer="layer1"
     showgrid="true"
     inkscape:document-units="px"
     inkscape:grid-bbox="true"
     inkscape:window-width="1366"
     inkscape:window-height="706"
     inkscape:window-x="-8"
     inkscape:window-y="-8"
     inkscape:window-maximized="1" />
  <metadata
     id="metadata21177">
    <rdf:RDF>
      <cc:Work
         rdf:about="">
        <dc:format>image/svg+xml</dc:format>
        <dc:type
           rdf:resource="http://purl.org/dc/dcmitype/StillImage" />
        <dc:title></dc:title>
      </cc:Work>
    </rdf:RDF>
  </metadata>
  <g
     id="layer1"
     inkscape:label="Layer 1"
     inkscape:groupmode="layer">
    <path
       id="path11846"
       style="fill:#f9f4f6;fill-opacity:1;fill-rule:nonzero;stroke:none"
       d="m 51.987033,43.390659 c 0,2.010057 -4.20694,3.638664 -6.216207,3.638664 l -12.738442,-0.05651 0,-19.256044 c 0,-2.009273 1.452016,-3.592355 3.94005,-3.638665 2.495893,-0.0471 6.027803,2.231392 7.778041,3.838806 4.874059,4.456503 7.236558,15.473749 7.236558,15.473749"
       inkscape:connector-curvature="0" />
    <path
       id="path11848"
       style="fill:#a5e1ee;fill-opacity:1;fill-rule:nonzero;stroke:none"
       d="m 46.87752,34.393672 -11.349244,0.02904 0,-6.426528 c 0,-1.639598 0.996776,-2.319297 2.260389,-2.079914 1.271521,0.240174 4.261898,1.751834 5.721723,3.296462 2.692105,2.849869 3.367132,5.180939 3.367132,5.180939"
       inkscape:connector-curvature="0" />
    <path
       id="path11850"
       style="fill:#f9f4f6;fill-opacity:1;fill-rule:nonzero;stroke:none"
       d="m 35.591044,47.829106 -29.5425708,0 c -2.6685783,0 -3.0845274,-2.164676 -3.0845274,-4.834026 l 0,-18.448407 c 0,-2.670135 2.1662367,-3.55547 4.8348164,-3.55547 l 22.9574658,0 c 2.676437,0 4.834816,0.885335 4.834816,3.55547 l 0,23.282433"
       inkscape:connector-curvature="0" />
    <path
       id="path11852"
       style="fill:#e8c717;fill-opacity:1;fill-rule:nonzero;stroke:none"
       d="m 30.764087,20.955886 -2.488034,0 0,-2.072062 c 0,-0.687552 0.55725,-1.244808 1.240088,-1.244808 0.690695,0 1.247946,0.557256 1.247946,1.244808 l 0,2.072062"
       inkscape:connector-curvature="0" />
    <path
       id="path11854"
       style="fill:#f26a1e;fill-opacity:1;fill-rule:nonzero;stroke:none"
       d="m 29.555383,20.955886 -1.27933,0 0,-2.072062 c 0,-0.687552 0.55725,-1.244808 1.240088,-1.244808 l 0.03929,3.31687"
       inkscape:connector-curvature="0" />
    <path
       id="path11856"
       style="fill:#f9f4f6;fill-opacity:1;fill-rule:nonzero;stroke:none"
       d="m 60.942393,44.986299 c 0,1.569743 -1.27933,2.842807 -2.841214,2.842807 l -16.474474,0 c -1.561885,0 -2.841215,-1.273064 -2.841215,-2.842807 l 0,-7.612467 c 0,-1.569743 1.27933,-2.843592 2.841215,-2.843592 l 16.474474,1.851512 c 1.561884,0 2.841214,1.274634 2.841214,2.842806 l 0,5.761741"
       inkscape:connector-curvature="0" />
    <path
       id="path11858"
       style="fill:#f2eeee;fill-opacity:1;fill-rule:nonzero;stroke:none"
       d="m 60.918869,46.468137 c 0,0.828825 -0.674979,1.500675 -1.499118,1.500675 l -54.7212341,0 c -0.8241385,0 -1.4991171,-0.67185 -1.4991171,-1.500675 l 0,-0.832747 c 0,-0.828039 57.7194692,-0.828039 57.7194692,0 l 0,0.832747"
       inkscape:connector-curvature="0" />
    <path
       id="path11860"
       style="fill:#1f1e1d;fill-opacity:1;fill-rule:nonzero;stroke:none"
       d="m 21.675282,47.480626 c 0,2.772165 -2.244723,5.019254 -5.01536,5.019254 -2.778448,0 -5.023171,-2.247089 -5.023171,-5.019254 0,-2.771386 2.244723,-5.017689 5.023171,-5.017689 2.770637,0 5.01536,2.246303 5.01536,5.017689"
       inkscape:connector-curvature="0" />
    <path
       id="path11862"
       style="fill:#565859;fill-opacity:1;fill-rule:nonzero;stroke:none"
       d="m 19.642439,47.480626 c 0,1.649014 -1.342098,2.98565 -2.982517,2.98565 -1.648229,0 -2.990327,-1.336636 -2.990327,-2.98565 0,-1.649019 1.342098,-2.984085 2.990327,-2.984085 1.640419,0 2.982517,1.335066 2.982517,2.984085"
       inkscape:connector-curvature="0" />
    <path
       id="path11864"
       style="fill:#9d9b9a;fill-opacity:1;fill-rule:nonzero;stroke:none"
       d="m 17.766616,47.480626 c 0,0.616123 -0.494484,1.115303 -1.106694,1.115303 -0.620021,0 -1.122362,-0.49918 -1.122362,-1.115303 0,-0.616911 0.502341,-1.115303 1.122362,-1.115303 0.61221,0 1.106694,0.498392 1.106694,1.115303"
       inkscape:connector-curvature="0" />
    <path
       id="path11866"
       style="fill:#1f1e1d;fill-opacity:1;fill-rule:nonzero;stroke:none"
       d="m 56.727647,47.480626 c 0,2.772165 -2.252581,5.019254 -5.023169,5.019254 -2.77059,0 -5.015361,-2.247089 -5.015361,-5.019254 0,-2.771386 2.244771,-5.017689 5.015361,-5.017689 2.770588,0 5.023169,2.246303 5.023169,5.017689"
       inkscape:connector-curvature="0" />
    <path
       id="path11868"
       style="fill:#565859;fill-opacity:1;fill-rule:nonzero;stroke:none"
       d="m 54.694804,47.480626 c 0,1.649014 -1.342098,2.98565 -2.990326,2.98565 -1.640421,0 -2.982519,-1.336636 -2.982519,-2.98565 0,-1.649019 1.342098,-2.984085 2.982519,-2.984085 1.648228,0 2.990326,1.335066 2.990326,2.984085"
       inkscape:connector-curvature="0" />
    <path
       id="path11870"
       style="fill:#9d9b9a;fill-opacity:1;fill-rule:nonzero;stroke:none"
       d="m 52.81898,47.480626 c 0,0.616123 -0.494483,1.115303 -1.114502,1.115303 -0.61221,0 -1.114552,-0.49918 -1.114552,-1.115303 0,-0.616911 0.502342,-1.115303 1.114552,-1.115303 0.620019,0 1.114502,0.498392 1.114502,1.115303"
       inkscape:connector-curvature="0" />
    <path
       id="path11872"
       style="fill:#d81f27;fill-opacity:1;fill-rule:nonzero;stroke:none"
       d="m 2.8540273,41.583884 58.1111957,0 0,-1.678583 -58.1111957,0 0,1.678583 z"
       inkscape:connector-curvature="0" />
    <path
       id="path11874"
       style="fill:#d81f27;fill-opacity:1;fill-rule:nonzero;stroke:none"
       d="m 14.383815,25.511279 -0.235453,0.001 -0.251172,-0.001 c -0.415999,0 -1.185178,0 -1.185178,0.882197 l 0,9.782639 c 0,0.883768 0.769179,0.883768 1.185178,0.883768 l 0.251172,-0.0015 0.235453,0.0015 c 0.282555,0 0.541536,-0.0094 0.769181,-0.117732 0.188352,-0.0934 0.423807,-0.303742 0.423807,-0.766036 l 0,-9.782639 c 0,-0.882197 -0.800564,-0.882197 -1.192988,-0.882197"
       inkscape:connector-curvature="0" />
    <path
       id="path11876"
       style="fill:#d81f27;fill-opacity:1;fill-rule:nonzero;stroke:none"
       d="M 19.430559,28.953728 19.32064,28.73318 19.210766,28.510274 c -0.180544,-0.371245 -0.518008,-1.062715 -1.310713,-0.672635 l -8.7827188,4.32386 c -0.784897,0.390866 -0.447382,1.083123 -0.266888,1.453583 l 0.117727,0.222114 0.102058,0.22212 c 0.125585,0.246451 0.251171,0.479557 0.439524,0.630256 0.180545,0.133429 0.4631,0.248016 0.8790478,0.04397 L 19.16367,30.40811 c 0.792705,-0.390861 0.439525,-1.110593 0.266887,-1.454364"
       inkscape:connector-curvature="0" />
    <path
       id="path11878"
       style="fill:#d81f27;fill-opacity:1;fill-rule:nonzero;stroke:none"
       d="m 19.195057,34.093068 0.109919,-0.220548 0.109863,-0.220553 c 0.188353,-0.371241 0.533726,-1.06036 -0.259029,-1.455936 l -8.743434,-4.381937 c -0.7848908,-0.39793 -1.1380728,0.292755 -1.3186168,0.661649 l -0.109863,0.222899 -0.109874,0.218983 c -0.125585,0.247231 -0.235455,0.488186 -0.235455,0.733852 -0.008,0.215841 0.07849,0.517232 0.486626,0.723655 l 8.7512908,4.382722 c 0.784896,0.396358 1.145935,-0.321016 1.318573,-0.664786"
       inkscape:connector-curvature="0" />
  </g>
</svg>
