<?xml version="1.0" encoding="UTF-8" standalone="no"?>
<!-- Created with Inkscape (http://www.inkscape.org/) -->

<svg
   xmlns:dc="http://purl.org/dc/elements/1.1/"
   xmlns:cc="http://creativecommons.org/ns#"
   xmlns:rdf="http://www.w3.org/1999/02/22-rdf-syntax-ns#"
   xmlns:svg="http://www.w3.org/2000/svg"
   xmlns="http://www.w3.org/2000/svg"
   xmlns:sodipodi="http://sodipodi.sourceforge.net/DTD/sodipodi-0.dtd"
   xmlns:inkscape="http://www.inkscape.org/namespaces/inkscape"
   width="64px"
   height="64px"
   id="svg175086"
   version="1.1"
   inkscape:version="0.48.5 r10040"
   sodipodi:docname="Nowy dokument 42">
  <defs
     id="defs175088" />
  <sodipodi:namedview
     id="base"
     pagecolor="#ffffff"
     bordercolor="#666666"
     borderopacity="1.0"
     inkscape:pageopacity="0.0"
     inkscape:pageshadow="2"
     inkscape:zoom="5.5"
     inkscape:cx="32"
     inkscape:cy="32"
     inkscape:current-layer="layer1"
     showgrid="true"
     inkscape:document-units="px"
     inkscape:grid-bbox="true"
     inkscape:window-width="1366"
     inkscape:window-height="706"
     inkscape:window-x="-8"
     inkscape:window-y="-8"
     inkscape:window-maximized="1" />
  <metadata
     id="metadata175091">
    <rdf:RDF>
      <cc:Work
         rdf:about="">
        <dc:format>image/svg+xml</dc:format>
        <dc:type
           rdf:resource="http://purl.org/dc/dcmitype/StillImage" />
        <dc:title></dc:title>
      </cc:Work>
    </rdf:RDF>
  </metadata>
  <g
     id="layer1"
     inkscape:label="Layer 1"
     inkscape:groupmode="layer">
    <g
       transform="matrix(0.68318242,0,0,-0.86086066,48.601611,11.28814)"
       id="g3149">
      <path
         id="path3151"
         style="fill:#000000;fill-opacity:1;fill-rule:nonzero;stroke:none"
         d="m 0,0 c 5.285,-2.66 10.316,-5.5 14.846,-9.813 2.59,-2.732 4.888,-5.644 5.5,-9.238 1.078,-4.17 1.33,-8.304 0.431,-12.617 -0.107,-0.36 -0.431,-0.756 -0.683,-0.936 -2.013,-6.614 -4.026,-13.191 -5.248,-20.093 l -0.287,-0.252 c 0,0 -4.967,0.036 -5.11,0 -0.504,-1.294 -0.935,-2.732 -2.338,-3.45 -1.58,-0.755 -2.869,-0.108 -4.343,0.431 -0.827,0.539 -1.186,1.438 -1.473,2.3 -4.889,0.216 -9.85,0.288 -15.025,0.611 -0.18,-0.611 -0.325,-1.257 -0.612,-1.797 -0.394,-1.114 -1.114,-2.264 -2.229,-2.947 -1.689,-1.042 -4.027,-0.647 -5.607,0.359 -1.332,1.007 -1.689,2.444 -1.977,3.882 -3.343,-0.179 -7.045,-0.754 -10.352,-0.539 -3.811,-1.654 -8.52,-0.827 -12.511,-0.683 -0.466,-1.294 -1.724,-2.013 -2.947,-2.408 -1.94,0.144 -4.457,0.359 -5.247,2.588 l -0.181,0.611 c -7.964,0.903 -5.211,6.65 -5.787,8.375 -0.934,6.542 -0.862,12.689 -2.049,19.052 -0.719,0.431 -1.401,-0.108 -2.084,-0.18 0.25,-1.654 0.502,-3.235 0.792,-4.997 -0.972,-0.754 -5.034,-1.401 -5.609,-0.503 0.109,2.624 0.36,5.356 0.755,8.015 1.007,0.109 2.193,0.505 3.127,0 l 0.575,-1.293 c 0.827,0.072 1.689,0.108 2.337,0.504 -0.863,6.218 -0.755,13.156 -1.114,19.59 -0.036,3.882 1.581,7.764 4.925,10.173 10.1,6.039 23.399,5.679 35.442,4.134 6.578,-1.294 12.724,-3.523 18.655,-6.363 L 0,0 z"
         inkscape:connector-curvature="0" />
    </g>
    <g
       transform="matrix(0.68318242,0,0,-0.86086066,5.4497596,24.904714)"
       id="g3153">
      <path
         id="path3155"
         style="fill:#6d1b1e;fill-opacity:1;fill-rule:evenodd;stroke:none"
         d="m 0,0 0.388,-5.704 18.399,1.638 2.415,-0.097 0.291,-1.541 2.914,-13.459 1.93,-0.777 2.039,-0.195 0.193,11.227 11.809,0.194 3.096,0 0,0.679 2.524,-0.194 0.099,1.651 -0.196,2.027 2.319,-1.153 -0.584,-2.427 2.039,-0.486 0.097,-18.593 c 0,0 -1.929,-0.668 -3.871,-0.668 -1.942,0 -8.423,0.486 -8.423,0.486 l 5.46,0.694 1.312,0.167 c 0,0 -1.638,1.263 -2.317,1.845 -0.681,0.583 -1.832,1.833 -3.775,2.124 -1.943,0.291 -10.559,0.971 -10.559,0.971 l -6.773,-0.389 -4.745,-0.485 c 0,0 -3.787,-1.444 -3.593,-2.221 0.195,-0.777 11.336,0.098 11.336,0.098 l 3.969,-1.263 1.165,-0.68 0.874,-1.832 2.706,-6.785 5.329,-1.832 3.58,0.194 0.777,3.386 c 0,0 0.959,5.231 5.996,4.163 5.035,-1.068 22.561,-0.485 22.561,-0.485 l 3.968,-0.194 c 0,0 1.165,3.288 1.068,3.774 -0.097,0.485 -23.63,5.231 -23.63,5.231 l 0.68,13.46 0.583,0.096 0.679,1.651 22.951,-7.464 -0.097,-2.026 2.414,-0.583 2.72,-0.292 c 0,0 0.958,-0.291 1.055,0.292 0.097,0.583 0.195,3.386 -0.388,3.871 -0.584,0.486 -32.041,12.1 -32.041,12.1 l -2.428,17.525 -2.414,4.26 c 0,0 -6.992,2.429 -7.173,0.972 -0.182,-1.457 5.037,-3.58 5.037,-4.94 0,-1.36 0.485,-9.686 0.485,-10.074 C 44.25,7.549 0.097,0.388 0.097,0.388 L 0,0 z"
         inkscape:connector-curvature="0" />
    </g>
    <g
       transform="matrix(0.68318242,0,0,-0.86086066,34.833911,55.57959)"
       id="g3157">
      <path
         id="path3159"
         style="fill:#58595a;fill-opacity:1;fill-rule:nonzero;stroke:none"
         d="M 0,0 C 0.268,3.061 1.692,5.436 3.182,5.307 4.67,5.176 5.66,2.589 5.393,-0.473 5.125,-3.534 3.699,-5.91 2.211,-5.78 0.723,-5.649 -0.269,-3.062 0,0"
         inkscape:connector-curvature="0" />
    </g>
    <g
       transform="matrix(0.68318242,0,0,-0.86086066,35.758602,5.8737543)"
       id="g3169">
      <path
         id="path3171"
         style="fill:#ca533b;fill-opacity:1;fill-rule:nonzero;stroke:none"
         d="m 0,0 c 2.588,-3.558 1.833,-8.123 1.977,-12.509 -0.108,-3.091 -0.755,-6.434 -1.116,-9.633 -13.442,-0.863 -44.213,-1.69 -45.147,-1.654 0.288,7.261 -3.198,17.074 4.313,21.639 9.455,5.752 22.539,5.285 33.502,4.063 C -4.278,1.402 -1.905,1.295 0,0"
         inkscape:connector-curvature="0" />
    </g>
    <g
       transform="matrix(0.68318242,0,0,-0.86086066,48.061897,11.814471)"
       id="g3173">
      <path
         id="path3175"
         style="fill:#c00a21;fill-opacity:1;fill-rule:nonzero;stroke:none"
         d="m 0,0 c 7.369,-3.99 16.427,-8.843 19.95,-17.254 0.97,-3.882 1.761,-8.232 0.934,-12.402 -1.617,0.432 -37.347,14.055 -37.347,14.055 0.935,6.542 1.509,13.444 0.323,20.202 -0.323,0.827 -0.683,1.725 -1.295,2.48 C -11.287,5.5 -5.752,2.48 0,0"
         inkscape:connector-curvature="0" />
    </g>
    <g
       transform="matrix(0.68318242,0,0,-0.86086066,33.450194,7.946452)"
       id="g3177">
      <path
         id="path3179"
         style="fill:#000000;fill-opacity:1;fill-rule:nonzero;stroke:none"
         d="m 0,0 c 2.1,-3.618 0.934,-9.31 0.934,-9.31 -13.048,0.18 -38.534,-1.222 -38.534,-1.222 0.143,0.072 -1.152,3.807 0.756,8.051 l 0.969,0.576 C -24.336,0.036 -12.187,0.935 0,0"
         inkscape:connector-curvature="0" />
    </g>
    <g
       transform="matrix(0.68318242,0,0,-0.86086066,20.901368,7.2827215)"
       id="g3181">
      <path
         id="path3183"
         style="fill:#ca533b;fill-opacity:1;fill-rule:nonzero;stroke:none"
         d="m 0,0 c 0.106,-2.444 0.503,-8.295 0.323,-10.919 -0.36,-0.072 -1.006,-0.179 -1.438,-0.179 0.252,2.767 0.18,8.223 0.072,11.026 C -0.755,0.036 -0.252,0.036 0,0"
         inkscape:connector-curvature="0" />
    </g>
    <g
       transform="matrix(0.68318242,0,0,-0.86086066,59.555212,23.975759)"
       id="g3185">
      <path
         id="path3187"
         style="fill:#000000;fill-opacity:1;fill-rule:nonzero;stroke:none"
         d="M 0,0 C 0,0 1.27,-4.367 0.396,-6.407 -7.656,-1.123 -17.147,2.3 -25.883,5.931 l -2.588,0.719 c -0.502,0.324 0.181,8.699 0.181,8.699 C -18.189,11.898 -8.592,6.938 0,0"
         inkscape:connector-curvature="0" />
    </g>
    <g
       transform="matrix(0.68318242,0,0,-0.86086066,44.353108,13.362126)"
       id="g3189">
      <path
         id="path3191"
         style="fill:#b1b1b3;fill-opacity:1;fill-rule:nonzero;stroke:none"
         d="m 0,0 c 0.289,-2.372 -0.18,-4.601 -0.25,-6.901 l -0.109,0 0,6.973 C -0.215,0.108 -0.143,-0.072 0,0"
         inkscape:connector-curvature="0" />
    </g>
    <g
       transform="matrix(0.68318242,0,0,-0.86086066,48.185351,15.65132)"
       id="g3193">
      <path
         id="path3195"
         style="fill:#b1b1b3;fill-opacity:1;fill-rule:nonzero;stroke:none"
         d="m 0,0 c 0.25,-2.085 -0.074,-4.35 -0.074,-6.471 l -0.539,0.072 0.361,6.47 L 0,0 z"
         inkscape:connector-curvature="0" />
    </g>
    <g
       transform="matrix(0.68318242,0,0,-0.86086066,52.309789,18.498706)"
       id="g3197">
      <path
         id="path3199"
         style="fill:#b1b1b3;fill-opacity:1;fill-rule:nonzero;stroke:none"
         d="m 0,0 c 0.145,-1.905 0.145,-3.954 0,-5.859 -0.934,-0.143 -0.395,1.043 -0.431,1.654 L -0.251,0.108 0,0 z"
         inkscape:connector-curvature="0" />
    </g>
    <g
       transform="matrix(0.68318242,0,0,-0.86086066,18.667017,18.932063)"
       id="g3201">
      <path
         id="path3203"
         style="fill:#000000;fill-opacity:1;fill-rule:nonzero;stroke:none"
         d="M 0,0 C 0.106,-1.941 0.467,-4.241 0.322,-6.398 -2.05,-6.614 -4.998,-6.614 -7.334,-6.721 L -7.515,-0.252 -7.262,0 C -4.89,0.396 -2.158,0.396 0,0"
         inkscape:connector-curvature="0" />
    </g>
    <g
       transform="matrix(0.68318242,0,0,-0.86086066,18.297415,19.149)"
       id="g3205">
      <path
         id="path3207"
         style="fill:#58595a;fill-opacity:1;fill-rule:nonzero;stroke:none"
         d="M 0,0 0.18,-0.359 0.433,-5.787 C -2.192,-6.003 -3.81,-5.895 -6.291,-6.146 L -6.47,-0.251 C -4.42,0.396 -2.192,0 0,0"
         inkscape:connector-curvature="0" />
    </g>
    <g
       transform="matrix(0.68318242,0,0,-0.86086066,28.68527,18.895907)"
       id="g3209">
      <path
         id="path3211"
         style="fill:#000000;fill-opacity:1;fill-rule:nonzero;stroke:none"
         d="m 0,0 0,-2.989 c -4.455,0.036 -8.375,-0.108 -13.228,-0.144 -0.055,1.481 -0.16,3.02 0.251,3.02 C -8.771,-0.148 -3.882,0.503 0,0"
         inkscape:connector-curvature="0" />
    </g>
    <g
       transform="matrix(0.68318242,0,0,-0.86086066,28.267643,19.205731)"
       id="g3213">
      <path
         id="path3215"
         style="fill:#58595a;fill-opacity:1;fill-rule:nonzero;stroke:none"
         d="m 0,0 0,-2.27 c -4.098,-0.215 -8.088,0 -12.185,-0.179 0.216,0.647 -0.466,2.192 0.612,2.264 C -10.819,-0.58 -1.006,0.36 0,0"
         inkscape:connector-curvature="0" />
    </g>
    <g
       transform="matrix(0.68318242,0,0,-0.86086066,17.586222,20.35498)"
       id="g3217">
      <path
         id="path3219"
         style="fill:#ffffff;fill-opacity:1;fill-rule:nonzero;stroke:none"
         d="m 0,0 c -0.108,-0.719 -1.475,0 -1.978,-0.576 l -0.251,-0.431 c 0.827,-0.251 1.545,-0.827 1.653,-1.725 -0.647,-0.683 -1.69,-0.288 -2.336,0 l 0,0.072 c 0.61,0.072 1.402,-0.216 1.905,0.251 -0.431,1.115 -2.481,0.575 -1.581,2.265 C -1.941,0.179 -0.863,-0.072 0,0"
         inkscape:connector-curvature="0" />
    </g>
    <g
       transform="matrix(0.68318242,0,0,-0.86086066,15.007619,20.634071)"
       id="g3221">
      <path
         id="path3223"
         style="fill:#ffffff;fill-opacity:1;fill-rule:nonzero;stroke:none"
         d="M 0,0 C 0.18,-0.79 0.467,-2.228 -0.252,-2.696 -0.539,-1.905 -0.539,-0.647 -0.181,0 L 0,0 z"
         inkscape:connector-curvature="0" />
    </g>
    <g
       transform="matrix(0.68318242,0,0,-0.86086066,56.313446,25.987505)"
       id="g3225">
      <path
         id="path3227"
         style="fill:#b1b1b3;fill-opacity:1;fill-rule:nonzero;stroke:none"
         d="m 0,0 c -0.181,-0.251 -0.324,0.073 -0.504,0.073 l 0.071,5.104 C 0.358,3.595 -0.144,1.726 0,0"
         inkscape:connector-curvature="0" />
    </g>
    <g
       transform="matrix(0.68318242,0,0,-0.86086066,36.052846,27.843779)"
       id="g3229">
      <path
         id="path3231"
         style="fill:#ca533b;fill-opacity:1;fill-rule:nonzero;stroke:none"
         d="m 0,0 c -14.522,0.539 -29.583,0.18 -44.537,-0.504 -0.036,0.54 -0.286,1.151 -0.071,1.618 C -40.763,1.653 0.324,2.84 0.324,2.84 L 0,0 z"
         inkscape:connector-curvature="0" />
    </g>
    <g
       transform="matrix(0.68318242,0,0,-0.86086066,62.206577,37.931947)"
       id="g3233">
      <path
         id="path3235"
         style="fill:#ca533b;fill-opacity:1;fill-rule:nonzero;stroke:none"
         d="m 0,0 0,-0.287 c -11.287,3.702 -37.707,11.826 -37.707,11.826 l 0.432,2.588 C -37.275,14.127 -4.96,2.552 0,0"
         inkscape:connector-curvature="0" />
    </g>
    <g
       transform="matrix(0.68318242,0,0,-0.86086066,36.863444,28.895492)"
       id="g3237">
      <path
         id="path3239"
         style="fill:#90121c;fill-opacity:1;fill-rule:nonzero;stroke:none"
         d="m 0,0 c 0.144,-0.647 0.354,-2.061 0.211,-2.815 -6.111,0.143 -12.36,-0.385 -18.579,0.083 -1.798,1.438 -3.954,1.905 -5.787,3.271 l 0.108,0.072 C -24.047,0.611 -1.33,0.682 0,0"
         inkscape:connector-curvature="0" />
    </g>
    <g
       transform="matrix(0.68318242,0,0,-0.86086066,19.426923,28.431402)"
       id="g3241">
      <path
         id="path3243"
         style="fill:#ca533b;fill-opacity:1;fill-rule:nonzero;stroke:none"
         d="m 0,0 c 0.324,-5.715 0.433,-11.287 0.252,-16.751 -3.055,-0.683 -6.29,-0.935 -8.879,-2.768 -0.97,-0.575 0.217,-2.516 -1.401,-2.408 -2.732,-0.611 -5.428,-1.331 -7.584,-3.343 -0.612,8.375 -1.907,16.355 -2.481,24.587 C -13.694,-0.467 -6.864,-0.108 0,0"
         inkscape:connector-curvature="0" />
    </g>
    <g
       transform="matrix(0.68318242,0,0,-0.86086066,24.068465,31.556671)"
       id="g3245">
      <path
         id="path3247"
         style="fill:#90121c;fill-opacity:1;fill-rule:nonzero;stroke:none"
         d="m 0,0 c -0.036,-4.242 -0.212,-8.13 -0.14,-12.408 -1.618,0 -3.742,-0.461 -5.359,-0.461 -0.144,5.176 -0.036,10.784 -0.432,16.14 L 0,0 z"
         inkscape:connector-curvature="0" />
    </g>
    <g
       transform="matrix(0.68318242,0,0,-0.86086066,39.933732,30.226297)"
       id="g3249">
      <path
         id="path3251"
         style="fill:#90121c;fill-opacity:1;fill-rule:nonzero;stroke:none"
         d="M 0,0 C 0.287,-0.323 0.143,-0.755 0.07,-1.186 L -2.842,-1.114 -2.588,0.863 0,0 z"
         inkscape:connector-curvature="0" />
    </g>
    <g
       transform="matrix(0.68318242,0,0,-0.86086066,37.576003,31.773522)"
       id="g3253">
      <path
         id="path3255"
         style="fill:#cecfd0;fill-opacity:1;fill-rule:nonzero;stroke:none"
         d="m 0,0 -0.504,0 0.071,2.157 0.683,0 L 0,0 z"
         inkscape:connector-curvature="0" />
    </g>
    <g
       transform="matrix(0.68318242,0,0,-0.86086066,41.946595,32.083346)"
       id="g3257">
      <path
         id="path3259"
         style="fill:#c00a21;fill-opacity:1;fill-rule:nonzero;stroke:none"
         d="m 0,0 c -0.286,-3.343 -0.467,-7.261 -0.862,-10.353 l 0.576,-0.502 c 7.764,-0.108 14.952,-1.834 22.717,-2.409 l 0.324,0.324 c -0.109,2.228 0.538,4.493 0.79,6.901 1.977,-0.359 3.738,-1.258 5.608,-1.905 -0.756,0.323 -1.906,-0.144 -2.696,-0.576 -2.553,-3.055 -3.056,-6.937 -4.206,-10.531 -8.447,0.216 -16.535,1.509 -24.839,1.905 0.216,6.218 0.755,12.796 0.683,19.051 C -1.077,1.438 1.078,1.761 0,0"
         inkscape:connector-curvature="0" />
    </g>
    <g
       transform="matrix(0.68318242,0,0,-0.86086066,42.757259,31.711368)"
       id="g3261">
      <path
         id="path3263"
         style="fill:#b1b1b3;fill-opacity:1;fill-rule:nonzero;stroke:none"
         d="m 0,0 c -0.287,-3.487 -0.756,-6.938 -0.936,-10.425 0,-0.18 -0.251,-0.072 -0.359,-0.108 C -1.401,-6.615 -0.756,-3.2 -0.504,0.79 0.035,0.898 0.035,0.287 0,0"
         inkscape:connector-curvature="0" />
    </g>
    <g
       transform="matrix(0.68318242,0,0,-0.86086066,35.267601,31.866409)"
       id="g3265">
      <path
         id="path3267"
         style="fill:#c00a21;fill-opacity:1;fill-rule:nonzero;stroke:none"
         d="m 0,0 c -0.432,-0.395 0.287,-1.222 -0.684,-1.114 -4.17,0.071 -9.238,0.287 -13.624,-0.18 -0.251,-2.193 -0.178,-9.064 -0.071,-10.107 0.252,0.216 9.705,-0.03 14.307,-0.138 1.365,0.216 0.576,1.977 1.043,2.912 l 4.384,0.179 c 0.216,2.589 0.36,5.177 0.18,7.945 -0.431,0.395 -1.113,0.287 -1.654,0.431 L 6.9,-0.144 C 6.793,-6.327 6.865,-12.725 6.218,-18.8 l -6.111,1.294 c -1.976,3.99 -6.757,4.062 -10.605,4.925 l -5.355,0.431 c -0.432,4.062 0.324,7.692 0.073,11.898 C -10.498,-0.432 -4.89,0.035 0,0"
         inkscape:connector-curvature="0" />
    </g>
    <g
       transform="matrix(0.68318242,0,0,-0.86086066,38.459287,32.671399)"
       id="g3269">
      <path
         id="path3271"
         style="fill:#414042;fill-opacity:1;fill-rule:nonzero;stroke:none"
         d="m 0,0 c 0.324,-2.516 -0.25,-4.565 -0.18,-7.081 -1.149,0 -2.66,-0.072 -3.631,0.431 l -0.07,7.01 C -2.695,0.503 -1.258,-0.108 0,0"
         inkscape:connector-curvature="0" />
    </g>
    <g
       transform="matrix(0.68318242,0,0,-0.86086066,2.9738356,32.671399)"
       id="g3273">
      <path
         id="path3275"
         style="fill:#414042;fill-opacity:1;fill-rule:nonzero;stroke:none"
         d="m 0,0 c 0.539,-2.085 1.078,-4.133 1.223,-6.398 -1.187,-0.108 -2.446,-0.431 -3.703,-0.504 0.143,2.121 0.395,4.422 0.431,6.723 C -1.365,-0.108 -0.646,0.072 0,0"
         inkscape:connector-curvature="0" />
    </g>
    <g
       transform="matrix(0.68318242,0,0,-0.86086066,47.005768,32.733209)"
       id="g3277">
      <path
         id="path3279"
         style="fill:#b1b1b3;fill-opacity:1;fill-rule:nonzero;stroke:none"
         d="m 0,0 c -0.035,-3.235 -0.611,-6.542 -0.611,-9.777 l -0.431,0 c 0,3.055 0.646,6.829 0.791,9.849 L 0,0 z"
         inkscape:connector-curvature="0" />
    </g>
    <g
       transform="matrix(0.68318242,0,0,-0.86086066,5.2822436,33.630226)"
       id="g3281">
      <path
         id="path3283"
         style="fill:#cecfd0;fill-opacity:1;fill-rule:nonzero;stroke:none"
         d="M 0,0 -1.977,-0.432 C -2.049,-0.287 -2.229,-0.216 -2.156,0 -1.474,0.144 -0.54,0.431 0,0.251 L 0,0 z"
         inkscape:connector-curvature="0" />
    </g>
    <g
       transform="matrix(0.68318242,0,0,-0.86086066,51.597913,34.590258)"
       id="g3285">
      <path
         id="path3287"
         style="fill:#b1b1b3;fill-opacity:1;fill-rule:nonzero;stroke:none"
         d="m 0,0 c -0.144,-2.875 -0.719,-5.535 -0.862,-8.375 l -0.612,0 c 0.215,2.732 0.577,5.608 1.042,8.375 L 0,0 z"
         inkscape:connector-curvature="0" />
    </g>
    <g
       transform="matrix(0.68318242,0,0,-0.86086066,54.839685,35.857961)"
       id="g3289">
      <path
         id="path3291"
         style="fill:#b1b1b3;fill-opacity:1;fill-rule:nonzero;stroke:none"
         d="m 0,0 c -0.324,-2.373 -0.827,-4.925 -0.863,-7.513 -0.108,-0.144 -0.323,-0.072 -0.502,-0.072 l -0.181,0.144 c 0.36,2.301 0.61,5.104 1.114,7.62 L 0,0 z"
         inkscape:connector-curvature="0" />
    </g>
    <g
       transform="matrix(0.68318242,0,0,-0.86086066,57.613744,38.1791)"
       id="g3293">
      <path
         id="path3295"
         style="fill:#b1b1b3;fill-opacity:1;fill-rule:nonzero;stroke:none"
         d="m 0,0 c -0.25,-1.798 -0.574,-3.631 -0.682,-5.321 l -0.539,0 c 0.145,2.193 0.395,4.494 0.79,6.723 C 0.576,1.509 -0.07,0.503 0,0"
         inkscape:connector-curvature="0" />
    </g>
    <g
       transform="matrix(0.68318242,0,0,-0.86086066,60.856193,39.726841)"
       id="g3297">
      <path
         id="path3299"
         style="fill:#90121c;fill-opacity:1;fill-rule:nonzero;stroke:none"
         d="m 0,0 c -1.438,-5.751 -3.271,-11.323 -4.924,-17.002 -0.217,0.144 -0.576,0.072 -0.863,0.108 0.863,5.607 2.049,10.424 4.134,15.528 C -1.115,-0.934 -0.826,0.036 0,0"
         inkscape:connector-curvature="0" />
    </g>
    <g
       transform="matrix(0.68318242,0,0,-0.86086066,61.494696,40.902949)"
       id="g3301">
      <path
         id="path3303"
         style="fill:#b1b1b3;fill-opacity:1;fill-rule:nonzero;stroke:none"
         d="m 0,0 c -1.294,-5.355 -3.019,-10.496 -4.386,-15.815 l -0.431,0.107 c 0.916,4.456 2.763,11.173 4.242,15.6 C -0.396,-0.072 -0.179,0.216 0,0"
         inkscape:connector-curvature="0" />
    </g>
    <g
       transform="matrix(0.68318242,0,0,-0.86086066,33.155338,45.080706)"
       id="g3305">
      <path
         id="path3307"
         style="fill:#c00a21;fill-opacity:1;fill-rule:nonzero;stroke:none"
         d="M 0,0 C -4.17,0.684 -8.052,-0.431 -11.897,-1.042 -16.14,0.684 -21.568,0.792 -26.24,0.18 -18.188,2.841 -8.052,3.236 0,0"
         inkscape:connector-curvature="0" />
    </g>
    <g
       transform="matrix(0.68318242,0,0,-0.86086066,24.781019,46.348495)"
       id="g3309">
      <path
         id="path3311"
         style="fill:#ca533b;fill-opacity:1;fill-rule:nonzero;stroke:none"
         d="m 0,0 0.178,-1.232 c -3.848,0.754 -7.475,0.872 -11.824,0.98 -1.51,-0.18 -3.199,0.037 -4.565,-0.503 0.143,0.431 0.071,0.971 0.359,1.366 1.942,0.971 4.53,0.611 6.614,0.971 C -6.146,1.545 -2.947,1.079 0,0"
         inkscape:connector-curvature="0" />
    </g>
    <g
       transform="matrix(0.68318242,0,0,-0.86086066,34.57909,46.843663)"
       id="g3313">
      <path
         id="path3315"
         style="fill:#c00a21;fill-opacity:1;fill-rule:nonzero;stroke:none"
         d="m 0,0 c -4.313,0.143 -9.093,-0.18 -13.3,-1.043 0.288,0.719 -0.503,0.971 -0.358,1.618 3.451,0.755 7.261,1.402 10.783,1.15 C -1.797,1.402 -0.322,1.33 0,0"
         inkscape:connector-curvature="0" />
    </g>
    <g
       transform="matrix(0.68318242,0,0,-0.86086066,25.027172,48.700281)"
       id="g3317">
      <path
         id="path3319"
         style="fill:#cecfd0;fill-opacity:1;fill-rule:nonzero;stroke:none"
         d="m 0,0 c 0.071,-3.235 -0.144,-5.967 -0.253,-9.417 -1.293,-1.618 -3.881,-1.187 -5.786,-1.367 -2.984,0.072 -6.399,0 -9.31,0.756 -0.647,0.359 -0.613,1.186 -0.719,1.833 -0.144,3.019 -0.756,6.398 -0.324,9.489 5.607,0.899 11.178,0.436 16.211,-0.606 L 0,0 z"
         inkscape:connector-curvature="0" />
    </g>
    <g
       transform="matrix(0.68318242,0,0,-0.86086066,57.025322,49.009674)"
       id="g3321">
      <path
         id="path3323"
         style="fill:#ca533b;fill-opacity:1;fill-rule:nonzero;stroke:none"
         d="m 0,0 -0.072,-0.432 c -8.268,0.18 -16.427,1.15 -24.587,1.654 l 0,0.755 C -16.535,1.689 -8.376,0.574 0,0"
         inkscape:connector-curvature="0" />
    </g>
    <g
       transform="matrix(0.68318242,0,0,-0.86086066,38.288492,48.576747)"
       id="g3325">
      <path
         id="path3327"
         style="fill:#ca533b;fill-opacity:1;fill-rule:nonzero;stroke:none"
         d="m 0,0 c -2.912,-0.575 -6.112,-1.546 -7.586,-4.457 -2.336,3.702 -6.649,4.421 -10.532,4.816 C -12.402,1.582 -5.646,1.869 0,0"
         inkscape:connector-curvature="0" />
    </g>
    <g
       transform="matrix(0.68318242,0,0,-0.86086066,13.238925,47.67973)"
       id="g3329">
      <path
         id="path3331"
         style="fill:#ca533b;fill-opacity:1;fill-rule:nonzero;stroke:none"
         d="m 0,0 c -0.072,-3.558 0,-7.513 0.611,-11.035 -2.695,0.144 -5.859,0.18 -8.195,1.654 -1.223,1.474 -1.008,3.666 -0.539,5.427 C -6.471,-1.581 -0.396,0.036 0,0"
         inkscape:connector-curvature="0" />
    </g>
    <g
       transform="matrix(0.68318242,0,0,-0.86086066,56.779786,49.814665)"
       id="g3333">
      <path
         id="path3335"
         style="fill:#c00a21;fill-opacity:1;fill-rule:nonzero;stroke:none"
         d="m 0,0 c -0.144,-1.797 -0.683,-3.594 -0.863,-5.463 0.719,-1.115 3.631,0.287 2.947,-1.978 l -3.953,-0.071 c -0.037,2.013 0.215,3.99 -1.223,5.499 -0.683,0.396 -1.617,0.755 -2.408,0.36 -1.656,-0.882 -2.517,-3.954 -2.947,-6.291 -5.5,-0.216 -11.754,-0.108 -17.326,0.611 -0.432,2.445 0.314,5.769 -3.2,6.902 -3.257,-0.744 -3.63,-5.141 -4.242,-7.261 -0.179,-0.468 -0.683,-0.18 -1.006,-0.252 -0.539,2.229 0.036,4.422 1.366,6.111 2.301,2.049 5.14,2.804 8.197,3.019 L -24.3,1.617 C -16.535,1.33 -8.052,0.144 0,0"
         inkscape:connector-curvature="0" />
    </g>
    <g
       transform="matrix(0.68318242,0,0,-0.86086066,32.565544,52.878468)"
       id="g3337">
      <path
         id="path3339"
         style="fill:#ca533b;fill-opacity:1;fill-rule:nonzero;stroke:none"
         d="m 0,0 0.252,-4.061 c -3.307,-0.684 -7.01,-1.114 -10.676,-0.935 0.215,3.415 0.289,6.47 0.252,10.101 C -6.506,4.063 -2.084,3.775 0,0"
         inkscape:connector-curvature="0" />
    </g>
    <g
       transform="matrix(0.68318242,0,0,-0.86086066,30.454575,51.825549)"
       id="g3341">
      <path
         id="path3343"
         style="fill:#000000;fill-opacity:1;fill-rule:nonzero;stroke:none"
         d="m 0,0 c 0.574,-0.755 0.322,-1.654 0,-2.409 -0.791,-0.575 -1.511,-0.754 -2.518,-0.539 -0.503,0.144 -0.791,0.683 -1.042,1.114 -0.252,0.935 0,1.977 0.97,2.337 C -1.799,0.755 -0.612,0.862 0,0"
         inkscape:connector-curvature="0" />
    </g>
    <g
       transform="matrix(0.68318242,0,0,-0.86086066,35.512448,60.73804)"
       id="g3345">
      <path
         id="path3347"
         style="fill:#707072;fill-opacity:1;fill-rule:nonzero;stroke:none"
         d="m 0,0 c -1.149,0 -3.198,0.647 -3.81,2.337 -0.144,0.467 -0.395,0.898 -0.431,1.437 0.898,-0.179 1.797,0.072 2.588,0.36 C -1.473,2.588 -1.006,1.187 0,0"
         inkscape:connector-curvature="0" />
    </g>
    <g
       transform="matrix(0.68318242,0,0,-0.86086066,51.72,58.973878)"
       id="g3349">
      <path
         id="path3351"
         style="fill:#707072;fill-opacity:1;fill-rule:nonzero;stroke:none"
         d="m 0,0 0.937,-0.683 c -1.404,0.216 -2.984,0.719 -3.273,2.337 l -0.072,0.071 c 0.576,0.288 1.186,-0.107 1.726,0 L 0,0 z"
         inkscape:connector-curvature="0" />
    </g>
    <g
       transform="matrix(0.68318242,0,0,-0.86086066,13.460413,58.076)"
       id="g3353">
      <path
         id="path3355"
         style="fill:#707072;fill-opacity:1;fill-rule:nonzero;stroke:none"
         d="M 0,0 C 0.323,-0.648 0.395,-1.403 1.149,-1.905 -0.145,-1.762 -1.799,-1.69 -2.588,-0.504 -2.049,0.359 -0.791,-0.036 0,0"
         inkscape:connector-curvature="0" />
    </g>
    <g
       transform="matrix(0.68318242,0,0,-0.86086066,51.834775,55.213897)"
       id="g3357">
      <path
         id="path3359"
         style="fill:#58595a;fill-opacity:1;fill-rule:nonzero;stroke:none"
         d="M 0,0 C 0.487,2.511 1.873,4.355 3.095,4.117 4.316,3.88 4.91,1.651 4.422,-0.86 3.935,-3.372 2.549,-5.214 1.326,-4.977 0.106,-4.74 -0.488,-2.511 0,0"
         inkscape:connector-curvature="0" />
    </g>
    <g
       transform="matrix(0.68318242,0,0,-0.86086066,19.326222,56.871742)"
       id="g3361">
      <path
         id="path3363"
         style="fill:#000000;fill-opacity:1;fill-rule:nonzero;stroke:none"
         d="M 0,0 C 1.527,-0.858 3.49,-0.879 5.25,-0.43 L 6.115,0.008 C 6.321,2.899 6.582,6.022 6.705,9.071 4.879,10.286 2.244,10.288 0.185,10.119 0.185,10.119 -0.549,2.992 0,0"
         inkscape:connector-curvature="0" />
    </g>
    <g
       transform="matrix(0.68318242,0,0,-0.86086066,19.807932,48.507792)"
       id="g3365">
      <path
         id="path3367"
         style="fill:#58595a;fill-opacity:1;fill-rule:nonzero;stroke:none"
         d="m 0,0 -0.234,-0.263 c -0.119,-2.933 -0.254,-6.291 0.072,-9.277 1.182,-0.577 2.791,-0.509 4.183,-0.319 0.632,0.212 0.872,0.592 0.895,1.17 0.02,2.705 0.348,5.284 0.541,7.867 C 3.928,-0.003 1.881,0.175 0,0"
         inkscape:connector-curvature="0" />
    </g>
    <g
       transform="matrix(0.68318242,0,0,-0.86086066,13.400435,54.737669)"
       id="g3369">
      <path
         id="path3371"
         style="fill:#c00a21;fill-opacity:1;fill-rule:nonzero;stroke:none"
         d="m 0,0 c 0.092,-0.965 0.215,-1.915 0.375,-2.836 -2.695,0.144 -5.859,0.18 -8.195,1.654 -0.631,0.76 -0.879,1.711 -0.908,2.696 C -6.072,0.873 -3.139,0.359 0,0"
         inkscape:connector-curvature="0" />
    </g>
    <g
       transform="matrix(0.68318242,0,0,-0.86086066,32.610907,53.797781)"
       id="g3373">
      <path
         id="path3375"
         style="fill:#c00a21;fill-opacity:1;fill-rule:nonzero;stroke:none"
         d="m 0,0 0.186,-2.993 c -3.307,-0.684 -7.01,-1.114 -10.676,-0.935 0.052,0.853 0.098,1.683 0.135,2.506 C -6.64,-1.146 -3.15,-0.659 0,0"
         inkscape:connector-curvature="0" />
    </g>
    <g
       transform="matrix(0.68318242,0,0,-0.86086066,36.052846,27.843779)"
       id="g3377">
      <path
         id="path3379"
         style="fill:#c00a21;fill-opacity:1;fill-rule:nonzero;stroke:none"
         d="m 0,0 c -14.522,0.539 -29.583,0.18 -44.537,-0.504 -0.019,0.282 -0.097,0.584 -0.136,0.874 14.139,0.61 28.342,0.903 42.065,0.394 L -2.381,2.76 0.324,2.84 0,0 z"
         inkscape:connector-curvature="0" />
    </g>
    <g
       transform="matrix(0.68318242,0,0,-0.86086066,19.426923,28.431402)"
       id="g3381">
      <path
         id="path3383"
         style="fill:#c00a21;fill-opacity:1;fill-rule:nonzero;stroke:none"
         d="m 0,0 c 0.324,-5.715 0.433,-11.287 0.252,-16.751 -0.599,-0.134 -1.206,-0.251 -1.814,-0.368 0.134,5.115 0.02,10.326 -0.282,15.662 -6.173,-0.097 -12.317,-0.397 -18.145,-0.614 l -0.104,1.388 C -13.694,-0.467 -6.864,-0.108 0,0"
         inkscape:connector-curvature="0" />
    </g>
    <g
       transform="matrix(0.68318242,0,0,-0.86086066,33.155338,45.080706)"
       id="g3385">
      <path
         id="path3387"
         style="fill:#ca533b;fill-opacity:1;fill-rule:nonzero;stroke:none"
         d="M 0,0 C -0.705,0.116 -1.402,0.18 -2.093,0.204 -7.385,1.444 -13.188,1.41 -18.549,0.42 -21.134,0.623 -23.791,0.501 -26.24,0.18 -18.188,2.841 -8.052,3.236 0,0"
         inkscape:connector-curvature="0" />
    </g>
    <g
       transform="matrix(0.68318242,0,0,-0.86086066,31.219193,50.072751)"
       id="g3389">
      <path
         id="path3391"
         style="fill:#c00a21;fill-opacity:1;fill-rule:nonzero;stroke:none"
         d="M 0,0 C -2.283,1.409 -5.127,1.828 -7.771,2.097 -3.932,2.918 0.377,3.317 4.502,2.925 2.856,2.34 1.18,1.426 0,0"
         inkscape:connector-curvature="0" />
    </g>
    <g
       transform="matrix(0.68318242,0,0,-0.86086066,19.627096,41.60369)"
       id="g3393">
      <path
         id="path3395"
         style="fill:#c00a21;fill-opacity:1;fill-rule:nonzero;stroke:none"
         d="m 0,0 -0.041,-1.45 c -3.055,-0.683 -6.29,-0.935 -8.879,-2.768 -0.97,-0.575 0.217,-2.516 -1.401,-2.408 -2.732,-0.611 -5.428,-1.331 -7.584,-3.343 -0.612,8.375 -1.907,16.355 -2.481,24.587 0.628,-7.719 1.808,-15.25 2.383,-23.131 2.156,2.014 4.854,2.732 7.585,3.343 1.618,-0.108 0.431,1.834 1.401,2.409 C -6.606,-1.054 -2.957,-0.605 0,0"
         inkscape:connector-curvature="0" />
    </g>
    <g
       transform="matrix(0.68318242,0,0,-0.86086066,18.371472,30.504527)"
       id="g3397">
      <path
         id="path3399"
         style="fill:#000000;fill-opacity:1;fill-rule:nonzero;stroke:none"
         d="m 0,0 0.071,-13.66 c -0.071,-0.755 -0.898,-0.324 -1.293,-0.683 -4.925,0.072 -9.562,-0.108 -14.306,-0.18 l -0.18,0.287 c 0,4.745 -1.366,9.239 -1.475,13.948 0.396,0.719 1.655,0.431 2.517,0.611 L -0.287,0.251 0,0 z"
         inkscape:connector-curvature="0" />
    </g>
    <g
       transform="matrix(0.68318242,0,0,-0.86086066,38.33386,38.194682)"
       id="g3401">
      <path
         id="path3403"
         style="fill:#707072;fill-opacity:1;fill-rule:nonzero;stroke:none"
         d="m 0,0 c -0.004,-0.219 -0.003,-0.44 0.004,-0.665 -1.15,0 -2.66,-0.072 -3.631,0.431 l -0.07,7.01 c 0.34,0.041 0.703,0.02 1.076,-0.029 L -2.558,0.433 C -1.869,0.076 -0.91,0.008 0,0"
         inkscape:connector-curvature="0" />
    </g>
    <g
       transform="matrix(0.68318242,0,0,-0.86086066,3.7811546,37.731452)"
       id="g3405">
      <path
         id="path3407"
         style="fill:#707072;fill-opacity:1;fill-rule:nonzero;stroke:none"
         d="m 0,0 0.041,-0.52 c -1.187,-0.108 -2.445,-0.431 -3.703,-0.504 0.143,2.121 0.395,4.422 0.432,6.723 0.346,0.036 0.705,0.101 1.055,0.146 C -2.235,3.718 -2.461,1.605 -2.594,-0.357 -1.721,-0.307 -0.848,-0.136 0,0"
         inkscape:connector-curvature="0" />
    </g>
    <g
       transform="matrix(0.68318242,0,0,-0.86086066,7.0409566,26.325049)"
       id="g3409">
      <path
         id="path3411"
         style="fill:#dc9879;fill-opacity:1;fill-rule:nonzero;stroke:none"
         d="m 0,0 -1.377,-0.03 c 0.152,7.218 -3.076,16.76 4.301,21.242 9.454,5.751 22.538,5.284 33.502,4.062 1.131,-0.26 2.308,-0.414 3.445,-0.68 -0.696,0.128 -1.392,0.245 -2.073,0.402 C 26.835,26.218 13.75,26.685 4.297,20.934 -2.975,16.515 0.059,7.178 0,0"
         inkscape:connector-curvature="0" />
    </g>
    <g
       transform="matrix(0.68318242,0,0,-0.86086066,35.758602,5.8737543)"
       id="g3413">
      <path
         id="path3415"
         style="fill:#c00a21;fill-opacity:1;fill-rule:nonzero;stroke:none"
         d="m 0,0 c 2.588,-3.558 1.833,-8.123 1.977,-12.509 -0.108,-3.091 -0.755,-6.434 -1.116,-9.633 -13.442,-0.863 -44.213,-1.69 -45.147,-1.654 0.009,0.208 0.014,0.419 0.016,0.63 7.869,0.187 31.268,0.884 42.524,1.606 0.359,3.199 1.006,6.542 1.113,9.634 -0.143,4.385 0.612,8.95 -1.976,12.509 -0.655,0.445 -1.366,0.75 -2.106,0.979 C -3.063,1.263 -1.405,0.954 0,0"
         inkscape:connector-curvature="0" />
    </g>
    <g
       transform="matrix(0.68318242,0,0,-0.86086066,5.9801116,12.523558)"
       id="g3417">
      <path
         id="path3419"
         style="fill:#ffffff;fill-opacity:1;fill-rule:nonzero;stroke:none"
         d="M 0,0 C 0,0.724 0.479,1.311 1.068,1.311 1.658,1.311 2.137,0.724 2.137,0 2.137,-0.724 1.658,-1.311 1.068,-1.311 0.479,-1.311 0,-0.724 0,0"
         inkscape:connector-curvature="0" />
    </g>
    <g
       transform="matrix(0.68318242,0,0,-0.86086066,28.27031,52.823029)"
       id="g3421">
      <path
         id="path3423"
         style="fill:#ebcd00;fill-opacity:1;fill-rule:nonzero;stroke:none"
         d="M 0,0 C 0,0.821 0.666,1.488 1.488,1.488 2.309,1.488 2.975,0.821 2.975,0 2.975,-0.821 2.309,-1.487 1.488,-1.487 0.666,-1.487 0,-0.821 0,0"
         inkscape:connector-curvature="0" />
    </g>
    <g
       transform="matrix(0.68318242,0,0,-0.86086066,28.359053,52.643109)"
       id="g3425">
      <path
         id="path3427"
         style="fill:#feec19;fill-opacity:1;fill-rule:nonzero;stroke:none"
         d="M 0,0 C 0,0.6 0.485,1.085 1.084,1.085 1.684,1.085 2.169,0.6 2.169,0 2.169,-0.598 1.684,-1.084 1.084,-1.084 0.485,-1.084 0,-0.598 0,0"
         inkscape:connector-curvature="0" />
    </g>
    <g
       transform="matrix(0.68318242,0,0,-0.86086066,29.09361,52.476188)"
       id="g3429">
      <path
         id="path3431"
         style="fill:#ffffff;fill-opacity:1;fill-rule:nonzero;stroke:none"
         d="M 0,0 C 0,0.315 0.255,0.57 0.57,0.57 0.886,0.57 1.141,0.315 1.141,0 1.141,-0.315 0.886,-0.571 0.57,-0.571 0.255,-0.571 0,-0.315 0,0"
         inkscape:connector-curvature="0" />
    </g>
    <g
       transform="matrix(0.68318242,0,0,-0.86086066,11.238774,50.506539)"
       id="g3433">
      <path
         id="path3435"
         style="fill:#000000;fill-opacity:1;fill-rule:nonzero;stroke:none"
         d="m 0,0 c 0.53,-0.697 0.299,-1.525 0,-2.221 -0.729,-0.53 -1.392,-0.696 -2.32,-0.497 -0.463,0.132 -0.729,0.629 -0.961,1.027 -0.233,0.862 0,1.824 0.894,2.155 C -1.658,0.696 -0.563,0.795 0,0"
         inkscape:connector-curvature="0" />
    </g>
    <g
       transform="matrix(0.68318242,0,0,-0.86086066,9.2252276,51.425766)"
       id="g3437">
      <path
         id="path3439"
         style="fill:#ebcd00;fill-opacity:1;fill-rule:nonzero;stroke:none"
         d="M 0,0 C 0,0.757 0.613,1.371 1.371,1.371 2.129,1.371 2.742,0.757 2.742,0 2.742,-0.757 2.129,-1.371 1.371,-1.371 0.613,-1.371 0,-0.757 0,0"
         inkscape:connector-curvature="0" />
    </g>
    <g
       transform="matrix(0.68318242,0,0,-0.86086066,9.3066686,51.259792)"
       id="g3441">
      <path
         id="path3443"
         style="fill:#feec19;fill-opacity:1;fill-rule:nonzero;stroke:none"
         d="M 0,0 C 0,0.552 0.449,1 1,1 1.554,1 2.002,0.552 2.002,0 2.002,-0.553 1.554,-1.001 1,-1.001 0.449,-1.001 0,-0.553 0,0"
         inkscape:connector-curvature="0" />
    </g>
    <g
       transform="matrix(0.68318242,0,0,-0.86086066,9.9858176,51.106731)"
       id="g3445">
      <path
         id="path3447"
         style="fill:#ffffff;fill-opacity:1;fill-rule:nonzero;stroke:none"
         d="M 0,0 C 0,0.29 0.233,0.525 0.524,0.525 0.814,0.525 1.049,0.29 1.049,0 1.049,-0.291 0.814,-0.527 0.524,-0.527 0.233,-0.527 0,-0.291 0,0"
         inkscape:connector-curvature="0" />
    </g>
    <g
       transform="matrix(0.68318242,0,0,-0.86086066,18.457553,56.754923)"
       id="g3449">
      <path
         id="path3451"
         style="fill:#000000;fill-opacity:1;fill-rule:nonzero;stroke:none"
         d="m 0,0 c -1.384,-0.808 -3.126,-0.77 -4.67,-0.27 l -0.752,0.462 c -0.079,2.885 -0.198,6.001 -0.198,9.04 1.662,1.154 3.998,1.077 5.818,0.846 C 0.198,10.078 0.594,2.961 0,0"
         inkscape:connector-curvature="0" />
    </g>
    <g
       transform="matrix(0.68318242,0,0,-0.86086066,18.268109,48.409396)"
       id="g3453">
      <path
         id="path3455"
         style="fill:#58595a;fill-opacity:1;fill-rule:nonzero;stroke:none"
         d="m 0,0 0.199,-0.269 c 0,-2.924 0,-6.271 -0.396,-9.233 -1.069,-0.539 -2.493,-0.423 -3.721,-0.192 -0.554,0.231 -0.752,0.615 -0.752,1.192 0.079,2.693 -0.119,5.27 -0.197,7.848 C -3.482,0.116 -1.662,0.231 0,0"
         inkscape:connector-curvature="0" />
    </g>
    <g
       transform="matrix(0.68318242,0,0,-0.86086066,14.769461,57.404701)"
       id="g3457">
      <path
         id="path3459"
         style="fill:#ffffff;fill-opacity:1;fill-rule:nonzero;stroke:none"
         d="M 0,0 -0.177,0.042 C -0.588,0.46 -0.576,1.14 -0.668,1.69 c -0.144,3.02 -0.754,6.398 -0.324,9.49 5.48,0.878 10.926,0.457 15.867,-0.535 l 0.075,-0.29 C 10.096,11.301 4.769,11.685 -0.59,10.826 -1.022,7.735 -0.412,4.356 -0.268,1.337 -0.195,0.907 -0.188,0.398 0,0"
         inkscape:connector-curvature="0" />
    </g>
    <g
       transform="matrix(0.68318242,0,0,-0.86086066,33.278103,8.6887687)"
       id="g3461">
      <path
         id="path3463"
         style="fill:#64abdd;fill-opacity:1;fill-rule:evenodd;stroke:none"
         d="m 0,0 c 0.035,-0.648 0.611,-1.115 0.502,-1.798 -5.821,0.179 -12.076,1.114 -17.937,0.179 0.181,0.612 -0.395,1.259 0.181,1.798 C -11.467,0.503 -5.644,0.323 0,0 m -19.662,-1.547 c -5.895,-0.251 -11.504,-1.114 -17.004,-2.228 0.324,0.467 -0.035,1.869 1.115,1.869 5.176,0.827 10.424,1.69 15.78,1.833 l 0.109,-1.474 z M 0.611,-2.409 c 0.324,-1.402 0.432,-3.703 0.252,-5.104 -5.787,-0.288 -18.117,-0.755 -18.117,-0.755 0.18,2.048 0,4.241 -0.181,6.111 6.077,0.826 11.791,0.359 18.046,-0.252 m -20.273,0.359 c 0,-2.084 0.394,-4.385 -0.36,-6.398 -5.715,-0.431 -10.963,-0.215 -16.822,-0.503 -0.361,1.365 -0.072,3.091 0,4.637 5.498,1.042 11.862,2.229 17.182,2.264 M 2.912,-34.833 c 0.861,-0.826 0.252,-2.085 0.179,-3.019 -4.601,-0.179 -9.237,0.288 -13.804,0.252 l -0.322,0.503 c 0.287,2.804 0.107,5.787 0.143,8.375 4.494,0.612 8.987,-0.107 13.66,0.252 l 0.144,-6.363 z m -25.521,8.772 0,-12.762 c -4.639,0.144 -9.239,-0.287 -13.983,-0.179 -0.252,4.529 -1.547,8.699 -1.547,13.228 5.141,0.036 10.209,-0.072 15.53,-0.287"
         inkscape:connector-curvature="0" />
    </g>
    <g
       transform="matrix(0.68318242,0,0,-0.86086066,32.038471,10.146894)"
       id="g3465">
      <path
         id="path3467"
         style="fill:#9cceee;fill-opacity:1;fill-rule:nonzero;stroke:none"
         d="m 0,0 c -1.592,0.09 -3.207,0.208 -4.828,0.307 l 1.254,1.638 C -1.875,1.887 -0.186,1.806 1.488,1.712 L 0,0 z m -10.722,0.477 c -1.35,-0.024 -2.694,-0.106 -4.018,-0.275 l 1.329,1.764 c 1.289,0.047 2.58,0.071 3.868,0.076 L -10.722,0.477 z M -23.043,-0.23 c -1.072,-0.109 -2.139,-0.236 -3.197,-0.378 l 1.281,1.687 c 1.059,0.127 2.119,0.238 3.186,0.327 l -1.27,-1.636 z M 2.76,-3.81 C 2.773,-4.547 2.749,-5.256 2.678,-5.819 L 1.042,-5.897 2.76,-3.81 z m -8.127,-2.365 -4.565,-0.185 4.784,6.249 c 1.568,-0.077 3.149,-0.198 4.755,-0.339 l -4.974,-5.725 z m -10.017,0.463 c 0.068,1.627 -0.054,3.303 -0.193,4.803 l 0.376,0.5 c 1.37,0.174 2.722,0.283 4.067,0.34 l -4.25,-5.643 z m -2.361,1.927 c -0.008,-1.019 -0.109,-2.025 -0.463,-2.969 -0.626,-0.048 -1.247,-0.087 -1.864,-0.12 l 2.327,3.089 z m -10.61,-3.297 c -0.94,-0.011 -1.881,-0.024 -2.836,-0.045 l 4.537,5.975 c 1.082,0.161 2.162,0.306 3.227,0.427 l -4.928,-6.357 z M 4.727,-33.139 4.83,-33.248 2.635,-36.199 c -0.889,0 -1.78,0.017 -2.67,0.043 l 4.685,6.373 0.077,-3.356 z m -10.224,-2.816 -0.454,0.013 6.76,9.063 c 0.449,-0.004 0.901,-0.005 1.355,0 l -7.661,-9.076 z m -3.517,0.23 -0.207,0.322 c 0.121,1.191 0.16,2.415 0.166,3.627 l 3.442,4.997 c 0.949,0.018 1.9,0.005 2.855,-0.017 l -6.256,-8.929 z m -11.781,3.276 0,-4.68 c -1.282,0.04 -2.56,0.036 -3.841,0.012 l 3.841,4.668 z m -11.646,-4.874 c -0.398,-0.003 -0.795,-0.004 -1.195,-10e-4 l 10,13.062 2.468,-0.091 -11.273,-12.97 z m -2.947,5.057 c -0.227,1.401 -0.469,2.793 -0.652,4.2 l 3.007,3.989 c 1.26,-0.005 2.519,-0.019 3.783,-0.041 l -6.138,-8.148 z"
         inkscape:connector-curvature="0" />
    </g>
    <g
       transform="matrix(0.68318242,0,0,-0.86086066,13.656628,10.125462)"
       id="g3469">
      <path
         id="path3471"
         style="fill:#ffffff;fill-opacity:1;fill-rule:nonzero;stroke:none"
         d="M 0,0 C 0,0.453 0.366,0.821 0.82,0.821 1.274,0.821 1.641,0.453 1.641,0 1.641,-0.454 1.274,-0.821 0.82,-0.821 0.366,-0.821 0,-0.454 0,0"
         inkscape:connector-curvature="0" />
    </g>
    <g
       transform="matrix(0.68318242,0,0,-0.86086066,12.323603,12.507119)"
       id="g3473">
      <path
         id="path3475"
         style="fill:#ffffff;fill-opacity:1;fill-rule:nonzero;stroke:none"
         d="M 0,0 C 0,0.312 0.252,0.565 0.565,0.565 0.877,0.565 1.129,0.312 1.129,0 1.129,-0.311 0.877,-0.564 0.565,-0.564 0.252,-0.564 0,-0.311 0,0"
         inkscape:connector-curvature="0" />
    </g>
    <g
       transform="matrix(0.68318242,0,0,-0.86086066,8.4366336,31.746663)"
       id="g3477">
      <path
         id="path3479"
         style="fill:#ffffff;fill-opacity:1;fill-rule:nonzero;stroke:none"
         d="M 0,0 C 0,0.453 0.367,0.821 0.82,0.821 1.273,0.821 1.641,0.453 1.641,0 1.641,-0.454 1.273,-0.821 0.82,-0.821 0.367,-0.821 0,-0.454 0,0"
         inkscape:connector-curvature="0" />
    </g>
    <g
       transform="matrix(0.68318242,0,0,-0.86086066,7.7027586,33.799127)"
       id="g3481">
      <path
         id="path3483"
         style="fill:#ffffff;fill-opacity:1;fill-rule:nonzero;stroke:none"
         d="M 0,0 C 0,0.353 0.286,0.639 0.639,0.639 0.992,0.639 1.278,0.353 1.278,0 1.278,-0.353 0.992,-0.639 0.639,-0.639 0.286,-0.639 0,-0.353 0,0"
         inkscape:connector-curvature="0" />
    </g>
    <g
       transform="matrix(0.68318242,0,0,-0.86086066,43.763997,13.145272)"
       id="g3485">
      <path
         id="path3487"
         style="fill:#0078af;fill-opacity:1;fill-rule:evenodd;stroke:none"
         d="m 0,0 c 0.144,-2.552 0.144,-4.349 0,-6.902 -1.617,0.683 -3.343,1.115 -4.996,1.654 0.323,2.228 0.108,4.816 0.179,7.081 C -3.162,1.33 -1.546,0.791 0,0 m 5.681,-2.588 c 0.286,-2.301 -0.11,-4.278 -0.325,-6.47 -1.509,0.503 -2.947,1.078 -4.313,1.833 0.288,0.97 0.323,6.614 0.323,6.614 1.474,-0.539 2.912,-1.222 4.315,-1.977 m 6.145,-3.271 c 0,-2.121 0,-3.918 -0.359,-5.859 l -4.638,2.049 0.072,6.47 c 1.726,-0.683 3.344,-1.654 4.925,-2.66 m 5.68,-3.523 c -0.071,-1.725 0.143,-3.415 -0.18,-5.104 l -4.386,2.157 0,5.787 c 1.582,-0.755 3.056,-1.905 4.566,-2.84 m 5.429,-5.895 c -1.439,0.971 -3.379,1.869 -4.135,3.019 l 0,1.906 c 1.51,-1.366 4.745,-2.157 4.135,-4.925 m 0.358,-2.588 c -1.439,1.617 -5.967,1.294 -4.493,4.745 1.582,-1.402 5.103,-1.905 4.493,-4.745 M 3.954,-22.502 c 0,-3.666 -0.646,-6.542 -0.755,-10.029 l -5.104,0.431 c 0.036,3.523 0.575,7.261 0.863,10.892 l 0.18,0.18 4.816,-1.474 z m 6.579,-2.157 C 10.424,-27.535 9.705,-30.41 9.49,-33.215 l -4.925,0.612 c 0.252,3.199 0.216,6.362 0.683,9.562 1.797,-0.431 3.523,-1.151 5.285,-1.618 m 3.702,-9.238 -3.2,0.503 c 0.323,2.732 0.361,5.464 0.971,8.196 l 3.27,-0.863 -1.041,-7.836 z m 4.385,-0.431 -2.912,0.359 c 0.324,2.552 0.359,4.925 0.936,7.405 l 2.695,-0.935 -0.719,-6.829 z"
         inkscape:connector-curvature="0" />
    </g>
    <g
       transform="matrix(0.68318242,0,0,-0.86086066,43.18022,18.797597)"
       id="g3489">
      <path
         id="path3491"
         style="fill:#269ad5;fill-opacity:1;fill-rule:nonzero;stroke:none"
         d="m 0,0 c -1.361,0.501 -2.776,0.873 -4.142,1.318 0.324,2.228 0.109,4.816 0.179,7.081 0.406,-0.123 0.812,-0.249 1.213,-0.38 L 0,0 z M 6.473,-0.19 C 6.389,-0.947 6.289,-1.706 6.211,-2.492 5.567,-2.278 4.937,-2.05 4.318,-1.801 L 2.191,3.981 c 0.024,1.11 0.03,1.974 0.03,1.974 0.976,-0.357 1.937,-0.777 2.882,-1.24 l 1.37,-4.905 z m 6.208,0.897 0,-0.599 -0.163,0.703 0.163,-0.104 z m 5.679,-3.523 c -0.059,-1.432 0.078,-2.839 -0.057,-4.242 l -1.572,5.31 c 0.543,-0.365 1.083,-0.73 1.629,-1.068 m -2.669,-3.88 -1.617,0.796 -0.279,1.2 0,4.724 0.098,-0.047 1.798,-6.673 z m 4.495,0.388 c -0.21,0.199 -0.391,0.403 -0.532,0.616 l 0,1.406 0.532,-2.022 z m 0.904,-3.436 c -1.275,0.561 -2.233,1.325 -1.436,3.19 0.215,-0.19 0.465,-0.364 0.736,-0.529 l 0.7,-2.661 z M 4.809,-15.936 c 0,-3.666 -0.647,-6.542 -0.755,-10.029 l -2.783,0.235 -1.758,7.869 c 0.108,1.077 0.216,2.153 0.299,3.219 l 0.18,0.18 4.817,-1.474 z m 6.579,-2.157 c -0.031,-0.787 -0.105,-1.575 -0.204,-2.36 l -0.999,2.713 c 0.399,-0.127 0.799,-0.246 1.203,-0.353 m -2.296,-8.399 -3.672,0.455 c 0.226,2.883 0.22,5.739 0.559,8.616 l 3.113,-9.071 z m 4.912,-0.668 -0.373,0.059 -1.411,3.833 c 0.052,0.614 0.11,1.23 0.182,1.845 l 1.602,-5.737 z m 5.471,-0.602 -0.344,0.042 -1.711,7.377 0.078,0.345 1.961,-0.68 0.547,-2.029 -0.531,-5.055 z"
         inkscape:connector-curvature="0" />
    </g>
    <g
       transform="matrix(0.68318242,0,0,-0.86086066,48.061897,11.814471)"
       id="g3493">
      <path
         id="path3495"
         style="fill:#ca533b;fill-opacity:1;fill-rule:nonzero;stroke:none"
         d="m 0,0 c 7.369,-3.99 16.427,-8.843 19.95,-17.254 0.97,-3.882 1.761,-8.232 0.934,-12.402 -0.162,0.043 -0.673,0.222 -1.46,0.506 0.518,3.844 -0.219,7.794 -1.109,11.351 -3.522,8.412 -12.58,13.264 -19.949,17.254 -4.993,2.153 -9.823,4.713 -15.032,6.385 -0.209,0.432 -0.456,0.855 -0.769,1.241 C -11.287,5.5 -5.752,2.48 0,0"
         inkscape:connector-curvature="0" />
    </g>
    <g
       transform="matrix(0.68318242,0,0,-0.86086066,34.833911,55.57959)"
       id="g3497">
      <path
         id="path3499"
         style="fill:#414042;fill-opacity:1;fill-rule:nonzero;stroke:none"
         d="M 0,0 C 0.268,3.061 1.692,5.436 3.182,5.307 4.67,5.176 5.66,2.589 5.393,-0.473 5.356,-0.887 5.299,-1.29 5.221,-1.675 5.286,1.058 4.34,3.255 2.971,3.375 1.684,3.487 0.444,1.727 -0.041,-0.73 -0.035,-0.491 -0.021,-0.248 0,0"
         inkscape:connector-curvature="0" />
    </g>
    <g
       transform="matrix(0.68318242,0,0,-0.86086066,35.57182,55.531296)"
       id="g3501">
      <path
         id="path3503"
         style="fill:#000000;fill-opacity:1;fill-rule:nonzero;stroke:none"
         d="M 0,0 C 0.182,2.063 1.115,3.666 2.088,3.581 3.061,3.496 3.703,1.755 3.522,-0.307 3.342,-2.37 2.408,-3.973 1.436,-3.887 0.463,-3.802 -0.18,-2.061 0,0"
         inkscape:connector-curvature="0" />
    </g>
    <g
       transform="matrix(0.68318242,0,0,-0.86086066,35.953445,55.57124)"
       id="g3505">
      <path
         id="path3507"
         style="fill:#b1b1b3;fill-opacity:1;fill-rule:nonzero;stroke:none"
         d="M 0,0 C 0.154,1.764 0.798,3.149 1.434,3.093 2.07,3.037 2.463,1.562 2.308,-0.202 2.154,-1.966 1.512,-3.351 0.875,-3.296 0.238,-3.239 -0.153,-1.764 0,0"
         inkscape:connector-curvature="0" />
    </g>
    <g
       transform="matrix(0.68318242,0,0,-0.86086066,36.697977,55.780085)"
       id="g3509">
      <path
         id="path3511"
         style="fill:#ffffff;fill-opacity:1;fill-rule:nonzero;stroke:none"
         d="M 0,0 C 0.085,0.808 0.396,1.438 0.693,1.407 0.99,1.376 1.162,0.695 1.078,-0.113 0.994,-0.922 0.683,-1.552 0.386,-1.52 0.088,-1.489 -0.086,-0.808 0,0"
         inkscape:connector-curvature="0" />
    </g>
    <g
       transform="matrix(0.68318242,0,0,-0.86086066,51.834775,55.213897)"
       id="g3513">
      <path
         id="path3515"
         style="fill:#414042;fill-opacity:1;fill-rule:nonzero;stroke:none"
         d="M 0,0 C 0.487,2.511 1.873,4.355 3.095,4.117 4.291,3.885 4.887,1.741 4.451,-0.708 4.422,0.967 3.861,2.245 2.953,2.421 1.731,2.659 0.347,0.815 -0.143,-1.697 L -0.17,-1.848 C -0.18,-1.27 -0.125,-0.644 0,0"
         inkscape:connector-curvature="0" />
    </g>
    <g
       transform="matrix(0.68318242,0,0,-0.86086066,52.449224,55.25341)"
       id="g3517">
      <path
         id="path3519"
         style="fill:#000000;fill-opacity:1;fill-rule:nonzero;stroke:none"
         d="M 0,0 C 0.328,1.691 1.242,2.937 2.04,2.782 2.837,2.627 3.218,1.129 2.89,-0.563 2.56,-2.254 1.647,-3.5 0.849,-3.345 0.052,-3.189 -0.329,-1.692 0,0"
         inkscape:connector-curvature="0" />
    </g>
    <g
       transform="matrix(0.68318242,0,0,-0.86086066,52.762127,55.32908)"
       id="g3521">
      <path
         id="path3523"
         style="fill:#b1b1b3;fill-opacity:1;fill-rule:nonzero;stroke:none"
         d="M 0,0 C 0.282,1.448 0.934,2.538 1.456,2.437 1.979,2.335 2.174,1.08 1.893,-0.368 1.612,-1.815 0.96,-2.906 0.438,-2.804 -0.085,-2.703 -0.281,-1.447 0,0"
         inkscape:connector-curvature="0" />
    </g>
    <g
       transform="matrix(0.68318242,0,0,-0.86086066,53.231812,55.662405)"
       id="g3525">
      <path
         id="path3527"
         style="fill:#ffffff;fill-opacity:1;fill-rule:nonzero;stroke:none"
         d="M 0,0 C 0.121,0.698 0.461,1.222 0.756,1.17 1.051,1.118 1.189,0.511 1.066,-0.188 0.943,-0.886 0.605,-1.41 0.31,-1.358 0.016,-1.305 -0.123,-0.697 0,0"
         inkscape:connector-curvature="0" />
    </g>
  </g>
</svg>
