<?xml version="1.0" encoding="UTF-8" standalone="no"?>
<!-- Created with Inkscape (http://www.inkscape.org/) -->

<svg
   xmlns:dc="http://purl.org/dc/elements/1.1/"
   xmlns:cc="http://creativecommons.org/ns#"
   xmlns:rdf="http://www.w3.org/1999/02/22-rdf-syntax-ns#"
   xmlns:svg="http://www.w3.org/2000/svg"
   xmlns="http://www.w3.org/2000/svg"
   xmlns:sodipodi="http://sodipodi.sourceforge.net/DTD/sodipodi-0.dtd"
   xmlns:inkscape="http://www.inkscape.org/namespaces/inkscape"
   width="64px"
   height="64px"
   id="svg20040"
   version="1.1"
   inkscape:version="0.48.5 r10040"
   sodipodi:docname="Nowy dokument 23">
  <defs
     id="defs20042" />
  <sodipodi:namedview
     id="base"
     pagecolor="#ffffff"
     bordercolor="#666666"
     borderopacity="1.0"
     inkscape:pageopacity="0.0"
     inkscape:pageshadow="2"
     inkscape:zoom="5.5"
     inkscape:cx="32"
     inkscape:cy="32"
     inkscape:current-layer="layer1"
     showgrid="true"
     inkscape:document-units="px"
     inkscape:grid-bbox="true"
     inkscape:window-width="1366"
     inkscape:window-height="706"
     inkscape:window-x="-8"
     inkscape:window-y="-8"
     inkscape:window-maximized="1" />
  <metadata
     id="metadata20045">
    <rdf:RDF>
      <cc:Work
         rdf:about="">
        <dc:format>image/svg+xml</dc:format>
        <dc:type
           rdf:resource="http://purl.org/dc/dcmitype/StillImage" />
        <dc:title></dc:title>
      </cc:Work>
    </rdf:RDF>
  </metadata>
  <g
     id="layer1"
     inkscape:label="Layer 1"
     inkscape:groupmode="layer">
    <path
       id="path6325"
       style="fill:#e93143;fill-opacity:1;fill-rule:nonzero;stroke:none"
       d="m 57.499946,38.649618 c 0,1.997237 -4.598724,3.616173 -6.795967,3.616173 l -13.924244,-0.05564 0,-19.135497 c 0,-1.997805 2.11354,-3.616173 4.309946,-3.616173 l 9.614298,0 c 2.197243,0 3.977637,1.618368 3.977637,3.616173 l 2.81833,15.574964"
       inkscape:connector-curvature="0" />
    <path
       id="path6327"
       style="fill:#a5e1ee;fill-opacity:1;fill-rule:nonzero;stroke:none"
       d="m 53.024268,29.64634 -13.288926,-0.04214 0,-6.077422 c 0,-1.550268 0.644525,-1.96608 2.348748,-1.96608 l 7.790378,0 c 1.706734,0 2.15539,0.609909 2.289318,1.96608 l 0.860482,6.119577"
       inkscape:connector-curvature="0" />
    <path
       id="path6329"
       style="fill:#d7d7d4;fill-opacity:1;fill-rule:nonzero;stroke:none"
       d="m 37.276939,42.265791 -28.8052254,0 c -2.765598,0 -5.008877,-2.038894 -5.008877,-4.55334 l 0,-18.52202 c 0,-2.514441 2.243279,-3.348123 5.008877,-3.348123 l 23.7971874,0 c 2.765598,0 5.008038,0.833682 5.008038,3.348123 l 0,23.07536"
       inkscape:connector-curvature="0" />
    <path
       id="path6331"
       style="fill:#cfcac9;fill-opacity:1;fill-rule:nonzero;stroke:none"
       d="m 37.276939,42.265791 -28.8052254,0 c -2.765598,0 -5.008877,-2.038894 -5.008877,-4.55334 l 0,-17.40035 c 0,-2.514436 33.8141024,-2.514436 33.8141024,0 l 0,21.95369"
       inkscape:connector-curvature="0" />
    <path
       id="path6333"
       style="fill:#e93143;fill-opacity:1;fill-rule:nonzero;stroke:none"
       d="m 60.483174,39.587316 c 0,1.47916 -1.319179,2.678475 -2.945563,2.678475 l -13.997899,0 c -1.628053,0 -2.947235,-1.199315 -2.947235,-2.678475 l 0,-7.170872 c 0,-1.478387 1.319182,-2.67766 2.947235,-2.67766 l 13.997899,0 c 1.626384,0 2.945563,1.199273 2.945563,2.67766 l 0,7.170872"
       inkscape:connector-curvature="0" />
    <path
       id="path6335"
       style="fill:#cfcac9;fill-opacity:1;fill-rule:nonzero;stroke:none"
       d="m 63.135769,41.756924 c 0,0.780466 -0.695585,1.413007 -1.554393,1.413007 l -57.8908624,0 c -0.857132,0 -1.553555,-0.632541 -1.553555,-1.413007 l 0,-1.783256 c 0,-0.780515 0.696423,-1.413827 1.553555,-1.413827 l 57.8908624,0 c 0.858808,0 1.554393,0.633312 1.554393,1.413827 l 0,1.783256"
       inkscape:connector-curvature="0" />
    <path
       id="path6337"
       style="fill:#e93143;fill-opacity:1;fill-rule:nonzero;stroke:none"
       d="m 55.850134,41.756924 c 0,0.780466 -0.696424,1.413007 -1.555232,1.413007 l -50.6043884,0 c -0.857132,0 -1.553555,-0.632541 -1.553555,-1.413007 l 0,-2.072453 c 0,-0.780515 0.696423,-1.41296 1.553555,-1.41296 l 50.6043884,0 c 0.858808,0 1.555232,0.632445 1.555232,1.41296 l 0,2.072453"
       inkscape:connector-curvature="0" />
    <path
       id="path6339"
       style="fill:#1f1e1d;fill-opacity:1;fill-rule:nonzero;stroke:none"
       d="m 55.342045,44.952029 c 0,3.27553 -2.922124,5.932935 -6.526439,5.932935 -3.603479,0 -6.528113,-2.657405 -6.528113,-5.932935 0,-3.277458 2.924634,-5.93303 6.528113,-5.93303 3.604315,0 6.526439,2.655572 6.526439,5.93303"
       inkscape:connector-curvature="0" />
    <path
       id="path6341"
       style="fill:#565859;fill-opacity:1;fill-rule:nonzero;stroke:none"
       d="m 52.69782,44.952029 c 0,1.947864 -1.737705,3.528807 -3.882214,3.528807 -2.146184,0 -3.883889,-1.580943 -3.883889,-3.528807 0,-1.949744 1.737705,-3.530686 3.883889,-3.530686 2.144509,0 3.882214,1.580942 3.882214,3.530686"
       inkscape:connector-curvature="0" />
    <path
       id="path6343"
       style="fill:#9d9b9a;fill-opacity:1;fill-rule:nonzero;stroke:none"
       d="m 50.267042,44.950776 c 0,0.72849 -0.649547,1.319373 -1.451436,1.319373 -0.801052,0 -1.451436,-0.590883 -1.451436,-1.319373 0,-0.728731 0.650384,-1.319951 1.451436,-1.319951 0.801889,0 1.451436,0.59122 1.451436,1.319951"
       inkscape:connector-curvature="0" />
    <path
       id="path6345"
       style="fill:#1f1e1d;fill-opacity:1;fill-rule:nonzero;stroke:none"
       d="m 24.179701,44.952029 c 0,3.27553 -2.92296,5.932935 -6.526442,5.932935 -3.604314,0 -6.528112,-2.657405 -6.528112,-5.932935 0,-3.277458 2.923798,-5.93303 6.528112,-5.93303 3.603482,0 6.526442,2.655572 6.526442,5.93303"
       inkscape:connector-curvature="0" />
    <path
       id="path6347"
       style="fill:#565859;fill-opacity:1;fill-rule:nonzero;stroke:none"
       d="m 21.535476,44.952029 c 0,1.947864 -1.738543,3.527601 -3.882217,3.527601 -2.145344,0 -3.883887,-1.579737 -3.883887,-3.527601 0,-1.950949 1.738543,-3.530686 3.883887,-3.530686 2.143674,0 3.882217,1.579737 3.882217,3.530686"
       inkscape:connector-curvature="0" />
    <path
       id="path6349"
       style="fill:#9d9b9a;fill-opacity:1;fill-rule:nonzero;stroke:none"
       d="m 19.104696,44.950776 c 0,0.72849 -0.649548,1.319373 -1.451437,1.319373 -0.801888,0 -1.452274,-0.590883 -1.452274,-1.319373 0,-0.728731 0.650386,-1.319951 1.452274,-1.319951 0.801889,0 1.451437,0.59122 1.451437,1.319951"
       inkscape:connector-curvature="0" />
    <path
       id="path6351"
       style="fill:#e32a37;fill-opacity:1;fill-rule:nonzero;stroke:none"
       d="m 48.714324,40.706015 c 2.244954,0 4.93438,1.198063 6.10708,2.960537 l 3.656209,0 c -1.218737,-4.056141 -5.124386,-7.028539 -9.763289,-7.028539 -4.638067,0 -8.543718,2.972398 -9.762456,7.028539 l 3.653701,0 c 1.175212,-1.762474 3.8638,-2.960537 6.108755,-2.960537"
       inkscape:connector-curvature="0" />
    <path
       id="path6353"
       style="fill:#e32a37;fill-opacity:1;fill-rule:nonzero;stroke:none"
       d="m 17.772956,40.706015 c 2.244955,0 4.735164,1.198063 5.860991,2.959091 l 3.902304,0 c -1.218737,-4.056141 -5.124393,-7.028539 -9.763295,-7.028539 -4.638063,0 -8.5445524,2.972398 -9.7632894,7.028539 l 3.9023044,0 c 1.125822,-1.762475 3.616031,-2.960537 5.860985,-2.960537"
       inkscape:connector-curvature="0" />
  </g>
</svg>
