<?xml version="1.0" encoding="UTF-8" standalone="no"?>
<!-- Created with Inkscape (http://www.inkscape.org/) -->

<svg
   xmlns:dc="http://purl.org/dc/elements/1.1/"
   xmlns:cc="http://creativecommons.org/ns#"
   xmlns:rdf="http://www.w3.org/1999/02/22-rdf-syntax-ns#"
   xmlns:svg="http://www.w3.org/2000/svg"
   xmlns="http://www.w3.org/2000/svg"
   xmlns:sodipodi="http://sodipodi.sourceforge.net/DTD/sodipodi-0.dtd"
   xmlns:inkscape="http://www.inkscape.org/namespaces/inkscape"
   width="64px"
   height="64px"
   id="svg19689"
   version="1.1"
   inkscape:version="0.48.5 r10040"
   sodipodi:docname="Nowy dokument 14">
  <defs
     id="defs19691">
    <clipPath
       id="clipPath8679"
       clipPathUnits="userSpaceOnUse">
      <path
         inkscape:connector-curvature="0"
         id="path8681"
         d="m 771.313,676.102 c -31.852,66.992 -74.575,132.16 -113.665,132.16 0,0 -88.753,7.808 -142.066,7.808 -50.223,0 -142.18,-7.808 -142.18,-7.808 -41.234,0 -83.179,-63.301 -114.125,-129.282 22.668,66.813 40.5,133.922 94.262,133.922 0,0 104.875,7.2 162.164,7.2 60.801,0 162.012,-7.2 162.012,-7.2 50.988,0 69.453,-69.05 93.598,-136.8" />
    </clipPath>
  </defs>
  <sodipodi:namedview
     id="base"
     pagecolor="#ffffff"
     bordercolor="#666666"
     borderopacity="1.0"
     inkscape:pageopacity="0.0"
     inkscape:pageshadow="2"
     inkscape:zoom="5.5"
     inkscape:cx="32"
     inkscape:cy="47.24975"
     inkscape:current-layer="layer1"
     showgrid="true"
     inkscape:document-units="px"
     inkscape:grid-bbox="true"
     inkscape:window-width="1366"
     inkscape:window-height="706"
     inkscape:window-x="-8"
     inkscape:window-y="-8"
     inkscape:window-maximized="1" />
  <metadata
     id="metadata19694">
    <rdf:RDF>
      <cc:Work
         rdf:about="">
        <dc:format>image/svg+xml</dc:format>
        <dc:type
           rdf:resource="http://purl.org/dc/dcmitype/StillImage" />
        <dc:title></dc:title>
      </cc:Work>
    </rdf:RDF>
  </metadata>
  <g
     id="layer1"
     inkscape:label="Layer 1"
     inkscape:groupmode="layer">
    <path
       id="path8649"
       style="fill:#565859;fill-opacity:1;fill-rule:nonzero;stroke:none"
       d="m 11.389316,50.806179 c 0,2.241356 -1.816296,4.058186 -4.0573543,4.058186 -2.2418754,0 -4.0581716,-1.81683 -4.0581716,-4.058186 l 0,-8.992694 c 0,-2.241357 1.8162962,-4.057571 4.0581716,-4.057571 2.2410583,0 4.0573543,1.816214 4.0573543,4.057571 l 0,8.992694"
       inkscape:connector-curvature="0" />
    <path
       id="path8651"
       style="fill:#565859;fill-opacity:1;fill-rule:nonzero;stroke:none"
       d="m 60.084021,50.806179 c 0,2.241356 -1.816296,4.058186 -4.057056,4.058186 -2.242173,0 -4.058173,-1.81683 -4.058173,-4.058186 l 0,-8.992694 c 0,-2.241357 1.816,-4.057571 4.058173,-4.057571 2.24076,0 4.057056,1.816214 4.057056,4.057571 l 0,8.992694"
       inkscape:connector-curvature="0" />
    <path
       id="path8653"
       style="fill:#d51e27;fill-opacity:1;fill-rule:nonzero;stroke:none"
       d="m 54.707181,28.696722 c -2.569972,-6.824527 -5.376237,-15.873258 -9.868567,-15.873258 0,0 -8.011479,-0.657542 -12.823333,-0.657542 -4.534844,0 -12.835039,0.657542 -12.835039,0.657542 -4.817445,0 -7.51653,9.100267 -9.986861,15.923382 -3.7388705,1.616331 -7.2350442,6.157291 -6.3580736,9.666605 0.8769697,3.509592 4.7137007,14.476505 10.5281246,14.476505 l 37.288788,0 c 5.814124,0 10.310189,-11.844465 10.529243,-14.476505 0.219428,-2.63204 -2.672531,-8.128585 -6.474282,-9.716729"
       inkscape:connector-curvature="0" />
    <path
       id="path8655"
       style="fill:#ca1e27;fill-opacity:1;fill-rule:nonzero;stroke:none"
       d="m 21.402876,15.31013 c 0,0 6.858618,-0.582364 10.604504,-0.582364 3.976352,0 10.595994,0.582364 10.595994,0.582364 3.767441,0 7.987312,8.116117 10.325403,14.154596 1.118178,2.891288 -1.867236,14.350012 -6.396263,14.350012 l -29.049676,0 c -4.529029,0 -7.5543452,-11.465734 -6.475546,-14.363733 2.247769,-6.040196 6.367175,-14.140875 10.395584,-14.140875"
       inkscape:connector-curvature="0" />
    <path
       id="path8657"
       style="fill:#a71c23;fill-opacity:1;fill-rule:nonzero;stroke:none"
       d="m 17.483136,43.814738 c -4.529327,0 -7.5546432,-11.465734 -6.475844,-14.363733 0,0 1.106539,5.457234 2.502701,8.305428 1.829123,3.728709 3.973143,6.058305 3.973143,6.058305"
       inkscape:connector-curvature="0" />
    <path
       id="path8659"
       style="fill:#a71c23;fill-opacity:1;fill-rule:nonzero;stroke:none"
       d="m 46.467848,43.814738 c 4.528133,0 7.55375,-11.465734 6.474356,-14.363733 0,0 -1.105127,5.457234 -2.502403,8.305428 -1.827928,3.728709 -3.971953,6.058305 -3.971953,6.058305"
       inkscape:connector-curvature="0" />
    <path
       id="path8661"
       style="fill:#ca1e27;fill-opacity:1;fill-rule:nonzero;stroke:none"
       d="m 12.705889,41.923043 c 0,1.635336 -3.4099542,1.864896 -5.045008,1.864896 -1.6361716,0 -2.96095,-1.326747 -2.96095,-2.961518 0,-1.634769 1.3247784,-2.961044 2.96095,-2.961044 1.6350538,0 5.045008,2.423511 5.045008,4.057666"
       inkscape:connector-curvature="0" />
    <path
       id="path8663"
       style="fill:#ffffff;fill-opacity:1;fill-rule:nonzero;stroke:none"
       d="m 11.938483,41.712623 c 0,1.320983 -2.7555432,1.508337 -4.0780104,1.508337 -1.3223908,0 -2.393134,-1.073555 -2.393134,-2.394539 0,-1.320982 1.0707432,-2.393451 2.393134,-2.393451 1.3224672,0 4.0780104,1.958481 4.0780104,3.279653"
       inkscape:connector-curvature="0" />
    <path
       id="path8665"
       style="fill:#a71c23;fill-opacity:1;fill-rule:nonzero;stroke:none"
       d="m 47.289476,48.393301 c 0,1.63184 -1.322168,2.954524 -2.954012,2.954524 l -24.654156,0 c -1.631849,0 -2.954241,-1.322684 -2.954241,-2.954524 0,-1.630751 1.322392,-2.954049 2.954241,-2.954049 l 24.654156,0 c 1.631844,0 2.954012,1.323298 2.954012,2.954049"
       inkscape:connector-curvature="0" />
    <path
       id="path8667"
       style="fill:#ca1e27;fill-opacity:1;fill-rule:nonzero;stroke:none"
       d="m 51.420445,41.923043 c 0,1.635336 3.40876,1.864896 5.04471,1.864896 1.63535,0 2.961248,-1.326747 2.961248,-2.961518 0,-1.634769 -1.325898,-2.961044 -2.961248,-2.961044 -1.63595,0 -5.04471,2.423511 -5.04471,4.057666"
       inkscape:connector-curvature="0" />
    <path
       id="path8669"
       style="fill:#ffffff;fill-opacity:1;fill-rule:nonzero;stroke:none"
       d="m 52.013618,41.760454 c 0,1.392919 2.904192,1.588119 4.297442,1.588119 1.393768,0 2.522169,-1.128996 2.522169,-2.522152 0,-1.392682 -1.128401,-2.522859 -2.522169,-2.522859 -1.39325,0 -4.297442,2.06421 -4.297442,3.456892"
       inkscape:connector-curvature="0" />
    <path
       id="path8671"
       style="fill:#f6f681;fill-opacity:1;fill-rule:nonzero;stroke:none"
       d="m 6.3443085,40.898925 c 0,-1.129517 0.9174712,-2.046392 2.046987,-2.046392 1.131006,0 2.0470585,0.916875 2.0470585,2.046392 0,1.130462 -0.9160525,2.047336 -2.0470585,2.047336 -1.1295158,0 -2.046987,-0.916874 -2.046987,-2.047336"
       inkscape:connector-curvature="0" />
    <path
       id="path8673"
       style="fill:#f6f681;fill-opacity:1;fill-rule:nonzero;stroke:none"
       d="m 53.723854,40.898925 c 0,-1.129517 0.91568,-2.046392 2.047284,-2.046392 1.129592,0 2.046467,0.916875 2.046467,2.046392 0,1.130462 -0.916875,2.047336 -2.046467,2.047336 -1.131604,0 -2.047284,-0.916874 -2.047284,-2.047336"
       inkscape:connector-curvature="0" />
    <g
       id="g8675"
       transform="matrix(0.07458504,0,0,-0.07458504,-6.447324,75.594383)">
      <g
         clip-path="url(#clipPath8679)"
         id="g8677">
        <path
           id="path8683"
           style="fill:#b7acb1;fill-opacity:1;fill-rule:nonzero;stroke:none"
           d="m 259.277,676.102 512.035,0 0,144 -512.035,0 0,-144 z"
           inkscape:connector-curvature="0" />
      </g>
    </g>
    <path
       id="path8685"
       style="fill:#b4acb1;fill-opacity:1;fill-rule:nonzero;stroke:none"
       d="m 32.046684,29.119173 c -10.204129,0 -20.435406,-0.671863 -19.923825,-2.014091 0.26985,-0.706546 0.522694,-1.429053 0.768002,-2.152453 2.308107,-4.921193 5.436577,-9.642499 8.512015,-9.642499 0,0 6.858618,-0.582364 10.604504,-0.582364 3.976352,0 10.595994,0.582364 10.595994,0.582364 2.91553,0 6.102025,4.860555 8.47771,9.857154 0.233896,0.657022 0.474881,1.311355 0.729516,1.953234 0.528507,1.332611 -9.604316,1.998655 -19.763916,1.998655"
       inkscape:connector-curvature="0" />
    <path
       id="path8687"
       style="fill:#d5e4e1;fill-opacity:1;fill-rule:nonzero;stroke:none"
       d="m 19.921097,14.964053 c 0,0 7.822402,-0.537015 12.095304,-0.537015 1.845085,0 4.187577,0.08921 6.319965,0.19497 L 27.249671,29.068757 C 18.876906,28.89102 11.692577,28.236386 12.123158,27.105082 c 2.128881,-5.57844 3.206633,-12.141029 7.797939,-12.141029"
       inkscape:connector-curvature="0" />
    <path
       id="path8689"
       style="fill:#8b191e;fill-opacity:1;fill-rule:nonzero;stroke:none"
       d="m 42.21128,47.398345 -20.698836,0 c -0.220549,0 -0.397987,-0.177759 -0.397987,-0.397395 0,-0.220581 0.177438,-0.39768 0.397987,-0.39768 l 20.698836,0 c 0.220251,0 0.397986,0.177099 0.397986,0.39768 0,0.219636 -0.177735,0.397395 -0.397986,0.397395"
       inkscape:connector-curvature="0" />
    <path
       id="path8691"
       style="fill:#8b191e;fill-opacity:1;fill-rule:nonzero;stroke:none"
       d="m 42.21128,48.791596 -20.698836,0 c -0.220549,0 -0.397987,-0.177761 -0.397987,-0.398295 0,-0.219162 0.177438,-0.396875 0.397987,-0.396875 l 20.698836,0 c 0.220251,0 0.397986,0.177713 0.397986,0.396875 0,0.220534 -0.177735,0.398295 -0.397986,0.398295"
       inkscape:connector-curvature="0" />
    <path
       id="path8693"
       style="fill:#8b191e;fill-opacity:1;fill-rule:nonzero;stroke:none"
       d="m 42.21128,50.184752 -20.698836,0 c -0.220549,0 -0.397987,-0.17743 -0.397987,-0.39768 0,-0.21907 0.177438,-0.397681 0.397987,-0.397681 l 20.698836,0 c 0.220251,0 0.397986,0.178611 0.397986,0.397681 0,0.22025 -0.177735,0.39768 -0.397986,0.39768"
       inkscape:connector-curvature="0" />
    <path
       id="path8695"
       style="fill:#eeea90;fill-opacity:1;fill-rule:nonzero;stroke:none"
       d="m 36.048097,40.054315 c -1.642962,0.288689 -2.920451,1.64238 -2.920451,1.64238 l 0,0 -0.01371,0.0081 c -0.458323,0.256974 -0.995859,0.167835 -1.203579,-0.198981 -0.205404,-0.367384 -9.44e-4,-0.87377 0.456835,-1.130792 1.587842,-0.89263 3.68092,-0.318986 3.68092,-0.318986"
       inkscape:connector-curvature="0" />
    <path
       id="path8697"
       style="fill:#eeea90;fill-opacity:1;fill-rule:nonzero;stroke:none"
       d="m 35.384664,40.867731 c -1.354762,0.10176 -2.502924,1.092318 -2.502924,1.092318 l -0.01015,0.0057 c -0.392467,0.171333 -0.82163,0.05597 -0.958794,-0.259525 -0.137533,-0.314685 0.06899,-0.707166 0.461458,-0.879585 1.360282,-0.593778 3.010478,0.04112 3.010478,0.04112"
       inkscape:connector-curvature="0" />
    <path
       id="path8699"
       style="fill:#eeea90;fill-opacity:1;fill-rule:nonzero;stroke:none"
       d="m 34.564227,41.444351 c -1.013016,-0.04585 -1.951146,0.58617 -1.951146,0.58617 l -9.43e-4,0 -0.0082,0 c -0.305652,0.09151 -0.613836,-0.03215 -0.686704,-0.278244 -0.0737,-0.245347 0.115378,-0.517729 0.421331,-0.610368 1.06045,-0.316717 2.225838,0.301829 2.225838,0.301829"
       inkscape:connector-curvature="0" />
    <path
       id="path8701"
       style="fill:#eeea90;fill-opacity:1;fill-rule:nonzero;stroke:none"
       d="m 27.699794,40.054315 c 1.642885,0.288689 2.920451,1.64238 2.920451,1.64238 l 0,0 0.01252,0.0081 c 0.458323,0.256974 0.997054,0.167835 1.203579,-0.198981 0.206601,-0.367384 0.0023,-0.87377 -0.45564,-1.130792 -1.58784,-0.89263 -3.68092,-0.318986 -3.68092,-0.318986"
       inkscape:connector-curvature="0" />
    <path
       id="path8703"
       style="fill:#eeea90;fill-opacity:1;fill-rule:nonzero;stroke:none"
       d="m 28.362035,40.867731 c 1.355953,0.10176 2.502697,1.092318 2.502697,1.092318 l 0.01048,0.0057 c 0.393657,0.171333 0.821628,0.05597 0.959985,-0.259525 0.137533,-0.314685 -0.06899,-0.707166 -0.461458,-0.879585 -1.360284,-0.593778 -3.011669,0.04112 -3.011669,0.04112"
       inkscape:connector-curvature="0" />
    <path
       id="path8705"
       style="fill:#eeea90;fill-opacity:1;fill-rule:nonzero;stroke:none"
       d="m 29.183664,41.444351 c 1.01182,-0.04585 1.94995,0.58617 1.94995,0.58617 l 0.0015,0 0.0094,0 c 0.305577,0.09151 0.612717,-0.03215 0.685513,-0.278244 0.07489,-0.245347 -0.114492,-0.517729 -0.420139,-0.610368 -1.06045,-0.316717 -2.225839,0.301829 -2.225839,0.301829"
       inkscape:connector-curvature="0" />
    <path
       id="path8707"
       style="fill:#9f9b4f;fill-opacity:1;fill-rule:nonzero;stroke:none"
       d="m 30.563783,41.229914 c 0,-0.671857 0.544474,-1.216386 1.216033,-1.216386 0.672761,0 1.217527,0.544529 1.217527,1.216386 0,0.67186 -0.544766,1.216956 -1.217527,1.216956 -0.671559,0 -1.216033,-0.545096 -1.216033,-1.216956"
       inkscape:connector-curvature="0" />
    <path
       id="path8709"
       style="fill:#faf6c9;fill-opacity:1;fill-rule:nonzero;stroke:none"
       d="m 31.204174,41.229914 c 0,-0.319079 0.258358,-0.575439 0.575642,-0.575439 0.318479,0 0.577218,0.25636 0.577218,0.575439 0,0.318419 -0.258739,0.57596 -0.577218,0.57596 -0.317284,0 -0.575642,-0.257541 -0.575642,-0.57596"
       inkscape:connector-curvature="0" />
  </g>
</svg>
