<?xml version="1.0" encoding="UTF-8" standalone="no"?>
<!-- Created with Inkscape (http://www.inkscape.org/) -->

<svg
   xmlns:dc="http://purl.org/dc/elements/1.1/"
   xmlns:cc="http://creativecommons.org/ns#"
   xmlns:rdf="http://www.w3.org/1999/02/22-rdf-syntax-ns#"
   xmlns:svg="http://www.w3.org/2000/svg"
   xmlns="http://www.w3.org/2000/svg"
   xmlns:sodipodi="http://sodipodi.sourceforge.net/DTD/sodipodi-0.dtd"
   xmlns:inkscape="http://www.inkscape.org/namespaces/inkscape"
   width="64px"
   height="64px"
   id="svg146070"
   version="1.1"
   inkscape:version="0.48.5 r10040"
   sodipodi:docname="Nowy dokument 33">
  <defs
     id="defs146072">
    <clipPath
       id="clipPath36161"
       clipPathUnits="userSpaceOnUse">
      <path
         inkscape:connector-curvature="0"
         id="path36163"
         d="M 0,800 1600,800 1600,0 0,0 0,800 z" />
    </clipPath>
    <clipPath
       id="clipPath36173"
       clipPathUnits="userSpaceOnUse">
      <path
         inkscape:connector-curvature="0"
         id="path36175"
         d="m 44.0762,219.984 1.6845,0 0,-7.775 -1.6845,0 0,7.775 z" />
    </clipPath>
    <clipPath
       id="clipPath36215"
       clipPathUnits="userSpaceOnUse">
      <path
         inkscape:connector-curvature="0"
         id="path36217"
         d="m 47.9243,225.99 0.9815,0 0,-1.368 -0.9815,0 0,1.368 z" />
    </clipPath>
    <clipPath
       id="clipPath36229"
       clipPathUnits="userSpaceOnUse">
      <path
         inkscape:connector-curvature="0"
         id="path36231"
         d="m 48.209,225.99 0.3496,0 0,-1.368 -0.3496,0 0,1.368 z" />
    </clipPath>
    <clipPath
       id="clipPath36247"
       clipPathUnits="userSpaceOnUse">
      <path
         inkscape:connector-curvature="0"
         id="path36249"
         d="m 50.8716,225.99 0.9809,0 0,-1.368 -0.9809,0 0,1.368 z" />
    </clipPath>
    <clipPath
       id="clipPath36261"
       clipPathUnits="userSpaceOnUse">
      <path
         inkscape:connector-curvature="0"
         id="path36263"
         d="m 51.1558,225.99 0.3496,0 0,-1.368 -0.3496,0 0,1.368 z" />
    </clipPath>
    <clipPath
       id="clipPath36279"
       clipPathUnits="userSpaceOnUse">
      <path
         inkscape:connector-curvature="0"
         id="path36281"
         d="m 27.9702,287.783 21.7124,0 0,-54.689 -21.7124,0 0,54.689 z" />
    </clipPath>
    <clipPath
       id="clipPath36307"
       clipPathUnits="userSpaceOnUse">
      <path
         inkscape:connector-curvature="0"
         id="path36309"
         d="m 33.5034,287.785 16.1792,0 0,-54.689 -16.1792,0 0,54.689 z" />
    </clipPath>
    <clipPath
       id="clipPath36339"
       clipPathUnits="userSpaceOnUse">
      <path
         inkscape:connector-curvature="0"
         id="path36341"
         d="m 39.314,287.78 10.3872,0 0,-54.686 -10.3872,0 0,54.686 z" />
    </clipPath>
    <clipPath
       id="clipPath36399"
       clipPathUnits="userSpaceOnUse">
      <path
         inkscape:connector-curvature="0"
         id="path36401"
         d="m 50.3809,287.773 3.7451,0 0,-54.586 -3.7451,0 0,54.586 z" />
    </clipPath>
    <clipPath
       id="clipPath36431"
       clipPathUnits="userSpaceOnUse">
      <path
         inkscape:connector-curvature="0"
         id="path36433"
         d="m 42.249,233.293 15.709,0 0,-0.519 -15.709,0 0,0.519 z" />
    </clipPath>
    <clipPath
       id="clipPath36507"
       clipPathUnits="userSpaceOnUse">
      <path
         inkscape:connector-curvature="0"
         id="path36509"
         d="m 44.688,212.557 10.7451,0 0,-0.333 -10.7451,0 0,0.333 z" />
    </clipPath>
    <clipPath
       id="clipPath36049"
       clipPathUnits="userSpaceOnUse">
      <path
         inkscape:connector-curvature="0"
         id="path36051"
         d="M 0,800 1600,800 1600,0 0,0 0,800 z" />
    </clipPath>
    <clipPath
       id="clipPath36057"
       clipPathUnits="userSpaceOnUse">
      <path
         inkscape:connector-curvature="0"
         id="path36059"
         d="m 44.0698,219.689 11.8799,0 0,-6.685 -11.8799,0 0,6.685 z" />
    </clipPath>
  </defs>
  <sodipodi:namedview
     id="base"
     pagecolor="#ffffff"
     bordercolor="#666666"
     borderopacity="1.0"
     inkscape:pageopacity="0.0"
     inkscape:pageshadow="2"
     inkscape:zoom="5.5"
     inkscape:cx="32"
     inkscape:cy="32"
     inkscape:current-layer="layer1"
     showgrid="true"
     inkscape:document-units="px"
     inkscape:grid-bbox="true"
     inkscape:window-width="1366"
     inkscape:window-height="706"
     inkscape:window-x="-8"
     inkscape:window-y="-8"
     inkscape:window-maximized="1" />
  <metadata
     id="metadata146075">
    <rdf:RDF>
      <cc:Work
         rdf:about="">
        <dc:format>image/svg+xml</dc:format>
        <dc:type
           rdf:resource="http://purl.org/dc/dcmitype/StillImage" />
        <dc:title></dc:title>
      </cc:Work>
    </rdf:RDF>
  </metadata>
  <g
     id="layer1"
     inkscape:label="Layer 1"
     inkscape:groupmode="layer">
    <g
       id="g36045"
       transform="matrix(0.80763771,0,0,-0.80763771,-9.1927485,234.44511)">
      <g
         id="g36047"
         clip-path="url(#clipPath36049)">
        <g
           id="g36053">
          <g
             id="g36055" />
          <g
             id="g36061">
            <g
               style="opacity:0.5"
               clip-path="url(#clipPath36057)"
               id="g36063">
              <g
                 transform="translate(55.6255,214.9434)"
                 id="g36065">
                <path
                   inkscape:connector-curvature="0"
                   d="M 0,0 -0.936,0.315 -1.871,0 -2.805,0.315 -3.74,0 -4.674,0.315 -5.608,0 -6.543,0.315 -7.477,0 -8.411,0.315 -9.345,0 -10.28,0.315 -11.214,0 l -0.342,0.115 0,-0.166 0.342,-0.116 0.934,0.315 0.935,-0.315 0.934,0.315 0.934,-0.315 0.934,0.315 0.935,-0.315 0.934,0.315 0.934,-0.315 0.935,0.315 0.934,-0.315 0.935,0.315 0.936,-0.315 0.324,0.109 0,0.167 L 0,0 z"
                   style="fill:#9e7e64;fill-opacity:1;fill-rule:nonzero;stroke:none"
                   id="path36067" />
              </g>
              <g
                 transform="translate(55.6255,215.3867)"
                 id="g36069">
                <path
                   inkscape:connector-curvature="0"
                   d="M 0,0 -0.936,0.314 -1.871,0 -2.805,0.314 -3.74,0 -4.674,0.314 -5.608,0 -6.543,0.314 -7.477,0 -8.411,0.314 -9.345,0 -10.28,0.314 -11.214,0 l -0.342,0.115 0,-0.167 0.342,-0.116 0.934,0.316 0.935,-0.316 0.934,0.316 0.934,-0.316 0.934,0.316 0.935,-0.316 0.934,0.316 0.934,-0.316 0.935,0.316 0.934,-0.316 0.935,0.316 0.936,-0.316 0.324,0.11 0,0.167 L 0,0 z"
                   style="fill:#9e7e64;fill-opacity:1;fill-rule:nonzero;stroke:none"
                   id="path36071" />
              </g>
              <g
                 transform="translate(55.6255,214.5)"
                 id="g36073">
                <path
                   inkscape:connector-curvature="0"
                   d="M 0,0 -0.936,0.316 -1.871,0 -2.805,0.316 -3.74,0 -4.674,0.316 -5.608,0 -6.543,0.316 -7.477,0 -8.411,0.316 -9.345,0 -10.28,0.316 -11.214,0 l -0.342,0.115 0,-0.166 0.342,-0.115 0.934,0.314 0.935,-0.314 0.934,0.314 0.934,-0.314 0.934,0.314 0.935,-0.314 0.934,0.314 0.934,-0.314 0.935,0.314 0.934,-0.314 0.935,0.314 0.936,-0.314 0.324,0.109 0,0.166 L 0,0 z"
                   style="fill:#9e7e64;fill-opacity:1;fill-rule:nonzero;stroke:none"
                   id="path36075" />
              </g>
              <g
                 transform="translate(55.6255,215.8281)"
                 id="g36077">
                <path
                   inkscape:connector-curvature="0"
                   d="M 0,0 -0.936,0.316 -1.871,0 -2.805,0.316 -3.74,0 -4.674,0.316 -5.608,0 -6.543,0.316 -7.477,0 -8.411,0.316 -9.345,0 -10.28,0.316 -11.214,0 l -0.342,0.117 0,-0.167 0.342,-0.116 0.934,0.316 0.935,-0.316 0.934,0.316 0.934,-0.316 0.934,0.316 0.935,-0.316 0.934,0.316 0.934,-0.316 0.935,0.316 0.934,-0.316 L -0.936,0.15 0,-0.166 0.324,-0.057 0.324,0.11 0,0 z"
                   style="fill:#9e7e64;fill-opacity:1;fill-rule:nonzero;stroke:none"
                   id="path36079" />
              </g>
              <g
                 transform="translate(55.9497,213.1133)"
                 id="g36081">
                <path
                   inkscape:connector-curvature="0"
                   d="M 0,0 0,0.167 -0.324,0.058 -1.26,0.373 -2.195,0.058 -3.129,0.373 -4.064,0.058 -4.999,0.373 -5.933,0.058 -6.867,0.373 -7.801,0.058 -8.735,0.373 -9.669,0.058 l -0.935,0.315 -0.935,-0.315 -0.341,0.115 0,-0.166 0.341,-0.116 0.935,0.316 0.935,-0.316 0.934,0.316 0.934,-0.316 0.934,0.316 0.934,-0.316 0.934,0.316 0.935,-0.316 0.935,0.316 0.934,-0.316 0.935,0.316 0.936,-0.316 L 0,0 z"
                   style="fill:#9e7e64;fill-opacity:1;fill-rule:nonzero;stroke:none"
                   id="path36083" />
              </g>
              <g
                 transform="translate(55.6255,213.6133)"
                 id="g36085">
                <path
                   inkscape:connector-curvature="0"
                   d="M 0,0 -0.936,0.316 -1.871,0 -2.805,0.316 -3.74,0 -4.674,0.316 -5.608,0 -6.543,0.316 -7.477,0 -8.411,0.316 -9.345,0 -10.28,0.316 -11.214,0 l -0.342,0.116 0,-0.167 0.342,-0.115 0.934,0.316 0.935,-0.316 0.934,0.316 0.934,-0.316 0.934,0.316 0.935,-0.316 0.934,0.316 0.934,-0.316 0.935,0.316 0.934,-0.316 0.935,0.316 0.936,-0.316 0.324,0.109 0,0.166 L 0,0 z"
                   style="fill:#9e7e64;fill-opacity:1;fill-rule:nonzero;stroke:none"
                   id="path36087" />
              </g>
              <g
                 transform="translate(55.6255,214.0566)"
                 id="g36089">
                <path
                   inkscape:connector-curvature="0"
                   d="M 0,0 -0.936,0.316 -1.871,0 -2.805,0.316 -3.74,0 -4.674,0.316 -5.608,0 -6.543,0.316 -7.477,0 -8.411,0.316 -9.345,0 -10.28,0.316 -11.214,0 l -0.342,0.116 0,-0.167 0.342,-0.115 0.934,0.315 0.935,-0.315 0.934,0.315 0.934,-0.315 0.934,0.315 0.935,-0.315 0.934,0.315 0.934,-0.315 0.935,0.315 0.934,-0.315 0.935,0.315 0.936,-0.315 0.324,0.109 0,0.166 L 0,0 z"
                   style="fill:#9e7e64;fill-opacity:1;fill-rule:nonzero;stroke:none"
                   id="path36091" />
              </g>
              <g
                 transform="translate(55.6255,219.373)"
                 id="g36093">
                <path
                   inkscape:connector-curvature="0"
                   d="M 0,0 -0.936,0.316 -1.871,0 -2.805,0.316 -3.74,0 -4.674,0.316 -5.608,0 -6.543,0.316 -7.477,0 -8.411,0.316 -9.345,0 -10.28,0.316 -11.214,0 l -0.342,0.115 0,-0.166 0.342,-0.115 0.934,0.315 0.935,-0.315 0.934,0.315 0.934,-0.315 0.934,0.315 0.935,-0.315 0.934,0.315 0.934,-0.315 0.935,0.315 0.934,-0.315 0.935,0.315 0.936,-0.315 0.324,0.109 0,0.166 L 0,0 z"
                   style="fill:#9e7e64;fill-opacity:1;fill-rule:nonzero;stroke:none"
                   id="path36095" />
              </g>
              <g
                 transform="translate(55.6255,218.0439)"
                 id="g36097">
                <path
                   inkscape:connector-curvature="0"
                   d="M 0,0 -0.936,0.315 -1.871,0 -2.805,0.315 -3.74,0 -4.674,0.315 -5.608,0 -6.543,0.315 -7.477,0 -8.411,0.315 -9.345,0 -10.28,0.315 -11.214,0 l -0.342,0.116 0,-0.167 0.342,-0.116 0.934,0.316 0.935,-0.316 0.934,0.316 0.934,-0.316 0.934,0.316 0.935,-0.316 0.934,0.316 0.934,-0.316 0.935,0.316 0.934,-0.316 0.935,0.316 0.936,-0.316 0.324,0.11 0,0.167 L 0,0 z"
                   style="fill:#9e7e64;fill-opacity:1;fill-rule:nonzero;stroke:none"
                   id="path36099" />
              </g>
              <g
                 transform="translate(55.6255,218.4873)"
                 id="g36101">
                <path
                   inkscape:connector-curvature="0"
                   d="M 0,0 -0.936,0.315 -1.871,0 -2.805,0.315 -3.74,0 -4.674,0.315 -5.608,0 -6.543,0.315 -7.477,0 -8.411,0.315 -9.345,0 -10.28,0.315 -11.214,0 l -0.342,0.116 0,-0.167 0.342,-0.116 0.934,0.316 0.935,-0.316 0.934,0.316 0.934,-0.316 0.934,0.316 0.935,-0.316 0.934,0.316 0.934,-0.316 0.935,0.316 0.934,-0.316 0.935,0.316 0.936,-0.316 0.324,0.109 0,0.167 L 0,0 z"
                   style="fill:#9e7e64;fill-opacity:1;fill-rule:nonzero;stroke:none"
                   id="path36103" />
              </g>
              <g
                 transform="translate(55.6255,218.9297)"
                 id="g36105">
                <path
                   inkscape:connector-curvature="0"
                   d="M 0,0 -0.936,0.316 -1.871,0 -2.805,0.316 -3.74,0 -4.674,0.316 -5.608,0 -6.543,0.316 -7.477,0 -8.411,0.316 -9.345,0 -10.28,0.316 -11.214,0 l -0.342,0.116 0,-0.167 0.342,-0.115 0.934,0.315 0.935,-0.315 0.934,0.315 0.934,-0.315 0.934,0.315 0.935,-0.315 0.934,0.315 0.934,-0.315 0.935,0.315 0.934,-0.315 0.935,0.315 L 0,-0.166 0.324,-0.057 0.324,0.11 0,0 z"
                   style="fill:#9e7e64;fill-opacity:1;fill-rule:nonzero;stroke:none"
                   id="path36107" />
              </g>
              <g
                 transform="translate(55.6255,216.7148)"
                 id="g36109">
                <path
                   inkscape:connector-curvature="0"
                   d="M 0,0 -0.936,0.316 -1.871,0 -2.805,0.316 -3.74,0 -4.674,0.316 -5.608,0 -6.543,0.316 -7.477,0 -8.411,0.316 -9.345,0 -10.28,0.316 -11.214,0 l -0.342,0.116 0,-0.167 0.342,-0.115 0.934,0.315 0.935,-0.315 0.934,0.315 0.934,-0.315 0.934,0.315 0.935,-0.315 0.934,0.315 0.934,-0.315 0.935,0.315 0.934,-0.315 0.935,0.315 0.936,-0.315 0.324,0.109 0,0.166 L 0,0 z"
                   style="fill:#9e7e64;fill-opacity:1;fill-rule:nonzero;stroke:none"
                   id="path36111" />
              </g>
              <g
                 transform="translate(55.6255,216.2715)"
                 id="g36113">
                <path
                   inkscape:connector-curvature="0"
                   d="M 0,0 -0.936,0.316 -1.871,0 -2.805,0.316 -3.74,0 -4.674,0.316 -5.608,0 -6.543,0.316 -7.477,0 -8.411,0.316 -9.345,0 -10.28,0.316 -11.214,0 l -0.342,0.116 0,-0.167 0.342,-0.115 0.934,0.316 0.935,-0.316 0.934,0.316 0.934,-0.316 0.934,0.316 0.935,-0.316 0.934,0.316 0.934,-0.316 0.935,0.316 0.934,-0.316 0.935,0.316 0.936,-0.316 0.324,0.109 0,0.166 L 0,0 z"
                   style="fill:#9e7e64;fill-opacity:1;fill-rule:nonzero;stroke:none"
                   id="path36115" />
              </g>
              <g
                 transform="translate(55.6255,217.1582)"
                 id="g36117">
                <path
                   inkscape:connector-curvature="0"
                   d="M 0,0 -0.936,0.316 -1.871,0 -2.805,0.316 -3.74,0 -4.674,0.316 -5.608,0 -6.543,0.316 -7.477,0 -8.411,0.316 -9.345,0 -10.28,0.316 -11.214,0 l -0.342,0.115 0,-0.166 0.342,-0.116 0.934,0.315 0.935,-0.315 0.934,0.315 0.934,-0.315 0.934,0.315 0.935,-0.315 0.934,0.315 0.934,-0.315 0.935,0.315 0.934,-0.315 0.935,0.315 0.936,-0.315 0.324,0.109 0,0.167 L 0,0 z"
                   style="fill:#9e7e64;fill-opacity:1;fill-rule:nonzero;stroke:none"
                   id="path36119" />
              </g>
              <g
                 transform="translate(55.6255,217.6016)"
                 id="g36121">
                <path
                   inkscape:connector-curvature="0"
                   d="M 0,0 -0.936,0.315 -1.871,0 -2.805,0.315 -3.74,0 -4.674,0.315 -5.608,0 -6.543,0.315 -7.477,0 -8.411,0.315 -9.345,0 -10.28,0.315 -11.214,0 l -0.342,0.115 0,-0.166 0.342,-0.116 0.934,0.315 0.935,-0.315 0.934,0.315 0.934,-0.315 0.934,0.315 0.935,-0.315 0.934,0.315 0.934,-0.315 0.935,0.315 0.934,-0.315 0.935,0.315 0.936,-0.315 0.324,0.109 0,0.167 L 0,0 z"
                   style="fill:#9e7e64;fill-opacity:1;fill-rule:nonzero;stroke:none"
                   id="path36123" />
              </g>
            </g>
          </g>
        </g>
      </g>
    </g>
    <g
       id="g36125"
       transform="matrix(0.80763771,0,0,-0.80763771,25.326657,46.412188)">
      <path
         inkscape:connector-curvature="0"
         d="M 0,0 2.526,-6.513"
         style="fill:none;stroke:#d3d2d2;stroke-width:0.22400001;stroke-linecap:butt;stroke-linejoin:miter;stroke-miterlimit:10;stroke-opacity:1;stroke-dasharray:none"
         id="path36127" />
    </g>
    <g
       id="g36129"
       transform="matrix(0.80763771,0,0,-0.80763771,26.52196,46.412188)">
      <path
         inkscape:connector-curvature="0"
         d="M 0,0 1.54,-6.513"
         style="fill:none;stroke:#d3d2d2;stroke-width:0.22400001;stroke-linecap:butt;stroke-linejoin:miter;stroke-miterlimit:10;stroke-opacity:1;stroke-dasharray:none"
         id="path36131" />
    </g>
    <g
       id="g36133"
       transform="matrix(0.80763771,0,0,-0.80763771,27.765322,51.672094)">
      <path
         inkscape:connector-curvature="0"
         d="M 0,0 -0.987,-6.078"
         style="fill:none;stroke:#d3d2d2;stroke-width:0.22400001;stroke-linecap:butt;stroke-linejoin:miter;stroke-miterlimit:10;stroke-opacity:1;stroke-dasharray:none"
         id="path36135" />
    </g>
    <g
       id="g36137"
       transform="matrix(0.80763771,0,0,-0.80763771,27.366672,51.672094)">
      <path
         inkscape:connector-curvature="0"
         d="M 0,0 -0.987,-6.078"
         style="fill:none;stroke:#d3d2d2;stroke-width:0.22400001;stroke-linecap:butt;stroke-linejoin:miter;stroke-miterlimit:10;stroke-opacity:1;stroke-dasharray:none"
         id="path36139" />
    </g>
    <g
       id="g36141"
       transform="matrix(0.80763771,0,0,-0.80763771,37.218799,46.412188)">
      <path
         inkscape:connector-curvature="0"
         d="M 0,0 -2.526,-6.513"
         style="fill:none;stroke:#d3d2d2;stroke-width:0.22400001;stroke-linecap:butt;stroke-linejoin:miter;stroke-miterlimit:10;stroke-opacity:1;stroke-dasharray:none"
         id="path36143" />
    </g>
    <g
       id="g36145"
       transform="matrix(0.80763771,0,0,-0.80763771,36.023495,46.412188)">
      <path
         inkscape:connector-curvature="0"
         d="M 0,0 -1.54,-6.513"
         style="fill:none;stroke:#d3d2d2;stroke-width:0.22400001;stroke-linecap:butt;stroke-linejoin:miter;stroke-miterlimit:10;stroke-opacity:1;stroke-dasharray:none"
         id="path36147" />
    </g>
    <g
       id="g36149"
       transform="matrix(0.80763771,0,0,-0.80763771,34.780134,51.672094)">
      <path
         inkscape:connector-curvature="0"
         d="M 0,0 0.987,-6.078"
         style="fill:none;stroke:#d3d2d2;stroke-width:0.22400001;stroke-linecap:butt;stroke-linejoin:miter;stroke-miterlimit:10;stroke-opacity:1;stroke-dasharray:none"
         id="path36151" />
    </g>
    <g
       id="g36153"
       transform="matrix(0.80763771,0,0,-0.80763771,35.17879,51.672094)">
      <path
         inkscape:connector-curvature="0"
         d="M 0,0 0.987,-6.078"
         style="fill:none;stroke:#d3d2d2;stroke-width:0.22400001;stroke-linecap:butt;stroke-linejoin:miter;stroke-miterlimit:10;stroke-opacity:1;stroke-dasharray:none"
         id="path36155" />
    </g>
    <g
       id="g36157"
       transform="matrix(0.80763771,0,0,-0.80763771,-9.1927485,234.44511)">
      <g
         id="g36159"
         clip-path="url(#clipPath36161)">
        <g
           id="g36165"
           transform="translate(55.9565,219.9844)">
          <path
             inkscape:connector-curvature="0"
             d="m 0,0 0,-7.303 c 0,-0.26 -0.212,-0.472 -0.474,-0.472 l -10.933,0 c -0.261,0 -0.473,0.212 -0.473,0.472 L -11.88,0 0,0 z"
             style="fill:#ddbf9a;fill-opacity:1;fill-rule:nonzero;stroke:none"
             id="path36167" />
        </g>
        <g
           id="g36169">
          <g
             id="g36171" />
          <g
             id="g36177">
            <g
               clip-path="url(#clipPath36173)"
               id="g36179">
              <g
                 transform="translate(45.2866,212.6816)"
                 id="g36181">
                <path
                   inkscape:connector-curvature="0"
                   d="m 0,0 0,7.303 -1.21,0 0,-7.303 c 0,-0.261 0.211,-0.473 0.473,-0.473 l 1.211,0 C 0.212,-0.473 0,-0.261 0,0"
                   style="fill:#ddbf9a;fill-opacity:1;fill-rule:nonzero;stroke:none"
                   id="path36183" />
              </g>
            </g>
          </g>
        </g>
        <g
           id="g36185"
           transform="translate(56.4038,220.2275)">
          <path
             inkscape:connector-curvature="0"
             d="m 0,0 c 0,-0.135 -0.109,-0.243 -0.244,-0.243 l -12.3,0 c -0.135,0 -0.244,0.108 -0.244,0.243 0,0.134 0.109,0.243 0.244,0.243 l 12.3,0 C -0.109,0.243 0,0.134 0,0"
             style="fill:#636b62;fill-opacity:1;fill-rule:nonzero;stroke:none"
             id="path36187" />
        </g>
        <path
           inkscape:connector-curvature="0"
           d="m 55.216,225.99 -10.4,0 0,0.684 10.4,0 0,-0.684 z"
           style="fill:#d3d2d2;fill-opacity:1;fill-rule:nonzero;stroke:none"
           id="path36189" />
        <g
           id="g36191"
           transform="translate(47.2153,228.6211)">
          <path
             inkscape:connector-curvature="0"
             d="m 0,0 0.235,-1.947 2.105,0 L 2.525,0 0,0 z"
             style="fill:#d3d2d2;fill-opacity:1;fill-rule:nonzero;stroke:none"
             id="path36193" />
        </g>
        <g
           id="g36195"
           transform="translate(50.1626,228.6211)">
          <path
             inkscape:connector-curvature="0"
             d="m 0,0 0.235,-1.947 2.105,0 L 2.525,0 0,0 z"
             style="fill:#d3d2d2;fill-opacity:1;fill-rule:nonzero;stroke:none"
             id="path36197" />
        </g>
        <g
           id="g36199"
           transform="translate(47.2153,228.6211)">
          <path
             inkscape:connector-curvature="0"
             d="m 0,0 0.235,-1.947 0.303,0 L 0.303,0 0,0 z"
             style="fill:#a7a5a6;fill-opacity:1;fill-rule:nonzero;stroke:none"
             id="path36201" />
        </g>
        <g
           id="g36203"
           transform="translate(50.1626,228.6211)">
          <path
             inkscape:connector-curvature="0"
             d="m 0,0 0.235,-1.947 0.303,0 L 0.303,0 0,0 z"
             style="fill:#a7a5a6;fill-opacity:1;fill-rule:nonzero;stroke:none"
             id="path36205" />
        </g>
        <path
           inkscape:connector-curvature="0"
           d="m 49.608,224.622 -2.124,0 0,1.368 2.124,0 0,-1.368 z"
           style="fill:#444142;fill-opacity:1;fill-rule:nonzero;stroke:none"
           id="path36207" />
        <path
           inkscape:connector-curvature="0"
           d="m 49.471,224.622 -1.849,0 0,1.368 1.849,0 0,-1.368 z"
           style="fill:#444142;fill-opacity:1;fill-rule:nonzero;stroke:none"
           id="path36209" />
        <g
           id="g36211">
          <g
             id="g36213" />
          <g
             id="g36219">
            <g
               clip-path="url(#clipPath36215)"
               id="g36221">
              <path
                 inkscape:connector-curvature="0"
                 d="m 48.906,224.622 -0.981,0 0,1.368 0.981,0 0,-1.368 z"
                 style="fill:#444142;fill-opacity:1;fill-rule:nonzero;stroke:none"
                 id="path36223" />
            </g>
          </g>
        </g>
        <g
           id="g36225">
          <g
             id="g36227" />
          <g
             id="g36233">
            <g
               clip-path="url(#clipPath36229)"
               id="g36235">
              <path
                 inkscape:connector-curvature="0"
                 d="m 48.559,224.622 -0.35,0 0,1.368 0.35,0 0,-1.368 z"
                 style="fill:#444142;fill-opacity:1;fill-rule:nonzero;stroke:none"
                 id="path36237" />
            </g>
          </g>
        </g>
        <path
           inkscape:connector-curvature="0"
           d="m 52.555,224.622 -2.124,0 0,1.368 2.124,0 0,-1.368 z"
           style="fill:#444142;fill-opacity:1;fill-rule:nonzero;stroke:none"
           id="path36239" />
        <path
           inkscape:connector-curvature="0"
           d="m 52.418,224.622 -1.85,0 0,1.368 1.85,0 0,-1.368 z"
           style="fill:#444142;fill-opacity:1;fill-rule:nonzero;stroke:none"
           id="path36241" />
        <g
           id="g36243">
          <g
             id="g36245" />
          <g
             id="g36251">
            <g
               clip-path="url(#clipPath36247)"
               id="g36253">
              <path
                 inkscape:connector-curvature="0"
                 d="m 51.853,224.622 -0.981,0 0,1.368 0.981,0 0,-1.368 z"
                 style="fill:#444142;fill-opacity:1;fill-rule:nonzero;stroke:none"
                 id="path36255" />
            </g>
          </g>
        </g>
        <g
           id="g36257">
          <g
             id="g36259" />
          <g
             id="g36265">
            <g
               clip-path="url(#clipPath36261)"
               id="g36267">
              <path
                 inkscape:connector-curvature="0"
                 d="m 51.505,224.622 -0.35,0 0,1.368 0.35,0 0,-1.368 z"
                 style="fill:#444142;fill-opacity:1;fill-rule:nonzero;stroke:none"
                 id="path36269" />
            </g>
          </g>
        </g>
        <g
           id="g36271"
           transform="translate(42.9443,234.4463)">
          <path
             inkscape:connector-curvature="0"
             d="m 0,0 c -0.824,1.401 -1.633,2.815 -2.431,4.237 -2.438,4.348 -4.78,8.783 -6.905,13.359 -2.664,5.735 -5.869,12.275 -4.595,19.021 1.584,8.387 7.303,14.083 14.211,15.9 2.124,0.558 4.302,0.796 6.475,0.824 l 0.002,0 C 4.14,53.319 1.517,53.081 -1.041,52.517 -9.275,50.7 -16.092,45.004 -17.98,36.617 -19.499,29.871 -15.679,23.331 -12.504,17.596 -9.97,13.02 -7.179,8.585 -4.273,4.237 -3.322,2.815 -2.357,1.401 -1.375,0 c 0.204,-0.291 0.698,-1.349 1.097,-1.349 l 1.198,0 C 0.585,-1.349 0.171,-0.291 0,0"
             style="fill:#a82526;fill-opacity:1;fill-rule:nonzero;stroke:none"
             id="path36273" />
        </g>
        <g
           id="g36275">
          <g
             id="g36277" />
          <g
             id="g36283">
            <g
               clip-path="url(#clipPath36279)"
               id="g36285">
              <g
                 transform="translate(43.2061,286.959)"
                 id="g36287">
                <path
                   inkscape:connector-curvature="0"
                   d="m 0,0 c 2.124,0.559 4.301,0.797 6.475,0.824 l 0.002,0 C 5.081,0.812 3.684,0.736 2.296,0.586 1.277,0.453 0.264,0.264 -0.737,0 c -6.908,-1.816 -12.627,-7.512 -14.21,-15.898 -1.275,-6.747 1.93,-13.288 4.593,-19.022 2.126,-4.576 4.468,-9.011 6.906,-13.359 0.798,-1.422 1.607,-2.836 2.431,-4.237 0.171,-0.291 0.586,-1.349 0.92,-1.349 l 0.737,0 c -0.335,0 -0.749,1.058 -0.92,1.349 -0.824,1.401 -1.634,2.815 -2.431,4.237 -2.438,4.348 -4.78,8.783 -6.906,13.359 -2.663,5.734 -5.868,12.275 -4.594,19.022 C -12.627,-7.512 -6.908,-1.816 0,0"
                   style="fill:#a82526;fill-opacity:1;fill-rule:nonzero;stroke:none"
                   id="path36289" />
              </g>
            </g>
          </g>
        </g>
        <g
           id="g36291"
           transform="translate(42.0601,234.4844)">
          <path
             inkscape:connector-curvature="0"
             d="m 0,0 c -0.824,1.4 -1.633,2.814 -2.431,4.236 -0.09,0.162 -0.179,0.325 -0.268,0.487 -2.791,4.192 -5.47,8.466 -7.91,12.873 -3.175,5.734 -6.995,12.275 -5.476,19.021 1.61,7.154 6.808,12.348 13.412,14.848 0.953,0.431 1.94,0.785 2.954,1.051 0.283,0.075 0.569,0.142 0.855,0.207 C 0.795,52.658 0.456,52.591 0.117,52.517 -8.117,50.699 -14.934,45.004 -16.822,36.617 -18.34,29.871 -14.521,23.33 -11.346,17.596 -8.812,13.02 -6.021,8.585 -3.115,4.236 -2.164,2.814 -1.199,1.401 -0.216,0 -0.013,-0.291 0.481,-1.349 0.88,-1.349 l 0.04,0 C 0.585,-1.348 0.171,-0.291 0,0"
             style="fill:#c26767;fill-opacity:1;fill-rule:nonzero;stroke:none"
             id="path36293" />
        </g>
        <g
           id="g36295"
           transform="translate(75.2427,271.0635)">
          <path
             inkscape:connector-curvature="0"
             d="m 0,0 c -1.888,8.387 -8.705,14.083 -16.939,15.899 -2.558,0.565 -5.181,0.803 -7.798,0.825 l 0.003,0 c 2.172,-0.028 4.35,-0.266 6.474,-0.825 C -11.352,14.083 -5.633,8.387 -4.049,0 c 1.274,-6.746 -1.931,-13.286 -4.595,-19.021 -2.125,-4.577 -4.467,-9.011 -6.905,-13.359 -0.798,-1.422 -1.607,-2.836 -2.431,-4.237 -0.171,-0.291 -0.585,-1.349 -0.92,-1.349 l 1.198,0 c 0.399,0 0.893,1.058 1.097,1.349 0.982,1.401 1.947,2.815 2.898,4.237 2.906,4.348 5.697,8.782 8.231,13.359 C -2.301,-13.286 1.519,-6.746 0,0"
             style="fill:#a82526;fill-opacity:1;fill-rule:nonzero;stroke:none"
             id="path36297" />
        </g>
        <g
           id="g36299"
           transform="translate(44.7261,234.4463)">
          <path
             inkscape:connector-curvature="0"
             d="m 0,0 c -0.619,1.401 -1.227,2.815 -1.826,4.237 -1.832,4.348 -3.591,8.783 -5.188,13.359 -2,5.735 -4.407,12.275 -3.45,19.021 1.189,8.387 5.485,14.083 10.674,15.9 1.561,0.546 3.161,0.787 4.758,0.822 0.002,0 0.004,0 0.005,0.002 C 2.8,53.313 0.623,53.075 -1.501,52.517 -8.41,50.7 -14.129,45.004 -15.712,36.617 -16.986,29.871 -13.782,23.331 -11.118,17.596 -8.993,13.02 -6.651,8.585 -4.213,4.237 -3.415,2.815 -2.606,1.401 -1.782,0 c 0.171,-0.291 0.586,-1.349 0.921,-1.349 l 1.552,0 C 0.439,-1.349 0.128,-0.291 0,0"
             style="fill:#ecc57c;fill-opacity:1;fill-rule:nonzero;stroke:none"
             id="path36301" />
        </g>
        <g
           id="g36303">
          <g
             id="g36305" />
          <g
             id="g36311">
            <g
               clip-path="url(#clipPath36307)"
               id="g36313">
              <g
                 transform="translate(44.9199,286.9609)"
                 id="g36315">
                <path
                   inkscape:connector-curvature="0"
                   d="M 0,0 C 1.562,0.547 3.161,0.787 4.758,0.821 4.76,0.822 4.761,0.822 4.763,0.824 4.176,0.816 3.59,0.792 3.004,0.752 1.817,0.644 0.635,0.406 -0.526,0 -5.715,-1.816 -10.011,-7.513 -11.2,-15.899 c -0.957,-6.746 1.45,-13.287 3.45,-19.021 1.597,-4.577 3.356,-9.012 5.187,-13.359 0.6,-1.423 1.208,-2.836 1.826,-4.237 0.129,-0.292 0.44,-1.349 0.692,-1.349 l 0.526,0 c -0.252,0 -0.563,1.057 -0.691,1.349 -0.619,1.401 -1.227,2.814 -1.827,4.237 -1.831,4.347 -3.59,8.782 -5.187,13.359 -2,5.734 -4.407,12.275 -3.45,19.021 C -9.485,-7.513 -5.189,-1.816 0,0"
                   style="fill:#ecc57c;fill-opacity:1;fill-rule:nonzero;stroke:none"
                   id="path36317" />
              </g>
            </g>
          </g>
        </g>
        <g
           id="g36319"
           transform="translate(44.3105,234.5205)">
          <path
             inkscape:connector-curvature="0"
             d="m 0,0 c -0.823,1.401 -1.633,2.813 -2.431,4.237 -2.438,4.348 -4.779,8.782 -6.905,13.359 -2.664,5.734 -5.868,12.275 -4.594,19.02 1.584,8.388 7.303,14.083 14.211,15.901 1.29,0.338 2.6,0.558 3.917,0.685 -1.635,-0.103 -3.265,-0.342 -4.865,-0.763 -6.907,-1.817 -12.626,-7.512 -14.21,-15.899 -1.274,-6.746 1.931,-13.287 4.594,-19.021 2.125,-4.577 4.467,-9.011 6.905,-13.359 0.797,-1.423 1.607,-2.836 2.431,-4.237 0.171,-0.291 0.586,-1.349 0.921,-1.349 l 1.552,0 c -0.04,0 -0.083,0.03 -0.125,0.077 l -0.48,0 C 0.586,-1.349 0.171,-0.292 0,0"
             style="fill:#f2d6a3;fill-opacity:1;fill-rule:nonzero;stroke:none"
             id="path36321" />
        </g>
        <g
           id="g36323"
           transform="translate(57.2627,234.4463)">
          <path
             inkscape:connector-curvature="0"
             d="m 0,0 c 0.824,1.401 1.633,2.815 2.431,4.237 2.438,4.348 4.78,8.783 6.905,13.359 2.664,5.735 5.869,12.275 4.595,19.021 -1.584,8.387 -7.303,14.083 -14.211,15.9 -2.124,0.558 -4.302,0.796 -6.474,0.824 10e-4,-0.002 0.003,-0.002 0.004,-0.002 1.598,-0.035 3.197,-0.276 4.758,-0.822 C 3.197,50.7 7.493,45.004 8.683,36.617 9.64,29.871 7.232,23.331 5.232,17.596 3.635,13.02 1.876,8.585 0.045,4.237 -0.555,2.815 -1.163,1.401 -1.782,0 -1.91,-0.291 -2.221,-1.349 -2.473,-1.349 l 1.553,0 c 0.335,0 0.749,1.058 0.92,1.349"
             style="fill:#ecc57c;fill-opacity:1;fill-rule:nonzero;stroke:none"
             id="path36325" />
        </g>
        <g
           id="g36327"
           transform="translate(55.481,234.4463)">
          <path
             inkscape:connector-curvature="0"
             d="m 0,0 c 0.619,1.401 1.227,2.815 1.827,4.237 1.831,4.348 3.59,8.783 5.187,13.359 2,5.735 4.407,12.275 3.45,19.021 -1.189,8.387 -5.485,14.083 -10.674,15.9 -1.561,0.546 -3.161,0.787 -4.758,0.822 0.004,-0.002 0.008,-0.004 0.011,-0.005 0.983,-0.053 1.966,-0.298 2.927,-0.817 C 1.332,50.7 4.114,45.004 4.885,36.617 5.504,29.871 3.945,23.331 2.649,17.596 1.615,13.02 0.476,8.585 -0.711,4.237 -1.099,2.815 -1.493,1.401 -1.894,0 -1.977,-0.291 -2.179,-1.349 -2.342,-1.349 l 1.651,0 c 0.252,0 0.563,1.058 0.691,1.349"
             style="fill:#a82526;fill-opacity:1;fill-rule:nonzero;stroke:none"
             id="path36329" />
        </g>
        <g
           id="g36331"
           transform="translate(46.6196,234.4463)">
          <path
             inkscape:connector-curvature="0"
             d="m 0,0 c -0.4,1.401 -0.795,2.815 -1.183,4.237 -1.186,4.348 -2.325,8.783 -3.36,13.359 -1.295,5.735 -2.855,12.275 -2.235,19.021 0.771,8.387 3.553,14.083 6.915,15.9 0.96,0.519 1.944,0.764 2.926,0.817 0.004,10e-4 0.008,0.003 0.011,0.005 -1.596,-0.035 -3.196,-0.276 -4.758,-0.822 -5.189,-1.817 -9.484,-7.513 -10.674,-15.9 -0.957,-6.746 1.45,-13.286 3.451,-19.021 C -7.311,13.02 -5.552,8.585 -3.72,4.237 -3.121,2.815 -2.513,1.401 -1.894,0 c 0.128,-0.291 0.44,-1.349 0.692,-1.349 l 1.65,0 C 0.285,-1.349 0.083,-0.291 0,0"
             style="fill:#a82526;fill-opacity:1;fill-rule:nonzero;stroke:none"
             id="path36333" />
        </g>
        <g
           id="g36335">
          <g
             id="g36337" />
          <g
             id="g36343">
            <g
               clip-path="url(#clipPath36339)"
               id="g36345">
              <g
                 transform="translate(46.7637,286.959)"
                 id="g36347">
                <path
                   inkscape:connector-curvature="0"
                   d="M 0,0 C 0.96,0.52 1.943,0.764 2.926,0.816 2.93,0.818 2.934,0.82 2.938,0.821 2.666,0.815 2.395,0.801 2.123,0.783 1.276,0.689 0.433,0.447 -0.395,0 -3.756,-1.816 -6.539,-7.513 -7.31,-15.899 c -0.62,-6.747 0.939,-13.287 2.236,-19.022 1.034,-4.577 2.174,-9.011 3.36,-13.358 0.388,-1.423 0.782,-2.836 1.183,-4.238 0.083,-0.291 0.285,-1.348 0.448,-1.348 l 0.394,0 c -0.163,0 -0.364,1.057 -0.447,1.348 -0.401,1.402 -0.796,2.815 -1.183,4.238 -1.187,4.347 -2.327,8.781 -3.361,13.358 -1.295,5.735 -2.855,12.275 -2.235,19.022 C -6.145,-7.513 -3.362,-1.816 0,0"
                   style="fill:#a82526;fill-opacity:1;fill-rule:nonzero;stroke:none"
                   id="path36349" />
              </g>
            </g>
          </g>
        </g>
        <g
           id="g36351"
           transform="translate(46.2036,234.4434)">
          <path
             inkscape:connector-curvature="0"
             d="m 0,0 c -0.13,0.455 -0.259,0.914 -0.388,1.372 -0.413,0.95 -0.823,1.905 -1.227,2.864 -1.832,4.349 -3.591,8.784 -5.187,13.36 -2.001,5.734 -4.408,12.275 -3.451,19.021 1.127,7.946 5.044,13.475 9.865,15.578 0.173,0.118 0.348,0.226 0.525,0.321 0.527,0.285 1.061,0.485 1.598,0.619 C 0.904,53.002 0.079,52.801 -0.736,52.516 -5.925,50.699 -10.221,45.004 -11.411,36.617 -12.368,29.871 -9.96,23.33 -7.96,17.596 -6.363,13.02 -4.604,8.585 -2.773,4.236 -2.174,2.814 -1.566,1.4 -0.947,0 c 0.129,-0.291 0.44,-1.35 0.691,-1.35 l 0.704,0 C 0.285,-1.35 0.083,-0.291 0,0"
             style="fill:#b95151;fill-opacity:1;fill-rule:nonzero;stroke:none"
             id="path36353" />
        </g>
        <g
           id="g36355"
           transform="translate(53.5874,234.4463)">
          <path
             inkscape:connector-curvature="0"
             d="m 0,0 c 0.401,1.401 0.794,2.815 1.183,4.237 1.186,4.348 2.325,8.783 3.36,13.359 1.295,5.735 2.855,12.275 2.235,19.021 -0.771,8.387 -3.553,14.083 -6.915,15.9 -0.96,0.519 -1.944,0.764 -2.926,0.817 0.289,-0.112 0.577,-0.347 0.86,-0.747 C -0.916,50.771 0.149,45.075 0.444,36.688 0.682,29.942 0.085,23.401 -0.411,17.667 -0.807,13.091 -1.243,8.657 -1.698,4.309 -1.846,2.886 -1.997,1.472 -2.15,0.071 -2.182,-0.22 -2.259,-1.277 -2.322,-1.277 l -0.986,0 -0.352,0 -0.986,0 c -0.062,0 -0.14,1.057 -0.171,1.348 -0.154,1.401 -0.305,2.815 -0.453,4.238 -0.455,4.348 -0.891,8.782 -1.287,13.358 -0.496,5.734 -1.092,12.275 -0.855,19.021 0.295,8.387 1.36,14.083 2.647,15.899 0.283,0.4 0.571,0.635 0.86,0.747 -0.982,-0.053 -1.966,-0.298 -2.926,-0.817 -3.361,-1.817 -6.144,-7.513 -6.915,-15.9 -0.62,-6.746 0.94,-13.286 2.235,-19.021 C -10.476,13.02 -9.337,8.585 -8.15,4.237 -7.763,2.815 -7.368,1.401 -6.968,0 c 0.084,-0.291 0.285,-1.349 0.448,-1.349 l 1.909,0 0.182,0 0.235,0 0.25,0 0.921,0 0.25,0 0.234,0 0.182,0 1.909,0 c 0.163,0 0.365,1.058 0.448,1.349"
             style="fill:#ecc57c;fill-opacity:1;fill-rule:nonzero;stroke:none"
             id="path36357" />
        </g>
        <g
           id="g36359"
           transform="translate(48.7915,233.1035)">
          <path
             inkscape:connector-curvature="0"
             d="m 0,0 -0.217,0.071 c -0.062,0 -0.139,1.058 -0.171,1.349 -0.009,0.076 -0.017,0.152 -0.025,0.229 -0.372,1.303 -0.738,2.616 -1.098,3.937 -1.186,4.348 -2.326,8.782 -3.36,13.358 -1.296,5.735 -2.856,12.277 -2.235,19.022 0.747,8.135 3.388,13.737 6.612,15.723 0.053,0.088 0.105,0.172 0.158,0.248 0.162,0.227 0.324,0.399 0.489,0.528 C -0.458,54.334 -1.066,54.117 -1.665,53.793 -5.027,51.977 -7.809,46.281 -8.58,37.895 -9.2,31.148 -7.641,24.607 -6.345,18.873 -5.311,14.297 -4.17,9.862 -2.985,5.515 -2.597,4.092 -2.202,2.678 -1.802,1.277 -1.731,1.031 -1.576,0.24 -1.432,0 L -0.182,0 0,0 z"
             style="fill:#f2d6a3;fill-opacity:1;fill-rule:nonzero;stroke:none"
             id="path36361" />
        </g>
        <g
           id="g36363"
           transform="translate(50.1035,287.791)">
          <path
             inkscape:connector-curvature="0"
             d="m 0,0 c -0.134,0 -0.269,-0.003 -0.402,-0.004 l -0.002,0 C -0.27,-0.003 -0.135,0 0,0"
             style="fill:#a82526;fill-opacity:1;fill-rule:nonzero;stroke:none"
             id="path36365" />
        </g>
        <g
           id="g36367"
           transform="translate(50.5083,287.7871)">
          <path
             inkscape:connector-curvature="0"
             d="M 0,0 -0.002,0 C -0.136,0.001 -0.271,0.004 -0.405,0.004 -0.27,0.004 -0.135,0.001 0,0"
             style="fill:#a82526;fill-opacity:1;fill-rule:nonzero;stroke:none"
             id="path36369" />
        </g>
        <g
           id="g36371"
           transform="translate(49.6992,287.7871)">
          <path
             inkscape:connector-curvature="0"
             d="M 0,0 C -0.001,-0.002 -0.003,-0.002 -0.005,-0.002 0.131,0 0.268,0.004 0.404,0.004 0.27,0.004 0.135,0.001 0,0"
             style="fill:#a82526;fill-opacity:1;fill-rule:nonzero;stroke:none"
             id="path36373" />
        </g>
        <g
           id="g36375"
           transform="translate(50.5132,287.7852)">
          <path
             inkscape:connector-curvature="0"
             d="M 0,0 C -0.002,0 -0.004,0 -0.005,0.002 -0.14,0.003 -0.275,0.006 -0.41,0.006 -0.273,0.006 -0.137,0.002 0,0"
             style="fill:#a82526;fill-opacity:1;fill-rule:nonzero;stroke:none"
             id="path36377" />
        </g>
        <g
           id="g36379"
           transform="translate(49.6938,287.7852)">
          <path
             inkscape:connector-curvature="0"
             d="M 0,0 C -0.003,-0.002 -0.007,-0.004 -0.011,-0.005 0.129,0.002 0.269,0.006 0.41,0.006 0.273,0.006 0.137,0.002 0,0"
             style="fill:#a82526;fill-opacity:1;fill-rule:nonzero;stroke:none"
             id="path36381" />
        </g>
        <g
           id="g36383"
           transform="translate(50.5244,287.7803)">
          <path
             inkscape:connector-curvature="0"
             d="M 0,0 C -0.004,0.001 -0.008,0.003 -0.011,0.005 -0.148,0.007 -0.285,0.011 -0.421,0.011 -0.28,0.011 -0.141,0.007 0,0"
             style="fill:#a82526;fill-opacity:1;fill-rule:nonzero;stroke:none"
             id="path36385" />
        </g>
        <g
           id="g36387"
           transform="translate(49.6826,287.7803)">
          <path
             inkscape:connector-curvature="0"
             d="m 0,0 c -0.289,-0.112 -0.577,-0.347 -0.86,-0.747 -1.287,-1.816 -2.352,-7.512 -2.647,-15.899 -0.238,-6.746 0.359,-13.287 0.855,-19.021 0.396,-4.576 0.832,-9.01 1.287,-13.358 0.148,-1.423 0.299,-2.837 0.452,-4.238 0.032,-0.291 0.11,-1.348 0.172,-1.348 l 0.986,0 0.352,0 0.986,0 c 0.063,0 0.14,1.057 0.171,1.348 0.154,1.401 0.305,2.815 0.453,4.238 0.455,4.348 0.891,8.782 1.287,13.358 0.496,5.734 1.092,12.275 0.855,19.021 C 4.054,-8.259 2.989,-2.563 1.702,-0.747 1.419,-0.347 1.131,-0.112 0.842,0 0.701,0.007 0.562,0.011 0.421,0.011 0.28,0.011 0.141,0.007 0,0"
             style="fill:#a82526;fill-opacity:1;fill-rule:nonzero;stroke:none"
             id="path36389" />
        </g>
        <g
           id="g36391"
           transform="translate(49.3052,238.7715)">
          <path
             inkscape:connector-curvature="0"
             d="m 0,0 c -0.455,4.349 -0.891,8.783 -1.287,13.359 -0.496,5.735 -1.092,12.276 -0.855,19.022 0.295,8.387 1.36,14.082 2.647,15.899 0.188,0.266 0.379,0.456 0.571,0.589 C 0.997,48.922 0.918,48.968 0.839,49.002 0.567,48.883 0.297,48.654 0.031,48.28 -1.256,46.463 -2.321,40.768 -2.616,32.381 -2.853,25.635 -2.256,19.094 -1.76,13.359 -1.364,8.783 -0.928,4.349 -0.474,0 c 0.149,-1.422 0.3,-2.836 0.453,-4.236 0.032,-0.291 0.109,-1.349 0.171,-1.349 l 0.039,0 0.353,0 0.082,0 c -0.062,0 -0.14,1.058 -0.172,1.349 C 0.299,-2.836 0.148,-1.422 0,0"
             style="fill:#b95151;fill-opacity:1;fill-rule:nonzero;stroke:none"
             id="path36393" />
        </g>
        <g
           id="g36395">
          <g
             id="g36397" />
          <g
             id="g36403">
            <g
               clip-path="url(#clipPath36399)"
               id="g36405">
              <g
                 transform="translate(51.4565,238.7715)"
                 id="g36407">
                <path
                   inkscape:connector-curvature="0"
                   d="m 0,0 c 0.454,4.349 0.891,8.783 1.286,13.359 0.496,5.735 1.093,12.276 0.856,19.022 -0.295,8.387 -1.361,14.082 -2.647,15.899 -0.189,0.266 -0.379,0.456 -0.571,0.589 0.079,0.053 0.158,0.099 0.237,0.133 0.271,-0.119 0.542,-0.348 0.807,-0.722 C 1.255,46.463 2.321,40.768 2.615,32.381 2.853,25.635 2.256,19.094 1.76,13.359 1.364,8.783 0.928,4.349 0.474,0 0.325,-1.422 0.174,-2.836 0.021,-4.236 -0.011,-4.527 -0.088,-5.585 -0.15,-5.585 l -0.039,0 -0.353,0 -0.082,0 c 0.062,0 0.14,1.058 0.171,1.349 0.154,1.4 0.305,2.814 0.453,4.236"
                   style="fill:#b95151;fill-opacity:1;fill-rule:nonzero;stroke:none"
                   id="path36409" />
              </g>
            </g>
          </g>
        </g>
        <g
           id="g36411"
           transform="translate(57.958,232.8535)">
          <path
             inkscape:connector-curvature="0"
             d="m 0,0 c 0,-0.243 -0.197,-0.439 -0.44,-0.439 l -14.829,0 c -0.243,0 -0.44,0.196 -0.44,0.439 0,0.243 0.197,0.439 0.44,0.439 l 14.829,0 C -0.197,0.439 0,0.243 0,0"
             style="fill:#a82526;fill-opacity:1;fill-rule:nonzero;stroke:none"
             id="path36413" />
        </g>
        <g
           id="g36415"
           transform="translate(56.9829,232.8535)">
          <path
             inkscape:connector-curvature="0"
             d="m 0,0 c 0,-0.243 -0.172,-0.439 -0.385,-0.439 l -12.989,0 c -0.212,0 -0.385,0.196 -0.385,0.439 0,0.243 0.173,0.439 0.385,0.439 l 12.989,0 C -0.172,0.439 0,0.243 0,0"
             style="fill:#af3637;fill-opacity:1;fill-rule:nonzero;stroke:none"
             id="path36417" />
        </g>
        <g
           id="g36419"
           transform="translate(53.502,232.8535)">
          <path
             inkscape:connector-curvature="0"
             d="m 0,0 c 0,-0.243 -0.113,-0.439 -0.252,-0.439 l -8.49,0 c -0.139,0 -0.253,0.196 -0.253,0.439 0,0.243 0.114,0.439 0.253,0.439 l 8.49,0 C -0.113,0.439 0,0.243 0,0"
             style="fill:#be5c5c;fill-opacity:1;fill-rule:nonzero;stroke:none"
             id="path36421" />
        </g>
        <g
           id="g36423"
           transform="translate(49.8301,232.8535)">
          <path
             inkscape:connector-curvature="0"
             d="m 0,0 c 0,-0.243 -0.047,-0.439 -0.106,-0.439 l -3.571,0 c -0.059,0 -0.106,0.196 -0.106,0.439 0,0.243 0.047,0.439 0.106,0.439 l 3.571,0 C -0.047,0.439 0,0.243 0,0"
             style="fill:#d39293;fill-opacity:1;fill-rule:nonzero;stroke:none"
             id="path36425" />
        </g>
        <g
           id="g36427">
          <g
             id="g36429" />
          <g
             id="g36435">
            <g
               clip-path="url(#clipPath36431)"
               id="g36437">
              <g
                 transform="translate(42.689,233.1357)"
                 id="g36439">
                <path
                   inkscape:connector-curvature="0"
                   d="m 0,0 14.829,0 c 0.216,0 0.395,-0.156 0.432,-0.361 0.005,0.026 0.008,0.051 0.008,0.079 0,0.243 -0.197,0.439 -0.44,0.439 L 0,0.157 c -0.243,0 -0.44,-0.196 -0.44,-0.439 0,-0.028 0.003,-0.053 0.008,-0.079 C -0.395,-0.156 -0.216,0 0,0"
                   style="fill:#a82526;fill-opacity:1;fill-rule:nonzero;stroke:none"
                   id="path36441" />
              </g>
            </g>
          </g>
        </g>
        <g
           id="g36443"
           transform="translate(55.6255,214.9033)">
          <path
             inkscape:connector-curvature="0"
             d="M 0,0 -0.936,0.315 -1.871,0 -2.805,0.315 -3.74,0 -4.674,0.315 -5.608,0 -6.543,0.315 -7.477,0 -8.411,0.315 -9.345,0 -10.28,0.315 -11.214,0 l -0.342,0.116 0,-0.167 0.342,-0.116 0.934,0.316 0.935,-0.316 0.934,0.316 0.934,-0.316 0.934,0.316 0.935,-0.316 0.934,0.316 0.934,-0.316 0.935,0.316 0.934,-0.316 0.935,0.316 0.936,-0.316 0.324,0.11 0,0.167 L 0,0 z"
             style="fill:#9e7e64;fill-opacity:1;fill-rule:nonzero;stroke:none"
             id="path36445" />
        </g>
        <g
           id="g36447"
           transform="translate(55.6255,215.3467)">
          <path
             inkscape:connector-curvature="0"
             d="M 0,0 -0.936,0.315 -1.871,0 -2.805,0.315 -3.74,0 -4.674,0.315 -5.608,0 -6.543,0.315 -7.477,0 -8.411,0.315 -9.345,0 -10.28,0.315 -11.214,0 l -0.342,0.115 0,-0.167 0.342,-0.115 0.934,0.316 0.935,-0.316 0.934,0.316 0.934,-0.316 0.934,0.316 0.935,-0.316 0.934,0.316 0.934,-0.316 0.935,0.316 0.934,-0.316 0.935,0.316 0.936,-0.316 0.324,0.109 0,0.167 L 0,0 z"
             style="fill:#9e7e64;fill-opacity:1;fill-rule:nonzero;stroke:none"
             id="path36449" />
        </g>
        <g
           id="g36451"
           transform="translate(55.6255,214.4609)">
          <path
             inkscape:connector-curvature="0"
             d="M 0,0 -0.936,0.315 -1.871,0 -2.805,0.315 -3.74,0 -4.674,0.315 -5.608,0 -6.543,0.315 -7.477,0 -8.411,0.315 -9.345,0 -10.28,0.315 -11.214,0 l -0.342,0.115 0,-0.166 0.342,-0.116 0.934,0.315 0.935,-0.315 0.934,0.315 0.934,-0.315 0.934,0.315 0.935,-0.315 0.934,0.315 0.934,-0.315 0.935,0.315 0.934,-0.315 0.935,0.315 0.936,-0.315 0.324,0.109 0,0.167 L 0,0 z"
             style="fill:#9e7e64;fill-opacity:1;fill-rule:nonzero;stroke:none"
             id="path36453" />
        </g>
        <g
           id="g36455"
           transform="translate(55.6255,215.7891)">
          <path
             inkscape:connector-curvature="0"
             d="M 0,0 -0.936,0.316 -1.871,0 -2.805,0.316 -3.74,0 -4.674,0.316 -5.608,0 -6.543,0.316 -7.477,0 -8.411,0.316 -9.345,0 -10.28,0.316 -11.214,0 l -0.342,0.116 0,-0.167 0.342,-0.115 0.934,0.315 0.935,-0.315 0.934,0.315 0.934,-0.315 0.934,0.315 0.935,-0.315 0.934,0.315 0.934,-0.315 0.935,0.315 0.934,-0.315 0.935,0.315 L 0,-0.166 0.324,-0.057 0.324,0.11 0,0 z"
             style="fill:#9e7e64;fill-opacity:1;fill-rule:nonzero;stroke:none"
             id="path36457" />
        </g>
        <g
           id="g36459"
           transform="translate(55.9497,213.0742)">
          <path
             inkscape:connector-curvature="0"
             d="M 0,0 0,0.167 -0.324,0.057 -1.26,0.373 -2.195,0.057 -3.129,0.373 -4.064,0.057 -4.999,0.373 -5.933,0.057 -6.867,0.373 -7.801,0.057 -8.735,0.373 -9.669,0.057 l -0.935,0.316 -0.935,-0.316 -0.341,0.116 0,-0.167 0.341,-0.115 0.935,0.316 0.935,-0.316 0.934,0.316 0.934,-0.316 0.934,0.316 0.934,-0.316 0.934,0.316 0.935,-0.316 0.935,0.316 0.934,-0.316 0.935,0.316 0.936,-0.316 L 0,0 z"
             style="fill:#9e7e64;fill-opacity:1;fill-rule:nonzero;stroke:none"
             id="path36461" />
        </g>
        <g
           id="g36463"
           transform="translate(55.6255,213.5742)">
          <path
             inkscape:connector-curvature="0"
             d="M 0,0 -0.936,0.316 -1.871,0 -2.805,0.316 -3.74,0 -4.674,0.316 -5.608,0 -6.543,0.316 -7.477,0 -8.411,0.316 -9.345,0 -10.28,0.316 -11.214,0 l -0.342,0.115 0,-0.166 0.342,-0.115 0.934,0.314 0.935,-0.314 0.934,0.314 0.934,-0.314 0.934,0.314 0.935,-0.314 0.934,0.314 0.934,-0.314 0.935,0.314 0.934,-0.314 0.935,0.314 0.936,-0.314 0.324,0.109 0,0.166 L 0,0 z"
             style="fill:#9e7e64;fill-opacity:1;fill-rule:nonzero;stroke:none"
             id="path36465" />
        </g>
        <g
           id="g36467"
           transform="translate(55.6255,214.0176)">
          <path
             inkscape:connector-curvature="0"
             d="M 0,0 -0.936,0.316 -1.871,0 -2.805,0.316 -3.74,0 -4.674,0.316 -5.608,0 -6.543,0.316 -7.477,0 -8.411,0.316 -9.345,0 -10.28,0.316 -11.214,0 l -0.342,0.115 0,-0.166 0.342,-0.116 0.934,0.315 0.935,-0.315 0.934,0.315 0.934,-0.315 0.934,0.315 0.935,-0.315 0.934,0.315 0.934,-0.315 0.935,0.315 0.934,-0.315 0.935,0.315 0.936,-0.315 0.324,0.109 0,0.167 L 0,0 z"
             style="fill:#9e7e64;fill-opacity:1;fill-rule:nonzero;stroke:none"
             id="path36469" />
        </g>
        <g
           id="g36471"
           transform="translate(55.6255,219.334)">
          <path
             inkscape:connector-curvature="0"
             d="M 0,0 -0.936,0.315 -1.871,0 -2.805,0.315 -3.74,0 -4.674,0.315 -5.608,0 -6.543,0.315 -7.477,0 -8.411,0.315 -9.345,0 -10.28,0.315 -11.214,0 l -0.342,0.115 0,-0.166 0.342,-0.116 0.934,0.315 0.935,-0.315 0.934,0.315 0.934,-0.315 0.934,0.315 0.935,-0.315 0.934,0.315 0.934,-0.315 0.935,0.315 0.934,-0.315 0.935,0.315 0.936,-0.315 0.324,0.11 0,0.166 L 0,0 z"
             style="fill:#9e7e64;fill-opacity:1;fill-rule:nonzero;stroke:none"
             id="path36473" />
        </g>
        <g
           id="g36475"
           transform="translate(55.6255,218.0049)">
          <path
             inkscape:connector-curvature="0"
             d="M 0,0 -0.936,0.315 -1.871,0 -2.805,0.315 -3.74,0 -4.674,0.315 -5.608,0 -6.543,0.315 -7.477,0 -8.411,0.315 -9.345,0 -10.28,0.315 -11.214,0 l -0.342,0.115 0,-0.167 0.342,-0.115 0.934,0.316 0.935,-0.316 0.934,0.316 0.934,-0.316 0.934,0.316 0.935,-0.316 0.934,0.316 0.934,-0.316 0.935,0.316 0.934,-0.316 0.935,0.316 L 0,-0.167 0.324,-0.058 0.324,0.11 0,0 z"
             style="fill:#9e7e64;fill-opacity:1;fill-rule:nonzero;stroke:none"
             id="path36477" />
        </g>
        <g
           id="g36479"
           transform="translate(55.6255,218.4473)">
          <path
             inkscape:connector-curvature="0"
             d="M 0,0 -0.936,0.316 -1.871,0 -2.805,0.316 -3.74,0 -4.674,0.316 -5.608,0 -6.543,0.316 -7.477,0 -8.411,0.316 -9.345,0 -10.28,0.316 -11.214,0 l -0.342,0.116 0,-0.167 0.342,-0.115 0.934,0.315 0.935,-0.315 0.934,0.315 0.934,-0.315 0.934,0.315 0.935,-0.315 0.934,0.315 0.934,-0.315 0.935,0.315 0.934,-0.315 0.935,0.315 0.936,-0.315 0.324,0.109 0,0.166 L 0,0 z"
             style="fill:#9e7e64;fill-opacity:1;fill-rule:nonzero;stroke:none"
             id="path36481" />
        </g>
        <g
           id="g36483"
           transform="translate(55.6255,218.8906)">
          <path
             inkscape:connector-curvature="0"
             d="M 0,0 -0.936,0.316 -1.871,0 -2.805,0.316 -3.74,0 -4.674,0.316 -5.608,0 -6.543,0.316 -7.477,0 -8.411,0.316 -9.345,0 -10.28,0.316 -11.214,0 l -0.342,0.115 0,-0.166 0.342,-0.115 0.934,0.315 0.935,-0.315 0.934,0.315 0.934,-0.315 0.934,0.315 0.935,-0.315 0.934,0.315 0.934,-0.315 0.935,0.315 0.934,-0.315 0.935,0.315 0.936,-0.315 0.324,0.109 0,0.166 L 0,0 z"
             style="fill:#9e7e64;fill-opacity:1;fill-rule:nonzero;stroke:none"
             id="path36485" />
        </g>
        <g
           id="g36487"
           transform="translate(55.6255,216.6758)">
          <path
             inkscape:connector-curvature="0"
             d="M 0,0 -0.936,0.315 -1.871,0 -2.805,0.315 -3.74,0 -4.674,0.315 -5.608,0 -6.543,0.315 -7.477,0 -8.411,0.315 -9.345,0 -10.28,0.315 -11.214,0 l -0.342,0.115 0,-0.166 0.342,-0.116 0.934,0.315 0.935,-0.315 0.934,0.315 0.934,-0.315 0.934,0.315 0.935,-0.315 0.934,0.315 0.934,-0.315 0.935,0.315 0.934,-0.315 0.935,0.315 0.936,-0.315 0.324,0.11 0,0.166 L 0,0 z"
             style="fill:#9e7e64;fill-opacity:1;fill-rule:nonzero;stroke:none"
             id="path36489" />
        </g>
        <g
           id="g36491"
           transform="translate(55.6255,216.2324)">
          <path
             inkscape:connector-curvature="0"
             d="M 0,0 -0.936,0.316 -1.871,0 -2.805,0.316 -3.74,0 -4.674,0.316 -5.608,0 -6.543,0.316 -7.477,0 -8.411,0.316 -9.345,0 -10.28,0.316 -11.214,0 l -0.342,0.115 0,-0.166 0.342,-0.115 0.934,0.314 0.935,-0.314 0.934,0.314 0.934,-0.314 0.934,0.314 0.935,-0.314 0.934,0.314 0.934,-0.314 0.935,0.314 0.934,-0.314 0.935,0.314 0.936,-0.314 0.324,0.109 0,0.166 L 0,0 z"
             style="fill:#9e7e64;fill-opacity:1;fill-rule:nonzero;stroke:none"
             id="path36493" />
        </g>
        <g
           id="g36495"
           transform="translate(55.6255,217.1191)">
          <path
             inkscape:connector-curvature="0"
             d="M 0,0 -0.936,0.315 -1.871,0 -2.805,0.315 -3.74,0 -4.674,0.315 -5.608,0 -6.543,0.315 -7.477,0 -8.411,0.315 -9.345,0 -10.28,0.315 -11.214,0 l -0.342,0.115 0,-0.167 0.342,-0.115 0.934,0.315 0.935,-0.315 0.934,0.315 0.934,-0.315 0.934,0.315 0.935,-0.315 0.934,0.315 0.934,-0.315 0.935,0.315 0.934,-0.315 0.935,0.315 0.936,-0.315 0.324,0.109 0,0.167 L 0,0 z"
             style="fill:#9e7e64;fill-opacity:1;fill-rule:nonzero;stroke:none"
             id="path36497" />
        </g>
        <g
           id="g36499"
           transform="translate(55.6255,217.5625)">
          <path
             inkscape:connector-curvature="0"
             d="M 0,0 -0.936,0.314 -1.871,0 -2.805,0.314 -3.74,0 -4.674,0.314 -5.608,0 -6.543,0.314 -7.477,0 -8.411,0.314 -9.345,0 -10.28,0.314 -11.214,0 l -0.342,0.115 0,-0.167 0.342,-0.116 0.934,0.316 0.935,-0.316 0.934,0.316 0.934,-0.316 0.934,0.316 0.935,-0.316 0.934,0.316 0.934,-0.316 0.935,0.316 0.934,-0.316 0.935,0.316 0.936,-0.316 0.324,0.11 0,0.167 L 0,0 z"
             style="fill:#9e7e64;fill-opacity:1;fill-rule:nonzero;stroke:none"
             id="path36501" />
        </g>
        <g
           id="g36503">
          <g
             id="g36505" />
          <g
             id="g36511">
            <g
               style="opacity:0.5"
               clip-path="url(#clipPath36507)"
               id="g36513">
              <g
                 transform="translate(44.688,212.2715)"
                 id="g36515">
                <path
                   inkscape:connector-curvature="0"
                   d="M 0,0 C 0.896,0.105 1.791,0.181 2.686,0.219 3.582,0.265 4.477,0.262 5.373,0.285 6.268,0.261 7.164,0.266 8.059,0.219 8.954,0.18 9.85,0.104 10.745,0 l 0,-0.033 C 7.164,-0.053 3.582,-0.053 0,-0.033 L 0,0 z"
                   style="fill:#9e7e64;fill-opacity:1;fill-rule:nonzero;stroke:none"
                   id="path36517" />
              </g>
            </g>
          </g>
        </g>
      </g>
    </g>
  </g>
</svg>
