<?xml version="1.0" encoding="UTF-8" standalone="no"?>
<!-- Created with Inkscape (http://www.inkscape.org/) -->

<svg
   xmlns:dc="http://purl.org/dc/elements/1.1/"
   xmlns:cc="http://creativecommons.org/ns#"
   xmlns:rdf="http://www.w3.org/1999/02/22-rdf-syntax-ns#"
   xmlns:svg="http://www.w3.org/2000/svg"
   xmlns="http://www.w3.org/2000/svg"
   xmlns:sodipodi="http://sodipodi.sourceforge.net/DTD/sodipodi-0.dtd"
   xmlns:inkscape="http://www.inkscape.org/namespaces/inkscape"
   width="64px"
   height="64px"
   id="svg180106"
   version="1.1"
   inkscape:version="0.48.5 r10040"
   sodipodi:docname="Nowy dokument 63">
  <defs
     id="defs180108" />
  <sodipodi:namedview
     id="base"
     pagecolor="#ffffff"
     bordercolor="#666666"
     borderopacity="1.0"
     inkscape:pageopacity="0.0"
     inkscape:pageshadow="2"
     inkscape:zoom="5.5"
     inkscape:cx="32"
     inkscape:cy="32"
     inkscape:current-layer="layer1"
     showgrid="true"
     inkscape:document-units="px"
     inkscape:grid-bbox="true"
     inkscape:window-width="1366"
     inkscape:window-height="706"
     inkscape:window-x="-8"
     inkscape:window-y="-8"
     inkscape:window-maximized="1" />
  <metadata
     id="metadata180111">
    <rdf:RDF>
      <cc:Work
         rdf:about="">
        <dc:format>image/svg+xml</dc:format>
        <dc:type
           rdf:resource="http://purl.org/dc/dcmitype/StillImage" />
        <dc:title></dc:title>
      </cc:Work>
    </rdf:RDF>
  </metadata>
  <g
     id="layer1"
     inkscape:label="Layer 1"
     inkscape:groupmode="layer">
    <g
       transform="matrix(4.0491674,0,0,-4.0491674,37.725021,10.137254)"
       id="g21425">
      <path
         id="path21427"
         style="fill:#000000;fill-opacity:1;fill-rule:nonzero;stroke:none"
         d="M 0,0 C -0.411,0.741 -1.029,1.4 -1.742,1.853 -1.934,1.948 -2.181,1.825 -2.236,1.619 -2.305,1.194 -2.263,0.741 -2.14,0.37 -2.606,0.535 -3.087,0.865 -3.581,1.057 -3.992,1.125 -4.404,1.481 -4.801,1.248 -5.035,1.152 -5.035,0.795 -4.939,0.59 c 0.315,-0.481 0.686,-0.892 1.084,-1.317 -1.221,0.136 -2.32,0.418 -3.951,-0.193 -0.426,-1.673 0.041,-3.442 0.493,-5.035 0.137,-0.26 0.316,-0.548 0.302,-0.822 -0.425,-0.453 -0.754,-0.988 -0.987,-1.551 l 0.068,-0.192 1.317,-1.29 c -0.055,-0.548 0.041,-1.125 0.329,-1.578 0.151,-0.095 0.302,-0.301 0.494,-0.206 0.179,0.344 0.041,0.81 0.027,1.196 0.44,-0.083 0.865,-0.358 1.291,-0.537 -0.166,-0.466 -0.055,-0.836 0.095,-1.276 0.138,-0.247 0.398,-0.371 0.659,-0.397 0.247,0.218 0.014,0.562 0.028,0.849 0,0.207 0.014,0.412 0.109,0.564 l 1.112,-0.261 c 0.192,-0.096 0.041,-0.33 0.137,-0.467 0.069,-0.467 0.316,-0.864 0.754,-1.111 0.11,-0.014 0.248,0 0.233,0.123 -0.096,0.398 -0.233,0.796 -0.136,1.222 1.344,-0.165 2.455,0.383 3.663,0.66 0.329,-0.236 0.439,-0.688 0.521,-1.086 0.055,-0.041 0.138,-0.028 0.192,-0.028 0.315,0.398 0.412,1.043 0.165,1.51 0.974,0.399 2.071,0.823 2.798,1.742 0.014,0.686 -0.397,1.235 -0.329,1.909 -0.054,0.644 -0.741,0.74 -0.946,1.316 C 4.24,-5.255 3.787,-4.815 3.334,-4.541 4.198,-2.359 4.02,0.576 2.182,2.182 0.651,1.921 0,0 0,0"
         inkscape:connector-curvature="0" />
    </g>
    <g
       transform="matrix(4.0491674,0,0,-4.0491674,17.724176,7.7492167)"
       id="g21429">
      <path
         id="path21431"
         style="fill:#764e33;fill-opacity:1;fill-rule:nonzero;stroke:none"
         d="m 0,0 c 0.312,-0.473 0.675,-0.879 1.065,-1.298 0.312,-0.074 0.477,-0.047 0.477,-0.047 l 1.099,-0.273 c 0,0 0.617,-0.206 0.995,-0.618 0.377,-0.412 0.65,-0.515 0.65,-0.515 l 0.171,0.069 0.31,1.166 0.238,1.092 C 4.959,-0.527 4.939,-0.59 4.939,-0.59 4.528,0.151 3.91,0.811 3.197,1.263 3.006,1.358 2.759,1.235 2.703,1.029 2.635,0.604 2.677,0.151 2.8,-0.22 2.333,-0.055 1.853,0.275 1.358,0.467 0.947,0.535 0.535,0.892 0.139,0.658 -0.096,0.563 -0.096,0.205 0,0"
         inkscape:connector-curvature="0" />
    </g>
    <g
       transform="matrix(4.0491674,0,0,-4.0491674,38.393167,11.580701)"
       id="g21433">
      <path
         id="path21435"
         style="fill:#c00a21;fill-opacity:1;fill-rule:nonzero;stroke:none"
         d="m 0,0 c 0.562,-1.193 0.96,-2.483 1.029,-3.828 0.206,-0.247 0.37,-0.522 0.493,-0.823 0.399,0.274 0.824,0.48 1.318,0.535 C 4.361,-0.124 1.907,2.236 1.907,2.236 1.001,1.962 0.192,0.933 0,0"
         inkscape:connector-curvature="0" />
    </g>
    <g
       transform="matrix(4.0491674,0,0,-4.0491674,29.227439,4.2452291)"
       id="g21437">
      <path
         id="path21439"
         style="fill:#e0cfaf;fill-opacity:1;fill-rule:nonzero;stroke:none"
         d="M 0,0 C -0.097,-0.439 0.041,-0.948 0.165,-1.317 0.769,-1.812 1.316,-2.361 1.7,-3.005 1.88,-2.813 1.797,-2.471 1.906,-2.237 2.305,-1.44 1.469,-0.796 0.946,-0.233 0.657,-0.083 0.178,0.644 0,0"
         inkscape:connector-curvature="0" />
    </g>
    <g
       transform="matrix(4.0491674,0,0,-4.0491674,18.115714,6.5231283)"
       id="g21441">
      <path
         id="path21443"
         style="fill:#e0cfaf;fill-opacity:1;fill-rule:nonzero;stroke:none"
         d="M 0,0 C 0.026,-0.468 1.193,-1.675 1.193,-1.675 2.168,-1.84 3.005,-2.333 3.828,-2.868 3.417,-2.209 2.909,-1.593 2.744,-0.823 2.058,-0.316 1.304,0.054 0.494,0.26 0.302,0.273 -0.028,0.288 0,0"
         inkscape:connector-curvature="0" />
    </g>
    <g
       transform="matrix(4.0491674,0,0,-4.0491674,34.004258,18.528425)"
       id="g21445">
      <path
         id="path21447"
         style="fill:#c9ac7a;fill-opacity:1;fill-rule:nonzero;stroke:none"
         d="M 0,0 C 0.165,-0.054 0.274,-0.219 0.425,-0.261 0.603,0.687 -0.275,1.317 -0.919,1.948 -0.823,1.209 -0.206,0.687 0,0"
         inkscape:connector-curvature="0" />
    </g>
    <g
       transform="matrix(4.0491674,0,0,-4.0491674,36.945995,17.749365)"
       id="g21449">
      <path
         id="path21451"
         style="fill:#ca533b;fill-opacity:1;fill-rule:nonzero;stroke:none"
         d="M 0,0 C 0.247,-0.37 0.439,-0.796 0.494,-1.207 L 1.181,-2.003 C 1.125,-0.933 0.728,0.234 0.288,1.262 0.138,0.864 0.082,0.385 0,0"
         inkscape:connector-curvature="0" />
    </g>
    <g
       transform="matrix(4.0491674,0,0,-4.0491674,6.7829368,15.582574)"
       id="g21453">
      <path
         id="path21455"
         style="fill:#c00a21;fill-opacity:1;fill-rule:nonzero;stroke:none"
         d="m 0,0 c -0.138,-2.098 0.232,-4.033 1.221,-5.734 1.481,-1.867 3.403,-3.774 5.735,-4.213 -0.316,2.292 0.59,4.459 2.14,6.16 C 6.199,1.516 0.096,0.659 0,0"
         inkscape:connector-curvature="0" />
    </g>
    <g
       transform="matrix(4.0491674,0,0,-4.0491674,38.112543,21.751238)"
       id="g21457">
      <path
         id="path21459"
         style="fill:#ca533b;fill-opacity:1;fill-rule:nonzero;stroke:none"
         d="M 0,0 -0.355,0.796 -0.452,0.439 0,0 z"
         inkscape:connector-curvature="0" />
    </g>
    <g
       transform="matrix(4.0491674,0,0,-4.0491674,36.281931,45.970766)"
       id="g21461">
      <path
         id="path21463"
         style="fill:#000000;fill-opacity:1;fill-rule:nonzero;stroke:none"
         d="m 0,0 c -0.165,-0.7 -0.192,-1.577 -0.138,-2.373 l -0.068,-0.069 c 0.741,-0.11 1.509,0.218 2.21,0.424 1.371,0.619 2.935,0.88 3.991,2.114 C 5.858,0.344 5.886,0.782 5.693,0.878 5.46,0.604 5.31,0.261 4.897,0.261 4.432,0.165 4.074,0.385 3.719,0.59 3.649,0.165 3.39,-0.178 3.06,-0.493 2.717,-0.74 2.195,-0.74 1.77,-0.631 1.18,-0.37 0.892,0.261 0.782,0.851 0.755,1.414 1.042,2.031 1.551,2.429 2.004,2.717 2.594,2.497 2.991,2.237 L 3.129,2.1 C 3.539,2.539 4.02,3.074 4.706,2.991 4.376,3.416 3.896,3.938 3.39,4.144 1.371,3.842 0.507,1.646 0,0"
         inkscape:connector-curvature="0" />
    </g>
    <g
       transform="matrix(4.0491674,0,0,-4.0491674,7.451049,41.965328)"
       id="g21465">
      <path
         id="path21467"
         style="fill:#000000;fill-opacity:1;fill-rule:nonzero;stroke:none"
         d="M 0,0 C -0.521,-0.646 0.562,-1.071 0.863,-1.552 2.291,-2.718 4.074,-3.048 5.83,-3.432 4.13,-2.924 2.523,-1.455 1.289,0.026 0.892,0.327 0.383,0.313 0,0"
         inkscape:connector-curvature="0" />
    </g>
    <g
       transform="matrix(4.0491674,0,0,-4.0491674,12.006363,52.139753)"
       id="g21469">
      <path
         id="path21471"
         style="fill:#b18db8;fill-opacity:1;fill-rule:nonzero;stroke:none"
         d="M 0,0 C 0.054,-0.383 0.123,-0.685 0.397,-0.946 0.191,-0.656 0.617,0.056 0,0"
         inkscape:connector-curvature="0" />
    </g>
    <g
       transform="matrix(4.0491674,0,0,-4.0491674,49.334827,57.470077)"
       id="g21473">
      <path
         id="path21475"
         style="fill:#835796;fill-opacity:1;fill-rule:nonzero;stroke:none"
         d="M 0,0 C 0.042,0.138 0.138,0.425 0,0.563 -0.397,0.508 0.055,0.206 0,0"
         inkscape:connector-curvature="0" />
    </g>
    <g
       transform="matrix(4.0491674,0,0,-4.0491674,21.057839,59.304836)"
       id="g21477">
      <path
         id="path21479"
         style="fill:#b18db8;fill-opacity:1;fill-rule:nonzero;stroke:none"
         d="M 0,0 0.233,-0.205 C 0.11,0.068 0.398,0.755 -0.123,0.823 -0.315,0.549 -0.041,0.262 0,0"
         inkscape:connector-curvature="0" />
    </g>
    <g
       transform="matrix(4.0491674,0,0,-4.0491674,29.614961,58.802738)"
       id="g21481">
      <path
         id="path21483"
         style="fill:#b18db8;fill-opacity:1;fill-rule:nonzero;stroke:none"
         d="M 0,0 C -0.027,-0.275 0.151,-0.535 0.356,-0.658 0.206,-0.453 0.438,0.083 0,0"
         inkscape:connector-curvature="0" />
    </g>
    <g
       transform="matrix(4.0491674,0,0,-4.0491674,40.635174,42.155154)"
       id="g21485">
      <path
         id="path21487"
         style="fill:#ffffff;fill-opacity:1;fill-rule:nonzero;stroke:none"
         d="M 0,0 C 0,0.769 0.522,1.391 1.166,1.391 1.811,1.391 2.333,0.769 2.333,0 2.333,-0.767 1.811,-1.388 1.166,-1.388 0.522,-1.388 0,-0.767 0,0"
         inkscape:connector-curvature="0" />
    </g>
    <g
       transform="matrix(4.0491674,0,0,-4.0491674,58.382287,38.473651)"
       id="g21489">
      <path
         id="path21491"
         style="fill:#ffffff;fill-opacity:1;fill-rule:nonzero;stroke:none"
         d="m 0,0 c -0.209,0.608 -0.792,0.958 -1.3,0.783 -0.509,-0.175 -0.752,-0.809 -0.543,-1.418 0.209,-0.607 0.791,-0.958 1.3,-0.782 C -0.033,-1.242 0.209,-0.606 0,0"
         inkscape:connector-curvature="0" />
    </g>
    <g
       transform="matrix(4.0491674,0,0,-4.0491674,45.356925,47.773778)"
       id="g21493">
      <path
         id="path21495"
         style="fill:#dce8eb;fill-opacity:1;fill-rule:nonzero;stroke:none"
         d="M 0,0 C 0.226,0 0.435,0.075 0.612,0.206 L 0.584,0.205 c -0.645,0 -1.167,0.622 -1.167,1.39 0,0.499 0.223,0.938 0.556,1.182 C -0.659,2.759 -1.166,2.146 -1.166,1.388 -1.166,0.621 -0.644,0 0,0"
         inkscape:connector-curvature="0" />
    </g>
    <g
       transform="matrix(4.0491674,0,0,-4.0491674,53.676733,34.906821)"
       id="g21497">
      <path
         id="path21499"
         style="fill:#dce8eb;fill-opacity:1;fill-rule:nonzero;stroke:none"
         d="m 0,0 c -0.033,-0.006 -0.065,-0.015 -0.098,-0.025 -0.507,-0.176 -0.751,-0.811 -0.542,-1.418 0.209,-0.608 0.791,-0.958 1.3,-0.784 0.173,0.06 0.314,0.171 0.418,0.317 C 0.595,-2.014 0.07,-1.67 -0.125,-1.101 -0.264,-0.698 -0.203,-0.284 0,0"
         inkscape:connector-curvature="0" />
    </g>
    <g
       transform="matrix(4.0491674,0,0,-4.0491674,55.372946,45.002205)"
       id="g21501">
      <path
         id="path21503"
         style="fill:#58595a;fill-opacity:1;fill-rule:nonzero;stroke:none"
         d="m 0,0 c -0.38,-0.016 -0.688,0.173 -0.996,0.351 -0.069,-0.425 -0.329,-0.768 -0.659,-1.083 -0.343,-0.247 -0.865,-0.247 -1.29,-0.138 -0.59,0.261 -0.878,0.891 -0.988,1.481 -0.027,0.564 0.26,1.181 0.769,1.578 0.453,0.289 1.043,0.069 1.44,-0.191 L -1.586,1.86 c 0.223,0.239 0.467,0.505 0.754,0.687 -0.352,0.19 -0.768,0.301 -1.212,0.301 -0.602,0 -1.146,-0.201 -1.555,-0.529 -0.295,-0.443 -0.532,-0.938 -0.726,-1.431 0,-1.102 1.02,-1.985 2.281,-1.985 0.895,0 1.671,0.447 2.044,1.097"
         inkscape:connector-curvature="0" />
    </g>
    <g
       transform="matrix(4.0491674,0,0,-4.0491674,50.639857,39.580856)"
       id="g21505">
      <path
         id="path21507"
         style="fill:#000000;fill-opacity:1;fill-rule:nonzero;stroke:none"
         d="M 0,0 C 0,0.341 0.275,0.617 0.616,0.617 0.958,0.617 1.234,0.341 1.234,0 1.234,-0.341 0.958,-0.618 0.616,-0.618 0.275,-0.618 0,-0.341 0,0"
         inkscape:connector-curvature="0" />
    </g>
    <g
       transform="matrix(4.0491674,0,0,-4.0491674,40.08167,41.526399)"
       id="g21509">
      <path
         id="path21511"
         style="fill:#000000;fill-opacity:1;fill-rule:nonzero;stroke:none"
         d="M 0,0 C 0,0.397 0.322,0.719 0.72,0.719 1.118,0.719 1.441,0.397 1.441,0 1.441,-0.397 1.118,-0.72 0.72,-0.72 0.322,-0.72 0,-0.397 0,0"
         inkscape:connector-curvature="0" />
    </g>
    <g
       transform="matrix(4.0491674,0,0,-4.0491674,52.86204,38.541029)"
       id="g21513">
      <path
         id="path21515"
         style="fill:#ffffff;fill-opacity:1;fill-rule:nonzero;stroke:none"
         d="M 0,0 C 0,0.18 0.146,0.326 0.326,0.326 0.505,0.326 0.651,0.18 0.651,0 0.651,-0.18 0.505,-0.326 0.326,-0.326 0.146,-0.326 0,-0.18 0,0"
         inkscape:connector-curvature="0" />
    </g>
    <g
       transform="matrix(4.0491674,0,0,-4.0491674,42.719298,40.344043)"
       id="g21517">
      <path
         id="path21519"
         style="fill:#ffffff;fill-opacity:1;fill-rule:nonzero;stroke:none"
         d="M 0,0 C 0,0.198 0.161,0.36 0.36,0.36 0.56,0.36 0.721,0.198 0.721,0 0.721,-0.199 0.56,-0.36 0.36,-0.36 0.161,-0.36 0,-0.199 0,0"
         inkscape:connector-curvature="0" />
    </g>
    <g
       transform="matrix(4.0491674,0,0,-4.0491674,49.892381,28.248046)"
       id="g21521">
      <path
         id="path21523"
         style="fill:#ca533b;fill-opacity:1;fill-rule:nonzero;stroke:none"
         d="M 0,0 C 1.521,3.992 -0.933,6.353 -0.933,6.353 -1.18,6.278 -1.42,6.146 -1.641,5.977 -1.101,5.325 0.369,3.138 -0.892,-0.171 -1.079,-0.193 -0.494,-0.055 0,0"
         inkscape:connector-curvature="0" />
    </g>
    <g
       transform="matrix(4.0491674,0,0,-4.0491674,29.250924,20.157486)"
       id="g21525">
      <path
         id="path21527"
         style="fill:#ca533b;fill-opacity:1;fill-rule:nonzero;stroke:none"
         d="M 0,0 C -1.597,1.34 -3.566,1.62 -4.401,0.625 -5.235,-0.369 -4.617,-2.261 -3.021,-3.601 -1.424,-4.939 0.546,-5.219 1.38,-4.226 2.214,-3.231 1.597,-1.34 0,0"
         inkscape:connector-curvature="0" />
    </g>
    <g
       transform="matrix(4.0491674,0,0,-4.0491674,7.451049,41.965328)"
       id="g21529">
      <path
         id="path21531"
         style="fill:#58595a;fill-opacity:1;fill-rule:nonzero;stroke:none"
         d="M 0,0 C -0.521,-0.646 0.562,-1.071 0.863,-1.552 1.907,-2.405 3.144,-2.811 4.42,-3.116 3.292,-2.655 2.222,-2.096 1.369,-1.174 1.171,-0.73 0.396,-0.246 0.561,0.239 0.363,0.22 0.17,0.138 0,0"
         inkscape:connector-curvature="0" />
    </g>
    <g
       transform="matrix(4.0491674,0,0,-4.0491674,6.7432547,21.624256)"
       id="g21533">
      <path
         id="path21535"
         style="fill:#000000;fill-opacity:1;fill-rule:nonzero;stroke:none"
         d="m 0,0 c 0.018,-0.296 0.045,-0.59 0.086,-0.879 0.09,-0.058 0.195,-0.091 0.31,-0.091 0.312,0 0.565,0.252 0.565,0.566 0,0.312 -0.253,0.565 -0.565,0.565 C 0.242,0.161 0.103,0.101 0,0 m 1.686,-4.798 c 0.397,-0.473 0.826,-0.94 1.282,-1.375 0.061,-0.007 0.125,-0.011 0.188,-0.011 0.816,0 1.476,0.661 1.476,1.474 0,0.815 -0.66,1.477 -1.476,1.477 -0.813,0 -1.473,-0.662 -1.473,-1.477 l 0.003,-0.088 z m 5.922,4.504 C 7.414,-0.103 7.217,0.072 7.014,0.234 6.831,0.319 6.629,0.367 6.415,0.367 5.639,0.367 5.01,-0.263 5.01,-1.04 c 0,-0.775 0.629,-1.406 1.405,-1.406 0.777,0 1.406,0.631 1.406,1.406 0,0.274 -0.078,0.531 -0.213,0.746 m -3.387,0.198 c 0,0.559 -0.453,1.012 -1.013,1.012 -0.559,0 -1.012,-0.453 -1.012,-1.012 0,-0.558 0.453,-1.011 1.012,-1.011 0.56,0 1.013,0.453 1.013,1.011 m 2.814,-6.126 c 0.044,0.224 0.101,0.448 0.166,0.665 -0.041,0.57 -0.514,1.019 -1.094,1.019 -0.607,0 -1.097,-0.491 -1.097,-1.097 0,-0.607 0.49,-1.097 1.097,-1.097 0.391,0 0.734,0.203 0.928,0.51"
         inkscape:connector-curvature="0" />
    </g>
    <g
       transform="matrix(4.0491674,0,0,-4.0491674,18.388628,34.82778)"
       id="g21537">
      <path
         id="path21539"
         style="fill:#58595a;fill-opacity:1;fill-rule:nonzero;stroke:none"
         d="M 0,0 C 0.532,-0.413 1.099,-0.711 1.646,-0.887 1.425,-0.352 0.896,0.027 0.28,0.027 0.186,0.027 0.092,0.017 0,0 M 4.52,1.213 C 4.344,1.987 3.836,2.83 3.065,3.546 2.521,3.351 2.134,2.832 2.134,2.221 c 0,-0.776 0.629,-1.407 1.405,-1.407 0.381,0 0.728,0.153 0.981,0.399 M 1.345,3.165 c 0,0.559 -0.453,1.012 -1.013,1.012 -0.559,0 -1.012,-0.453 -1.012,-1.012 0,-0.559 0.453,-1.012 1.012,-1.012 0.56,0 1.013,0.453 1.013,1.012"
         inkscape:connector-curvature="0" />
    </g>
    <g
       transform="matrix(4.0491674,0,0,-4.0491674,51.893091,17.3817)"
       id="g21541">
      <path
         id="path21543"
         style="fill:#000000;fill-opacity:1;fill-rule:nonzero;stroke:none"
         d="m 0,0 c -0.017,0.717 -0.158,1.339 -0.344,1.858 -0.531,0 -0.961,-0.43 -0.961,-0.961 0,-0.53 0.43,-0.96 0.961,-0.96 0.121,0 0.237,0.022 0.344,0.063 M -2.214,3.231 C -2.718,2.817 -3.121,2.206 -3.29,1.611 c 0.188,-0.246 0.485,-0.405 0.818,-0.405 0.569,0 1.03,0.46 1.03,1.029 0,0.479 -0.329,0.881 -0.772,0.996 m 1.321,-4.821 c 0,0.388 -0.315,0.703 -0.703,0.703 -0.388,0 -0.704,-0.315 -0.704,-0.703 0,-0.388 0.316,-0.703 0.704,-0.703 0.388,0 0.703,0.315 0.703,0.703"
         inkscape:connector-curvature="0" />
    </g>
    <g
       transform="matrix(4.0491674,0,0,-4.0491674,43.656242,4.5578245)"
       id="g21545">
      <path
         id="path21547"
         style="fill:#58595a;fill-opacity:1;fill-rule:nonzero;stroke:none"
         d="m 0,0 c 0.169,-0.221 0.389,-0.548 0.591,-0.974 l 0.001,0.042 C 0.592,-0.52 0.351,-0.165 0,0 m 0.888,-1.739 c 0.119,-0.389 0.21,-0.826 0.243,-1.313 0.157,-0.112 0.35,-0.177 0.559,-0.177 0.122,0 0.237,0.021 0.344,0.062 -0.016,0.717 -0.158,1.339 -0.344,1.858 -0.335,0 -0.629,-0.171 -0.802,-0.43 M 1.07,-4.448 C 1.028,-4.722 0.968,-5.005 0.887,-5.297 c 0.155,0.128 0.255,0.323 0.255,0.54 0,0.111 -0.027,0.215 -0.072,0.309"
         inkscape:connector-curvature="0" />
    </g>
  </g>
</svg>
