<?xml version="1.0" encoding="UTF-8" standalone="no"?>
<!-- Created with Inkscape (http://www.inkscape.org/) -->

<svg
   xmlns:dc="http://purl.org/dc/elements/1.1/"
   xmlns:cc="http://creativecommons.org/ns#"
   xmlns:rdf="http://www.w3.org/1999/02/22-rdf-syntax-ns#"
   xmlns:svg="http://www.w3.org/2000/svg"
   xmlns="http://www.w3.org/2000/svg"
   xmlns:sodipodi="http://sodipodi.sourceforge.net/DTD/sodipodi-0.dtd"
   xmlns:inkscape="http://www.inkscape.org/namespaces/inkscape"
   width="64px"
   height="64px"
   id="svg172345"
   version="1.1"
   inkscape:version="0.48.5 r10040"
   sodipodi:docname="Nowy dokument 28">
  <defs
     id="defs172347" />
  <sodipodi:namedview
     id="base"
     pagecolor="#ffffff"
     bordercolor="#666666"
     borderopacity="1.0"
     inkscape:pageopacity="0.0"
     inkscape:pageshadow="2"
     inkscape:zoom="5.5"
     inkscape:cx="32"
     inkscape:cy="29.207792"
     inkscape:current-layer="layer1"
     showgrid="true"
     inkscape:document-units="px"
     inkscape:grid-bbox="true"
     inkscape:window-width="1366"
     inkscape:window-height="706"
     inkscape:window-x="-8"
     inkscape:window-y="-8"
     inkscape:window-maximized="1" />
  <metadata
     id="metadata172350">
    <rdf:RDF>
      <cc:Work
         rdf:about="">
        <dc:format>image/svg+xml</dc:format>
        <dc:type
           rdf:resource="http://purl.org/dc/dcmitype/StillImage" />
        <dc:title></dc:title>
      </cc:Work>
    </rdf:RDF>
  </metadata>
  <g
     id="layer1"
     inkscape:label="Layer 1"
     inkscape:groupmode="layer">
    <g
       transform="matrix(0.69449748,0,0,-0.69449748,46.071054,1.1347831)"
       id="g9793">
      <path
         id="path9795"
         style="fill:#000000;fill-opacity:1;fill-rule:nonzero;stroke:none"
         d="M 0,0 C 0.666,-0.064 1.454,-0.132 2.072,-0.417 2.57,-0.07 3.057,0.48 3.697,0.296 4.06,0.222 4.066,-0.163 4.158,-0.449 L 3.979,-1.497 c 0.303,-0.618 0.917,-1.187 1.199,-1.802 1.465,-0.212 1.377,-1.63 2.016,-2.443 0.311,-0.963 -0.048,-1.983 -0.581,-2.714 0.998,-0.987 1.52,-2.302 1.224,-3.791 -0.23,-1.977 -1.477,-4.02 -3.46,-4.539 -2.308,-0.513 -3.118,1.751 -3.768,2.32 -2.825,-0.835 -4.177,1.605 -4.177,1.605 -3.214,-3.271 -4.39,-7.91 -4.088,-12.641 -0.03,-7.623 8.599,-26.145 -3.5,-41.651 0.004,-2.775 1.78,-5.268 4.099,-6.747 0.276,-0.233 0.362,-0.641 0.169,-0.939 -0.464,-0.51 -1.21,-0.443 -1.694,-0.952 -1.837,-0.362 -3.685,-0.5 -5.639,-0.189 -0.458,0.219 -1.18,0.406 -1.179,1.014 0.463,1.118 0.573,2.472 -0.079,3.548 -0.388,-0.108 -0.871,-0.537 -1.146,-0.892 -0.031,-1.498 0.718,-2.699 1.32,-3.977 1.045,-0.846 2.558,-1 3.223,-2.259 0.113,-0.835 -0.69,-1.212 -1.133,-1.703 -1.058,-0.733 -2.514,-0.641 -3.717,-0.843 -1.459,-0.03 -3.286,-0.128 -4.151,1.219 -0.354,0.884 1.068,1.563 0.182,2.263 -1.12,1.578 -2.867,2.612 -4.031,4.091 l -0.346,-0.048 c 0.027,-0.346 0.766,-1.831 0.552,-2.148 -1.725,-1.276 -4.494,-1.058 -6.43,-0.261 -1.361,0.795 0.573,2.512 0.573,2.512 -0.478,0.24 -1.143,0.344 -1.681,0.586 -0.113,-0.32 -0.285,-0.618 -0.518,-0.914 l 0.269,-2.137 c 0.254,-0.879 1.238,-1.744 0.534,-2.753 -0.23,-0.134 -0.518,-0.286 -0.779,-0.216 -0.372,-0.798 -1.236,-1.192 -2.032,-1.327 -0.302,0.051 -0.649,-0.059 -0.886,0.133 -1.824,-0.585 -3.87,-0.007 -5.398,0.856 -0.417,0.258 -0.644,0.752 -0.447,1.13 0.729,1.778 2.377,3.138 3.126,4.855 -2.021,1.893 -3.15,4.384 -3.891,6.901 -3.142,-1.187 -4.211,-4.532 -4.502,-7.621 -0.093,-4.434 2.746,-8.403 6.491,-10.822 2.141,-1.351 4.609,-2.046 6.728,-3.456 0.229,-0.353 0.32,-0.66 0.245,-1.083 -0.862,-0.387 -2.668,-0.413 -3.833,-0.109 -3.624,1.221 -7.413,2.933 -9.956,6.101 -0.726,0.147 -1.497,0.072 -1.959,0.737 0.018,0.547 -0.225,1.142 0.095,1.597 -0.831,1.163 -1.477,2.402 -1.959,3.675 l -0.042,-0.04 c -0.62,0.245 -1.442,0.476 -1.619,1.212 -0.157,0.694 0.305,1.205 0.748,1.675 l -0.767,3.532 c -0.646,0.691 -1.797,1.38 -1.515,2.484 0.323,0.556 0.842,0.882 1.36,1.208 -0.071,0.894 0.224,1.796 0.227,2.484 -0.304,0.558 -0.854,1.043 -0.954,1.675 0.113,0.927 1.112,1.115 1.658,1.643 -0.069,1.482 1.599,2.841 0.389,4.18 -0.084,0.489 -0.183,1.162 0.055,1.599 0.547,0.568 1.46,0.617 2.211,0.612 l 1.171,1.66 c 0.05,0.849 -0.225,1.649 0.147,2.426 0.604,0.526 1.443,0.74 2.242,0.448 l 0.14,-0.105 c 0.585,0.506 1.251,1.05 1.894,1.493 0.239,0.458 0.043,1.234 0.265,1.733 0.175,0.399 0.355,0.94 0.866,1.044 0.876,0.151 1.631,-0.28 2.306,-0.709 l 1.927,0.703 c 0.357,0.899 0.678,1.981 1.626,2.435 1.093,0.022 1.963,-0.616 2.582,-1.448 l 2.786,0.288 c 0.915,0.677 1.536,2.215 2.921,1.843 0.631,-0.468 0.993,-1.19 1.352,-1.851 0.819,-0.373 1.597,-0.156 2.375,-0.468 1.072,0.51 2.037,1.469 3.381,1.098 0.732,-0.532 0.86,-1.489 1.137,-2.288 0.527,-0.525 1.336,-0.594 1.907,-1.08 1.098,0.731 2.096,2.033 2.746,3.267 -0.238,0.677 -0.732,1.667 -0.022,2.27 l 1.131,0.447 c 0.099,0.543 0.321,1.082 0.401,1.606 0.088,0.787 0.344,1.751 0.292,2.563 -0.653,0.488 -1.485,1.024 -1.555,1.938 0.033,0.911 0.996,1.242 1.618,1.645 0.039,1.093 -0.088,2.09 -0.131,3.226 -0.838,0.333 -1.297,1.119 -1.737,1.864 -0.149,0.937 0.981,1.384 1.623,1.827 l 0.07,3.158 c -0.767,0.614 -1.739,1.236 -1.439,2.299 0.329,0.718 1.199,0.687 1.799,1.051 0.175,1.493 0.567,2.877 1.16,4.194 -0.422,0.683 -0.915,1.632 -0.402,2.384 0.464,0.551 1.305,0.279 1.915,0.318 l 1.418,1.713 c -0.144,0.572 -0.487,1.172 -0.181,1.81 0.402,0.512 1.187,0.363 1.709,0.223 0.516,-0.848 1.003,0.29 1.569,0.29 -0.002,0.486 -0.079,1.178 -0.18,1.749 -0.444,0.096 -0.965,0.216 -1.151,0.728 -0.112,0.227 -0.222,0.596 -0.072,0.834 0.381,0.432 0.908,0.474 1.4,0.619 0.026,0.729 0.803,1.552 -0.088,2.151 -0.108,0.389 -0.154,0.795 0.101,1.151 0.419,0.39 0.982,0.29 1.513,0.352 0.57,0.689 1.357,1.189 2.101,1.629 0.096,0.422 0.026,1.255 0.641,1.477 0.285,0.07 0.656,0.24 0.911,0.008 C -0.623,0.731 -0.209,0.412 0,0"
         inkscape:connector-curvature="0" />
    </g>
    <g
       transform="matrix(0.69449748,0,0,-0.69449748,49.517078,3.6862281)"
       id="g9797">
      <path
         id="path9799"
         style="fill:#84bbad;fill-opacity:1;fill-rule:nonzero;stroke:none"
         d="m 0,0 c 0.021,-0.021 0.927,-0.073 1.098,-0.914 -0.582,0.162 -1.195,0.042 -1.615,-0.389 -0.411,0.419 -1.212,0.67 -1.887,0.451 -1.169,-0.405 -2.022,-1.591 -2.045,-2.846 -0.021,-1.154 0.881,-2.057 1.917,-2.539 1.032,0.005 2.278,0.265 2.762,1.363 l 0.26,0.517 c 0.904,-0.842 2.006,-1.751 1.94,-3.066 0.033,-1.986 -0.77,-4.065 -2.71,-5.071 -0.698,-0.259 -1.67,-0.549 -2.846,0.998 -1.452,1.915 -3.046,2.003 -4.268,4.112 -0.407,1.109 -0.015,2.452 0.745,3.337 0.301,-0.071 0.464,-0.604 0.815,-0.413 0.228,0.133 -0.007,0.365 -0.02,0.527 -0.389,0.48 -1.029,0.746 -1.682,0.586 -0.286,-0.071 -0.693,-0.118 -0.745,-0.46 0.288,0.132 0.795,0.134 1.115,0.062 -0.614,-0.769 -0.928,-1.649 -0.965,-2.681 0.221,-1.831 1.84,-3.062 3.306,-3.964 0,0 -1.824,-0.952 -3.588,1.644 -1.599,-1.079 -2.571,-2.848 -3.318,-4.503 -2.482,-5.505 -1.205,-12.437 -0.04,-17.988 5.028,-22.409 -3.552,-32.087 -9.746,-36.571 -0.047,0.954 0.615,1.923 0.487,2.9 -1.662,-2.332 -1.056,-5.858 0.403,-8.137 0.946,-0.763 2.238,-0.909 3.055,-1.91 0.009,-0.264 -0.099,-0.483 -0.268,-0.66 -0.274,0.253 -0.583,0.69 -1.05,0.665 0,0 0.765,-0.715 0.382,-1.228 -0.827,-0.478 -1.912,-0.805 -2.871,-0.427 -0.117,0.085 0.053,0.322 -0.13,0.329 -0.109,0.328 0.249,0.741 -0.065,1.036 -0.397,-0.311 -0.297,-1.551 -0.159,-1.656 -1.099,-0.144 -2.43,0.004 -3.494,0.324 -0.318,0.193 -0.527,0.566 -0.351,0.923 0.199,0.542 0.787,1.108 0.442,1.688 -1.367,2.013 -3.582,3.022 -4.685,5.025 l 0.019,0.587 c 1.293,2.811 2.589,5.683 3.282,8.698 -1.079,-3.062 -2.739,-5.881 -3.876,-8.921 -0.092,-0.3 0.123,-0.531 0.174,-0.776 -2.283,-0.426 -4.909,-0.193 -7.026,0.671 3.217,8.226 0.292,15.872 -0.666,16.858 0.467,-1.131 3.567,-7.433 0.079,-16.837 0.136,-0.187 0.122,-0.572 -0.027,-0.769 -0.45,-0.694 -1.419,-0.639 -2.105,-0.515 -0.104,-0.117 1.542,-0.519 1.83,-0.407 0.016,-1.277 0.28,-2.461 0.91,-3.517 -0.007,-0.242 0.164,-0.532 -0.025,-0.728 -0.167,-0.136 -0.368,-0.129 -0.554,-0.183 -0.012,0.79 -1.086,1.942 -1.187,1.945 0.267,-1.133 1.551,-1.999 0.142,-2.881 -0.454,-0.207 -0.943,-0.312 -1.468,-0.294 0.023,0.688 -0.275,1.429 -0.724,1.93 -0.248,-0.154 0.145,-1.099 0.258,-1.366 -0.112,-0.3 0.017,-0.649 -0.409,-0.674 -1.645,-0.085 -3.212,0.254 -4.544,0.989 -0.498,0.26 -0.139,0.693 -0.005,1.013 0.888,1.65 2.595,2.988 2.844,4.864 -5.489,5.435 -3.972,10.997 -4.181,11.369 -0.315,-0.47 -0.546,-2.838 -0.293,-4.305 -3.763,-1.571 -5.003,-5.781 -4.813,-9.617 0.547,-6.38 6.802,-10.569 12.246,-12.481 0.391,-0.399 1.182,-0.345 1.178,-1.055 -2.839,-0.69 -5.462,0.799 -7.851,1.976 -5.175,2.187 -15.841,14.272 -7.418,31.235 3.848,6.368 14.761,14.509 30.552,7.624 1.96,0.438 3.25,2.581 4.038,4.235 2.55,5.745 1.078,12.3 1.23,18.433 -0.128,6.183 1.727,12.297 7.41,15.543 -0.289,3.273 -0.17,4.989 1.257,6.965 1.267,2.022 3.648,2.912 5.957,2.365 C -2.141,2.684 -0.865,1.306 0,0"
         inkscape:connector-curvature="0" />
    </g>
    <g
       transform="matrix(0.69449748,0,0,-0.69449748,49.182747,12.413216)"
       id="g9801">
      <path
         id="path9803"
         style="fill:#0b989a;fill-opacity:1;fill-rule:nonzero;stroke:none"
         d="m 0,0 c -0.678,-0.226 -1.578,-0.333 -2.645,1.07 -1.452,1.915 -3.045,2.003 -4.267,4.112 -0.407,1.109 -0.016,2.452 0.744,3.337 0.302,-0.071 0.465,-0.604 0.815,-0.413 0.076,0.044 0.101,0.099 0.101,0.158 L -5.113,8.18 c 0,0 0.447,-0.713 -0.131,-1.033 C -5.822,6.827 -6.521,6.285 -6.02,5.512 -5.516,4.739 -4.748,4.089 -3.868,3.304 -2.989,2.518 -2.26,1.775 -1.626,0.997 -1.272,0.563 -0.74,0.182 0,0"
         inkscape:connector-curvature="0" />
    </g>
    <g
       transform="matrix(0.69449748,0,0,-0.69449748,44.679348,5.9864041)"
       id="g9805">
      <path
         id="path9807"
         style="fill:#0b989a;fill-opacity:1;fill-rule:nonzero;stroke:none"
         d="m 0,0 c -0.185,0.022 -0.377,0.012 -0.57,-0.035 -0.286,-0.071 -0.694,-0.118 -0.745,-0.46 0.288,0.132 0.794,0.134 1.115,0.062 -0.614,-0.769 -0.928,-1.649 -0.965,-2.681 0.165,-1.374 1.119,-2.412 2.204,-3.224 -0.256,-0.185 -0.705,-0.35 -1.324,0.017 -0.302,0.178 -0.641,0.397 -0.969,0.616 -0.064,0.086 -0.129,0.176 -0.193,0.271 l -0.104,-0.071 c -0.651,0.443 -1.187,0.837 -1.187,0.837 0,0 -8.397,-4.156 -6.332,-21.284 2.167,-17.973 -3.034,-20.398 -4.137,-22.21 -1.101,-1.812 -7.065,-4.491 -11.621,-4.616 -2.509,-0.068 -6.469,-7.113 3.375,-7.865 0.034,0.017 0.074,0.059 0.117,0.12 -0.735,-1.563 -1.489,-3.118 -2.095,-4.737 -0.091,-0.3 0.123,-0.531 0.175,-0.776 -2.283,-0.426 -4.909,-0.193 -7.026,0.671 0.898,2.3 1.315,4.541 1.433,6.607 0.044,0.311 0.081,0.596 0.111,0.846 l -0.075,0.351 c 0.016,4.778 -1.497,8.397 -2.135,9.054 l 0.212,-0.498 c 0.039,-0.125 0.083,-0.27 0.128,-0.433 l 0.185,-0.362 c 0.441,-1.192 0.993,-3.076 1.149,-5.538 -0.434,2.079 -0.964,4.568 -1.334,5.9 l -1.038,2.014 c 0,0 -3.057,-3.216 -3.205,-7.421 -0.146,-4.205 0.248,-5.371 0.823,-7.845 0.574,-2.474 0.319,-2.711 1.494,-3.13 0.799,-0.284 1.407,-0.213 1.718,-0.139 -0.021,-0.058 -0.046,-0.11 -0.08,-0.154 -0.45,-0.694 -1.419,-0.639 -2.105,-0.515 -0.077,-0.086 0.808,-0.329 1.388,-0.404 -0.318,-0.265 -0.687,-0.492 -1.077,-0.575 -1.025,-0.219 0.23,-2.692 -0.114,-5.059 -0.177,-0.024 -0.361,-0.033 -0.55,-0.027 0.024,0.688 -0.274,1.429 -0.723,1.93 -0.248,-0.154 0.144,-1.099 0.258,-1.366 -0.113,-0.3 0.017,-0.649 -0.41,-0.674 -1.644,-0.085 -3.211,0.254 -4.543,0.989 -0.499,0.26 -0.139,0.693 -0.005,1.013 0.887,1.65 2.594,2.988 2.843,4.864 -5.488,5.435 -3.971,10.997 -4.18,11.369 -0.315,-0.47 -0.546,-2.838 -0.293,-4.305 -0.506,-0.211 -0.966,-0.47 -1.383,-0.768 l 0.892,5.947 c 0,0 -7.459,-4.871 -6.44,-13.963 0.647,-5.758 3.919,-11.862 15.539,-14.287 l 0.003,-0.082 c -2.839,-0.69 -5.462,0.799 -7.851,1.976 -5.175,2.187 -15.258,12.491 -6.836,29.454 3.848,6.369 11.83,14.001 27.62,7.116 1.96,0.438 5.6,4.87 6.387,6.524 2.551,5.745 1.079,12.3 1.231,18.433 -0.128,6.183 1.726,12.297 7.41,15.543 -0.289,3.273 -0.17,4.989 1.257,6.965 C -1.312,6.007 1.069,6.897 3.379,6.35 3.962,6.207 4.517,5.899 5.027,5.496 3.074,5.269 0.102,4.73 -0.148,3.001 -0.385,1.367 -0.182,0.453 0,0"
         inkscape:connector-curvature="0" />
    </g>
    <g
       transform="matrix(0.69449748,0,0,-0.69449748,41.433406,11.674338)"
       id="g9809">
      <path
         id="path9811"
         style="fill:#aed1c6;fill-opacity:1;fill-rule:nonzero;stroke:none"
         d="m 0,0 c 0,0 -3.398,-3.641 -2.142,-14.475 1.257,-10.835 2.961,-17.353 1.984,-23.196 -0.975,-5.845 -3.735,-10.558 -5.056,-12.444 -1.322,-1.885 -2.011,-2.24 -2.011,-2.24 0,0 4.536,8.314 5.231,14.458 0.698,6.143 -1.465,21.639 -1.407,23.272 0.055,1.634 -0.166,0.779 -0.166,0.779 0,0 -0.392,8.01 1.342,10.84 C -0.49,-0.175 0,0 0,0"
         inkscape:connector-curvature="0" />
    </g>
    <g
       transform="matrix(0.69449748,0,0,-0.69449748,45.636299,1.0917241)"
       id="g9813">
      <path
         id="path9815"
         style="fill:#db923a;fill-opacity:1;fill-rule:nonzero;stroke:none"
         d="m 0,0 -1.39,-0.337 c 0.074,0.342 0.072,0.829 0.516,0.854 C -0.552,0.425 -0.231,0.312 0,0"
         inkscape:connector-curvature="0" />
    </g>
    <g
       transform="matrix(0.69449748,0,0,-0.69449748,48.661874,1.4928661)"
       id="g9817">
      <path
         id="path9819"
         style="fill:#db923a;fill-opacity:1;fill-rule:nonzero;stroke:none"
         d="M 0,0 C 0.051,-0.265 -0.136,-0.42 -0.085,-0.685 -0.365,-0.574 -0.68,-0.32 -0.978,-0.127 -0.785,0.15 -0.077,0.712 0,0"
         inkscape:connector-curvature="0" />
    </g>
    <g
       transform="matrix(0.69449748,0,0,-0.69449748,44.910615,2.5437791)"
       id="g9821">
      <path
         id="path9823"
         style="fill:#006e70;fill-opacity:1;fill-rule:nonzero;stroke:none"
         d="m 0,0 c -0.014,-0.384 -0.187,-0.702 -0.609,-0.627 -0.287,-0.071 -0.259,0.171 -0.373,0.317 -0.054,0.265 0.038,0.526 0.304,0.618 C -0.394,0.318 -0.111,0.288 0,0"
         inkscape:connector-curvature="0" />
    </g>
    <g
       transform="matrix(0.69449748,0,0,-0.69449748,51.344235,2.8381071)"
       id="g9825">
      <path
         id="path9827"
         style="fill:#000000;fill-opacity:1;fill-rule:nonzero;stroke:none"
         d="M 0,0 C 0.445,-0.584 0.451,-1.556 0.126,-2.192 -0.292,-1.303 -1.266,-0.26 -2.088,-0.069 -1.999,0.171 -1.076,0.815 0,0"
         inkscape:connector-curvature="0" />
    </g>
    <g
       transform="matrix(0.69449748,0,0,-0.69449748,44.733591,2.7763641)"
       id="g9829">
      <path
         id="path9831"
         style="fill:#f5d75c;fill-opacity:1;fill-rule:nonzero;stroke:none"
         d="M 0,0 C -0.104,-0.078 -0.264,-0.031 -0.407,-0.047 -0.546,0.019 -0.46,0.178 -0.476,0.3 -0.347,0.498 0.218,0.418 0,0"
         inkscape:connector-curvature="0" />
    </g>
    <g
       transform="matrix(0.69449748,0,0,-0.69449748,51.399861,3.2766141)"
       id="g9833">
      <path
         id="path9835"
         style="fill:#ecc051;fill-opacity:1;fill-rule:nonzero;stroke:none"
         d="M 0,0 -0.032,-0.931 C -0.58,0.319 -1.106,0.261 -1.741,0.628 -1.204,0.933 -0.095,0.813 0,0"
         inkscape:connector-curvature="0" />
    </g>
    <g
       transform="matrix(0.69449748,0,0,-0.69449748,42.196381,3.7431771)"
       id="g9837">
      <path
         id="path9839"
         style="fill:#db923a;fill-opacity:1;fill-rule:nonzero;stroke:none"
         d="m 0,0 c -0.218,0.21 -0.366,0.56 -0.213,0.898 0.206,0.115 0.454,0.228 0.734,0.158 L 0,0 z"
         inkscape:connector-curvature="0" />
    </g>
    <g
       transform="matrix(0.69449748,0,0,-0.69449748,45.413848,3.4475261)"
       id="g9841">
      <path
         id="path9843"
         style="fill:#006e70;fill-opacity:1;fill-rule:nonzero;stroke:none"
         d="m 0,0 c 0.071,-0.246 -0.116,-0.421 -0.303,-0.516 -0.26,0.049 -0.644,0.063 -0.674,0.408 0.007,0.223 0.182,0.541 0.462,0.47 C -0.313,0.314 -0.012,0.284 0,0"
         inkscape:connector-curvature="0" />
    </g>
    <g
       transform="matrix(0.69449748,0,0,-0.69449748,44.429746,3.4132241)"
       id="g9845">
      <path
         id="path9847"
         style="fill:#006e70;fill-opacity:1;fill-rule:nonzero;stroke:none"
         d="m 0,0 c 0.427,-0.359 0.332,-1.314 -0.247,-1.875 -0.434,-0.188 -0.852,0.009 -1.209,0.224 -0.295,0.254 -0.338,0.741 -0.203,1.121 0.096,0.423 0.489,0.652 0.857,0.801 C -0.476,0.321 -0.196,0.169 0,0"
         inkscape:connector-curvature="0" />
    </g>
    <g
       transform="matrix(0.69449748,0,0,-0.69449748,45.272104,3.4708611)"
       id="g9849">
      <path
         id="path9851"
         style="fill:#f5d75c;fill-opacity:1;fill-rule:nonzero;stroke:none"
         d="m 0,0 c -0.084,-0.078 -0.03,-0.283 -0.192,-0.297 l -0.3,0.112 0.114,0.381 L 0,0 z"
         inkscape:connector-curvature="0" />
    </g>
    <g
       transform="matrix(0.69449748,0,0,-0.69449748,44.420928,3.6808111)"
       id="g9853">
      <path
         id="path9855"
         style="fill:#f5d75c;fill-opacity:1;fill-rule:nonzero;stroke:none"
         d="m 0,0 c 0.125,-0.449 -0.03,-0.869 -0.285,-1.205 -0.275,-0.314 -0.629,0.002 -0.909,0.072 -0.215,0.231 -0.574,0.966 0.15,1.413 C -0.634,0.428 -0.23,0.394 0,0"
         inkscape:connector-curvature="0" />
    </g>
    <g
       transform="matrix(0.69449748,0,0,-0.69449748,50.456456,4.8758361)"
       id="g9857">
      <path
         id="path9859"
         style="fill:#ffffff;fill-opacity:1;fill-rule:nonzero;stroke:none"
         d="M 0,0 C 0.338,-0.215 0.366,-0.56 0.456,-0.887 0.454,-1.535 0.292,-2.096 -0.03,-2.612 c -0.242,0.029 -0.62,0.224 -0.711,0.511 0.273,0.841 -0.144,1.686 -0.792,2.256 C -1.175,0.548 -0.309,0.416 0,0"
         inkscape:connector-curvature="0" />
    </g>
    <g
       transform="matrix(0.69449748,0,0,-0.69449748,41.668079,6.3557371)"
       id="g9861">
      <path
         id="path9863"
         style="fill:#db923a;fill-opacity:1;fill-rule:nonzero;stroke:none"
         d="m 0,0 c -0.384,0.054 -0.841,0.293 -0.846,0.719 0.155,0.339 0.54,0.385 0.828,0.497 C 0.112,0.908 -0.024,0.467 0,0"
         inkscape:connector-curvature="0" />
    </g>
    <g
       transform="matrix(0.69449748,0,0,-0.69449748,39.907389,9.2347791)"
       id="g9865">
      <path
         id="path9867"
         style="fill:#db923a;fill-opacity:1;fill-rule:nonzero;stroke:none"
         d="M 0,0 C -0.173,0.289 -0.175,0.796 -0.143,1.139 0.113,1.515 0.611,1.275 0.974,1.181 1.032,1.119 0,0 0,0"
         inkscape:connector-curvature="0" />
    </g>
    <g
       transform="matrix(0.69449748,0,0,-0.69449748,37.752013,12.128056)"
       id="g9869">
      <path
         id="path9871"
         style="fill:#db923a;fill-opacity:1;fill-rule:nonzero;stroke:none"
         d="M 0,0 C -0.331,0.376 -0.453,0.947 -0.293,1.468 0.038,1.66 0.485,1.684 0.886,1.569 L 0,0 z"
         inkscape:connector-curvature="0" />
    </g>
    <g
       transform="matrix(0.69449748,0,0,-0.69449748,36.513586,17.389357)"
       id="g9873">
      <path
         id="path9875"
         style="fill:#db923a;fill-opacity:1;fill-rule:nonzero;stroke:none"
         d="M 0,0 C -0.376,0.277 -0.808,0.677 -0.974,1.108 -0.95,1.796 -0.256,1.974 0.238,2.18 L 0,0 z"
         inkscape:connector-curvature="0" />
    </g>
    <g
       transform="matrix(0.69449748,0,0,-0.69449748,36.488517,22.115485)"
       id="g9877">
      <path
         id="path9879"
         style="fill:#db923a;fill-opacity:1;fill-rule:nonzero;stroke:none"
         d="m 0,0 c -0.467,-0.024 -0.799,0.879 -1.13,1.255 -0.042,0.568 0.518,0.893 0.97,1.14 L -0.058,2.392 0,0 z"
         inkscape:connector-curvature="0" />
    </g>
    <g
       transform="matrix(0.69449748,0,0,-0.69449748,36.65943,26.905431)"
       id="g9881">
      <path
         id="path9883"
         style="fill:#db923a;fill-opacity:1;fill-rule:nonzero;stroke:none"
         d="m 0,0 c -0.454,0.34 -1.304,0.937 -1.118,1.639 0.236,0.398 0.707,0.543 1.062,0.834 C 0.034,1.539 0.051,0.91 0,0"
         inkscape:connector-curvature="0" />
    </g>
    <g
       transform="matrix(0.69449748,0,0,-0.69449748,35.551845,31.636348)"
       id="g9885">
      <path
         id="path9887"
         style="fill:#db923a;fill-opacity:1;fill-rule:nonzero;stroke:none"
         d="M 0,0 C -0.17,0.371 -0.274,0.861 -0.06,1.218 L 0.58,1.54 C 0.522,1.076 0.24,0.498 0,0"
         inkscape:connector-curvature="0" />
    </g>
    <g
       transform="matrix(0.69449748,0,0,-0.69449748,26.98258,32.448215)"
       id="g9889">
      <path
         id="path9891"
         style="fill:#db923a;fill-opacity:1;fill-rule:nonzero;stroke:none"
         d="M 0,0 C -1.114,0.018 -1.879,0.106 -2.976,0.063 -2.35,0.588 -1.887,1.666 -0.985,1.35 -0.573,0.972 -0.268,0.435 0,0"
         inkscape:connector-curvature="0" />
    </g>
    <g
       transform="matrix(0.69449748,0,0,-0.69449748,31.46285,32.703234)"
       id="g9893">
      <path
         id="path9895"
         style="fill:#db923a;fill-opacity:1;fill-rule:nonzero;stroke:none"
         d="m 0,0 0.448,-1.049 c -1.009,0.137 -2.206,0.644 -3.132,0.838 0.543,0.447 1.216,0.566 1.833,0.828 C -0.281,0.678 -0.377,0.236 0,0"
         inkscape:connector-curvature="0" />
    </g>
    <g
       transform="matrix(0.69449748,0,0,-0.69449748,22.038314,32.641147)"
       id="g9897">
      <path
         id="path9899"
         style="fill:#db923a;fill-opacity:1;fill-rule:nonzero;stroke:none"
         d="m 0,0 c -0.368,-0.089 -2.374,-0.688 -2.985,-0.788 0.239,0.478 0.521,1.603 1.316,1.757 C -1.004,0.865 -0.514,0.382 0,0"
         inkscape:connector-curvature="0" />
    </g>
    <g
       transform="matrix(0.69449748,0,0,-0.69449748,17.811675,34.013543)"
       id="g9901">
      <path
         id="path9903"
         style="fill:#db923a;fill-opacity:1;fill-rule:nonzero;stroke:none"
         d="m 0,0 c -0.706,-0.482 -1.646,-0.732 -2.235,-1.34 -0.162,0.593 0.122,1.171 0.341,1.69 C -1.271,0.733 -0.514,0.403 0,0"
         inkscape:connector-curvature="0" />
    </g>
    <g
       transform="matrix(0.69449748,0,0,-0.69449748,21.302425,35.556161)"
       id="g9905">
      <path
         id="path9907"
         style="fill:#006e70;fill-opacity:1;fill-rule:nonzero;stroke:none"
         d="m 0,0 c -0.016,-0.486 0.347,-1.127 -0.153,-1.515 -0.393,-0.208 -0.811,-0.579 -1.328,-0.338 -0.52,0.241 -0.503,0.706 -0.731,1.14 0.02,0.546 0.52,0.974 0.955,1.242 C -0.766,0.695 -0.331,0.335 0,0"
         inkscape:connector-curvature="0" />
    </g>
    <g
       transform="matrix(0.69449748,0,0,-0.69449748,21.064418,35.519839)"
       id="g9909">
      <path
         id="path9911"
         style="fill:#f5d75c;fill-opacity:1;fill-rule:nonzero;stroke:none"
         d="m 0,0 c 0.169,-0.391 0.432,-1.007 0.096,-1.361 -0.291,-0.192 -0.561,-0.385 -0.888,-0.455 -0.379,0.155 -0.775,0.412 -0.841,0.86 -0.125,0.47 0.229,0.701 0.46,0.997 C -0.861,0.253 -0.246,0.454 0,0"
         inkscape:connector-curvature="0" />
    </g>
    <g
       transform="matrix(0.69449748,0,0,-0.69449748,19.669311,36.822021)"
       id="g9913">
      <path
         id="path9915"
         style="fill:#006e70;fill-opacity:1;fill-rule:nonzero;stroke:none"
         d="m 0,0 c 0.577,-0.851 1.122,-2.085 0.419,-3.074 -0.486,-0.55 -1.051,-1.077 -1.782,-1.112 -0.713,-0.117 -1.416,0.049 -1.926,0.513 -0.763,0.796 -0.812,1.709 -0.453,2.69 0.515,0.853 1.486,1.386 2.443,1.515 C -0.854,0.516 -0.351,0.398 0,0"
         inkscape:connector-curvature="0" />
    </g>
    <g
       transform="matrix(0.69449748,0,0,-0.69449748,19.239973,39.438263)"
       id="g9917">
      <path
         id="path9919"
         style="fill:#f5d75c;fill-opacity:1;fill-rule:nonzero;stroke:none"
         d="m 0,0 c -0.76,-0.297 -1.816,-0.382 -2.485,0.189 -0.712,0.511 -0.699,1.442 -0.491,2.205 0.4,0.999 1.473,1.569 2.49,1.655 C 1.785,3.76 1.192,0.423 0,0"
         inkscape:connector-curvature="0" />
    </g>
    <g
       transform="matrix(0.69449748,0,0,-0.69449748,13.04985,37.800707)"
       id="g9921">
      <path
         id="path9923"
         style="fill:#db923a;fill-opacity:1;fill-rule:nonzero;stroke:none"
         d="m 0,0 c 0.059,0.484 -0.301,1.226 0.199,1.634 0.415,0.289 1.004,0.329 1.506,0.19 L 0,0 z"
         inkscape:connector-curvature="0" />
    </g>
    <g
       transform="matrix(0.69449748,0,0,-0.69449748,21.285479,37.680698)"
       id="g9925">
      <path
         id="path9927"
         style="fill:#006e70;fill-opacity:1;fill-rule:nonzero;stroke:none"
         d="M 0,0 C 0.03,-0.284 0.143,-0.531 -0.107,-0.725 -0.357,-0.919 -0.705,-1.029 -1.004,-0.896 -1.301,-0.684 -1.161,-0.182 -1.11,0.12 -0.826,0.718 -0.276,0.233 0,0"
         inkscape:connector-curvature="0" />
    </g>
    <g
       transform="matrix(0.69449748,0,0,-0.69449748,21.17901,37.888214)"
       id="g9929">
      <path
         id="path9931"
         style="fill:#f5d75c;fill-opacity:1;fill-rule:nonzero;stroke:none"
         d="m 0,0 c 0.013,-0.243 -0.175,-0.399 -0.4,-0.471 -0.371,-0.109 -0.439,0.197 -0.472,0.462 0.029,0.221 0.138,0.42 0.363,0.514 C -0.268,0.415 -0.03,0.305 0,0"
         inkscape:connector-curvature="0" />
    </g>
    <g
       transform="matrix(0.69449748,0,0,-0.69449748,30.281443,40.330136)"
       id="g9933">
      <path
         id="path9935"
         style="fill:#006e70;fill-opacity:1;fill-rule:nonzero;stroke:none"
         d="m 0,0 c 0.087,-0.387 -0.162,-0.602 -0.469,-0.672 -0.303,0.011 -0.683,0.165 -0.713,0.511 -0.008,0.304 0.065,0.666 0.43,0.673 0.225,0.053 0.384,-0.033 0.566,-0.019 L 0,0 z"
         inkscape:connector-curvature="0" />
    </g>
    <g
       transform="matrix(0.69449748,0,0,-0.69449748,30.141016,40.325066)"
       id="g9937">
      <path
         id="path9939"
         style="fill:#f5d75c;fill-opacity:1;fill-rule:nonzero;stroke:none"
         d="m 0,0 c 0.034,-0.203 -0.034,-0.403 -0.26,-0.477 -0.264,-0.011 -0.601,0.183 -0.51,0.504 0.029,0.222 0.154,0.339 0.359,0.372 C -0.251,0.373 -0.033,0.224 0,0"
         inkscape:connector-curvature="0" />
    </g>
    <g
       transform="matrix(0.69449748,0,0,-0.69449748,10.861905,41.242012)"
       id="g9941">
      <path
         id="path9943"
         style="fill:#db923a;fill-opacity:1;fill-rule:nonzero;stroke:none"
         d="M 0,0 C -0.307,0.497 -0.441,1.271 -0.26,1.853 0.114,2.144 0.662,2.144 1.152,2.249 L 0,0 z"
         inkscape:connector-curvature="0" />
    </g>
    <g
       transform="matrix(0.69449748,0,0,-0.69449748,31.579525,41.050747)"
       id="g9945">
      <path
         id="path9947"
         style="fill:#006e70;fill-opacity:1;fill-rule:nonzero;stroke:none"
         d="m 0,0 c 0.311,-0.335 0.293,-0.881 0.339,-1.267 -0.256,-0.397 -0.318,-0.982 -0.868,-1.105 -0.573,-0.122 -1.349,-0.317 -1.796,0.225 -0.331,0.376 -0.434,0.906 -0.295,1.409 l 0.511,0.711 C -1.492,0.215 -0.593,0.487 0,0"
         inkscape:connector-curvature="0" />
    </g>
    <g
       transform="matrix(0.69449748,0,0,-0.69449748,31.435764,41.116168)"
       id="g9949">
      <path
         id="path9951"
         style="fill:#f5d75c;fill-opacity:1;fill-rule:nonzero;stroke:none"
         d="m 0,0 c 0.312,-0.375 0.373,-0.924 0.234,-1.405 -0.093,-0.382 -0.41,-0.696 -0.797,-0.763 -0.464,-0.004 -0.936,-0.149 -1.308,0.188 -0.395,0.358 -0.414,0.906 -0.296,1.388 0.239,0.497 0.795,0.762 1.305,0.825 C -0.582,0.162 -0.259,0.151 0,0"
         inkscape:connector-curvature="0" />
    </g>
    <g
       transform="matrix(0.69449748,0,0,-0.69449748,9.6418123,45.546299)"
       id="g9953">
      <path
         id="path9955"
         style="fill:#db923a;fill-opacity:1;fill-rule:nonzero;stroke:none"
         d="m 0,0 c -0.282,0.03 -0.469,0.503 -0.62,0.791 0.137,0.441 0.552,0.69 0.924,0.94 L 0,0 z"
         inkscape:connector-curvature="0" />
    </g>
    <g
       transform="matrix(0.69449748,0,0,-0.69449748,20.249844,46.367333)"
       id="g9957">
      <path
         id="path9959"
         style="fill:#006e70;fill-opacity:1;fill-rule:nonzero;stroke:none"
         d="m 0,0 c 0.03,-0.305 -0.064,-0.706 -0.43,-0.714 -0.447,-0.046 -0.658,0.306 -0.746,0.674 0.008,0.243 0.298,0.415 0.502,0.469 C -0.413,0.359 -0.049,0.346 0,0"
         inkscape:connector-curvature="0" />
    </g>
    <g
       transform="matrix(0.69449748,0,0,-0.69449748,20.106083,46.460257)"
       id="g9961">
      <path
         id="path9963"
         style="fill:#f5d75c;fill-opacity:1;fill-rule:nonzero;stroke:none"
         d="M 0,0 C 0.107,-0.409 -0.378,-0.352 -0.597,-0.263 -0.774,-0.136 -0.784,0.169 -0.616,0.325 -0.375,0.275 0.054,0.383 0,0"
         inkscape:connector-curvature="0" />
    </g>
    <g
       transform="matrix(0.69449748,0,0,-0.69449748,19.10024,47.058427)"
       id="g9965">
      <path
         id="path9967"
         style="fill:#006e70;fill-opacity:1;fill-rule:nonzero;stroke:none"
         d="m 0,0 c 0.109,-0.349 -0.165,-0.643 -0.448,-0.674 -0.346,-0.008 -0.624,0.123 -0.673,0.469 -0.108,0.39 0.221,0.519 0.469,0.652 C -0.369,0.438 -0.07,0.285 0,0"
         inkscape:connector-curvature="0" />
    </g>
    <g
       transform="matrix(0.69449748,0,0,-0.69449748,18.972108,47.095722)"
       id="g9969">
      <path
         id="path9971"
         style="fill:#f5d75c;fill-opacity:1;fill-rule:nonzero;stroke:none"
         d="m 0,0 c 0.072,-0.266 -0.136,-0.421 -0.358,-0.414 -0.14,0.066 -0.343,0.052 -0.376,0.256 -0.072,0.246 0.096,0.423 0.299,0.476 C -0.254,0.271 -0.075,0.184 0,0"
         inkscape:connector-curvature="0" />
    </g>
    <g
       transform="matrix(0.69449748,0,0,-0.69449748,20.91045,47.599997)"
       id="g9973">
      <path
         id="path9975"
         style="fill:#006e70;fill-opacity:1;fill-rule:nonzero;stroke:none"
         d="m 0,0 c 0.309,-0.457 0.565,-1.195 0.224,-1.71 -0.318,-0.414 -0.87,-0.537 -1.377,-0.58 -0.482,0.118 -0.9,0.355 -1.084,0.869 -0.148,0.43 -0.085,1.036 0.19,1.391 0.272,0.233 0.561,0.406 0.849,0.517 C -0.756,0.391 -0.269,0.454 0,0"
         inkscape:connector-curvature="0" />
    </g>
    <g
       transform="matrix(0.69449748,0,0,-0.69449748,21.054906,48.309079)"
       id="g9977">
      <path
         id="path9979"
         style="fill:#f5d75c;fill-opacity:1;fill-rule:nonzero;stroke:none"
         d="m 0,0 c -0.035,-0.424 -0.255,-0.923 -0.722,-0.947 -0.329,-0.109 -0.612,-0.121 -0.974,-0.026 -0.415,0.277 -0.642,0.731 -0.585,1.236 0.036,0.444 0.293,0.84 0.725,1.007 C -0.779,1.486 0.008,0.831 0,0"
         inkscape:connector-curvature="0" />
    </g>
    <g
       transform="matrix(0.69449748,0,0,-0.69449748,9.4206843,49.872323)"
       id="g9981">
      <path
         id="path9983"
         style="fill:#db923a;fill-opacity:1;fill-rule:nonzero;stroke:none"
         d="m 0,0 c -0.473,0.361 -0.962,0.865 -0.982,1.453 0.136,0.4 0.587,0.607 0.92,0.838 L 0,0 z"
         inkscape:connector-curvature="0" />
    </g>
    <g
       transform="matrix(0.69449748,0,0,-0.69449748,39.00537,50.764197)"
       id="g9985">
      <path
         id="path9987"
         style="fill:#006e70;fill-opacity:1;fill-rule:nonzero;stroke:none"
         d="M 0,0 C 0.687,-1.26 2.005,-1.793 2.858,-2.876 2.964,-3.305 2.481,-3.227 2.254,-3.341 1.994,-3.251 0.857,-2.178 0.349,-2.241 0.286,-2.28 1.498,-2.95 1.656,-3.664 L 1.466,-3.84 c -1.855,-0.361 -3.542,-0.505 -5.496,-0.193 -0.28,0.091 -0.62,0.184 -0.774,0.452 0.991,1.12 -0.21,2.682 0.721,3.824 0.236,0.964 1.133,1.703 2.111,1.871 C -0.438,2.507 -0.827,0.656 0,0"
         inkscape:connector-curvature="0" />
    </g>
    <g
       transform="matrix(0.69449748,0,0,-0.69449748,28.486862,53.070484)"
       id="g9989">
      <path
         id="path9991"
         style="fill:#006e70;fill-opacity:1;fill-rule:nonzero;stroke:none"
         d="m 0,0 c 0.134,-0.187 0.33,-0.397 0.18,-0.634 -0.271,-0.213 -0.562,-0.405 -0.909,-0.454 0.059,0.503 -0.349,0.984 -0.722,1.342 -0.236,-0.337 0.302,-0.639 0.349,-0.985 0.037,-0.143 0.114,-0.268 0.087,-0.449 -1.424,-0.193 -3.434,-0.305 -4.704,0.508 0.036,0.445 0.353,0.779 0.528,1.157 C -3.651,1.647 -1.404,1.021 0,0"
         inkscape:connector-curvature="0" />
    </g>
    <g
       transform="matrix(0.69449748,0,0,-0.69449748,10.514657,54.426907)"
       id="g9993">
      <path
         id="path9995"
         style="fill:#db923a;fill-opacity:1;fill-rule:nonzero;stroke:none"
         d="m 0,0 c -0.382,0.115 -0.88,0.335 -0.947,0.762 -0.028,0.387 0.145,0.684 0.356,0.96 L 0,0 z"
         inkscape:connector-curvature="0" />
    </g>
    <g
       transform="matrix(0.69449748,0,0,-0.69449748,12.95561,58.634243)"
       id="g9997">
      <path
         id="path9999"
         style="fill:#db923a;fill-opacity:1;fill-rule:nonzero;stroke:none"
         d="M 0,0 C -0.754,-0.115 -1.115,0.545 -0.97,1.209 L 0,0 z"
         inkscape:connector-curvature="0" />
    </g>
    <g
       transform="matrix(0.69449748,0,0,-0.69449748,46.752006,6.1261361)"
       id="g10001">
      <path
         id="path10003"
         style="fill:#ffffff;fill-opacity:1;fill-rule:nonzero;stroke:none"
         d="M 0,0 C 0.044,1.253 0.991,2.237 2.118,2.198 3.244,2.158 4.121,1.111 4.078,-0.143 4.033,-1.396 3.085,-2.38 1.959,-2.34 0.833,-2.301 -0.044,-1.253 0,0"
         inkscape:connector-curvature="0" />
    </g>
    <g
       transform="matrix(0.69449748,0,0,-0.69449748,46.752006,6.1261361)"
       id="g10005">
      <path
         id="path10007"
         style="fill:#dce8eb;fill-opacity:1;fill-rule:nonzero;stroke:none"
         d="M 0,0 C 0.043,1.248 0.984,2.229 2.104,2.198 1.658,1.797 1.363,1.191 1.339,0.506 1.295,-0.747 2.173,-1.795 3.298,-1.834 2.942,-2.167 2.47,-2.358 1.959,-2.34 0.833,-2.301 -0.044,-1.253 0,0"
         inkscape:connector-curvature="0" />
    </g>
    <g
       transform="matrix(0.69449748,0,0,-0.69449748,50.573759,6.4337261)"
       id="g10009">
      <path
         id="path10011"
         style="fill:#dce8eb;fill-opacity:1;fill-rule:nonzero;stroke:none"
         d="m 0,0 c -0.058,-0.126 -0.124,-0.249 -0.199,-0.369 -0.242,0.029 -0.62,0.224 -0.711,0.511 0.273,0.841 -0.144,1.686 -0.792,2.256 0.328,0.36 1.081,0.28 1.444,-0.055 C -0.612,2.121 -0.853,1.731 -0.869,1.279 -0.889,0.691 -0.523,0.181 0,0"
         inkscape:connector-curvature="0" />
    </g>
    <g
       transform="matrix(0.69449748,0,0,-0.69449748,46.720131,5.8161851)"
       id="g10013">
      <path
         id="path10015"
         style="fill:#000000;fill-opacity:1;fill-rule:nonzero;stroke:none"
         d="M 0,0 C 0.023,0.652 0.57,1.162 1.222,1.139 1.874,1.116 2.384,0.569 2.361,-0.083 2.338,-0.735 1.791,-1.245 1.139,-1.222 0.486,-1.199 -0.023,-0.652 0,0"
         inkscape:connector-curvature="0" />
    </g>
    <g
       transform="matrix(0.69449748,0,0,-0.69449748,47.519081,5.4919881)"
       id="g10017">
      <path
         id="path10019"
         style="fill:#ffffff;fill-opacity:1;fill-rule:nonzero;stroke:none"
         d="M 0,0 C 0.011,0.304 0.267,0.542 0.57,0.532 0.875,0.521 1.113,0.266 1.103,-0.039 1.093,-0.343 0.838,-0.582 0.532,-0.571 0.229,-0.56 -0.011,-0.305 0,0"
         inkscape:connector-curvature="0" />
    </g>
    <g
       transform="matrix(0.69449748,0,0,-0.69449748,49.551042,5.3390651)"
       id="g10021">
      <path
         id="path10023"
         style="fill:#000000;fill-opacity:1;fill-rule:nonzero;stroke:none"
         d="M 0,0 C 0.013,0.381 0.333,0.679 0.713,0.666 1.094,0.652 1.392,0.333 1.379,-0.048 1.364,-0.429 1.045,-0.727 0.665,-0.714 0.285,-0.7 -0.015,-0.381 0,0"
         inkscape:connector-curvature="0" />
    </g>
    <g
       transform="matrix(0.69449748,0,0,-0.69449748,50.091566,5.1348831)"
       id="g10025">
      <path
         id="path10027"
         style="fill:#ffffff;fill-opacity:1;fill-rule:nonzero;stroke:none"
         d="M 0,0 C 0.004,0.17 0.148,0.303 0.317,0.297 0.487,0.291 0.619,0.149 0.614,-0.021 0.608,-0.191 0.467,-0.323 0.296,-0.317 0.126,-0.311 -0.007,-0.169 0,0"
         inkscape:connector-curvature="0" />
    </g>
    <g
       transform="matrix(0.69449748,0,0,-0.69449748,23.850535,41.488558)"
       id="g10029">
      <path
         id="path10031"
         style="fill:#0b989a;fill-opacity:1;fill-rule:nonzero;stroke:none"
         d="M 0,0 C 0.099,-0.349 0.196,-0.73 0.286,-1.139 L 0,0 z"
         inkscape:connector-curvature="0" />
    </g>
    <g
       transform="matrix(0.69449748,0,0,-0.69449748,49.919259,4.2728671)"
       id="g10033">
      <path
         id="path10035"
         style="fill:#aed1c6;fill-opacity:1;fill-rule:nonzero;stroke:none"
         d="m 0,0 c -0.408,-0.005 -0.8,-0.155 -1.096,-0.458 -0.235,0.24 -0.596,0.424 -0.991,0.498 -0.165,0.45 -0.607,1.529 -1.24,2.071 -0.815,0.694 -2.289,1.229 -2.289,1.229 0,0 2.72,0.188 3.921,-1.831 0.382,-0.644 0.394,-0.851 0.394,-0.851 0,0 1.101,-0.14 1.301,-0.658 m -0.803,-4.672 c 0.185,0.173 0.34,0.385 0.454,0.643 0.336,-0.217 1.147,-0.922 1.236,-1.725 0.274,-2.521 -1.27,-3.98 -1.27,-3.98 0,0 0.689,1.578 0.69,2.407 0.003,1.383 -0.521,1.994 -1.11,2.655"
         inkscape:connector-curvature="0" />
    </g>
    <g
       transform="matrix(0.69449748,0,0,-0.69449748,47.346079,11.670243)"
       id="g10037">
      <path
         id="path10039"
         style="fill:#f5d75c;fill-opacity:1;fill-rule:nonzero;stroke:none"
         d="m 0,0 c -0.557,0.734 -1.134,1.199 -1.702,1.613 0.106,0.163 0.778,1.151 1.806,1.858 1.123,0.773 2.261,0.959 3.959,0.9 C 4.532,4.354 5.053,4.242 5.557,4.088 5.589,2.087 4.786,0.008 2.846,-0.998 2.148,-1.257 1.176,-1.547 0,0 m -8.646,-19.741 c 5.016,-22.355 -3.511,-32.041 -9.701,-36.538 -0.016,0.117 -0.024,0.239 -0.028,0.361 0.103,0.827 0.58,1.664 0.471,2.506 -0.063,-0.086 -0.12,-0.174 -0.175,-0.263 -0.151,0.316 -0.431,1.112 -0.033,2.086 0.515,1.265 3.772,4.837 4.978,7.616 2.101,4.839 3.133,14.36 2.612,22.667 -0.522,8.306 -1.497,11.229 0.051,17.708 1.365,5.71 4.813,7.636 5.611,8.013 0.475,-1.477 1.876,-2.52 3.161,-3.309 0,0 -1.824,-0.952 -3.588,1.644 -1.599,-1.079 -2.571,-2.848 -3.318,-4.503 -2.482,-5.505 -1.205,-12.437 -0.041,-17.988"
         inkscape:connector-curvature="0" />
    </g>
    <g
       transform="matrix(0.69449748,0,0,-0.69449748,49.397069,10.241589)"
       id="g10041">
      <path
         id="path10043"
         style="fill:#000000;fill-opacity:1;fill-rule:nonzero;stroke:none"
         d="m 0,0 c -0.108,-0.239 -0.179,-0.46 -0.465,-0.551 -0.242,0.029 -0.503,0.119 -0.513,0.403 0.012,0.344 0.167,0.703 0.515,0.813 C -0.015,0.73 -0.07,0.286 0,0"
         inkscape:connector-curvature="0" />
    </g>
    <g
       transform="matrix(0.69449748,0,0,-0.69449748,50.773147,10.317223)"
       id="g10045">
      <path
         id="path10047"
         style="fill:#000000;fill-opacity:1;fill-rule:nonzero;stroke:none"
         d="m 0,0 c -0.149,-0.218 -0.061,-0.586 -0.445,-0.572 -0.161,0.025 -0.319,0.153 -0.374,0.316 C -0.87,0.01 -0.721,0.207 -0.613,0.406 -0.357,0.762 0.01,0.283 0,0"
         inkscape:connector-curvature="0" />
    </g>
    <g
       transform="matrix(0.69449748,0,0,-0.69449748,49.152883,10.401946)"
       id="g10049">
      <path
         id="path10051"
         style="fill:#ca533b;fill-opacity:1;fill-rule:nonzero;stroke:none"
         d="M 0,0 C -0.103,-0.016 -0.167,-0.115 -0.287,-0.071 -0.441,0.137 -0.331,0.397 -0.223,0.596 0.173,0.886 0.188,0.176 0,0"
         inkscape:connector-curvature="0" />
    </g>
    <g
       transform="matrix(0.69449748,0,0,-0.69449748,50.604311,10.340275)"
       id="g10053">
      <path
         id="path10055"
         style="fill:#ca533b;fill-opacity:1;fill-rule:nonzero;stroke:none"
         d="M 0,0 C -0.066,-0.119 -0.012,-0.323 -0.196,-0.337 -0.493,-0.185 -0.26,0.111 -0.173,0.29 -0.071,0.307 0.004,0.122 0,0"
         inkscape:connector-curvature="0" />
    </g>
    <g
       transform="matrix(0.69449748,0,0,-0.69449748,47.346079,11.670243)"
       id="g10057">
      <path
         id="path10059"
         style="fill:#ccae42;fill-opacity:1;fill-rule:nonzero;stroke:none"
         d="M 0,0 C -0.557,0.734 -1.134,1.199 -1.702,1.613 -1.654,1.687 -1.489,1.93 -1.229,2.239 -0.345,1.448 0.385,0.705 1.019,-0.073 1.372,-0.507 1.904,-0.888 2.645,-1.07 1.967,-1.296 1.066,-1.403 0,0 M -6.417,3.398 C -5.715,3.977 -5.134,4.286 -4.86,4.415 -4.521,3.358 -3.706,2.523 -2.801,1.846 -3.057,1.661 -3.506,1.496 -4.125,1.863 -4.427,2.041 -4.766,2.26 -5.094,2.479 -5.158,2.565 -5.223,2.655 -5.287,2.75 L -5.391,2.679 c -0.433,0.297 -0.818,0.57 -1.026,0.719"
         inkscape:connector-curvature="0" />
    </g>
    <g
       transform="matrix(0.69449748,0,0,-0.69449748,50.045452,8.6304221)"
       id="g10061">
      <path
         id="path10063"
         style="fill:#fbea98;fill-opacity:1;fill-rule:nonzero;stroke:none"
         d="m 0,0 0.176,-0.006 c 0.18,-0.006 0.37,-0.027 0.56,-0.058 0.006,-2.161 -1.3,-3.396 -1.3,-3.396 0,0 0.688,1.578 0.689,2.407 C 0.126,-0.641 0.079,-0.297 0,0"
         inkscape:connector-curvature="0" />
    </g>
    <g
       transform="matrix(0.69449748,0,0,-0.69449748,48.61916,3.5173261)"
       id="g10065">
      <path
         id="path10067"
         style="fill:#000000;fill-opacity:1;fill-rule:nonzero;stroke:none"
         d="m 0,0 c -2.741,0.882 -3.922,-0.896 -3.922,-0.896 -0.126,0.43 0.159,2.458 1.933,2.506 C -1.063,1.476 -0.376,0.844 0,0"
         inkscape:connector-curvature="0" />
    </g>
    <g
       transform="matrix(0.69449748,0,0,-0.69449748,48.124677,3.1626491)"
       id="g10069">
      <path
         id="path10071"
         style="fill:#ecc051;fill-opacity:1;fill-rule:nonzero;stroke:none"
         d="m 0,0 c -1.049,0.118 -2.026,-0.01 -2.899,-0.689 0.223,0.641 0.757,1.413 1.47,1.549 C -0.925,0.782 -0.18,0.635 0,0"
         inkscape:connector-curvature="0" />
    </g>
    <g
       transform="matrix(0.69449748,0,0,-0.69449748,50.212964,9.0631661)"
       id="g10073">
      <path
         id="path10075"
         style="fill:#ffffff;fill-opacity:1;fill-rule:nonzero;stroke:none"
         d="M 0,0 C 0.008,0.239 0.168,0.428 0.357,0.421 0.547,0.414 0.692,0.215 0.684,-0.024 0.677,-0.264 0.517,-0.452 0.326,-0.445 0.138,-0.439 -0.01,-0.24 0,0"
         inkscape:connector-curvature="0" />
    </g>
    <g
       transform="matrix(0.69449748,0,0,-0.69449748,49.352971,3.9819451)"
       id="g10077">
      <path
         id="path10079"
         style="fill:#ffffff;fill-opacity:1;fill-rule:nonzero;stroke:none"
         d="M 0,0 C 0.005,0.133 0.126,0.238 0.271,0.233 0.415,0.228 0.529,0.115 0.523,-0.018 0.519,-0.152 0.398,-0.256 0.254,-0.251 0.108,-0.246 -0.004,-0.134 0,0"
         inkscape:connector-curvature="0" />
    </g>
    <g
       transform="matrix(0.69449748,0,0,-0.69449748,40.035593,32.687608)"
       id="g10081">
      <path
         id="path10083"
         style="fill:#fbea98;fill-opacity:1;fill-rule:nonzero;stroke:none"
         d="m 0,0 c 0.179,2.965 0.188,6.036 0.004,8.957 -0.522,8.306 -1.496,11.229 0.052,17.708 0.164,0.69 0.36,1.324 0.578,1.908 1.054,1.568 1.379,1.684 1.379,1.684 0,0 -3.399,-3.641 -2.142,-14.475 C 1.128,4.947 2.832,-1.571 1.854,-7.414 0.88,-13.259 -1.88,-17.972 -3.201,-19.858 c -1.322,-1.885 -2.011,-2.24 -2.011,-2.24 0,0 4.535,8.314 5.231,14.458 C 0.232,-5.752 0.178,-2.981 0,0"
         inkscape:connector-curvature="0" />
    </g>
    <g
       transform="matrix(0.69449748,0,0,-0.69449748,35.519343,56.990295)"
       id="g10085">
      <path
         id="path10087"
         style="fill:#0b989a;fill-opacity:1;fill-rule:nonzero;stroke:none"
         d="m 0,0 c -0.412,-0.045 -0.828,-0.009 -1.224,0.147 -0.117,0.085 0.053,0.322 -0.13,0.329 -0.109,0.328 0.25,0.741 -0.065,1.036 -0.396,-0.311 -0.297,-1.551 -0.159,-1.656 -1.099,-0.144 -2.43,0.004 -3.493,0.324 -0.319,0.193 -0.528,0.566 -0.352,0.923 0.199,0.542 0.787,1.108 0.443,1.688 -1.368,2.013 -3.583,3.022 -4.686,5.025 l 0.02,0.587 c 1.108,2.408 2.216,4.86 2.948,7.409 0.101,-2.078 0.452,-7.417 1.431,-8.804 1.225,-1.734 4.833,-5.075 4.833,-5.075 0,0 -0.695,-0.973 0.434,-1.933"
         inkscape:connector-curvature="0" />
    </g>
  </g>
</svg>
