<?xml version="1.0" encoding="UTF-8" standalone="no"?>
<!-- Created with Inkscape (http://www.inkscape.org/) -->

<svg
   xmlns:dc="http://purl.org/dc/elements/1.1/"
   xmlns:cc="http://creativecommons.org/ns#"
   xmlns:rdf="http://www.w3.org/1999/02/22-rdf-syntax-ns#"
   xmlns:svg="http://www.w3.org/2000/svg"
   xmlns="http://www.w3.org/2000/svg"
   xmlns:sodipodi="http://sodipodi.sourceforge.net/DTD/sodipodi-0.dtd"
   xmlns:inkscape="http://www.inkscape.org/namespaces/inkscape"
   width="64px"
   height="64px"
   id="svg21322"
   version="1.1"
   inkscape:version="0.48.5 r10040"
   sodipodi:docname="Nowy dokument 9">
  <defs
     id="defs21324" />
  <sodipodi:namedview
     id="base"
     pagecolor="#ffffff"
     bordercolor="#666666"
     borderopacity="1.0"
     inkscape:pageopacity="0.0"
     inkscape:pageshadow="2"
     inkscape:zoom="5.5"
     inkscape:cx="32"
     inkscape:cy="24.482517"
     inkscape:current-layer="layer1"
     showgrid="true"
     inkscape:document-units="px"
     inkscape:grid-bbox="true"
     inkscape:window-width="1366"
     inkscape:window-height="706"
     inkscape:window-x="-8"
     inkscape:window-y="-8"
     inkscape:window-maximized="1" />
  <metadata
     id="metadata21327">
    <rdf:RDF>
      <cc:Work
         rdf:about="">
        <dc:format>image/svg+xml</dc:format>
        <dc:type
           rdf:resource="http://purl.org/dc/dcmitype/StillImage" />
        <dc:title></dc:title>
      </cc:Work>
    </rdf:RDF>
  </metadata>
  <g
     id="layer1"
     inkscape:label="Layer 1"
     inkscape:groupmode="layer">
    <path
       id="path11284"
       style="fill:#6fbdcc;fill-opacity:1;fill-rule:nonzero;stroke:none"
       d="m 34.627713,26.28409 19.000399,0 c 1.353311,0 2.450011,-3.619639 2.450011,-3.619639 0,0 -1.0967,-3.618964 -2.450011,-3.618964 l -19.000399,0 c -1.353311,0 -1.353311,7.238603 0,7.238603"
       inkscape:connector-curvature="0" />
    <path
       id="path11286"
       style="fill:#e8e7e6;fill-opacity:1;fill-rule:nonzero;stroke:none"
       d="m 48.722693,21.89933 -10.280856,0 c -0.604396,0 -1.09129,0.334278 -1.09129,0.747562 0,0.412612 0.486894,0.748239 1.09129,0.748239 l 10.280856,0 c 0.605074,0 1.091296,-0.335627 1.091296,-0.748239 0,-0.413284 -0.486222,-0.747562 -1.091296,-0.747562"
       inkscape:connector-curvature="0" />
    <path
       id="path11288"
       style="fill:#e8e7e6;fill-opacity:1;fill-rule:nonzero;stroke:none"
       d="m 52.927147,21.89933 -1.091294,0 c -0.598997,0 -1.091295,0.334278 -1.091295,0.747562 0,0.412612 0.492298,0.748239 1.091295,0.748239 l 1.091294,0 c 0.599668,0 1.08589,-0.335627 1.08589,-0.748239 0,-0.413284 -0.486222,-0.747562 -1.08589,-0.747562"
       inkscape:connector-curvature="0" />
    <path
       id="path11290"
       style="fill:#6fbdcc;fill-opacity:1;fill-rule:nonzero;stroke:none"
       d="m 32.642989,11.417913 -18.996351,0 c -1.353986,0 -2.452034,3.618963 -2.452034,3.618963 0,0 1.098048,3.618962 2.452034,3.618962 l 18.996351,0 c 1.353312,0 1.353312,-7.237925 0,-7.237925"
       inkscape:connector-curvature="0" />
    <path
       id="path11292"
       style="fill:#e8e7e6;fill-opacity:1;fill-rule:nonzero;stroke:none"
       d="m 18.54936,15.802673 10.284906,0 c 0.601696,0 1.091295,-0.334278 1.091295,-0.748239 0,-0.413965 -0.489599,-0.748915 -1.091295,-0.748915 l -10.284906,0 c -0.6017,0 -1.088593,0.33495 -1.088593,0.748915 0,0.413961 0.486893,0.748239 1.088593,0.748239"
       inkscape:connector-curvature="0" />
    <path
       id="path11294"
       style="fill:#e8e7e6;fill-opacity:1;fill-rule:nonzero;stroke:none"
       d="m 14.346931,15.802673 1.090619,0 c 0.601696,0 1.08927,-0.334278 1.08927,-0.748239 0,-0.413965 -0.487574,-0.748915 -1.08927,-0.748915 l -1.090619,0 c -0.601696,0 -1.088594,0.33495 -1.088594,0.748915 0,0.413961 0.486898,0.748239 1.088594,0.748239"
       inkscape:connector-curvature="0" />
    <path
       id="path11296"
       style="fill:#6fbdcc;fill-opacity:1;fill-rule:nonzero;stroke:none"
       d="m 32.642989,27.812984 -18.996351,0 c -1.353986,0 -2.452034,3.619636 -2.452034,3.619636 0,0 1.098048,3.618963 2.452034,3.618963 l 18.996351,0 c 1.353312,0 1.353312,-7.238599 0,-7.238599"
       inkscape:connector-curvature="0" />
    <path
       id="path11298"
       style="fill:#e8e7e6;fill-opacity:1;fill-rule:nonzero;stroke:none"
       d="m 18.54936,32.199769 10.284906,0 c 0.601696,0 1.091295,-0.335627 1.091295,-0.749592 0,-0.412612 -0.489599,-0.747563 -1.091295,-0.747563 l -10.284906,0 c -0.6017,0 -1.088593,0.334951 -1.088593,0.747563 0,0.413965 0.486893,0.749592 1.088593,0.749592"
       inkscape:connector-curvature="0" />
    <path
       id="path11300"
       style="fill:#e8e7e6;fill-opacity:1;fill-rule:nonzero;stroke:none"
       d="m 14.346931,32.199769 1.090619,0 c 0.601696,0 1.08927,-0.335627 1.08927,-0.749592 0,-0.412612 -0.487574,-0.747563 -1.08927,-0.747563 l -1.090619,0 c -0.601696,0 -1.088594,0.334951 -1.088594,0.747563 0,0.413965 0.486898,0.749592 1.088594,0.749592"
       inkscape:connector-curvature="0" />
    <path
       id="path11302"
       style="fill:#98521d;fill-opacity:1;fill-rule:nonzero;stroke:none"
       d="m 41.875769,55.239849 c 0,1.603175 -3.695949,2.902464 -8.253588,2.902464 -4.557638,0 -8.250882,-1.299289 -8.250882,-2.902464 0,-1.603852 3.693244,-2.903817 8.250882,-2.903817 4.557639,0 8.253588,1.299965 8.253588,2.903817"
       inkscape:connector-curvature="0" />
    <path
       id="path11304"
       style="fill:#a96920;fill-opacity:1;fill-rule:nonzero;stroke:none"
       d="m 41.250433,54.694199 c 0,1.203397 -3.412992,2.179889 -7.628252,2.179889 -4.21323,0 -7.628928,-0.976492 -7.628928,-2.179889 0,-1.204068 3.415698,-2.179208 7.628928,-2.179208 4.21526,0 7.628252,0.97514 7.628252,2.179208"
       inkscape:connector-curvature="0" />
    <path
       id="path11306"
       style="fill:#a96920;fill-opacity:1;fill-rule:nonzero;stroke:none"
       d="m 36.14715,53.72176 c 0,2.514839 -4.905423,2.514839 -4.905423,0 l 0,-46.2348033 c 0,-2.514163 1.0967,-4.553585 2.450012,-4.553585 1.358716,0 2.455411,2.039422 2.455411,4.553585 l 0,46.2348033"
       inkscape:connector-curvature="0" />
    <path
       id="path11308"
       style="fill:#b7792e;fill-opacity:1;fill-rule:nonzero;stroke:none"
       d="m 36.14715,53.72176 c 0,1.862492 -2.691094,2.345337 -4.086951,1.448531 -0.486893,-0.313343 -0.775926,-48.7368114 1.63154,-52.2369193 1.358716,0 2.455411,2.039422 2.455411,4.553585 l 0,46.2348033"
       inkscape:connector-curvature="0" />
  </g>
</svg>
