<?xml version="1.0" encoding="UTF-8" standalone="no"?>
<!-- Created with Inkscape (http://www.inkscape.org/) -->

<svg
   xmlns:dc="http://purl.org/dc/elements/1.1/"
   xmlns:cc="http://creativecommons.org/ns#"
   xmlns:rdf="http://www.w3.org/1999/02/22-rdf-syntax-ns#"
   xmlns:svg="http://www.w3.org/2000/svg"
   xmlns="http://www.w3.org/2000/svg"
   xmlns:sodipodi="http://sodipodi.sourceforge.net/DTD/sodipodi-0.dtd"
   xmlns:inkscape="http://www.inkscape.org/namespaces/inkscape"
   width="64px"
   height="64px"
   id="svg21553"
   version="1.1"
   inkscape:version="0.48.5 r10040"
   sodipodi:docname="Nowy dokument 13">
  <defs
     id="defs21555" />
  <sodipodi:namedview
     id="base"
     pagecolor="#ffffff"
     bordercolor="#666666"
     borderopacity="1.0"
     inkscape:pageopacity="0.0"
     inkscape:pageshadow="2"
     inkscape:zoom="5.5"
     inkscape:cx="32"
     inkscape:cy="36.94006"
     inkscape:current-layer="layer1"
     showgrid="true"
     inkscape:document-units="px"
     inkscape:grid-bbox="true"
     inkscape:window-width="1366"
     inkscape:window-height="706"
     inkscape:window-x="-8"
     inkscape:window-y="-8"
     inkscape:window-maximized="1" />
  <metadata
     id="metadata21558">
    <rdf:RDF>
      <cc:Work
         rdf:about="">
        <dc:format>image/svg+xml</dc:format>
        <dc:type
           rdf:resource="http://purl.org/dc/dcmitype/StillImage" />
        <dc:title></dc:title>
      </cc:Work>
    </rdf:RDF>
  </metadata>
  <g
     id="layer1"
     inkscape:label="Layer 1"
     inkscape:groupmode="layer">
    <path
       id="path11704"
       style="fill:#64471a;fill-opacity:1;fill-rule:nonzero;stroke:none"
       d="m 35.609361,42.55548 c 0,1.519905 -1.234448,2.75351 -2.754353,2.75351 -1.520747,0 -2.755195,-1.233605 -2.755195,-2.75351 l 0,-23.961441 c 0,-1.520748 1.234448,-1.549376 2.755195,-1.549376 1.519905,0 2.754353,0.0286 2.754353,1.549376 l 0,23.961441"
       inkscape:connector-curvature="0" />
    <path
       id="path11706"
       style="fill:#64471a;fill-opacity:1;fill-rule:nonzero;stroke:none"
       d="m 55.319282,42.55548 c 0,1.519905 -1.23361,2.75351 -2.754357,2.75351 -1.520743,0 -2.755196,-1.233605 -2.755196,-2.75351 l 0,-23.961441 c 0,-1.520748 1.234453,-1.549376 2.755196,-1.549376 1.520747,0 2.754357,0.0286 2.754357,1.549376 l 0,23.961441"
       inkscape:connector-curvature="0" />
    <path
       id="path11708"
       style="fill:#64471a;fill-opacity:1;fill-rule:nonzero;stroke:none"
       d="m 41.765604,24.309045 0,9.776228 -19.060698,-9.776228 0,9.763598 -19.0345937,-9.763598 0,30.875535 c 0,1.082883 0.796584,1.961141 1.776733,1.961141 l 53.6479967,0 c 0.980149,0 1.7801,-0.878258 1.7801,-1.961141 l 0,-21.074041 -19.109538,-9.801494"
       inkscape:connector-curvature="0" />
    <path
       id="path11710"
       style="fill:#d3d3d1;fill-opacity:1;fill-rule:nonzero;stroke:none"
       d="m 41.765604,27.003613 0,9.777071 -19.060698,-9.777071 0,9.76444 -19.0345937,-9.76444 0,30.876378 c 0,1.082878 0.796584,1.96114 1.776733,1.96114 l 53.6479967,0 c 0.980149,0 1.7801,-0.878262 1.7801,-1.96114 l 0,-21.074047 -19.109538,-9.802331"
       inkscape:connector-curvature="0" />
    <path
       id="path11712"
       style="fill:#ffffff;fill-opacity:1;fill-rule:nonzero;stroke:none"
       d="m 17.075788,50.6215 c 0,0.404183 -0.295563,0.731746 -0.661854,0.731746 l -6.081304,0 c -0.3654487,0 -0.6626927,-0.327563 -0.6626927,-0.731746 l 0,-6.705262 c 0,-0.404189 0.297244,-0.731746 0.6626927,-0.731746 l 6.081304,0 c 0.366291,0 0.661854,0.327557 0.661854,0.731746 l 0,6.705262"
       inkscape:connector-curvature="0" />
    <path
       id="path11714"
       style="fill:#ffffff;fill-opacity:1;fill-rule:nonzero;stroke:none"
       d="m 36.556671,50.6215 c 0,0.404183 -0.300616,0.731746 -0.666907,0.731746 l -6.077094,0 c -0.367135,0 -0.662692,-0.327563 -0.662692,-0.731746 l 0,-6.705262 c 0,-0.404189 0.295557,-0.731746 0.662692,-0.731746 l 6.077094,0 c 0.366291,0 0.666907,0.327557 0.666907,0.731746 l 0,6.705262"
       inkscape:connector-curvature="0" />
    <path
       id="path11716"
       style="fill:#ffffff;fill-opacity:1;fill-rule:nonzero;stroke:none"
       d="m 55.246019,50.6215 c 0,0.404183 -0.293034,0.731746 -0.666903,0.731746 l -6.07625,0 c -0.367135,0 -0.666908,-0.327563 -0.666908,-0.731746 l 0,-6.705262 c 0,-0.404189 0.299773,-0.731746 0.666908,-0.731746 l 6.07625,0 c 0.373869,0 0.666903,0.327557 0.666903,0.731746 l 0,6.705262"
       inkscape:connector-curvature="0" />
    <path
       id="path11718"
       style="fill:#f7b8c6;fill-opacity:1;fill-rule:nonzero;stroke:none"
       d="m 53.791796,13.553511 c -0.153251,-0.187774 -0.353662,-0.343555 -0.580171,-0.453866 0.0067,-0.07242 0.01345,-0.145674 0.01345,-0.219775 0,-0.06231 0,-0.124623 -0.0067,-0.185251 0.09347,0.01515 0.186938,0.02188 0.2863,0.02188 0.480808,0 0.907733,-0.175987 1.227708,-0.462287 -0.05978,0.565017 -0.426919,1.046673 -0.940571,1.299286"
       inkscape:connector-curvature="0" />
    <path
       id="path11720"
       style="fill:#f7b8c6;fill-opacity:1;fill-rule:nonzero;stroke:none"
       d="m 50.270335,11.644578 c -0.367135,-0.303977 -0.600383,-0.749424 -0.600383,-1.246235 0,-0.4622868 0.200405,-0.8799438 0.526282,-1.1797158 0.260195,0.60375 0.900994,1.0289888 1.64116,1.0289888 0.04039,0 0.07999,-0.0011 0.127147,-0.0032 -0.147354,0.240831 -0.234086,0.518704 -0.234086,0.815948 0,0.06147 0.0076,0.123785 0.01345,0.184413 -0.09347,-0.01515 -0.192829,-0.02188 -0.293034,-0.02188 -0.453867,0 -0.867313,0.159147 -1.180554,0.421866"
       inkscape:connector-curvature="0" />
    <path
       id="path11722"
       style="fill:#f7b8c6;fill-opacity:1;fill-rule:nonzero;stroke:none"
       d="m 53.504658,12.716512 c -0.09936,0 -0.192833,-0.0067 -0.286299,-0.02188 -0.09347,-0.73848 -0.700589,-1.331287 -1.474436,-1.450013 -0.0059,-0.06063 -0.01345,-0.122943 -0.01345,-0.184414 0,-0.297243 0.08673,-0.575117 0.234086,-0.815948 0,-0.0011 0.0059,-0.0011 0.0135,-0.0016 0.306507,0.489234 0.873209,0.817629 1.526643,0.817629 0.654273,0 1.227709,-0.333448 1.534216,-0.827735 0.154099,0.243355 0.239988,0.526282 0.239988,0.827735 0,0.469027 -0.206302,0.89258 -0.546495,1.194033 -0.319975,0.2863 -0.7469,0.462287 -1.227709,0.462287"
       inkscape:connector-curvature="0" />
    <path
       id="path11724"
       style="fill:#f7b8c6;fill-opacity:1;fill-rule:nonzero;stroke:none"
       d="m 52.391466,16.225342 c -0.980992,0 -1.774209,-0.741847 -1.774209,-1.655471 0,-0.07494 0.0059,-0.148203 0.02022,-0.219775 0.239983,0.118726 0.519543,0.186932 0.813419,0.186932 0.900157,0 1.6479,-0.627326 1.760736,-1.437383 0.226509,0.110311 0.426919,0.266092 0.58017,0.453866 0.233249,0.280404 0.373875,0.633222 0.373875,1.01636 0,0.913624 -0.794055,1.655471 -1.774204,1.655471"
       inkscape:connector-curvature="0" />
    <path
       id="path11726"
       style="fill:#f7b8c6;fill-opacity:1;fill-rule:nonzero;stroke:none"
       d="m 51.450889,14.537028 c -0.293876,0 -0.573436,-0.0682 -0.813419,-0.186932 -0.567545,-0.277037 -0.954045,-0.831952 -0.954045,-1.470226 0,-0.490915 0.226509,-0.931309 0.58691,-1.235292 0.313241,-0.262719 0.726688,-0.421866 1.180554,-0.421866 0.100206,0 0.199568,0.0067 0.293034,0.02188 0.773847,0.118727 1.38097,0.711534 1.474436,1.450014 0.0067,0.06063 0.0067,0.122942 0.0067,0.185251 0,0.0741 -0.0067,0.147359 -0.01345,0.219775 -0.112836,0.810057 -0.860579,1.437383 -1.760736,1.437383"
       inkscape:connector-curvature="0" />
    <path
       id="path11728"
       style="fill:#f7b8c6;fill-opacity:1;fill-rule:nonzero;stroke:none"
       d="m 51.837394,10.247616 c -0.740166,0 -1.380965,-0.4252388 -1.64116,-1.0289888 -0.08589,-0.193672 -0.133043,-0.40587 -0.133043,-0.628174 0,-0.914468 0.794054,-1.655472 1.774203,-1.655472 0.647538,0 1.220975,0.328401 1.527482,0.816792 -0.913625,0.06736 -1.634421,0.781424 -1.634421,1.652948 0,0.305664 0.08673,0.592806 0.24756,0.8378418 -0.0076,0.0011 -0.0135,0.0011 -0.0135,0.0016 -0.04717,0.0027 -0.08673,0.0032 -0.127147,0.0032"
       inkscape:connector-curvature="0" />
    <path
       id="path11730"
       style="fill:#f7b8c6;fill-opacity:1;fill-rule:nonzero;stroke:none"
       d="m 53.504658,11.060192 c -0.653434,0 -1.220136,-0.328395 -1.526643,-0.817629 -0.160828,-0.2450358 -0.24756,-0.5321778 -0.24756,-0.8378418 0,-0.871524 0.720796,-1.585586 1.634421,-1.652948 0.04717,-0.0032 0.09347,-0.0048 0.139782,-0.0048 0.980992,0 1.774204,0.74269 1.774204,1.658 0,0.301454 -0.08589,0.584387 -0.239988,0.8277358 -0.306507,0.494287 -0.879943,0.827736 -1.534216,0.827736"
       inkscape:connector-curvature="0" />
    <path
       id="path11732"
       style="fill:#f7b8c6;fill-opacity:1;fill-rule:nonzero;stroke:none"
       d="m 34.98203,11.834039 c -0.239982,-0.28798 -0.539755,-0.525438 -0.893417,-0.693849 0.02022,-0.110312 0.02695,-0.221461 0.02695,-0.335135 0,-0.09515 -0.0067,-0.189466 -0.02022,-0.281246 0.146522,0.02188 0.293039,0.03282 0.44629,0.03282 0.727536,0 1.387704,-0.267773 1.875252,-0.7039558 -0.09347,0.8614218 -0.654277,1.5956918 -1.434859,1.9813478"
       inkscape:connector-curvature="0" />
    <path
       id="path11734"
       style="fill:#f7b8c6;fill-opacity:1;fill-rule:nonzero;stroke:none"
       d="m 29.607212,8.9196972 c -0.566703,-0.46313 -0.923731,-1.143506 -0.923731,-1.902194 0,-0.704799 0.308187,-1.341393 0.804999,-1.79947 0.405031,0.921207 1.371706,1.571275 2.505949,1.571275 0.06652,0 0.126309,-0.0027 0.192828,-0.0059 -0.226509,0.367135 -0.353661,0.792369 -0.353661,1.245392 0,0.09515 0.0076,0.188624 0.02022,0.281247 -0.146517,-0.02188 -0.293039,-0.03367 -0.439556,-0.03367 -0.693849,0 -1.327914,0.243355 -1.807041,0.643328"
       inkscape:connector-curvature="0" />
    <path
       id="path11736"
       style="fill:#f7b8c6;fill-opacity:1;fill-rule:nonzero;stroke:none"
       d="m 34.541637,10.556647 c -0.153251,0 -0.299768,-0.01094 -0.44629,-0.03282 -0.133886,-1.1283508 -1.060141,-2.0327178 -2.241538,-2.2137588 -0.01265,-0.09262 -0.02022,-0.186094 -0.02022,-0.281246 0,-0.453024 0.127152,-0.878257 0.353661,-1.245392 0.0076,-0.0011 0.01345,-0.0011 0.02022,-0.0016 0.474075,0.746057 1.340545,1.247078 2.334167,1.247078 1.001199,0 1.875252,-0.508598 2.341749,-1.264762 0.233249,0.372189 0.360396,0.803318 0.360396,1.264762 0,0.716592 -0.314085,1.363287 -0.826893,1.823888 -0.487548,0.4361828 -1.147716,0.7039558 -1.875252,0.7039558"
       inkscape:connector-curvature="0" />
    <path
       id="path11738"
       style="fill:#f7b8c6;fill-opacity:1;fill-rule:nonzero;stroke:none"
       d="m 32.841535,15.910415 c -1.494644,0 -2.708041,-1.131719 -2.708041,-2.527838 0,-0.113679 0.01345,-0.225671 0.02695,-0.33514 0.373026,0.182727 0.799946,0.285456 1.253812,0.285456 1.366654,0 2.500897,-0.955731 2.67436,-2.192703 0.353662,0.168411 0.653435,0.405869 0.893417,0.693849 0.353662,0.42692 0.567546,0.964995 0.567546,1.548538 0,1.396119 -1.214241,2.527838 -2.708041,2.527838"
       inkscape:connector-curvature="0" />
    <path
       id="path11740"
       style="fill:#f7b8c6;fill-opacity:1;fill-rule:nonzero;stroke:none"
       d="m 31.414253,13.332893 c -0.453867,0 -0.880786,-0.102729 -1.253812,-0.285456 -0.866476,-0.421024 -1.455067,-1.268129 -1.455067,-2.242382 0,-0.749429 0.347766,-1.4230708 0.901838,-1.8853578 0.479127,-0.399973 1.113192,-0.643328 1.807041,-0.643328 0.146517,0 0.293039,0.01179 0.439556,0.03367 1.181397,0.181041 2.107652,1.085408 2.241538,2.2137588 0.0135,0.09178 0.02022,0.186095 0.02022,0.281247 0,0.113673 -0.0067,0.224823 -0.02695,0.335134 -0.173463,1.236972 -1.307706,2.192704 -2.67436,2.192704"
       inkscape:connector-curvature="0" />
    <path
       id="path11742"
       style="fill:#f7b8c6;fill-opacity:1;fill-rule:nonzero;stroke:none"
       d="m 31.994429,6.7893082 c -1.134243,0 -2.100918,-0.650068 -2.505949,-1.571275 -0.129677,-0.2964 -0.200406,-0.618905 -0.200406,-0.957412 0,-1.395281 1.211712,-2.527843 2.706355,-2.527843 0.993623,0 1.860936,0.501021 2.334167,1.247084 -1.394438,0.101886 -2.495,1.191504 -2.495,2.519418 0,0.468183 0.133886,0.906047 0.373874,1.282445 -0.0067,0.0011 -0.01265,0.0011 -0.02022,0.0016 -0.06652,0.0032 -0.126304,0.0059 -0.192828,0.0059"
       inkscape:connector-curvature="0" />
    <path
       id="path11744"
       style="fill:#f7b8c6;fill-opacity:1;fill-rule:nonzero;stroke:none"
       d="m 34.541637,8.0288042 c -0.993622,0 -1.860092,-0.501022 -2.334167,-1.247079 -0.239988,-0.376398 -0.373874,-0.814262 -0.373874,-1.282445 0,-1.327914 1.100562,-2.417532 2.495,-2.519418 0.06652,-0.0048 0.139783,-0.0076 0.213041,-0.0076 1.494643,0 2.702145,1.131718 2.702145,2.527 0,0.461444 -0.127147,0.893417 -0.360396,1.264762 -0.466497,0.756164 -1.34055,1.264762 -2.341749,1.264762"
       inkscape:connector-curvature="0" />
  </g>
</svg>
