<?xml version="1.0" encoding="UTF-8" standalone="no"?>
<!-- Created with Inkscape (http://www.inkscape.org/) -->

<svg
   xmlns:dc="http://purl.org/dc/elements/1.1/"
   xmlns:cc="http://creativecommons.org/ns#"
   xmlns:rdf="http://www.w3.org/1999/02/22-rdf-syntax-ns#"
   xmlns:svg="http://www.w3.org/2000/svg"
   xmlns="http://www.w3.org/2000/svg"
   xmlns:sodipodi="http://sodipodi.sourceforge.net/DTD/sodipodi-0.dtd"
   xmlns:inkscape="http://www.inkscape.org/namespaces/inkscape"
   width="64px"
   height="64px"
   id="svg171523"
   version="1.1"
   inkscape:version="0.48.5 r10040"
   sodipodi:docname="Nowy dokument 24">
  <defs
     id="defs171525" />
  <sodipodi:namedview
     id="base"
     pagecolor="#ffffff"
     bordercolor="#666666"
     borderopacity="1.0"
     inkscape:pageopacity="0.0"
     inkscape:pageshadow="2"
     inkscape:zoom="5.5"
     inkscape:cx="32"
     inkscape:cy="32"
     inkscape:current-layer="layer1"
     showgrid="true"
     inkscape:document-units="px"
     inkscape:grid-bbox="true"
     inkscape:window-width="1366"
     inkscape:window-height="706"
     inkscape:window-x="-8"
     inkscape:window-y="-8"
     inkscape:window-maximized="1" />
  <metadata
     id="metadata171528">
    <rdf:RDF>
      <cc:Work
         rdf:about="">
        <dc:format>image/svg+xml</dc:format>
        <dc:type
           rdf:resource="http://purl.org/dc/dcmitype/StillImage" />
        <dc:title></dc:title>
      </cc:Work>
    </rdf:RDF>
  </metadata>
  <g
     id="layer1"
     inkscape:label="Layer 1"
     inkscape:groupmode="layer">
    <g
       transform="matrix(0.54801803,0,0,-0.54801803,4.7273609,42.573437)"
       id="g4713">
      <path
         id="path4715"
         style="fill:#ccd8e8;fill-opacity:1;fill-rule:evenodd;stroke:none"
         d="M 0,0 C 0,0 1.931,-0.357 3.388,-0.429 4.846,-0.5 7.26,0.044 8.476,0.429 c 1.214,0.385 2.101,1.244 3.317,1.53 1.215,0.286 2.243,0.742 3.031,-0.286 0.786,-1.029 1.386,-2.916 3.558,-3.774 2.172,-0.858 3.46,-0.17 6.133,-1.958 2.673,-1.787 3.63,-3.03 6.16,-3.316 2.53,-0.287 10.121,-0.572 12.007,-0.501 1.887,0.071 7.332,2.173 8.834,2.03 1.501,-0.144 3.718,-1.601 6.919,-2.03 3.201,-0.429 5.517,0.33 8.19,1.073 2.673,0.742 3.531,0.957 5.99,1.171 2.458,0.214 9.19,0.143 9.19,0.143 0,0 -3.888,1.386 -5.345,1.458 -1.458,0.072 -6.232,-0.6 -6.232,-0.6 l -1.502,0 -0.599,2.459 4.873,2.673 4.773,-1.359 c 0,0 2.531,1.045 3.389,1.431 0.858,0.385 3.702,0.957 4.775,0.742 1.072,-0.215 3.344,-0.143 4.488,0.071 1.144,0.215 2.574,0.358 6.133,-0.142 3.558,-0.501 5.631,1.001 7.089,0.571 1.457,-0.429 2.987,-1.242 2.987,-1.242 0,0 -11.391,-1.145 -14.636,-1.502 -3.245,-0.357 -3.889,-0.286 -5.704,-0.215 -1.815,0.072 -3.844,-0.401 -4.131,-0.5 -0.285,-0.099 1.315,0.116 6.161,-0.743 4.845,-0.858 6.688,-0.929 8.762,-0.858 2.073,0.072 3.316,-0.142 3.316,-0.142 0,0 -10.362,-2.36 -13.822,-3.031 -3.46,-0.671 -9.163,-1.673 -12.793,-1.601 -3.631,0.072 -13.637,-2.717 -7.976,-3.245 5.66,-0.529 9.719,-0.099 12.535,-0.313 2.816,-0.216 8.163,-0.501 8.163,-0.501 0,0 -8.807,-1.287 -25.015,-1.359 -16.21,-0.071 -32.634,1.573 -37.837,1.287 -5.204,-0.286 -17.095,0.286 -19.983,0.286 -2.887,0 -4.389,0.814 -4.389,0.814 0,0 4.059,-0.098 7.09,1.288 3.031,1.385 4.272,2.601 7.805,2.1 3.53,-0.5 4.988,-0.786 4.988,-0.786 0,0 0.242,0.858 1.816,0.858 1.573,0 6.49,0.072 6.49,0.072 0,0 -1.001,1.457 -3.388,1.457 -2.388,0 -3.702,0.314 -4.703,-0.143 -1.001,-0.456 -1.287,-0.528 -1.287,-0.528 0,0 -0.814,0.814 -2.987,0.957 -2.172,0.143 -2.574,0.286 -4.031,-0.071 C 9.62,-6.204 7.904,-7.518 6.731,-7.59 c -1.17,-0.072 -7.732,0.429 -8.975,0.715 -1.243,0.286 -3.531,2.029 -3.531,2.029 0,0 2.215,-0.071 4.317,-0.142 2.101,-0.072 3.317,0.472 4.918,0.715 1.6,0.242 3.701,0.528 3.701,0.528 0,0 -2.888,1.358 -4.846,1.43 -1.958,0.071 -5.06,1.886 -5.06,1.886 L 0,0 z"
         inkscape:connector-curvature="0" />
    </g>
    <g
       transform="matrix(0.54801803,0,0,-0.54801803,12.837366,38.004666)"
       id="g4717">
      <path
         id="path4719"
         style="fill:#000000;fill-opacity:1;fill-rule:nonzero;stroke:none"
         d="m 0,0 0.058,0.542 c 1.883,11.605 4.903,16.656 8.031,21.18 4.539,6.022 11.19,10.089 18.454,11.179 7.287,0.91 15.133,-0.976 20.471,-6.298 C 54.332,19.954 55.741,9.758 55.741,9.758 60.133,9.843 64.563,9.3 66.692,5.285 l 0.996,-2.256 c 0.097,-0.315 0.215,-0.686 0.34,-1.052 0.359,-2.372 0.735,-4.831 0.442,-7.354 2.218,0.251 4.723,-0.672 6.704,0.483 2.384,0.722 4.204,-1.043 6.423,-0.732 2.843,1.035 8.785,-0.666 8.785,-0.666 -2.903,0.609 -6.586,1.186 -9.316,-0.032 -2.227,0.346 -4.953,1.815 -7.239,0.461 -1.574,-0.601 -3.606,0.216 -5.381,-0.17 -2.878,-0.347 -4.274,-3.553 -7.207,-3.749 l -5.827,-0.155 c -0.15,-0.861 -0.424,-1.867 -0.156,-2.741 2.285,0.457 5.408,0.975 7.585,0.033 -1.508,-0.454 -3.008,0.224 -4.722,-0.134 -1.752,-0.595 -3.752,-0.585 -5.614,-0.878 -3.997,-2.458 -9.418,-2.09 -13.464,0.052 -2.142,0.224 -4.167,0.354 -5.996,-0.716 -3.57,-0.473 -7.247,0.253 -10.823,-0.429 -3.622,-0.261 -7.63,-0.45 -10.479,1.74 -2.093,1.625 -4.445,2.693 -7.052,3.262 -2.727,0.573 -4.152,3.369 -4.875,5.753 -0.967,0.512 -1.455,-0.635 -2.274,-0.995 -2.72,-0.084 -4.489,-2.859 -7.182,-3.034 -1.891,-0.292 -3.674,-0.08 -5.592,-0.252 2.365,1.051 5.469,0.167 7.696,1.522 1.616,0.959 3.123,2.22 5.041,2.422 0.653,0.724 1.449,1.293 2.396,1.051 L 0.015,-0.001 0,0 z"
         inkscape:connector-curvature="0" />
    </g>
    <g
       transform="matrix(0.54801803,0,0,-0.54801803,38.533221,46.024252)"
       id="g4721">
      <path
         id="path4723"
         style="fill:#778aa0;fill-opacity:1;fill-rule:evenodd;stroke:none"
         d="m 0,0 c 0.188,0.98 0.888,19.096 5.662,21.953 4.774,2.856 7.349,1.449 7.349,1.449 0,0 1.636,0.324 2.48,-1.125 0.844,-1.45 4.493,-5.286 4.493,-5.286 0,0 0.657,-1.543 0.469,-2.669 -0.187,-1.125 0.47,-2.668 0.47,-2.668 l 0,-1.918 -5.057,-1.782 c 0,0 -0.136,5.712 -0.887,7.724 -0.75,2.012 -2.25,2.242 -4.074,1.918 C 9.08,17.272 9.08,16.428 9.08,16.428 L 9.269,15.49 c 0,0 -1.732,-6.837 -1.544,-9.642 C 7.912,3.043 1.825,-0.094 0,0"
         inkscape:connector-curvature="0" />
    </g>
    <g
       transform="matrix(0.54801803,0,0,-0.54801803,45.280148,37.586418)"
       id="g4725">
      <path
         id="path4727"
         style="fill:#566779;fill-opacity:1;fill-rule:evenodd;stroke:none"
         d="m 0,0 2.199,-1.169 c 0,0 0.981,-4.816 0.887,-6.504 -0.093,-1.689 -6.129,-0.094 -6.129,-0.094 0,0 -0.751,1.731 -0.188,3.555 0.562,1.825 0.605,4.024 1.355,4.493 C -1.125,0.75 0,0 0,0"
         inkscape:connector-curvature="0" />
    </g>
    <g
       transform="matrix(0.54801803,0,0,-0.54801803,13.67814,35.713293)"
       id="g4729">
      <path
         id="path4731"
         style="fill:#778aa0;fill-opacity:1;fill-rule:evenodd;stroke:none"
         d="m 0,0 c 0,0 0.417,3.419 1.262,4.962 0.842,1.543 3.606,10.112 6.087,12.311 2.481,2.2 5.661,6.923 9.079,7.767 3.419,0.844 4.587,2.063 4.587,2.063 0,0 4.118,1.449 6.787,1.355 2.668,-0.094 5.847,-0.187 11.278,-2.293 5.432,-2.106 10.913,-9.642 11.612,-12.123 0.699,-2.481 0.325,-7.443 0.325,-7.443 L 50.223,5.618 c 0,0 -4.494,-0.144 -4.962,0.231 -0.468,0.375 -8.704,0.469 -8.704,0.469 L 34.17,2.669 33.514,-1.543 c 0,0 -1.262,-3.7 -1.731,-4.075 -0.47,-0.375 -4.868,-9.079 -4.868,-9.079 l -4.451,-3.232 c 0,0 -4.075,-1.031 -4.868,0.094 -0.792,1.126 -6.036,3.512 -6.036,3.512 l -7.817,0.844 c 0,0 -2.857,0.376 -2.764,2.106 C 1.074,-9.642 0,0 0,0"
         inkscape:connector-curvature="0" />
    </g>
    <g
       transform="matrix(0.54801803,0,0,-0.54801803,43.81754,32.942733)"
       id="g4733">
      <path
         id="path4735"
         style="fill:#778aa0;fill-opacity:1;fill-rule:evenodd;stroke:none"
         d="m 0,0 -9.829,-0.094 -10.58,0 -3.18,-6.411 c 0,0 -0.845,-2.762 -1.032,-3.419 -0.189,-0.656 -3.043,-6.411 -3.043,-6.411 0,0 2.25,-5.243 2.854,-6.275 0.607,-1.031 5.151,2.012 5.151,2.012 l 1.636,-1.355 c 0,0 1.544,-0.282 2.106,-0.657 0.563,-0.375 5.713,2.106 5.713,2.106 l 2.105,3.888 0.469,4.024 0.938,4.305 0.512,0.656 1.313,3.044 2.387,2.856 L 0,0 z"
         inkscape:connector-curvature="0" />
    </g>
    <g
       transform="matrix(0.54801803,0,0,-0.54801803,58.917467,36.734415)"
       id="g4737">
      <path
         id="path4739"
         style="fill:#000000;fill-opacity:1;fill-rule:nonzero;stroke:none"
         d="M 0,0 0.151,0.055 0.208,-0.007 0,0 z"
         inkscape:connector-curvature="0" />
    </g>
    <g
       transform="matrix(0.54801803,0,0,-0.54801803,46.436685,37.558579)"
       id="g4741">
      <path
         id="path4743"
         style="fill:#a6b8d4;fill-opacity:1;fill-rule:nonzero;stroke:none"
         d="m 0,0 c 0.189,-0.573 0.32,-1.085 0.243,-1.59 -1.704,-0.03 -3.415,-0.299 -5.109,-0.12 0.376,1.36 1,3.01 2.562,3.284 C -1.202,1.476 -0.563,0.946 0,0"
         inkscape:connector-curvature="0" />
    </g>
    <g
       transform="matrix(0.54801803,0,0,-0.54801803,54.643579,38.711609)"
       id="g4745">
      <path
         id="path4747"
         style="fill:#778aa0;fill-opacity:1;fill-rule:nonzero;stroke:none"
         d="m 0,0 c 0.073,-0.451 -0.15,-0.861 -0.456,-1.06 -0.299,-0.019 -0.576,-0.249 -0.867,-0.029 -0.53,0.227 -0.473,0.972 -0.161,1.349 0.278,0.259 0.819,0.39 1.138,0.11 C -0.198,0.334 -0.025,0.149 0,0"
         inkscape:connector-curvature="0" />
    </g>
    <g
       transform="matrix(0.54801803,0,0,-0.54801803,53.112422,38.969561)"
       id="g4749">
      <path
         id="path4751"
         style="fill:#778aa0;fill-opacity:1;fill-rule:nonzero;stroke:none"
         d="M 0,0 C 0.545,-0.646 0.226,-2.707 -1.704,-2.2 -2.971,-1.44 -2.859,0.19 -2.132,0.493 -1.412,0.587 -0.516,0.646 0,0"
         inkscape:connector-curvature="0" />
    </g>
    <g
       transform="matrix(0.54801803,0,0,-0.54801803,54.29197,38.928625)"
       id="g4753">
      <path
         id="path4755"
         style="fill:#ccd8e8;fill-opacity:1;fill-rule:nonzero;stroke:none"
         d="M 0,0 C -0.15,-0.025 -0.308,-0.258 -0.45,-0.074 L -0.349,0.28 C -0.168,0.334 0.185,0.172 0,0"
         inkscape:connector-curvature="0" />
    </g>
    <g
       transform="matrix(0.54801803,0,0,-0.54801803,46.643779,38.661849)"
       id="g4757">
      <path
         id="path4759"
         style="fill:#a6b8d4;fill-opacity:1;fill-rule:nonzero;stroke:none"
         d="m 0,0 c 0.279,-1.413 0.527,-2.825 0.565,-4.319 -1.137,-0.11 -2.427,-0.273 -3.679,-0.23 0.051,1.491 0.23,3.217 -0.469,4.525 C -2.445,0.086 -1.163,0.04 0,0"
         inkscape:connector-curvature="0" />
    </g>
    <g
       transform="matrix(0.54801803,0,0,-0.54801803,44.657761,39.312073)"
       id="g4761">
      <path
         id="path4763"
         style="fill:#a6b8d4;fill-opacity:1;fill-rule:nonzero;stroke:none"
         d="m 0,0 c 0.082,-1.078 0.34,-2.221 0.092,-3.348 -0.894,0.091 -1.469,-0.157 -2.296,0.081 l -0.136,0.423 0.644,3.859 c 0.364,0.166 0.783,0.211 1.229,0.166 L 0,0 z"
         inkscape:connector-curvature="0" />
    </g>
    <g
       transform="matrix(0.54801803,0,0,-0.54801803,52.971142,39.27541)"
       id="g4765">
      <path
         id="path4767"
         style="fill:#ccd8e8;fill-opacity:1;fill-rule:nonzero;stroke:none"
         d="m 0,0 c -0.052,-0.595 -0.193,-1.247 -0.825,-1.404 -0.415,0.104 -0.914,0.33 -1.047,0.813 -0.013,0.508 -0.286,1.204 0.547,1.115 C -0.852,0.418 -0.282,0.488 0,0"
         inkscape:connector-curvature="0" />
    </g>
    <g
       transform="matrix(0.54801803,0,0,-0.54801803,47.04356,42.68474)"
       id="g4769">
      <path
         id="path4771"
         style="fill:#a6b8d4;fill-opacity:1;fill-rule:nonzero;stroke:none"
         d="m 0,0 c -0.321,-0.615 -1.243,-0.523 -1.88,-0.799 -1.184,0.25 -2.402,-0.395 -3.29,0.681 -0.661,0.74 -1.049,1.589 -1.346,2.496 1.968,-0.069 4.284,0.388 6.334,0.136 L 0,0 z"
         inkscape:connector-curvature="0" />
    </g>
    <g
       transform="matrix(0.54801803,0,0,-0.54801803,12.832548,43.060735)"
       id="g4773">
      <path
         id="path4775"
         style="fill:#778aa0;fill-opacity:1;fill-rule:nonzero;stroke:none"
         d="m 0,0 c 0.341,-0.519 0.137,-1.229 -0.149,-1.727 -0.499,-0.609 -1.19,-0.734 -1.936,-0.708 -0.623,0.111 -1.353,0.585 -1.478,1.276 0.109,0.563 -0.192,1.35 0.417,1.687 0.613,0.456 1.31,0.73 2.105,0.434 C -0.536,0.885 -0.379,0.252 0,0"
         inkscape:connector-curvature="0" />
    </g>
    <g
       transform="matrix(0.54801803,0,0,-0.54801803,12.54785,43.246952)"
       id="g4777">
      <path
         id="path4779"
         style="fill:#ccd8e8;fill-opacity:1;fill-rule:nonzero;stroke:none"
         d="m 0,0 c 0.138,-0.363 0.005,-0.746 -0.187,-1.069 -0.436,-0.522 -1.15,-0.467 -1.714,-0.388 -0.532,0.169 -0.572,0.737 -0.616,1.187 0.2,0.59 0.777,0.868 1.32,1.029 C -0.594,0.946 -0.285,0.338 0,0"
         inkscape:connector-curvature="0" />
    </g>
    <g
       transform="matrix(0.54801803,0,0,-0.54801803,18.543387,45.861548)"
       id="g4781">
      <path
         id="path4783"
         style="fill:#778aa0;fill-opacity:1;fill-rule:nonzero;stroke:none"
         d="m 0,0 -0.004,-0.12 c -2.093,-0.106 -4.142,0.235 -6.048,-0.505 0.114,-0.959 -1.086,-0.29 -1.562,-0.244 -4.514,2.445 -11.65,-1.026 -11.65,-1.026 0.018,0.507 6.826,4.158 12.145,1.516 C -5.051,0.684 -2.25,0.526 0,0"
         inkscape:connector-curvature="0" />
    </g>
    <g
       transform="matrix(0.54801803,0,0,-0.54801803,32.88447,46.591504)"
       id="g4785">
      <path
         id="path4787"
         style="fill:#778aa0;fill-opacity:1;fill-rule:nonzero;stroke:none"
         d="m 0,0 c 0.251,-0.486 0.109,-1.138 -0.175,-1.576 -0.649,-0.635 -3.319,-0.633 -2.604,1.523 0.255,0.44 0.709,0.633 1.104,0.828 C -0.987,0.811 -0.338,0.579 0,0"
         inkscape:connector-curvature="0" />
    </g>
    <g
       transform="matrix(0.54801803,0,0,-0.54801803,32.642575,46.942897)"
       id="g4789">
      <path
         id="path4791"
         style="fill:#ccd8e8;fill-opacity:1;fill-rule:nonzero;stroke:none"
         d="m 0,0 c -0.193,-0.441 -0.416,-0.792 -0.953,-0.803 -0.901,-0.178 -0.905,0.569 -1.033,1.17 0.266,0.827 1.229,0.196 1.796,0.147 L 0,0 z"
         inkscape:connector-curvature="0" />
    </g>
    <g
       transform="matrix(0.54801803,0,0,-0.54801803,30.661328,20.285052)"
       id="g4793">
      <path
         id="path4795"
         style="fill:#ccd8e8;fill-opacity:1;fill-rule:evenodd;stroke:none"
         d="M 0,0 C -2.057,-0.734 -4.593,-0.705 -6.937,-0.265 -4.741,0.165 -2.343,0.47 0,0 M 7.604,-4.565 C 7.348,-5.034 6.662,-5.039 6.205,-5.292 3.973,-5.931 1.77,-6.6 -0.601,-6.936 c -0.289,1.981 -0.784,4.058 -1.221,6.074 0.695,0.214 1.385,0.34 2.051,0.585 1.307,0.671 2.31,-0.558 3.558,-0.721 C 4.817,-1.392 5.74,-2.32 6.49,-3.093 6.955,-3.468 7.444,-3.992 7.604,-4.565 M -7.6,-0.451 c -2.339,-1.173 -5.069,-3.257 -5.868,-5.588 -1.208,0.46 -2.607,0.569 -3.652,1.412 2.673,2.176 5.875,3.228 9.102,4.19 L -7.6,-0.451 z M 10.417,-3.499 C 9.714,-3.982 8.898,-4.252 8.084,-4.492 7.209,-3.029 5.793,-1.695 4.269,-0.866 6.555,-1.244 8.551,-2.239 10.417,-3.499 M -2.3,-0.845 c 0.438,-2.046 1.115,-4.01 1.34,-6.138 -4.175,-0.69 -8.345,-0.395 -12.272,0.847 1.194,2.555 3.74,4.497 6.342,5.51 1.309,-0.165 3,-0.462 4.59,-0.219 m 20.675,-10.754 c -3.169,-1.83 -6.639,-2.844 -10.162,-3.736 -0.451,3.33 -1.537,6.443 -3.62,9.173 2.138,0.583 4.195,1.317 6.172,2.352 2.89,-1.862 5.834,-4.802 7.61,-7.789 m -35.746,6.622 c -2.94,-2.077 -5.073,-5.048 -6.646,-8.157 -0.292,0.189 -0.966,0.511 -0.774,0.892 1.62,2.78 4.371,5.461 7.062,7.278 l 0.358,-0.013 z m 8.747,-2.605 c -1.177,-2.884 -2.003,-6.05 -2.206,-9.297 -4.346,0.42 -9.034,1.211 -12.776,3.521 1.54,3.052 3.441,6.18 6.522,8.072 2.647,-1.137 5.58,-1.806 8.46,-2.296 m 13.677,0.091 c 1.649,-2.387 2.299,-5.127 2.737,-7.978 -6.015,-1.223 -12.047,-2.118 -18.322,-1.421 0.31,1.214 0.415,2.493 0.638,3.77 0.365,1.868 0.846,3.702 1.622,5.377 2.875,0.228 5.254,-0.004 7.957,0.439 1.267,0.403 3.002,0.462 4.395,1.011 l 0.973,-1.198 z m 13.608,-4.477 c 1.887,-3.26 2.896,-6.849 3.571,-10.574 l -4.301,-0.089 c -0.729,3.101 -1.756,6.152 -3.637,8.726 1.538,0.454 2.878,1.183 4.367,1.937 m -4.821,-2.13 c 2.122,-2.493 2.883,-5.475 3.523,-8.513 -3.647,-0.142 -7.623,0.594 -10.342,-2.057 -1.779,-1.342 -3.25,-3.261 -4.239,-5.078 l -0.641,-1.291 c -0.362,-0.076 -0.844,-0.239 -1.349,-0.162 -0.258,4.607 -0.417,9.45 -1.76,13.766 0.136,0.443 0.726,0.244 1.089,0.38 4.712,0.671 9.421,1.313 13.719,2.955 m -32.578,-1.789 c -1.678,-4.449 -3.468,-8.686 -3.494,-13.701 l 0.144,-0.155 c -2.9,0.728 -6.004,1.643 -8.568,3.434 0.704,4.783 2.92,9.244 5.423,13.366 2.045,-1.295 4.091,-2.502 6.495,-2.944 m 17.421,-1.325 c 0.047,-1.195 0.603,-2.379 0.739,-3.608 0.475,-3.48 0.916,-7.138 0.801,-10.419 -8.087,-0.732 -14.269,-0.785 -21.902,1.273 0.116,2.414 0.359,5.093 0.982,7.549 0.733,2.184 1.673,4.301 2.522,6.421 5.556,-1.657 11.074,-1.79 16.858,-1.216 m 26.449,-6.089 c -3.14,-0.995 -5.543,-3.986 -6.954,-6.773 -2.749,-0.083 -5.428,0.16 -7.956,0.427 1.297,2.97 4.618,6.587 8.312,6.368 2.236,-0.108 4.397,0.205 6.598,-0.022 m 3.064,-0.315 c -0.159,-1.995 -0.433,-3.866 -0.832,-5.853 -0.616,0.29 -1.366,0.167 -1.942,-0.082 -1.101,-0.738 -1.618,-1.884 -2.106,-3.001 -1.557,0.711 -3.117,1.392 -4.673,2.103 0.342,1.272 1.309,2.433 2.066,3.571 1.496,1.829 3.445,2.925 5.497,3.54 l 1.99,-0.278 z m -12.291,0.279 c -2.602,-0.984 -4.751,-3.506 -5.937,-5.883 l -0.371,-0.345 c -1.909,0.096 -3.63,0.365 -5.594,0.553 1.879,3.368 5.56,6.166 9.605,5.756 l 2.297,-0.081 z m 18.153,-5.142 c 0.301,-0.757 0.543,-1.541 0.695,-2.323 -1.644,-0.898 -3.346,-1.735 -5.154,-2.268 -0.411,1.088 -0.295,2.697 -1.734,3.374 0.154,1.846 0.496,3.984 0.833,5.913 2.374,-0.412 4.42,-2.513 5.36,-4.696 m -61.422,-0.154 c -0.984,-4.206 -1.423,-8.28 -1.009,-12.655 -2.431,0.533 -3.232,3.189 -3.759,5.237 0.342,2.945 0.522,6.372 1.4,9.267 0.988,-0.751 2.221,-1.332 3.368,-1.849 M 6.011,-29.649 C 4.64,-32.139 3.504,-34.757 3.69,-37.958 l -2.855,0.308 c 0.433,3.001 1.337,5.776 2.944,8.228 0.807,0.001 1.489,-0.142 2.232,-0.227 m 8.691,-0.751 c -1.056,-1.218 -1.026,-2.921 -1.585,-4.364 -0.103,-1.25 -0.532,-2.429 -0.339,-3.72 -2.623,0.121 -5.821,0.023 -8.64,0.51 -0.111,2.841 0.663,5.292 1.758,7.612 0.369,0.286 0.59,0.666 0.952,0.743 2.683,-0.093 5.287,-0.811 7.854,-0.781 m -30.556,-1.203 c 1.635,-0.206 3.328,-0.504 5,-0.473 -0.084,-4.983 -0.275,-9.604 0.068,-14.334 -3.147,-0.308 -7.063,-0.44 -9.677,1.622 -2.242,1.631 -4.744,2.673 -7.408,3.333 -0.275,4.131 -0.29,8.789 1.155,12.59 3.604,-1.14 6.904,-2.361 10.862,-2.738 m 33.718,1.092 C 17.178,-33.085 16.57,-35.9 16.086,-38.69 l -2.863,0.1 c -0.046,2.958 0.59,5.772 1.927,8.174 1.138,0.079 1.674,0.061 2.714,-0.095 m 17.021,-0.803 c 0.24,-1.681 0.599,-3.336 0.475,-5.182 -1.266,-0.374 -2.802,-0.738 -4.189,-1.138 l -0.874,-0.238 -0.569,4.23 c 0.553,0.488 1.365,0.609 2.035,1.004 0.977,0.622 2.062,0.913 3.122,1.324 m -11.676,-1.743 c -0.16,-2.024 -0.766,-3.974 -0.835,-5.972 l -5.727,0.2 0.154,0.114 -0.144,0.155 c 0.449,2.612 0.811,5.257 1.701,7.674 1.683,-0.567 3.391,-1.254 4.851,-2.171 m -21.358,1.403 c -1.821,-4.235 -2.242,-9.446 -1.932,-14.264 -3.452,-0.536 -6.984,0.065 -10.256,-0.448 -0.458,4.853 0.063,9.493 -0.101,14.216 3.624,0.321 7.82,-0.064 11.216,0.593 l 1.073,-0.097 z m 33.398,-5.466 c 0.316,-1.204 -1.225,-0.853 -1.752,-1.461 -1.1,-0.678 -2.062,-1.749 -3.154,-2.249 l -0.063,2.511 c 1.367,0.669 2.986,0.851 4.345,1.281 l 0.624,-0.082 z M 7.904,-38.672 c -0.844,-2.001 -1.013,-4.265 -1.242,-6.556 -2.14,0.314 -4.503,0.188 -6.386,-0.702 -0.443,2.673 0.189,5.367 0.636,7.92 2.467,-0.325 4.698,-0.553 6.992,-0.662 m 8.075,-0.491 c -0.083,-2.386 -0.508,-5.178 -0.265,-7.605 -2.862,-0.736 -5.997,0.12 -8.612,1.316 0.197,2.232 0.397,4.555 1.217,6.675 1.292,0.224 2.59,-0.209 3.938,-0.137 1.251,-0.074 2.598,0.058 3.722,-0.249 m 6.29,-0.31 c -0.003,-1.791 -0.218,-3.665 -0.312,-5.513 -2.059,0.072 -3.774,-1.211 -5.729,-1.591 -0.181,2.514 0.059,5.104 0.408,7.39 l 5.633,-0.286 z"
         inkscape:connector-curvature="0" />
    </g>
    <g
       transform="matrix(0.54801803,0,0,-0.54801803,30.661328,20.285052)"
       id="g4797">
      <path
         id="path4799"
         style="fill:#ccd8e8;fill-opacity:1;fill-rule:evenodd;stroke:none"
         d="M 0,0 C -2.057,-0.734 -4.593,-0.705 -6.937,-0.265 -4.741,0.165 -2.343,0.47 0,0"
         inkscape:connector-curvature="0" />
    </g>
    <g
       transform="matrix(0.54801803,0,0,-0.54801803,39.41838,41.747136)"
       id="g4801">
      <path
         id="path4803"
         style="fill:#ccd8e8;fill-opacity:1;fill-rule:evenodd;stroke:none"
         d="m 0,0 c -0.084,-2.386 -0.509,-5.178 -0.266,-7.605 -2.862,-0.736 -5.997,0.12 -8.612,1.316 0.197,2.232 0.398,4.555 1.218,6.675 C -6.368,0.61 -5.07,0.177 -3.723,0.249 -2.472,0.175 -1.124,0.307 0,0"
         inkscape:connector-curvature="0" />
    </g>
    <g
       transform="matrix(0.54801803,0,0,-0.54801803,34.993024,41.477949)"
       id="g4805">
      <path
         id="path4807"
         style="fill:#ccd8e8;fill-opacity:1;fill-rule:evenodd;stroke:none"
         d="m 0,0 c -0.845,-2.001 -1.014,-4.265 -1.242,-6.556 -2.14,0.314 -4.503,0.188 -6.386,-0.702 -0.443,2.673 0.189,5.367 0.636,7.92 C -4.525,0.337 -2.294,0.109 0,0"
         inkscape:connector-curvature="0" />
    </g>
    <g
       transform="matrix(0.54801803,0,0,-0.54801803,31.675485,37.631904)"
       id="g4809">
      <path
         id="path4811"
         style="fill:#ccd8e8;fill-opacity:1;fill-rule:evenodd;stroke:none"
         d="m 0,0 c -1.82,-4.235 -2.241,-9.446 -1.932,-14.264 -3.452,-0.536 -6.984,0.065 -10.256,-0.448 -0.458,4.853 0.063,9.493 -0.101,14.216 3.624,0.321 7.82,-0.064 11.217,0.593 L 0,0 z"
         inkscape:connector-curvature="0" />
    </g>
    <g
       transform="matrix(0.54801803,0,0,-0.54801803,40.451284,37.00552)"
       id="g4813">
      <path
         id="path4815"
         style="fill:#ccd8e8;fill-opacity:1;fill-rule:evenodd;stroke:none"
         d="m 0,0 c -0.687,-2.574 -1.294,-5.389 -1.778,-8.179 l -2.864,0.1 c -0.046,2.958 0.59,5.772 1.928,8.174 C -1.576,0.174 -1.04,0.156 0,0"
         inkscape:connector-curvature="0" />
    </g>
    <g
       transform="matrix(0.54801803,0,0,-0.54801803,21.973322,37.604065)"
       id="g4817">
      <path
         id="path4819"
         style="fill:#ccd8e8;fill-opacity:1;fill-rule:evenodd;stroke:none"
         d="m 0,0 c 1.635,-0.206 3.327,-0.504 5,-0.473 -0.084,-4.983 -0.275,-9.604 0.067,-14.334 -3.146,-0.308 -7.062,-0.44 -9.676,1.622 -2.243,1.631 -4.745,2.673 -7.409,3.333 -0.274,4.131 -0.29,8.789 1.156,12.59 C -7.259,1.598 -3.958,0.377 0,0"
         inkscape:connector-curvature="0" />
    </g>
    <g
       transform="matrix(0.54801803,0,0,-0.54801803,38.718394,36.944744)"
       id="g4821">
      <path
         id="path4823"
         style="fill:#ccd8e8;fill-opacity:1;fill-rule:evenodd;stroke:none"
         d="m 0,0 c -1.057,-1.218 -1.026,-2.921 -1.585,-4.364 -0.103,-1.25 -0.532,-2.429 -0.339,-3.72 -2.623,0.121 -5.821,0.023 -8.64,0.51 -0.111,2.841 0.663,5.292 1.758,7.612 0.368,0.286 0.59,0.666 0.952,0.743 C -5.171,0.688 -2.567,-0.03 0,0"
         inkscape:connector-curvature="0" />
    </g>
    <g
       transform="matrix(0.54801803,0,0,-0.54801803,33.955354,36.533183)"
       id="g4825">
      <path
         id="path4827"
         style="fill:#ccd8e8;fill-opacity:1;fill-rule:evenodd;stroke:none"
         d="m 0,0 c -1.371,-2.49 -2.507,-5.108 -2.32,-8.309 l -2.856,0.308 C -4.743,-5 -3.839,-2.225 -2.231,0.227 -1.425,0.228 -0.743,0.085 0,0"
         inkscape:connector-curvature="0" />
    </g>
    <g
       transform="matrix(0.54801803,0,0,-0.54801803,15.665253,35.976342)"
       id="g4829">
      <path
         id="path4831"
         style="fill:#ccd8e8;fill-opacity:1;fill-rule:evenodd;stroke:none"
         d="m 0,0 c -0.983,-4.206 -1.423,-8.28 -1.009,-12.655 -2.43,0.533 -3.232,3.189 -3.759,5.237 0.342,2.945 0.522,6.372 1.4,9.267 C -2.38,1.098 -1.146,0.517 0,0"
         inkscape:connector-curvature="0" />
    </g>
    <g
       transform="matrix(0.54801803,0,0,-0.54801803,39.377716,33.074093)"
       id="g4833">
      <path
         id="path4835"
         style="fill:#ccd8e8;fill-opacity:1;fill-rule:evenodd;stroke:none"
         d="m 0,0 c -2.603,-0.984 -4.751,-3.506 -5.938,-5.883 l -0.371,-0.345 c -1.908,0.096 -3.629,0.365 -5.593,0.553 1.879,3.368 5.559,6.166 9.605,5.756 L 0,0 z"
         inkscape:connector-curvature="0" />
    </g>
    <g
       transform="matrix(0.54801803,0,0,-0.54801803,44.43406,33.054309)"
       id="g4837">
      <path
         id="path4839"
         style="fill:#ccd8e8;fill-opacity:1;fill-rule:evenodd;stroke:none"
         d="m 0,0 c -3.14,-0.995 -5.543,-3.986 -6.954,-6.773 -2.749,-0.083 -5.428,0.16 -7.956,0.427 1.297,2.97 4.618,6.587 8.312,6.368 C -4.362,-0.086 -2.201,0.227 0,0"
         inkscape:connector-curvature="0" />
    </g>
    <g
       transform="matrix(0.54801803,0,0,-0.54801803,29.939421,29.717483)"
       id="g4841">
      <path
         id="path4843"
         style="fill:#ccd8e8;fill-opacity:1;fill-rule:evenodd;stroke:none"
         d="m 0,0 c 0.048,-1.195 0.604,-2.379 0.739,-3.608 0.476,-3.48 0.916,-7.138 0.801,-10.419 -8.087,-0.732 -14.269,-0.785 -21.901,1.273 0.115,2.414 0.358,5.093 0.981,7.549 0.734,2.184 1.673,4.301 2.523,6.421 C -11.302,-0.441 -5.783,-0.574 0,0"
         inkscape:connector-curvature="0" />
    </g>
    <g
       transform="matrix(0.54801803,0,0,-0.54801803,20.392452,28.991249)"
       id="g4845">
      <path
         id="path4847"
         style="fill:#ccd8e8;fill-opacity:1;fill-rule:evenodd;stroke:none"
         d="m 0,0 c -1.678,-4.449 -3.468,-8.686 -3.494,-13.701 l 0.144,-0.155 c -2.9,0.728 -6.004,1.643 -8.568,3.434 0.704,4.783 2.92,9.244 5.423,13.366 C -4.45,1.649 -2.403,0.442 0,0"
         inkscape:connector-curvature="0" />
    </g>
    <g
       transform="matrix(0.54801803,0,0,-0.54801803,38.24584,28.011119)"
       id="g4849">
      <path
         id="path4851"
         style="fill:#ccd8e8;fill-opacity:1;fill-rule:evenodd;stroke:none"
         d="m 0,0 c 2.122,-2.493 2.883,-5.475 3.523,-8.513 -3.647,-0.142 -7.623,0.594 -10.342,-2.057 -1.779,-1.342 -3.249,-3.261 -4.239,-5.078 l -0.641,-1.291 c -0.362,-0.076 -0.844,-0.239 -1.349,-0.162 -0.258,4.607 -0.417,9.45 -1.76,13.766 0.136,0.443 0.726,0.244 1.089,0.38 C -9.007,-2.284 -4.298,-1.642 0,0"
         inkscape:connector-curvature="0" />
    </g>
    <g
       transform="matrix(0.54801803,0,0,-0.54801803,40.888002,26.843621)"
       id="g4853">
      <path
         id="path4855"
         style="fill:#ccd8e8;fill-opacity:1;fill-rule:evenodd;stroke:none"
         d="m 0,0 c 1.887,-3.26 2.896,-6.849 3.571,-10.574 l -4.301,-0.089 c -0.729,3.101 -1.756,6.152 -3.637,8.726 C -2.829,-1.483 -1.489,-0.754 0,0"
         inkscape:connector-curvature="0" />
    </g>
    <g
       transform="matrix(0.54801803,0,0,-0.54801803,33.430353,24.390364)"
       id="g4857">
      <path
         id="path4859"
         style="fill:#ccd8e8;fill-opacity:1;fill-rule:evenodd;stroke:none"
         d="m 0,0 c 1.649,-2.387 2.299,-5.127 2.737,-7.978 -6.014,-1.223 -12.047,-2.118 -18.322,-1.421 0.311,1.214 0.415,2.493 0.639,3.77 0.364,1.868 0.845,3.702 1.621,5.377 2.875,0.228 5.255,-0.004 7.957,0.44 1.267,0.402 3.002,0.461 4.395,1.01 L 0,0 z"
         inkscape:connector-curvature="0" />
    </g>
    <g
       transform="matrix(0.54801803,0,0,-0.54801803,25.935216,24.440124)"
       id="g4861">
      <path
         id="path4863"
         style="fill:#ccd8e8;fill-opacity:1;fill-rule:evenodd;stroke:none"
         d="m 0,0 c -1.177,-2.884 -2.003,-6.05 -2.206,-9.297 -4.346,0.42 -9.034,1.211 -12.776,3.521 1.54,3.052 3.441,6.18 6.522,8.072 C -5.813,1.159 -2.88,0.49 0,0"
         inkscape:connector-curvature="0" />
    </g>
    <g
       transform="matrix(0.54801803,0,0,-0.54801803,21.141707,23.012591)"
       id="g4865">
      <path
         id="path4867"
         style="fill:#ccd8e8;fill-opacity:1;fill-rule:evenodd;stroke:none"
         d="m 0,0 c -2.939,-2.077 -5.073,-5.048 -6.646,-8.157 -0.292,0.189 -0.966,0.511 -0.774,0.892 1.62,2.78 4.371,5.461 7.062,7.278 L 0,0 z"
         inkscape:connector-curvature="0" />
    </g>
    <g
       transform="matrix(0.54801803,0,0,-0.54801803,40.731159,26.641567)"
       id="g4869">
      <path
         id="path4871"
         style="fill:#ccd8e8;fill-opacity:1;fill-rule:evenodd;stroke:none"
         d="m 0,0 c -3.169,-1.83 -6.639,-2.844 -10.162,-3.736 -0.451,3.33 -1.537,6.443 -3.62,9.173 2.138,0.583 4.195,1.317 6.172,2.352 C -4.72,5.927 -1.776,2.987 0,0"
         inkscape:connector-curvature="0" />
    </g>
    <g
       transform="matrix(0.54801803,0,0,-0.54801803,29.400991,20.747962)"
       id="g4873">
      <path
         id="path4875"
         style="fill:#ccd8e8;fill-opacity:1;fill-rule:evenodd;stroke:none"
         d="m 0,0 c 0.438,-2.046 1.115,-4.01 1.34,-6.138 -4.175,-0.69 -8.345,-0.395 -12.273,0.847 1.195,2.555 3.741,4.497 6.343,5.51 C -3.281,0.054 -1.59,-0.243 0,0"
         inkscape:connector-curvature="0" />
    </g>
    <g
       transform="matrix(0.54801803,0,0,-0.54801803,36.370032,22.202566)"
       id="g4877">
      <path
         id="path4879"
         style="fill:#ccd8e8;fill-opacity:1;fill-rule:evenodd;stroke:none"
         d="M 0,0 C -0.703,-0.483 -1.519,-0.753 -2.333,-0.993 -3.208,0.47 -4.624,1.804 -6.148,2.633 -3.862,2.255 -1.866,1.26 0,0"
         inkscape:connector-curvature="0" />
    </g>
    <g
       transform="matrix(0.54801803,0,0,-0.54801803,26.49661,20.532317)"
       id="g4881">
      <path
         id="path4883"
         style="fill:#ccd8e8;fill-opacity:1;fill-rule:evenodd;stroke:none"
         d="m 0,0 c -2.34,-1.173 -5.069,-3.257 -5.868,-5.588 -1.208,0.46 -2.608,0.569 -3.653,1.412 2.673,2.176 5.875,3.228 9.103,4.19 L 0,0 z"
         inkscape:connector-curvature="0" />
    </g>
    <g
       transform="matrix(0.54801803,0,0,-0.54801803,34.828237,22.786753)"
       id="g4885">
      <path
         id="path4887"
         style="fill:#ccd8e8;fill-opacity:1;fill-rule:evenodd;stroke:none"
         d="m 0,0 c -0.256,-0.469 -0.941,-0.474 -1.398,-0.727 -2.233,-0.639 -4.436,-1.308 -6.806,-1.644 -0.289,1.981 -0.784,4.058 -1.222,6.074 0.696,0.214 1.386,0.34 2.051,0.585 1.308,0.671 2.311,-0.558 3.559,-0.721 1.03,-0.394 1.953,-1.322 2.703,-2.095 C -0.648,1.097 -0.159,0.573 0,0"
         inkscape:connector-curvature="0" />
    </g>
    <g
       transform="matrix(0.54801803,0,0,-0.54801803,30.661328,20.285052)"
       id="g4889">
      <path
         id="path4891"
         style="fill:#ffffff;fill-opacity:1;fill-rule:nonzero;stroke:none"
         d="M 0,0 C -2.057,-0.734 -4.593,-0.705 -6.937,-0.265 -4.741,0.165 -2.343,0.47 0,0"
         inkscape:connector-curvature="0" />
    </g>
    <g
       transform="matrix(0.54801803,0,0,-0.54801803,13.52886,41.474716)"
       id="g4893">
      <path
         id="path4895"
         style="fill:#ffffff;fill-opacity:1;fill-rule:nonzero;stroke:none"
         d="M 0,0 C -0.396,0.85 -0.655,1.783 -0.869,2.615 -0.527,5.56 -0.348,8.987 0.53,11.882 0.832,11.653 1.157,11.44 1.495,11.238 0.361,6.461 0.068,2.297 0,0"
         inkscape:connector-curvature="0" />
    </g>
    <g
       transform="matrix(0.54801803,0,0,-0.54801803,14.41133,35.055342)"
       id="g4897">
      <path
         id="path4899"
         style="fill:#ffffff;fill-opacity:1;fill-rule:nonzero;stroke:none"
         d="M 0,0 C -0.342,0.201 -0.678,0.415 -1.004,0.643 -0.3,5.426 1.916,9.887 4.419,14.009 4.816,13.758 5.212,13.51 5.612,13.27 2.783,8.977 1.054,4.264 0,0"
         inkscape:connector-curvature="0" />
    </g>
    <g
       transform="matrix(0.54801803,0,0,-0.54801803,38.24584,28.011119)"
       id="g4901">
      <path
         id="path4903"
         style="fill:#ffffff;fill-opacity:1;fill-rule:nonzero;stroke:none"
         d="m 0,0 c 2.122,-2.493 2.883,-5.475 3.523,-8.513 -3.647,-0.142 -7.623,0.594 -10.342,-2.057 -0.618,-0.466 -1.197,-1 -1.732,-1.576 -0.469,2.597 -1.176,6.084 -2.132,9.631 C -7,-1.961 -3.373,-1.288 0,0"
         inkscape:connector-curvature="0" />
    </g>
    <g
       transform="matrix(0.54801803,0,0,-0.54801803,42.37417,32.648392)"
       id="g4905">
      <path
         id="path4907"
         style="fill:#ffffff;fill-opacity:1;fill-rule:nonzero;stroke:none"
         d="M 0,0 -3.442,-0.071 C -4.171,3.03 -5.198,6.081 -7.079,8.655 -6.06,8.956 -5.126,9.378 -4.18,9.848 -2.229,6.119 -0.708,2.028 0,0"
         inkscape:connector-curvature="0" />
    </g>
    <g
       transform="matrix(0.54801803,0,0,-0.54801803,33.430353,24.390364)"
       id="g4909">
      <path
         id="path4911"
         style="fill:#ffffff;fill-opacity:1;fill-rule:nonzero;stroke:none"
         d="m 0,0 c 1.649,-2.387 2.299,-5.127 2.737,-7.978 -1.566,-0.319 -3.134,-0.615 -4.707,-0.867 -0.874,3.198 -1.949,6.428 -3.233,9.082 1.251,0.359 2.896,0.436 4.23,0.961 L 0,0 z"
         inkscape:connector-curvature="0" />
    </g>
    <g
       transform="matrix(0.54801803,0,0,-0.54801803,18.058558,26.964294)"
       id="g4913">
      <path
         id="path4915"
         style="fill:#ffffff;fill-opacity:1;fill-rule:nonzero;stroke:none"
         d="M 0,0 C 1.436,2.66 3.225,5.252 5.913,6.902 6.159,6.797 6.406,6.696 6.656,6.598 3.992,4.69 1.801,2.433 0,0"
         inkscape:connector-curvature="0" />
    </g>
    <g
       transform="matrix(0.54801803,0,0,-0.54801803,21.141707,23.012591)"
       id="g4917">
      <path
         id="path4919"
         style="fill:#ffffff;fill-opacity:1;fill-rule:nonzero;stroke:none"
         d="m 0,0 c -2.939,-2.077 -5.073,-5.048 -6.646,-8.157 -0.292,0.189 -0.966,0.511 -0.774,0.892 1.62,2.78 4.371,5.461 7.062,7.278 L 0,0 z"
         inkscape:connector-curvature="0" />
    </g>
    <g
       transform="matrix(0.54801803,0,0,-0.54801803,39.975495,27.045894)"
       id="g4921">
      <path
         id="path4923"
         style="fill:#ffffff;fill-opacity:1;fill-rule:nonzero;stroke:none"
         d="m 0,0 c -2.785,-1.38 -5.765,-2.234 -8.783,-2.998 -0.451,3.33 -1.537,6.443 -3.62,9.173 1.902,0.518 3.739,1.156 5.511,2.019 C -5.817,7.379 -4.861,6.547 -4.037,5.762 -2.594,4.388 -1.219,2.278 0,0"
         inkscape:connector-curvature="0" />
    </g>
    <g
       transform="matrix(0.54801803,0,0,-0.54801803,29.400991,20.747962)"
       id="g4925">
      <path
         id="path4927"
         style="fill:#ffffff;fill-opacity:1;fill-rule:nonzero;stroke:none"
         d="m 0,0 c 0.315,-1.477 0.757,-2.911 1.062,-4.394 -1.795,2.952 -3.939,4.683 -6.444,3.907 -0.583,-0.18 -1.15,-0.373 -1.706,-0.58 0.796,0.522 1.645,0.954 2.498,1.286 C -3.281,0.054 -1.59,-0.243 0,0"
         inkscape:connector-curvature="0" />
    </g>
    <g
       transform="matrix(0.54801803,0,0,-0.54801803,36.007735,22.412347)"
       id="g4929">
      <path
         id="path4931"
         style="fill:#ffffff;fill-opacity:1;fill-rule:nonzero;stroke:none"
         d="M 0,0 C -0.532,-0.26 -1.103,-0.442 -1.672,-0.61 -2.547,0.853 -3.963,2.187 -5.487,3.016 -5.274,2.981 -5.065,2.941 -4.857,2.895 -3.059,2.066 -1.431,1.053 0,0"
         inkscape:connector-curvature="0" />
    </g>
    <g
       transform="matrix(0.54801803,0,0,-0.54801803,26.49661,20.532317)"
       id="g4933">
      <path
         id="path4935"
         style="fill:#ffffff;fill-opacity:1;fill-rule:nonzero;stroke:none"
         d="m 0,0 c -1.003,-0.502 -2.077,-1.173 -3.041,-1.957 -1.932,-0.816 -3.685,-1.788 -5.272,-2.882 -0.431,0.162 -0.841,0.367 -1.208,0.663 2.673,2.176 5.875,3.228 9.103,4.19 L 0,0 z"
         inkscape:connector-curvature="0" />
    </g>
    <g
       transform="matrix(0.54801803,0,0,-0.54801803,34.828237,22.786753)"
       id="g4937">
      <path
         id="path4939"
         style="fill:#ffffff;fill-opacity:1;fill-rule:nonzero;stroke:none"
         d="m 0,0 c -0.256,-0.469 -0.941,-0.474 -1.398,-0.727 -2.147,-0.614 -4.266,-1.257 -6.533,-1.603 -0.132,0.262 -0.265,0.519 -0.402,0.769 -0.293,1.733 -0.714,3.521 -1.093,5.264 0.696,0.214 1.386,0.34 2.051,0.585 1.308,0.671 2.311,-0.558 3.559,-0.721 1.03,-0.394 1.953,-1.322 2.703,-2.095 C -0.648,1.097 -0.159,0.573 0,0"
         inkscape:connector-curvature="0" />
    </g>
    <g
       transform="matrix(0.54801803,0,0,-0.54801803,30.661328,20.285052)"
       id="g4941">
      <path
         id="path4943"
         style="fill:#ffffff;fill-opacity:1;fill-rule:evenodd;stroke:none"
         d="m 0,0 c -0.234,-0.084 -0.476,-0.157 -0.722,-0.222 -1.857,0.3 -3.741,0.139 -5.522,-0.16 -0.233,0.034 -0.463,0.073 -0.693,0.117 C -4.741,0.165 -2.343,0.47 0,0"
         inkscape:connector-curvature="0" />
    </g>
    <g
       transform="matrix(0.54801803,0,0,-0.54801803,39.41838,41.747136)"
       id="g4945">
      <path
         id="path4947"
         style="fill:#ffffff;fill-opacity:1;fill-rule:evenodd;stroke:none"
         d="m 0,0 c -0.084,-2.386 -0.509,-5.178 -0.266,-7.605 -0.105,-0.027 -0.212,-0.052 -0.318,-0.075 -0.198,2.374 0.204,5.068 0.285,7.381 -1.124,0.308 -2.472,0.176 -3.722,0.249 -1.278,-0.068 -2.513,0.319 -3.739,0.167 l 0.1,0.269 C -6.368,0.61 -5.07,0.177 -3.723,0.249 -2.472,0.175 -1.124,0.307 0,0"
         inkscape:connector-curvature="0" />
    </g>
    <g
       transform="matrix(0.54801803,0,0,-0.54801803,34.993024,41.477949)"
       id="g4949">
      <path
         id="path4951"
         style="fill:#ffffff;fill-opacity:1;fill-rule:evenodd;stroke:none"
         d="m 0,0 c -0.845,-2.001 -1.014,-4.265 -1.242,-6.556 l -0.266,0.037 c 0.214,2.176 0.405,4.317 1.21,6.22 -2.22,0.107 -4.381,0.323 -6.753,0.631 l 0.059,0.33 C -4.525,0.337 -2.294,0.109 0,0"
         inkscape:connector-curvature="0" />
    </g>
    <g
       transform="matrix(0.54801803,0,0,-0.54801803,31.675485,37.631904)"
       id="g4953">
      <path
         id="path4955"
         style="fill:#ffffff;fill-opacity:1;fill-rule:evenodd;stroke:none"
         d="m 0,0 c -1.564,-3.641 -2.095,-8.002 -2.017,-12.215 -0.018,-0.617 10e-4,-1.235 0.073,-1.853 l 0.012,-0.196 -0.313,-0.045 c -0.278,4.746 0.158,9.849 1.947,14.01 L -1.37,-0.201 C -4.671,-0.84 -8.728,-0.494 -12.28,-0.769 l -0.009,0.273 c 3.624,0.321 7.82,-0.064 11.217,0.593 L 0,0 z"
         inkscape:connector-curvature="0" />
    </g>
    <g
       transform="matrix(0.54801803,0,0,-0.54801803,40.451284,37.00552)"
       id="g4957">
      <path
         id="path4959"
         style="fill:#ffffff;fill-opacity:1;fill-rule:evenodd;stroke:none"
         d="m 0,0 c -0.687,-2.574 -1.294,-5.389 -1.778,-8.179 l -0.244,0.009 c 0.474,2.689 1.061,5.392 1.723,7.871 -0.995,0.15 -1.529,0.173 -2.572,0.105 l 0.157,0.289 c 0.25,0.017 0.473,0.03 0.677,0.038 C -1.711,0.125 -1.383,0.122 -1.053,0.122 -0.734,0.1 -0.405,0.061 0,0"
         inkscape:connector-curvature="0" />
    </g>
    <g
       transform="matrix(0.54801803,0,0,-0.54801803,21.973322,37.604065)"
       id="g4961">
      <path
         id="path4963"
         style="fill:#ffffff;fill-opacity:1;fill-rule:evenodd;stroke:none"
         d="M 0,0 C 1.635,-0.206 3.327,-0.504 5,-0.473 4.916,-5.456 4.725,-10.077 5.067,-14.807 l -0.318,-0.03 c -0.315,4.636 -0.131,9.176 -0.048,14.066 -1.673,-0.032 -3.364,0.266 -4.999,0.473 -3.896,0.371 -7.156,1.559 -10.693,2.684 0.042,0.118 0.085,0.236 0.129,0.352 C -7.259,1.598 -3.958,0.377 0,0"
         inkscape:connector-curvature="0" />
    </g>
    <g
       transform="matrix(0.54801803,0,0,-0.54801803,36.10298,36.68597)"
       id="g4965">
      <path
         id="path4967"
         style="fill:#ffffff;fill-opacity:1;fill-rule:evenodd;stroke:none"
         d="M 0,0 0.46,-0.066 0,0 z"
         inkscape:connector-curvature="0" />
    </g>
    <g
       transform="matrix(0.54801803,0,0,-0.54801803,37.473025,34.386103)"
       id="g4969">
      <path
         id="path4971"
         style="fill:#ffffff;fill-opacity:1;fill-rule:evenodd;stroke:none"
         d="m 0,0 c -1.022,-1.057 -1.864,-2.291 -2.462,-3.489 l -0.28,-0.261 -0.369,-0.364 0.611,-0.083 0.46,-0.066 c 1.454,-0.21 2.889,-0.423 4.312,-0.406 -1.056,-1.218 -1.026,-2.921 -1.584,-4.364 -0.104,-1.25 -0.533,-2.429 -0.339,-3.72 l -0.334,0.014 c -0.091,1.17 0.279,2.259 0.374,3.408 0.558,1.443 0.528,3.146 1.586,4.363 -2.569,-0.03 -5.171,0.688 -7.855,0.782 -0.263,-0.056 -0.453,-0.273 -0.678,-0.497 l 0.025,0.052 c 0.335,0.26 0.549,0.598 0.856,0.715 0.837,-0.092 1.672,-0.173 2.546,-0.217 l 0.37,0.345 C -2.087,-2.449 -1.146,-1.107 0,0"
         inkscape:connector-curvature="0" />
    </g>
    <g
       transform="matrix(0.54801803,0,0,-0.54801803,33.955354,36.533183)"
       id="g4973">
      <path
         id="path4975"
         style="fill:#ffffff;fill-opacity:1;fill-rule:evenodd;stroke:none"
         d="m 0,0 c -1.371,-2.49 -2.507,-5.108 -2.32,-8.309 l -0.313,0.033 c -0.094,3.052 1.012,5.574 2.335,7.977 -0.71,0.082 -1.364,0.217 -2.125,0.227 l 0.192,0.299 C -1.425,0.228 -0.743,0.085 0,0"
         inkscape:connector-curvature="0" />
    </g>
    <g
       transform="matrix(0.54801803,0,0,-0.54801803,15.665253,35.976342)"
       id="g4977">
      <path
         id="path4979"
         style="fill:#ffffff;fill-opacity:1;fill-rule:evenodd;stroke:none"
         d="m 0,0 c -0.983,-4.206 -1.423,-8.28 -1.009,-12.655 -0.114,0.026 -0.225,0.055 -0.333,0.09 -0.353,4.227 0.09,8.185 1.044,12.266 -1.08,0.488 -2.237,1.031 -3.194,1.72 0.039,0.144 0.081,0.287 0.124,0.428 C -2.38,1.098 -1.146,0.517 0,0"
         inkscape:connector-curvature="0" />
    </g>
    <g
       transform="matrix(0.54801803,0,0,-0.54801803,39.377716,33.074093)"
       id="g4981">
      <path
         id="path4983"
         style="fill:#ffffff;fill-opacity:1;fill-rule:evenodd;stroke:none"
         d="m 0,0 c -0.224,-0.084 -0.442,-0.18 -0.658,-0.285 l -1.937,0.067 c -2.793,0.283 -5.411,-0.962 -7.383,-2.867 2.003,2.072 4.746,3.463 7.681,3.166 L 0,0 z"
         inkscape:connector-curvature="0" />
    </g>
    <g
       transform="matrix(0.54801803,0,0,-0.54801803,42.202369,34.511599)"
       id="g4985">
      <path
         id="path4987"
         style="fill:#ffffff;fill-opacity:1;fill-rule:evenodd;stroke:none"
         d="M 0,0 C -1.194,-1.232 -2.166,-2.699 -2.882,-4.114 L -3.028,-4.118 C -2.267,-2.68 -1.246,-1.207 0,0"
         inkscape:connector-curvature="0" />
    </g>
    <g
       transform="matrix(0.54801803,0,0,-0.54801803,44.43406,33.054309)"
       id="g4989">
      <path
         id="path4991"
         style="fill:#ffffff;fill-opacity:1;fill-rule:evenodd;stroke:none"
         d="m 0,0 c -0.24,-0.076 -0.476,-0.163 -0.707,-0.262 -2.061,0.153 -4.091,-0.116 -6.189,-0.014 -2.063,0.122 -4.011,-0.953 -5.554,-2.443 1.587,1.642 3.653,2.871 5.852,2.741 C -4.362,-0.086 -2.201,0.227 0,0"
         inkscape:connector-curvature="0" />
    </g>
    <g
       transform="matrix(0.54801803,0,0,-0.54801803,20.625255,29.240104)"
       id="g4993">
      <path
         id="path4995"
         style="fill:#ffffff;fill-opacity:1;fill-rule:evenodd;stroke:none"
         d="M 0,0 0.132,0.327 C 0.314,0.279 0.497,0.233 0.68,0.188 6.053,-1.32 11.401,-1.426 16.996,-0.871 c 0.048,-1.195 0.604,-2.379 0.739,-3.608 0.476,-3.48 0.916,-7.138 0.801,-10.419 l -0.29,-0.026 c 0.082,3.21 -0.347,6.762 -0.808,10.146 -0.137,1.23 -0.693,2.413 -0.741,3.609 C 10.97,-1.738 5.501,-1.613 0,0"
         inkscape:connector-curvature="0" />
    </g>
    <g
       transform="matrix(0.54801803,0,0,-0.54801803,20.392452,28.991249)"
       id="g4997">
      <path
         id="path4999"
         style="fill:#ffffff;fill-opacity:1;fill-rule:evenodd;stroke:none"
         d="m 0,0 c -1.678,-4.449 -3.468,-8.686 -3.494,-13.701 l 0.144,-0.155 -0.439,0.111 c 0.084,4.904 1.841,9.073 3.491,13.447 -2.37,0.436 -4.394,1.614 -6.41,2.889 l 0.213,0.353 C -4.45,1.649 -2.403,0.442 0,0"
         inkscape:connector-curvature="0" />
    </g>
    <g
       transform="matrix(0.54801803,0,0,-0.54801803,33.684028,34.536205)"
       id="g5001">
      <path
         id="path5003"
         style="fill:#ffffff;fill-opacity:1;fill-rule:evenodd;stroke:none"
         d="m 0,0 c -1.108,-1.141 -2.039,-2.466 -2.733,-3.741 l -0.642,-1.291 -0.17,-0.039 0.514,1.032 C -2.276,-2.651 -1.24,-1.204 0,0"
         inkscape:connector-curvature="0" />
    </g>
    <g
       transform="matrix(0.54801803,0,0,-0.54801803,38.24584,28.011119)"
       id="g5005">
      <path
         id="path5007"
         style="fill:#ffffff;fill-opacity:1;fill-rule:evenodd;stroke:none"
         d="M 0,0 C 0.28,-0.329 0.536,-0.667 0.771,-1.012 1.376,-1.968 1.879,-2.978 2.307,-4.024 2.849,-5.47 3.202,-6.984 3.523,-8.513 L 3.165,-8.524 c -0.63,2.938 -1.409,5.812 -3.464,8.225 -4.298,-1.641 -9.008,-2.282 -13.719,-2.954 -0.227,-0.086 -0.545,-0.04 -0.782,-0.102 0.128,0.463 0.718,0.264 1.081,0.4 C -9.007,-2.284 -4.298,-1.642 0,0"
         inkscape:connector-curvature="0" />
    </g>
    <g
       transform="matrix(0.54801803,0,0,-0.54801803,40.888002,26.843621)"
       id="g5009">
      <path
         id="path5011"
         style="fill:#ffffff;fill-opacity:1;fill-rule:evenodd;stroke:none"
         d="M 0,0 C 1.887,-3.26 2.896,-6.849 3.571,-10.574 L 3.22,-10.582 c -0.675,3.622 -1.682,7.108 -3.519,10.284 -1.352,-0.685 -2.582,-1.35 -3.948,-1.806 l -0.12,0.167 C -2.829,-1.483 -1.489,-0.754 0,0"
         inkscape:connector-curvature="0" />
    </g>
    <g
       transform="matrix(0.54801803,0,0,-0.54801803,32.897294,23.733728)"
       id="g5013">
      <path
         id="path5015"
         style="fill:#ffffff;fill-opacity:1;fill-rule:evenodd;stroke:none"
         d="m 0,0 0.807,-0.994 c 0.747,-1.108 1.342,-2.275 1.81,-3.488 0.529,-1.5 0.845,-3.079 1.093,-4.694 L 3.376,-9.244 C 2.938,-6.475 2.278,-3.819 0.675,-1.497 L -0.3,-0.298 c -1.391,-0.549 -3.126,-0.608 -4.393,-1.012 -2.65,-0.434 -4.99,-0.219 -7.788,-0.425 l 0.128,0.285 c 0.718,0.058 1.407,0.085 2.076,0.103 0.68,-0.014 1.365,-0.002 2.05,0.037 1.264,0.027 2.509,0.082 3.831,0.299 C -3.128,-0.608 -1.394,-0.549 0,0"
         inkscape:connector-curvature="0" />
    </g>
    <g
       transform="matrix(0.54801803,0,0,-0.54801803,25.935216,24.440124)"
       id="g5017">
      <path
         id="path5019"
         style="fill:#ffffff;fill-opacity:1;fill-rule:evenodd;stroke:none"
         d="m 0,0 c -1.177,-2.884 -2.003,-6.05 -2.206,-9.297 l -0.276,0.027 c 0.236,3.133 1.046,6.184 2.183,8.973 -2.88,0.488 -5.811,1.158 -8.46,2.295 -0.804,-0.494 -1.526,-1.071 -2.184,-1.709 0.736,0.757 1.555,1.438 2.483,2.007 C -5.813,1.159 -2.88,0.49 0,0"
         inkscape:connector-curvature="0" />
    </g>
    <g
       transform="matrix(0.54801803,0,0,-0.54801803,19.824105,24.140467)"
       id="g5021">
      <path
         id="path5023"
         style="fill:#ffffff;fill-opacity:1;fill-rule:evenodd;stroke:none"
         d="m 0,0 c -1.749,-1.789 -3.134,-3.91 -4.241,-6.099 l -0.11,0.068 C -3.213,-3.85 -1.79,-1.751 0,0"
         inkscape:connector-curvature="0" />
    </g>
    <g
       transform="matrix(0.54801803,0,0,-0.54801803,21.141707,23.012591)"
       id="g5025">
      <path
         id="path5027"
         style="fill:#ffffff;fill-opacity:1;fill-rule:evenodd;stroke:none"
         d="m 0,0 c -0.138,-0.096 -0.271,-0.195 -0.404,-0.295 l -0.252,0.009 c -1.243,-0.839 -2.499,-1.862 -3.651,-2.995 1.231,1.251 2.598,2.381 3.949,3.294 L 0,0 z"
         inkscape:connector-curvature="0" />
    </g>
    <g
       transform="matrix(0.54801803,0,0,-0.54801803,40.731159,26.641567)"
       id="g5029">
      <path
         id="path5031"
         style="fill:#ffffff;fill-opacity:1;fill-rule:evenodd;stroke:none"
         d="M 0,0 -0.356,-0.202 C -2.139,2.753 -5.05,5.649 -7.908,7.491 -9.752,6.526 -11.664,5.822 -13.649,5.259 l -0.133,0.178 C -11.644,6.02 -9.587,6.754 -7.61,7.789 -4.72,5.927 -1.776,2.987 0,0"
         inkscape:connector-curvature="0" />
    </g>
    <g
       transform="matrix(0.54801803,0,0,-0.54801803,26.885703,20.628111)"
       id="g5033">
      <path
         id="path5035"
         style="fill:#ffffff;fill-opacity:1;fill-rule:evenodd;stroke:none"
         d="M 0,0 C 0.465,-0.078 0.937,-0.14 1.407,-0.182 0.908,-0.123 0.434,-0.054 0,0"
         inkscape:connector-curvature="0" />
    </g>
    <g
       transform="matrix(0.54801803,0,0,-0.54801803,34.828237,22.786753)"
       id="g5037">
      <path
         id="path5039"
         style="fill:#ffffff;fill-opacity:1;fill-rule:evenodd;stroke:none"
         d="m 0,0 c -0.071,-0.13 -0.176,-0.225 -0.299,-0.298 -0.255,-0.469 -0.942,-0.475 -1.398,-0.728 -2.232,-0.638 -4.435,-1.308 -6.805,-1.643 -0.045,0.303 -0.094,0.609 -0.146,0.916 0.031,-0.22 0.06,-0.442 0.085,-0.665 L -8.891,-2.47 c -0.248,2.033 -0.891,3.925 -1.31,5.891 -1.591,-0.243 -3.281,0.055 -4.59,0.22 -1.543,-0.601 -3.065,-1.527 -4.299,-2.714 1.281,1.33 2.927,2.363 4.597,3.012 0.433,-0.054 0.908,-0.123 1.407,-0.182 1.01,-0.121 2.119,-0.2 3.183,-0.037 0.286,-1.338 0.674,-2.641 0.972,-3.978 0.11,-0.493 0.207,-0.99 0.283,-1.495 0.052,-0.307 0.101,-0.613 0.146,-0.916 2.37,0.335 4.573,1.005 6.805,1.643 0.456,0.253 1.143,0.259 1.398,0.728 -0.159,0.573 -0.648,1.097 -1.113,1.472 -0.749,0.772 -1.673,1.7 -2.704,2.094 -1.248,0.164 -2.25,1.393 -3.557,0.722 -0.556,-0.205 -1.13,-0.326 -1.709,-0.486 l -0.044,0.199 c 0.696,0.214 1.386,0.34 2.051,0.585 1.308,0.671 2.311,-0.558 3.559,-0.721 0.157,-0.061 0.312,-0.133 0.465,-0.216 l -0.282,0.05 C -2.232,2.639 -0.923,1.451 -0.041,0.127 -0.026,0.085 -0.013,0.043 0,0"
         inkscape:connector-curvature="0" />
    </g>
    <g
       transform="matrix(0.54801803,0,0,-0.54801803,36.370032,22.202566)"
       id="g5041">
      <path
         id="path5043"
         style="fill:#ffffff;fill-opacity:1;fill-rule:evenodd;stroke:none"
         d="M 0,0 C -0.125,-0.086 -0.254,-0.165 -0.387,-0.239 -1.893,0.768 -3.483,1.601 -5.244,2.074 -5.539,2.279 -5.842,2.466 -6.148,2.633 -3.862,2.255 -1.866,1.26 0,0"
         inkscape:connector-curvature="0" />
    </g>
    <g
       transform="matrix(0.54801803,0,0,-0.54801803,24.211975,22.170726)"
       id="g5045">
      <path
         id="path5047"
         style="fill:#ffffff;fill-opacity:1;fill-rule:evenodd;stroke:none"
         d="m 0,0 c -0.771,-0.801 -1.385,-1.68 -1.699,-2.598 l -0.16,0.059 C -1.472,-1.636 -0.805,-0.777 0,0"
         inkscape:connector-curvature="0" />
    </g>
    <g
       transform="matrix(0.54801803,0,0,-0.54801803,26.49661,20.532317)"
       id="g5049">
      <path
         id="path5051"
         style="fill:#ffffff;fill-opacity:1;fill-rule:evenodd;stroke:none"
         d="m 0,0 c -0.182,-0.091 -0.366,-0.188 -0.552,-0.29 l -0.164,0.006 C -3.81,-1.206 -6.879,-2.211 -9.481,-4.207 -6.848,-2 -3.646,-0.948 -0.418,0.014 L 0,0 z"
         inkscape:connector-curvature="0" />
    </g>
    <g
       transform="matrix(0.54801803,0,0,-0.54801803,43.467523,33.492889)"
       id="g5053">
      <path
         id="path5055"
         style="fill:#ffffff;fill-opacity:1;fill-rule:nonzero;stroke:none"
         d="m 0,0 c -2.281,-1.362 -4.057,-3.734 -5.19,-5.973 -2.749,-0.083 -5.428,0.16 -7.956,0.427 0.903,2.068 2.788,4.449 5.094,5.631 L 0,0 z"
         inkscape:connector-curvature="0" />
    </g>
    <g
       transform="matrix(0.54801803,0,0,-0.54801803,40.451284,37.00552)"
       id="g5057">
      <path
         id="path5059"
         style="fill:#ffffff;fill-opacity:1;fill-rule:nonzero;stroke:none"
         d="m 0,0 c -0.376,-1.406 -0.727,-2.884 -1.047,-4.391 l -3.165,0.544 c 0.32,1.397 0.819,2.723 1.498,3.942 C -1.576,0.174 -1.04,0.156 0,0"
         inkscape:connector-curvature="0" />
    </g>
    <g
       transform="matrix(0.54801803,0,0,-0.54801803,38.718394,36.944744)"
       id="g5061">
      <path
         id="path5063"
         style="fill:#ffffff;fill-opacity:1;fill-rule:nonzero;stroke:none"
         d="m 0,0 c -0.943,-1.088 -1.021,-2.562 -1.425,-3.893 l -8.388,1.441 c 0.281,0.854 0.625,1.68 1.007,2.49 0.368,0.286 0.59,0.666 0.952,0.743 C -5.171,0.688 -2.567,-0.03 0,0"
         inkscape:connector-curvature="0" />
    </g>
    <g
       transform="matrix(0.54801803,0,0,-0.54801803,33.955354,36.533183)"
       id="g5065">
      <path
         id="path5067"
         style="fill:#ffffff;fill-opacity:1;fill-rule:nonzero;stroke:none"
         d="m 0,0 c -0.559,-1.015 -1.078,-2.052 -1.486,-3.14 l -2.303,0.396 c 0.423,1.035 0.937,2.027 1.558,2.971 C -1.425,0.228 -0.743,0.085 0,0"
         inkscape:connector-curvature="0" />
    </g>
    <g
       transform="matrix(0.54801803,0,0,-0.54801803,38.633289,33.44121)"
       id="g5069">
      <path
         id="path5071"
         style="fill:#ffffff;fill-opacity:1;fill-rule:nonzero;stroke:none"
         d="M 0,0 C -1.986,-1.217 -3.606,-3.264 -4.579,-5.213 L -4.95,-5.558 c -1.908,0.096 -3.63,0.365 -5.594,0.553 1.196,2.144 3.123,4.058 5.41,5.059 L 0,0 z"
         inkscape:connector-curvature="0" />
    </g>
    <g
       transform="matrix(0.54801803,0,0,-0.54801803,42.864922,41.917076)"
       id="g5073">
      <path
         id="path5075"
         style="fill:#ffffff;fill-opacity:1;fill-rule:evenodd;stroke:none"
         d="m 0,0 c -0.003,-1.791 -0.218,-3.665 -0.312,-5.513 -2.058,0.072 -3.774,-1.211 -5.729,-1.591 -0.181,2.514 0.06,5.104 0.408,7.39 L 0,0 z M 12.98,2.353 C 13.297,1.149 11.756,1.5 11.229,0.892 10.129,0.214 9.166,-0.857 8.074,-1.357 L 8.012,1.154 c 1.367,0.669 2.985,0.851 4.344,1.281 L 12.98,2.353 z M 0.94,6.416 C 0.78,4.392 0.175,2.442 0.105,0.444 l -5.726,0.2 0.153,0.114 -0.143,0.155 c 0.449,2.612 0.81,5.257 1.701,7.674 1.682,-0.567 3.39,-1.254 4.85,-2.171 m 11.676,1.743 c 0.24,-1.681 0.6,-3.336 0.476,-5.182 C 11.825,2.603 10.289,2.239 8.902,1.839 L 8.028,1.601 7.459,5.831 c 0.554,0.488 1.365,0.609 2.035,1.004 0.978,0.622 2.063,0.913 3.122,1.324 m -0.827,2.835 C 12.091,10.237 12.332,9.453 12.484,8.671 10.841,7.773 9.139,6.936 7.33,6.403 6.92,7.491 7.035,9.1 5.597,9.777 5.75,11.623 6.093,13.761 6.43,15.69 8.804,15.278 10.85,13.177 11.789,10.994 M 5.928,15.857 C 5.769,13.862 5.494,11.991 5.096,10.004 4.479,10.294 3.729,10.171 3.153,9.922 2.053,9.184 1.535,8.038 1.048,6.921 -0.51,7.632 -2.069,8.313 -3.626,9.024 c 0.343,1.272 1.31,2.433 2.066,3.571 1.497,1.829 3.446,2.925 5.498,3.54 l 1.99,-0.278 z"
         inkscape:connector-curvature="0" />
    </g>
    <g
       transform="matrix(0.54801803,0,0,-0.54801803,42.702761,44.773292)"
       id="g5077">
      <path
         id="path5079"
         style="fill:#ccd8e8;fill-opacity:1;fill-rule:evenodd;stroke:none"
         d="m 0,0 -0.016,-0.301 c -2.058,0.072 -3.774,-1.211 -5.729,-1.591 -0.181,2.514 0.059,5.104 0.408,7.39 L -5.085,5.486 C -5.408,3.277 -5.619,0.808 -5.446,-1.593 -3.582,-1.231 -1.934,-0.046 0,0"
         inkscape:connector-curvature="0" />
    </g>
    <g
       transform="matrix(0.54801803,0,0,-0.54801803,43.526376,37.926245)"
       id="g5081">
      <path
         id="path5083"
         style="fill:#ccd8e8;fill-opacity:1;fill-rule:evenodd;stroke:none"
         d="m 0,0 -0.159,-0.361 -0.783,0.355 c -0.78,0.413 -1.608,0.774 -2.449,1.097 -0.481,0.216 -0.962,0.432 -1.442,0.651 0.343,1.272 1.31,2.433 2.066,3.571 0.263,0.322 0.541,0.621 0.83,0.9 C -2.119,6.022 -2.297,5.821 -2.47,5.611 -3.226,4.473 -4.192,3.313 -4.535,2.041 -3.023,1.351 -1.512,0.689 0,0"
         inkscape:connector-curvature="0" />
    </g>
    <g
       transform="matrix(0.54801803,0,0,-0.54801803,45.699214,36.224155)"
       id="g5085">
      <path
         id="path5087"
         style="fill:#ccd8e8;fill-opacity:1;fill-rule:evenodd;stroke:none"
         d="m 0,0 -0.076,-0.384 c -0.616,0.29 -1.366,0.167 -1.943,-0.082 -0.163,-0.109 -0.313,-0.227 -0.453,-0.353 0.217,0.24 0.465,0.46 0.751,0.652 C -1.212,0.052 -0.567,0.174 0,0"
         inkscape:connector-curvature="0" />
    </g>
    <g
       transform="matrix(0.54801803,0,0,-0.54801803,49.693227,37.097532)"
       id="g5089">
      <path
         id="path5091"
         style="fill:#ccd8e8;fill-opacity:1;fill-rule:evenodd;stroke:none"
         d="M 0,0 0.024,-0.123 C -1.619,-1.021 -3.321,-1.858 -5.13,-2.391 -5.54,-1.303 -5.425,0.306 -6.863,0.983 -6.71,2.829 -6.367,4.967 -6.03,6.896 -5.951,6.882 -5.871,6.866 -5.792,6.849 -6.107,5.013 -6.421,3.018 -6.565,1.281 -5.126,0.604 -5.242,-1.004 -4.832,-2.093 -3.14,-1.594 -1.544,-0.831 0,0"
         inkscape:connector-curvature="0" />
    </g>
    <g
       transform="matrix(0.54801803,0,0,-0.54801803,50.046422,40.167583)"
       id="g5093">
      <path
         id="path5095"
         style="fill:#ccd8e8;fill-opacity:1;fill-rule:evenodd;stroke:none"
         d="m 0,0 -0.013,-0.215 c -1.266,-0.374 -2.802,-0.738 -4.189,-1.138 l -0.874,-0.238 -0.57,4.23 c 0.096,0.084 0.2,0.158 0.309,0.223 l 0.559,-4.154 0.874,0.238 C -2.619,-0.685 -1.208,-0.345 0,0"
         inkscape:connector-curvature="0" />
    </g>
    <g
       transform="matrix(0.54801803,0,0,-0.54801803,42.930737,41.504145)"
       id="g5097">
      <path
         id="path5099"
         style="fill:#ccd8e8;fill-opacity:1;fill-rule:evenodd;stroke:none"
         d="m 0,0 -0.015,-0.309 -5.726,0.2 0.153,0.114 -0.143,0.155 c 0.449,2.612 0.81,5.257 1.701,7.674 L -3.859,7.775 C -4.658,5.456 -5.005,2.942 -5.433,0.458 L -5.289,0.304 -5.442,0.19 0,0 z"
         inkscape:connector-curvature="0" />
    </g>
    <g
       transform="matrix(0.54801803,0,0,-0.54801803,49.974193,40.928343)"
       id="g5101">
      <path
         id="path5103"
         style="fill:#ccd8e8;fill-opacity:1;fill-rule:evenodd;stroke:none"
         d="m 0,0 c -0.242,-0.554 -1.32,-0.423 -1.744,-0.912 -1.1,-0.678 -2.063,-1.749 -3.154,-2.249 l -0.063,2.511 c 0.1,0.048 0.2,0.094 0.303,0.138 l 0.057,-2.35 c 1.092,0.499 2.055,1.571 3.155,2.248 C -1.124,-0.242 -0.424,-0.229 0,0"
         inkscape:connector-curvature="0" />
    </g>
    <g
       transform="matrix(0.54801803,0,0,-0.54801803,49.931338,36.344829)"
       id="g5105">
      <path
         id="path5107"
         style="fill:#778aa0;fill-opacity:1;fill-rule:nonzero;stroke:none"
         d="m 0,0 0.222,-0.504 c 1.47,0.217 2.458,-0.594 3.831,-0.582 2.385,0.782 4.719,0.91 7.329,0.401 1.608,0.211 3.123,0.248 4.832,0.044 -2.693,0.317 -5.443,-0.914 -8.201,0.074 C 6.14,-0.323 4.591,-1.941 2.616,-1.185 1.903,-1.07 1.052,-0.682 0.325,-0.955 L 0.341,-1.052 C 0.216,-0.686 0.098,-0.315 0,0"
         inkscape:connector-curvature="0" />
    </g>
    <g
       transform="matrix(0.54801803,0,0,-0.54801803,12.868932,37.70764)"
       id="g5109">
      <path
         id="path5111"
         style="fill:#778aa0;fill-opacity:1;fill-rule:nonzero;stroke:none"
         d="m 0,0 -0.058,-0.542 c -2.466,0.139 -4.695,-1.36 -7.124,-1.812 -1.54,-0.483 -3.258,-0.961 -4.921,-0.694 0.431,0.373 1.407,0.071 2.039,0.227 3.508,0.445 6.446,2.463 10.035,2.636 L 0,0 z"
         inkscape:connector-curvature="0" />
    </g>
    <g
       transform="matrix(0.54801803,0,0,-0.54801803,11.429893,43.321098)"
       id="g5113">
      <path
         id="path5115"
         style="fill:#ffffff;fill-opacity:1;fill-rule:nonzero;stroke:none"
         d="M 0,0 C 0,0.505 0.409,0.914 0.915,0.914 1.42,0.914 1.829,0.505 1.829,0 1.829,-0.505 1.42,-0.915 0.915,-0.915 0.409,-0.915 0,-0.505 0,0"
         inkscape:connector-curvature="0" />
    </g>
    <g
       transform="matrix(0.54801803,0,0,-0.54801803,31.805532,46.772406)"
       id="g5117">
      <path
         id="path5119"
         style="fill:#ffffff;fill-opacity:1;fill-rule:nonzero;stroke:none"
         d="M 0,0 C 0,0.392 0.316,0.71 0.71,0.71 1.102,0.71 1.419,0.392 1.419,0 1.419,-0.391 1.102,-0.709 0.71,-0.709 0.316,-0.709 0,-0.391 0,0"
         inkscape:connector-curvature="0" />
    </g>
    <g
       transform="matrix(0.54801803,0,0,-0.54801803,52.067241,39.271684)"
       id="g5121">
      <path
         id="path5123"
         style="fill:#ffffff;fill-opacity:1;fill-rule:nonzero;stroke:none"
         d="M 0,0 C 0,0.408 0.33,0.738 0.737,0.738 1.145,0.738 1.476,0.408 1.476,0 1.476,-0.407 1.145,-0.737 0.737,-0.737 0.33,-0.737 0,-0.407 0,0"
         inkscape:connector-curvature="0" />
    </g>
    <g
       transform="matrix(0.54801803,0,0,-0.54801803,54.01687,38.811951)"
       id="g5125">
      <path
         id="path5127"
         style="fill:#ffffff;fill-opacity:1;fill-rule:nonzero;stroke:none"
         d="M 0,0 C 0,0.196 0.158,0.355 0.354,0.355 0.551,0.355 0.709,0.196 0.709,0 0.709,-0.196 0.551,-0.355 0.354,-0.355 0.158,-0.355 0,-0.196 0,0"
         inkscape:connector-curvature="0" />
    </g>
  </g>
</svg>
