<?xml version="1.0" encoding="UTF-8" standalone="no"?>
<!-- Created with Inkscape (http://www.inkscape.org/) -->

<svg
   xmlns:dc="http://purl.org/dc/elements/1.1/"
   xmlns:cc="http://creativecommons.org/ns#"
   xmlns:rdf="http://www.w3.org/1999/02/22-rdf-syntax-ns#"
   xmlns:svg="http://www.w3.org/2000/svg"
   xmlns="http://www.w3.org/2000/svg"
   xmlns:sodipodi="http://sodipodi.sourceforge.net/DTD/sodipodi-0.dtd"
   xmlns:inkscape="http://www.inkscape.org/namespaces/inkscape"
   width="64px"
   height="64px"
   id="svg172953"
   version="1.1"
   inkscape:version="0.48.5 r10040"
   sodipodi:docname="Nowy dokument 32">
  <defs
     id="defs172955" />
  <sodipodi:namedview
     id="base"
     pagecolor="#ffffff"
     bordercolor="#666666"
     borderopacity="1.0"
     inkscape:pageopacity="0.0"
     inkscape:pageshadow="2"
     inkscape:zoom="5.5"
     inkscape:cx="32"
     inkscape:cy="32"
     inkscape:current-layer="layer1"
     showgrid="true"
     inkscape:document-units="px"
     inkscape:grid-bbox="true"
     inkscape:window-width="1366"
     inkscape:window-height="706"
     inkscape:window-x="-8"
     inkscape:window-y="-8"
     inkscape:window-maximized="1" />
  <metadata
     id="metadata172958">
    <rdf:RDF>
      <cc:Work
         rdf:about="">
        <dc:format>image/svg+xml</dc:format>
        <dc:type
           rdf:resource="http://purl.org/dc/dcmitype/StillImage" />
        <dc:title></dc:title>
      </cc:Work>
    </rdf:RDF>
  </metadata>
  <g
     id="layer1"
     inkscape:label="Layer 1"
     inkscape:groupmode="layer">
    <g
       transform="matrix(0.82509578,0,0,-0.82509578,44.687039,20.121705)"
       id="g3069">
      <path
         id="path3071"
         style="fill:#000000;fill-opacity:1;fill-rule:nonzero;stroke:none"
         d="m 0,0 c -0.69,-0.85 -1.563,-1.403 -2.181,-2.168 3.017,0.595 6.47,-0.681 9.087,-2.849 4.48,-3.103 8.216,-10.843 8.288,-17.434 0.364,-8.037 -2.362,-15.265 -6.724,-21.346 -3.344,-4.421 -7.634,-6.59 -12.65,-6.421 -2.762,0.596 -5.452,1.319 -8.106,2.127 -0.763,0.042 -1.236,-0.765 -1.927,-0.893 -1.308,-0.34 -2.507,0 -3.599,0.893 -5.161,-2.509 -10.868,-1.318 -15.339,2.168 -5.051,4.125 -8.795,10.503 -9.232,17.646 -0.763,8.972 1.999,17.859 8.724,22.835 5.815,4.762 13.812,1.445 19.01,-2.637 -1.998,5.315 -6.353,8.5 -10.497,10.967 -1.271,1.956 -0.511,3.254 0.465,5.659 0.69,1.062 1.563,1.573 2.508,1.829 3.485,-1.38 6.762,-9.483 7.343,-10.503 -0.073,2.976 0.378,6.469 1.659,8.323 C -9.618,15.351 0.134,17.45 2.437,23.131 3.745,15.478 5.744,6.081 0,0"
         inkscape:connector-curvature="0" />
    </g>
    <g
       transform="matrix(0.82509578,0,0,-0.82509578,54.55436,31.243172)"
       id="g3073">
      <path
         id="path3075"
         style="fill:#c9d139;fill-opacity:1;fill-rule:nonzero;stroke:none"
         d="m 0,0 c 4.218,-9.014 1.964,-21.176 -3.489,-28.701 -3.054,-4.381 -7.343,-7.697 -12.468,-7.016 -4.435,0.34 -8.069,3.443 -12.759,2.424 -3.816,-0.894 -8.178,-2.722 -11.959,-0.383 -6.724,2.423 -12.031,10.97 -12.795,18.964 -0.945,9.609 3.233,19.571 9.742,22.876 3.671,2.149 8.504,1.049 11.116,-0.05 2.617,-1.362 4.478,-3.309 7.205,-4.33 5.379,1.063 8.686,8.122 14.938,6.421 C -6.034,9.057 -2.253,4.508 0,0"
         inkscape:connector-curvature="0" />
    </g>
    <g
       transform="matrix(0.82509578,0,0,-0.82509578,50.819732,56.067003)"
       id="g3077">
      <path
         id="path3079"
         style="fill:#81ae37;fill-opacity:1;fill-rule:nonzero;stroke:none"
         d="m 0,0 c -2.957,-3.668 -6.861,-6.238 -11.431,-5.631 -4.434,0.34 -8.069,3.443 -12.758,2.424 -2.422,-0.568 -5.065,-1.511 -7.639,-1.527 -1.352,0.605 -3.115,1.497 -5.411,2.801 -8.728,4.954 -10.57,15.661 -10.656,21.716 -0.084,6.054 4.065,16.062 11.424,17.916 4.883,1.231 9.029,-1.088 11.268,-2.788 -3.088,0.353 -9.475,-0.46 -11.268,-12.574 -1.82,-12.289 3.932,-19.961 7.399,-21.316 3.465,-1.354 3.511,-0.899 5.904,-0.8 2.395,0.1 4.965,-0.954 8.129,-2.154 C -13.276,-2.602 -6.805,-3.412 0,0"
         inkscape:connector-curvature="0" />
    </g>
    <g
       transform="matrix(0.82509578,0,0,-0.82509578,46.636992,14.753797)"
       id="g3081">
      <path
         id="path3083"
         style="fill:#6e9531;fill-opacity:1;fill-rule:nonzero;stroke:none"
         d="m 0,0 c -1.89,-7.739 -9.16,-9.95 -13.776,-14.5 -0.655,-0.085 -1.127,-0.638 -1.856,-0.51 1.02,7.654 6.799,12.119 10.834,17.774 0.545,1.062 1.199,3.486 1.199,3.486 -2.871,-7.015 -10.869,-11.14 -12.213,-19.219 -0.8,5.868 -1.337,13.22 3.06,17.259 4.577,4.754 8.862,4.81 11.771,9.784 l 0.544,0.723 C -0.036,9.864 1.636,4.89 0,0"
         inkscape:connector-curvature="0" />
    </g>
    <g
       transform="matrix(0.82509578,0,0,-0.82509578,43.907905,9.1050259)"
       id="g3085">
      <path
         id="path3087"
         style="fill:#000000;fill-opacity:1;fill-rule:nonzero;stroke:none"
         d="M 0,0 -0.183,-0.596 0,0 z"
         inkscape:connector-curvature="0" />
    </g>
    <g
       transform="matrix(0.82509578,0,0,-0.82509578,33.020514,25.17385)"
       id="g3089">
      <path
         id="path3091"
         style="fill:#764e33;fill-opacity:1;fill-rule:nonzero;stroke:none"
         d="m 0,0 0,-1.02 c -3.01,7.232 -9.67,10.502 -9.67,10.502 1.229,0.583 2.509,3.189 2.363,5.486 C -3.09,11.098 -1.309,5.528 0,0"
         inkscape:connector-curvature="0" />
    </g>
    <g
       transform="matrix(0.82509578,0,0,-0.82509578,33.230828,59.626467)"
       id="g3093">
      <path
         id="path3095"
         style="fill:#b08c4b;fill-opacity:1;fill-rule:nonzero;stroke:none"
         d="m 0,0 c -0.509,-0.637 -1.454,-0.467 -2.254,-0.51 l -0.364,0.425 C -0.739,0.782 -0.226,0.082 0,0"
         inkscape:connector-curvature="0" />
    </g>
    <g
       transform="matrix(0.82509578,0,0,-0.82509578,24.503626,14.257004)"
       id="g3097">
      <path
         id="path3099"
         style="fill:#b08c4b;fill-opacity:1;fill-rule:nonzero;stroke:none"
         d="M 0,0 C 0.53,1.462 1.402,2.429 1.943,2.159 2.488,1.89 2.498,0.486 1.967,-0.977 1.436,-2.439 0.566,-3.406 0.023,-3.137 -0.521,-2.867 -0.531,-1.463 0,0"
         inkscape:connector-curvature="0" />
    </g>
    <g
       transform="matrix(0.82509578,0,0,-0.82509578,14.687876,42.855405)"
       id="g3101">
      <path
         id="path3103"
         style="fill:#90121c;fill-opacity:1;fill-rule:evenodd;stroke:none"
         d="M 0,0 C -0.01,1.372 -0.306,2.145 -0.105,3.474 0.096,4.803 0.277,4.72 0.479,6.048 0.578,6.714 0.582,8.46 0.013,8.577 -1.229,8.833 -1.244,7.293 -1.463,5.839 -1.771,3.797 -1.221,1.546 0,0"
         inkscape:connector-curvature="0" />
    </g>
    <g
       transform="matrix(0.82509578,0,0,-0.82509578,33.731174,28.781251)"
       id="g3105">
      <path
         id="path3107"
         style="fill:#eaeec5;fill-opacity:1;fill-rule:nonzero;stroke:none"
         d="m 0,0 1.926,0 c 4.914,0 6.965,4.925 11.881,4.925 5.683,0 8.869,-6.875 8.869,-13.524 0,-1.725 0.176,-2.687 0,-4.4 -0.881,-8.542 -3.442,-11.875 -5.643,-11.875 -1.304,0 -2.115,1.2 -2.478,2.65 -0.684,2.6 -0.813,4.2 -0.813,6.9 l 0,0.45 c 0,4.05 0.385,6.35 0.385,10.4 0,2.624 -0.619,5.824 -2.863,5.824 -3.633,0 -5.514,-2.15 -9.147,-2.15 -1.24,0 -2.158,0.15 -3.035,1.176 C -1.174,0.675 -0.383,0.1 0,0"
         inkscape:connector-curvature="0" />
    </g>
    <g
       transform="matrix(0.82509578,0,0,-0.82509578,56.115111,43.483467)"
       id="g3109">
      <path
         id="path3111"
         style="fill:#ba5534;fill-opacity:1;fill-rule:nonzero;stroke:none"
         d="m 0,0 c -0.709,-5.135 -2.642,-10.085 -5.381,-13.866 -3.054,-4.381 -7.343,-7.697 -12.468,-7.016 -4.434,0.34 -8.069,3.443 -12.758,2.424 -3.817,-0.894 -8.178,-2.722 -11.959,-0.383 -6.725,2.423 -12.032,10.97 -12.795,18.964 -0.459,4.663 0.29,9.41 1.924,13.438 -0.051,-0.368 -0.08,-0.761 -0.08,-1.192 l 0,-6.299 c 0.488,-7.492 2.585,-8.475 3.761,-8.475 1.219,0 0.56,2.583 1.777,2.583 0.706,0 0.873,-0.708 1.28,-1.383 0.876,-1.45 1.986,-2 3.505,-2 1.985,0 2.883,1.9 3.845,3.95 0.855,1.8 3.396,7.686 5.273,7.54 2.705,-0.207 4.836,-5.84 5.328,-8.09 -0.494,2.309 0.871,-8.171 5.192,-4.1 0.599,0.784 0.535,1.883 1.197,1.883 1.347,0 1.261,-1.983 2.607,-1.983 3.59,0 1.883,8.797 5.472,8.65 2.745,-0.113 4.047,-6.44 5.299,-7.55 2.452,-2.171 4.147,3.69 5.235,6.35 2.476,6.041 3.674,-1.013 3.677,-3.55 L 0,0 z"
         inkscape:connector-curvature="0" />
    </g>
    <g
       transform="matrix(0.82509578,0,0,-0.82509578,50.819732,56.067003)"
       id="g3113">
      <path
         id="path3115"
         style="fill:#90121c;fill-opacity:1;fill-rule:nonzero;stroke:none"
         d="m 0,0 c -2.957,-3.668 -6.861,-6.238 -11.431,-5.631 -4.434,0.34 -8.069,3.443 -12.758,2.424 -2.422,-0.568 -5.065,-1.511 -7.639,-1.527 -1.352,0.605 -3.115,1.497 -5.411,2.801 -8.728,4.954 -10.57,15.661 -10.656,21.716 -0.021,1.594 0.249,3.463 0.796,5.383 l 0,-3.845 c 0.488,-7.492 2.585,-8.475 3.761,-8.475 1.219,0 0.56,2.583 1.777,2.583 0.706,0 0.873,-0.708 1.28,-1.383 0.876,-1.45 1.986,-2 3.505,-2 0.19,0 0.372,0.017 0.543,0.051 1.358,-6.278 4.793,-10.151 7.161,-11.076 3.465,-1.354 3.511,-0.899 5.904,-0.8 2.395,0.1 4.965,-0.954 8.129,-2.154 C -13.276,-2.602 -6.805,-3.412 0,0"
         inkscape:connector-curvature="0" />
    </g>
    <g
       transform="matrix(0.82509578,0,0,-0.82509578,45.082669,39.88011)"
       id="g3117">
      <path
         id="path3119"
         style="fill:#dc9879;fill-opacity:1;fill-rule:nonzero;stroke:none"
         d="m 0,0 c 2.143,-1.25 3.285,-6.292 4.39,-7.272 1.442,-1.278 2.624,0.227 3.574,2.224 -1.195,-4.511 -3.042,-6.374 -4.689,-6.374 -1.303,0 -2.115,1.2 -2.478,2.65 -0.684,2.6 -0.813,4.2 -0.813,6.9 l 0,0.45 c 0,0.498 0.006,0.97 0.016,1.422"
         inkscape:connector-curvature="0" />
    </g>
    <g
       transform="matrix(0.82509578,0,0,-0.82509578,49.387853,44.740089)"
       id="g3121">
      <path
         id="path3123"
         style="fill:#dc9879;fill-opacity:1;fill-rule:evenodd;stroke:none"
         d="m 0,0 c 1.603,1.876 2.286,3.651 2.286,6.301 0,1.074 -0.491,2.2 -1.411,2.2 -1.004,0 -1.196,-1.5 -1.196,-2.675 C -0.321,3.55 0.342,2.276 0,0"
         inkscape:connector-curvature="0" />
    </g>
    <g
       transform="matrix(0.82509578,0,0,-0.82509578,42.468851,26.344578)"
       id="g3125">
      <path
         id="path3127"
         style="fill:#ffffff;fill-opacity:1;fill-rule:nonzero;stroke:none"
         d="M 0,0 C 0,1.202 1.254,2.177 2.802,2.177 4.349,2.177 5.603,1.202 5.603,0 5.603,-1.203 4.349,-2.178 2.802,-2.178 1.254,-2.178 0,-1.203 0,0"
         inkscape:connector-curvature="0" />
    </g>
    <g
       transform="matrix(0.82509578,0,0,-0.82509578,26.306961,52.526518)"
       id="g3129">
      <path
         id="path3131"
         style="fill:#c9d139;fill-opacity:1;fill-rule:evenodd;stroke:none"
         d="M 0,0 C -0.578,1.194 -1.158,1.702 -1.533,2.978 -1.908,4.254 -1.713,4.284 -2.09,5.561 -2.276,6.199 -2.998,7.728 -3.543,7.509 -4.736,7.028 -4.11,5.673 -3.699,4.277 -3.123,2.315 -1.709,0.66 0,0"
         inkscape:connector-curvature="0" />
    </g>
    <g
       transform="matrix(0.82509578,0,0,-0.82509578,52.74707,47.83494)"
       id="g3133">
      <path
         id="path3135"
         style="fill:#c9d139;fill-opacity:1;fill-rule:evenodd;stroke:none"
         d="M 0,0 C 0.293,1.329 0.742,1.995 0.822,3.341 0.901,4.688 0.707,4.657 0.787,6.005 0.828,6.678 1.187,8.373 1.763,8.327 3.02,8.223 2.716,6.723 2.627,5.252 2.504,3.183 1.504,1.155 0,0"
         inkscape:connector-curvature="0" />
    </g>
    <g
       transform="matrix(0.82509578,0,0,-0.82509578,37.359528,24.945793)"
       id="g3137">
      <path
         id="path3139"
         style="fill:#5a7c2b;fill-opacity:1;fill-rule:nonzero;stroke:none"
         d="m 0,0 c -0.894,-0.673 -1.751,-1.377 -2.532,-2.147 -0.655,-0.085 -1.127,-0.638 -1.856,-0.51 1.02,7.654 6.799,12.119 10.834,17.774 0.545,1.062 1.2,3.486 1.2,3.486 -2.872,-7.015 -10.87,-11.14 -12.213,-19.219 -0.27,1.971 -0.509,4.112 -0.541,6.237 0.336,1.543 0.869,3.1 1.72,4.268 2.478,3.401 4.871,3.755 7.055,5.954 2.184,2.2 4.663,4.755 4.834,5.154 C 8.672,21.396 8.633,16.144 5.851,10.589 3.62,6.136 1.06,3.483 0,0"
         inkscape:connector-curvature="0" />
    </g>
    <g
       transform="matrix(0.82509578,0,0,-0.82509578,32.520923,24.933746)"
       id="g3141">
      <path
         id="path3143"
         style="fill:#b08c4b;fill-opacity:1;fill-rule:nonzero;stroke:none"
         d="m 0,0 c -0.5,0.983 -1.063,1.881 -1.658,2.699 -1.799,3.496 -4.174,5.848 -6.388,7.415 0.47,0.633 0.876,1.496 1.119,2.429 C -3.349,9.118 -1.213,4.005 0,0"
         inkscape:connector-curvature="0" />
    </g>
  </g>
</svg>
