<?xml version="1.0" encoding="UTF-8" standalone="no"?>
<!-- Created with Inkscape (http://www.inkscape.org/) -->

<svg
   xmlns:dc="http://purl.org/dc/elements/1.1/"
   xmlns:cc="http://creativecommons.org/ns#"
   xmlns:rdf="http://www.w3.org/1999/02/22-rdf-syntax-ns#"
   xmlns:svg="http://www.w3.org/2000/svg"
   xmlns="http://www.w3.org/2000/svg"
   xmlns:sodipodi="http://sodipodi.sourceforge.net/DTD/sodipodi-0.dtd"
   xmlns:inkscape="http://www.inkscape.org/namespaces/inkscape"
   width="64px"
   height="64px"
   id="svg20178"
   version="1.1"
   inkscape:version="0.48.5 r10040"
   sodipodi:docname="Nowy dokument 27">
  <defs
     id="defs20180" />
  <sodipodi:namedview
     id="base"
     pagecolor="#ffffff"
     bordercolor="#666666"
     borderopacity="1.0"
     inkscape:pageopacity="0.0"
     inkscape:pageshadow="2"
     inkscape:zoom="5.5"
     inkscape:cx="32"
     inkscape:cy="30.926074"
     inkscape:current-layer="layer1"
     showgrid="true"
     inkscape:document-units="px"
     inkscape:grid-bbox="true"
     inkscape:window-width="1366"
     inkscape:window-height="706"
     inkscape:window-x="-8"
     inkscape:window-y="-8"
     inkscape:window-maximized="1" />
  <metadata
     id="metadata20183">
    <rdf:RDF>
      <cc:Work
         rdf:about="">
        <dc:format>image/svg+xml</dc:format>
        <dc:type
           rdf:resource="http://purl.org/dc/dcmitype/StillImage" />
        <dc:title></dc:title>
      </cc:Work>
    </rdf:RDF>
  </metadata>
  <g
     id="layer1"
     inkscape:label="Layer 1"
     inkscape:groupmode="layer">
    <path
       id="path8567"
       style="fill:#e4a2a1;fill-opacity:1;fill-rule:nonzero;stroke:none"
       d="m 30.007934,16.481204 c 0,-6.7032636 -1.974696,-12.2347906 -8.733189,-12.2347906 -10.788607,0 -14.7660409,11.8702726 -14.7660409,18.5726856 0,0.559948 0.04163,1.085909 0.116409,1.584684 l -0.103663,0.03398 1.538801,13.485545 1.668806,16.154447 0.006,0 c 0.09347,4.777 3.5831739,7.713554 8.9439139,7.82911 4.754057,-0.115556 8.109511,-3.05211 8.203828,-7.82911 0,0 0.676359,-12.883959 0.676359,-17.958354 0,-3.581474 1.554946,-11.888962 2.07666,-16.46798 0.242164,-1.07402 0.372168,-2.142941 0.372168,-3.170224"
       inkscape:connector-curvature="0" />
    <path
       id="path8569"
       style="fill:#cb6258;fill-opacity:1;fill-rule:nonzero;stroke:none"
       d="m 27.647475,27.706556 c 0,0 -2.663801,6.980263 -1.045128,9.33987 0,0 0.808062,-2.562683 1.954304,-5.596953 l -0.909176,-3.742917"
       inkscape:connector-curvature="0" />
    <path
       id="path8571"
       style="fill:#d8706b;fill-opacity:1;fill-rule:nonzero;stroke:none"
       d="m 20.33158,14.458073 c 0,0 3.344409,4.508498 4.584118,6.776337 2.074961,3.793051 3.539839,10.468273 3.539839,10.468273 0,0 0.859894,-2.040124 0.775774,-4.298622 -0.06713,-1.8209 -0.778323,-4.498294 -2.344315,-7.558905 -1.566842,-3.061458 -6.522277,-9.230264 -6.522277,-9.230264 l -0.03314,3.843181"
       inkscape:connector-curvature="0" />
    <path
       id="path8573"
       style="fill:#cb6258;fill-opacity:1;fill-rule:nonzero;stroke:none"
       d="m 8.4579101,27.960617 c 0,0 2.4105909,6.726202 0.791918,9.085809 0,0 -0.809762,-2.562683 -1.956004,-5.596953 l 1.164086,-3.488856"
       inkscape:connector-curvature="0" />
    <path
       id="path8575"
       style="fill:#d8706b;fill-opacity:1;fill-rule:nonzero;stroke:none"
       d="m 20.33158,14.458073 c 0,0 -3.809193,2.325625 -6.878299,5.93344 -4.0139709,4.720915 -6.0583429,11.31117 -6.0583429,11.31117 0,0 -1.448733,-2.14124 -0.775773,-4.298622 0.288047,-0.918521 2.316275,-5.461851 4.8645169,-8.401808 3.815991,-4.405675 8.881037,-8.387361 8.881037,-8.387361 l -0.03314,3.843181"
       inkscape:connector-curvature="0" />
    <path
       id="path8577"
       style="fill:#e8c717;fill-opacity:1;fill-rule:nonzero;stroke:none"
       d="m 23.352255,13.422293 c 0,1.634819 -1.324678,2.961193 -2.960346,2.961193 -1.635667,0 -2.960345,-1.326374 -2.960345,-2.961193 0,-1.635669 1.324678,-2.960347 2.960345,-2.960347 1.635668,0 2.960346,1.324678 2.960346,2.960347"
       inkscape:connector-curvature="0" />
    <path
       id="path8579"
       style="fill:#d81f27;fill-opacity:1;fill-rule:nonzero;stroke:none"
       d="m 21.936659,10.494237 c 0,0.899832 -0.72989,1.63057 -1.62972,1.63057 -0.900679,0 -1.630569,-0.730738 -1.630569,-1.63057 0,-0.9006776 0.72989,-1.6305706 1.630569,-1.6305706 0.89983,0 1.62972,0.729893 1.62972,1.6305706"
       inkscape:connector-curvature="0" />
    <path
       id="path8581"
       style="fill:#d81f27;fill-opacity:1;fill-rule:nonzero;stroke:none"
       d="m 24.523987,11.896236 c 0,0.899832 -0.730739,1.63057 -1.631418,1.63057 -0.90068,0 -1.62972,-0.730738 -1.62972,-1.63057 0,-0.900678 0.72904,-1.63057 1.62972,-1.63057 0.900679,0 1.631418,0.729892 1.631418,1.63057"
       inkscape:connector-curvature="0" />
    <path
       id="path8583"
       style="fill:#d81f27;fill-opacity:1;fill-rule:nonzero;stroke:none"
       d="m 19.424104,12.065325 c 0,0.899832 -0.72989,1.63057 -1.630569,1.63057 -0.900679,0 -1.630569,-0.730738 -1.630569,-1.63057 0,-0.900678 0.72989,-1.630565 1.630569,-1.630565 0.900679,0 1.630569,0.729887 1.630569,1.630565"
       inkscape:connector-curvature="0" />
    <path
       id="path8585"
       style="fill:#d81f27;fill-opacity:1;fill-rule:nonzero;stroke:none"
       d="m 19.569402,15.086 c 0,0.900683 -0.72989,1.63057 -1.630569,1.63057 -0.899829,0 -1.630569,-0.729887 -1.630569,-1.63057 0,-0.899827 0.73074,-1.63057 1.630569,-1.63057 0.900679,0 1.630569,0.730743 1.630569,1.63057"
       inkscape:connector-curvature="0" />
    <path
       id="path8587"
       style="fill:#d81f27;fill-opacity:1;fill-rule:nonzero;stroke:none"
       d="m 22.203464,16.391988 c 0,0.899827 -0.73159,1.628869 -1.630569,1.628869 -0.89983,0 -1.630569,-0.729042 -1.630569,-1.628869 0,-0.900682 0.730739,-1.631421 1.630569,-1.631421 0.898979,0 1.630569,0.730739 1.630569,1.631421"
       inkscape:connector-curvature="0" />
    <path
       id="path8589"
       style="fill:#d81f27;fill-opacity:1;fill-rule:nonzero;stroke:none"
       d="m 24.620003,14.820044 c 0,0.900683 -0.72989,1.630571 -1.630569,1.630571 -0.900679,0 -1.629719,-0.729888 -1.629719,-1.630571 0,-0.900677 0.72904,-1.63057 1.629719,-1.63057 0.900679,0 1.630569,0.729893 1.630569,1.63057"
       inkscape:connector-curvature="0" />
    <path
       id="path8591"
       style="fill:#e8c717;fill-opacity:1;fill-rule:nonzero;stroke:none"
       d="m 22.482165,13.422293 c 0,1.154739 -0.936367,2.090254 -2.090256,2.090254 -1.155588,0 -2.090255,-0.935515 -2.090255,-2.090254 0,-1.153887 0.934667,-2.090253 2.090255,-2.090253 1.153889,0 2.090256,0.936366 2.090256,2.090253"
       inkscape:connector-curvature="0" />
    <path
       id="path8593"
       style="fill:#e4a2a1;fill-opacity:1;fill-rule:nonzero;stroke:none"
       d="m 35.265861,16.481204 c 0,-6.7032636 1.972147,-12.2347906 8.731491,-12.2347906 10.789457,0 14.766038,11.8702726 14.766038,18.5726856 0,0.559948 -0.04162,1.085909 -0.114711,1.584684 l 0.103668,0.03398 -1.538803,13.485545 -1.670507,16.154447 -0.0043,0 c -0.09517,4.777 -3.58402,7.713554 -8.944762,7.82911 -4.754907,-0.115556 -8.109512,-3.05211 -8.203828,-7.82911 0,0 -0.676359,-12.883959 -0.676359,-17.958354 0,-3.581474 -1.554946,-11.888962 -2.076661,-16.46798 -0.243013,-1.07402 -0.371317,-2.142941 -0.371317,-3.170224"
       inkscape:connector-curvature="0" />
    <path
       id="path8595"
       style="fill:#cb6258;fill-opacity:1;fill-rule:nonzero;stroke:none"
       d="m 37.62547,27.706556 c 0,0 2.663802,6.980263 1.045128,9.33987 0,0 -0.808912,-2.562683 -1.956003,-5.596953 l 0.910875,-3.742917"
       inkscape:connector-curvature="0" />
    <path
       id="path8597"
       style="fill:#d8706b;fill-opacity:1;fill-rule:nonzero;stroke:none"
       d="m 44.941363,14.458073 c 0,0 -3.345257,4.508498 -4.584965,6.776337 -2.073262,3.793051 -3.53984,10.468273 -3.53984,10.468273 0,0 -0.859043,-2.040124 -0.775773,-4.298622 0.06883,-1.8209 0.779173,-4.498294 2.345165,-7.558905 1.565992,-3.061458 6.521427,-9.230264 6.521427,-9.230264 l 0.03398,3.843181"
       inkscape:connector-curvature="0" />
    <path
       id="path8599"
       style="fill:#cb6258;fill-opacity:1;fill-rule:nonzero;stroke:none"
       d="m 56.815033,27.960617 c 0,0 -2.409741,6.726202 -0.791916,9.085809 0,0 0.80891,-2.562683 1.955152,-5.596953 l -1.163236,-3.488856"
       inkscape:connector-curvature="0" />
    <path
       id="path8601"
       style="fill:#d8706b;fill-opacity:1;fill-rule:nonzero;stroke:none"
       d="m 44.941363,14.458073 c 0,0 3.810045,2.325625 6.878303,5.93344 4.014817,4.720915 6.057488,11.31117 6.057488,11.31117 0,0 1.450438,-2.14124 0.775774,-4.298622 C 58.36573,26.48554 56.335804,21.94221 53.79011,19.002253 49.972425,14.596578 44.907377,10.614892 44.907377,10.614892 l 0.03398,3.843181"
       inkscape:connector-curvature="0" />
    <path
       id="path8603"
       style="fill:#e8c717;fill-opacity:1;fill-rule:nonzero;stroke:none"
       d="m 41.918991,13.422293 c 0,1.634819 1.326375,2.961193 2.962045,2.961193 1.633968,0 2.960347,-1.326374 2.960347,-2.961193 0,-1.635669 -1.326379,-2.960347 -2.960347,-2.960347 -1.63567,0 -2.962045,1.324678 -2.962045,2.960347"
       inkscape:connector-curvature="0" />
    <path
       id="path8605"
       style="fill:#d81f27;fill-opacity:1;fill-rule:nonzero;stroke:none"
       d="m 43.335438,10.494237 c 0,0.899832 0.729037,1.63057 1.629719,1.63057 0.900678,0 1.630565,-0.730738 1.630565,-1.63057 0,-0.9006776 -0.729887,-1.6305706 -1.630565,-1.6305706 -0.900682,0 -1.629719,0.729893 -1.629719,1.6305706"
       inkscape:connector-curvature="0" />
    <path
       id="path8607"
       style="fill:#d81f27;fill-opacity:1;fill-rule:nonzero;stroke:none"
       d="m 40.748958,11.896236 c 0,0.899832 0.72989,1.63057 1.630568,1.63057 0.900678,0 1.630571,-0.730738 1.630571,-1.63057 0,-0.900678 -0.729893,-1.63057 -1.630571,-1.63057 -0.900678,0 -1.630568,0.729892 -1.630568,1.63057"
       inkscape:connector-curvature="0" />
    <path
       id="path8609"
       style="fill:#d81f27;fill-opacity:1;fill-rule:nonzero;stroke:none"
       d="m 45.848842,12.065325 c 0,0.899832 0.729042,1.63057 1.629719,1.63057 0.900678,0 1.63057,-0.730738 1.63057,-1.63057 0,-0.900678 -0.729892,-1.630565 -1.63057,-1.630565 -0.900677,0 -1.629719,0.729887 -1.629719,1.630565"
       inkscape:connector-curvature="0" />
    <path
       id="path8611"
       style="fill:#d81f27;fill-opacity:1;fill-rule:nonzero;stroke:none"
       d="m 45.703542,15.086 c 0,0.900683 0.729892,1.63057 1.63057,1.63057 0.900677,0 1.629719,-0.729887 1.629719,-1.63057 0,-0.899827 -0.729042,-1.63057 -1.629719,-1.63057 -0.900678,0 -1.63057,0.730743 -1.63057,1.63057"
       inkscape:connector-curvature="0" />
    <path
       id="path8613"
       style="fill:#d81f27;fill-opacity:1;fill-rule:nonzero;stroke:none"
       d="m 43.069483,16.391988 c 0,0.899827 0.729887,1.628869 1.629719,1.628869 0.900678,0 1.63057,-0.729042 1.63057,-1.628869 0,-0.900682 -0.729892,-1.631421 -1.63057,-1.631421 -0.899832,0 -1.629719,0.730739 -1.629719,1.631421"
       inkscape:connector-curvature="0" />
    <path
       id="path8615"
       style="fill:#d81f27;fill-opacity:1;fill-rule:nonzero;stroke:none"
       d="m 40.652092,14.820044 c 0,0.900683 0.73074,1.630571 1.629722,1.630571 0.900678,0 1.630565,-0.729888 1.630565,-1.630571 0,-0.900677 -0.729887,-1.63057 -1.630565,-1.63057 -0.898982,0 -1.629722,0.729893 -1.629722,1.63057"
       inkscape:connector-curvature="0" />
    <path
       id="path8617"
       style="fill:#e8c717;fill-opacity:1;fill-rule:nonzero;stroke:none"
       d="m 42.789931,13.422293 c 0,1.154739 0.935515,2.090254 2.091105,2.090254 1.154738,0 2.090254,-0.935515 2.090254,-2.090254 0,-1.153887 -0.935516,-2.090253 -2.090254,-2.090253 -1.15559,0 -2.091105,0.936366 -2.091105,2.090253"
       inkscape:connector-curvature="0" />
  </g>
</svg>
