<?xml version="1.0" encoding="UTF-8" standalone="no"?>
<!-- Created with Inkscape (http://www.inkscape.org/) -->

<svg
   xmlns:dc="http://purl.org/dc/elements/1.1/"
   xmlns:cc="http://creativecommons.org/ns#"
   xmlns:rdf="http://www.w3.org/1999/02/22-rdf-syntax-ns#"
   xmlns:svg="http://www.w3.org/2000/svg"
   xmlns="http://www.w3.org/2000/svg"
   xmlns:sodipodi="http://sodipodi.sourceforge.net/DTD/sodipodi-0.dtd"
   xmlns:inkscape="http://www.inkscape.org/namespaces/inkscape"
   width="64px"
   height="64px"
   id="svg172032"
   version="1.1"
   inkscape:version="0.48.5 r10040"
   sodipodi:docname="Nowy dokument 26">
  <defs
     id="defs172034" />
  <sodipodi:namedview
     id="base"
     pagecolor="#ffffff"
     bordercolor="#666666"
     borderopacity="1.0"
     inkscape:pageopacity="0.0"
     inkscape:pageshadow="2"
     inkscape:zoom="5.5"
     inkscape:cx="32"
     inkscape:cy="32"
     inkscape:current-layer="layer1"
     showgrid="true"
     inkscape:document-units="px"
     inkscape:grid-bbox="true"
     inkscape:window-width="1366"
     inkscape:window-height="706"
     inkscape:window-x="-8"
     inkscape:window-y="-8"
     inkscape:window-maximized="1" />
  <metadata
     id="metadata172037">
    <rdf:RDF>
      <cc:Work
         rdf:about="">
        <dc:format>image/svg+xml</dc:format>
        <dc:type
           rdf:resource="http://purl.org/dc/dcmitype/StillImage" />
        <dc:title></dc:title>
      </cc:Work>
    </rdf:RDF>
  </metadata>
  <g
     id="layer1"
     inkscape:label="Layer 1"
     inkscape:groupmode="layer">
    <g
       transform="matrix(0.70836349,0,0,-0.70836349,22.314061,17.604153)"
       id="g4577">
      <path
         id="path4579"
         style="fill:#000000;fill-opacity:1;fill-rule:nonzero;stroke:none"
         d="m 0,0 0.316,-0.057 c 1.811,0.078 2.555,2.256 3.319,3.54 0.931,2.516 3.324,8.65 3.324,8.65 C 6.671,8.535 5.095,2.611 8.381,0.013 c 3.588,-0.44 8.534,10.028 9.771,10.714 -1.192,-3.301 -2.316,-8.241 -1.51,-11.898 0.28,-0.386 0.943,-0.335 1.25,-0.056 3.439,2.13 6.332,6.358 8.857,9.37 -0.095,-1.29 -3.997,-9.462 -2.654,-11.254 1.426,-1.185 3.119,0.289 4.395,1.015 2.193,1.912 5.112,4.658 7.308,6.375 -0.641,-1.3 -2.315,-3.906 -3.11,-5.248 -0.79,-1.81 -2.383,-4.415 -0.636,-6.103 4.251,0.309 12.155,6.148 12.081,5.874 -2.626,-1.686 -4.747,-5.472 -5.95,-8.109 0.016,-0.898 0.537,-1.671 1.438,-1.85 4.147,-0.396 8.648,1.244 12.158,1.423 -2.797,-0.83 -5.888,-2.719 -7.241,-5.672 1.667,-3.836 6.722,-2.576 9.9,-3.458 l 0.003,-0.195 c -2.373,-0.55 -5.063,-0.714 -6.505,-3.121 -0.021,-1.055 1.156,-1.346 1.828,-1.842 2.521,-1.206 4.995,-2.022 7.735,-2.404 -3.622,-0.531 -7.967,0.057 -10.056,-3.338 1.545,-3.488 5.607,-3.495 8.597,-4.809 0,0 -5.484,0.997 -7.949,-0.92 -0.501,-0.399 -0.408,-1.296 -0.165,-1.76 2.284,-3.319 6.053,-4.503 9.584,-5.456 -2.256,0.048 -6.191,1.18 -9.854,0.765 -4.463,-0.927 2.328,-5.856 2.328,-5.856 -1.01,-0.291 -1.736,1.063 -2.718,1.359 -1.057,0.137 -2.01,1.058 -3.02,0.767 -0.224,-0.629 0.186,-1.715 -0.354,-2.076 -1.665,0.83 -2.786,1.473 -4.539,1.028 -1.031,-1.329 -3.066,-2.625 -7.76,-3.141 -3.216,-0.193 -6.626,-0.743 -9.76,0.329 -1.018,-0.22 -2.254,-0.247 -3.052,0.524 -0.604,0.026 -1.264,-0.138 -1.705,0.384 0.248,0.55 0.578,0.88 1.127,1.127 -2.887,0.798 -5.801,1.705 -8.439,3.244 -0.165,-1.045 1.155,-1.869 0.384,-2.969 -1.291,-1.347 -3.436,-1.044 -5.279,-0.934 -1.045,0.961 -2.913,-0.056 -3.903,1.127 -0.193,0.714 -1.183,0.219 -1.429,0.907 l 0.192,0.88 c -1.54,0 -2.749,0.439 -4.372,0.66 -0.549,0.989 -2.666,0.356 -2.089,1.896 0.769,1.155 2.144,1.787 3.355,2.309 -0.77,1.595 -0.358,3.437 -1.127,5.032 -2.228,1.402 -4.346,3.079 -6.846,3.739 -4.125,-0.825 -9.074,-0.33 -11.822,2.913 -0.137,0.496 -2.893,0.014 -3.492,2.97 -0.456,4.633 5.023,6.127 7.066,2.173 0.412,-0.441 1.265,-0.276 1.76,-0.138 -0.522,0.739 -0.985,1.527 -1.313,2.368 -1.064,0.134 -2.601,0.302 -3.302,0.373 0.224,0.551 0.72,1.223 0.24,1.879 -2.612,2.024 -9.233,3.275 -9.233,3.275 2.033,-0.199 4.852,-0.618 7.026,0.123 0.619,0.362 0.761,1.146 0.515,1.805 -1.726,2.625 -4.638,4.019 -7.126,5.577 3.508,-1.127 7.185,-2.218 8.929,-1.523 1.685,1.942 0.004,4.295 -0.847,6.077 -0.966,1.662 -2.24,3.046 -3.36,4.549 3.297,-3.039 7.985,-5.523 9.721,-4.321 1.535,1.549 1.223,3.77 1.621,5.534 -0.199,2.496 -0.918,7.911 -0.918,7.911 1.463,-3.333 2.615,-8.935 6.662,-10.349 0.943,-0.335 1.715,0.225 2.409,0.706 2.64,3.053 3.327,8.493 4.005,12.214 C -2.641,9.113 -1.473,1.321 0,0 m 3.221,-43.347 c 0.082,1.264 -0.77,2.254 -1.787,2.968 -1.21,-1.237 0.522,-2.033 0.33,-3.353 0.521,0.082 0.907,0.44 1.457,0.385"
         inkscape:connector-curvature="0" />
    </g>
    <g
       transform="matrix(0.70836349,0,0,-0.70836349,22.121738,27.880948)"
       id="g4581">
      <path
         id="path4583"
         style="fill:#f0d1a1;fill-opacity:1;fill-rule:nonzero;stroke:none"
         d="m 0,0 c 0.469,-0.989 0.413,-2.144 0.799,-3.162 0.438,0.276 0.494,1.018 0.906,1.458 0.742,1.209 2.034,1.622 3.299,1.512 1.705,-0.55 1.842,-2.392 2.062,-3.904 C 6.873,-5.608 6.571,-7.368 4.949,-7.918 4.096,-8.192 3.189,-7.67 2.447,-8.11 c 1.952,-1.155 4.262,-1.457 6.131,-2.777 2.639,-1.704 5.114,-3.986 7.506,-6.131 2.859,-3.408 4.288,-7.67 7.808,-10.557 0,0 -0.193,2.035 -0.276,3.107 1.293,-2.282 7.286,-8.028 8.524,-8.908 l 0.439,0.193 c 0.137,-0.248 0.358,-0.743 0.082,-1.073 l -0.33,-0.329 c -3.079,-0.523 -6.763,-0.715 -9.759,0.083 0.523,0.576 1.264,0.714 1.759,1.236 -0.907,0.165 -2.501,-1.319 -2.501,-1.319 -0.798,-0.055 -1.541,0.083 -2.173,0.412 0.55,0.413 1.404,0.77 2.173,0.99 l 0,0.192 c -1.045,0.055 -2.035,-0.357 -2.833,-1.044 l -0.714,0.192 c 3.254,2.846 8.413,1.265 9.018,1.237 -3.694,1.801 -6.625,1.033 -7.589,0.22 -3.464,0.825 -6.928,1.594 -9.897,3.629 -0.62,3.623 1.595,4.949 1.595,4.949 -2.941,0.073 -2.722,-4.756 -1.925,-7.011 0.138,-0.55 0.605,-0.99 0.22,-1.567 -1.54,-1.237 -3.712,-0.467 -5.416,-0.412 -0.193,0.852 1.402,1.924 1.32,1.924 -0.935,-0.11 -1.732,-0.77 -2.062,-1.649 -0.523,0.302 -1.401,-0.11 -1.76,0.467 0.33,0.743 1.651,1.897 1.651,1.897 -0.826,-0.412 -1.733,-0.715 -2.393,-1.512 l -0.468,0.192 c 0.496,1.43 2.394,1.952 3.63,2.255 0.357,0.467 -0.083,0.88 -0.055,1.374 -0.439,2.419 -2.997,6.846 -3.162,6.791 0.055,-0.522 1.842,-4.728 1.842,-4.728 -3.547,3.958 -12.592,9.017 -12.592,9.017 1.567,0.632 3.409,1.622 4.153,3.381 0.658,1.568 0.796,3.712 -0.467,5.141 0.768,0.468 1.594,0.963 2.5,0.853 0.11,0.192 -0.246,0.275 -0.385,0.412 -1.677,0.11 -3.16,-0.797 -3.902,-2.254 0.164,-0.192 0.328,-0.33 0.603,-0.275 0.33,0.165 0.385,0.77 0.797,0.605 0.77,-0.797 2.34,-6.377 -6.871,-7.863 -3.356,-0.165 -6.572,0.522 -8.964,2.721 1.183,0.193 3.763,1.122 3.3,4.152 4.834,-0.003 5.36,3.546 5.389,5.416 0,0 -0.148,2.655 -2.832,2.117 -1.045,-0.55 -1.788,-1.677 -1.651,-2.914 0.055,-0.798 0.139,-1.348 0.413,-2.035 -0.625,0.26 -0.559,1.013 -0.877,1.559 0.203,2.381 0.8,4.763 2.256,6.718 0.855,0.786 2.15,0.268 3.935,-2.932 1.709,2.763 4.968,5.197 8.201,5.682 1.096,0.097 1.963,-0.027 2.646,-0.316 C -0.822,1.98 -0.205,0.494 0,0"
         inkscape:connector-curvature="0" />
    </g>
    <g
       transform="matrix(0.70836349,0,0,-0.70836349,22.744321,30.739975)"
       id="g4585">
      <path
         id="path4587"
         style="fill:#deb37d;fill-opacity:1;fill-rule:nonzero;stroke:none"
         d="M 0,0 C 1.233,2.92 2.53,3.138 3.795,3.028 5.5,2.478 5.967,1.452 6.188,-0.06 5.994,-1.572 6.631,-4.425 1.568,-4.074 c 0.881,-0.521 3.914,-0.477 7.149,-0.392 4.893,-1.527 9.246,-4.365 12.734,-8.877 0.397,-0.305 -1.76,4.617 -2.806,6.512 2.402,-1.247 4.549,-3.435 6.266,-5.631 1,-1.35 1.537,-3.058 2.495,-4.252 0.192,0.277 -1.495,5.129 -2.08,7.344 4.568,-4.411 5.735,-10.834 6.654,-16.558 0.23,0.238 1.611,3.972 2.047,5.776 0.854,-1.859 1.319,-3.921 1.822,-5.904 0.214,-0.466 0.922,-1.599 1.56,-2.11 -2.596,-2.208 -5.957,-2.383 -5.957,-2.383 -3.079,-0.523 -6.763,-0.715 -9.759,0.083 0.523,0.576 1.264,0.714 1.759,1.236 -0.907,0.165 -2.501,-1.319 -2.501,-1.319 -0.798,-0.055 -1.541,0.083 -2.173,0.412 0.55,0.413 1.404,0.77 2.173,0.99 l 0,0.192 c -1.045,0.055 -2.035,-0.357 -2.833,-1.044 l -0.714,0.192 c 3.254,2.846 8.413,1.265 9.018,1.237 -3.693,1.801 -6.625,1.033 -7.589,0.22 -3.464,0.825 -6.928,1.594 -9.896,3.629 -0.621,3.623 1.594,4.949 1.594,4.949 -2.941,0.073 -2.721,-4.756 -1.925,-7.011 0.138,-0.55 0.605,-0.99 0.22,-1.567 -1.54,-1.237 -3.712,-0.467 -5.416,-0.412 -0.193,0.852 1.403,1.924 1.32,1.924 -0.935,-0.11 -1.732,-0.77 -2.062,-1.649 -0.266,0.154 -0.623,0.122 -0.959,0.131 0.327,0.781 0.942,1.651 2.086,1.97 2.26,0.631 1.15,3.276 0.862,4.618 -0.287,1.342 -4.905,7.549 -6.151,8.987 -1.246,1.437 -3.698,4.944 -3.698,4.944 0,0 0.532,-3.591 -4.763,-5.288 -0.434,0.251 -0.684,0.391 -0.684,0.391 1.567,0.632 3.41,1.622 4.153,3.381 0.658,1.568 0.797,3.712 -0.467,5.141 0.768,0.468 1.594,0.963 2.5,0.853 0.11,0.192 -0.246,0.275 -0.385,0.412 -1.677,0.11 -3.16,-0.797 -3.902,-2.254 0.164,-0.192 0.328,-0.33 0.603,-0.275 0.33,0.165 0.385,0.77 0.797,0.605 0.77,-0.797 2.34,-6.377 -6.871,-7.863 -3.355,-0.165 -6.572,0.522 -8.964,2.721 0.584,0.096 1.509,0.37 2.24,0.99 1.158,-0.512 3.079,-0.994 5.509,-0.252 4.082,1.247 5.768,3.124 5.768,3.124 0,0 -1.59,1.686 0.385,2.932 1.144,0.723 2.824,6.189 2.32,10.464 0.631,0.237 1.271,0.409 1.912,0.505 C -0.904,8.114 -0.018,5.336 0.028,2.37 -0.057,1.119 -0.086,0.228 0,0"
         inkscape:connector-curvature="0" />
    </g>
    <g
       transform="matrix(0.70836349,0,0,-0.70836349,25.099063,33.889217)"
       id="g4589">
      <path
         id="path4591"
         style="fill:#c2976c;fill-opacity:1;fill-rule:nonzero;stroke:none"
         d="m 0,0 c 1.391,-0.111 3.352,-0.073 5.393,-0.02 4.893,-1.527 9.246,-4.365 12.734,-8.877 0.396,-0.305 -1.76,4.617 -2.807,6.512 2.403,-1.247 4.55,-3.435 6.267,-5.631 1,-1.35 1.537,-3.058 2.495,-4.252 0.191,0.277 -1.495,5.129 -2.08,7.344 4.567,-4.411 5.734,-10.834 6.654,-16.558 0.23,0.238 1.611,3.972 2.047,5.776 0.854,-1.859 1.318,-3.921 1.821,-5.904 0.214,-0.466 0.923,-1.599 1.561,-2.11 -1.881,-1.6 -4.164,-2.132 -5.277,-2.305 -0.181,0.324 -0.321,0.62 -0.392,0.808 -0.364,2.013 -0.684,4.102 -1.405,6.016 -0.562,-1.769 -2.198,-5.397 -2.445,-5.618 -0.519,5.774 -1.234,12.262 -5.483,16.981 0.43,-2.251 1.773,-7.208 1.564,-7.471 -0.873,1.258 -1.29,3 -2.193,4.415 -1.559,2.311 -3.549,4.643 -5.86,6.055 0.914,-1.963 2.721,-7.024 2.347,-6.691 C 11.412,-6.244 5.561,-1.841 0,0"
         inkscape:connector-curvature="0" />
    </g>
    <g
       transform="matrix(0.70836349,0,0,-0.70836349,19.45433,31.249784)"
       id="g4593">
      <path
         id="path4595"
         style="fill:#000000;fill-opacity:1;fill-rule:nonzero;stroke:none"
         d="m 0,0 c 0.439,-0.11 0.962,-0.027 1.32,-0.33 -2.53,-0.22 -4.758,-0.605 -6.736,-2.227 -0.522,0.028 -0.055,0.687 -0.385,0.908 -1.203,1.178 -1.988,7.212 3.959,6.213 C 0.75,3.669 0.137,1.017 0,0"
         inkscape:connector-curvature="0" />
    </g>
    <g
       transform="matrix(0.70836349,0,0,-0.70836349,18.714158,28.621118)"
       id="g4597">
      <path
         id="path4599"
         style="fill:#ffffff;fill-opacity:1;fill-rule:nonzero;stroke:none"
         d="m 0,0 c 0.906,-0.989 0.99,-2.474 0.715,-3.766 -1.87,-0.192 -3.629,-0.55 -5.086,-1.732 -0.99,1.237 -0.962,3.134 -0.469,4.509 C -3.852,0.79 -1.704,1.21 0,0"
         inkscape:connector-curvature="0" />
    </g>
    <g
       transform="matrix(0.70836349,0,0,-0.70836349,12.015097,30.49063)"
       id="g4601">
      <path
         id="path4603"
         style="fill:#ffffff;fill-opacity:1;fill-rule:nonzero;stroke:none"
         d="m 0,0 c 0.494,-1.155 0.006,-2.957 -0.578,-3.299 -0.55,-0.193 -1.733,0.055 -2.447,-0.22 -0.687,1.127 -0.786,4.287 1.265,4.564 C -0.99,1.1 -0.385,0.522 0,0"
         inkscape:connector-curvature="0" />
    </g>
    <g
       transform="matrix(0.70836349,0,0,-0.70836349,11.274925,33.353128)"
       id="g4605">
      <path
         id="path4607"
         style="fill:#deb37d;fill-opacity:1;fill-rule:nonzero;stroke:none"
         d="m 0,0 c -0.357,-0.605 -0.963,-0.852 -1.457,-1.237 l -0.797,1.099 C -1.594,0.302 -0.715,0.055 0,0"
         inkscape:connector-curvature="0" />
    </g>
    <g
       transform="matrix(0.70836349,0,0,-0.70836349,22.121738,44.979568)"
       id="g4609">
      <path
         id="path4611"
         style="fill:#c2976c;fill-opacity:1;fill-rule:nonzero;stroke:none"
         d="M 0,0 C 0.44,-0.467 0.605,-1.072 0.907,-1.595 0.743,-2.255 0.139,-3.162 0.799,-3.766 1.32,-4.179 1.073,-4.921 1.567,-5.361 0.44,-6.433 -1.236,-5.828 -2.584,-5.609 c 0.139,0.577 0.825,0.935 1.266,1.375 -0.359,0.385 -1.816,-0.825 -1.844,-1.182 -0.549,-0.275 -0.961,0.165 -1.401,0.384 -0.083,0.66 1.099,0.99 0.852,1.595 -1.127,0.165 -1.182,-2.254 -2.227,-0.989 0.739,2.735 5.372,0.691 3.161,4.426 0.715,0.687 2.035,0.687 2.777,0"
         inkscape:connector-curvature="0" />
    </g>
    <g
       transform="matrix(0.70836349,0,0,-0.70836349,4.0536525,35.368209)"
       id="g4613">
      <path
         id="path4615"
         style="fill:#000000;fill-opacity:1;fill-rule:nonzero;stroke:none"
         d="m 0,0 c 0,1.618 1.313,2.931 2.933,2.931 1.619,0 2.93,-1.313 2.93,-2.931 0,-1.62 -1.311,-2.932 -2.93,-2.932 C 1.313,-2.932 0,-1.62 0,0"
         inkscape:connector-curvature="0" />
    </g>
    <g
       transform="matrix(0.70836349,0,0,-0.70836349,3.9858651,34.961821)"
       id="g4617">
      <path
         id="path4619"
         style="fill:#b0b1b3;fill-opacity:1;fill-rule:nonzero;stroke:none"
         d="M 0,0 C 0,1.249 1.012,2.262 2.261,2.262 3.51,2.262 4.522,1.249 4.522,0 4.522,-1.248 3.51,-2.26 2.261,-2.26 1.012,-2.26 0,-1.248 0,0"
         inkscape:connector-curvature="0" />
    </g>
    <g
       transform="matrix(0.70836349,0,0,-0.70836349,4.6367832,34.587876)"
       id="g4621">
      <path
         id="path4623"
         style="fill:#ffffff;fill-opacity:1;fill-rule:nonzero;stroke:none"
         d="M 0,0 C 0,0.503 0.408,0.911 0.91,0.911 1.414,0.911 1.82,0.503 1.82,0 1.82,-0.503 1.414,-0.911 0.91,-0.911 0.408,-0.911 0,-0.503 0,0"
         inkscape:connector-curvature="0" />
    </g>
    <g
       transform="matrix(0.70836349,0,0,-0.70836349,18.714158,28.621118)"
       id="g4625">
      <path
         id="path4627"
         style="fill:#dce8eb;fill-opacity:1;fill-rule:nonzero;stroke:none"
         d="m 0,0 c 0.906,-0.989 0.99,-2.474 0.715,-3.766 -0.479,-0.049 -0.951,-0.109 -1.412,-0.191 0.185,1.199 0.042,2.505 -0.782,3.403 -0.754,0.535 -1.594,0.752 -2.383,0.672 C -2.766,0.898 -1.262,0.896 0,0 m -3.184,-4.735 c -0.414,-0.207 -0.811,-0.458 -1.187,-0.763 -0.067,0.084 -0.129,0.17 -0.188,0.26 0.442,0.211 0.9,0.374 1.375,0.503"
         inkscape:connector-curvature="0" />
    </g>
    <g
       transform="matrix(0.70836349,0,0,-0.70836349,12.015097,30.49063)"
       id="g4629">
      <path
         id="path4631"
         style="fill:#dce8eb;fill-opacity:1;fill-rule:nonzero;stroke:none"
         d="m 0,0 c 0.494,-1.155 0.006,-2.957 -0.578,-3.299 -0.259,-0.09 -0.659,-0.083 -1.084,-0.079 0.368,0.701 0.558,1.949 0.183,2.823 -0.317,0.431 -0.783,0.898 -1.367,1.019 0.262,0.305 0.617,0.518 1.086,0.581 C -0.99,1.1 -0.385,0.522 0,0"
         inkscape:connector-curvature="0" />
    </g>
    <g
       transform="matrix(0.70836349,0,0,-0.70836349,10.363193,31.06993)"
       id="g4633">
      <path
         id="path4635"
         style="fill:#000000;fill-opacity:1;fill-rule:nonzero;stroke:none"
         d="m 0,0 c 0,0.697 0.564,1.262 1.261,1.262 0.697,0 1.26,-0.565 1.26,-1.262 0,-0.696 -0.563,-1.261 -1.26,-1.261 C 0.564,-1.261 0,-0.696 0,0"
         inkscape:connector-curvature="0" />
    </g>
    <g
       transform="matrix(0.70836349,0,0,-0.70836349,17.164616,29.675376)"
       id="g4637">
      <path
         id="path4639"
         style="fill:#000000;fill-opacity:1;fill-rule:nonzero;stroke:none"
         d="M 0,0 C 0,0.85 0.688,1.539 1.538,1.539 2.389,1.539 3.076,0.85 3.076,0 3.076,-0.85 2.389,-1.539 1.538,-1.539 0.688,-1.539 0,-0.85 0,0"
         inkscape:connector-curvature="0" />
    </g>
    <g
       transform="matrix(0.70836349,0,0,-0.70836349,10.363193,30.973097)"
       id="g4641">
      <path
         id="path4643"
         style="fill:#ffffff;fill-opacity:1;fill-rule:nonzero;stroke:none"
         d="M 0,0 C 0,0.358 0.289,0.648 0.646,0.648 1.003,0.648 1.293,0.358 1.293,0 1.293,-0.356 1.003,-0.646 0.646,-0.646 0.289,-0.646 0,-0.356 0,0"
         inkscape:connector-curvature="0" />
    </g>
    <g
       transform="matrix(0.70836349,0,0,-0.70836349,17.098874,29.537032)"
       id="g4645">
      <path
         id="path4647"
         style="fill:#ffffff;fill-opacity:1;fill-rule:nonzero;stroke:none"
         d="M 0,0 C 0,0.441 0.358,0.799 0.8,0.799 1.241,0.799 1.599,0.441 1.599,0 1.599,-0.442 1.241,-0.8 0.8,-0.8 0.358,-0.8 0,-0.442 0,0"
         inkscape:connector-curvature="0" />
    </g>
    <g
       transform="matrix(0.70836349,0,0,-0.70836349,22.687578,30.120865)"
       id="g4649">
      <path
         id="path4651"
         style="fill:#c9ac7a;fill-opacity:1;fill-rule:nonzero;stroke:none"
         d="M 0,0 C 0.438,0.276 0.494,1.018 0.906,1.458 1.648,2.667 2.94,3.08 4.205,2.97 5.91,2.42 6.047,0.578 6.268,-0.934 6.279,-2.2 6.388,-4.249 4.15,-4.756 3.312,-5.027 3.266,-4.9 1.723,-4.946 1.772,-5.01 1.758,-5.013 1.648,-4.948 l 0.075,0.002 c -0.239,0.302 -1.906,1.959 -1.906,4.36 0,0.328 0.136,0.71 0.183,0.586"
         inkscape:connector-curvature="0" />
    </g>
    <g
       transform="matrix(0.70836349,0,0,-0.70836349,22.358331,31.178877)"
       id="g4653">
      <path
         id="path4655"
         style="fill:#c2976c;fill-opacity:1;fill-rule:nonzero;stroke:none"
         d="M 0,0 C 0,1.69 1.196,3.06 2.674,3.06 4.149,3.06 5.348,1.69 5.348,0 5.348,-1.69 4.149,-3.061 2.674,-3.061 1.196,-3.061 0,-1.69 0,0"
         inkscape:connector-curvature="0" />
    </g>
    <g
       transform="matrix(0.70836349,0,0,-0.70836349,25.80261,31.717446)"
       id="g4657">
      <path
         id="path4659"
         style="fill:#000000;fill-opacity:1;fill-rule:nonzero;stroke:none"
         d="M 0,0 C -0.11,-0.055 -0.043,5.175 -2.502,1.98 -2.64,1.622 -2.804,1.292 -2.832,0.935 -2.337,0.825 -1.676,0.66 -1.567,0.083 -1.457,-0.495 -1.676,-0.852 -2.172,-1.044 -2.694,-1.21 -3.188,-0.879 -3.299,-0.385 -3.685,0.935 -3.161,2.2 -2.31,3.244 0.437,4.983 0.248,0.908 0,0"
         inkscape:connector-curvature="0" />
    </g>
    <g
       transform="matrix(0.70836349,0,0,-0.70836349,24.322912,31.950568)"
       id="g4661">
      <path
         id="path4663"
         style="fill:#764e33;fill-opacity:1;fill-rule:nonzero;stroke:none"
         d="M 0,0 C -0.137,-0.138 -0.275,-0.221 -0.467,-0.193 -0.577,0.054 -0.88,0.384 -0.605,0.659 -0.248,0.659 0.302,0.467 0,0"
         inkscape:connector-curvature="0" />
    </g>
    <g
       transform="matrix(0.70836349,0,0,-0.70836349,33.527529,18.774936)"
       id="g4665">
      <path
         id="path4667"
         style="fill:#9d5f1b;fill-opacity:1;fill-rule:nonzero;stroke:none"
         d="M 0,0 C 0.563,-0.967 1.652,-0.675 2.427,-0.31 4.785,1.059 6.852,3.438 8.535,5.42 7.677,3.18 6.743,0.742 7.334,-1.825 7.896,-2.674 9.038,-3.24 10.163,-2.83 c 2.407,0.784 4.243,2.964 6.286,4.523 -1.099,-1.894 -2.382,-4.494 -1.636,-6.941 0.528,-1.123 1.741,-1.258 2.829,-1.005 2.371,0.666 4.416,2.108 6.583,3.2 -1.257,-1.818 -3.643,-3.812 -2.43,-6.212 1.13,-2.05 3.807,-1.105 5.641,-1.034 l 3.659,0.727 c -1.306,-1.233 -3.583,-2.795 -3.116,-5.014 1.14,-2.635 4.069,-2.662 6.535,-2.97 -1.282,-0.452 -2.399,-1.331 -3.237,-2.517 -0.298,-0.864 0.108,-1.638 0.781,-2.212 1.272,-1.228 3.03,-1.275 4.452,-2.187 -2.178,-0.546 -4.785,-1.06 -5.76,-3.381 -0.24,-1.878 1.73,-2.977 3.072,-3.773 0.279,-0.268 0.668,-0.262 1.022,-0.373 -1.563,0.012 -3.153,-0.602 -3.789,-2.136 -0.358,-1.92 1.232,-3.493 2.617,-4.523 l 1.303,-0.836 c -1.483,-0.026 -4.461,0.547 -5.603,-1.113 -0.101,-0.978 0.191,-2.066 0.905,-2.718 -0.51,0.187 -1.567,0.363 -2.345,0.154 -0.578,-0.478 -0.445,-1.413 -0.435,-1.882 -1.43,1.342 -3.623,1.733 -5.644,1.19 -0.675,2.839 -1.317,6.108 -3.082,8.694 -1.281,-2.125 -1.582,-5.573 -1.582,-5.573 -1.005,6.153 -2.535,13.272 -8.609,16.797 0,0 0.431,-2.335 0.801,-3.422 -2.112,2.462 -5.08,4.715 -7.988,5.757 -0.278,0.269 3.298,-5.566 3.298,-5.566 -3.433,3.8 -7.994,6.199 -13.011,7.356 0.257,0.588 0.449,1.247 0.4,1.941 -0.678,9.777 -5.995,5.119 -6.654,4.617 -0.04,3.789 -1.36,6.672 -8.038,4.432 -2.406,-0.901 -4.64,-2.619 -6.008,-4.791 -0.642,0.965 -1.336,2.749 -2.86,2.762 -2.546,0.025 -3.718,-6.235 -3.921,-8.035 -0.588,0.107 -1.05,-0.214 -1.677,-0.107 0.38,0.592 0.127,1.681 -0.391,2.219 -0.953,0.92 -2.093,1.33 -3.23,1.662 0.894,0.21 1.584,0.965 1.919,1.908 0.049,1.64 -1.025,2.793 -2.294,3.865 1.211,-0.019 2.427,-0.31 3.47,0.373 1.193,0.996 1.674,2.528 1.139,4.041 l -1.379,2.983 c 1.612,-0.636 4.219,-2.347 5.906,-0.561 1.762,1.984 1.988,4.682 1.943,7.258 1.129,-2.049 2.998,-3.969 5.235,-4.594 2.459,0.004 3.859,2.645 4.879,4.576 l 1.059,4.196 c 0.355,-2.414 0.281,-7.14 3.075,-8.341 2.11,-0.12 3.044,2.357 4.151,3.704 l 1.334,4.201 c -0.111,-2.579 -0.006,-6.404 2.477,-7.688 2.538,0.044 4.605,2.345 6.173,4.325 l 2.285,3.32 C 0.016,5.779 -1.026,2.832 0,0"
         inkscape:connector-curvature="0" />
    </g>
    <g
       transform="matrix(0.70836349,0,0,-0.70836349,33.527529,18.774936)"
       id="g4669">
      <path
         id="path4671"
         style="fill:#b1793c;fill-opacity:1;fill-rule:nonzero;stroke:none"
         d="M 0,0 C 0.563,-0.967 1.652,-0.675 2.427,-0.31 4.785,1.059 6.852,3.438 8.535,5.42 7.677,3.18 6.743,0.742 7.334,-1.825 7.896,-2.674 9.038,-3.24 10.163,-2.83 c 2.407,0.784 4.243,2.964 6.286,4.523 -1.099,-1.894 -2.382,-4.494 -1.636,-6.941 0.528,-1.123 1.741,-1.258 2.829,-1.005 2.371,0.666 4.416,2.108 6.583,3.2 -1.257,-1.818 -3.643,-3.812 -2.43,-6.212 1.13,-2.05 3.807,-1.105 5.641,-1.034 0,0 -5.043,-2.638 -6.479,-0.79 -1.574,2.181 0.471,4.524 1.428,6.516 -1.97,-1.418 -3.764,-3.161 -6.001,-4.19 -1.036,-0.42 -2.255,-0.477 -2.952,0.55 -1.119,2.3 -0.259,5.069 0.531,7.111 C 12.189,-2.961 10.716,-5.401 8.462,-6.552 7.414,-7.133 6.196,-6.753 5.51,-6.002 4.523,-3.559 5.064,-1.006 5.563,1.342 4.21,-0.879 2.539,-3.552 0.425,-5.273 -0.282,-5.755 -1.312,-6.214 -2.02,-5.348 -3.475,-2.71 -2.907,0.363 -2.678,3.1 l -1.736,-3.636 c -1.237,-2.201 -2.92,-4.797 -5.42,-5.238 -2.653,0.88 -3.355,4.642 -3.649,7.206 l -0.66,-4.358 c -0.883,-1.504 -1.419,-4.096 -3.521,-4.308 -2.947,0.749 -3.614,5.429 -4.342,7.759 l -0.39,-4.311 c -0.706,-2.067 -1.674,-4.895 -4.103,-5.283 -2.308,0.267 -0.595,-3.831 -2.031,-1.983 0.34,-1.93 -3.322,1.748 -3.875,-0.094 -0.701,-0.455 -1.267,-1.409 -1.711,-2.511 -1.392,-0.683 -3.322,0.044 -4.683,0.393 0.068,1.692 -1.006,2.845 -2.275,3.917 1.211,-0.019 2.427,-0.31 3.47,0.373 1.193,0.996 1.674,2.528 1.139,4.041 l -1.379,2.983 c 1.612,-0.636 4.219,-2.347 5.906,-0.561 1.762,1.984 1.988,4.682 1.943,7.258 1.129,-2.049 2.998,-3.969 5.235,-4.594 2.459,0.004 3.859,2.645 4.879,4.576 l 1.059,4.196 c 0.355,-2.414 0.281,-7.14 3.075,-8.341 2.11,-0.12 3.044,2.357 4.151,3.704 l 1.334,4.201 c -0.111,-2.579 -0.006,-6.404 2.477,-7.688 2.538,0.044 4.605,2.345 6.173,4.325 l 2.285,3.32 C 0.016,5.779 -1.026,2.832 0,0"
         inkscape:connector-curvature="0" />
    </g>
    <g
       transform="matrix(0.70836349,0,0,-0.70836349,7.3865764,31.844384)"
       id="g4673">
      <path
         id="path4675"
         style="fill:#774019;fill-opacity:1;fill-rule:nonzero;stroke:none"
         d="m 0,0 c 0.054,0.576 -0.185,1.272 -0.565,1.668 -0.954,0.92 -2.093,1.33 -3.231,1.662 0.804,0.189 1.442,0.817 1.807,1.628 L -0.36,2.527 C 0.084,1.706 0.19,0.824 0,0"
         inkscape:connector-curvature="0" />
    </g>
    <g
       transform="matrix(0.70836349,0,0,-0.70836349,33.896938,19.139814)"
       id="g4677">
      <path
         id="path4679"
         style="fill:#9c6024;fill-opacity:1;fill-rule:nonzero;stroke:none"
         d="M 0,0 C 0.579,-0.298 1.329,-0.066 1.905,0.205 4.264,1.574 6.33,3.953 8.014,5.935 7.544,4.71 7.053,3.426 6.799,2.094 6.134,1.385 5.428,0.691 4.686,0.066 4.79,0.672 4.917,1.271 5.041,1.857 4.477,0.928 3.855,-0.079 3.168,-1.063 3.019,-1.16 2.866,-1.254 2.713,-1.342 1.938,-1.708 0.85,-2 0.286,-1.034 0.162,-0.69 0.068,-0.346 0,0"
         inkscape:connector-curvature="0" />
    </g>
    <g
       transform="matrix(0.70836349,0,0,-0.70836349,18.152426,19.160924)"
       id="g4681">
      <path
         id="path4683"
         style="fill:#9c6024;fill-opacity:1;fill-rule:nonzero;stroke:none"
         d="m 0,0 c -0.104,0.39 -0.201,0.751 -0.301,1.07 l -0.125,-1.376 c -0.534,-0.338 -1.137,-0.543 -1.822,-0.544 -2.236,0.625 -4.106,2.545 -5.234,4.595 0.044,-2.577 -0.181,-5.276 -1.944,-7.259 -1.686,-1.786 -4.293,-0.075 -5.905,0.561 l 1.38,-2.982 c 0.534,-1.514 0.053,-3.045 -1.141,-4.042 -0.832,-0.545 -1.774,-0.47 -2.737,-0.408 -0.409,0.575 -0.953,1.088 -1.54,1.583 1.211,-0.019 2.427,-0.31 3.47,0.373 1.193,0.996 1.674,2.528 1.139,4.041 l -1.379,2.983 c 1.612,-0.636 4.219,-2.347 5.906,-0.561 1.762,1.984 1.988,4.682 1.943,7.258 1.129,-2.049 2.998,-3.969 5.235,-4.594 2.459,0.004 3.859,2.645 4.879,4.576 L 2.883,9.47 C 3.012,8.594 3.085,7.412 3.258,6.205 L 2.632,3.726 C 1.974,2.479 1.158,0.938 0,0"
         inkscape:connector-curvature="0" />
    </g>
    <g
       transform="matrix(0.70836349,0,0,-0.70836349,24.166573,19.051269)"
       id="g4685">
      <path
         id="path4687"
         style="fill:#9c6024;fill-opacity:1;fill-rule:nonzero;stroke:none"
         d="M 0,0 C -0.119,0.636 -0.205,1.258 -0.269,1.822 L -0.601,-0.37 c -0.335,-0.15 -0.707,-0.228 -1.124,-0.205 -1.068,0.46 -1.717,1.435 -2.131,2.599 0.35,-0.454 0.783,-0.818 1.324,-1.05 2.11,-0.12 3.044,2.357 4.151,3.704 L 2.953,8.879 C 2.906,7.788 2.897,6.473 3.092,5.222 L 2.429,3.13 C 1.679,2.219 1.009,0.791 0,0"
         inkscape:connector-curvature="0" />
    </g>
    <g
       transform="matrix(0.70836349,0,0,-0.70836349,31.508976,17.86731)"
       id="g4689">
      <path
         id="path4691"
         style="fill:#9c6024;fill-opacity:1;fill-rule:nonzero;stroke:none"
         d="m 0,0 c 0.057,0.617 0.123,1.226 0.172,1.819 l -1.32,-2.765 c -0.907,-0.637 -1.901,-1.063 -2.98,-1.082 -0.995,0.516 -1.608,1.44 -1.979,2.528 0.314,-0.401 0.701,-0.736 1.171,-0.98 2.539,0.044 4.606,2.345 6.173,4.325 l 2.285,3.32 C 3.197,5.845 2.778,4.457 2.562,3.048 L 2.045,2.297 C 1.438,1.53 0.756,0.714 0,0"
         inkscape:connector-curvature="0" />
    </g>
    <g
       transform="matrix(0.70836349,0,0,-0.70836349,44.471178,23.029934)"
       id="g4693">
      <path
         id="path4695"
         style="fill:#9c6024;fill-opacity:1;fill-rule:nonzero;stroke:none"
         d="M 0,0 C 0.606,-0.41 1.43,-0.424 2.192,-0.246 4.563,0.42 6.608,1.862 8.775,2.954 8.068,1.93 7.004,0.852 6.424,-0.324 6.214,-0.438 6.002,-0.549 5.789,-0.657 6.176,0.066 6.615,0.77 6.936,1.434 5.452,0.367 4.069,-0.885 2.521,-1.878 1.574,-1.987 0.622,-1.749 0.173,-0.789 0.093,-0.527 0.035,-0.264 0,0"
         inkscape:connector-curvature="0" />
    </g>
    <g
       transform="matrix(0.70836349,0,0,-0.70836349,39.193014,20.549953)"
       id="g4697">
      <path
         id="path4699"
         style="fill:#9c6024;fill-opacity:1;fill-rule:nonzero;stroke:none"
         d="M 0,0 C 0.597,-0.423 1.385,-0.608 2.165,-0.324 4.572,0.46 6.408,2.64 8.451,4.199 7.851,3.164 7.194,1.917 6.846,0.601 6.333,0.158 5.813,-0.274 5.273,-0.658 5.471,0.075 5.721,0.774 5.965,1.404 5.017,0.411 4.155,-0.748 3.215,-1.788 L 2.974,-1.872 C 1.848,-2.282 0.706,-1.716 0.144,-0.867 0.076,-0.577 0.029,-0.288 0,0"
         inkscape:connector-curvature="0" />
    </g>
    <g
       transform="matrix(0.70836349,0,0,-0.70836349,34.363182,29.155153)"
       id="g4701">
      <path
         id="path4703"
         style="fill:#774019;fill-opacity:1;fill-rule:nonzero;stroke:none"
         d="m 0,0 c 0.755,-0.728 1.48,0.222 2.22,0.351 3.094,1.695 9.268,5.942 9.268,5.942 0,0 -4.588,-5.586 -4.414,-8.863 1.026,-0.568 2.699,-0.266 3.75,-0.052 2.447,0.746 4.932,1.531 7.459,2.2 0.045,-0.312 -4.547,-3.477 -5.715,-5.919 2.087,-1.017 4.267,-0.589 6.381,-0.904 -2.337,-0.353 -5.022,-0.868 -7.118,0.618 0.597,1.791 3.274,4.274 3.778,4.779 C 14.877,-2.438 9.631,-4.149 6.813,-3.239 5.067,-1.508 9.112,3.752 9.112,3.752 8.642,3.822 3.356,0.137 1.03,-0.802 0.137,-1.052 -0.693,-0.52 -0.941,0.296 -1.021,2.638 -0.395,4.719 0.548,6.687 -0.838,5.531 -1.813,3.249 -3.595,2.398 -3.822,2.003 -5.102,1.434 -5.102,1.434 -2.064,4.182 0.41,7.857 2.694,11.216 2.85,11.257 -0.693,3.971 0,0"
         inkscape:connector-curvature="0" />
    </g>
    <g
       transform="matrix(0.70836349,0,0,-0.70836349,57.838773,31.194815)"
       id="g4705">
      <path
         id="path4707"
         style="fill:#774019;fill-opacity:1;fill-rule:nonzero;stroke:none"
         d="m 0,0 0.193,-0.023 c -1.281,-0.452 -2.398,-1.331 -3.236,-2.517 -0.298,-0.864 0.107,-1.638 0.78,-2.212 1.273,-1.228 3.031,-1.275 4.452,-2.187 -2.177,-0.546 -4.785,-1.06 -5.759,-3.381 -0.241,-1.878 1.73,-2.977 3.072,-3.773 0.278,-0.268 0.668,-0.262 1.021,-0.373 -1.562,0.012 -3.152,-0.602 -3.789,-2.136 -0.357,-1.92 1.233,-3.493 2.618,-4.523 l 1.302,-0.836 c -1.482,-0.026 -4.461,0.547 -5.602,-1.113 -0.102,-0.978 0.191,-2.066 0.905,-2.718 -0.511,0.187 -1.567,0.363 -2.346,0.154 -0.577,-0.478 -0.444,-1.413 -0.434,-1.882 -1.43,1.342 -3.623,1.733 -5.645,1.19 -0.675,2.839 -1.316,6.108 -3.081,8.694 -1.281,-2.125 -1.582,-5.573 -1.582,-5.573 -1.006,6.153 -2.535,13.272 -8.609,16.797 0,0 0.43,-2.335 0.801,-3.422 -2.113,2.462 -5.081,4.715 -7.989,5.757 -0.277,0.269 3.299,-5.566 3.299,-5.566 -3.434,3.8 -7.994,6.199 -13.012,7.356 0.257,0.588 0.401,1.245 0.401,1.941 0,0.198 -0.012,0.393 -0.033,0.584 3.541,-1.057 6.404,-3.032 9.447,-6.401 0,0 -3.576,5.834 -3.299,5.565 2.908,-1.042 7.251,-3.501 9.363,-5.964 -0.37,1.087 -0.801,3.423 -0.801,3.423 6.076,-3.526 9.392,-9.827 10.397,-15.979 0,0 -0.103,2.083 1.18,4.207 1.762,-2.585 4.05,-6.433 4.724,-9.271 1.429,-1.38 2.559,-1.073 3.135,-0.594 0.777,0.209 1.29,0.669 1.802,0.483 -0.715,0.651 -1.008,1.739 -0.906,2.717 1.141,1.661 3.588,0.434 5.072,0.461 l -1.304,0.835 c -1.384,1.031 -2.783,1.59 -2.427,3.51 0.638,1.534 2.228,2.147 3.79,2.136 -0.352,0.111 -0.744,0.104 -1.021,0.372 -1.343,0.797 -2.383,2.521 -2.142,4.399 0.974,2.322 3.582,2.836 5.759,3.381 -2.476,-0.091 -3.935,0.892 -5.207,2.12 C -4.755,-1.86 -2.31,-0.657 0,0"
         inkscape:connector-curvature="0" />
    </g>
    <g
       transform="matrix(0.70836349,0,0,-0.70836349,13.640076,18.998708)"
       id="g4709">
      <path
         id="path4711"
         style="fill:#774019;fill-opacity:1;fill-rule:nonzero;stroke:none"
         d="m 0,0 c 5.065,-12.477 7.845,-2.011 9.099,-0.037 0.233,0.044 -0.278,-4.261 1.037,-5.683 0.98,-0.295 1.996,-0.277 2.967,0.052 C 12.377,-6.618 10.896,-6.722 9.757,-6.391 8.33,-5.166 8.842,-3.165 8.813,-1.526 8.103,-3.373 7.133,-7.057 3.866,-6.688 2.604,-5.968 1.839,-4.693 1.077,-3.535 1.256,-4.821 0.726,-7.993 0.493,-8.075 0.875,-5.374 -0.233,-0.004 0,0"
         inkscape:connector-curvature="0" />
    </g>
  </g>
</svg>
