<?xml version="1.0" encoding="UTF-8" standalone="no"?>
<!-- Created with Inkscape (http://www.inkscape.org/) -->

<svg
   xmlns:dc="http://purl.org/dc/elements/1.1/"
   xmlns:cc="http://creativecommons.org/ns#"
   xmlns:rdf="http://www.w3.org/1999/02/22-rdf-syntax-ns#"
   xmlns:svg="http://www.w3.org/2000/svg"
   xmlns="http://www.w3.org/2000/svg"
   xmlns:sodipodi="http://sodipodi.sourceforge.net/DTD/sodipodi-0.dtd"
   xmlns:inkscape="http://www.inkscape.org/namespaces/inkscape"
   width="64px"
   height="64px"
   id="svg168429"
   version="1.1"
   inkscape:version="0.48.5 r10040"
   sodipodi:docname="Nowy dokument 14">
  <defs
     id="defs168431" />
  <sodipodi:namedview
     id="base"
     pagecolor="#ffffff"
     bordercolor="#666666"
     borderopacity="1.0"
     inkscape:pageopacity="0.0"
     inkscape:pageshadow="2"
     inkscape:zoom="5.5"
     inkscape:cx="32"
     inkscape:cy="30.926074"
     inkscape:current-layer="layer1"
     showgrid="true"
     inkscape:document-units="px"
     inkscape:grid-bbox="true"
     inkscape:window-width="1366"
     inkscape:window-height="706"
     inkscape:window-x="-8"
     inkscape:window-y="-8"
     inkscape:window-maximized="1" />
  <metadata
     id="metadata168434">
    <rdf:RDF>
      <cc:Work
         rdf:about="">
        <dc:format>image/svg+xml</dc:format>
        <dc:type
           rdf:resource="http://purl.org/dc/dcmitype/StillImage" />
        <dc:title></dc:title>
      </cc:Work>
    </rdf:RDF>
  </metadata>
  <g
     id="layer1"
     inkscape:label="Layer 1"
     inkscape:groupmode="layer">
    <g
       transform="matrix(0.69043,0,0,-0.69043,45.233074,1.2498103)"
       id="g9429">
      <path
         id="path9431"
         style="fill:#000000;fill-opacity:1;fill-rule:nonzero;stroke:none"
         d="m 0,0 c 0.852,-1.964 2.296,-3.668 2.722,-5.797 0.804,-3.242 0.173,-5.284 -3.573,-7.714 -3.479,-1.846 -7.809,-1.822 -11.809,-2.224 -4.187,-0.617 -8.802,-0.356 -11.239,-4.378 -0.71,-1.184 -2.669,-4.712 8.179,-8.599 2.816,-1.041 5.593,-2.074 8.054,-3.99 1.254,-1.112 2.2,-2.817 1.656,-4.496 -0.952,-2.881 -10.968,-7.801 -13.015,-8.85 2.793,-0.639 9.613,-2.314 9.407,-13.883 0.047,-8.068 -5.428,-16.455 -13.083,-19.797 -4.425,-1.939 -9.251,-2.181 -15.46,4.108 -1.765,0.188 -7.906,3.203 -6.689,13.799 1.292,7.15 5.485,13.066 10.278,15.912 3.384,2.106 8.143,4.399 12.589,0.358 2.887,1.609 14.905,7.733 13.228,9.773 -1.157,3.759 -11.468,5.376 -15.499,8.967 -1.774,1.634 -2.887,3.763 -2.2,6.201 1.23,3.786 5.347,5.277 8.802,6.081 5.348,1.466 11.831,0.521 16.682,3.407 1.491,0.758 2.107,2.39 1.988,3.976 C 0.994,-4.307 -1.159,-2.319 -2.508,0 -2.484,0.568 -0.378,0.639 0,0"
         inkscape:connector-curvature="0" />
    </g>
    <g
       transform="matrix(0.69043,0,0,-0.69043,36.847438,37.109016)"
       id="g9433">
      <path
         id="path9435"
         style="fill:#dc9879;fill-opacity:1;fill-rule:nonzero;stroke:none"
         d="m 0,0 c -3.359,1.94 -7.625,4.473 -11.984,2.49 -5.584,-2.082 -9.537,-7.832 -11.809,-12.942 -3.292,-10.355 1.256,-14.908 2.65,-16.068 -3.999,2.106 -5.915,6.555 -5.725,10.91 0.188,5.702 2.627,10.481 6.199,14.811 3.882,3.928 8.685,6.319 14.41,5.632 C -4.27,4.313 -1.104,3.463 0,0"
         inkscape:connector-curvature="0" />
    </g>
    <g
       transform="matrix(0.69043,0,0,-0.69043,21.778045,41.301444)"
       id="g9437">
      <path
         id="path9439"
         style="fill:#c00a21;fill-opacity:1;fill-rule:nonzero;stroke:none"
         d="M 0,0 C 4.914,8.178 13.492,12.046 19.162,8.639 24.831,5.232 25.442,-4.157 20.529,-12.335 15.615,-20.514 7.037,-24.382 1.367,-20.975 -4.302,-17.568 -4.913,-8.178 0,0"
         inkscape:connector-curvature="0" />
    </g>
    <g
       transform="matrix(0.69043,0,0,-0.69043,34.262401,36.57766)"
       id="g9441">
      <path
         id="path9443"
         style="fill:#000000;fill-opacity:1;fill-rule:nonzero;stroke:none"
         d="m 0,0 c 4.128,-2.479 5.363,-10.254 0.65,-18.097 -4.713,-7.844 -12.158,-10.402 -16.285,-7.923 -4.127,2.481 -5.363,10.254 -0.65,18.099 C -11.572,-0.078 -4.127,2.479 0,0"
         inkscape:connector-curvature="0" />
    </g>
    <g
       transform="matrix(0.69043,0,0,-0.69043,34.400625,48.886094)"
       id="g9445">
      <path
         id="path9447"
         style="fill:#ebcd00;fill-opacity:1;fill-rule:nonzero;stroke:none"
         d="m 0,0 c -4.657,-7.752 -11.818,-9.993 -15.564,-7.742 -3.746,2.251 -5.129,9.625 -0.471,17.377 4.657,7.753 11.817,9.993 15.564,7.742 C 3.275,15.126 4.658,7.752 0,0"
         inkscape:connector-curvature="0" />
    </g>
    <g
       transform="matrix(0.69043,0,0,-0.69043,44.873664,1.4136463)"
       id="g9449">
      <path
         id="path9451"
         style="fill:#f5d75c;fill-opacity:1;fill-rule:nonzero;stroke:none"
         d="m 0,0 c 1.633,-2.886 4.461,-6.206 2.598,-9.915 -3.077,-5.04 -9.886,-4.164 -14.974,-5.016 -4.235,-0.472 -9.347,-0.567 -11.689,-5.04 -0.781,-1.657 -0.189,-3.596 1.017,-4.827 2.082,-2.437 5.088,-2.863 7.667,-4.26 3.385,-1.159 7.075,-2.437 9.205,-5.63 0.356,-1.041 0.378,-2.296 -0.45,-3.125 -3.81,-3.124 -7.81,-5.146 -12.021,-7.512 -0.144,0.189 -0.899,-0.297 -0.946,0.082 l 0,0.213 c 3.336,2.035 6.816,3.692 10.009,6.081 0.924,1.042 6.108,4.018 -4.661,8.472 -4.023,1.254 -8.566,2.721 -11.026,6.697 -0.45,1.324 -0.403,2.933 0.189,4.187 3.454,5.089 9.819,4.97 14.978,5.798 4.071,0.426 7.999,0.71 11.075,3.407 1.513,1.704 1.229,4.237 0.45,6.2 -0.853,1.491 -1.87,2.887 -2.888,4.306 C -1.68,0.64 0.143,0.545 0,0"
         inkscape:connector-curvature="0" />
    </g>
    <g
       transform="matrix(0.69043,0,0,-0.69043,35.790257,35.444251)"
       id="g9453">
      <path
         id="path9455"
         style="fill:#ca533b;fill-opacity:1;fill-rule:nonzero;stroke:none"
         d="m 0,0 c -3.36,1.94 -7.325,2.416 -11.686,0.436 -5.584,-2.083 -9.166,-6.947 -11.437,-12.058 -3.292,-10.354 1.377,-15.779 2.772,-16.939 -3.999,2.106 -5.916,6.555 -5.726,10.909 0.189,5.702 2.627,10.482 6.2,14.812 3.881,3.928 8.685,6.319 14.411,5.632 C -3.479,2.271 -1.396,1.704 0,0"
         inkscape:connector-curvature="0" />
    </g>
    <g
       transform="matrix(0.69043,0,0,-0.69043,25.709559,34.10454)"
       id="g9457">
      <path
         id="path9459"
         style="fill:#af973b;fill-opacity:1;fill-rule:nonzero;stroke:none"
         d="m 0,0 c -4.969,-2.366 -8.518,-7.335 -10.672,-12.092 -0.923,-3.336 -2.035,-6.674 -1.372,-10.411 C -13.89,-18.481 -13.607,-4.467 0,0"
         inkscape:connector-curvature="0" />
    </g>
    <g
       transform="matrix(0.69043,0,0,-0.69043,29.745608,32.895597)"
       id="g9461">
      <path
         id="path9463"
         style="fill:#90121c;fill-opacity:1;fill-rule:nonzero;stroke:none"
         d="m 0,0 c -1.917,0.071 -3.432,-0.97 -5.229,-0.97 -6.202,-0.098 -19.375,-12.696 -11.856,-26.006 -0.189,-0.473 -0.662,-0.615 -1.089,-0.899 -0.086,0.011 -0.17,0.023 -0.253,0.04 -4.442,3.982 -4.96,12.514 -0.447,20.022 3.393,5.646 8.901,9.237 13.624,9.798 C -3.314,1.908 -1.454,1.322 0,0"
         inkscape:connector-curvature="0" />
    </g>
    <g
       transform="matrix(0.69043,0,0,-0.69043,17.266638,52.097494)"
       id="g9465">
      <path
         id="path9467"
         style="fill:#ca533b;fill-opacity:1;fill-rule:nonzero;stroke:none"
         d="m 0,0 -0.1,-0.063 c -0.086,0.01 -0.17,0.023 -0.253,0.04 -4.442,3.982 -4.96,12.513 -0.447,20.021 3.393,5.647 8.902,9.237 13.624,9.799 1.806,-0.072 3.546,-0.588 4.951,-1.73 -1.168,0.632 -2.486,0.936 -3.841,0.992 C 9.211,28.496 3.701,24.904 0.309,19.26 -3.933,12.2 -3.73,4.237 0,0"
         inkscape:connector-curvature="0" />
    </g>
    <g
       transform="matrix(0.69043,0,0,-0.69043,27.102571,34.200995)"
       id="g9469">
      <path
         id="path9471"
         style="fill:#dc9879;fill-opacity:1;fill-rule:nonzero;stroke:none"
         d="M 0,0 C 0,0.414 1.349,0.749 3.013,0.749 4.678,0.749 6.027,0.414 6.027,0 6.027,-0.413 4.678,-0.749 3.013,-0.749 1.349,-0.749 0,-0.413 0,0"
         inkscape:connector-curvature="0" />
    </g>
    <g
       transform="matrix(0.69043,0,0,-0.69043,26.908355,34.375603)"
       id="g9473">
      <path
         id="path9475"
         style="fill:#ffffff;fill-opacity:1;fill-rule:nonzero;stroke:none"
         d="M 0,0 C 0,0.275 0.339,0.497 0.758,0.497 1.177,0.497 1.516,0.275 1.516,0 1.516,-0.273 1.177,-0.496 0.758,-0.496 0.339,-0.496 0,-0.273 0,0"
         inkscape:connector-curvature="0" />
    </g>
    <g
       transform="matrix(0.69043,0,0,-0.69043,23.831799,32.281391)"
       id="g9477">
      <path
         id="path9479"
         style="fill:#ffffff;fill-opacity:1;fill-rule:nonzero;stroke:none"
         d="M 0,0 C 0,0.202 0.298,0.365 0.665,0.365 1.032,0.365 1.329,0.202 1.329,0 1.329,-0.201 1.032,-0.364 0.665,-0.364 0.298,-0.364 0,-0.201 0,0"
         inkscape:connector-curvature="0" />
    </g>
    <g
       transform="matrix(0.69043,0,0,-0.69043,32.366414,45.955771)"
       id="g9481">
      <path
         id="path9483"
         style="fill:#feec19;fill-opacity:1;fill-rule:nonzero;stroke:none"
         d="m 0,0 c -3.293,-5.479 -8.354,-7.063 -11.002,-5.472 -2.646,1.591 -3.624,6.804 -0.332,12.283 3.293,5.479 8.354,7.063 11.001,5.472 C 2.314,10.691 3.292,5.479 0,0"
         inkscape:connector-curvature="0" />
    </g>
    <g
       transform="matrix(0.69043,0,0,-0.69043,31.820285,44.6579)"
       id="g9485">
      <path
         id="path9487"
         style="fill:#194890;fill-opacity:1;fill-rule:nonzero;stroke:none"
         d="m 0,0 c 1.324,-0.497 4.52,-1.823 4.661,-2.154 -0.07,-0.378 -4.26,-1.562 -5.915,-2.201 -1.468,-2.176 -2.272,-4.472 -3.573,-6.72 -0.166,-0.047 -0.687,4.756 -1.066,6.933 -2.295,-0.189 -7.074,-0.331 -7.17,-0.213 1.208,1.491 5.917,5.277 5.917,5.277 -0.119,1.964 -0.923,3.834 -1.018,5.798 0,0 3.242,-2.39 4.709,-3.597 L 1.774,7.217 C 1.774,7.217 0.733,2.342 0,0"
         inkscape:connector-curvature="0" />
    </g>
    <g
       transform="matrix(0.69043,0,0,-0.69043,31.313232,44.6579)"
       id="g9489">
      <path
         id="path9491"
         style="fill:#008acc;fill-opacity:1;fill-rule:nonzero;stroke:none"
         d="M 0,0 C -0.094,-0.213 4.141,-2.154 4.141,-2.154 2.438,-2.556 0.71,-3.313 -0.898,-3.904 -0.97,-4.473 -3.176,-7.639 -3.814,-9.06 c -0.332,1.728 -0.539,3.215 -0.776,5.037 -0.875,0.71 -6.365,0.119 -6.365,0.119 1.798,1.561 3.525,2.815 5.158,4.707 -0.213,1.657 -0.449,3.29 -0.899,4.828 1.231,-1.159 4.141,-3.124 4.141,-3.124 l 4.59,3.644 C 1.729,4.07 0.71,2.034 0,0"
         inkscape:connector-curvature="0" />
    </g>
    <g
       transform="matrix(0.69043,0,0,-0.69043,32.366414,45.955771)"
       id="g9493">
      <path
         id="path9495"
         style="fill:#9cceee;fill-opacity:1;fill-rule:nonzero;stroke:none"
         d="m 0,0 c -0.319,-0.53 -0.655,-1.025 -1.003,-1.484 -0.481,-0.186 -0.956,-0.37 -1.421,-0.54 -0.033,-0.265 -0.526,-1.088 -1.107,-2.036 -0.704,-0.544 -1.423,-0.972 -2.131,-1.292 -0.165,1.033 -0.303,2.053 -0.453,3.208 -0.875,0.71 -6.365,0.12 -6.365,0.12 1.797,1.561 3.525,2.815 5.158,4.707 -0.213,1.657 -0.449,3.29 -0.9,4.828 C -6.99,6.352 -4.08,4.387 -4.08,4.387 L 0.51,8.031 C 0.203,5.95 -0.815,3.914 -1.525,1.88 -1.571,1.775 -0.588,1.261 0.431,0.761 0.296,0.509 0.152,0.255 0,0"
         inkscape:connector-curvature="0" />
    </g>
    <g
       transform="matrix(0.69043,0,0,-0.69043,23.79804,35.262877)"
       id="g9497">
      <path
         id="path9499"
         style="fill:#f5d75c;fill-opacity:1;fill-rule:nonzero;stroke:none"
         d="m 0,0 c -0.869,-0.647 -1.684,-1.372 -2.442,-2.156 -5.181,-4.004 -6.839,-9.913 -6.903,-14.36 -0.12,-0.946 -0.167,-1.909 -0.101,-2.898 C -10.404,-14.547 -9.167,-4.741 0,0"
         inkscape:connector-curvature="0" />
    </g>
    <g
       transform="matrix(0.69043,0,0,-0.69043,31.862743,32.67984)"
       id="g9501">
      <path
         id="path9503"
         style="fill:#fbea98;fill-opacity:1;fill-rule:nonzero;stroke:none"
         d="m 0,0 c -0.272,-0.037 -0.713,-0.243 -0.748,0.042 l 0,0.213 c 3.336,2.035 6.815,3.692 10.009,6.081 0.924,1.042 6.108,4.018 -4.661,8.473 -4.023,1.254 -8.566,2.72 -11.027,6.696 -0.449,1.324 -0.402,2.933 0.19,4.187 3.454,5.089 9.819,4.97 14.978,5.798 4.071,0.426 7.998,0.71 11.074,3.407 1.514,1.705 1.23,4.237 0.451,6.201 -0.853,1.49 -1.87,2.886 -2.888,4.305 -0.13,0.319 0.498,0.408 0.976,0.304 -0.187,-0.051 -0.298,-0.15 -0.237,-0.304 1.018,-1.419 2.035,-2.815 2.887,-4.305 0.781,-1.964 1.064,-4.496 -0.45,-6.201 C 17.479,32.2 13.551,31.916 9.48,31.49 4.321,30.662 -2.044,30.781 -5.499,25.692 -6.09,24.438 -6.137,22.829 -5.688,21.505 -3.227,17.529 1.317,16.063 5.339,14.809 16.108,10.354 10.924,7.378 10.001,6.336 6.807,3.947 3.328,2.29 -0.009,0.255 l 0,-0.213 L 0,0 z"
         inkscape:connector-curvature="0" />
    </g>
    <g
       transform="matrix(0.69043,0,0,-0.69043,41.404695,28.773249)"
       id="g9505">
      <path
         id="path9507"
         style="fill:#b18db8;fill-opacity:1;fill-rule:nonzero;stroke:none"
         d="M 0,0 C 0,0 5.855,3.082 -0.288,6.825 -0.288,6.825 3.368,3.514 0,0"
         inkscape:connector-curvature="0" />
    </g>
    <g
       transform="matrix(0.69043,0,0,-0.69043,43.144231,25.077719)"
       id="g9509">
      <path
         id="path9511"
         style="fill:#b18db8;fill-opacity:1;fill-rule:nonzero;stroke:none"
         d="M 0,0 C 2.287,-1.833 0.253,-3.699 0.253,-3.699 4.107,-0.941 0,0 0,0"
         inkscape:connector-curvature="0" />
    </g>
    <g
       transform="matrix(0.69043,0,0,-0.69043,29.76446,11.447113)"
       id="g9513">
      <path
         id="path9515"
         style="fill:#b18db8;fill-opacity:1;fill-rule:nonzero;stroke:none"
         d="m 0,0 c 0,0 -6.209,2.29 -4.88,-4.78 0,0 0.014,4.932 4.88,4.78"
         inkscape:connector-curvature="0" />
    </g>
    <g
       transform="matrix(0.69043,0,0,-0.69043,25.853859,12.626367)"
       id="g9517">
      <path
         id="path9519"
         style="fill:#b18db8;fill-opacity:1;fill-rule:nonzero;stroke:none"
         d="M 0,0 C -0.168,2.927 2.58,2.663 2.58,2.663 -2.05,3.682 0,0 0,0"
         inkscape:connector-curvature="0" />
    </g>
    <g
       transform="matrix(0.69043,0,0,-0.69043,39.326015,41.958872)"
       id="g9521">
      <path
         id="path9523"
         style="fill:#b18db8;fill-opacity:1;fill-rule:nonzero;stroke:none"
         d="M 0,0 C 0,0 5.227,5.889 -2.694,9.484 -2.694,9.484 2.397,5.827 0,0"
         inkscape:connector-curvature="0" />
    </g>
    <g
       transform="matrix(0.69043,0,0,-0.69043,39.908534,36.315436)"
       id="g9525">
      <path
         id="path9527"
         style="fill:#b18db8;fill-opacity:1;fill-rule:nonzero;stroke:none"
         d="M 0,0 C 3.101,-1.953 1.563,-5.114 1.563,-5.114 4.748,-0.215 0,0 0,0"
         inkscape:connector-curvature="0" />
    </g>
    <g
       transform="matrix(0.69043,0,0,-0.69043,19.737064,54.557839)"
       id="g9529">
      <path
         id="path9531"
         style="fill:#b18db8;fill-opacity:1;fill-rule:nonzero;stroke:none"
         d="M 0,0 C 0,0 -0.081,-7.874 8.256,-5.393 8.256,-5.393 2.013,-5.971 0,0"
         inkscape:connector-curvature="0" />
    </g>
    <g
       transform="matrix(0.69043,0,0,-0.69043,22.999074,59.200085)"
       id="g9533">
      <path
         id="path9535"
         style="fill:#b18db8;fill-opacity:1;fill-rule:nonzero;stroke:none"
         d="M 0,0 C -3.622,-0.56 -4.535,2.835 -4.535,2.835 -3.724,-2.952 0,0 0,0"
         inkscape:connector-curvature="0" />
    </g>
    <g
       transform="matrix(0.69043,0,0,-0.69043,20.679644,32.669761)"
       id="g9537">
      <path
         id="path9539"
         style="fill:#b18db8;fill-opacity:1;fill-rule:nonzero;stroke:none"
         d="m 0,0 c 0,0 -7.321,2.897 -7.991,-5.776 0,0 1.695,6.037 7.991,5.776"
         inkscape:connector-curvature="0" />
    </g>
    <g
       transform="matrix(0.69043,0,0,-0.69043,15.17712,34.051929)"
       id="g9541">
      <path
         id="path9543"
         style="fill:#b18db8;fill-opacity:1;fill-rule:nonzero;stroke:none"
         d="M 0,0 C 0.775,3.582 4.271,3.219 4.271,3.219 -1.422,4.534 0,0 0,0"
         inkscape:connector-curvature="0" />
    </g>
  </g>
</svg>
