<?xml version="1.0" encoding="UTF-8" standalone="no"?>
<!-- Created with Inkscape (http://www.inkscape.org/) -->

<svg
   xmlns:dc="http://purl.org/dc/elements/1.1/"
   xmlns:cc="http://creativecommons.org/ns#"
   xmlns:rdf="http://www.w3.org/1999/02/22-rdf-syntax-ns#"
   xmlns:svg="http://www.w3.org/2000/svg"
   xmlns="http://www.w3.org/2000/svg"
   xmlns:sodipodi="http://sodipodi.sourceforge.net/DTD/sodipodi-0.dtd"
   xmlns:inkscape="http://www.inkscape.org/namespaces/inkscape"
   width="64px"
   height="64px"
   id="svg177766"
   version="1.1"
   inkscape:version="0.48.5 r10040"
   sodipodi:docname="kaczki.svg">
  <defs
     id="defs177768" />
  <sodipodi:namedview
     id="base"
     pagecolor="#ffffff"
     bordercolor="#666666"
     borderopacity="1.0"
     inkscape:pageopacity="0.0"
     inkscape:pageshadow="2"
     inkscape:zoom="5.5"
     inkscape:cx="32"
     inkscape:cy="32"
     inkscape:current-layer="layer1"
     showgrid="true"
     inkscape:document-units="px"
     inkscape:grid-bbox="true"
     inkscape:window-width="1366"
     inkscape:window-height="706"
     inkscape:window-x="-8"
     inkscape:window-y="-8"
     inkscape:window-maximized="1" />
  <metadata
     id="metadata177771">
    <rdf:RDF>
      <cc:Work
         rdf:about="">
        <dc:format>image/svg+xml</dc:format>
        <dc:type
           rdf:resource="http://purl.org/dc/dcmitype/StillImage" />
        <dc:title></dc:title>
      </cc:Work>
    </rdf:RDF>
  </metadata>
  <g
     id="layer1"
     inkscape:label="Layer 1"
     inkscape:groupmode="layer">
    <g
       transform="matrix(2.6368169,0,0,-2.7584975,25.01733,39.743113)"
       id="g26401">
      <path
         id="path26403"
         style="fill:#000000;fill-opacity:1;fill-rule:nonzero;stroke:none"
         d="M 0,0 C 0.078,0.373 4.711,6.051 4.166,4.228 5.438,5.199 6.553,6.445 6.078,9.297 6.898,8.938 7.602,8.492 8.291,7.877 8.139,8.84 7.598,9.73 7.275,10.674 c 0.707,0.334 1.709,0.182 2.313,-0.366 1.016,-0.796 1.594,-1.919 1.801,-3.068 0.338,0.158 0.257,0.73 0.558,1.024 0.547,-0.28 1.032,-1.352 0.231,-3.491 C 15.986,0.305 12.846,-6.182 10.262,-6.91 9.367,-7.146 8.627,-7.447 7.713,-7.633 3.672,-8.213 -0.635,-8.006 -3.051,-6.939 -4.488,-3.851 -1.375,-1.789 0,0"
         inkscape:connector-curvature="0" />
    </g>
    <g
       transform="matrix(2.6368169,0,0,-2.7584975,54.764042,21.473583)"
       id="g26405">
      <path
         id="path26407"
         style="fill:#e2e3ec;fill-opacity:1;fill-rule:nonzero;stroke:none"
         d="M 0,0 C 0.559,0.24 0.514,0.705 0.727,1.082 1.424,-0.008 0.512,-1.109 0.58,-2.178 4.52,-6.359 0.52,-12.76 -0.385,-12.912 c -3.246,-1.582 -6.957,-0.851 -10.439,-0.385 -0.936,0.17 -2.035,-0.002 -3.02,-0.088 -0.685,0.566 -0.879,2.088 0.176,3.547 l 2.48,2.691 c 0.088,-1.119 -0.369,-2.177 -0.468,-3.232 0.316,0.295 0.449,0.728 0.613,1.154 0.166,0.592 0.408,0.594 0.691,0.871 0.426,-0.128 0.252,-0.81 0.745,-0.92 0.492,0.026 0.55,0.552 0.765,0.862 0.373,-0.08 0.336,-0.74 0.791,-0.598 0.653,0.52 0.246,1.412 0.199,2.123 -0.027,1.612 -0.128,3.542 1.379,4.536 1.272,1.074 2.227,2.599 1.692,4.269 C -4.029,1.576 -2.447,0.365 -2.447,0.365 -2.521,1.567 -3.115,2.66 -3.525,3.771 -0.746,3.885 -0.031,-0.17 0,0"
         inkscape:connector-curvature="0" />
    </g>
    <g
       transform="matrix(2.6368169,0,0,-2.7584975,58.976621,49.012768)"
       id="g26409">
      <path
         id="path26411"
         style="fill:#c8c9da;fill-opacity:1;fill-rule:nonzero;stroke:none"
         d="m 0,0 c -0.656,-1.671 -1.6,-2.864 -1.982,-2.929 -3.247,-1.582 -10.114,-1.416 -13.459,-0.472 -0.686,0.565 -0.879,2.088 0.175,3.547 l 2.481,2.69 c 0.088,-1.118 -0.369,-2.177 -0.469,-3.232 0.316,0.295 0.449,0.728 0.613,1.155 0.166,0.592 0.409,0.594 0.692,0.87 0.426,-0.128 0.252,-0.81 0.744,-0.92 0.492,0.026 0.551,0.553 0.766,0.862 0.373,-0.08 0.335,-0.74 0.791,-0.597 0.652,0.519 0.246,1.412 0.199,2.123 -0.028,1.611 -0.129,3.542 1.379,4.536 0.668,0.563 1.25,1.254 1.572,2.024 C -6.457,8.914 -6.504,8.12 -6.76,7.491 -7.43,5.844 -6.783,-4.925 0,0"
         inkscape:connector-curvature="0" />
    </g>
    <g
       transform="matrix(2.6368169,0,0,-2.7584975,35.724116,24.859628)"
       id="g26413">
      <path
         id="path26415"
         style="fill:#118f40;fill-opacity:1;fill-rule:nonzero;stroke:none"
         d="m 0,0 c -0.547,-1.739 -1.346,-3.5 -0.92,-5.545 -0.051,-0.069 -0.119,-0.087 -0.203,-0.088 -0.207,0.166 -0.315,0.622 -0.652,0.446 -0.44,-0.109 -0.225,-0.716 -0.682,-0.792 -0.172,0.201 -0.244,0.521 -0.535,0.601 -0.221,0.047 -0.354,-0.074 -0.488,-0.212 -0.096,0.609 -0.116,0.664 -0.135,0.963 0.677,1.752 1.488,1.841 0.756,2.948 C -3.908,-0.851 0.5,1.519 0,0"
         inkscape:connector-curvature="0" />
    </g>
    <g
       transform="matrix(2.6368169,0,0,-2.7584975,29.930502,23.469632)"
       id="g26417">
      <path
         id="path26419"
         style="fill:#000000;fill-opacity:1;fill-rule:nonzero;stroke:none"
         d="M 0,0 C -0.189,-0.698 -0.846,-1.049 -1.453,-1.297 -2.248,-1.312 -3.1,-1.122 -3.42,-0.313 -3.65,0.377 0.041,0.543 0,0"
         inkscape:connector-curvature="0" />
    </g>
    <g
       transform="matrix(2.6368169,0,0,-2.7584975,33.530283,40.804583)"
       id="g26421">
      <path
         id="path26423"
         style="fill:#dce8eb;fill-opacity:1;fill-rule:nonzero;stroke:none"
         d="m 0,0 c -0.023,-0.578 0.279,-1.318 -0.051,-1.884 -0.242,0.216 -0.404,0.824 -0.859,0.646 -0.098,-0.307 -0.33,-0.599 -0.512,-0.822 -0.445,0.178 -0.275,1.215 -0.965,0.915 l -0.435,-0.33 c 0.142,0.53 -0.039,1.239 0.412,1.636 0.541,0.095 0.404,-0.791 0.959,-0.526 0.318,0.176 0.293,0.666 0.631,0.756 C -0.596,0.192 -0.35,-0.346 0,0"
         inkscape:connector-curvature="0" />
    </g>
    <g
       transform="matrix(2.6368169,0,0,-2.7584975,21.74715,28.580003)"
       id="g26425">
      <path
         id="path26427"
         style="fill:#feec19;fill-opacity:1;fill-rule:nonzero;stroke:none"
         d="M 0,0 C 0.807,-0.418 1.74,-0.092 2.264,-0.889 2.125,-0.946 2.291,-0.959 2.127,-1.022 1.066,-1.428 0.379,-2.178 0.109,-2.539 0.09,-2.564 0.072,-2.594 0.053,-2.625 -0.359,-2.016 -0.787,0.412 0,0"
         inkscape:connector-curvature="0" />
    </g>
    <g
       transform="matrix(2.6368169,0,0,-2.7584975,21.74715,28.580003)"
       id="g26429">
      <path
         id="path26431"
         style="fill:#ffffff;fill-opacity:1;fill-rule:nonzero;stroke:none"
         d="M 0,0 C 0.1,-0.051 0.207,-0.092 0.316,-0.123 -0.279,-0.43 -0.336,0.176 0,0"
         inkscape:connector-curvature="0" />
    </g>
    <g
       transform="matrix(2.6368169,0,0,-2.7584975,42.208048,59.747736)"
       id="g26433">
      <path
         id="path26435"
         style="fill:#9c6024;fill-opacity:1;fill-rule:nonzero;stroke:none"
         d="m 0,0 c -0.014,-0.121 -5.701,-0.887 -7.844,0.367 -1.488,1.725 0.75,3.991 1.319,5.035 -0.123,-0.644 -0.309,-1.275 -0.37,-1.906 0.317,0.295 0.45,0.728 0.614,1.154 0.166,0.592 0.408,0.594 0.691,0.871 0.426,-0.128 0.229,0.884 0.723,0.774 0.49,0.026 0.572,-1.142 0.787,-0.832 0.373,-0.08 0.336,-0.74 0.791,-0.598 0.254,0.203 0.348,0.463 0.365,0.746 C -2.332,4.768 -1.521,3.772 -1.326,2.982 -1.129,2.199 -0.555,1.002 0,0"
         inkscape:connector-curvature="0" />
    </g>
    <g
       transform="matrix(2.6368169,0,0,-2.7584975,35.724116,24.859628)"
       id="g26437">
      <path
         id="path26439"
         style="fill:#acc22d;fill-opacity:1;fill-rule:nonzero;stroke:none"
         d="m 0,0 c -0.547,-1.739 -1.346,-3.5 -0.92,-5.545 -0.051,-0.069 -0.119,-0.087 -0.203,-0.088 -0.141,0.112 -0.236,0.362 -0.391,0.452 -0.216,1.416 -0.25,3.267 0.27,6.007 C -0.635,4.032 0.5,1.519 0,0"
         inkscape:connector-curvature="0" />
    </g>
    <g
       transform="matrix(2.6368169,0,0,-2.7584975,33.396334,46.00104)"
       id="g26441">
      <path
         id="path26443"
         style="fill:#ffffff;fill-opacity:1;fill-rule:nonzero;stroke:none"
         d="M 0,0 -0.047,0.048 C -0.217,0.64 -0.408,1.272 -0.553,2.03 -0.383,1.828 -0.191,1.646 0.051,1.884 0.027,1.306 0.33,0.565 0,0"
         inkscape:connector-curvature="0" />
    </g>
    <g
       transform="matrix(2.6368169,0,0,-2.7584975,54.764042,21.473583)"
       id="g26445">
      <path
         id="path26447"
         style="fill:#ffffff;fill-opacity:1;fill-rule:nonzero;stroke:none"
         d="M 0,0 C 0.559,0.24 0.514,0.705 0.727,1.082 1.336,0.129 0.715,-0.834 0.596,-1.773 l -0.09,0.562 c 0,0 -0.07,0.987 -0.322,0.631 -0.248,-0.356 -1.235,-0.631 -1.235,-0.631 l 0,1.059 c 0,0.951 -0.998,2.447 -0.998,2.447 0,0 0,-0.285 0.143,-1.033 0.142,-0.747 -0.25,-2.366 -0.25,-2.366 0,0 -0.106,0.25 -0.321,0.666 -0.212,0.417 -1.734,1.141 -1.734,1.141 0,0 0,0.213 -0.107,-0.25 -0.057,-0.242 -0.321,-0.521 -0.563,-0.734 0.276,0.681 0.348,1.425 0.1,2.199 C -4.029,1.576 -2.447,0.365 -2.447,0.365 -2.521,1.567 -3.115,2.66 -3.525,3.771 -0.746,3.885 -0.031,-0.17 0,0"
         inkscape:connector-curvature="0" />
    </g>
    <g
       transform="matrix(2.6368169,0,0,-2.7584975,50.710728,35.815563)"
       id="g26449">
      <path
         id="path26451"
         style="fill:#ac7531;fill-opacity:1;fill-rule:nonzero;stroke:none"
         d="M 0,0 C 0.941,0.525 2.258,0.803 3.248,0.464 3.715,-0.053 3.164,-0.588 2.918,-1.034 2.135,-1.896 1.164,-2.676 0.191,-3.252 c 0.444,-0.182 1.907,-0.34 1.807,-1.461 -0.252,-2.308 -4.766,-2 -4.766,-2 1.405,0.279 5.131,1.875 1.27,3.004 1.391,0.906 4.394,4.218 0.215,2.127 0,0 1.304,3.48 -1.975,-0.307 -0.002,0.17 0.797,2.526 3.199,3.246 C 0.789,1.195 -0.008,0.355 0,0"
         inkscape:connector-curvature="0" />
    </g>
    <g
       transform="matrix(2.6368169,0,0,-2.7584975,50.710728,35.815563)"
       id="g26453">
      <path
         id="path26455"
         style="fill:#874e23;fill-opacity:1;fill-rule:nonzero;stroke:none"
         d="M 0,0 C 0.941,0.525 2.258,0.803 3.248,0.464 3.715,-0.053 3.164,-0.588 2.918,-1.034 2.135,-1.896 1.164,-2.676 0.191,-3.252 c 0.444,-0.182 1.907,-0.34 1.807,-1.461 -0.252,-2.308 -4.766,-2 -4.766,-2 1.405,0.279 6.368,1.804 1.862,3.17 1.392,0.906 6.097,4.941 0.357,2.89 0,0 0.145,2.622 -2.709,-1.236 -0.002,0.17 0.797,2.526 3.199,3.246 C 0.789,1.195 -0.008,0.355 0,0"
         inkscape:connector-curvature="0" />
    </g>
    <g
       transform="matrix(2.6368169,0,0,-2.7584975,50.710728,35.815563)"
       id="g26457">
      <path
         id="path26459"
         style="fill:#000000;fill-opacity:1;fill-rule:nonzero;stroke:none"
         d="M 0,0 C 0.941,0.525 2.258,0.803 3.248,0.464 3.715,-0.053 3.164,-0.588 2.918,-1.034 2.135,-1.896 1.164,-2.676 0.191,-3.252 c 0.444,-0.182 1.907,-0.34 1.807,-1.461 -0.252,-2.308 -4.766,-2 -4.766,-2 1.405,0.279 5.264,0.729 4.264,2.517 -0.92,0.704 -2.318,0.672 -2.402,0.653 1.392,0.906 3.056,1.75 3.927,3.359 0.081,0.221 -0.126,0.455 -0.38,0.434 -1.19,0.115 -2.233,-0.344 -3.19,-0.903 0,0 0.338,1.022 0.465,1.551 -1.352,-0.294 -2.414,-1.602 -3.174,-2.787 -0.002,0.17 0.797,2.526 3.199,3.246 C 0.789,1.195 -0.008,0.355 0,0"
         inkscape:connector-curvature="0" />
    </g>
    <g
       transform="matrix(2.6368169,0,0,-2.7584975,26.129793,28.779188)"
       id="g26461">
      <path
         id="path26463"
         style="fill:#000000;fill-opacity:1;fill-rule:nonzero;stroke:none"
         d="M 0,0 C 0.229,-1.09 0.49,-2.414 -0.275,-3.285 -0.229,-3.367 -2.256,1.191 -1.893,0.755 -1.502,0.285 -0.713,0.115 0,0"
         inkscape:connector-curvature="0" />
    </g>
    <g
       transform="matrix(2.6368169,0,0,-2.7584975,28.081565,32.022629)"
       id="g26465">
      <path
         id="path26467"
         style="fill:#ebcd00;fill-opacity:1;fill-rule:nonzero;stroke:none"
         d="m 0,0 c -0.18,-0.598 -0.537,-1.096 -0.918,-1.572 -0.5,-0.301 0.066,1.265 -0.129,1.679 l 0.524,-0.074 c -0.373,0.449 -1.079,0.447 -1.381,0.313 -0.147,-0.1 -0.239,-0.219 -0.274,-0.362 0.258,-0.393 0.395,0.271 0.705,0.153 0.34,-0.33 -0.697,0.976 1.133,0.701 C -0.297,0.725 0.238,0.559 0,0"
         inkscape:connector-curvature="0" />
    </g>
    <g
       transform="matrix(2.6368169,0,0,-2.7584975,27.741689,25.261001)"
       id="g26469">
      <path
         id="path26471"
         style="fill:#dce8eb;fill-opacity:1;fill-rule:nonzero;stroke:none"
         d="M 0,0 0.105,0.006 C -0.143,-0.234 -0.479,-0.385 -0.852,-0.392 -1.631,-0.404 -0.779,-0.014 0,0"
         inkscape:connector-curvature="0" />
    </g>
    <g
       transform="matrix(2.6368169,0,0,-2.7584975,24.723843,21.303925)"
       id="g26473">
      <path
         id="path26475"
         style="fill:#000000;fill-opacity:1;fill-rule:nonzero;stroke:none"
         d="M 0,0 C 0,0.469 0.379,0.849 0.848,0.849 1.318,0.849 1.697,0.469 1.697,0 1.697,-0.468 1.318,-0.849 0.848,-0.849 0.379,-0.849 0,-0.468 0,0"
         inkscape:connector-curvature="0" />
    </g>
    <g
       transform="matrix(2.6368169,0,0,-2.7584975,27.628307,6.0243196)"
       id="g26477">
      <path
         id="path26479"
         style="fill:#000000;fill-opacity:1;fill-rule:nonzero;stroke:none"
         d="m 0,0 c -0.348,0.478 -0.863,0.883 -1.416,0.827 -0.166,-0.349 -0.072,-0.808 0.094,-1.14 -0.461,-0.055 -1.014,0.147 -1.381,-0.184 -0.037,-0.331 0.295,-0.404 0.496,-0.607 -1.047,-0.478 -2.354,-1.177 -2.611,-2.429 -0.313,-0.864 -0.184,-2.06 0.22,-2.868 -0.441,-0.424 -0.992,-0.553 -1.49,-0.81 -1.412,1.019 -2.631,0.883 -3.68,0.055 -0.347,-0.443 -0.441,-1.105 -0.255,-1.637 0.312,-0.517 0.88,-0.589 1.416,-0.663 0.384,0.037 0.791,0.074 1.101,0.312 l 1.272,-1.066 c -0.442,-0.773 -0.295,-1.748 0.183,-2.465 0.533,-0.717 1.399,-0.901 2.207,-0.662 1.086,0.423 1.637,1.6 2.391,2.428 0.957,-0.903 1.107,-2.492 0.412,-3.858 0.129,-0.146 0.766,0.032 1.041,0.493 0.223,-0.259 0.24,-0.517 0.572,-0.7 0.405,-0.091 0.551,0.405 0.754,0.625 0.313,-0.386 0.608,-0.754 1.141,-0.754 0.349,0.092 0.183,0.993 0.625,0.478 -0.424,1.343 -0.901,3.108 -0.276,4.47 1.325,1.857 2.319,4.36 1.379,6.659 -0.384,0.884 -1.25,1.692 -2.207,1.858 0.092,0.367 0.496,0.791 0.35,1.27 C 1.934,-0.222 1.602,-0.497 1.27,-0.625 1.16,-0.056 1.051,0.569 0.48,0.919 0.148,0.772 0.166,0.294 0,0"
         inkscape:connector-curvature="0" />
    </g>
    <g
       transform="matrix(2.6368169,0,0,-2.7584975,24.821658,8.3599504)"
       id="g26481">
      <path
         id="path26483"
         style="fill:#118f40;fill-opacity:1;fill-rule:nonzero;stroke:none"
         d="m 0,0 c -0.352,0.147 -0.699,0.275 -1.143,0.222 0.278,-0.241 0.608,-0.368 0.885,-0.626 -0.387,-0.24 -0.847,-0.184 -1.289,-0.387 -0.533,-0.441 -1.324,-0.735 -1.545,-1.453 0.442,0.018 0.793,-0.387 1.012,-0.717 0.111,-0.24 0.166,-0.553 0.146,-0.791 0.37,0.074 0.774,-0.074 1.049,-0.405 0.112,0.643 0.442,1.38 1.069,1.765 0.459,0.351 1.14,0.312 1.636,0.056 C 2.299,-2.668 2.555,-3.146 2.646,-3.66 2.629,-4.563 2.133,-5.481 1.287,-5.776 1.93,-5.813 2.574,-6.328 2.777,-6.936 2.832,-8.406 1.23,-9.18 0.127,-9.621 l -0.164,-0.184 c 0.588,-0.717 0.992,-1.637 0.881,-2.557 l 0.314,0.313 c 0.348,-0.129 0.348,-0.607 0.699,-0.662 0.202,0.258 0.164,0.847 0.625,0.754 0.221,-0.258 0.387,-0.735 0.791,-0.717 l 0.129,0.129 c -0.994,2.151 0.553,4.027 1.416,5.793 0.662,1.656 0.571,3.883 -0.791,5.17 -0.441,0.258 -0.937,0.515 -1.324,0.791 0.129,0.312 0.442,0.57 0.387,0.976 C 2.666,0.203 2.316,-0.479 1.949,-0.037 1.93,0.369 1.875,0.865 1.637,1.232 1.287,0.976 1.217,0.189 1.064,0.185 0.771,0.625 0.459,1.067 -0.037,1.324 -0.277,0.865 0.551,0.369 0,0"
         inkscape:connector-curvature="0" />
    </g>
    <g
       transform="matrix(2.6368169,0,0,-2.7584975,15.649501,17.747934)"
       id="g26485">
      <path
         id="path26487"
         style="fill:#ffffff;fill-opacity:1;fill-rule:nonzero;stroke:none"
         d="M 0,0 C 0,-0.606 -0.055,-1.251 0.221,-1.767 0.719,-1.324 1.51,-0.699 1.271,0.129 1.18,0.405 0.994,0.772 0.662,0.847 0.057,1.03 0.186,0.294 0,0"
         inkscape:connector-curvature="0" />
    </g>
    <g
       transform="matrix(2.6368169,0,0,-2.7584975,17.833061,22.621119)"
       id="g26489">
      <path
         id="path26491"
         style="fill:#ebcd00;fill-opacity:1;fill-rule:nonzero;stroke:none"
         d="m 0,0 c -0.533,-0.643 -1.287,-1.176 -2.078,-1.416 0.293,-0.44 0.662,-0.992 0.808,-1.49 -0.753,1.011 -2.746,2.98 -4.47,1.582 -0.256,-0.35 -0.422,-0.92 -0.164,-1.324 0.441,-0.369 1.177,-0.608 1.765,-0.313 -0.185,0.424 -0.625,0.69 -1.16,0.662 0.203,0.239 0.69,0.297 0.975,0.092 1.4,-1.141 2.834,-2.612 4.857,-2.078 1.252,0.312 2.172,1.361 2.871,2.429 -0.148,0.036 -0.24,-0.075 -0.406,-0.039 l -0.074,0.129 c 0.166,0.258 0.533,0.276 0.828,0.313 0.596,-0.012 0.957,-0.791 0.883,-0.846 -0.164,0.148 -0.348,0.479 -0.66,0.498 l -0.131,0 C 3.256,-3.256 1.711,-4.248 0.443,-4.984 0.074,-5.297 -0.35,-5.609 -0.791,-5.609 c -0.516,0 -0.846,0.974 -0.846,0.974 l -0.57,0.277 c -0.166,-0.478 -0.258,-1.068 -0.092,-1.546 0.221,-0.405 0.588,-0.866 1.029,-1.068 1.84,-0.385 2.282,1.712 3.532,2.65 0.922,0.68 2.355,0.902 2.779,2.023 0.23,1.373 -1.51,1.344 -2.117,1.545 C 2.061,-0.219 1.914,1.178 0.791,1.16 0.496,0.791 0.387,0.295 0,0"
         inkscape:connector-curvature="0" />
    </g>
    <g
       transform="matrix(2.6368169,0,0,-2.7584975,14.24855,35.508532)"
       id="g26493">
      <path
         id="path26495"
         style="fill:#e7bbb0;fill-opacity:1;fill-rule:nonzero;stroke:none"
         d="m 0,0 c 0.053,-0.221 0.199,-0.478 0.385,-0.625 0.496,-0.111 0.9,0.275 1.287,0.57 C 1.139,-0.238 0.531,-0.074 0,0"
         inkscape:connector-curvature="0" />
    </g>
    <g
       transform="matrix(2.6368169,0,0,-2.7584975,29.719302,44.185397)"
       id="g26497">
      <path
         id="path26499"
         style="fill:#dce8eb;fill-opacity:1;fill-rule:nonzero;stroke:none"
         d="m 0,0 c -0.404,-0.056 -0.441,0.423 -0.664,0.625 -0.531,-0.202 -0.459,-0.828 -0.697,-1.231 0.146,0.166 0.367,0.384 0.605,0.441 0.352,-0.203 0.186,-0.792 0.664,-0.754 0.293,0.109 0.313,0.479 0.533,0.697 0.405,-0.275 0.608,-0.9 1.196,-0.828 0.275,0.332 0.22,0.791 0.037,1.142 C 1.359,-0.093 1.029,0.221 0.754,0.405 L 0.57,0.717 C 0.258,0.552 0.387,0.036 0,0"
         inkscape:connector-curvature="0" />
    </g>
    <g
       transform="matrix(2.6368169,0,0,-2.7584975,24.821658,8.3599504)"
       id="g26501">
      <path
         id="path26503"
         style="fill:#acc22d;fill-opacity:1;fill-rule:nonzero;stroke:none"
         d="m 0,0 c -0.352,0.147 -0.699,0.275 -1.143,0.222 0.278,-0.241 0.608,-0.368 0.885,-0.626 -0.387,-0.24 -0.847,-0.184 -1.289,-0.387 -0.533,-0.441 -1.324,-0.735 -1.545,-1.453 0.442,0.018 0.793,-0.387 1.012,-0.717 0.111,-0.24 0.166,-0.553 0.146,-0.791 0.37,0.074 0.774,-0.074 1.049,-0.405 0.112,0.643 0.442,1.38 1.069,1.765 0.459,0.351 1.14,0.312 1.636,0.056 0.479,-0.332 0.735,-0.81 0.826,-1.324 -0.017,-0.903 -0.513,-1.821 -1.359,-2.116 0.236,-0.013 0.473,-0.093 0.688,-0.216 0.781,0.507 1.24,1.199 1.24,2.175 0,0.619 -0.049,1.041 -0.444,1.526 -0.287,0.355 -0.46,0.553 -0.824,0.826 -0.256,0.188 -0.519,0.326 -0.519,0.648 0,0.457 0.269,0.682 0.269,1.137 l 0,0.51 c 0,0.112 -0.009,0.228 -0.023,0.342 L 1.637,1.232 C 1.287,0.976 1.217,0.189 1.064,0.185 0.771,0.625 0.459,1.067 -0.037,1.324 -0.277,0.865 0.551,0.369 0,0 M 0.982,-9.238 C 0.689,-9.389 0.395,-9.514 0.127,-9.621 l -0.164,-0.184 c 0.588,-0.717 0.992,-1.637 0.881,-2.557 l 0.314,0.313 c 0.235,-0.086 0.313,-0.332 0.444,-0.498 l 0,0.437 c 0,1.151 -0.067,1.94 -0.62,2.872"
         inkscape:connector-curvature="0" />
    </g>
    <g
       transform="matrix(2.6368169,0,0,-2.7584975,30.373486,20.088818)"
       id="g26505">
      <path
         id="path26507"
         style="fill:#ffffff;fill-opacity:1;fill-rule:nonzero;stroke:none"
         d="M 0,0 C 0.146,0.826 -0.299,1.594 -0.994,1.717 -1.689,1.84 -2.371,1.269 -2.518,0.443 -2.662,-0.383 -2.217,-1.15 -1.521,-1.273 -0.824,-1.396 -0.145,-0.826 0,0"
         inkscape:connector-curvature="0" />
    </g>
    <g
       transform="matrix(2.6368169,0,0,-2.7584975,17.833061,22.621119)"
       id="g26509">
      <path
         id="path26511"
         style="fill:#ebcd00;fill-opacity:1;fill-rule:nonzero;stroke:none"
         d="m 0,0 c -0.533,-0.643 -1.287,-1.176 -2.078,-1.416 0.293,-0.44 0.662,-0.992 0.808,-1.49 -0.753,1.011 -2.746,2.98 -4.47,1.582 -0.256,-0.35 -0.422,-0.92 -0.164,-1.324 0.441,-0.369 1.177,-0.608 1.765,-0.313 -0.185,0.424 -0.625,0.69 -1.16,0.662 0.203,0.239 0.69,0.297 0.975,0.092 1.4,-1.141 2.834,-2.612 4.857,-2.078 1.252,0.312 2.172,1.361 2.871,2.429 -0.148,0.036 -0.24,-0.075 -0.406,-0.039 l -0.074,0.129 c 0.166,0.258 0.533,0.276 0.828,0.313 0.596,-0.012 0.957,-0.791 0.883,-0.846 -0.164,0.148 -0.348,0.479 -0.66,0.498 l -0.131,0 C 3.256,-3.256 1.711,-4.248 0.443,-4.984 0.074,-5.297 -0.35,-5.609 -0.791,-5.609 c -0.516,0 -0.846,0.974 -0.846,0.974 l -0.57,0.277 c -0.166,-0.478 -0.258,-1.068 -0.092,-1.546 0.221,-0.405 0.588,-0.866 1.029,-1.068 1.84,-0.385 2.282,1.712 3.532,2.65 0.922,0.68 2.355,0.902 2.779,2.023 0.23,1.373 -1.51,1.344 -2.117,1.545 C 2.061,-0.219 1.914,1.178 0.791,1.16 0.496,0.791 0.387,0.295 0,0"
         inkscape:connector-curvature="0" />
    </g>
    <g
       transform="matrix(2.6368169,0,0,-2.7584975,18.548945,38.164701)"
       id="g26513">
      <path
         id="path26515"
         style="fill:#feec19;fill-opacity:1;fill-rule:evenodd;stroke:none"
         d="M 0,0 C 0,0 -0.92,-0.424 -1.246,-0.347 -1.574,-0.27 -1.902,0.057 -1.941,0.248 -1.98,0.44 -2.115,0.729 -2.248,0.672 -2.385,0.613 -2.346,-0.039 -2.076,-0.385 -1.809,-0.73 -1.268,-1 -0.98,-0.865 -0.691,-0.73 0,0 0,0"
         inkscape:connector-curvature="0" />
    </g>
    <g
       transform="matrix(2.6368169,0,0,-2.7584975,13.012684,27.583104)"
       id="g26517">
      <path
         id="path26519"
         style="fill:#feec19;fill-opacity:1;fill-rule:nonzero;stroke:none"
         d="M 0,0 C 0.229,-0.355 0.451,-0.746 0.559,-1.107 0.438,-0.945 0.285,-0.757 0.105,-0.563 -0.5,-0.181 -1.846,0.614 -2.418,0.526 -3.166,0.411 -3.301,0.334 -3.455,0.2 -3.607,0.065 -3.607,-0.127 -3.607,-0.127 c 0,0 0.611,0.403 1.4,0.02 0.791,-0.383 2.1,-1.405 2.887,-1.616 0.785,-0.211 2.211,0.329 2.613,0.809 0.236,0.282 1.002,1.207 1.596,1.922 C 4.84,1.02 4.793,1.032 4.752,1.045 3.973,1.527 3.775,2.717 2.916,2.928 2.789,2.463 2.475,1.555 1.85,1.084 0.986,0.43 -0.035,0.065 -0.035,0.065 L 0,0 z"
         inkscape:connector-curvature="0" />
    </g>
    <g
       transform="matrix(2.6368169,0,0,-2.7584975,14.650423,39.915509)"
       id="g26521">
      <path
         id="path26523"
         style="fill:#ffffff;fill-opacity:1;fill-rule:nonzero;stroke:none"
         d="M 0,0 C 0,0.139 0.156,0.25 0.348,0.25 0.535,0.25 0.691,0.139 0.691,0 0.691,-0.139 0.535,-0.25 0.348,-0.25 0.156,-0.25 0,-0.139 0,0"
         inkscape:connector-curvature="0" />
    </g>
    <g
       transform="matrix(2.6368169,0,0,-2.7584975,4.3090798,26.66203)"
       id="g26525">
      <path
         id="path26527"
         style="fill:#ffffff;fill-opacity:1;fill-rule:nonzero;stroke:none"
         d="M 0,0 C 0,0.149 0.289,0.27 0.645,0.27 1,0.27 1.287,0.149 1.287,0 1.287,-0.147 1,-0.269 0.645,-0.269 0.289,-0.269 0,-0.147 0,0"
         inkscape:connector-curvature="0" />
    </g>
    <g
       transform="matrix(2.6368169,0,0,-2.7584975,30.461028,19.900401)"
       id="g26529">
      <path
         id="path26531"
         style="fill:#dce8eb;fill-opacity:1;fill-rule:nonzero;stroke:none"
         d="m 0,0 c 0.145,0.826 -0.301,1.594 -0.996,1.717 -0.152,0.027 -0.305,0.02 -0.451,-0.015 0.552,-0.237 0.881,-0.92 0.752,-1.643 -0.114,-0.646 -0.553,-1.133 -1.071,-1.258 0.077,-0.035 0.159,-0.059 0.243,-0.074 C -0.828,-1.396 -0.146,-0.826 0,0"
         inkscape:connector-curvature="0" />
    </g>
    <g
       transform="matrix(2.6368169,0,0,-2.7584975,15.809018,21.376484)"
       id="g26533">
      <path
         id="path26535"
         style="fill:#dce8eb;fill-opacity:1;fill-rule:nonzero;stroke:none"
         d="M 0,0 C 0.035,-0.158 0.086,-0.309 0.16,-0.451 0.658,-0.009 1.449,0.616 1.211,1.444 1.119,1.721 0.934,2.088 0.602,2.162 0.375,2.23 0.252,2.172 0.176,2.055 0.369,1.906 0.488,1.65 0.557,1.444 0.725,0.866 0.387,0.387 0,0"
         inkscape:connector-curvature="0" />
    </g>
    <g
       transform="matrix(2.6368169,0,0,-2.7584975,26.60364,18.545427)"
       id="g26537">
      <path
         id="path26539"
         style="fill:#000000;fill-opacity:1;fill-rule:nonzero;stroke:none"
         d="M 0,0 C 0,0.413 0.336,0.75 0.75,0.75 1.166,0.75 1.5,0.413 1.5,0 1.5,-0.415 1.166,-0.75 0.75,-0.75 0.336,-0.75 0,-0.415 0,0"
         inkscape:connector-curvature="0" />
    </g>
    <g
       transform="matrix(2.6368169,0,0,-2.7584975,26.958809,17.675131)"
       id="g26541">
      <path
         id="path26543"
         style="fill:#ffffff;fill-opacity:1;fill-rule:nonzero;stroke:none"
         d="M 0,0 C 0,0.187 0.152,0.338 0.336,0.338 0.525,0.338 0.674,0.187 0.674,0 0.674,-0.186 0.525,-0.336 0.336,-0.336 0.152,-0.336 0,-0.186 0,0"
         inkscape:connector-curvature="0" />
    </g>
    <g
       transform="matrix(2.6368169,0,0,-2.7584975,16.061373,18.359505)"
       id="g26545">
      <path
         id="path26547"
         style="fill:#000000;fill-opacity:1;fill-rule:nonzero;stroke:none"
         d="M 0,0 C 0,0.345 0.279,0.625 0.625,0.625 0.971,0.625 1.25,0.345 1.25,0 1.25,-0.346 0.971,-0.625 0.625,-0.625 0.279,-0.625 0,-0.346 0,0"
         inkscape:connector-curvature="0" />
    </g>
    <g
       transform="matrix(2.6368169,0,0,-2.7584975,16.267297,17.726441)"
       id="g26549">
      <path
         id="path26551"
         style="fill:#ffffff;fill-opacity:1;fill-rule:nonzero;stroke:none"
         d="M 0,0 C 0,0.165 0.131,0.3 0.297,0.3 0.463,0.3 0.596,0.165 0.596,0 0.596,-0.165 0.463,-0.299 0.297,-0.299 0.131,-0.299 0,-0.165 0,0"
         inkscape:connector-curvature="0" />
    </g>
    <g
       transform="matrix(2.6368169,0,0,-2.7584975,29.080645,44.058771)"
       id="g26553">
      <path
         id="path26555"
         style="fill:#ffffff;fill-opacity:1;fill-rule:nonzero;stroke:none"
         d="m 0,0 c -0.193,0.12 -0.256,0.428 -0.422,0.579 -0.531,-0.202 -0.459,-0.828 -0.697,-1.231 0.146,0.166 0.367,0.384 0.605,0.441 0.243,-0.141 0.239,-0.463 0.369,-0.639 C -0.066,-0.579 -0.018,-0.295 0,0"
         inkscape:connector-curvature="0" />
    </g>
  </g>
</svg>
