<?xml version="1.0" encoding="UTF-8" standalone="no"?>
<!-- Created with Inkscape (http://www.inkscape.org/) -->

<svg
   xmlns:dc="http://purl.org/dc/elements/1.1/"
   xmlns:cc="http://creativecommons.org/ns#"
   xmlns:rdf="http://www.w3.org/1999/02/22-rdf-syntax-ns#"
   xmlns:svg="http://www.w3.org/2000/svg"
   xmlns="http://www.w3.org/2000/svg"
   xmlns:sodipodi="http://sodipodi.sourceforge.net/DTD/sodipodi-0.dtd"
   xmlns:inkscape="http://www.inkscape.org/namespaces/inkscape"
   width="64px"
   height="64px"
   id="svg170414"
   version="1.1"
   inkscape:version="0.48.5 r10040"
   sodipodi:docname="Nowy dokument 20">
  <defs
     id="defs170416" />
  <sodipodi:namedview
     id="base"
     pagecolor="#ffffff"
     bordercolor="#666666"
     borderopacity="1.0"
     inkscape:pageopacity="0.0"
     inkscape:pageshadow="2"
     inkscape:zoom="5.5"
     inkscape:cx="32"
     inkscape:cy="29.207792"
     inkscape:current-layer="layer1"
     showgrid="true"
     inkscape:document-units="px"
     inkscape:grid-bbox="true"
     inkscape:window-width="1366"
     inkscape:window-height="706"
     inkscape:window-x="-8"
     inkscape:window-y="-8"
     inkscape:window-maximized="1" />
  <metadata
     id="metadata170419">
    <rdf:RDF>
      <cc:Work
         rdf:about="">
        <dc:format>image/svg+xml</dc:format>
        <dc:type
           rdf:resource="http://purl.org/dc/dcmitype/StillImage" />
        <dc:title></dc:title>
      </cc:Work>
    </rdf:RDF>
  </metadata>
  <g
     id="layer1"
     inkscape:label="Layer 1"
     inkscape:groupmode="layer">
    <g
       transform="matrix(0.7766121,0,0,-0.73132972,44.951098,4.5891055)"
       id="g5401">
      <path
         id="path5403"
         style="fill:#000000;fill-opacity:1;fill-rule:nonzero;stroke:none"
         d="m 0,0 c -0.184,-2.286 -1.78,-7.303 -9.292,-6.541 0.329,-3.22 -0.784,-6.342 -2.524,-8.979 -0.084,-2.31 -0.238,-4.869 0.299,-7.143 2.621,-3.776 13.137,-14.688 15.356,-16.659 1.931,0.232 3.513,-0.783 5.045,-1.798 1.036,-1.05 1.33,-2.236 1.006,-3.631 -0.231,-0.973 -1.421,-1.043 -1.501,-2.111 -0.485,-0.655 -1.352,-0.744 -2.024,-0.681 -0.609,-0.656 -1.317,-1.364 -2.291,-1.008 -0.473,0.116 -0.853,0.506 -1.156,0.873 0.009,-4.79 -1.073,-9.649 -2.435,-14.14 6.455,-12.705 16.937,-14.721 22.703,-16.581 0.327,-0.292 0.383,-0.638 0.241,-1.013 -3.048,-0.302 -6.156,0.041 -9.163,0.188 -6.411,0.433 -15.515,2.825 -18.485,6.775 -1.449,-2.259 -4.714,-7.882 -8.256,-7.59 -1.448,0.471 -1.352,2.111 -1.843,3.244 l -12.629,-0.295 c -5.604,-0.296 -11.758,-0.354 -17.149,-0.101 -0.307,0.541 -0.692,-0.16 -1.064,-0.142 -0.55,0.188 -1.635,-0.277 -1.624,0.617 0.917,1.456 1.485,3.029 2.728,4.341 3.759,3.615 8.81,1.544 13.019,0.699 1.996,-0.611 3.961,-0.825 5.977,-1.137 -3.059,3.148 -5.336,7.006 -6.549,11.129 -2.16,7.086 -1.823,14.811 2.315,20.964 -0.088,0.793 0.498,1.3 0.859,1.927 -1.529,-0.549 -2.946,-1.864 -4.734,-1.771 -0.151,0.072 -0.302,0.218 -0.379,0.366 -0.04,2.307 1.117,4.264 2.45,6.124 3.224,4.399 7.688,7.431 11.804,10.506 0.856,2.174 2.286,4.135 2.092,6.763 -1.018,-0.018 -2.004,-0.457 -2.914,-0.895 -1.853,-1.894 -3.25,-4.351 -5.87,-4.968 -8.055,-0.725 -9.602,4.982 -8.107,6.585 -0.585,0.834 -0.483,2.076 0.073,2.905 0.756,0.734 1.694,1.073 2.735,1.19 2.24,2.496 5.328,3.295 8.443,3.97 -0.214,0.914 -0.232,1.957 0.174,2.857 -0.741,-0.186 -1.656,-0.377 -2.48,-0.118 -1.394,0.249 -2.949,1.14 -3.445,2.571 -0.868,1.375 0.052,4.739 -1.87,4.733 1.837,1.397 7.911,1.221 9.159,-2.819 1.883,1.727 2.851,0.174 2.684,-0.251 -0.738,-0.335 -1.529,-0.547 -2.19,-1.055 0.029,-0.273 0.328,-0.317 0.382,-0.589 1.152,0.864 2.355,1.579 3.843,1.729 -0.184,0.519 0.677,0.98 1.171,1.163 1.927,0.076 1.986,-1.529 2.164,-1.75 0.72,-0.012 1.429,-0.769 1.813,-1.408 -0.14,2.281 1.466,4.072 3.434,5.074 2.71,1.164 5.883,1.443 8.077,3.715 C -0.42,5.141 0.49,1.746 0,0 m 1.561,-41.074 c -4.232,3.574 -8.22,7.352 -12.571,10.627 0.805,-3.437 1.388,-6.975 2.563,-10.281 0.731,0.733 1.913,1.274 3,1.616 2.523,0.441 4.751,-0.662 6.25,-2.646 0.296,0.13 0.538,0.456 0.758,0.684 m 1.847,-3.418 c -1.487,-0.125 -0.498,-1.349 -0.509,-2.168 0.212,0.698 0.448,1.397 0.509,2.168"
         inkscape:connector-curvature="0" />
    </g>
    <g
       transform="matrix(0.7766121,0,0,-0.73132972,42.144236,8.1200385)"
       id="g5405">
      <path
         id="path5407"
         style="fill:#db923a;fill-opacity:1;fill-rule:nonzero;stroke:none"
         d="m 0,0 c -1.742,-1.148 -4.169,-1.438 -6.285,-1.078 l -0.122,-0.101 c 0.686,-3.811 -0.868,-7.139 -2.802,-10.126 l 0.004,-0.249 0.418,0.206 c -0.082,-2.359 -0.236,-4.893 0.297,-7.043 0,0 15.459,-16.732 15.607,-16.804 1.826,0.652 3.36,-0.463 4.79,-1.356 2.141,-1.833 0.609,-3.563 0.609,-3.563 -0.162,0.692 -0.425,1.531 -1.174,1.766 l -0.173,-0.003 c 0.365,-1.036 1.207,-2.361 0.233,-3.446 -0.292,-0.328 -0.661,-0.483 -1.132,-0.442 0.503,0.927 0.281,2.289 -0.107,3.225 -0.403,-1.124 0.023,-2.73 -0.953,-3.715 -0.468,-0.231 -0.957,-0.612 -1.532,-0.399 -0.248,0.021 -0.378,0.292 -0.554,0.413 -0.071,1.314 1.047,2.599 0.308,3.753 -0.502,0.363 -0.96,-0.414 -1.481,-0.548 l -0.072,-0.075 -0.98,2.068 c 0.29,0.501 1.544,1.094 0.79,1.701 -4.33,3.449 -8.326,7.748 -12.991,10.546 -0.761,0.929 -0.539,2.398 -0.956,3.557 0.047,0.075 -0.077,0.122 -0.102,0.172 0.338,-5.132 1.592,-10.173 2.942,-15.015 -2.009,-2.889 -2.493,-6.447 -3.354,-9.713 -0.41,0.688 -0.501,1.704 -0.64,2.495 -0.635,2.248 -0.999,4.575 -1.903,6.694 -0.329,0.267 -0.721,-0.013 -1.067,-0.019 -1.329,-0.693 -2.84,-0.869 -4.271,-1.315 -0.11,0.568 -0.515,1.008 -0.869,1.473 l 1.055,2.029 c 0.747,-0.086 1.297,-0.3 2.006,0.234 0.516,0.381 0.678,1.054 0.741,1.675 -0.036,0.596 -0.295,1.212 -0.919,1.474 -0.375,0.142 -0.971,0.231 -1.243,0.103 0.169,0.225 0.037,0.695 0.334,0.774 0.183,0.873 0.163,1.964 -0.271,2.726 -0.937,1.076 -1.895,1.928 -3.262,2.028 2.495,3.494 4.414,7.325 5.759,11.294 0.086,0.846 0.316,1.581 0.153,2.727 0.146,0.176 0.491,0.163 0.564,0.339 -1.048,0.354 -2.037,0.063 -3.023,-0.301 1.454,2.011 5.164,2.746 4.415,5.86 l -0.407,0.539 c 1.009,0.623 1.639,0.004 1.789,-0.093 -0.208,0.757 -1.331,0.895 -1.874,0.687 -0.54,-0.283 -1.305,-0.643 -1.391,-1.34 0.177,-0.195 0.325,-0.168 0.524,-0.065 l 0.413,0.429 c 0.55,-0.238 0.217,-1.014 0.322,-1.409 -0.711,-1.949 -2.86,-2.532 -4.148,-4.069 -1.581,-1.789 -5.092,-8.192 -10.622,-5.67 -0.614,0.957 -1.402,2.011 -1.027,3.258 1.423,-0.422 3.435,0.116 4.402,1.02 2.67,2.224 1.115,4.289 0.264,4.671 -1.202,0.599 -2.622,0.972 -3.936,0.924 l -0.004,0.124 c 2.647,1.957 5.755,3.104 9.051,3.435 2.969,1.606 0.351,4.051 1.055,4.858 1.268,1.337 2.893,2.086 4.654,2.215 1.144,-0.228 1.822,-1.232 2.195,-2.096 0.267,0.352 0.309,0.8 0.275,1.296 0.924,-0.332 1.365,-1.342 1.922,-2.052 0.464,0.366 0.124,1.442 0.559,2.095 1.304,4.937 6.932,3.919 10.211,6.631 C 3.347,5.94 3.367,1.895 0,0"
         inkscape:connector-curvature="0" />
    </g>
    <g
       transform="matrix(0.7766121,0,0,-0.73132972,42.144236,8.1200385)"
       id="g5409">
      <path
         id="path5411"
         style="fill:#ba5534;fill-opacity:1;fill-rule:nonzero;stroke:none"
         d="m 0,0 c -1.742,-1.148 -4.169,-1.438 -6.285,-1.078 l -0.122,-0.101 c 0.686,-3.811 -0.868,-7.139 -2.802,-10.126 l 0.004,-0.249 0.418,0.206 c -0.082,-2.359 -0.236,-4.893 0.297,-7.043 0,0 15.459,-16.732 15.607,-16.804 1.826,0.652 3.36,-0.463 4.79,-1.356 2.141,-1.833 0.609,-3.563 0.609,-3.563 -0.162,0.692 -0.425,1.531 -1.174,1.766 l -0.173,-0.003 c 0.365,-1.036 1.207,-2.361 0.233,-3.446 -0.292,-0.328 -0.661,-0.483 -1.132,-0.442 0.503,0.927 0.281,2.289 -0.107,3.225 -0.403,-1.124 0.023,-2.73 -0.953,-3.715 -0.468,-0.231 -0.957,-0.612 -1.532,-0.399 -0.248,0.021 2.041,2.575 0.492,4.854 -0.502,0.363 -1.698,-1.102 -2.219,-1.236 l -0.072,-0.075 -0.98,2.068 c 0.29,0.501 2.255,1.435 1.5,2.042 -4.33,3.449 -14.24,12.603 -14.657,13.762 0.047,0.075 -0.077,0.122 -0.102,0.172 0.338,-5.132 1.592,-10.173 2.942,-15.015 -2.009,-2.889 -2.493,-6.447 -3.354,-9.713 -0.41,0.688 -0.501,1.704 -0.64,2.495 -0.635,2.248 -0.999,4.575 -1.903,6.694 -0.329,0.267 -0.721,-0.013 -1.067,-0.019 -0.417,-0.217 -0.849,-0.384 -1.295,-0.523 -0.293,12.408 2.518,26.043 2.518,26.043 0,0 2.667,2.235 2.096,7.996 -0.527,5.307 -4.776,5.271 -7.864,4.509 -0.001,0.155 0.033,0.289 0.125,0.394 1.268,1.337 2.893,2.086 4.654,2.215 1.144,-0.228 1.822,-1.232 2.195,-2.096 0.267,0.352 0.309,0.8 0.275,1.296 0.924,-0.332 2.054,-2.485 2.613,-3.195 0.463,0.365 0.573,2.64 1.008,3.293 2.629,4.588 5.252,2.161 8.531,4.874 C 2.807,4.238 3.367,1.895 0,0"
         inkscape:connector-curvature="0" />
    </g>
    <g
       transform="matrix(0.7766121,0,0,-0.73132972,28.138689,5.4279405)"
       id="g5413">
      <path
         id="path5415"
         style="fill:#db923a;fill-opacity:1;fill-rule:nonzero;stroke:none"
         d="m 0,0 c -0.288,-0.576 -0.672,-1.327 -0.338,-1.917 l 0.882,0.661 C 0.578,-1.826 0.387,-2.202 0.223,-2.751 -1.127,-3.693 -3.134,-3.902 -4.611,-3.134 -6.736,-2.252 -6.776,0.08 -6.961,2.063 -7.141,2.432 -7.32,2.801 -7.696,3.067 -6.17,3.714 -1.806,3.74 0,0"
         inkscape:connector-curvature="0" />
    </g>
    <g
       transform="matrix(0.7766121,0,0,-0.73132972,34.188497,5.4775255)"
       id="g5417">
      <path
         id="path5419"
         style="fill:#ecc051;fill-opacity:1;fill-rule:nonzero;stroke:none"
         d="M 0,0 C 0.054,-0.297 -0.035,-0.517 0.019,-0.813 -0.413,-0.225 -1.143,0.286 -2.15,0.515 -1.616,1.169 -0.344,1.18 0,0"
         inkscape:connector-curvature="0" />
    </g>
    <g
       transform="matrix(0.7766121,0,0,-0.73132972,40.660782,5.0586925)"
       id="g5421">
      <path
         id="path5423"
         style="fill:#90121c;fill-opacity:1;fill-rule:nonzero;stroke:none"
         d="m 0,0 c 0.378,-1.731 -1.237,-3 -2.436,-4.039 -0.714,-0.26 -1.351,-0.743 -2.197,-0.733 0.066,1.987 0.87,4.234 2.965,5.115 C -1.148,0.476 -0.212,0.791 0,0"
         inkscape:connector-curvature="0" />
    </g>
    <g
       transform="matrix(0.7766121,0,0,-0.73132972,30.021818,5.0518915)"
       id="g5425">
      <path
         id="path5427"
         style="fill:#ecc051;fill-opacity:1;fill-rule:nonzero;stroke:none"
         d="m 0,0 0.002,-0.124 c -0.79,-0.287 -1.713,-0.958 -2.425,-1.466 0.237,0.674 0.455,1.578 1.6,1.865 C -0.674,0.278 -0.152,0.196 0,0"
         inkscape:connector-curvature="0" />
    </g>
    <g
       transform="matrix(0.7766121,0,0,-0.73132972,40.474209,5.3700925)"
       id="g5429">
      <path
         id="path5431"
         style="fill:#edccb8;fill-opacity:1;fill-rule:nonzero;stroke:none"
         d="m 0,0 c -0.147,-1.492 -1.465,-2.831 -2.79,-3.623 -0.419,-0.231 -0.887,-0.438 -1.408,-0.422 0.364,1.918 1.046,4.064 3.196,4.622 C -0.461,0.885 -0.084,0.594 0,0"
         inkscape:connector-curvature="0" />
    </g>
    <g
       transform="matrix(0.7766121,0,0,-0.73132972,34.012548,8.2171595)"
       id="g5433">
      <path
         id="path5435"
         style="fill:#000000;fill-opacity:1;fill-rule:nonzero;stroke:none"
         d="m 0,0 c 0.291,-1.038 0.211,-2.156 -0.419,-3.036 -0.388,-0.528 -0.881,-0.735 -1.473,-0.919 -0.597,0.039 -1.146,0.228 -1.624,0.567 -0.757,0.732 -0.972,1.671 -0.893,2.79 0.18,1.02 0.86,2 1.946,2.292 C -1.326,1.962 -0.366,0.986 0,0"
         inkscape:connector-curvature="0" />
    </g>
    <g
       transform="matrix(0.7766121,0,0,-0.73132972,24.709853,15.940074)"
       id="g5437">
      <path
         id="path5439"
         style="fill:#835796;fill-opacity:1;fill-rule:nonzero;stroke:none"
         d="m 0,0 c -0.423,-1.372 -1.849,-2.167 -3.107,-2.511 -1.487,-0.2 -2.959,0.271 -3.901,1.545 -0.406,0.638 -0.99,1.298 -0.854,2.12 0.153,1.144 1.164,1.51 2.102,1.824 C -3.779,3.236 0.624,2.499 0,0"
         inkscape:connector-curvature="0" />
    </g>
    <g
       transform="matrix(0.7766121,0,0,-0.73132972,20.41202,18.025168)"
       id="g5441">
      <path
         id="path5443"
         style="fill:#fbea98;fill-opacity:1;fill-rule:nonzero;stroke:none"
         d="M 0,0 C -0.377,-1.174 0.188,-2.256 0.699,-3.14 -2.857,-1.703 -2.278,1.127 -2.188,1.625 -1.532,0.991 -0.824,0.283 0,0"
         inkscape:connector-curvature="0" />
    </g>
    <g
       transform="matrix(0.7766121,0,0,-0.73132972,28.718103,24.205709)"
       id="g5445">
      <path
         id="path5447"
         style="fill:#ba5534;fill-opacity:1;fill-rule:nonzero;stroke:none"
         d="m 0,0 c -0.871,-1.256 -1.688,-2.734 -2.564,-3.743 -4.455,-1.22 -8.779,-6.184 -8.643,-6.877 0.834,0.536 4.188,5.345 9.376,5.997 1.095,-0.055 1.872,-0.61 2.71,-1.665 l 0.236,-0.717 c -0.199,0.047 -0.587,0.934 -1.002,0.529 0.943,-1.107 0.874,-1.722 0.695,-2.743 -0.217,-0.475 -0.606,-0.929 -1.123,-1.087 -0.445,-0.132 -0.969,-0.066 -1.369,0.15 -0.137,2.29 -0.868,2.839 -0.942,2.739 0.364,-0.937 0.109,-1.91 0.301,-2.924 -0.316,-0.427 -0.989,-0.216 -1.437,-0.198 -1.902,0.901 -1.126,3.381 -1.126,3.381 -0.762,-0.386 -0.297,-2.025 -0.534,-2.65 0,-0.046 -6.061,-4.081 -6.522,-3.1 -0.323,1.474 1.306,4.416 2.297,5.418 2.469,3.518 6.121,6.237 9.329,8.677 C -0.04,0.868 -0.131,0.396 0,0"
         inkscape:connector-curvature="0" />
    </g>
    <g
       transform="matrix(0.7766121,0,0,-0.73132972,30.846145,31.884378)"
       id="g5449">
      <path
         id="path5451"
         style="fill:#e7bbb0;fill-opacity:1;fill-rule:nonzero;stroke:none"
         d="m 0,0 c 0.036,-0.596 0.144,-1.09 -0.27,-1.594 -0.364,-0.453 -1.038,-0.217 -1.486,-0.15 0.147,0.077 -0.565,1.008 -0.327,1.657 C -1.592,0.195 -0.314,0.962 0,0"
         inkscape:connector-curvature="0" />
    </g>
    <g
       transform="matrix(0.7766121,0,0,-0.73132972,25.863401,32.40216)"
       id="g5453">
      <path
         id="path5455"
         style="fill:#edccb8;fill-opacity:1;fill-rule:nonzero;stroke:none"
         d="m 0,0 c -0.04,-0.572 -0.328,-1.123 0.127,-1.586 0.405,-0.44 1.124,-0.428 1.617,-0.221 0.959,0.752 0.56,2.046 0.56,2.046 C 2.903,0.051 3.667,0.337 4.212,0.446 4.17,-0.051 4.138,-0.995 3.825,-1.596 L 2.743,-3.576 C 2.776,-4.047 3.129,-4.339 3.408,-4.706 2.897,-5.311 2.385,-4.401 1.874,-4.957 1.474,-4.839 1.173,-4.671 0.78,-4.926 0.544,-5.575 0.068,-5.31 -0.453,-5.295 c -0.059,0.52 0.252,0.197 0.472,0.449 0.519,0.083 1.413,0.999 1.413,0.999 -1.357,-0.421 -2.691,-0.792 -4.116,-0.246 0.099,0.027 0.892,0.115 1.184,0.443 0.443,0.206 0.335,0.7 0.355,1.024 -0.209,0.592 -0.762,1.004 -1.336,1.168 -0.425,0.166 -0.818,-0.089 -1.189,-0.145 0.73,0.906 1.083,1.93 2.216,2.421 C -1.05,0.453 -0.573,0.114 0,0"
         inkscape:connector-curvature="0" />
    </g>
    <g
       transform="matrix(0.7766121,0,0,-0.73132972,30.163596,32.458545)"
       id="g5457">
      <path
         id="path5459"
         style="fill:#000000;fill-opacity:1;fill-rule:nonzero;stroke:none"
         d="m 0,0 c -0.047,-0.175 -0.144,-0.35 -0.291,-0.477 -0.176,0.171 0.36,0.8 -0.265,1.013 -0.174,0.022 -0.199,0.022 -0.347,-0.08 l 0.047,0.199 C -0.461,0.761 -0.033,0.421 0,0"
         inkscape:connector-curvature="0" />
    </g>
    <g
       transform="matrix(0.7766121,0,0,-0.73132972,27.524357,32.592452)"
       id="g5461">
      <path
         id="path5463"
         style="fill:#ffffff;fill-opacity:1;fill-rule:nonzero;stroke:none"
         d="m 0,0 c 0.059,-0.471 -0.134,-0.847 -0.4,-1.199 -0.368,-0.304 -0.791,-0.213 -1.192,-0.021 -0.503,0.339 -0.313,0.888 -0.196,1.312 0.444,0.132 1.063,0.242 1.43,0.571 L 0,0 z"
         inkscape:connector-curvature="0" />
    </g>
    <g
       transform="matrix(0.7766121,0,0,-0.73132972,45.156621,35.424965)"
       id="g5465">
      <path
         id="path5467"
         style="fill:#ba5534;fill-opacity:1;fill-rule:nonzero;stroke:none"
         d="m 0,0 c 0.078,-0.222 0.719,-1.231 0.719,-1.231 -0.586,-0.053 -1.178,-0.186 -1.492,-0.663 -0.092,1.04 -0.455,2.542 -1.506,3.095 -0.745,0.011 -1.64,0.046 -2.148,-0.683 -0.734,-0.658 -0.891,-1.555 -1.25,-2.355 -0.31,0.715 -0.84,1.202 -1.468,1.637 -0.701,0.311 -1.141,-0.069 -1.73,-0.377 L -9.752,-1.56 C -8.995,0.538 -7.041,2.334 -4.76,2.473 -2.899,2.555 -1.097,1.668 0,0"
         inkscape:connector-curvature="0" />
    </g>
    <g
       transform="matrix(0.7766121,0,0,-0.73132972,51.355849,35.032826)"
       id="g5469">
      <path
         id="path5471"
         style="fill:#000000;fill-opacity:1;fill-rule:nonzero;stroke:none"
         d="M 0,0 -0.255,0.417 -0.001,0.075 0,0 z"
         inkscape:connector-curvature="0" />
    </g>
    <g
       transform="matrix(0.7766121,0,0,-0.73132972,22.933648,36.535123)"
       id="g5473">
      <path
         id="path5475"
         style="fill:#f5d75c;fill-opacity:1;fill-rule:nonzero;stroke:none"
         d="m 0,0 c 0.151,-0.195 0.134,-0.593 0.48,-0.587 0.737,0.509 0.987,-0.951 1.666,-0.095 l 0.29,0.477 c 0.574,-0.238 1.536,0.126 1.796,-0.614 0.256,-0.393 0.678,-0.46 1.026,-0.404 0.217,0.351 0.377,-0.267 0.649,-0.237 0.592,0.258 0.85,-0.358 1.365,0.024 0.291,0.303 0.41,0.677 0.402,1.099 1.849,0.702 3.783,0.835 5.403,1.881 1.172,-3.132 1.728,-6.522 2.605,-9.783 -1.047,-5.504 -1.948,-10.782 -2.096,-16.493 -0.608,-0.755 -1.591,-1.343 -2.655,-1.46 -11.633,3.228 -15.589,15.761 -13.218,23.522 0.397,1.372 0.796,2.768 1.367,4.069 C -0.615,1.057 -0.846,0.035 0,0"
         inkscape:connector-curvature="0" />
    </g>
    <g
       transform="matrix(0.7766121,0,0,-0.73132972,22.829023,36.155563)"
       id="g5477">
      <path
         id="path5479"
         style="fill:#c69f97;fill-opacity:1;fill-rule:nonzero;stroke:none"
         d="M 0,0 C -0.028,0.297 -0.035,0.595 0.21,0.798 L 0.408,0.802 0,0 z"
         inkscape:connector-curvature="0" />
    </g>
    <g
       transform="matrix(0.7766121,0,0,-0.73132972,23.691311,35.868809)"
       id="g5481">
      <path
         id="path5483"
         style="fill:#c69f97;fill-opacity:1;fill-rule:nonzero;stroke:none"
         d="m 0,0 c -0.217,-0.277 -0.062,-0.671 -0.082,-1.019 -0.345,-0.106 -0.278,0.318 -0.38,0.465 l 0.287,0.6 L 0,0 z"
         inkscape:connector-curvature="0" />
    </g>
    <g
       transform="matrix(0.7766121,0,0,-0.73132972,24.486872,36.073435)"
       id="g5485">
      <path
         id="path5487"
         style="fill:#c69f97;fill-opacity:1;fill-rule:nonzero;stroke:none"
         d="m 0,0 c 0.056,-0.421 -0.137,-0.747 -0.405,-1.025 -0.3,0.169 -0.187,0.717 -0.068,1.017 C -0.351,0.118 -0.174,-0.078 0,0"
         inkscape:connector-curvature="0" />
    </g>
    <g
       transform="matrix(0.7766121,0,0,-0.73132972,27.033601,36.249832)"
       id="g5489">
      <path
         id="path5491"
         style="fill:#edccb8;fill-opacity:1;fill-rule:nonzero;stroke:none"
         d="m 0,0 c -0.05,-0.001 -0.148,-0.002 -0.173,-0.077 0.027,-0.074 0.125,-0.047 0.174,-0.047 -0.068,-0.274 -0.262,-0.6 -0.107,-0.895 l -0.398,0.042 c -0.154,0.296 0.237,0.576 0.084,0.846 C -0.299,-0.005 -0.126,0.122 0,0"
         inkscape:connector-curvature="0" />
    </g>
    <g
       transform="matrix(0.7766121,0,0,-0.73132972,28.786383,36.220578)"
       id="g5493">
      <path
         id="path5495"
         style="fill:#edccb8;fill-opacity:1;fill-rule:nonzero;stroke:none"
         d="M 0,0 C 0.003,-0.075 0.052,-0.099 0.077,-0.123 -0.243,-0.178 -0.438,-0.455 -0.582,-0.73 -0.528,-0.928 -0.65,-1.054 -0.674,-1.203 -0.95,-0.96 -0.685,-0.534 -0.69,-0.186 -0.521,-0.034 -0.25,0.145 0,0"
         inkscape:connector-curvature="0" />
    </g>
    <g
       transform="matrix(0.7766121,0,0,-0.73132972,27.823881,36.236595)"
       id="g5497">
      <path
         id="path5499"
         style="fill:#edccb8;fill-opacity:1;fill-rule:nonzero;stroke:none"
         d="m 0,0 c -0.167,-0.375 -0.31,-0.824 -0.152,-1.269 -0.174,0.047 -0.374,0.118 -0.427,0.291 C -0.736,-0.509 -0.396,-0.106 0,0"
         inkscape:connector-curvature="0" />
    </g>
    <g
       transform="matrix(0.7766121,0,0,-0.73132972,37.323028,37.079013)"
       id="g5501">
      <path
         id="path5503"
         style="fill:#ffffff;fill-opacity:1;fill-rule:nonzero;stroke:none"
         d="M 0,0 -0.167,-0.374 0,0 z"
         inkscape:connector-curvature="0" />
    </g>
    <g
       transform="matrix(0.7766121,0,0,-0.73132972,37.837953,39.902165)"
       id="g5505">
      <path
         id="path5507"
         style="fill:#ba5534;fill-opacity:1;fill-rule:nonzero;stroke:none"
         d="M 0,0 C 0.405,-0.464 1.026,-0.503 1.547,-0.469 2.781,-0.125 3.435,0.879 3.786,2.027 4.248,1.216 4.863,0.06 6.002,0.204 6.697,0.217 7.209,0.796 7.673,1.201 7.666,0.421 7.811,-1.03 9.08,-1.157 c 1.436,0.085 2.024,1.511 2.075,2.803 l 0,0.56 c 0.812,-5.323 -1.44,-13.765 -3.489,-19.194 1.304,5.163 2.059,10.764 1.091,13.602 -0.624,1.651 -2.056,1.989 -4.026,2.501 -1.763,-0.006 -3.148,-0.391 -4.194,-1.6 -2.542,-3.693 -3.21,-9.351 -4.002,-13.733 -1.22,-6.254 0.083,-10.914 0.628,-11.829 0.782,-1.927 3.046,-0.989 3.392,-0.908 -1.327,-0.693 -2.092,-2.444 -3.707,-2.323 -1.275,0.498 -1.028,1.967 -1.418,3.002 -1.166,8.493 0.325,16.959 1.824,24.878 0.656,2.245 1.062,4.585 1.844,6.758 C -1.306,2.285 -0.933,0.803 0,0"
         inkscape:connector-curvature="0" />
    </g>
    <g
       transform="matrix(0.7766121,0,0,-0.73132972,24.932088,52.892556)"
       id="g5509">
      <path
         id="path5511"
         style="fill:#ba5534;fill-opacity:1;fill-rule:nonzero;stroke:none"
         d="m 0,0 c 2.899,-2.556 6.16,-4.485 9.821,-5.24 0.604,-0.386 0.566,-1.032 0.723,-1.601 0.491,-2.988 -2.498,-3.369 -2.498,-3.369 -9.011,0.116 -16.91,-0.891 -25.78,-0.401 0.098,1.442 2.109,4.282 1.958,4.453 -1.246,-1.114 -2.312,-2.746 -2.68,-4.391 -0.523,0.165 -1.06,-0.39 -1.611,-0.028 0.778,2.298 2.67,4.862 5.166,5.502 5.397,0.689 10.179,-1.66 15.154,-2.292 0.542,0.208 1.322,-0.424 1.66,0.153 0,0 -9.552,9.417 -8.434,22.488 l 0.273,1.37 C -7.008,10.451 -4.472,4.514 0,0"
         inkscape:connector-curvature="0" />
    </g>
    <g
       transform="matrix(0.7766121,0,0,-0.73132972,46.73712,53.097548)"
       id="g5513">
      <path
         id="path5515"
         style="fill:#ba5534;fill-opacity:1;fill-rule:nonzero;stroke:none"
         d="m 0,0 c 5.369,-9.132 17.453,-11.658 20.524,-12.672 -2.335,0.059 -13.076,-0.804 -23.485,4.579 -1.248,1.79 -1.121,4.473 -0.111,6.327 C -2.368,-0.835 -1.352,0.672 0,0"
         inkscape:connector-curvature="0" />
    </g>
    <g
       transform="matrix(0.7766121,0,0,-0.73132972,21.255296,17.770519)"
       id="g5517">
      <path
         id="path5519"
         style="fill:#b18db8;fill-opacity:1;fill-rule:nonzero;stroke:none"
         d="m 0,0 c -0.993,0.154 -1.904,0.651 -2.56,1.537 -0.406,0.638 -0.99,1.298 -0.854,2.12 0.153,1.144 1.164,1.51 2.102,1.824 1.243,0.161 3.44,-0.068 4.75,-0.879 C 2.339,4.872 1.146,4.93 0.346,4.826 -0.593,4.512 -1.604,4.146 -1.757,3.002 -1.892,2.181 -1.31,1.521 -0.9,0.883 -0.639,0.527 -0.334,0.233 0,0"
         inkscape:connector-curvature="0" />
    </g>
    <g
       transform="matrix(0.7766121,0,0,-0.73132972,19.124894,14.987736)"
       id="g5521">
      <path
         id="path5523"
         style="fill:#ffffff;fill-opacity:1;fill-rule:nonzero;stroke:none"
         d="M 0,0 C 0,0.594 0.48,1.075 1.074,1.075 1.668,1.075 2.147,0.594 2.147,0 2.147,-0.593 1.668,-1.074 1.074,-1.074 0.48,-1.074 0,-0.593 0,0"
         inkscape:connector-curvature="0" />
    </g>
    <g
       transform="matrix(0.7766121,0,0,-0.73132972,30.995565,9.0392475)"
       id="g5525">
      <path
         id="path5527"
         style="fill:#ffffff;fill-opacity:1;fill-rule:nonzero;stroke:none"
         d="m 0,0 c 0,1.266 0.802,2.292 1.791,2.292 0.987,0 1.79,-1.026 1.79,-2.292 0,-1.266 -0.803,-2.292 -1.79,-2.292 C 0.802,-2.292 0,-1.266 0,0"
         inkscape:connector-curvature="0" />
    </g>
    <g
       transform="matrix(0.7766121,0,0,-0.73132972,27.475027,9.0077995)"
       id="g5529">
      <path
         id="path5531"
         style="fill:#ffffff;fill-opacity:1;fill-rule:nonzero;stroke:none"
         d="M 0,0 C 0.121,0.867 0.651,1.509 1.182,1.435 1.714,1.36 2.047,0.597 1.925,-0.27 1.803,-1.138 1.272,-1.78 0.741,-1.706 0.209,-1.631 -0.122,-0.867 0,0"
         inkscape:connector-curvature="0" />
    </g>
    <g
       transform="matrix(0.7766121,0,0,-0.73132972,29.628106,16.496104)"
       id="g5533">
      <path
         id="path5535"
         style="fill:#f5d75c;fill-opacity:1;fill-rule:nonzero;stroke:none"
         d="m 0,0 c -1.64,-1.971 -5.107,-7.972 -10.491,-5.517 -0.613,0.957 -1.402,2.011 -1.027,3.258 1.423,-0.422 3.435,0.116 4.402,1.02 2.671,2.224 1.115,4.289 0.264,4.671 -1.202,0.599 -2.622,0.972 -3.936,0.924 l -0.004,0.124 c 2.647,1.958 5.755,3.104 9.051,3.435 0.335,0.18 0.597,0.372 0.803,0.571 C -0.359,8.62 0.219,8.675 0.484,8.328 0.922,7.756 -0.486,4.312 -0.544,2.825 -0.578,1.925 -0.173,0.982 0,0"
         inkscape:connector-curvature="0" />
    </g>
    <g
       transform="matrix(0.7766121,0,0,-0.73132972,28.561041,6.3463445)"
       id="g5537">
      <path
         id="path5539"
         style="fill:#ba5534;fill-opacity:1;fill-rule:nonzero;stroke:none"
         d="m 0,0 c 0.034,-0.566 -0.154,-0.94 -0.317,-1.482 -1.363,-0.14 -2.849,0.293 -3.814,1.24 C -5.646,1.009 -5.397,2.83 -5.042,4.549 -3.371,4.265 -1.556,3.352 -0.544,1.256 -0.832,0.68 -1.216,-0.071 -0.882,-0.661 L 0,0 z"
         inkscape:connector-curvature="0" />
    </g>
    <g
       transform="matrix(0.7766121,0,0,-0.73132972,26.850134,19.563154)"
       id="g5541">
      <path
         id="path5543"
         style="fill:#fbea98;fill-opacity:1;fill-rule:nonzero;stroke:none"
         d="m 0,0 c -1.785,-1.568 -4.085,-2.613 -6.914,-1.323 -0.613,0.957 -1.401,2.011 -1.026,3.258 1.303,-0.387 3.105,0.033 4.137,0.802 0.066,-1.619 0.697,-3.138 2.741,-2.877 L 0,0 z m -2.457,6.878 c -0.247,0.371 -0.564,0.634 -0.817,0.748 -0.922,0.461 -1.976,0.787 -3.01,0.892 0.463,0.351 1.094,0.773 1.873,1.167 1.77,0.893 3.922,1.579 5.235,1.694 0.459,0.039 1.695,0.685 1.238,-0.172 -0.336,-0.63 -2.968,-2.578 -4.519,-4.329"
         inkscape:connector-curvature="0" />
    </g>
    <g
       transform="matrix(0.7766121,0,0,-0.73132972,30.090035,16.675719)"
       id="g5545">
      <path
         id="path5547"
         style="fill:#ba5534;fill-opacity:1;fill-rule:nonzero;stroke:none"
         d="M 0,0 C 1.52,1.907 5.041,2.679 4.309,5.72 L 3.901,6.259 C 4.91,6.882 5.54,6.263 5.69,6.166 5.673,6.228 5.649,6.286 5.622,6.34 5.879,6.119 6.077,5.908 6.077,5.908 c 0,0 -0.8,0.229 -1.142,0.172 C 4.591,6.023 4.992,5.622 4.992,5.051 4.992,4.48 4.819,3.774 4.19,3.166 3.67,2.661 1.091,1.054 0,0 M 2.846,5.4 C 2.879,5.413 2.913,5.43 2.949,5.448 L 3.362,5.877 C 3.912,5.639 3.579,4.863 3.685,4.468 2.974,2.519 0.824,1.936 -0.464,0.399 c -0.737,-0.834 -1.894,-2.672 -3.48,-4.14 0.828,1.267 2.784,4.232 3.32,4.813 0.685,0.743 1.978,1.619 2.436,1.942 0.457,0.324 0.934,0.894 0.971,1.295 0.03,0.323 0.186,0.741 0.063,1.091"
         inkscape:connector-curvature="0" />
    </g>
    <g
       transform="matrix(0.7766121,0,0,-0.73132972,40.474209,5.3700925)"
       id="g5549">
      <path
         id="path5551"
         style="fill:#e7bbb0;fill-opacity:1;fill-rule:nonzero;stroke:none"
         d="m 0,0 c -0.147,-1.492 -1.465,-2.831 -2.79,-3.623 -0.419,-0.231 -0.887,-0.438 -1.408,-0.422 l 0.056,0.288 c 0.18,0.072 0.351,0.158 0.515,0.248 1.325,0.793 2.644,2.132 2.79,3.623 C -0.864,0.302 -0.922,0.46 -1.002,0.577 -0.461,0.885 -0.084,0.594 0,0"
         inkscape:connector-curvature="0" />
    </g>
    <g
       transform="matrix(0.7766121,0,0,-0.73132972,32.079343,7.4040675)"
       id="g5553">
      <path
         id="path5555"
         style="fill:#dce8eb;fill-opacity:1;fill-rule:nonzero;stroke:none"
         d="m 0,0 c 0.127,0.037 0.259,0.056 0.396,0.056 0.987,0 1.79,-1.026 1.79,-2.292 0,-1.266 -0.803,-2.292 -1.79,-2.292 -0.196,0 -0.383,0.04 -0.558,0.113 0.798,0.23 1.396,1.144 1.396,2.236 C 1.234,-1.161 0.716,-0.299 0,0"
         inkscape:connector-curvature="0" />
    </g>
    <g
       transform="matrix(0.7766121,0,0,-0.73132972,27.970319,8.0811325)"
       id="g5557">
      <path
         id="path5559"
         style="fill:#dce8eb;fill-opacity:1;fill-rule:nonzero;stroke:none"
         d="M 0,0 C 0.169,0.131 0.357,0.195 0.544,0.168 1.076,0.093 1.409,-0.67 1.287,-1.537 1.165,-2.405 0.635,-3.047 0.104,-2.973 c -0.155,0.022 -0.292,0.102 -0.407,0.225 0.31,0.24 0.56,0.707 0.639,1.268 C 0.422,-0.865 0.28,-0.302 0,0"
         inkscape:connector-curvature="0" />
    </g>
    <g
       transform="matrix(0.7766121,0,0,-0.73132972,31.231469,9.8912465)"
       id="g5561">
      <path
         id="path5563"
         style="fill:#000000;fill-opacity:1;fill-rule:nonzero;stroke:none"
         d="M 0,0 C 0,0.642 0.519,1.161 1.161,1.161 1.802,1.161 2.322,0.642 2.322,0 2.322,-0.641 1.802,-1.161 1.161,-1.161 0.519,-1.161 0,-0.641 0,0"
         inkscape:connector-curvature="0" />
    </g>
    <g
       transform="matrix(0.7766121,0,0,-0.73132972,27.534919,9.7441025)"
       id="g5565">
      <path
         id="path5567"
         style="fill:#000000;fill-opacity:1;fill-rule:nonzero;stroke:none"
         d="M 0,0 C 0,0.436 0.354,0.789 0.79,0.789 1.226,0.789 1.58,0.436 1.58,0 1.58,-0.437 1.226,-0.79 0.79,-0.79 0.354,-0.79 0,-0.437 0,0"
         inkscape:connector-curvature="0" />
    </g>
    <g
       transform="matrix(0.7766121,0,0,-0.73132972,27.534919,9.5634645)"
       id="g5569">
      <path
         id="path5571"
         style="fill:#ffffff;fill-opacity:1;fill-rule:nonzero;stroke:none"
         d="M 0,0 C 0,0.236 0.191,0.428 0.429,0.428 0.666,0.428 0.856,0.236 0.856,0 0.856,-0.237 0.666,-0.429 0.429,-0.429 0.191,-0.429 0,-0.237 0,0"
         inkscape:connector-curvature="0" />
    </g>
    <g
       transform="matrix(0.7766121,0,0,-0.73132972,31.319444,9.5773595)"
       id="g5573">
      <path
         id="path5575"
         style="fill:#ffffff;fill-opacity:1;fill-rule:nonzero;stroke:none"
         d="M 0,0 C 0,0.31 0.252,0.561 0.562,0.561 0.872,0.561 1.123,0.31 1.123,0 1.123,-0.31 0.872,-0.561 0.562,-0.561 0.252,-0.561 0,-0.31 0,0"
         inkscape:connector-curvature="0" />
    </g>
    <g
       transform="matrix(0.7766121,0,0,-0.73132972,22.933648,36.535123)"
       id="g5577">
      <path
         id="path5579"
         style="fill:#fbea98;fill-opacity:1;fill-rule:nonzero;stroke:none"
         d="m 0,0 c 0.151,-0.195 0.134,-0.593 0.48,-0.587 0.737,0.509 0.987,-0.951 1.666,-0.095 l 0.29,0.477 C 2.602,-0.274 2.8,-0.292 3.004,-0.302 2.858,-0.778 2.72,-1.257 2.582,-1.733 0.367,-8.979 3.671,-20.389 13.593,-24.496 l -0.007,-0.236 c -0.608,-0.755 -1.591,-1.343 -2.655,-1.46 -11.633,3.228 -15.589,15.761 -13.218,23.522 0.397,1.372 0.796,2.768 1.367,4.069 C -0.615,1.057 -0.846,0.035 0,0"
         inkscape:connector-curvature="0" />
    </g>
    <g
       transform="matrix(0.7766121,0,0,-0.73132972,12.284059,58.180801)"
       id="g5581">
      <path
         id="path5583"
         style="fill:#db923a;fill-opacity:1;fill-rule:nonzero;stroke:none"
         d="m 0,0 c 0.327,0.585 0.565,1.01 0.51,1.073 -1.015,-0.907 -1.908,-2.157 -2.405,-3.477 -0.164,-0.292 -0.312,-0.587 -0.443,-0.883 -0.471,0.026 -0.95,-0.383 -1.443,-0.059 0.778,2.298 2.67,4.862 5.166,5.502 5.397,0.689 10.179,-1.66 15.154,-2.292 0.542,0.208 1.322,-0.424 1.66,0.153 0,0 -9.552,9.417 -8.433,22.488 l 0.272,1.37 c -0.388,-3.163 0.084,-6.259 1.234,-9.132 1.787,-9.298 9.616,-15.674 9.616,-15.674 -0.336,-0.576 -2.677,0.25 -3.221,0.042 C 12.691,-0.256 7.911,2.093 2.512,1.403 1.582,1.166 0.736,0.66 0,0"
         inkscape:connector-curvature="0" />
    </g>
    <g
       transform="matrix(0.7766121,0,0,-0.73132972,43.738403,56.817017)"
       id="g5585">
      <path
         id="path5587"
         style="fill:#db923a;fill-opacity:1;fill-rule:nonzero;stroke:none"
         d="M 0,0 C -0.021,1.169 0.265,2.357 0.789,3.32 0.986,3.581 1.211,3.889 1.456,4.18 2.516,2.986 4.351,1.146 7.146,-0.934 12.029,-4.568 17.732,-6.116 17.732,-6.116 17.732,-6.116 6.606,-5.135 0,0"
         inkscape:connector-curvature="0" />
    </g>
    <g
       transform="matrix(0.7766121,0,0,-0.73132972,36.081443,48.623857)"
       id="g5589">
      <path
         id="path5591"
         style="fill:#edccb8;fill-opacity:1;fill-rule:evenodd;stroke:none"
         d="M 0,0 C 1.955,7.598 2.956,11.195 8.236,10.038 12.865,9.023 10.78,-0.313 8.884,-6.328 7.522,-10.643 3.7,-17.574 0.876,-16.659 -1.672,-15.833 -1.857,-7.21 0,0"
         inkscape:connector-curvature="0" />
    </g>
    <g
       transform="matrix(0.7766121,0,0,-0.73132972,36.815621,50.567878)"
       id="g5593">
      <path
         id="path5595"
         style="fill:#f3dcca;fill-opacity:1;fill-rule:nonzero;stroke:none"
         d="M 0,0 C 0.979,5.546 2.943,9.835 4.392,9.579 5.84,9.324 6.22,4.622 5.242,-0.924 4.265,-6.47 2.299,-10.759 0.851,-10.503 -0.597,-10.248 -0.978,-5.545 0,0"
         inkscape:connector-curvature="0" />
    </g>
    <g
       transform="matrix(0.7766121,0,0,-0.73132972,38.333183,44.44226)"
       id="g5597">
      <path
         id="path5599"
         style="fill:#f3dcca;fill-opacity:1;fill-rule:nonzero;stroke:none"
         d="M 0,0 C 0,1.882 1.693,3.407 3.782,3.407 5.869,3.407 7.563,1.882 7.563,0 7.563,-1.882 5.869,-3.408 3.782,-3.408 1.693,-3.408 0,-1.882 0,0"
         inkscape:connector-curvature="0" />
    </g>
    <g
       transform="matrix(0.7766121,0,0,-0.73132972,38.124678,45.074714)"
       id="g5601">
      <path
         id="path5603"
         style="fill:#f8e9d5;fill-opacity:1;fill-rule:nonzero;stroke:none"
         d="M 0,0 C 0,1.257 1.037,2.277 2.316,2.277 3.594,2.277 4.631,1.257 4.631,0 4.631,-1.257 3.594,-2.276 2.316,-2.276 1.037,-2.276 0,-1.257 0,0"
         inkscape:connector-curvature="0" />
    </g>
    <g
       transform="matrix(0.7766121,0,0,-0.73132972,37.496678,37.662834)"
       id="g5605">
      <path
         id="path5607"
         style="fill:#edccb8;fill-opacity:1;fill-rule:nonzero;stroke:none"
         d="M 0,0 C 0.234,1.482 1.256,2.552 2.282,2.39 3.308,2.227 3.949,0.894 3.715,-0.589 3.479,-2.071 2.458,-3.141 1.432,-2.979 0.406,-2.816 -0.234,-1.483 0,0"
         inkscape:connector-curvature="0" />
    </g>
    <g
       transform="matrix(0.7766121,0,0,-0.73132972,41.172725,36.905103)"
       id="g5609">
      <path
         id="path5611"
         style="fill:#edccb8;fill-opacity:1;fill-rule:nonzero;stroke:none"
         d="M 0,0 C 0.26,1.644 1.31,2.845 2.341,2.681 3.372,2.518 3.999,1.052 3.738,-0.593 3.478,-2.237 2.431,-3.438 1.397,-3.275 0.365,-3.111 -0.261,-1.645 0,0"
         inkscape:connector-curvature="0" />
    </g>
    <g
       transform="matrix(0.7766121,0,0,-0.73132972,44.148703,38.355257)"
       id="g5613">
      <path
         id="path5615"
         style="fill:#edccb8;fill-opacity:1;fill-rule:nonzero;stroke:none"
         d="M 0,0 C 0.255,1.309 1.08,2.251 1.843,2.102 2.607,1.954 3.02,0.772 2.765,-0.538 2.51,-1.847 1.686,-2.788 0.921,-2.64 0.158,-2.492 -0.254,-1.31 0,0"
         inkscape:connector-curvature="0" />
    </g>
    <g
       transform="matrix(0.7766121,0,0,-0.73132972,37.672566,37.492507)"
       id="g5617">
      <path
         id="path5619"
         style="fill:#f3dcca;fill-opacity:1;fill-rule:nonzero;stroke:none"
         d="M 0,0 C 0,0.97 0.553,1.756 1.237,1.756 1.92,1.756 2.474,0.97 2.474,0 2.474,-0.97 1.92,-1.756 1.237,-1.756 0.553,-1.756 0,-0.97 0,0"
         inkscape:connector-curvature="0" />
    </g>
    <g
       transform="matrix(0.7766121,0,0,-0.73132972,41.373712,36.801181)"
       id="g5621">
      <path
         id="path5623"
         style="fill:#f3dcca;fill-opacity:1;fill-rule:nonzero;stroke:none"
         d="M 0,0 C 0,0.978 0.566,1.77 1.265,1.77 1.961,1.77 2.528,0.978 2.528,0 2.528,-0.978 1.961,-1.771 1.265,-1.771 0.566,-1.771 0,-0.978 0,0"
         inkscape:connector-curvature="0" />
    </g>
    <g
       transform="matrix(0.7766121,0,0,-0.73132972,44.206296,38.182809)"
       id="g5625">
      <path
         id="path5627"
         style="fill:#f3dcca;fill-opacity:1;fill-rule:nonzero;stroke:none"
         d="M 0,0 C 0,0.771 0.458,1.397 1.024,1.397 1.59,1.397 2.049,0.771 2.049,0 2.049,-0.772 1.59,-1.398 1.024,-1.398 0.458,-1.398 0,-0.772 0,0"
         inkscape:connector-curvature="0" />
    </g>
    <g
       transform="matrix(0.7766121,0,0,-0.73132972,34.963618,52.782271)"
       id="g5629">
      <path
         id="path5631"
         style="fill:#db923a;fill-opacity:1;fill-rule:nonzero;stroke:none"
         d="m 0,0 c -0.363,-2.552 -0.316,-4.786 -0.109,-6.537 0.06,-1.373 0.179,-2.75 0.369,-4.127 0.361,-0.959 0.176,-2.289 1.159,-2.877 -0.265,-0.1 -0.55,-0.15 -0.87,-0.125 -1.275,0.498 -1.028,1.967 -1.418,3.002 -1.166,8.493 0.325,16.959 1.824,24.878 0.649,2.221 1.054,4.536 1.818,6.69 C 2.5,20.098 2.647,19.083 3.128,18.295 2.779,16.938 2.477,15.558 2.083,14.214 1.215,9.625 0.349,4.854 0,0"
         inkscape:connector-curvature="0" />
    </g>
    <g
       transform="matrix(0.7766121,0,0,-0.73132972,39.533763,35.542782)"
       id="g5633">
      <path
         id="path5635"
         style="fill:#db923a;fill-opacity:1;fill-rule:nonzero;stroke:none"
         d="M 0,0 C -0.646,0.237 -1.072,-0.122 -1.635,-0.416 L -2.512,-1.399 C -1.755,0.699 0.199,2.495 2.48,2.634 4.056,2.703 5.589,2.079 6.688,0.873 5.755,1.479 4.66,1.777 3.547,1.728 2.188,1.645 0.943,0.974 0,0"
         inkscape:connector-curvature="0" />
    </g>
    <g
       transform="matrix(0.7766121,0,0,-0.73132972,20.014518,31.972211)"
       id="g5637">
      <path
         id="path5639"
         style="fill:#db923a;fill-opacity:1;fill-rule:nonzero;stroke:none"
         d="M 0,0 C 0.729,0.468 3.378,4.194 7.493,5.565 8.004,5.341 8.333,4.88 8.333,4.88 c 0,0 1.566,-1.626 1.566,-2.179 C 9.899,2.289 9.567,1.777 9.397,1.54 9.143,2.931 8.642,3.285 8.581,3.203 8.742,2.791 8.781,2.372 8.793,1.946 8.522,1.674 8.009,1.257 7.642,1.549 7.194,1.906 6.483,3.057 6.294,3.372 l 0.025,0.09 -0.073,-0.01 c 0,0 -3.832,-3.784 -5.8,-5.687 -0.617,-0.232 -1.07,-0.294 -1.183,-0.053 C -1.06,-0.814 0.569,2.128 1.56,3.13 3.235,5.518 5.456,7.538 7.713,9.352 8.109,9.312 8.383,9.205 8.425,8.993 8.609,8.072 4.357,5.294 4.357,5.294 L 1.796,2.467 C 0.645,1.294 -0.056,0.285 0,0"
         inkscape:connector-curvature="0" />
    </g>
    <g
       transform="matrix(0.7766121,0,0,-0.73132972,27.524357,32.592452)"
       id="g5641">
      <path
         id="path5643"
         style="fill:#dce8eb;fill-opacity:1;fill-rule:nonzero;stroke:none"
         d="m 0,0 c 0.059,-0.471 -0.134,-0.847 -0.4,-1.199 -0.162,-0.134 -0.334,-0.191 -0.511,-0.197 0.166,0.278 0.265,0.579 0.221,0.934 0,0 -0.658,0.111 -1.206,0.132 0.029,0.146 0.072,0.29 0.108,0.422 0.444,0.132 1.063,0.242 1.43,0.571 L 0,0 z"
         inkscape:connector-curvature="0" />
    </g>
    <g
       transform="matrix(0.7766121,0,0,-0.73132972,26.414051,32.685331)"
       id="g5645">
      <path
         id="path5647"
         style="fill:#000000;fill-opacity:1;fill-rule:nonzero;stroke:none"
         d="M 0,0 C 0,0.318 0.258,0.576 0.576,0.576 0.895,0.576 1.152,0.318 1.152,0 1.152,-0.318 0.895,-0.576 0.576,-0.576 0.258,-0.576 0,-0.318 0,0"
         inkscape:connector-curvature="0" />
    </g>
    <g
       transform="matrix(0.7766121,0,0,-0.73132972,26.378389,32.702078)"
       id="g5649">
      <path
         id="path5651"
         style="fill:#ffffff;fill-opacity:1;fill-rule:nonzero;stroke:none"
         d="M 0,0 C 0,0.152 0.124,0.276 0.277,0.276 0.429,0.276 0.553,0.152 0.553,0 0.553,-0.153 0.429,-0.277 0.277,-0.277 0.124,-0.277 0,-0.153 0,0"
         inkscape:connector-curvature="0" />
    </g>
    <g
       transform="matrix(0.7766121,0,0,-0.73132972,22.672768,34.45939)"
       id="g5653">
      <path
         id="path5655"
         style="fill:#b18db8;fill-opacity:1;fill-rule:nonzero;stroke:none"
         d="M 0,0 C 0,0.539 0.579,0.975 1.296,0.975 2.012,0.975 2.594,0.539 2.594,0 2.594,-0.537 2.012,-0.974 1.296,-0.974 0.579,-0.974 0,-0.537 0,0"
         inkscape:connector-curvature="0" />
    </g>
    <g
       transform="matrix(0.7766121,0,0,-0.73132972,22.672768,34.45939)"
       id="g5657">
      <path
         id="path5659"
         style="fill:#d0bcd7;fill-opacity:1;fill-rule:nonzero;stroke:none"
         d="m 0,0 c 0,0.539 0.579,0.975 1.296,0.975 0.49,0 0.917,-0.204 1.137,-0.505 -0.194,0.086 -0.421,0.136 -0.662,0.136 -0.716,0 -1.297,-0.436 -1.297,-0.974 0,-0.171 0.058,-0.33 0.161,-0.469 C 0.255,-0.667 0,-0.356 0,0"
         inkscape:connector-curvature="0" />
    </g>
    <g
       transform="matrix(0.7766121,0,0,-0.73132972,22.815354,34.3072)"
       id="g5661">
      <path
         id="path5663"
         style="fill:#ffffff;fill-opacity:1;fill-rule:nonzero;stroke:none"
         d="M 0,0 C 0,0.27 0.229,0.49 0.514,0.49 0.798,0.49 1.028,0.27 1.028,0 1.028,-0.271 0.798,-0.491 0.514,-0.491 0.229,-0.491 0,-0.271 0,0"
         inkscape:connector-curvature="0" />
    </g>
    <g
       transform="matrix(0.7766121,0,0,-0.73132972,25.863401,32.40216)"
       id="g5665">
      <path
         id="path5667"
         style="fill:#c69f97;fill-opacity:1;fill-rule:nonzero;stroke:none"
         d="m 0,0 c -0.007,-0.095 -0.02,-0.19 -0.037,-0.284 -0.872,0.12 -2.003,0.03 -2.754,-0.059 0.339,0.475 0.724,0.895 1.337,1.161 C -1.05,0.453 -0.573,0.114 0,0"
         inkscape:connector-curvature="0" />
    </g>
    <g
       transform="matrix(0.7766121,0,0,-0.73132972,26.771976,33.821963)"
       id="g5669">
      <path
         id="path5671"
         style="fill:#c69f97;fill-opacity:1;fill-rule:nonzero;stroke:none"
         d="M 0,0 C 0.203,0.014 0.403,0.062 0.574,0.134 1.533,0.886 1.134,2.18 1.134,2.18 1.733,1.992 2.497,2.278 3.042,2.387 3,1.89 2.968,0.946 2.655,0.345 l -1.082,-1.98 c 0.033,-0.471 0.386,-0.763 0.665,-1.13 -0.51,-0.605 -1.023,0.305 -1.534,-0.251 -0.4,0.118 -0.701,0.286 -1.094,0.031 -0.236,-0.649 -0.712,-0.384 -1.233,-0.369 -0.059,0.52 0.252,0.197 0.472,0.449 0.519,0.083 1.413,0.999 1.413,0.999 -1.314,-0.407 -2.605,-0.768 -3.977,-0.296 0.097,0.065 0.251,0.094 0.477,0.079 C -1.734,-2.219 -0.4,-1.053 0,0"
         inkscape:connector-curvature="0" />
    </g>
    <g
       transform="matrix(0.7766121,0,0,-0.73132972,47.179354,47.693606)"
       id="g5673">
      <path
         id="path5675"
         style="fill:#b18db8;fill-opacity:1;fill-rule:nonzero;stroke:none"
         d="M 0,0 C 0,0 6.478,1.827 1.157,6.85 1.157,6.85 4.094,2.783 0,0"
         inkscape:connector-curvature="0" />
    </g>
    <g
       transform="matrix(0.7766121,0,0,-0.73132972,50.005911,44.190537)"
       id="g5677">
      <path
         id="path5679"
         style="fill:#b18db8;fill-opacity:1;fill-rule:nonzero;stroke:none"
         d="M 0,0 C 1.887,-2.306 -0.532,-3.733 -0.532,-3.733 3.886,-1.803 0,0 0,0"
         inkscape:connector-curvature="0" />
    </g>
  </g>
</svg>
