<?xml version="1.0" encoding="UTF-8" standalone="no"?>
<!-- Created with Inkscape (http://www.inkscape.org/) -->

<svg
   xmlns:dc="http://purl.org/dc/elements/1.1/"
   xmlns:cc="http://creativecommons.org/ns#"
   xmlns:rdf="http://www.w3.org/1999/02/22-rdf-syntax-ns#"
   xmlns:svg="http://www.w3.org/2000/svg"
   xmlns="http://www.w3.org/2000/svg"
   xmlns:sodipodi="http://sodipodi.sourceforge.net/DTD/sodipodi-0.dtd"
   xmlns:inkscape="http://www.inkscape.org/namespaces/inkscape"
   width="64px"
   height="64px"
   id="svg137752"
   version="1.1"
   inkscape:version="0.48.5 r10040"
   sodipodi:docname="Nowy dokument 10">
  <defs
     id="defs137754">
    <clipPath
       id="clipPath14503"
       clipPathUnits="userSpaceOnUse">
      <path
         inkscape:connector-curvature="0"
         id="path14505"
         d="M 0,800 1600,800 1600,0 0,0 0,800 z" />
    </clipPath>
    <clipPath
       id="clipPath14577"
       clipPathUnits="userSpaceOnUse">
      <path
         inkscape:connector-curvature="0"
         id="path14579"
         d="m 572.287,548.338 3.381,0 0,-0.333 -3.381,0 0,0.333 z" />
    </clipPath>
    <clipPath
       id="clipPath14591"
       clipPathUnits="userSpaceOnUse">
      <path
         inkscape:connector-curvature="0"
         id="path14593"
         d="m 581.153,548.338 3.265,0 0,-0.333 -3.265,0 0,0.333 z" />
    </clipPath>
  </defs>
  <sodipodi:namedview
     id="base"
     pagecolor="#ffffff"
     bordercolor="#666666"
     borderopacity="1.0"
     inkscape:pageopacity="0.0"
     inkscape:pageshadow="2"
     inkscape:zoom="5.5"
     inkscape:cx="32"
     inkscape:cy="32"
     inkscape:current-layer="layer1"
     showgrid="true"
     inkscape:document-units="px"
     inkscape:grid-bbox="true"
     inkscape:window-width="1366"
     inkscape:window-height="706"
     inkscape:window-x="-8"
     inkscape:window-y="-8"
     inkscape:window-maximized="1" />
  <metadata
     id="metadata137757">
    <rdf:RDF>
      <cc:Work
         rdf:about="">
        <dc:format>image/svg+xml</dc:format>
        <dc:type
           rdf:resource="http://purl.org/dc/dcmitype/StillImage" />
        <dc:title></dc:title>
      </cc:Work>
    </rdf:RDF>
  </metadata>
  <g
     id="layer1"
     inkscape:label="Layer 1"
     inkscape:groupmode="layer">
    <g
       id="g14455"
       transform="matrix(0.7972946,0,0,-0.66405214,52.288111,39.763969)">
      <path
         inkscape:connector-curvature="0"
         d="m 0,0 0,1.108 1.722,0 0,2.566 -1.039,0 0,-1.207 -1.366,0 0,3.9 0.683,0 0.683,0 1.039,0 0,2.14 -1.614,0 0,1.453 -2.637,0 0,-11.747 4.251,0 L 1.722,0 0,0 z"
         style="fill:#a7a5a6;fill-opacity:1;fill-rule:nonzero;stroke:none"
         id="path14457" />
    </g>
    <g
       id="g14459"
       transform="matrix(0.7972946,0,0,-0.66405214,59.350863,33.14968)">
      <path
         inkscape:connector-curvature="0"
         d="m 0,0 -2.529,0 0,-1.454 -1.691,0 0,-2.139 1.009,0 0.683,0 0.682,0 0,-3.901 -1.365,0 0,1.208 -1.009,0 0,-2.567 1.692,0 0,-1.107 -1.692,0 0,-1.787 4.22,0 L 0,0 z"
         style="fill:#a7a5a6;fill-opacity:1;fill-rule:nonzero;stroke:none"
         id="path14461" />
    </g>
    <g
       id="g14463"
       transform="matrix(0.7972946,0,0,-0.66405214,50.247436,33.14968)">
      <path
         inkscape:connector-curvature="0"
         d="m 0,0 2.637,0 0,-1.454 1.545,0 0.13,0.303 -0.062,0 -1.241,0 0,1.151 0,0.302 -0.372,0 -2.637,0 -0.373,0 0,-0.302 0,-11.747 0,-0.302 0.02,0 L 0,-11.225 0,0 z"
         style="fill:#deddde;fill-opacity:1;fill-rule:nonzero;stroke:none"
         id="path14465" />
    </g>
    <g
       id="g14467"
       transform="matrix(0.7972946,0,0,-0.66405214,57.854424,35.535816)">
      <path
         inkscape:connector-curvature="0"
         d="m 0,0 -0.683,0 -0.682,0 -1.009,0 0,2.14 1.691,0 0,1.453 2.529,0 0,-0.787 0.372,0.911 0,0.178 -0.372,0 -2.529,0 -0.372,0 0,-0.302 0,-1.151 -1.319,0 -0.372,0 0,-0.302 0,-2.14 0,-0.302 0.372,0 1.009,0 0.682,0 0.31,0 0,-2.32 L 0,-1.711 0,0 z"
         style="fill:#deddde;fill-opacity:1;fill-rule:nonzero;stroke:none"
         id="path14469" />
    </g>
    <g
       id="g14471"
       transform="matrix(0.7972946,0,0,-0.66405214,59.553541,41.151174)">
      <path
         inkscape:connector-curvature="0"
         d="m 0,0 0.087,0 0,0.302 0,3.732 L 0,0 z"
         style="fill:#a7a5a6;fill-opacity:1;fill-rule:nonzero;stroke:none"
         id="path14473" />
    </g>
    <g
       id="g14475"
       transform="matrix(0.7972946,0,0,-0.66405214,55.962045,39.028199)">
      <path
         inkscape:connector-curvature="0"
         d="m 0,0 0,2.566 1.008,0 0,-1.207 0.47,0 0.124,0.302 -0.221,0 0,0.905 0,0.303 -0.373,0 -1.008,0 -0.373,0 0,-0.303 0,-2.566 0,-0.303 0.373,0 0.8,0 L 0.922,0 0,0 z"
         style="fill:#deddde;fill-opacity:1;fill-rule:nonzero;stroke:none"
         id="path14477" />
    </g>
    <g
       id="g14479"
       transform="matrix(0.7972946,0,0,-0.66405214,55.962125,39.563224)">
      <path
         inkscape:connector-curvature="0"
         d="m 0,0 -0.373,0 0,-0.302 0,-1.787 0,-0.274 0.373,0.91 0,1.151 0.47,0 L 0.594,0 0,0 z"
         style="fill:#deddde;fill-opacity:1;fill-rule:nonzero;stroke:none"
         id="path14481" />
    </g>
    <g
       id="g14483"
       transform="matrix(0.7972946,0,0,-0.66405214,53.581802,34.114941)">
      <path
         inkscape:connector-curvature="0"
         d="m 0,0 0.068,0 0,-2.14 -0.984,0 -0.055,0 -0.682,0 -0.683,0 0,-3.318 0,-0.582 1.365,0 0,1.207 1.039,0 0,-2.566 -1.721,0 0,-1.108 1.721,0 0,-1.786 -4.25,0 0,0.522 -0.353,-0.825 0.353,0 4.25,0 0.373,0 0,0.303 0,1.786 0,0.302 -0.373,0 -1.349,0 0,0.503 1.349,0 0.373,0 0,0.303 0,2.566 0,0.303 -0.373,0 -1.039,0 -0.372,0 0,-0.303 0,-0.905 -0.621,0 0,1.151 0,2.146 0.311,0 0.608,0 0.074,0 1.039,0 0.373,0 0,0.301 0,2.14 0,0.302 -0.312,0 L 0,0 z"
         style="fill:#656263;fill-opacity:1;fill-rule:nonzero;stroke:none"
         id="path14485" />
    </g>
    <g
       id="g14487"
       transform="matrix(0.7972946,0,0,-0.66405214,57.557269,37.276631)">
      <path
         inkscape:connector-curvature="0"
         d="m 0,0 0,-0.977 -0.4,0 -0.123,-0.302 0.896,0 0,2.19 L 0,0 z"
         style="fill:#656263;fill-opacity:1;fill-rule:nonzero;stroke:none"
         id="path14489" />
    </g>
    <g
       id="g14491"
       transform="matrix(0.7972946,0,0,-0.66405214,59.326389,33.672688)">
      <path
         inkscape:connector-curvature="0"
         d="m 0,0 0,-10.959 -4.22,0 0,0.635 -0.372,-0.91 0,-0.028 0.372,0 4.22,0 0.285,0 0.087,4.033 0,8.017 0,0.123 L 0,0 z"
         style="fill:#656263;fill-opacity:1;fill-rule:nonzero;stroke:none"
         id="path14493" />
    </g>
    <g
       id="g14495"
       transform="matrix(0.7972946,0,0,-0.66405214,57.31019,39.028199)">
      <path
         inkscape:connector-curvature="0"
         d="m 0,0 -0.769,0 -0.122,-0.303 0.519,0 0,-0.503 -0.725,0 -0.124,-0.302 1.221,0 L 0,0 z"
         style="fill:#656263;fill-opacity:1;fill-rule:nonzero;stroke:none"
         id="path14497" />
    </g>
    <g
       id="g14499"
       transform="matrix(0.7972946,0,0,-0.66405214,-406.33065,397.27464)">
      <g
         id="g14501"
         clip-path="url(#clipPath14503)">
        <g
           id="g14507"
           transform="translate(525.6826,547.5869)">
          <path
             inkscape:connector-curvature="0"
             d="m 0,0 c 0,-1.876 -1.521,-3.398 -3.397,-3.398 -1.877,0 -3.398,1.522 -3.398,3.398 0,1.074 0.5,2.03 1.278,2.653 -0.778,0.622 -1.278,1.578 -1.278,2.653 0,1.876 1.521,3.397 3.398,3.397 C -1.521,8.703 0,7.182 0,5.306 0,4.231 -0.5,3.275 -1.278,2.653 -0.5,2.03 0,1.074 0,0 M 41.177,5.53 C 40.975,5.417 40.813,5.254 40.813,5.021 c 0,0 -0.005,-0.128 -0.11,-0.128 l -0.019,0 -0.004,0 -0.047,0 -0.004,0 -0.019,0 c -0.105,0 -0.111,0.128 -0.111,0.128 0,0.294 -0.257,0.476 -0.525,0.587 -3.163,0.173 -6.326,0.158 -9.489,-0.032 -3.18,-0.2 -2.637,-0.434 -5.818,-0.561 L 15.126,4.617 5.585,4.129 C 5.209,4.107 4.833,4.086 4.456,4.064 c -0.575,6.843 -3.14,9.461 -7.714,9.461 -4.884,0 -8.844,-4.868 -8.844,-10.872 0,-6.005 3.96,-10.872 8.844,-10.872 4.574,0 7.139,2.617 7.714,9.46 C 4.833,1.219 5.209,1.198 5.585,1.176 l 9.541,-0.487 9.541,-0.398 c 3.181,-0.126 2.638,-0.362 5.818,-0.562 3.163,-0.189 6.326,-0.205 9.489,-0.031 0.268,0.11 0.525,0.293 0.525,0.587 0,0 0.006,0.128 0.111,0.128 l 0.019,0 0.004,0 0.047,0 0.004,0 0.019,0 c 0.105,0 0.11,-0.128 0.11,-0.128 0,-0.234 0.162,-0.397 0.364,-0.51 1.509,0.097 3.018,0.212 4.528,0.359 l 0,5.037 c -1.51,0.147 -3.019,0.263 -4.528,0.359"
             style="fill:#a7a5a6;fill-opacity:1;fill-rule:nonzero;stroke:none"
             id="path14509" />
        </g>
        <g
           id="g14511"
           transform="translate(566.3838,552.4795)">
          <path
             inkscape:connector-curvature="0"
             d="M 0,0 -0.019,0 -0.023,0 -0.07,0 -0.074,0 -0.093,0 c -0.105,0 -0.111,0.128 -0.111,0.128 l 0,-4.735 c 0,0 0.006,0.128 0.111,0.128 l 0.019,0 0.004,0 0.047,0 0.004,0 0.019,0 c 0.104,0 0.11,-0.128 0.11,-0.128 l 0,4.735 C 0.11,0.128 0.104,0 0,0"
             style="fill:#918f90;fill-opacity:1;fill-rule:nonzero;stroke:none"
             id="path14513" />
        </g>
        <g
           id="g14515"
           transform="translate(566.2788,552.4834)">
          <path
             inkscape:connector-curvature="0"
             d="m 0,0 c -0.091,0.011 -0.099,0.124 -0.099,0.124 l 0,-4.735 c 0,0 0.008,0.112 0.099,0.124 L 0,0 z"
             style="fill:#4f4c4c;fill-opacity:1;fill-rule:nonzero;stroke:none"
             id="path14517" />
        </g>
        <path
           inkscape:connector-curvature="0"
           d="m 566.18,549.34 -36.042,0 0,1.799 36.042,0 0,-1.799 z"
           style="fill:#bdbcbc;fill-opacity:1;fill-rule:nonzero;stroke:none"
           id="path14519" />
        <path
           inkscape:connector-curvature="0"
           d="m 566.18,549.992 -36.042,0 0,0.496 36.042,0 0,-0.496 z"
           style="fill:#deddde;fill-opacity:1;fill-rule:nonzero;stroke:none"
           id="path14521" />
        <path
           inkscape:connector-curvature="0"
           d="m 571.387,549.34 -4.893,0 0,1.799 4.893,0 0,-1.799 z"
           style="fill:#bdbcbc;fill-opacity:1;fill-rule:nonzero;stroke:none"
           id="path14523" />
        <path
           inkscape:connector-curvature="0"
           d="m 571.387,549.992 -4.893,0 0,0.496 4.893,0 0,-0.496 z"
           style="fill:#deddde;fill-opacity:1;fill-rule:nonzero;stroke:none"
           id="path14525" />
        <g
           id="g14527"
           transform="translate(530.1387,551.6514)">
          <path
             inkscape:connector-curvature="0"
             d="M 0,0 C 0.382,0 0.692,-0.632 0.692,-1.412 0.692,-2.191 0.382,-2.824 0,-2.824 L 0,0 z"
             style="fill:#656263;fill-opacity:1;fill-rule:nonzero;stroke:none"
             id="path14529" />
        </g>
        <g
           id="g14531"
           transform="translate(566.5146,552.6074)">
          <path
             inkscape:connector-curvature="0"
             d="M 0,0 C 0.132,-0.395 0.192,-0.789 0.244,-1.184 0.294,-1.579 0.292,-1.973 0.316,-2.368 0.29,-2.762 0.294,-3.157 0.242,-3.552 0.192,-3.946 0.131,-4.341 0,-4.735 l -0.037,0 c -0.021,1.578 -0.021,3.156 0,4.735 L 0,0 z"
             style="fill:#f2f1f2;fill-opacity:1;fill-rule:nonzero;stroke:none"
             id="path14533" />
        </g>
        <path
           inkscape:connector-curvature="0"
           d="m 571.387,548.308 13.931,0 0,3.863 -13.931,0 0,-3.863 z"
           style="fill:#a7a5a6;fill-opacity:1;fill-rule:nonzero;stroke:none"
           id="path14535" />
        <path
           inkscape:connector-curvature="0"
           d="m 585.318,548.64 0.264,0 0,3.2 -0.264,0 0,-3.2 z"
           style="fill:#a7a5a6;fill-opacity:1;fill-rule:nonzero;stroke:none"
           id="path14537" />
        <path
           inkscape:connector-curvature="0"
           d="m 585.318,548.64 0.132,0 0,3.2 -0.132,0 0,-3.2 z"
           style="fill:#5c595a;fill-opacity:1;fill-rule:nonzero;stroke:none"
           id="path14539" />
        <g
           id="g14541"
           transform="translate(585.5825,552.1479)">
          <path
             inkscape:connector-curvature="0"
             d="m 0,0 0,0 c 0.533,0 0.966,-0.417 0.966,-0.932 l 0,-1.953 C 0.966,-3.399 0.533,-3.816 0,-3.816 L 0,0 z"
             style="fill:#a7a5a6;fill-opacity:1;fill-rule:nonzero;stroke:none"
             id="path14543" />
        </g>
        <path
           inkscape:connector-curvature="0"
           d="m 585.318,549.588 -13.931,0 0,1.303 13.931,0 0,-1.303 z"
           style="fill:#bdbcbc;fill-opacity:1;fill-rule:nonzero;stroke:none"
           id="path14545" />
        <path
           inkscape:connector-curvature="0"
           d="m 585.318,550.06 -13.931,0 0,0.359 13.931,0 0,-0.359 z"
           style="fill:#deddde;fill-opacity:1;fill-rule:nonzero;stroke:none"
           id="path14547" />
        <g
           id="g14549"
           transform="translate(571.4038,552.1714)">
          <path
             inkscape:connector-curvature="0"
             d="M 0,0 C 0.106,-0.322 0.182,-0.644 0.22,-0.966 0.266,-1.288 0.263,-1.61 0.286,-1.932 0.262,-2.253 0.266,-2.576 0.219,-2.897 0.181,-3.219 0.105,-3.542 0,-3.863 l -0.033,0 c -0.019,1.287 -0.019,2.575 0,3.863 L 0,0 z"
             style="fill:#4f4c4c;fill-opacity:1;fill-rule:nonzero;stroke:none"
             id="path14551" />
        </g>
        <g
           id="g14553"
           transform="translate(516.5195,542.6548)">
          <path
             inkscape:connector-curvature="0"
             d="m 0,0 -0.268,-0.347 c 1.581,-1.822 3.706,-2.94 6.045,-2.94 0.118,0 0.234,0.003 0.35,0.006 C 3.726,-3.213 1.562,-1.97 0,0"
             style="fill:#6e6b6c;fill-opacity:1;fill-rule:nonzero;stroke:none"
             id="path14555" />
        </g>
        <g
           id="g14557"
           transform="translate(514.5806,546.3931)">
          <path
             inkscape:connector-curvature="0"
             d="m 0,0 c -0.385,1.189 -0.6,2.487 -0.6,3.847 0,1.441 0.239,2.814 0.669,4.062 1.282,3.909 4.357,6.689 7.973,6.803 -0.108,0.003 -0.216,0.007 -0.326,0.007 -4.884,0 -8.844,-4.867 -8.844,-10.872 0,-3.13 1.077,-5.949 2.799,-7.932 l 0.268,0.347 C 1.099,-2.679 0.434,-1.41 0,0"
             style="fill:#d3d2d2;fill-opacity:1;fill-rule:nonzero;stroke:none"
             id="path14559" />
        </g>
        <g
           id="g14561"
           transform="translate(516.5195,542.6548)">
          <path
             inkscape:connector-curvature="0"
             d="M 0,0 0.062,0.081 C -0.801,1.099 -1.487,2.344 -1.939,3.738 -1.505,2.329 -0.84,1.06 0,0"
             style="fill:#d3d2d2;fill-opacity:1;fill-rule:nonzero;stroke:none"
             id="path14563" />
        </g>
        <g
           id="g14565"
           transform="translate(518.8291,547.5869)">
          <path
             inkscape:connector-curvature="0"
             d="M 0,0 C 0,1.074 0.5,2.03 1.278,2.653 0.5,3.275 0,4.231 0,5.306 0,7.182 1.521,8.703 3.397,8.703 4.561,8.703 5.586,8.118 6.198,7.228 L 6.642,7.952 C 5.873,8.893 4.705,9.495 3.397,9.495 c -2.309,0 -4.189,-1.88 -4.189,-4.189 0,-0.981 0.339,-1.911 0.949,-2.653 C -0.453,1.911 -0.792,0.981 -0.792,0 c 0,-1.003 0.356,-1.924 0.945,-2.646 l 0.444,0.724 C 0.221,-1.375 0,-0.714 0,0"
             style="fill:#7b7979;fill-opacity:1;fill-rule:nonzero;stroke:none"
             id="path14567" />
        </g>
        <g
           id="g14569"
           transform="translate(525.0273,554.8145)">
          <path
             inkscape:connector-curvature="0"
             d="m 0,0 c 0.376,-0.547 0.597,-1.208 0.597,-1.922 0,-1.074 -0.5,-2.03 -1.278,-2.653 0.778,-0.622 1.278,-1.579 1.278,-2.653 0,-1.876 -1.521,-3.397 -3.398,-3.397 -1.162,0 -2.188,0.584 -2.801,1.476 l -0.443,-0.725 c 0.769,-0.94 1.938,-1.543 3.244,-1.543 2.31,0 4.19,1.879 4.19,4.189 0,0.981 -0.339,1.912 -0.949,2.653 0.61,0.742 0.949,1.673 0.949,2.653 0,1.003 -0.355,1.924 -0.945,2.646 L 0,0 z"
             style="fill:#e9e9e9;fill-opacity:1;fill-rule:nonzero;stroke:none"
             id="path14571" />
        </g>
        <g
           id="g14573">
          <g
             id="g14575" />
          <g
             id="g14581">
            <g
               clip-path="url(#clipPath14577)"
               id="g14583">
              <path
                 inkscape:connector-curvature="0"
                 d="m 575.668,548.005 -3.382,0 0,0.333 3.382,0 0,-0.333 z"
                 style="fill:#5a5758;fill-opacity:1;fill-rule:nonzero;stroke:none"
                 id="path14585" />
            </g>
          </g>
        </g>
        <g
           id="g14587">
          <g
             id="g14589" />
          <g
             id="g14595">
            <g
               clip-path="url(#clipPath14591)"
               id="g14597">
              <path
                 inkscape:connector-curvature="0"
                 d="m 584.418,548.005 -3.265,0 0,0.333 3.265,0 0,-0.333 z"
                 style="fill:#5a5758;fill-opacity:1;fill-rule:nonzero;stroke:none"
                 id="path14599" />
            </g>
          </g>
        </g>
      </g>
    </g>
  </g>
</svg>
