<?xml version="1.0" encoding="UTF-8" standalone="no"?>
<!-- Created with Inkscape (http://www.inkscape.org/) -->

<svg
   xmlns:dc="http://purl.org/dc/elements/1.1/"
   xmlns:cc="http://creativecommons.org/ns#"
   xmlns:rdf="http://www.w3.org/1999/02/22-rdf-syntax-ns#"
   xmlns:svg="http://www.w3.org/2000/svg"
   xmlns="http://www.w3.org/2000/svg"
   xmlns:sodipodi="http://sodipodi.sourceforge.net/DTD/sodipodi-0.dtd"
   xmlns:inkscape="http://www.inkscape.org/namespaces/inkscape"
   width="64px"
   height="64px"
   id="svg137392"
   version="1.1"
   inkscape:version="0.48.5 r10040"
   sodipodi:docname="Nowy dokument 8">
  <defs
     id="defs137394">
    <clipPath
       id="clipPath3385"
       clipPathUnits="userSpaceOnUse">
      <path
         inkscape:connector-curvature="0"
         id="path3387"
         d="M 0,800 1600,800 1600,0 0,0 0,800 z" />
    </clipPath>
    <clipPath
       id="clipPath3405"
       clipPathUnits="userSpaceOnUse">
      <path
         inkscape:connector-curvature="0"
         id="path3407"
         d="m 247.407,760.629 6.926,0 0,-7.26 -6.926,0 0,7.26 z" />
    </clipPath>
    <clipPath
       id="clipPath3441"
       clipPathUnits="userSpaceOnUse">
      <path
         inkscape:connector-curvature="0"
         id="path3443"
         d="m 268.212,768.497 11.788,0 0,-40.397 -11.788,0 0,40.397 z" />
    </clipPath>
    <clipPath
       id="clipPath3457"
       clipPathUnits="userSpaceOnUse">
      <path
         inkscape:connector-curvature="0"
         id="path3459"
         d="m 221.59,739.555 20.662,0 0,-11.455 -20.662,0 0,11.455 z" />
    </clipPath>
    <clipPath
       id="clipPath3477"
       clipPathUnits="userSpaceOnUse">
      <path
         inkscape:connector-curvature="0"
         id="path3479"
         d="m 232.227,761.942 5.197,0 0,-5.13 -5.197,0 0,5.13 z" />
    </clipPath>
    <clipPath
       id="clipPath3497"
       clipPathUnits="userSpaceOnUse">
      <path
         inkscape:connector-curvature="0"
         id="path3499"
         d="m 232.714,760.803 5.669,0 0,-5.275 -5.669,0 0,5.275 z" />
    </clipPath>
    <clipPath
       id="clipPath3517"
       clipPathUnits="userSpaceOnUse">
      <path
         inkscape:connector-curvature="0"
         id="path3519"
         d="m 255.562,750.194 5.198,0 0,-5.13 -5.198,0 0,5.13 z" />
    </clipPath>
    <clipPath
       id="clipPath3537"
       clipPathUnits="userSpaceOnUse">
      <path
         inkscape:connector-curvature="0"
         id="path3539"
         d="m 256.05,749.056 5.668,0 0,-5.276 -5.668,0 0,5.276 z" />
    </clipPath>
    <clipPath
       id="clipPath3561"
       clipPathUnits="userSpaceOnUse">
      <path
         inkscape:connector-curvature="0"
         id="path3563"
         d="m 267.707,759.8 2.63,0 0,-3.025 -2.63,0 0,3.025 z" />
    </clipPath>
    <clipPath
       id="clipPath3585"
       clipPathUnits="userSpaceOnUse">
      <path
         inkscape:connector-curvature="0"
         id="path3587"
         d="m 261.557,758.816 2.63,0 0,-3.024 -2.63,0 0,3.024 z" />
    </clipPath>
    <clipPath
       id="clipPath3609"
       clipPathUnits="userSpaceOnUse">
      <path
         inkscape:connector-curvature="0"
         id="path3611"
         d="m 264.196,763.105 2.63,0 0,-3.024 -2.63,0 0,3.024 z" />
    </clipPath>
    <clipPath
       id="clipPath3633"
       clipPathUnits="userSpaceOnUse">
      <path
         inkscape:connector-curvature="0"
         id="path3635"
         d="m 265.235,755.588 2.63,0 0,-3.025 -2.63,0 0,3.025 z" />
    </clipPath>
  </defs>
  <sodipodi:namedview
     id="base"
     pagecolor="#ffffff"
     bordercolor="#666666"
     borderopacity="1.0"
     inkscape:pageopacity="0.0"
     inkscape:pageshadow="2"
     inkscape:zoom="5.5"
     inkscape:cx="32"
     inkscape:cy="32"
     inkscape:current-layer="layer1"
     showgrid="true"
     inkscape:document-units="px"
     inkscape:grid-bbox="true"
     inkscape:window-width="1366"
     inkscape:window-height="706"
     inkscape:window-x="-8"
     inkscape:window-y="-8"
     inkscape:window-maximized="1" />
  <metadata
     id="metadata137397">
    <rdf:RDF>
      <cc:Work
         rdf:about="">
        <dc:format>image/svg+xml</dc:format>
        <dc:type
           rdf:resource="http://purl.org/dc/dcmitype/StillImage" />
        <dc:title></dc:title>
      </cc:Work>
    </rdf:RDF>
  </metadata>
  <g
     id="layer1"
     inkscape:label="Layer 1"
     inkscape:groupmode="layer">
    <g
       id="g3381"
       transform="matrix(0.86641866,0,0,-0.86641866,-185.20184,683.13628)">
      <g
         id="g3383"
         clip-path="url(#clipPath3385)">
        <g
           id="g3389"
           transform="translate(250.3745,753.5376)">
          <path
             inkscape:connector-curvature="0"
             d="m 0,0 c -2.045,0 -3.703,1.674 -3.703,3.739 0,2.066 1.658,3.742 3.703,3.742 2.045,0 3.703,-1.676 3.703,-3.742 C 3.703,1.674 2.045,0 0,0 m 29.437,-13.025 c -0.286,4.684 -3.418,14.342 -5.604,20.845 -2.183,6.501 -7.832,7.888 -7.832,7.888 l -3.372,0 c 0,0 -1.851,-1.434 -2.944,-2.484 -1.091,-1.052 -3.86,-1.692 -3.86,-1.692 l -5.825,0 -5.824,0 c 0,0 -2.77,0.64 -3.86,1.692 -1.093,1.05 -2.944,2.484 -2.944,2.484 l -3.372,0 c 0,0 -5.651,-1.387 -7.833,-7.888 -2.186,-6.503 -5.319,-16.161 -5.604,-20.845 -0.285,-4.685 -0.901,-13.77 4.036,-12.241 4.938,1.531 11.49,7.89 11.49,7.89 0,0 3.228,3.633 7.549,3.633 l 6.362,0 6.361,0 c 4.322,0 7.55,-3.633 7.55,-3.633 0,0 6.553,-6.359 11.489,-7.89 4.937,-1.529 4.322,7.556 4.037,12.241"
             style="fill:#e9e9e9;fill-opacity:1;fill-rule:nonzero;stroke:none"
             id="path3391" />
        </g>
        <g
           id="g3393"
           transform="translate(254.333,757.3276)">
          <path
             inkscape:connector-curvature="0"
             d="m 0,0 c 0,-2.187 -1.772,-3.958 -3.958,-3.958 -2.187,0 -3.959,1.771 -3.959,3.958 0,2.186 1.772,3.958 3.959,3.958 C -1.772,3.958 0,2.186 0,0"
             style="fill:#a0a96a;fill-opacity:1;fill-rule:nonzero;stroke:none"
             id="path3395" />
        </g>
        <g
           id="g3397"
           transform="translate(250.3745,758.6606)">
          <path
             inkscape:connector-curvature="0"
             d="m 0,0 c 0,-0.737 -0.597,-1.333 -1.333,-1.333 -0.737,0 -1.334,0.596 -1.334,1.333 0,0.736 0.597,1.333 1.334,1.333 C -0.597,1.333 0,0.736 0,0"
             style="fill:#d9ddc3;fill-opacity:1;fill-rule:nonzero;stroke:none"
             id="path3399" />
        </g>
        <g
           id="g3401">
          <g
             id="g3403" />
          <g
             id="g3409">
            <g
               clip-path="url(#clipPath3405)"
               id="g3411">
              <g
                 transform="translate(252.5513,760.6294)"
                 id="g3413">
                <path
                   inkscape:connector-curvature="0"
                   d="m 0,0 c 0.609,-0.696 0.99,-1.596 0.99,-2.594 0,-2.186 -1.772,-3.958 -3.958,-3.958 -0.805,0 -1.552,0.243 -2.177,0.656 0.726,-0.83 1.78,-1.364 2.969,-1.364 2.186,0 3.958,1.772 3.958,3.958 C 1.782,-1.92 1.072,-0.708 0,0"
                   style="fill:#a0a96a;fill-opacity:1;fill-rule:nonzero;stroke:none"
                   id="path3415" />
              </g>
            </g>
          </g>
        </g>
        <g
           id="g3417"
           transform="translate(241.4922,742.5337)">
          <path
             inkscape:connector-curvature="0"
             d="m 0,0 c -0.411,0 -0.746,0.335 -0.746,0.746 l 0,2.187 -2.187,0 c -0.411,0 -0.746,0.335 -0.746,0.746 l 0,1.521 c 0,0.411 0.335,0.746 0.746,0.746 l 2.187,0 0,2.187 c 0,0.411 0.335,0.746 0.746,0.746 l 1.521,0 c 0.411,0 0.746,-0.335 0.746,-0.746 l 0,-2.187 2.187,0 C 4.865,5.946 5.2,5.611 5.2,5.2 l 0,-1.521 C 5.2,3.268 4.865,2.933 4.454,2.933 l -2.187,0 0,-2.187 C 2.267,0.335 1.932,0 1.521,0 L 0,0 z"
             style="fill:#303531;fill-opacity:1;fill-rule:nonzero;stroke:none"
             id="path3419" />
        </g>
        <g
           id="g3421"
           transform="translate(243.0127,751.5356)">
          <path
             inkscape:connector-curvature="0"
             d="M 0,0 -1.521,0 C -2,0 -2.39,-0.389 -2.39,-0.869 l 0,-2.064 -2.064,0 c -0.48,0 -0.869,-0.389 -0.869,-0.869 l 0,-1.521 c 0,-0.48 0.389,-0.869 0.869,-0.869 l 2.064,0 0,-2.064 c 0,-0.48 0.39,-0.869 0.869,-0.869 l 1.521,0 c 0.48,0 0.869,0.389 0.869,0.869 l 0,2.064 2.064,0 c 0.48,0 0.869,0.389 0.869,0.869 l 0,1.521 c 0,0.48 -0.389,0.869 -0.869,0.869 l -2.064,0 0,2.064 C 0.869,-0.389 0.48,0 0,0 m 0,-0.247 c 0.343,0 0.623,-0.279 0.623,-0.622 l 0,-2.064 0,-0.247 0.246,0 2.064,0 c 0.343,0 0.623,-0.279 0.623,-0.622 l 0,-1.521 c 0,-0.343 -0.28,-0.622 -0.623,-0.622 l -2.064,0 -0.246,0 0,-0.247 0,-2.064 C 0.623,-8.599 0.343,-8.878 0,-8.878 l -1.521,0 c -0.343,0 -0.623,0.279 -0.623,0.622 l 0,2.064 0,0.247 -0.246,0 -2.064,0 c -0.343,0 -0.622,0.279 -0.622,0.622 l 0,1.521 c 0,0.343 0.279,0.622 0.622,0.622 l 2.064,0 0.246,0 0,0.247 0,2.064 c 0,0.343 0.28,0.622 0.623,0.622 l 1.521,0"
             style="fill:#464a47;fill-opacity:1;fill-rule:nonzero;stroke:none"
             id="path3423" />
        </g>
        <g
           id="g3425"
           transform="translate(241.7822,746.9121)">
          <path
             inkscape:connector-curvature="0"
             d="M 0,0 C 0,0.386 0.313,0.699 0.699,0.699 0.865,0.699 1.011,0.633 1.13,0.537 1.016,0.768 0.784,0.93 0.509,0.93 0.123,0.93 -0.19,0.617 -0.19,0.231 -0.19,0.01 -0.082,-0.178 0.078,-0.307 0.031,-0.213 0,-0.111 0,0"
             style="fill:#231f20;fill-opacity:1;fill-rule:nonzero;stroke:none"
             id="path3427" />
        </g>
        <g
           id="g3429"
           transform="translate(232.5371,768.4971)">
          <path
             inkscape:connector-curvature="0"
             d="m 0,0 c -1.848,-0.962 -4.615,-3.025 -5.996,-7.139 -2.185,-6.504 -5.318,-16.161 -5.604,-20.846 -0.284,-4.684 -0.901,-13.77 4.037,-12.241 0.522,0.163 1.066,0.388 1.615,0.645 C -13.879,-33.58 -3.307,-7.573 0,0"
             style="fill:#d3d2d2;fill-opacity:1;fill-rule:nonzero;stroke:none"
             id="path3431" />
        </g>
        <g
           id="g3433"
           transform="translate(258.6475,739.5547)">
          <path
             inkscape:connector-curvature="0"
             d="m 0,0 c 3.326,-0.803 5.638,-3.393 5.638,-3.393 0,0 6.553,-6.359 11.489,-7.89 1.866,-0.578 2.938,0.361 3.536,2.005 C 16.125,-9.13 12.331,-4.632 9.821,-2.332 8.296,-0.933 3.927,-0.292 0,0"
             style="fill:#d3d2d2;fill-opacity:1;fill-rule:nonzero;stroke:none"
             id="path3435" />
        </g>
        <g
           id="g3437">
          <g
             id="g3439" />
          <g
             id="g3445">
            <g
               style="opacity:0.30000299"
               clip-path="url(#clipPath3441)"
               id="g3447">
              <g
                 transform="translate(268.2119,768.4971)"
                 id="g3449">
                <path
                   inkscape:connector-curvature="0"
                   d="m 0,0 c 1.848,-0.962 4.615,-3.025 5.996,-7.139 2.185,-6.504 5.318,-16.161 5.604,-20.846 0.284,-4.684 0.901,-13.77 -4.037,-12.241 -0.522,0.163 -1.066,0.388 -1.615,0.645 C 13.879,-33.58 3.307,-7.573 0,0"
                   style="fill:#d3d2d2;fill-opacity:1;fill-rule:nonzero;stroke:none"
                   id="path3451" />
              </g>
            </g>
          </g>
        </g>
        <g
           id="g3453">
          <g
             id="g3455" />
          <g
             id="g3461">
            <g
               style="opacity:0.30000299"
               clip-path="url(#clipPath3457)"
               id="g3463">
              <g
                 transform="translate(242.2524,739.5547)"
                 id="g3465">
                <path
                   inkscape:connector-curvature="0"
                   d="m 0,0 c -3.326,-0.803 -5.638,-3.393 -5.638,-3.393 0,0 -6.553,-6.359 -11.489,-7.89 -1.866,-0.578 -2.938,0.361 -3.536,2.005 4.538,0.148 8.332,4.646 10.842,6.946 C -8.296,-0.933 -3.927,-0.292 0,0"
                   style="fill:#d3d2d2;fill-opacity:1;fill-rule:nonzero;stroke:none"
                   id="path3467" />
              </g>
            </g>
          </g>
        </g>
        <g
           id="g3469"
           transform="translate(231.3306,758.7207)">
          <path
             inkscape:connector-curvature="0"
             d="M 0,0 C 0,2.136 1.731,3.867 3.867,3.867 6.003,3.867 7.734,2.136 7.734,0 7.734,-2.136 6.003,-3.867 3.867,-3.867 1.731,-3.867 0,-2.136 0,0"
             style="fill:#252a26;fill-opacity:1;fill-rule:nonzero;stroke:none"
             id="path3471" />
        </g>
        <g
           id="g3473">
          <g
             id="g3475" />
          <g
             id="g3481">
            <g
               clip-path="url(#clipPath3477)"
               id="g3483">
              <g
                 transform="translate(232.7993,758.2295)"
                 id="g3485">
                <path
                   inkscape:connector-curvature="0"
                   d="m 0,0 c 0,1.627 1.243,2.946 2.777,2.946 0.713,0 1.356,-0.293 1.848,-0.761 -0.474,0.906 -1.375,1.527 -2.42,1.527 -1.535,0 -2.778,-1.319 -2.778,-2.944 0,-0.872 0.364,-1.646 0.93,-2.185 C 0.137,-0.995 0,-0.517 0,0"
                   style="fill:#252a26;fill-opacity:1;fill-rule:nonzero;stroke:none"
                   id="path3487" />
              </g>
            </g>
          </g>
        </g>
        <g
           id="g3489"
           transform="translate(232.4341,758.7207)">
          <path
             inkscape:connector-curvature="0"
             d="M 0,0 C 0,1.526 1.237,2.764 2.764,2.764 4.29,2.764 5.527,1.526 5.527,0 5.527,-1.526 4.29,-2.764 2.764,-2.764 1.237,-2.764 0,-1.526 0,0"
             style="fill:#231f20;fill-opacity:1;fill-rule:nonzero;stroke:none"
             id="path3491" />
        </g>
        <g
           id="g3493">
          <g
             id="g3495" />
          <g
             id="g3501">
            <g
               clip-path="url(#clipPath3497)"
               id="g3503">
              <g
                 transform="translate(237.7583,759.3452)"
                 id="g3505">
                <path
                   inkscape:connector-curvature="0"
                   d="m 0,0 c 0,-1.673 -1.356,-3.029 -3.029,-3.029 -0.777,0 -1.478,0.301 -2.015,0.782 0.517,-0.932 1.499,-1.57 2.64,-1.57 1.673,0 3.029,1.356 3.029,3.028 0,0.896 -0.396,1.692 -1.015,2.247 C -0.149,1.024 0,0.532 0,0"
                   style="fill:#252a26;fill-opacity:1;fill-rule:nonzero;stroke:none"
                   id="path3507" />
              </g>
            </g>
          </g>
        </g>
        <g
           id="g3509"
           transform="translate(254.666,746.9731)">
          <path
             inkscape:connector-curvature="0"
             d="M 0,0 C 0,2.136 1.731,3.867 3.867,3.867 6.003,3.867 7.734,2.136 7.734,0 7.734,-2.136 6.003,-3.867 3.867,-3.867 1.731,-3.867 0,-2.136 0,0"
             style="fill:#252a26;fill-opacity:1;fill-rule:nonzero;stroke:none"
             id="path3511" />
        </g>
        <g
           id="g3513">
          <g
             id="g3515" />
          <g
             id="g3521">
            <g
               clip-path="url(#clipPath3517)"
               id="g3523">
              <g
                 transform="translate(256.1348,746.4819)"
                 id="g3525">
                <path
                   inkscape:connector-curvature="0"
                   d="m 0,0 c 0,1.627 1.243,2.946 2.777,2.946 0.713,0 1.356,-0.293 1.848,-0.761 -0.474,0.906 -1.375,1.527 -2.42,1.527 -1.535,0 -2.778,-1.319 -2.778,-2.944 0,-0.872 0.364,-1.646 0.93,-2.185 C 0.137,-0.995 0,-0.517 0,0"
                   style="fill:#252a26;fill-opacity:1;fill-rule:nonzero;stroke:none"
                   id="path3527" />
              </g>
            </g>
          </g>
        </g>
        <g
           id="g3529"
           transform="translate(255.7695,746.9731)">
          <path
             inkscape:connector-curvature="0"
             d="M 0,0 C 0,1.526 1.237,2.764 2.764,2.764 4.29,2.764 5.527,1.526 5.527,0 5.527,-1.526 4.29,-2.764 2.764,-2.764 1.237,-2.764 0,-1.526 0,0"
             style="fill:#231f20;fill-opacity:1;fill-rule:nonzero;stroke:none"
             id="path3531" />
        </g>
        <g
           id="g3533">
          <g
             id="g3535" />
          <g
             id="g3541">
            <g
               clip-path="url(#clipPath3537)"
               id="g3543">
              <g
                 transform="translate(261.0937,747.5977)"
                 id="g3545">
                <path
                   inkscape:connector-curvature="0"
                   d="m 0,0 c 0,-1.673 -1.356,-3.029 -3.029,-3.029 -0.777,0 -1.478,0.301 -2.015,0.782 0.517,-0.932 1.499,-1.57 2.64,-1.57 1.673,0 3.029,1.356 3.029,3.028 0,0.896 -0.396,1.692 -1.015,2.247 C -0.149,1.024 0,0.532 0,0"
                   style="fill:#252a26;fill-opacity:1;fill-rule:nonzero;stroke:none"
                   id="path3547" />
              </g>
            </g>
          </g>
        </g>
        <g
           id="g3549"
           transform="translate(270.3218,758.584)">
          <path
             inkscape:connector-curvature="0"
             d="m 0,0 c 0.121,-0.871 -0.487,-1.674 -1.357,-1.794 -0.871,-0.121 -1.674,0.487 -1.794,1.358 -0.121,0.87 0.487,1.673 1.358,1.793 C -0.923,1.478 -0.12,0.87 0,0"
             style="fill:#a82526;fill-opacity:1;fill-rule:nonzero;stroke:none"
             id="path3551" />
        </g>
        <g
           id="g3553"
           transform="translate(268.6729,758.896)">
          <path
             inkscape:connector-curvature="0"
             d="m 0,0 c 0.041,-0.293 -0.164,-0.564 -0.458,-0.604 -0.293,-0.041 -0.563,0.164 -0.604,0.458 -0.041,0.292 0.164,0.563 0.458,0.604 C -0.311,0.499 -0.041,0.293 0,0"
             style="fill:#dca8a8;fill-opacity:1;fill-rule:nonzero;stroke:none"
             id="path3555" />
        </g>
        <g
           id="g3557">
          <g
             id="g3559" />
          <g
             id="g3565">
            <g
               clip-path="url(#clipPath3561)"
               id="g3567">
              <g
                 transform="translate(269.4312,759.7998)"
                 id="g3569">
                <path
                   inkscape:connector-curvature="0"
                   d="m 0,0 c 0.281,-0.244 0.482,-0.581 0.537,-0.978 0.12,-0.87 -0.487,-1.674 -1.358,-1.794 -0.321,-0.044 -0.631,0.012 -0.903,0.142 0.334,-0.29 0.784,-0.446 1.257,-0.38 0.87,0.12 1.478,0.924 1.358,1.794 C 0.815,-0.667 0.466,-0.223 0,0"
                   style="fill:#a82526;fill-opacity:1;fill-rule:nonzero;stroke:none"
                   id="path3571" />
              </g>
            </g>
          </g>
        </g>
        <g
           id="g3573"
           transform="translate(264.1714,757.6001)">
          <path
             inkscape:connector-curvature="0"
             d="m 0,0 c 0.121,-0.871 -0.488,-1.673 -1.358,-1.794 -0.871,-0.12 -1.673,0.487 -1.793,1.358 -0.121,0.87 0.487,1.673 1.358,1.794 C -0.923,1.478 -0.12,0.87 0,0"
             style="fill:#00587e;fill-opacity:1;fill-rule:nonzero;stroke:none"
             id="path3575" />
        </g>
        <g
           id="g3577"
           transform="translate(262.522,757.9126)">
          <path
             inkscape:connector-curvature="0"
             d="M 0,0 C 0.041,-0.293 -0.164,-0.564 -0.457,-0.604 -0.75,-0.645 -1.021,-0.44 -1.061,-0.147 -1.102,0.146 -0.897,0.417 -0.604,0.458 -0.311,0.498 -0.041,0.293 0,0"
             style="fill:#99bccb;fill-opacity:1;fill-rule:nonzero;stroke:none"
             id="path3579" />
        </g>
        <g
           id="g3581">
          <g
             id="g3583" />
          <g
             id="g3589">
            <g
               clip-path="url(#clipPath3585)"
               id="g3591">
              <g
                 transform="translate(263.2808,758.8164)"
                 id="g3593">
                <path
                   inkscape:connector-curvature="0"
                   d="m 0,0 c 0.28,-0.244 0.482,-0.581 0.537,-0.979 0.12,-0.869 -0.488,-1.673 -1.358,-1.793 -0.321,-0.044 -0.632,0.012 -0.903,0.142 0.334,-0.29 0.784,-0.446 1.257,-0.38 0.87,0.12 1.478,0.923 1.358,1.794 C 0.815,-0.667 0.465,-0.223 0,0"
                   style="fill:#00587e;fill-opacity:1;fill-rule:nonzero;stroke:none"
                   id="path3595" />
              </g>
            </g>
          </g>
        </g>
        <g
           id="g3597"
           transform="translate(266.8105,761.8896)">
          <path
             inkscape:connector-curvature="0"
             d="m 0,0 c 0.121,-0.871 -0.488,-1.674 -1.358,-1.794 -0.871,-0.121 -1.673,0.487 -1.793,1.358 -0.121,0.87 0.487,1.673 1.358,1.793 C -0.923,1.478 -0.12,0.87 0,0"
             style="fill:#ebd467;fill-opacity:1;fill-rule:nonzero;stroke:none"
             id="path3599" />
        </g>
        <g
           id="g3601"
           transform="translate(265.1611,762.2017)">
          <path
             inkscape:connector-curvature="0"
             d="m 0,0 c 0.041,-0.292 -0.164,-0.563 -0.457,-0.604 -0.294,-0.041 -0.564,0.165 -0.605,0.458 -0.04,0.292 0.164,0.563 0.458,0.604 C -0.311,0.498 -0.041,0.293 0,0"
             style="fill:#f7eec2;fill-opacity:1;fill-rule:nonzero;stroke:none"
             id="path3603" />
        </g>
        <g
           id="g3605">
          <g
             id="g3607" />
          <g
             id="g3613">
            <g
               clip-path="url(#clipPath3609)"
               id="g3615">
              <g
                 transform="translate(265.9199,763.1055)"
                 id="g3617">
                <path
                   inkscape:connector-curvature="0"
                   d="m 0,0 c 0.28,-0.244 0.482,-0.581 0.537,-0.978 0.12,-0.87 -0.488,-1.674 -1.358,-1.794 -0.321,-0.044 -0.632,0.012 -0.903,0.142 0.334,-0.29 0.783,-0.446 1.257,-0.38 0.87,0.12 1.478,0.924 1.358,1.794 C 0.815,-0.667 0.465,-0.223 0,0"
                   style="fill:#ebd467;fill-opacity:1;fill-rule:nonzero;stroke:none"
                   id="path3619" />
              </g>
            </g>
          </g>
        </g>
        <g
           id="g3621"
           transform="translate(267.8501,754.3716)">
          <path
             inkscape:connector-curvature="0"
             d="m 0,0 c 0.121,-0.871 -0.488,-1.673 -1.358,-1.793 -0.871,-0.121 -1.673,0.487 -1.794,1.357 -0.12,0.871 0.487,1.674 1.358,1.794 C -0.923,1.479 -0.12,0.87 0,0"
             style="fill:#005757;fill-opacity:1;fill-rule:nonzero;stroke:none"
             id="path3623" />
        </g>
        <g
           id="g3625"
           transform="translate(266.2002,754.6841)">
          <path
             inkscape:connector-curvature="0"
             d="m 0,0 c 0.041,-0.293 -0.164,-0.563 -0.457,-0.604 -0.293,-0.041 -0.564,0.165 -0.604,0.458 -0.041,0.292 0.164,0.563 0.457,0.604 C -0.311,0.499 -0.041,0.293 0,0"
             style="fill:#99bcbc;fill-opacity:1;fill-rule:nonzero;stroke:none"
             id="path3627" />
        </g>
        <g
           id="g3629">
          <g
             id="g3631" />
          <g
             id="g3637">
            <g
               clip-path="url(#clipPath3633)"
               id="g3639">
              <g
                 transform="translate(266.959,755.5884)"
                 id="g3641">
                <path
                   inkscape:connector-curvature="0"
                   d="m 0,0 c 0.28,-0.244 0.482,-0.581 0.537,-0.978 0.121,-0.871 -0.488,-1.674 -1.358,-1.794 -0.32,-0.045 -0.631,0.012 -0.903,0.141 0.335,-0.289 0.784,-0.445 1.257,-0.379 0.87,0.12 1.479,0.923 1.358,1.793 C 0.815,-0.667 0.466,-0.223 0,0"
                   style="fill:#005757;fill-opacity:1;fill-rule:nonzero;stroke:none"
                   id="path3643" />
              </g>
            </g>
          </g>
        </g>
      </g>
    </g>
  </g>
</svg>
