<?xml version="1.0" encoding="UTF-8" standalone="no"?>
<!-- Created with Inkscape (http://www.inkscape.org/) -->

<svg
   xmlns:dc="http://purl.org/dc/elements/1.1/"
   xmlns:cc="http://creativecommons.org/ns#"
   xmlns:rdf="http://www.w3.org/1999/02/22-rdf-syntax-ns#"
   xmlns:svg="http://www.w3.org/2000/svg"
   xmlns="http://www.w3.org/2000/svg"
   xmlns:sodipodi="http://sodipodi.sourceforge.net/DTD/sodipodi-0.dtd"
   xmlns:inkscape="http://www.inkscape.org/namespaces/inkscape"
   width="64px"
   height="64px"
   id="svg172742"
   version="1.1"
   inkscape:version="0.48.5 r10040"
   sodipodi:docname="Nowy dokument 30">
  <defs
     id="defs172744" />
  <sodipodi:namedview
     id="base"
     pagecolor="#ffffff"
     bordercolor="#666666"
     borderopacity="1.0"
     inkscape:pageopacity="0.0"
     inkscape:pageshadow="2"
     inkscape:zoom="5.5"
     inkscape:cx="32"
     inkscape:cy="32"
     inkscape:current-layer="layer1"
     showgrid="true"
     inkscape:document-units="px"
     inkscape:grid-bbox="true"
     inkscape:window-width="1366"
     inkscape:window-height="706"
     inkscape:window-x="-8"
     inkscape:window-y="-8"
     inkscape:window-maximized="1" />
  <metadata
     id="metadata172747">
    <rdf:RDF>
      <cc:Work
         rdf:about="">
        <dc:format>image/svg+xml</dc:format>
        <dc:type
           rdf:resource="http://purl.org/dc/dcmitype/StillImage" />
        <dc:title></dc:title>
      </cc:Work>
    </rdf:RDF>
  </metadata>
  <g
     id="layer1"
     inkscape:label="Layer 1"
     inkscape:groupmode="layer">
    <g
       transform="matrix(0.65493011,0,0,-0.65493011,62.61562,10.39219)"
       id="g3533">
      <path
         id="path3535"
         style="fill:#000000;fill-opacity:1;fill-rule:nonzero;stroke:none"
         d="m 0,0 c 1.18,-2.545 -0.774,-4.831 -2.213,-6.564 -2.692,-3.025 -7.892,-5.459 -6.712,-10.364 1.807,-6.269 7.707,-10.805 8.482,-17.517 0.553,-4.721 -0.664,-9.811 -4.757,-12.835 -4.905,-2.876 -11.949,-4.02 -17.187,-1.069 -1.732,-3.763 -3.428,-7.598 -6.195,-10.953 -0.663,-1.808 0.147,-4.721 -2.471,-5.164 -1.843,0.037 -4.168,-0.553 -5.679,0.739 -0.443,-0.775 -1.291,-1.071 -2.103,-1.182 -1.585,0 -2.876,1.402 -4.352,1.182 -0.441,0.036 -0.81,0.516 -1.069,0.884 -0.7,-0.074 -1.401,-0.258 -2.214,-0.184 -0.994,-2.14 -3.391,-2.471 -5.567,-2.582 -0.517,-0.554 -1.291,-0.885 -1.955,-1.217 -2.286,-0.074 -4.425,0.479 -5.902,2.213 -1.695,-0.775 -2.617,2.249 -3.982,0.332 l -1.954,-0.185 c -1.439,-1.511 -3.91,-1.217 -5.679,-0.59 -0.664,0.258 -1.328,1.475 -2.029,0.885 -1.807,0.258 -4.241,0.111 -4.795,2.287 -0.812,2.397 0.959,4.277 2.066,5.937 -0.516,0.959 -1.107,1.918 -1.77,2.84 -2.73,4.905 -3.836,10.547 -4.168,16.375 -3.689,2.766 -4.61,7.523 -4.093,11.949 -2.582,-1.18 -5.422,-3.283 -6.787,-5.753 1.328,2.95 4.094,4.868 6.897,6.269 0.294,0.922 0.442,1.881 0.884,2.729 l -0.183,0.295 c -3.356,-0.774 -6.307,-2.508 -9.479,-3.725 3.283,1.697 6.196,3.467 9.848,4.315 l 1.142,2.656 c -1.586,0.332 -3.578,0.184 -5.236,-0.148 l -3.799,-0.627 c 2.95,0.885 6.381,1.512 9.367,1.512 l 2.213,3.688 c -0.811,3.135 -1.365,6.049 -0.884,9.405 0.11,0.885 0.294,1.954 0.737,2.84 3.392,0.331 7.118,-0.554 9.368,-3.393 2.617,2.765 5.937,4.388 9.367,5.753 2.25,0.442 4.203,0.663 6.49,0.295 4.906,-0.332 9.737,-1.734 13.536,-4.868 3.171,3.43 7.45,4.241 11.949,4.499 2.764,-2.833 0.59,-11.212 -0.701,-13.535 -0.075,-0.295 0.258,-0.442 0.443,-0.627 2.101,0.148 3.54,0.148 5.568,0 -1.77,-0.147 -3.687,-0.037 -5.236,-0.442 l 1.954,-3.357 c 1.695,-0.368 3.54,-0.295 5.053,-1.069 -1.254,0.295 -3.099,0.479 -4.685,0.516 0.444,-1.069 0.812,-2.397 1.402,-3.54 2.175,-0.295 4.168,-1.07 6.123,-2.028 -2.066,0.369 -4.094,1.401 -6.049,1.512 0.774,-2.804 2.064,-5.385 2.323,-8.409 7.49,-4.682 3.394,-15.084 2.841,-16.818 2.322,-0.847 11.956,-0.985 14.861,6.012 1.55,4.574 -2.905,9.472 -4.884,12.159 -5.754,6.454 -10.2,13.768 -9.461,22.987 0.701,4.389 4.462,8.446 8.591,9.995 C -7.855,5.68 -2.323,4.684 0,0"
         inkscape:connector-curvature="0" />
    </g>
    <g
       transform="matrix(0.65493011,0,0,-0.65493011,34.50098,13.483652)"
       id="g3537">
      <path
         id="path3539"
         style="fill:#ecc051;fill-opacity:1;fill-rule:nonzero;stroke:none"
         d="M 0,0 C 3.949,4.386 8.593,4.425 11.69,4.794 13.944,0.977 11.58,-5.901 9.921,-8.409 c 0.221,0 0.258,-0.332 0.553,-0.258 -4.869,-0.885 -9.368,-2.987 -13.203,-6.012 l 0.183,-0.184 c 4.131,2.803 8.521,4.942 13.461,5.753 0.813,-0.959 1.439,-2.139 1.919,-3.172 -5.273,-0.221 -10.363,-0.663 -14.862,-3.098 0.478,-0.442 1.033,0 1.511,0.074 4.056,1.771 8.999,2.471 13.645,2.471 0.555,-0.995 1.107,-1.991 1.401,-3.098 -5.089,0.222 -9.329,0.848 -14.235,-0.147 0.037,-0.406 0.701,-0.406 0.959,-0.369 4.169,0.59 9.367,0.406 13.351,-0.184 1.253,-2.877 2.287,-6.012 2.766,-9.294 9.255,-5.814 0.48,-22.57 -3.983,-28.582 -0.664,-1.585 0.405,-4.02 -1.954,-4.426 -1.291,-0.294 -3.062,-0.147 -4.426,0.185 -0.259,0.922 0.184,1.955 -0.7,2.471 -0.223,-0.591 -0.332,-1.181 -0.259,-1.844 -0.886,-0.884 -1.733,-1.328 -3.024,-0.996 -0.701,0.222 -1.623,0.369 -1.844,1.143 -0.332,0.775 0.332,1.992 -0.554,2.14 -0.626,-0.701 -0.221,-1.476 -0.332,-2.397 -0.885,0.11 -0.627,0.773 -0.994,1.327 0.109,1.18 0.773,2.434 1.953,2.84 1.144,0.626 3.909,-0.886 3.909,-0.886 0.627,1.033 0.038,2.397 0,3.541 -0.294,4.979 1.756,11.985 7.966,14.236 -7.75,-1.042 -9.366,-8.778 -8.961,-14.863 0,-0.553 0.368,-0.959 0.259,-1.586 -1.107,0.258 -2.545,0.922 -3.8,0.258 -1.549,-0.663 -2.064,-2.286 -2.285,-3.872 l -1.697,-0.295 c -0.958,2.951 -1.586,6.97 -5.385,7.524 0.627,4.609 -1.18,8.961 -5.053,11.616 l -2.471,1.07 c -4.462,0.553 -8.445,-1.88 -10.73,-5.606 -0.629,-1.697 -1.293,-3.43 -1.145,-5.458 -1.548,-0.184 -2.877,-0.959 -4.167,-1.881 -3.761,4.279 -5.016,10.105 -5.827,15.859 -0.295,0.848 0.331,2.213 -0.627,2.655 -2.324,2.729 -3.835,5.753 -3.799,9.478 l 0.37,2.545 c 1.105,0.368 2.285,0.664 3.355,1.143 0.111,0.258 -0.185,0.258 -0.258,0.369 l -2.949,-0.701 c 0.184,1.07 0.293,2.213 1.254,2.545 1.511,0.258 3.133,-0.037 4.498,-0.074 -0.259,0.738 -1.254,0.554 -1.918,0.701 l -2.84,0 0.959,2.323 c 2.545,-0.11 4.721,-1.401 6.823,-2.323 0.295,0.258 -0.147,0.442 -0.257,0.627 -1.845,1.217 -3.947,1.844 -6.123,2.286 1.032,3.135 6.085,8.741 6.123,9.147 -0.554,0.037 -3.136,-2.988 -4.168,-4.094 l -0.185,0 c -1.925,6.951 -0.074,10.179 -0.074,10.179 2.877,0.258 5.679,-0.812 7.855,-2.84 0.369,0.111 0.407,-0.111 0.555,-0.332 -0.701,-0.664 -0.85,-1.512 -0.998,-2.397 0,0 5.996,2.781 10.004,3.331 -0.879,2.137 -3.734,2.643 -4.508,2.238 6.602,4.905 16.854,3.134 23.271,-0.886 L 0,0 z"
         inkscape:connector-curvature="0" />
    </g>
    <g
       transform="matrix(0.65493011,0,0,-0.65493011,35.615084,14.67615)"
       id="g3541">
      <path
         id="path3543"
         style="fill:#db923a;fill-opacity:1;fill-rule:nonzero;stroke:none"
         d="M 0,0 C 3.95,4.387 6.892,6.246 9.989,6.615 12.243,2.798 9.879,-4.08 8.22,-6.588 c 0.207,0 0.253,-0.295 0.505,-0.267 -4.851,-0.89 -9.332,-2.989 -13.156,-6.003 l 0.184,-0.184 c 4.131,2.803 8.52,4.942 13.461,5.753 0.812,-0.959 1.439,-2.139 1.919,-3.172 -5.274,-0.221 -10.363,-0.663 -14.862,-3.098 0.478,-0.442 1.033,0 1.511,0.074 4.056,1.771 8.999,2.471 13.645,2.471 0.554,-0.995 1.107,-1.991 1.401,-3.098 -5.089,0.222 -9.329,0.848 -14.235,-0.147 0.037,-0.406 0.701,-0.406 0.959,-0.369 4.169,0.59 9.367,0.406 13.351,-0.184 1.253,-2.877 2.286,-6.012 2.766,-9.294 9.255,-5.814 0.479,-22.57 -3.983,-28.582 -0.665,-1.585 0.405,-4.02 -1.955,-4.426 -1.291,-0.294 -3.061,-0.147 -4.425,0.185 -0.259,0.922 0.184,1.955 -0.701,2.471 -0.222,-0.591 -0.332,-1.181 -0.258,-1.844 -0.886,-0.884 -1.733,-1.328 -3.024,-0.996 -0.701,0.222 -1.623,0.369 -1.844,1.143 -0.333,0.775 0.332,1.992 -0.554,2.14 -0.626,-0.701 -0.221,-1.476 -0.332,-2.397 -0.885,0.11 -0.627,0.773 -0.994,1.327 0.109,1.18 0.773,2.434 1.953,2.84 1.144,0.626 3.909,-0.886 3.909,-0.886 0.627,1.033 0.038,2.397 0,3.541 -0.294,4.979 1.756,11.985 7.966,14.236 -7.75,-1.042 -9.366,-8.778 -8.961,-14.863 0,-0.553 0.368,-0.959 0.259,-1.586 -1.107,0.258 -2.545,0.922 -3.8,0.258 -1.549,-0.663 -2.065,-2.286 -2.285,-3.872 l -1.698,-0.295 c -0.958,2.951 -1.586,6.97 -5.384,7.524 0.627,4.609 -1.18,8.961 -5.053,11.616 l -0.58,0.252 c -0.509,0.535 -0.929,0.08 -1.603,0.584 -1.319,4.248 -3.901,8.173 -4.337,8.565 -1.099,0.99 -3.237,1.588 -3.237,1.588 0,0 -0.184,-0.122 -0.581,-0.265 l -0.889,1.449 0.149,0.026 c 3.129,0.55 3.898,4.337 3.898,4.337 0,0 1.651,-3.787 3.409,-4.557 1.76,-0.77 6.915,-3.018 8.833,2.247 1.917,5.265 -5.816,6.977 -5.816,6.977 0,0 4.118,6.475 0.221,16.249 -1.847,4.629 -5.306,5.293 -8.437,4.709 6.513,3.121 15.276,1.326 20.993,-2.257 L 0,0 z"
         inkscape:connector-curvature="0" />
    </g>
    <g
       transform="matrix(0.65493011,0,0,-0.65493011,20.404595,25.750429)"
       id="g3545">
      <path
         id="path3547"
         style="fill:#fbea98;fill-opacity:1;fill-rule:evenodd;stroke:none"
         d="m 0,0 c 0,0 -10.481,3.52 -10.922,-1.478 -0.44,-4.996 -0.11,-6.976 4.227,-7.416 4.337,-0.44 6.915,0.77 6.915,0.77 0,0 7.134,-3.018 8.784,-3.128 1.649,-0.109 5.169,0.048 7.417,2.138 2.247,2.09 2.247,2.468 2.357,4.557 0.11,2.09 -0.11,4.557 -1.1,5.107 -0.99,0.55 -1.32,1.87 -8.014,1.1 C 2.97,0.88 0.44,-0.33 0.44,-0.33 L 0,0 z"
         inkscape:connector-curvature="0" />
    </g>
    <g
       transform="matrix(0.65493011,0,0,-0.65493011,61.407473,9.5223738)"
       id="g3549">
      <path
         id="path3551"
         style="fill:#ba5534;fill-opacity:1;fill-rule:nonzero;stroke:none"
         d="m 0,0 c 0.849,-1.217 1.513,-2.729 0.959,-4.279 -2.471,-5.457 -11.358,-7.928 -8.74,-14.936 2.729,-7.154 10.326,-13.239 8.15,-21.427 -0.701,-2.913 -2.027,-5.9 -4.868,-7.524 -3.355,-1.806 -7.449,-2.802 -11.358,-2.212 -0.186,0.184 -0.664,0.258 -0.332,0.627 -0.075,0.221 0.184,0.406 0.332,0.442 5.957,0.378 15.951,3.615 10.031,15.232 -3.282,5.642 -8.926,10.363 -10.99,16.522 -1.881,4.758 -3.134,11.396 0.701,15.6 2.876,3.356 6.638,5.274 11.174,4.499 C -3.098,2.213 -1.475,1.29 0,0"
         inkscape:connector-curvature="0" />
    </g>
    <g
       transform="matrix(0.65493011,0,0,-0.65493011,28.945537,12.710706)"
       id="g3553">
      <path
         id="path3555"
         style="fill:#000000;fill-opacity:1;fill-rule:nonzero;stroke:none"
         d="m 0,0 c 0.553,-1.033 0.773,-2.213 0.811,-3.467 -0.59,0.295 -1.217,1.033 -1.697,1.586 -2.064,1.365 -4.351,2.803 -6.896,2.913 0.332,0.775 1.328,1.328 2.214,1.623 C -3.246,3.134 -1.033,2.102 0,0"
         inkscape:connector-curvature="0" />
    </g>
    <g
       transform="matrix(0.65493011,0,0,-0.65493011,28.776105,12.903841)"
       id="g3557">
      <path
         id="path3559"
         style="fill:#f5d75c;fill-opacity:1;fill-rule:nonzero;stroke:none"
         d="m 0,0 c 0.185,-0.701 0.665,-1.365 0.627,-2.213 -2.176,1.844 -4.426,3.282 -7.19,3.909 1.106,1.143 2.469,0.959 3.981,0.701 C -1.475,2.028 -0.7,1.032 0,0"
         inkscape:connector-curvature="0" />
    </g>
    <g
       transform="matrix(0.65493011,0,0,-0.65493011,20.332353,13.09122)"
       id="g3561">
      <path
         id="path3563"
         style="fill:#f5d75c;fill-opacity:1;fill-rule:nonzero;stroke:none"
         d="M 0,0 C -2.654,-0.517 -6.021,-1.827 -8.344,-2.97 -7.025,0 -2.908,3.127 0,0"
         inkscape:connector-curvature="0" />
    </g>
    <g
       transform="matrix(0.65493011,0,0,-0.65493011,21.747724,21.647881)"
       id="g3565">
      <path
         id="path3567"
         style="fill:#000000;fill-opacity:1;fill-rule:nonzero;stroke:none"
         d="m 0,0 c -0.812,-1.992 -2.028,-4.02 -4.131,-4.794 -1.881,-0.774 -4.056,-0.185 -5.604,0.885 -1.881,1.401 -2.841,3.725 -2.657,5.937 0.221,2.914 1.18,6.012 4.094,7.34 C -5.864,10.88 1.956,10.755 0,0"
         inkscape:connector-curvature="0" />
    </g>
    <g
       transform="matrix(0.65493011,0,0,-0.65493011,10.926639,18.169485)"
       id="g3569">
      <path
         id="path3571"
         style="fill:#000000;fill-opacity:1;fill-rule:nonzero;stroke:none"
         d="m 0,0 0.074,0.368 0,-0.294 L 0,0 z"
         inkscape:connector-curvature="0" />
    </g>
    <g
       transform="matrix(0.65493011,0,0,-0.65493011,27.326813,41.115745)"
       id="g3573">
      <path
         id="path3575"
         style="fill:#fbea98;fill-opacity:1;fill-rule:nonzero;stroke:none"
         d="m 0,0 c 1.254,-2.36 1.992,-4.831 1.586,-7.634 -3.393,0.554 -7.043,-0.369 -8.924,-3.098 -0.406,-0.369 -0.516,-0.848 -0.886,-1.217 -0.96,3.356 -4.241,5.2 -7.524,5.458 l -0.885,0 c -0.332,4.094 2.066,8.04 5.57,9.847 2.212,0.922 5.752,1.733 7.856,0 C -1.918,2.544 -0.774,1.217 0,0"
         inkscape:connector-curvature="0" />
    </g>
    <g
       transform="matrix(0.65493011,0,0,-0.65493011,21.119642,48.723872)"
       id="g3577">
      <path
         id="path3579"
         style="fill:#ecc051;fill-opacity:1;fill-rule:nonzero;stroke:none"
         d="m 0,0 c 0.406,-0.996 0.701,-2.176 0.442,-3.356 -0.368,-0.59 -0.479,-1.513 -1.327,-1.697 l -0.516,0 c 0.405,1.033 -0.554,4.02 -0.886,4.279 0.266,-1.863 0.332,-3.651 -0.737,-4.279 -1.365,-1.254 -3.209,-1.291 -4.87,-0.59 -0.994,0.369 -1.761,2.346 -1.769,4.315 -1.106,-0.516 -0.443,-3.282 -0.443,-3.282 -1.032,-0.259 -2.248,0.074 -3.245,0.442 -0.774,0.664 -0.774,1.77 -0.737,2.656 0.737,2.618 3.062,4.831 5.607,5.679 C -5.053,4.241 -1.328,3.503 0,0"
         inkscape:connector-curvature="0" />
    </g>
    <g
       transform="matrix(0.65493011,0,0,-0.65493011,30.68457,48.55503)"
       id="g3581">
      <path
         id="path3583"
         style="fill:#db923a;fill-opacity:1;fill-rule:nonzero;stroke:none"
         d="m 0,0 c 0.736,-1.438 1.513,-3.135 1.069,-4.868 -0.885,-1.291 -2.36,-1.512 -3.909,-1.475 -0.074,1.586 0.775,3.356 0,4.683 -0.442,-2.664 -0.959,-3.208 -1.217,-5.052 -0.922,-1.07 -2.287,-0.775 -3.466,-0.701 -1.512,0.222 -3.247,1.402 -3.541,2.987 0.037,1.181 0.48,2.176 1.328,3.024 -0.702,0.259 -0.959,-0.553 -1.403,-0.958 -0.627,-0.848 -0.958,-2.066 -0.552,-3.097 -0.774,-0.112 -1.29,0.442 -1.843,0.884 0.737,0.959 0.295,2.102 0.515,3.245 1.769,2.656 4.425,4.352 7.523,4.279 C -3.431,2.766 -0.959,2.102 0,0"
         inkscape:connector-curvature="0" />
    </g>
    <g
       transform="matrix(0.65493011,0,0,-0.65493011,14.005596,19.584263)"
       id="g3585">
      <path
         id="path3587"
         style="fill:#ffffff;fill-opacity:1;fill-rule:nonzero;stroke:none"
         d="M 0,0 C 0.334,3.802 3.202,6.657 6.409,6.376 9.616,6.096 11.946,2.786 11.613,-1.017 11.28,-4.819 8.411,-7.674 5.205,-7.393 1.998,-7.113 -0.332,-3.803 0,0"
         inkscape:connector-curvature="0" />
    </g>
    <g
       transform="matrix(0.65493011,0,0,-0.65493011,17.463166,15.427292)"
       id="g3589">
      <path
         id="path3591"
         style="fill:#dce8eb;fill-opacity:1;fill-rule:nonzero;stroke:none"
         d="M 0,0 C 0.369,0.052 0.747,0.063 1.13,0.029 4.02,-0.224 6.198,-2.937 6.355,-6.254 6.305,-6.441 6.26,-6.631 6.223,-6.825 6.098,-7.465 6.061,-8.097 6.104,-8.706 c -0.806,-3.108 -3.362,-5.281 -6.178,-5.034 -0.408,0.036 -0.804,0.12 -1.181,0.25 2.726,0.384 4.987,2.998 5.28,6.347 C 4.314,-3.826 2.578,-0.883 0,0"
         inkscape:connector-curvature="0" />
    </g>
    <g
       transform="matrix(0.65493011,0,0,-0.65493011,17.388965,18.756957)"
       id="g3593">
      <path
         id="path3595"
         style="fill:#000000;fill-opacity:1;fill-rule:nonzero;stroke:none"
         d="M 0,0 C 0,1.593 1.291,2.884 2.883,2.884 4.475,2.884 5.767,1.593 5.767,0 5.767,-1.592 4.475,-2.883 2.883,-2.883 1.291,-2.883 0,-1.592 0,0"
         inkscape:connector-curvature="0" />
    </g>
    <g
       transform="matrix(0.65493011,0,0,-0.65493011,17.564225,18.144592)"
       id="g3597">
      <path
         id="path3599"
         style="fill:#ffffff;fill-opacity:1;fill-rule:nonzero;stroke:none"
         d="M 0,0 C 0,0.773 0.626,1.399 1.398,1.399 2.171,1.399 2.797,0.773 2.797,0 2.797,-0.772 2.171,-1.399 1.398,-1.399 0.626,-1.399 0,-0.772 0,0"
         inkscape:connector-curvature="0" />
    </g>
    <g
       transform="matrix(0.65493011,0,0,-0.65493011,25.365815,24.847674)"
       id="g3601">
      <path
         id="path3603"
         style="fill:#f5d75c;fill-opacity:1;fill-rule:evenodd;stroke:none"
         d="m 0,0 c 0.646,0.095 1.342,0.186 2.089,0.271 6.694,0.771 7.023,-0.549 8.014,-1.099 0.99,-0.55 1.21,-3.017 1.1,-5.107 -0.11,-2.089 -0.11,-2.467 -2.357,-4.557 -2.248,-2.09 -5.768,-2.247 -7.417,-2.138 -1.65,0.109 -8.784,3.128 -8.784,3.128 0,0 -0.735,-0.345 -2.082,-0.601 l -0.166,0.051 c 0,0 -0.071,-0.047 -0.22,-0.117 -1.138,-0.184 -2.64,-0.287 -4.448,-0.103 -4.336,0.44 -4.667,2.419 -4.226,7.416 0.011,0.12 0.026,0.235 0.049,0.345 l 0.831,-0.784 c 0,0 -0.551,-2.09 0.109,-3.788 0.66,-1.697 3.457,-2.309 6.584,-1.759 3.129,0.55 3.899,4.337 3.899,4.337 0,0 1.65,-3.787 3.409,-4.558 1.76,-0.769 6.915,-3.017 8.833,2.248 C 6.804,-2.457 1.779,-0.534 0,0"
         inkscape:connector-curvature="0" />
    </g>
    <g
       transform="matrix(0.65493011,0,0,-0.65493011,22.738435,26.574855)"
       id="g3605">
      <path
         id="path3607"
         style="fill:#000000;fill-opacity:1;fill-rule:nonzero;stroke:none"
         d="m 0,0 c 0.295,-0.959 -0.154,-3.408 -4.058,-3.024 -0.589,0.184 -1.254,0.553 -1.512,1.179 -0.405,1.218 0.148,2.471 1.328,2.914 C -2.841,1.512 -0.664,1.549 0,0"
         inkscape:connector-curvature="0" />
    </g>
    <g
       transform="matrix(0.65493011,0,0,-0.65493011,19.508581,27.134166)"
       id="g3609">
      <path
         id="path3611"
         style="fill:#e7bbb0;fill-opacity:1;fill-rule:nonzero;stroke:none"
         d="M 0,0 C 0,0.802 0.896,1.453 2.004,1.453 3.109,1.453 4.007,0.802 4.007,0 4.007,-0.803 3.109,-1.454 2.004,-1.454 0.896,-1.454 0,-0.803 0,0"
         inkscape:connector-curvature="0" />
    </g>
    <g
       transform="matrix(0.65493011,0,0,-0.65493011,19.724708,26.774085)"
       id="g3613">
      <path
         id="path3615"
         style="fill:#ffffff;fill-opacity:1;fill-rule:nonzero;stroke:none"
         d="M 0,0 C 0,0.438 0.355,0.793 0.794,0.793 1.232,0.793 1.588,0.438 1.588,0 1.588,-0.439 1.232,-0.794 0.794,-0.794 0.355,-0.794 0,-0.439 0,0"
         inkscape:connector-curvature="0" />
    </g>
    <g
       transform="matrix(0.65493011,0,0,-0.65493011,33.752002,24.787551)"
       id="g3617">
      <path
         id="path3619"
         style="fill:#000000;fill-opacity:1;fill-rule:nonzero;stroke:none"
         d="m 0,0 c -0.885,0.295 -1.77,-0.111 -2.545,-0.332 1.475,-1.881 4.62,-12.72 -8.409,-13.093 -3.171,0.59 -6.085,1.807 -8.961,3.172 -2.84,0.258 -5.163,-1.917 -8.224,-0.885 -5.3,1.764 -4.388,6.897 -3.983,8.224 -1.033,0.811 -2.25,0.037 -3.172,-0.332 0.221,0.59 1.032,0.959 1.659,1.217 1.328,0.258 2.804,0 3.541,-1.069 0,-0.111 -0.11,-0.258 -0.258,-0.258 -0.406,-0.111 -0.701,0.147 -0.959,0.368 -0.848,-1.88 -0.651,-9.074 7.413,-7.007 1.733,0.296 3.983,1.402 5.496,0.111 4.093,-1.844 9.181,-4.167 13.46,-1.069 5.1,3.338 1.992,9.256 1.586,9.994 -0.922,-0.295 -0.885,-1.844 -2.028,-1.512 -0.074,0.737 0.663,1.328 1.143,1.954 C -2.95,0.221 -1.402,0.885 0,0"
         inkscape:connector-curvature="0" />
    </g>
    <g
       transform="matrix(0.65493011,0,0,-0.65493011,29.935655,18.290711)"
       id="g3621">
      <path
         id="path3623"
         style="fill:#000000;fill-opacity:1;fill-rule:nonzero;stroke:none"
         d="m 0,0 c 2.466,-4.633 -1.761,-13.087 -8.667,-9.551 -2.064,1.29 -2.876,3.43 -2.84,5.753 0.481,2.803 1.955,6.196 5.053,6.897 C -3.909,3.357 -0.996,2.766 0,0"
         inkscape:connector-curvature="0" />
    </g>
    <g
       transform="matrix(0.65493011,0,0,-0.65493011,23.051166,20.041207)"
       id="g3625">
      <path
         id="path3627"
         style="fill:#ffffff;fill-opacity:1;fill-rule:nonzero;stroke:none"
         d="M 0,0 C 0.651,3.356 3.481,5.629 6.321,5.078 9.161,4.526 10.934,1.358 10.282,-1.999 9.629,-5.355 6.798,-7.628 3.959,-7.077 1.12,-6.525 -0.653,-3.357 0,0"
         inkscape:connector-curvature="0" />
    </g>
    <g
       transform="matrix(0.65493011,0,0,-0.65493011,26.142892,16.702636)"
       id="g3629">
      <path
         id="path3631"
         style="fill:#dce8eb;fill-opacity:1;fill-rule:nonzero;stroke:none"
         d="m 0,0 c 0.522,0.087 1.062,0.084 1.601,-0.02 2.839,-0.552 4.612,-3.72 3.961,-7.077 -0.654,-3.356 -3.485,-5.629 -6.324,-5.078 -0.244,0.048 -0.481,0.115 -0.708,0.2 2.235,0.371 4.194,2.378 4.721,5.098 C 3.847,-3.81 2.418,-0.899 0,0"
         inkscape:connector-curvature="0" />
    </g>
    <g
       transform="matrix(0.65493011,0,0,-0.65493011,25.8692,19.009298)"
       id="g3633">
      <path
         id="path3635"
         style="fill:#000000;fill-opacity:1;fill-rule:nonzero;stroke:none"
         d="M 0,0 C 0,1.502 1.218,2.719 2.72,2.719 4.22,2.719 5.438,1.502 5.438,0 5.438,-1.501 4.22,-2.718 2.72,-2.718 1.218,-2.718 0,-1.501 0,0"
         inkscape:connector-curvature="0" />
    </g>
    <g
       transform="matrix(0.65493011,0,0,-0.65493011,25.941436,18.608289)"
       id="g3637">
      <path
         id="path3639"
         style="fill:#ffffff;fill-opacity:1;fill-rule:nonzero;stroke:none"
         d="m 0,0 c 0,0.773 0.626,1.399 1.398,1.399 0.773,0 1.4,-0.626 1.4,-1.399 0,-0.772 -0.627,-1.398 -1.4,-1.398 C 0.626,-1.398 0,-0.772 0,0"
         inkscape:connector-curvature="0" />
    </g>
    <g
       transform="matrix(0.65493011,0,0,-0.65493011,12.356744,16.198993)"
       id="g3641">
      <path
         id="path3643"
         style="fill:#db923a;fill-opacity:1;fill-rule:nonzero;stroke:none"
         d="M 0,0 C 0.179,0.241 0.281,0.4 0.288,0.458 -0.091,0.483 -1.42,-0.926 -2.553,-2.173 l -0.198,-0.169 c 0,0 -0.66,1.76 -0.77,4.887 C -3.57,3.944 -3.51,5.399 -3.428,6.58 -0.803,6.618 1.721,5.564 3.717,3.703 3.984,3.783 4.078,3.688 4.165,3.545 L 0,0 z"
         inkscape:connector-curvature="0" />
    </g>
    <g
       transform="matrix(0.65493011,0,0,-0.65493011,27.326813,41.115745)"
       id="g3645">
      <path
         id="path3647"
         style="fill:#f5d75c;fill-opacity:1;fill-rule:nonzero;stroke:none"
         d="m 0,0 c 1.254,-2.36 1.992,-4.831 1.586,-7.634 -3.393,0.554 -7.043,-0.369 -8.924,-3.098 -0.406,-0.369 -0.516,-0.848 -0.886,-1.217 -0.25,0.874 -0.657,1.646 -1.182,2.315 3.314,2.084 5.484,5.569 5.484,9.516 0,1.515 -0.32,2.962 -0.902,4.288 0.591,-0.16 1.14,-0.422 1.617,-0.814 C -1.918,2.544 -0.774,1.217 0,0"
         inkscape:connector-curvature="0" />
    </g>
    <g
       transform="matrix(0.65493011,0,0,-0.65493011,43.280448,22.217081)"
       id="g3649">
      <path
         id="path3651"
         style="fill:#ba5534;fill-opacity:1;fill-rule:nonzero;stroke:none"
         d="M 0,0 C 0.455,-0.832 0.879,-1.676 1.124,-2.598 -0.462,-2.529 -1.968,-2.42 -3.437,-2.333 -2.271,-1.562 -1.101,-0.763 0,0 m -4.149,-2.803 c 1.883,-0.08 3.717,-0.254 5.348,-0.495 1.068,-2.448 1.974,-5.083 2.515,-7.837 -9.998,0.626 -17.765,3.095 -14.208,4.64 1.556,0.676 3.904,2.098 6.345,3.692 M 7.688,-17.768 c 0.811,-3.208 0.147,-7.111 -1.15,-10.892 -3.993,1.012 -7.377,1.96 -10.19,2.838 0.953,0.828 2.073,1.509 3.375,1.982 -1.768,-0.238 -3.217,-0.824 -4.395,-1.659 -14.516,4.672 -12.418,7.292 -0.117,7.203 4.98,-0.036 9.137,0.197 12.477,0.528 M 4.206,-34.17 c -0.796,-1.594 -1.636,-3.075 -2.438,-4.362 -2.245,1.414 -4.481,3.031 -5.897,4.537 -2.679,2.849 2.321,1.217 8.335,-0.175 m -4.702,-10.279 c -0.193,-0.566 -0.597,-0.999 -1.477,-1.151 L -2.1,-45.626 c -0.625,0.548 -1.233,1.097 -1.809,1.636 -2.848,2.669 0.098,1.327 3.413,-0.459"
         inkscape:connector-curvature="0" />
    </g>
    <g
       transform="matrix(0.65493011,0,0,-0.65493011,12.454004,45.252218)"
       id="g3653">
      <path
         id="path3655"
         style="fill:#db923a;fill-opacity:1;fill-rule:nonzero;stroke:none"
         d="M 0,0 C -1.16,1.721 -2.015,3.625 -2.668,5.629 -0.937,5.655 9.679,5.617 0.777,0.407 0.521,0.257 0.263,0.121 0,0 m -3.92,10.68 c -0.213,1.133 -0.391,2.278 -0.551,3.418 -0.295,0.848 0.331,2.213 -0.627,2.655 l -0.15,0.178 c 3.769,-0.309 9.865,-1.106 6.576,-2.853 -1.92,-1.018 -3.76,-2.28 -5.248,-3.398 m -4.539,12.101 c -0.295,1.084 -0.449,2.23 -0.437,3.45 l 0.369,2.545 0.331,0.108 c 3.11,-1.311 6.987,-3.136 6.175,-3.774 -0.696,-0.547 -3.7,-1.51 -6.438,-2.329"
         inkscape:connector-curvature="0" />
    </g>
    <g
       transform="matrix(0.65493011,0,0,-0.65493011,21.119642,48.723872)"
       id="g3657">
      <path
         id="path3659"
         style="fill:#db923a;fill-opacity:1;fill-rule:nonzero;stroke:none"
         d="m 0,0 c 0.406,-0.996 0.701,-2.176 0.442,-3.356 -0.368,-0.59 -0.479,-1.513 -1.327,-1.697 l -0.516,0 c 0.405,1.033 -0.554,4.02 -0.886,4.279 0.266,-1.863 0.332,-3.651 -0.737,-4.279 -1.284,-1.179 -2.993,-1.282 -4.571,-0.706 1.782,1.015 2.936,2.638 2.936,4.466 0,2.341 -1.892,4.344 -4.572,5.169 0.248,0.11 0.496,0.208 0.75,0.291 C -5.053,4.241 -1.328,3.503 0,0"
         inkscape:connector-curvature="0" />
    </g>
    <g
       transform="matrix(0.65493011,0,0,-0.65493011,24.912997,53.147532)"
       id="g3661">
      <path
         id="path3663"
         style="fill:#ecc051;fill-opacity:1;fill-rule:nonzero;stroke:none"
         d="M 0,0 C -1.083,0.515 -2.039,1.446 -2.252,2.586 -2.215,3.767 -1.771,4.762 -0.924,5.61 -1.625,5.869 -1.883,5.057 -2.326,4.652 -2.953,3.804 -3.284,2.586 -2.879,1.555 c -0.773,-0.112 -1.29,0.442 -1.843,0.884 0.738,0.959 0.295,2.102 0.516,3.245 1.37,2.056 3.27,3.537 5.495,4.067 C 2.557,8.587 3.33,7.044 3.33,5.351 3.33,3.143 2.016,1.189 0,0"
         inkscape:connector-curvature="0" />
    </g>
    <g
       transform="matrix(0.65493011,0,0,-0.65493011,61.407473,9.5223738)"
       id="g3665">
      <path
         id="path3667"
         style="fill:#db923a;fill-opacity:1;fill-rule:nonzero;stroke:none"
         d="m 0,0 c 0.849,-1.217 1.513,-2.729 0.959,-4.279 -0.858,-1.897 -2.493,-3.433 -4.149,-4.925 -2.442,0.508 -4.457,1.528 -7.241,2.785 -2.473,1.128 -3.93,1.623 -6.378,2.777 -0.137,0.065 -0.271,0.133 -0.404,0.201 0.308,0.521 0.671,1.019 1.098,1.486 2.876,3.356 6.638,5.274 11.174,4.499 C -3.098,2.213 -1.475,1.29 0,0 m -7.843,-14.63 c -0.525,-1.317 -0.602,-2.805 0.062,-4.585 0.087,-0.225 0.177,-0.45 0.272,-0.674 -0.987,-0.052 -2.041,-0.084 -3.251,-0.084 l 0,-0.495 c 0,-1.485 1.898,-1.485 3.327,-1.87 0.449,-0.121 0.88,-0.211 1.297,-0.28 0.718,-1.262 1.521,-2.506 2.318,-3.751 -0.625,-0.196 -1.284,-0.374 -2.076,-0.533 -1.731,-0.366 -3.12,-0.64 -4.489,-0.865 -2.577,3.225 -5.173,6.45 -6.433,10.212 -0.52,1.314 -0.992,2.771 -1.322,4.282 2.579,-0.54 5.019,-0.578 8.258,-1.064 0.716,-0.108 1.392,-0.205 2.037,-0.293 m 7.572,-18.149 c 0.977,-2.457 1.391,-5.034 0.64,-7.863 l -0.106,-0.427 -4.324,1.501 c -0.15,1.58 -0.7,3.4 -1.765,5.491 -0.339,0.582 -0.702,1.154 -1.084,1.719 1.646,-0.326 3.26,-0.428 5.361,-0.428 0.454,0 0.876,0 1.278,0.007 m -3.598,-14.988 c -0.201,-0.141 -0.411,-0.274 -0.63,-0.399 -1.601,-0.862 -3.368,-1.538 -5.204,-1.947 l -0.067,0.089 c -0.418,0.557 -0.664,1.147 -0.886,1.716 1.664,0.565 3.252,1.397 4.457,2.58 0.691,-0.762 1.459,-1.382 2.33,-2.039 m -9.586,-2.781 c -0.803,-0.005 -1.607,0.05 -2.402,0.17 -0.186,0.184 -0.664,0.258 -0.332,0.627 -0.075,0.221 0.184,0.406 0.332,0.442 0.75,0.048 1.564,0.141 2.402,0.291 l 0,-1.53 z"
         inkscape:connector-curvature="0" />
    </g>
    <g
       transform="matrix(0.65493011,0,0,-0.65493011,52.672739,41.61205)"
       id="g3669">
      <path
         id="path3671"
         style="fill:#db923a;fill-opacity:1;fill-rule:nonzero;stroke:none"
         d="M 0,0 C 5.795,1.065 12.649,4.835 7.511,14.92 4.229,20.562 -1.415,25.283 -3.479,31.442 -5.36,36.2 -6.613,42.838 -2.778,47.042 0.098,50.398 3.86,52.316 8.396,51.541 8.882,51.454 9.354,51.325 9.81,51.16 3.825,47.618 -2.222,40.676 3.437,27.787 13.101,5.771 12.378,4.465 5.573,1.166 3.425,0.124 1.554,-0.135 0,0"
         inkscape:connector-curvature="0" />
    </g>
    <g
       transform="matrix(0.65493011,0,0,-0.65493011,54.12714,13.524259)"
       id="g3673">
      <path
         id="path3675"
         style="fill:#ecc051;fill-opacity:1;fill-rule:nonzero;stroke:none"
         d="M 0,0 C -2.077,0.92 -3.481,1.424 -5.692,2.468 -5.83,2.533 -5.964,2.601 -6.097,2.669 -5.789,3.19 -5.426,3.688 -4.999,4.155 -2.123,7.511 1.64,9.429 6.175,8.654 6.661,8.567 7.133,8.438 7.589,8.273 4.572,6.488 1.541,3.839 0,0 m 0.7,-13.862 -0.344,-10e-4 0,-0.495 c 0,-0.741 0.473,-1.112 1.124,-1.346 0.857,-1.956 1.628,-3.746 2.319,-5.383 -1.109,-0.225 -2.091,-0.41 -3.066,-0.57 -2.577,3.225 -5.172,6.45 -6.433,10.212 -0.52,1.314 -0.991,2.771 -1.321,4.282 1.986,-0.416 3.887,-0.534 6.137,-0.788 0.238,-1.808 0.745,-3.774 1.584,-5.911 m 7.574,-20.019 -1.218,0.423 c -0.151,1.58 -0.701,3.4 -1.766,5.491 -0.339,0.582 -0.702,1.154 -1.084,1.719 0.594,-0.118 1.184,-0.206 1.794,-0.271 1.204,-3.147 1.946,-5.52 2.274,-7.362 m -7.619,-8.8 c -0.067,0.162 -0.133,0.323 -0.195,0.483 1.664,0.565 3.252,1.397 4.457,2.58 0.267,-0.294 0.545,-0.567 0.836,-0.829 -0.685,-0.425 -1.486,-0.832 -2.4,-1.274 -0.956,-0.464 -1.855,-0.772 -2.698,-0.96"
         inkscape:connector-curvature="0" />
    </g>
  </g>
</svg>
