<?xml version="1.0" encoding="UTF-8" standalone="no"?>
<!-- Created with Inkscape (http://www.inkscape.org/) -->

<svg
   xmlns:dc="http://purl.org/dc/elements/1.1/"
   xmlns:cc="http://creativecommons.org/ns#"
   xmlns:rdf="http://www.w3.org/1999/02/22-rdf-syntax-ns#"
   xmlns:svg="http://www.w3.org/2000/svg"
   xmlns="http://www.w3.org/2000/svg"
   xmlns:sodipodi="http://sodipodi.sourceforge.net/DTD/sodipodi-0.dtd"
   xmlns:inkscape="http://www.inkscape.org/namespaces/inkscape"
   width="64px"
   height="64px"
   id="svg204603"
   version="1.1"
   inkscape:version="0.48.5 r10040"
   sodipodi:docname="Nowy dokument 72">
  <defs
     id="defs204605" />
  <sodipodi:namedview
     id="base"
     pagecolor="#ffffff"
     bordercolor="#666666"
     borderopacity="1.0"
     inkscape:pageopacity="0.0"
     inkscape:pageshadow="2"
     inkscape:zoom="5.5"
     inkscape:cx="32"
     inkscape:cy="32"
     inkscape:current-layer="layer1"
     showgrid="true"
     inkscape:document-units="px"
     inkscape:grid-bbox="true"
     inkscape:window-width="1366"
     inkscape:window-height="706"
     inkscape:window-x="-8"
     inkscape:window-y="-8"
     inkscape:window-maximized="1" />
  <metadata
     id="metadata204608">
    <rdf:RDF>
      <cc:Work
         rdf:about="">
        <dc:format>image/svg+xml</dc:format>
        <dc:type
           rdf:resource="http://purl.org/dc/dcmitype/StillImage" />
        <dc:title></dc:title>
      </cc:Work>
    </rdf:RDF>
  </metadata>
  <g
     id="layer1"
     inkscape:label="Layer 1"
     inkscape:groupmode="layer">
    <g
       id="g72781"
       transform="matrix(1.7104153,0,0,-1.7104153,26.948478,9.3289634)">
      <path
         inkscape:connector-curvature="0"
         d="M 0,0 C 0.216,1.389 0.621,2.831 1.834,3.777 3.656,3.15 4.319,1.364 4.808,-0.238 6.829,-0.453 8.809,-0.766 10.546,-1.753 l 0.845,-0.829 c 1.409,0.858 3.309,0.733 4.882,0.337 0.393,-0.274 0.276,-1.015 0.17,-1.423 L 16.371,-3.67 c -0.181,-0.982 -0.553,-2.019 -1.461,-2.789 1.458,0.146 3.344,0.426 4.946,0.576 l -5.272,-0.874 -0.278,-0.247 c 0.375,-1.105 1.59,-0.206 2.437,-0.415 0.761,0.217 2.131,0.122 2.992,0.199 -1.242,-0.163 -2.989,-0.295 -4.539,-0.539 1.437,-1.306 3.821,-0.177 5.488,-0.5 -1.34,-0.117 -2.73,-0.165 -4.018,-0.377 0.565,-0.361 1.148,-0.579 1.799,-0.676 0.084,-0.33 -1.126,-0.705 -1.464,-0.669 l -0.045,-0.073 c 0.49,-0.316 1.856,-0.912 1.858,-1.008 -0.56,-0.423 -1.263,-0.234 -1.806,-0.466 0.179,-0.327 1.037,-0.179 0.651,-0.787 -0.596,-0.092 -1.45,-0.384 -2.174,-0.289 0.155,-0.282 0.696,0.024 0.641,-0.455 -2.098,-0.381 -4.243,-0.765 -6.369,-0.387 l -2.678,0.431 c -0.032,-2.477 0.4,-5.175 0.459,-7.578 0.932,0.794 2.3,1.459 3.519,0.906 1.69,-1.472 -1.194,-5.611 -1.551,-6.384 1.264,0.233 3.345,1.781 4.367,-0.017 0.375,-0.439 0.329,-1.155 0.347,-1.654 0,0 -4.527,-0.229 -6.61,-0.348 l -0.201,-0.412 c -2.856,0.044 -5.524,-0.524 -8.353,0.115 -0.15,0.162 -0.227,0.326 -0.188,0.565 -2.264,0.232 -4.588,0.151 -6.921,0.332 -0.34,0.107 -0.283,0.538 -0.22,0.802 0.196,0.554 0.632,1.117 1.171,1.468 1.887,0.947 3.682,-0.3 5.414,-0.454 0.057,0.43 -0.453,0.603 -0.611,1.026 -0.949,1.728 -1.663,3.609 -1.856,5.697 -1.263,1.813 -3.149,2.89 -4.977,3.708 -2.685,1.311 -5.319,3.91 -5.363,7.194 -0.598,3.383 0.882,6.316 3.614,8.41 0.697,0.644 1.293,1.45 1.648,2.271 0.291,-0.062 0.658,-0.287 0.765,-0.592 2.317,-3.11 -1.768,-5.656 -0.31,-8.915 0.819,-2.852 3.246,-4.982 4.231,-7.757 0.347,-0.988 0.623,-2.026 0.806,-3.115 1.3,0.545 2.438,-0.439 3.535,-0.948 0.199,-0.184 0.326,-0.394 0.548,-0.553 0.924,2.39 1.717,5.082 2.489,7.682 -3.067,1.25 -6.068,4.049 -7.564,6.998 l 0.573,0.066 c -0.119,0.663 -1.028,1.275 -0.649,2.098 0.194,-0.041 0.325,-0.346 0.487,-0.222 -0.362,0.726 -0.799,1.567 -0.493,2.459 0.49,-0.316 0.728,-0.951 1.126,-1.342 0,0.691 -0.764,1.259 -0.53,2.101 0.531,-0.101 0.698,-0.738 1.183,-0.888 0.316,-0.132 0.655,-0.239 0.95,-0.419 l -0.008,0.237 c -0.879,1.113 -1.728,2.083 -2.537,3.222 l 3.055,-3.609 c 0.217,-0.039 0.388,-0.153 0.651,-0.096 l -0.009,0.238 c -0.807,1.139 -1.876,2.172 -2.424,3.463 0.813,-1.304 1.814,-2.484 2.816,-3.687 0.213,0.079 0.453,0.087 0.639,0.259 -0.746,1.427 -1.54,2.828 -2.168,4.33 C -1.38,2.404 -0.761,1.164 0,0"
         style="fill:#000000;fill-opacity:1;fill-rule:nonzero;stroke:none"
         id="path72783" />
    </g>
    <g
       id="g72785"
       transform="matrix(1.7104153,0,0,-1.7104153,33.277289,7.2778334)">
      <path
         inkscape:connector-curvature="0"
         d="m 0,0 c 0.36,-0.678 0.256,-1.8 1.175,-2.006 2.307,-0.135 4.627,-0.602 6.243,-2.188 1.898,0.923 3.79,0.677 4.808,0.404 0.175,-0.923 -0.272,-1.843 -0.651,-2.665 -0.595,-0.83 -1.354,-1.736 -2.462,-1.633 l -0.115,-0.1 c 0.229,-0.372 0.791,0.004 1.199,-0.029 l 0.309,-0.56 c -0.207,-0.27 -1.138,0.269 -0.852,-0.316 0.738,0.121 1.488,-0.043 2.034,-0.549 C 11.091,-9.733 10.444,-9.779 9.92,-9.87 l 0.004,-0.118 2.228,0.077 1.54,-0.803 c -0.425,-0.158 -1.198,-0.018 -1.721,-0.18 0.391,-0.867 1.376,-0.904 2.107,-1.236 -0.664,-0.213 -1.418,0.071 -2.011,-0.141 -10e-4,-0.619 0.718,-0.618 1.065,-0.915 -1.041,-0.417 -2.092,0.118 -3.097,0.059 0.227,-0.325 0.525,-0.601 0.893,-0.826 -9.268,-1.416 -16.757,4.395 -18.351,7.411 0.291,-0.085 0.505,-0.03 0.745,-0.022 0,0 -1.078,1.32 -1.269,2.003 0.198,-0.183 0.464,-0.246 0.749,-0.187 -0.1,0.805 -0.796,1.496 -0.946,2.347 0.377,-0.488 0.834,-1.208 1.485,-1.305 -0.023,0.665 -0.431,1.342 -0.647,2.024 0.98,-0.56 2.495,-0.674 3.071,-2.011 0.248,0.413 -0.508,0.767 -0.494,1.078 0.539,0.351 0.88,-0.494 1.226,-0.768 0.207,0.27 -0.282,0.515 -0.364,0.797 0.09,0.193 0.429,0.063 0.617,0.189 0.245,-0.16 0.187,-0.541 0.548,-0.552 -0.019,0.498 -0.512,0.885 -0.509,1.481 0.272,1.176 0.296,2.51 1.37,3.358 C -0.832,1.852 -0.503,0.674 0,0"
         style="fill:#ffffff;fill-opacity:1;fill-rule:nonzero;stroke:none"
         id="path72787" />
    </g>
    <g
       id="g72789"
       transform="matrix(1.7104153,0,0,-1.7104153,31.92264,8.0127647)">
      <path
         inkscape:connector-curvature="0"
         d="M 0,0 C 0.359,-0.68 0.053,-1.507 1.967,-1.576 3.402,-1.66 4.843,-1.873 6.114,-2.403 4.582,-2.583 2.41,-2.961 1.733,-3.7 1.651,-3.789 1.571,-3.901 1.495,-4.035 1.274,-3.957 1.55,-4.346 1.299,-4.346 c -1.086,0 -2.058,-0.473 -2.058,-1.451 0,-0.976 2.655,-1.71 3.456,-0.958 0,0 -0.53,-1.075 -1.776,-0.806 0.17,-1.786 1.048,-3.612 3.349,-4.668 2.39,-1.095 4.609,-1.4 6.143,-1.448 -8.658,-0.718 -15.525,4.692 -17.044,7.565 0.291,-0.085 0.505,-0.031 0.745,-0.023 0,0 -1.078,1.321 -1.269,2.004 0.198,-0.183 0.464,-0.246 0.749,-0.187 -0.1,0.804 -0.796,1.496 -0.946,2.346 0.377,-0.487 0.834,-1.208 1.485,-1.304 -0.023,0.665 -0.431,1.341 -0.647,2.024 0.98,-0.561 2.495,-0.675 3.071,-2.012 0.248,0.413 -0.508,0.768 -0.495,1.078 0.54,0.352 0.881,-0.494 1.227,-0.767 0.207,0.269 -0.282,0.515 -0.364,0.797 0.09,0.193 0.429,0.062 0.617,0.188 0.245,-0.159 0.187,-0.541 0.548,-0.552 -0.019,0.499 -0.512,0.885 -0.509,1.482 0.272,1.176 0.296,2.51 1.37,3.357 C -0.705,1.87 -0.504,0.671 0,0 m 8.348,-3.7 c 1.853,0.847 3.676,0.607 4.67,0.34 0.012,-0.073 0.023,-0.145 0.03,-0.217 -0.37,-0.046 -0.676,-0.105 -0.89,-0.177 C 10.587,-4.292 9.567,-5.313 9.567,-5.313 L 8.348,-3.7 z"
         style="fill:#dce8eb;fill-opacity:1;fill-rule:nonzero;stroke:none"
         id="path72791" />
    </g>
    <g
       id="g72793"
       transform="matrix(1.7104153,0,0,-1.7104153,10.774518,16.160636)">
      <path
         inkscape:connector-curvature="0"
         d="M 0,0 -0.31,0.607 C -0.827,0.328 -0.902,-0.269 -1.373,-0.5 c -0.157,0.376 0.022,0.716 -0.206,1.064 -0.426,-0.158 -0.769,-0.645 -1.122,-0.825 -0.117,0.592 0.367,1.157 0.158,1.65 L -3.724,0.848 C -3.05,2.822 -0.453,4.031 0.363,6.06 2.082,4.238 0.677,1.904 0,0"
         style="fill:#ffffff;fill-opacity:1;fill-rule:nonzero;stroke:none"
         id="path72795" />
    </g>
    <g
       id="g72797"
       transform="matrix(1.7104153,0,0,-1.7104153,32.74104,8.3552582)">
      <path
         inkscape:connector-curvature="0"
         d="M 0,0 C -0.037,-0.311 0.388,-0.771 -0.087,-0.932 -0.832,-0.886 -1.53,-0.814 -2.14,-1.217 -2.208,-0.624 -2.19,0.21 -1.804,0.795 -1.16,2.316 -0.379,0.559 0,0"
         style="fill:#e0a5a0;fill-opacity:1;fill-rule:nonzero;stroke:none"
         id="path72799" />
    </g>
    <g
       id="g72801"
       transform="matrix(1.7104153,0,0,-1.7104153,32.575745,9.4592287)">
      <path
         inkscape:connector-curvature="0"
         d="m 0,0 c -0.624,0.002 -1.198,-0.042 -1.767,-0.276 -0.188,0.589 -0.042,1.189 0.279,1.652 L -0.975,1.8 C -0.573,1.289 -0.051,0.735 0,0"
         style="fill:#f3dcca;fill-opacity:1;fill-rule:nonzero;stroke:none"
         id="path72803" />
    </g>
    <g
       id="g72805"
       transform="matrix(1.7104153,0,0,-1.7104153,35.472094,15.996846)">
      <path
         inkscape:connector-curvature="0"
         d="M 0,0 C -0.569,-0.187 -1.038,0.202 -1.504,0.472 -2.367,1.156 -2.906,2.161 -2.7,3.12 -0.447,2.354 0,0 0,0"
         style="fill:#000000;fill-opacity:1;fill-rule:nonzero;stroke:none"
         id="path72807" />
    </g>
    <g
       id="g72809"
       transform="matrix(1.7104153,0,0,-1.7104153,34.887542,15.906673)">
      <path
         inkscape:connector-curvature="0"
         d="m 0,0 c -0.239,0.128 -0.508,0.301 -0.771,0.508 0.198,0.134 0.328,0.36 0.328,0.617 0,0.06 -0.008,0.118 -0.021,0.173 C -0.189,0.87 -0.016,0.411 0,0 m -1.792,1.583 c -0.23,0.355 -0.38,0.739 -0.387,1.134 0.494,-0.162 0.97,-0.512 1.35,-0.94 -0.109,0.061 -0.234,0.095 -0.368,0.095 -0.241,0 -0.457,-0.111 -0.595,-0.289"
         style="fill:#4dafe3;fill-opacity:1;fill-rule:nonzero;stroke:none"
         id="path72811" />
    </g>
    <g
       id="g72813"
       transform="matrix(1.7104153,0,0,-1.7104153,6.2580641,17.211241)">
      <path
         inkscape:connector-curvature="0"
         d="M 0,0 0.836,0.79 C 1.158,0.491 0.685,-0.382 1.443,-0.118 L 2.108,0.763 C 2.646,0.472 2.547,-0.127 2.491,-0.581 2.488,-4.58 6.169,-6.905 7.156,-10.418 l 0.475,-1.889 c -0.263,-0.056 -0.45,-0.181 -0.686,-0.309 -1.573,1.755 -3.914,2.15 -5.689,3.517 -2.657,1.883 -3.34,4.907 -3.231,7.958 0.189,0.769 0.159,1.624 0.614,2.307 0.415,-0.176 0.805,0.313 1.182,0.493 C -0.11,1.091 -0.731,0.331 0,0"
         style="fill:#ffffff;fill-opacity:1;fill-rule:nonzero;stroke:none"
         id="path72815" />
    </g>
    <g
       id="g72817"
       transform="matrix(1.7104153,0,0,-1.7104153,52.659715,14.627283)">
      <path
         inkscape:connector-curvature="0"
         d="m 0,0 c 0.06,-1.022 -0.535,-1.852 -1.23,-2.543 -0.431,0.652 -1.4,2.285 -1.4,2.285 C -1.822,-0.04 -0.771,0.759 0,0"
         style="fill:#e0a5a0;fill-opacity:1;fill-rule:nonzero;stroke:none"
         id="path72819" />
    </g>
    <g
       id="g72821"
       transform="matrix(1.7104153,0,0,-1.7104153,52.252089,14.722381)">
      <path
         inkscape:connector-curvature="0"
         d="m 0,0 c 0.027,-0.785 -0.31,-1.439 -0.841,-2.029 l -1.164,1.721 C -1.369,0.047 -0.708,0.332 0,0"
         style="fill:#f3dcca;fill-opacity:1;fill-rule:nonzero;stroke:none"
         id="path72823" />
    </g>
    <g
       id="g72825"
       transform="matrix(1.7104153,0,0,-1.7104153,48.953314,18.949981)">
      <path
         inkscape:connector-curvature="0"
         d="M 0,0 C -1.313,-0.854 -3.058,-0.367 -4.383,0.491 -3.476,1.26 -1.814,1.104 -0.771,0.782 -0.498,0.53 -0.085,0.378 0,0"
         style="fill:#000000;fill-opacity:1;fill-rule:nonzero;stroke:none"
         id="path72827" />
    </g>
    <g
       id="g72829"
       transform="matrix(1.7104153,0,0,-1.7104153,48.378751,18.971737)">
      <path
         inkscape:connector-curvature="0"
         d="m 0,0 c -0.512,-0.175 -1.023,-0.215 -1.532,-0.161 0.072,0.106 0.115,0.235 0.115,0.373 0,0.275 -0.168,0.511 -0.407,0.613 C -1.123,0.754 -0.441,0.481 0,0 M -2.758,0.137 C -3.055,0.244 -3.35,0.374 -3.64,0.518 -3.26,0.719 -2.792,0.828 -2.31,0.843 -2.572,0.752 -2.762,0.504 -2.762,0.212 l 0.004,-0.075 z"
         style="fill:#4dafe3;fill-opacity:1;fill-rule:nonzero;stroke:none"
         id="path72831" />
    </g>
    <g
       id="g72833"
       transform="matrix(1.7104153,0,0,-1.7104153,38.29989,34.5476)">
      <path
         inkscape:connector-curvature="0"
         d="m 0,0 c 0.029,-2.166 0.445,-4.461 0.398,-6.558 0.256,-0.442 0.501,0.09 0.738,0.193 0.811,0.79 1.916,1.424 3.007,1.128 0.846,-2.233 -0.98,-4.201 -1.968,-6.116 -0.157,-0.314 0.022,-0.618 0.383,-0.629 1.332,0.285 2.705,1.522 4.1,0.713 0.253,-0.348 0.53,-0.719 0.451,-1.222 L 6.32,-12.589 c -0.201,0.278 -0.129,0.947 -0.68,0.952 -0.276,-0.367 0.666,-1.191 -0.3,-1.033 l -4.313,-0.15 c 0.146,0.647 -0.521,1.173 -1.037,1.511 -0.535,0.196 -1.136,0.223 -1.611,0.111 0.64,2.974 1.67,9.818 1.372,10.094 -1.035,-3.297 -1.244,-6.9 -2.013,-10.284 0.033,-0.213 0.159,-0.446 0.377,-0.509 0.496,0.23 1.187,0.374 1.725,0.107 0.339,-0.107 0.591,-0.456 0.721,-0.761 -0.012,-0.334 0.052,-0.783 -0.331,-0.82 l -0.167,-0.006 c -0.106,0.281 0.013,0.976 -0.443,1.008 -0.254,-0.295 0.069,-0.617 -0.015,-0.952 -0.164,-0.126 -0.405,-0.063 -0.573,-0.092 -0.133,0.376 0.251,1.056 -0.399,1.128 -0.087,-0.265 -0.021,-0.762 -0.007,-1.142 l -2.138,0.044 c 0.626,4.022 1.272,8.187 1.132,12.157 -0.335,-1.391 -1.442,-9.477 -1.755,-12.178 -0.281,-0.177 -0.739,-0.121 -1.1,-0.086 -0.132,0.33 0.039,0.954 -0.444,1.01 -0.182,-0.246 -0.096,-0.647 -0.015,-0.93 l -0.744,0.046 c 0.011,0.333 0.186,0.814 -0.111,1.067 -0.573,-0.068 -0.081,-1.074 -0.707,-1.048 -0.231,0.444 -0.125,0.828 0.076,1.264 0.74,0.811 1.825,-0.032 2.63,0.258 0.399,1.633 0.189,3.506 0.392,5.227 0.034,1.763 -0.096,5.449 -0.244,5.586 0,0 -0.285,-6.938 -0.618,-10.425 -0.751,0.212 -1.639,0.229 -2.346,-0.128 -0.304,-0.226 -0.387,-0.609 -0.494,-0.946 -1.823,-0.04 -3.744,0.013 -5.597,0.162 -0.157,0.4 0.407,0.705 0.44,1.159 -0.462,0.151 -0.702,-0.5 -0.908,-0.793 l 0.012,-0.334 -0.575,-0.019 c 0.076,0.574 0.536,1.113 0.98,1.462 1.749,0.751 3.459,-0.142 5.034,-0.564 0.287,0.034 0.572,0.116 0.681,0.429 -1.037,2.202 -2.53,4.411 -2.388,7.153 0.065,0.242 0.293,0.536 0.558,0.544 1.35,-0.19 3.806,-1.819 3.806,-1.819 0.475,2.181 1.265,4.256 1.912,6.351 0.439,0.466 1.051,0.773 1.692,0.987 C -1.054,2.011 -0.675,0.763 0,0"
         style="fill:#ffffff;fill-opacity:1;fill-rule:nonzero;stroke:none"
         id="path72835" />
    </g>
    <g
       id="g72837"
       transform="matrix(1.7104153,0,0,-1.7104153,33.40427,14.065992)">
      <path
         inkscape:connector-curvature="0"
         d="M 0,0 C 0,0.148 0.121,0.269 0.271,0.269 0.42,0.269 0.542,0.148 0.542,0 0.542,-0.149 0.42,-0.269 0.271,-0.269 0.121,-0.269 0,-0.149 0,0"
         style="fill:#ffffff;fill-opacity:1;fill-rule:nonzero;stroke:none"
         id="path72839" />
    </g>
    <g
       id="g72841"
       transform="matrix(1.7104153,0,0,-1.7104153,44.952721,18.066448)">
      <path
         inkscape:connector-curvature="0"
         d="M 0,0 C 0,0.134 0.108,0.242 0.243,0.242 0.378,0.242 0.487,0.134 0.487,0 0.487,-0.134 0.378,-0.241 0.243,-0.241 0.108,-0.241 0,-0.134 0,0"
         style="fill:#ffffff;fill-opacity:1;fill-rule:nonzero;stroke:none"
         id="path72843" />
    </g>
    <g
       id="g72845"
       transform="matrix(1.7104153,0,0,-1.7104153,37.648426,19.123759)">
      <path
         inkscape:connector-curvature="0"
         d="m 0,0 c 0,0 0.055,-1.388 1.301,-1.926 1.246,-0.536 1.669,-0.536 2.157,-0.267 0.487,0.267 0.541,0.967 0.541,0.967 l 0.596,0.107 c 0,0 0.261,-1.182 -1.083,-1.558 -1.345,-0.378 -2.373,-0.269 -2.97,0.161 -0.596,0.43 -0.877,0.86 -1.083,1.182 -0.208,0.323 0,1.334 0,1.334 L 0,0 z"
         style="fill:#dce8eb;fill-opacity:1;fill-rule:evenodd;stroke:none"
         id="path72847" />
    </g>
    <g
       id="g72849"
       transform="matrix(1.7104153,0,0,-1.7104153,31.722179,15.515877)">
      <path
         inkscape:connector-curvature="0"
         d="m 0,0 0.062,-0.402 c -0.211,-0.126 -0.366,0.153 -0.467,0.316 -0.429,-0.086 -0.655,-0.498 -0.785,-0.884 -0.109,-1.004 0.893,-1.515 1.582,-1.992 0.633,-0.264 1.591,-0.23 2.125,0.287 0.362,0.608 -0.863,1.327 0.033,1.787 0.478,0.04 1.014,-0.202 1.409,-0.522 0.154,-0.257 0.476,-0.555 0.198,-0.85 -0.32,-0.416 -1.272,0.05 -1.175,-0.684 -0.069,-0.764 0.715,-1.237 1.256,-1.599 1.023,-0.418 2.613,-0.624 3.443,0.334 0.282,0.176 0.078,0.526 0.213,0.769 -0.22,0.111 -0.931,-0.127 -0.877,0.35 0.593,0.188 1.43,0.288 1.904,-0.22 L 8.928,-3.523 C 8.731,-3.388 8.513,-3.3 8.295,-3.26 8.157,-3.432 8.315,-3.831 8.203,-4.073 7.878,-5.036 6.807,-5.287 5.874,-5.344 4.597,-5.197 2.995,-4.682 2.633,-3.242 1.926,-3.6 0.801,-3.662 0.041,-3.213 -2.448,-1.72 -1.339,-0.142 -0.749,0.141 -1.091,0.296 -1.755,0.772 -1.638,0.848 -1.033,0.727 -0.355,0.535 0,0"
         style="fill:#000000;fill-opacity:1;fill-rule:nonzero;stroke:none"
         id="path72851" />
    </g>
    <g
       id="g72853"
       transform="matrix(1.7104153,0,0,-1.7104153,38.010898,18.148412)">
      <path
         inkscape:connector-curvature="0"
         d="m 0,0 c 0.103,-0.188 0.323,-0.322 0.308,-0.56 -0.376,-0.228 -0.735,-0.264 -1.15,-0.087 -0.107,0.328 -0.524,0.6 -0.323,1.011 C -0.761,0.474 -0.344,0.226 0,0"
         style="fill:#e0a5a0;fill-opacity:1;fill-rule:nonzero;stroke:none"
         id="path72855" />
    </g>
    <g
       id="g72857"
       transform="matrix(1.7104153,0,0,-1.7104153,37.277608,18.662631)">
      <path
         inkscape:connector-curvature="0"
         d="M 0,0 C 0,0.179 0.146,0.322 0.325,0.322 0.505,0.322 0.65,0.179 0.65,0 0.65,-0.179 0.505,-0.322 0.325,-0.322 0.146,-0.322 0,-0.179 0,0"
         style="fill:#ffffff;fill-opacity:1;fill-rule:nonzero;stroke:none"
         id="path72859" />
    </g>
    <g
       id="g72861"
       transform="matrix(1.7104153,0,0,-1.7104153,42.510795,55.024007)">
      <path
         inkscape:connector-curvature="0"
         d="M 0,0 C 0.03,-0.006 0.062,-0.009 0.096,-0.011 0.839,-0.086 1.952,-0.088 3.163,-0.046 3.278,-0.414 3.575,-0.813 2.878,-0.698 l -4.313,-0.151 c 0.146,0.648 -0.521,1.173 -1.037,1.512 -0.535,0.195 -1.135,0.223 -1.611,0.11 0.303,1.408 0.692,3.683 0.988,5.718 C -2.941,5.339 -2.679,3.504 -2.463,2.763 -2.139,1.644 -0.946,0.944 -0.838,0.299 -0.814,0.155 -0.502,0.059 0,0 M 4.598,0.021 C 4.654,-0.144 4.678,-0.32 4.647,-0.52 L 3.858,-0.617 c -0.102,0.141 -0.133,0.385 -0.213,0.59 L 4.598,0.021 z M -3.873,-0.7 c 0,-0.241 0.028,-0.522 0.037,-0.755 l -2.138,0.044 c 0.601,3.851 1.218,7.834 1.146,11.652 0.139,0.163 0.488,0.504 0.858,0.296 0.477,-0.269 -0.542,-5.839 -0.704,-6.593 -0.163,-0.752 -0.543,-4.397 -0.543,-4.397 0,0 0.632,-0.152 1.344,-0.247 m -2.628,0.061 -0.096,-0.794 c -0.281,-0.176 -0.739,-0.121 -1.1,-0.086 -0.096,0.241 -0.031,0.638 -0.177,0.857 l 0.176,-0.006 c 0.656,0 1.01,0.015 1.197,0.029 m -1.698,0.027 c -0.102,-0.244 -0.028,-0.581 0.043,-0.826 L -8.9,-1.393 c 0.011,0.333 0.186,0.815 -0.111,1.068 -0.573,-0.069 -0.081,-1.074 -0.707,-1.048 -0.231,0.443 -0.125,0.828 0.076,1.264 0.315,0.344 0.692,0.39 1.083,0.351 l -0.169,0.003 c -0.505,0 -0.301,-0.658 0.529,-0.857 m 1.107,0.735 0.08,0.025 c 0.399,1.633 0.189,3.506 0.392,5.228 0.034,1.763 -0.096,5.448 -0.244,5.586 0,0 -0.284,-6.939 -0.617,-10.425 -0.751,0.212 -1.64,0.229 -2.347,-0.129 -0.304,-0.225 -0.387,-0.608 -0.494,-0.945 -1.823,-0.04 -3.743,0.013 -5.597,0.162 -0.157,0.399 0.407,0.705 0.44,1.158 -0.461,0.152 -0.702,-0.5 -0.908,-0.793 l 0.012,-0.334 -0.575,-0.018 c 0.076,0.574 0.536,1.113 0.98,1.462 1.749,0.751 3.459,-0.142 5.034,-0.564 0.288,0.033 0.572,0.115 0.681,0.429 -1.037,2.202 -2.53,4.411 -2.388,7.153 0.065,0.241 0.293,0.535 0.558,0.544 1.35,-0.19 3.806,-1.819 3.806,-1.819 0.475,2.18 1.265,4.256 1.912,6.35 0.439,0.467 1.052,0.774 1.692,0.988 0.956,-0.164 1.383,-1.044 1.882,-1.775 -0.83,0.149 -1.73,0.157 -2.099,-0.364 C -5.649,10.967 -6.19,7.375 -6.19,7.375 L -6.516,2.602 -6.733,0.084 -7.092,0.123 z m 5.19,-0.875 c -0.002,-0.299 -0.01,-0.617 -0.329,-0.647 l -0.167,-0.006 c -0.057,0.149 -0.05,0.412 -0.098,0.633 l -0.4,-0.003 c -0.002,-0.185 0.088,-0.377 0.04,-0.575 -0.165,-0.126 -0.406,-0.062 -0.574,-0.091 -0.068,0.192 -10e-4,0.462 -0.006,0.692 0.173,-0.016 0.344,-0.025 0.505,-0.026 l 0.435,0.003 c 0.251,0.004 0.446,0.012 0.594,0.02"
         style="fill:#dce8eb;fill-opacity:1;fill-rule:nonzero;stroke:none"
         id="path72863" />
    </g>
    <g
       id="g72865"
       transform="matrix(1.7104153,0,0,-1.7104153,8.2908585,15.951828)">
      <path
         inkscape:connector-curvature="0"
         d="m 0,0 c -0.007,0.148 -0.03,0.295 -0.127,0.442 -0.426,-0.158 -0.769,-0.645 -1.122,-0.825 -0.117,0.592 0.367,1.156 0.158,1.65 L -2.271,0.726 C -1.678,2.467 0.411,3.613 1.456,5.249 1.361,3.899 1.064,2.16 0.259,0.564 0.165,0.38 0.079,0.19 0,0 m -1.188,-0.736 0.835,0.79 c 0.155,-0.145 0.126,-0.42 0.139,-0.639 -0.963,-2.981 -0.131,-6.39 2.359,-8.613 2.341,-2.093 3.59,-3.145 4.101,-3.904 -0.17,-0.064 -0.316,-0.157 -0.489,-0.251 -1.573,1.755 -3.914,2.151 -5.69,3.518 -2.657,1.883 -3.339,4.906 -3.23,7.958 0.188,0.769 0.158,1.624 0.613,2.307 0.415,-0.176 0.806,0.313 1.183,0.493 0.068,-0.569 -0.553,-1.328 0.179,-1.659"
         style="fill:#dce8eb;fill-opacity:1;fill-rule:evenodd;stroke:none"
         id="path72867" />
    </g>
  </g>
</svg>
