<?xml version="1.0" encoding="UTF-8" standalone="no"?>
<!-- Created with Inkscape (http://www.inkscape.org/) -->

<svg
   xmlns:dc="http://purl.org/dc/elements/1.1/"
   xmlns:cc="http://creativecommons.org/ns#"
   xmlns:rdf="http://www.w3.org/1999/02/22-rdf-syntax-ns#"
   xmlns:svg="http://www.w3.org/2000/svg"
   xmlns="http://www.w3.org/2000/svg"
   xmlns:sodipodi="http://sodipodi.sourceforge.net/DTD/sodipodi-0.dtd"
   xmlns:inkscape="http://www.inkscape.org/namespaces/inkscape"
   width="64px"
   height="64px"
   id="svg21770"
   version="1.1"
   inkscape:version="0.48.5 r10040"
   sodipodi:docname="Nowy dokument 20">
  <defs
     id="defs21772" />
  <sodipodi:namedview
     id="base"
     pagecolor="#ffffff"
     bordercolor="#666666"
     borderopacity="1.0"
     inkscape:pageopacity="0.0"
     inkscape:pageshadow="2"
     inkscape:zoom="5.5"
     inkscape:cx="32"
     inkscape:cy="37.799201"
     inkscape:current-layer="layer1"
     showgrid="true"
     inkscape:document-units="px"
     inkscape:grid-bbox="true"
     inkscape:window-width="1366"
     inkscape:window-height="706"
     inkscape:window-x="-8"
     inkscape:window-y="-8"
     inkscape:window-maximized="1" />
  <metadata
     id="metadata21775">
    <rdf:RDF>
      <cc:Work
         rdf:about="">
        <dc:format>image/svg+xml</dc:format>
        <dc:type
           rdf:resource="http://purl.org/dc/dcmitype/StillImage" />
        <dc:title></dc:title>
      </cc:Work>
    </rdf:RDF>
  </metadata>
  <g
     id="layer1"
     inkscape:label="Layer 1"
     inkscape:groupmode="layer">
    <path
       id="path11794"
       style="fill:#dbe7e5;fill-opacity:1;fill-rule:nonzero;stroke:none"
       d="m 32.127243,23.222761 -24.6263691,0 -0.1359931,10.890654 c 0,0 -0.2447989,0 7.3973322,0 1.112459,0.04625 4.287538,0.220312 5.321119,0.769741 2.140597,1.140566 3.856882,1.471493 5.70916,1.547648 l 0,0.02086 c 0.173171,0 0.338178,-0.0035 0.503191,-0.0073 0.172263,0.0035 0.33727,0.0073 0.502283,0.0073 l 0,-0.02086 c 1.860442,-0.07615 3.576727,-0.407082 5.717318,-1.547648 0.674547,-0.361751 2.283847,-0.559403 3.626592,-0.66729 9.099116,0.525857 8.560568,0.359936 8.560568,7.907764 0,0 2.118835,0.825954 5.386397,0.825954 3.274808,0 5.400899,-0.825954 5.400899,-0.825954 C 55.446248,26.562854 53.514155,23.222761 32.127243,23.222761"
       inkscape:connector-curvature="0" />
    <path
       id="path11796"
       style="fill:#a5dade;fill-opacity:1;fill-rule:nonzero;stroke:none"
       d="m 56.975733,43.704813 c 0,1.254846 -0.875818,2.271201 -1.945662,2.271201 l -9.968593,0 c -1.077101,0 -1.946576,-1.016355 -1.946576,-2.271201 0,-1.253869 0.869475,-2.271145 1.946576,-2.271145 l 9.968593,0 c 1.069844,0 1.945662,1.017276 1.945662,2.271145"
       inkscape:connector-curvature="0" />
    <path
       id="path11798"
       style="fill:#dbe7e5;fill-opacity:1;fill-rule:nonzero;stroke:none"
       d="m 36.737544,27.700695 c 0,5.588576 -4.531423,10.121815 -10.119098,10.121815 -5.586761,0 -10.12544,-4.533239 -10.12544,-10.121815 0,-5.5913 4.538679,-10.121815 10.12544,-10.121815 5.587675,0 10.119098,4.530515 10.119098,10.121815"
       inkscape:connector-curvature="0" />
    <path
       id="path11800"
       style="fill:#dbe7e5;fill-opacity:1;fill-rule:nonzero;stroke:none"
       d="m 31.323046,23.465744 c 0,2.594827 -2.104333,4.699154 -4.7046,4.699154 -2.592103,0 -4.69643,-2.104327 -4.69643,-4.699154 l 0,-6.875114 c 0,-2.59482 2.104327,-4.699153 4.69643,-4.699153 2.600267,0 4.7046,2.104333 4.7046,4.699153 l 0,6.875114"
       inkscape:connector-curvature="0" />
    <path
       id="path11802"
       style="fill:#90c5c7;fill-opacity:1;fill-rule:nonzero;stroke:none"
       d="m 28.156125,13.251451 c 0,0 -0.05079,0.566655 -1.386265,0.566655 -1.343653,0 -1.853192,-0.566655 -1.853192,-0.566655 l 0,-5.7853201 3.239457,0 0,5.7853201"
       inkscape:connector-curvature="0" />
    <path
       id="path11804"
       style="fill:#90c5c7;fill-opacity:1;fill-rule:nonzero;stroke:none"
       d="m 25.189573,7.0726479 c -0.588418,0 -1.069844,-0.478715 -1.069844,-1.068943 0,-0.590227 0.481426,-1.068937 1.069844,-1.068937 l 2.86591,0 c 0.588417,0 1.069845,0.47871 1.069845,1.068937 0,0.590228 -0.481428,1.068943 -1.069845,1.068943 l -2.86591,0"
       inkscape:connector-curvature="0" />
    <path
       id="path11806"
       style="fill:#a5dade;fill-opacity:1;fill-rule:nonzero;stroke:none"
       d="m 34.784624,7.3827199 c 0,0.79513 -0.582069,1.440662 -1.30013,1.440662 l -13.81006,0 c -0.718969,0 -1.300131,-0.645532 -1.300131,-1.440662 0,-0.795131 0.581162,-1.439761 1.300131,-1.439761 l 13.81006,0 c 0.718061,0 1.30013,0.64463 1.30013,1.439761"
       inkscape:connector-curvature="0" />
    <path
       id="path11808"
       style="fill:#6fbdcc;fill-opacity:1;fill-rule:nonzero;stroke:none"
       d="m 10.905337,37.792588 c 0,2.151479 -1.7235357,3.896749 -3.8496261,3.896749 -2.1260903,0 -3.8496261,-1.74527 -3.8496261,-3.896749 l 0,-18.307935 c 0,-2.151474 1.7235358,-3.894958 3.8496261,-3.894958 2.1260904,0 3.8496261,1.743484 3.8496261,3.894958 l 0,18.307935"
       inkscape:connector-curvature="0" />
    <path
       id="path11810"
       style="fill:#ffffff;fill-opacity:1;fill-rule:nonzero;stroke:none"
       d="m 53.535913,32.495956 c -1.386266,-3.696402 -3.540456,-6.00473 -8.316678,-6.467123 0,0 2.908523,1.757991 4.776222,2.924845 1.694521,1.060779 3.540456,3.542278 3.540456,3.542278"
       inkscape:connector-curvature="0" />
    <path
       id="path11812"
       style="fill:#ffffff;fill-opacity:1;fill-rule:nonzero;stroke:none"
       d="m 34.533483,24.995259 c -1.47965,-3.298387 -2.27659,-4.967526 -6.377358,-4.967526 0,0 3.396299,1.464236 3.985625,5.263091 0.315512,2.039053 2.391733,-0.295565 2.391733,-0.295565"
       inkscape:connector-curvature="0" />
    <path
       id="path11814"
       style="fill:#c8edee;fill-opacity:1;fill-rule:nonzero;stroke:none"
       d="m 50.389847,49.88815 c 0,0 -3.583075,6.475317 -3.583075,8.976734 0,1.983761 1.601142,3.589419 3.583075,3.591257 1.990092,0 3.591228,-1.607496 3.591228,-3.592176 0,-2.319175 -3.591228,-8.975815 -3.591228,-8.975815"
       inkscape:connector-curvature="0" />
    <path
       id="path11816"
       style="fill:#ffffff;fill-opacity:1;fill-rule:nonzero;stroke:none"
       d="m 50.074334,61.633807 c 2.384483,-0.04883 2.908524,-0.612916 3.152415,-3.154207 0,0 -0.652789,0.995443 -1.436136,1.862246 -0.710811,0.789643 -1.716279,1.291961 -1.716279,1.291961"
       inkscape:connector-curvature="0" />
  </g>
</svg>
