<?xml version="1.0" encoding="UTF-8" standalone="no"?>
<!-- Created with Inkscape (http://www.inkscape.org/) -->

<svg
   xmlns:dc="http://purl.org/dc/elements/1.1/"
   xmlns:cc="http://creativecommons.org/ns#"
   xmlns:rdf="http://www.w3.org/1999/02/22-rdf-syntax-ns#"
   xmlns:svg="http://www.w3.org/2000/svg"
   xmlns="http://www.w3.org/2000/svg"
   xmlns:sodipodi="http://sodipodi.sourceforge.net/DTD/sodipodi-0.dtd"
   xmlns:inkscape="http://www.inkscape.org/namespaces/inkscape"
   width="64px"
   height="64px"
   id="svg176173"
   version="1.1"
   inkscape:version="0.48.5 r10040"
   sodipodi:docname="Nowy dokument 46">
  <defs
     id="defs176175" />
  <sodipodi:namedview
     id="base"
     pagecolor="#ffffff"
     bordercolor="#666666"
     borderopacity="1.0"
     inkscape:pageopacity="0.0"
     inkscape:pageshadow="2"
     inkscape:zoom="5.5"
     inkscape:cx="32"
     inkscape:cy="32"
     inkscape:current-layer="layer1"
     showgrid="true"
     inkscape:document-units="px"
     inkscape:grid-bbox="true"
     inkscape:window-width="1366"
     inkscape:window-height="706"
     inkscape:window-x="-8"
     inkscape:window-y="-8"
     inkscape:window-maximized="1" />
  <metadata
     id="metadata176178">
    <rdf:RDF>
      <cc:Work
         rdf:about="">
        <dc:format>image/svg+xml</dc:format>
        <dc:type
           rdf:resource="http://purl.org/dc/dcmitype/StillImage" />
        <dc:title></dc:title>
      </cc:Work>
    </rdf:RDF>
  </metadata>
  <g
     id="layer1"
     inkscape:label="Layer 1"
     inkscape:groupmode="layer">
    <g
       id="g69065"
       transform="matrix(0.48307355,0,0,-0.48307355,6.2652066,36.207898)">
      <path
         inkscape:connector-curvature="0"
         d="m 0,0 c 0,1.639 4.225,2.966 9.438,2.966 5.21,0 9.435,-1.327 9.435,-2.966 0,-1.637 -4.225,-2.966 -9.435,-2.966 C 4.225,-2.966 0,-1.637 0,0"
         style="fill:#bad6ee;fill-opacity:1;fill-rule:nonzero;stroke:none"
         id="path69067" />
    </g>
    <g
       id="g69069"
       transform="matrix(0.48307355,0,0,-0.48307355,18.927492,36.139932)">
      <path
         inkscape:connector-curvature="0"
         d="m 0,0 c 0,0 -8.688,-0.28 -5.842,-2.161 2.847,-1.88 5.705,-2.015 5.705,-2.015 0,0 -4.753,-2.295 3.392,-2.97 8.142,-0.675 7.055,2.566 7.055,2.566 l 19.281,0.404 c 0,0 -3.131,-1.755 2.71,-2.295 5.841,-0.541 9.494,1.079 8.553,1.891 -0.942,0.809 -1.214,1.34 -1.214,1.34 l 9.64,-0.801 c 0,0 11.126,-4.32 16.696,-3.916 C 71.544,-7.552 65.42,-1.88 55.11,0.676 44.801,3.23 33.391,3.5 33.391,3.5 33.391,3.5 14.392,2.15 13.575,2.15 12.759,2.15 0,0 0,0"
         style="fill:#bad6ee;fill-opacity:1;fill-rule:evenodd;stroke:none"
         id="path69071" />
    </g>
    <g
       id="g69073"
       transform="matrix(0.48307355,0,0,-0.48307355,1.7490878,24.756595)">
      <path
         inkscape:connector-curvature="0"
         d="m 0,0 c -0.356,-1.414 -0.06,-2.887 0.712,-4.036 0.92,-1.472 2.672,-0.293 3.769,-1.325 1.217,-0.707 0.772,-2.327 2.226,-2.621 2.138,-0.206 3.918,1.531 5.907,0.707 0.711,-0.62 0.415,-1.797 1.484,-2.062 1.721,-0.059 4.245,1.532 5.194,-0.619 0.089,-0.942 -0.594,-2.179 0.594,-2.621 1.394,0.089 3.056,-0.117 3.828,-1.355 0.564,-1.531 -1.84,-3.18 0.445,-4.093 0.949,-0.206 1.93,-0.766 2.494,-1.709 0.356,-1.62 -1.396,-2.036 -1.366,-3.596 -0.356,-0.384 -13.474,-0.207 -13.474,-0.207 -0.624,3.622 -1.425,6.778 -5.046,9.047 -2.731,1.325 -5.284,3.092 -7.331,5.594 -1.722,2.445 -1.781,6.186 -0.297,8.749 C -0.564,-0.089 -0.298,0.382 0,0"
         style="fill:#000000;fill-opacity:1;fill-rule:nonzero;stroke:none"
         id="path69075" />
    </g>
    <g
       id="g69077"
       transform="matrix(0.48307355,0,0,-0.48307355,3.2973956,28.37066)">
      <path
         inkscape:connector-curvature="0"
         d="m 0,0 c 3.176,-1.738 6.647,-1.502 9.973,-2.916 4.006,-1.501 8.606,-4.388 9.913,-8.836 0.119,-1.531 0.652,-2.974 0.355,-4.595 -3.502,-1.059 -7.449,-1.383 -10.981,0 -0.206,4.066 -2.107,8.218 -5.758,10.338 -3.027,1.62 -7.123,3.977 -7.717,7.776 0.06,1.149 -0.444,2.416 0.149,3.446 C -3.621,3.093 -1.84,1.148 0,0"
         style="fill:#81ae37;fill-opacity:1;fill-rule:nonzero;stroke:none"
         id="path69079" />
    </g>
    <g
       id="g69081"
       transform="matrix(0.48307355,0,0,-0.48307355,3.2973956,28.37066)">
      <path
         inkscape:connector-curvature="0"
         d="m 0,0 c 3.176,-1.738 6.647,-1.502 9.973,-2.916 4.006,-1.501 8.606,-4.388 9.913,-8.836 0.119,-1.531 0.652,-2.974 0.355,-4.595 -0.767,-0.232 -1.557,-0.428 -2.359,-0.581 -0.481,3.354 -1.294,7.835 -2.319,8.824 -1.683,1.627 -3.419,2.628 -8.093,4.064 -4.672,1.436 -5.584,1.384 -7.321,3.105 -1.735,1.723 -2.892,2.394 -2.892,2.394 l 0,-0.384 c 0,0 0.868,-2.87 6.698,-5.402 4.292,-1.864 6.494,-8.111 7.357,-12.629 -0.696,0.145 -1.381,0.347 -2.052,0.609 -0.206,4.066 -2.107,8.218 -5.758,10.338 -3.027,1.62 -7.123,3.977 -7.717,7.776 0.06,1.149 -0.444,2.416 0.149,3.446 C -3.621,3.093 -1.84,1.148 0,0"
         style="fill:#6e9531;fill-opacity:1;fill-rule:nonzero;stroke:none"
         id="path69083" />
    </g>
    <g
       id="g69085"
       transform="matrix(0.48307355,0,0,-0.48307355,47.027803,28.925472)">
      <path
         inkscape:connector-curvature="0"
         d="M 0,0 C 0.89,0.912 2.107,1.502 3.501,1.148 4.393,0.972 5.372,0.441 5.787,-0.354 6.232,-1.031 5.729,-2.269 7.004,-2.269 7.39,-2.298 7.836,-2.386 8.072,-2.739 7.39,-3.063 6.707,-2.533 6.054,-2.386 5.609,-3.476 5.372,-4.86 4.154,-5.448 c 0.684,-0.384 1.514,-0.443 2.198,-0.914 3.175,-0.443 6.766,-0.972 9.972,-0.353 2.285,3.622 6.499,4.772 10.477,4.446 1.81,-0.381 3.948,-1 4.689,-2.944 0.031,-0.501 1.262,-3.082 -4.631,-6.45 -0.177,-2.121 -0.771,-4.566 -2.759,-5.713 -0.593,-0.089 -1.038,0.059 -1.158,0.706 -0.147,0.972 -0.207,2.002 -0.771,2.827 -1.811,0.266 -1.87,-1.798 -2.85,-2.768 0.416,-0.765 0.09,-2.445 1.485,-2.475 0.326,-0.059 0.504,-0.441 0.652,-0.707 -0.148,-1.943 -5.951,-6.38 -11.13,-4.093 l -1.78,1.561 c -2.998,0.412 -6.471,0.471 -9.261,1.825 -2.641,0.62 -5.046,1.768 -7.331,3.183 -0.208,-0.265 -11.249,-0.059 -11.249,-0.059 -0.386,-1.031 -0.563,-1.216 -1.78,-1.717 -1.425,-0.471 -3.295,-0.53 -4.482,0.411 -0.594,0.707 -0.624,0.509 -0.801,1.365 -7.272,-0.178 -15.227,0.057 -22.854,0.088 0,-1.533 -0.356,-1.688 -1.722,-2.512 -1.899,-1.001 -4.392,-0.324 -5.965,0.795 -0.149,1.149 0.177,1.186 0.267,2.335 -1.871,-0.148 -5.344,0.647 -5.344,0.647 0.594,1.857 3.73,6.235 8.698,7.069 1.127,1.177 2.344,2.032 3.71,2.74 1.424,-0.089 2.314,-2.828 3.858,-1.415 0.771,0.855 1.454,2.71 2.849,2.268 l 2.047,-1.561 0.446,0 c 1.426,1.355 2.731,3.24 4.75,2.916 1.097,-0.677 1.631,-2.267 3.086,-2.12 1.097,0.971 1.929,2.71 3.621,2.326 1.275,-0.647 1.691,-2.651 3.205,-2.974 1.069,0.913 1.781,2.68 3.414,2.414 1.039,-0.501 1.869,-2.002 3.205,-1.413 0.86,0.943 0.564,2.386 1.632,3.239 0.595,0.532 1.455,0.561 2.226,0.443 1.396,2.444 4.215,4.034 7.124,3.534 C -7.45,1.148 -6.679,1.06 -6.115,0.5 -5.076,1.619 -3.622,2.621 -2.048,1.973 -1.158,1.561 -0.327,0.912 0,0"
         style="fill:#000000;fill-opacity:1;fill-rule:nonzero;stroke:none"
         id="path69087" />
    </g>
    <g
       id="g69089"
       transform="matrix(0.48307355,0,0,-0.48307355,43.902007,28.854217)">
      <path
         inkscape:connector-curvature="0"
         d="M 0,0 C -0.179,-0.53 -0.237,-1.267 -0.505,-1.826 -1.276,-2.091 -2.107,-2.149 -2.79,-2.622 l 2.374,0.206 c 0.179,-1.531 1.247,-3.18 2.85,-3.652 l 1.336,0.06 c 1.305,-1.62 9.826,-6.497 20.153,-5.096 0.474,-0.236 1.008,-0.766 1.572,-0.354 -0.058,0.442 -6.552,4.261 3.206,7.923 2.108,0.707 4.957,0.56 6.915,-0.412 4.764,-2.868 -2.653,-8.175 -7.687,-9.484 -8.429,-1.678 -18.134,-0.589 -25.732,2.68 -8.547,4.51 -6.59,6.392 -6.412,6.922 0.624,0.177 1.573,-0.973 1.722,0.146 -0.713,0.62 -1.692,0.885 -2.701,0.855 -0.712,0.03 -2.582,-1.09 -2.226,-1.413 0.736,0.628 1.959,0.853 2.732,0.647 -1.278,-2.65 2.165,-4.034 1.275,-6.597 0.03,-0.413 0.505,-0.413 0.771,-0.619 0.356,-0.087 0.623,0.089 0.861,0.266 l 1.484,-1.62 c -0.178,-0.56 0,-1.179 0.505,-1.473 1.365,0.678 2.166,-1.237 3.354,-1.709 0.088,-0.5 0.208,-1.295 0.919,-1.413 l 1.366,0.294 c 3.028,-1.708 6.47,-2.473 10.032,-2.915 0.505,0.059 1.128,-0.56 1.722,-0.118 2.551,-0.442 4.896,-0.089 7.479,-0.089 0.652,-0.265 1.514,0 2.047,-0.559 -0.593,-1.708 -2.463,-2.268 -3.828,-2.974 -1.87,-0.59 -4.422,-1.356 -6.203,-0.148 -1.87,2.621 -5.164,1.326 -7.776,2.269 -12.294,2.901 -15.375,8.363 -16.799,10.337 0,0 1.516,-4.47 4.125,-6.244 -2.224,-0.235 -9.528,0.089 -9.528,0.089 -0.058,1.237 0.119,2.562 -0.147,3.74 -0.089,0.177 -0.861,-5.713 -0.861,-5.713 -0.327,-0.708 -1.069,-1.032 -1.721,-1.209 -1.129,0 -2.583,-0.206 -3.326,0.766 0,3.329 -0.592,7.805 3.058,9.278 1.514,0.176 2.434,-1.297 3.472,-2.209 0.475,0.266 -2.018,3.122 -3.472,2.975 -3.139,-0.305 -4.103,-5.178 -4.007,-7.481 -0.208,-0.059 -21.459,-0.147 -22.795,-0.089 0,1.119 0.061,2.356 -0.058,3.328 -0.149,0.06 -0.654,-3.298 -0.921,-4.948 -0.029,-0.707 -0.148,-1.648 -1.009,-1.973 -1.455,-0.883 -3.353,-0.502 -4.778,0.206 l -0.267,0.413 c 0.088,3.328 1.276,6.243 2.76,8.982 0.444,0.56 0.979,1.091 1.662,1.267 2.672,0.087 3.591,-3.593 4.125,-3.887 0.445,0.735 -1.721,3.74 -2.582,4.24 4.305,0.118 9.527,-0.736 13.416,1.296 4.808,2.415 9.735,-1.06 14.869,0 2.108,0.089 3.8,1.09 5.64,1.827 0.178,-0.502 -0.416,-1.208 0.208,-1.415 C -8.805,1.693 -2.227,1.384 0,0"
         style="fill:#6e9531;fill-opacity:1;fill-rule:nonzero;stroke:none"
         id="path69091" />
    </g>
    <g
       id="g69093"
       transform="matrix(0.48307355,0,0,-0.48307355,26.430668,34.802545)">
      <path
         inkscape:connector-curvature="0"
         d="m 0,0 c 0,1.821 3.73,3.297 8.334,3.297 4.602,0 8.332,-1.476 8.332,-3.297 0,-1.82 -3.73,-3.298 -8.332,-3.298 C 3.73,-3.298 0,-1.82 0,0"
         style="fill:#81ae37;fill-opacity:1;fill-rule:nonzero;stroke:none"
         id="path69095" />
    </g>
    <g
       id="g69097"
       transform="matrix(0.48307355,0,0,-0.48307355,36.938909,38.24681)">
      <path
         inkscape:connector-curvature="0"
         d="m 0,0 c -0.354,-0.279 -0.793,-0.446 -1.197,-0.556 -0.652,0 -1.411,-0.068 -2.081,0.061 0.234,2.067 0.228,3.429 0.868,5.551 0.241,0.79 0.386,1.77 1.229,1.77 0.746,0 0.578,-1.052 0.746,-1.77 C -0.12,3.837 0,3.095 0,1.827 L 0,0 z m -29.703,-0.522 c -0.138,-0.164 -0.318,-0.298 -0.552,-0.386 -1.336,-0.812 -3.047,-0.556 -4.42,0.039 0.27,1.245 0.787,2.297 1.434,3.724 0.602,1.364 0.916,2.177 1.663,3.493 0.433,0.765 0.458,1.818 1.349,1.818 1.109,0 0.869,-1.603 0.869,-2.703 0,-2.058 -0.289,-3.229 -0.289,-5.286 0,-0.262 -0.03,-0.487 -0.054,-0.699"
         style="fill:#81ae37;fill-opacity:1;fill-rule:nonzero;stroke:none"
         id="path69099" />
    </g>
    <g
       id="g69101"
       transform="matrix(0.48307355,0,0,-0.48307355,48.52278,37.583986)">
      <path
         inkscape:connector-curvature="0"
         d="m 0,0 c 2.016,-0.649 4.143,-1.039 6.313,-1.309 0.505,0.059 1.128,-0.56 1.722,-0.118 2.552,-0.442 4.897,-0.089 7.48,-0.089 0.652,-0.264 1.513,0 2.047,-0.559 -0.593,-1.708 -2.463,-2.268 -3.829,-2.974 -1.87,-0.59 -4.421,-1.355 -6.203,-0.147 l -0.161,0.213 c 1.259,0.112 2.618,0.473 3.07,1.468 0.913,2.008 -2.507,0.382 -6.023,1.53 C 2.775,-1.449 1.206,-0.674 0,0 m -9.565,18.071 c -0.179,-0.53 -0.238,-1.266 -0.505,-1.826 -0.702,-0.241 -1.452,-0.311 -2.096,-0.677 l 0.108,-0.057 2.077,0.144 c 0.178,-1.531 1.247,-3.179 2.849,-3.652 l 1.336,0.06 C -4.49,10.443 4.03,5.566 14.357,6.967 14.832,6.731 15.365,6.201 15.93,6.613 c -0.059,0.443 -6.552,4.261 3.206,7.923 2.107,0.707 4.957,0.561 6.915,-0.412 1.332,-0.801 1.712,-1.794 1.457,-2.836 C 22.857,8.502 13.832,4.127 4.994,5.663 c -12.668,2.2 -15.131,4.784 -16.14,6.263 -0.998,1.465 0.879,2.603 -0.855,3.554 l -0.165,0.088 c -1.719,0.907 -1.623,1.08 -3.556,0.613 -0.854,-0.208 -1.466,-0.209 -1.915,-0.311 2.3,3.671 6.405,3.237 8.072,2.201"
         style="fill:#81ae37;fill-opacity:1;fill-rule:nonzero;stroke:none"
         id="path69103" />
    </g>
    <g
       id="g69105"
       transform="matrix(0.48307355,0,0,-0.48307355,56.158085,34.425601)">
      <path
         inkscape:connector-curvature="0"
         d="M 0,0 C 0.041,0.021 0.083,0.045 0.124,0.075 0.065,0.518 -6.428,4.336 3.33,7.998 5.438,8.705 8.287,8.559 10.245,7.586 14.449,5.056 9.167,0.625 4.408,-1.28 2.764,-1.111 1.256,-0.66 0,0"
         style="fill:#f5d75c;fill-opacity:1;fill-rule:nonzero;stroke:none"
         id="path69107" />
    </g>
    <g
       id="g69109"
       transform="matrix(0.48307355,0,0,-0.48307355,57.148773,31.973907)">
      <path
         inkscape:connector-curvature="0"
         d="M 0,0 C 0,1.519 2.07,2.75 4.625,2.75 7.179,2.75 9.25,1.519 9.25,0 9.25,-1.519 7.179,-2.749 4.625,-2.749 2.07,-2.749 0,-1.519 0,0"
         style="fill:#fbea98;fill-opacity:1;fill-rule:nonzero;stroke:none"
         id="path69111" />
    </g>
    <g
       id="g69113"
       transform="matrix(0.48307355,0,0,-0.48307355,59.406079,31.257797)">
      <path
         inkscape:connector-curvature="0"
         d="M 0,0 C 0,0.594 0.679,1.075 1.517,1.075 2.354,1.075 3.033,0.594 3.033,0 3.033,-0.593 2.354,-1.074 1.517,-1.074 0.679,-1.074 0,-0.593 0,0"
         style="fill:#ffffff;fill-opacity:1;fill-rule:nonzero;stroke:none"
         id="path69115" />
    </g>
    <g
       id="g69117"
       transform="matrix(0.48307355,0,0,-0.48307355,46.826381,29.878867)">
      <path
         inkscape:connector-curvature="0"
         d="m 0,0 c -0.622,-1.295 -0.55,-2.545 -2.849,-3.328 -2.374,0.209 -2.967,2.592 -2.908,3.122 C -4.064,-0.028 -1.898,0.03 0,0"
         style="fill:#ffffff;fill-opacity:1;fill-rule:nonzero;stroke:none"
         id="path69119" />
    </g>
    <g
       id="g69121"
       transform="matrix(0.48307355,0,0,-0.48307355,49.579977,30.04963)">
      <path
         inkscape:connector-curvature="0"
         d="m 0,0 c -0.179,-1.09 -0.684,-2.238 -1.782,-2.769 -0.445,0.119 -0.593,-0.264 -1.008,0.148 -0.95,0.265 -2.019,1.148 -2.256,2.121 0,0.294 -0.237,0.677 0.059,0.913 C -3.146,0.501 -1.663,0.354 0,0"
         style="fill:#ffffff;fill-opacity:1;fill-rule:nonzero;stroke:none"
         id="path69123" />
    </g>
    <g
       id="g69125"
       transform="matrix(0.48307355,0,0,-0.48307355,39.457152,30.248708)">
      <path
         inkscape:connector-curvature="0"
         d="M 0,0 C -0.118,-0.707 -0.237,-1.648 -0.563,-2.356 L -2.404,-3.182 C -1.841,-2.18 -2.048,0.265 0,0"
         style="fill:#ccae42;fill-opacity:1;fill-rule:nonzero;stroke:none"
         id="path69127" />
    </g>
    <g
       id="g69129"
       transform="matrix(0.48307355,0,0,-0.48307355,33.922558,32.269211)">
      <path
         inkscape:connector-curvature="0"
         d="m 0,0 -4.422,0.708 c 0.504,0.824 1.247,1.618 2.226,1.826 C -1.127,1.974 -1.009,0.736 0,0"
         style="fill:#ccae42;fill-opacity:1;fill-rule:nonzero;stroke:none"
         id="path69131" />
    </g>
    <g
       id="g69133"
       transform="matrix(0.48307355,0,0,-0.48307355,30.452854,31.99893)">
      <path
         inkscape:connector-curvature="0"
         d="m 0,0 c -3.768,-0.825 -7.242,-2.738 -11.486,-2.032 1.216,0.353 1.396,1.709 2.345,2.386 1.246,-0.443 2.612,-2.739 4.006,-1.06 1.099,1.001 1.959,2.503 3.563,2.326 L 0,0 z"
         style="fill:#ccae42;fill-opacity:1;fill-rule:nonzero;stroke:none"
         id="path69135" />
    </g>
    <g
       id="g69137"
       transform="matrix(0.48307355,0,0,-0.48307355,37.435702,32.12675)">
      <path
         inkscape:connector-curvature="0"
         d="m 0,0 c -1.691,-0.206 -3.294,-0.796 -5.076,-0.59 0.594,0.766 1.129,1.68 2.019,2.209 C -1.899,1.443 -1.307,-0.147 0,0"
         style="fill:#ccae42;fill-opacity:1;fill-rule:nonzero;stroke:none"
         id="path69139" />
    </g>
    <g
       id="g69141"
       transform="matrix(0.48307355,0,0,-0.48307355,60.79165,31.856473)">
      <path
         inkscape:connector-curvature="0"
         d="M 0,0 C 0.179,-0.471 0.03,-0.972 -0.355,-1.267 -0.741,-1.413 -1.068,-1.413 -1.425,-1.208 -1.84,-0.913 -1.929,-0.295 -1.78,0.207 -1.425,0.913 -0.296,0.678 0,0"
         style="fill:#000000;fill-opacity:1;fill-rule:nonzero;stroke:none"
         id="path69143" />
    </g>
    <g
       id="g69145"
       transform="matrix(0.48307355,0,0,-0.48307355,60.562364,31.955981)">
      <path
         inkscape:connector-curvature="0"
         d="M 0,0 C -0.089,-0.265 -0.089,-0.648 -0.445,-0.648 -0.683,-0.737 -0.83,-0.412 -0.861,-0.236 -0.95,0.06 -0.771,0.266 -0.594,0.413 -0.326,0.413 -0.029,0.266 0,0"
         style="fill:#af973b;fill-opacity:1;fill-rule:nonzero;stroke:none"
         id="path69147" />
    </g>
    <g
       id="g69149"
       transform="matrix(0.48307355,0,0,-0.48307355,57.351162,32.368771)">
      <path
         inkscape:connector-curvature="0"
         d="m 0,0 c 0.178,-0.707 0.088,-1.502 -0.476,-1.973 -0.416,-0.353 -1.157,-0.206 -1.662,-0.147 -0.474,0.206 -0.564,0.707 -0.712,1.119 0,0.883 0.446,1.708 1.306,2.062 C -0.802,1.12 -0.09,0.766 0,0"
         style="fill:#000000;fill-opacity:1;fill-rule:nonzero;stroke:none"
         id="path69151" />
    </g>
    <g
       id="g69153"
       transform="matrix(0.48307355,0,0,-0.48307355,57.121412,32.539055)">
      <path
         inkscape:connector-curvature="0"
         d="m 0,0 c 0,-0.648 -0.238,-1.179 -0.86,-1.355 -0.476,-0.088 -0.921,0.176 -0.921,0.647 0.148,0.59 -0.118,1.178 0.474,1.562 0.386,-0.088 0.624,0.147 1.01,0.058 L 0,0 z"
         style="fill:#af973b;fill-opacity:1;fill-rule:nonzero;stroke:none"
         id="path69155" />
    </g>
    <g
       id="g69157"
       transform="matrix(0.48307355,0,0,-0.48307355,23.915323,32.923532)">
      <path
         inkscape:connector-curvature="0"
         d="m 0,0 c -1.365,-0.118 -2.85,0.059 -4.066,-0.412 0.563,1.03 1.632,1.148 2.404,1.825 C -1.217,1.001 -0.506,0.5 0,0"
         style="fill:#ccae42;fill-opacity:1;fill-rule:nonzero;stroke:none"
         id="path69159" />
    </g>
    <g
       id="g69161"
       transform="matrix(0.48307355,0,0,-0.48307355,11.484682,32.881118)">
      <path
         inkscape:connector-curvature="0"
         d="m 0,0 c 0.029,-0.5 0,-0.735 -0.209,-1.148 -0.385,-0.176 -0.83,-0.383 -1.275,-0.206 -0.565,0.324 -0.624,0.913 -0.504,1.414 0.265,0.382 0.533,0.648 1.008,0.706 C -0.416,0.942 -0.209,0.354 0,0"
         style="fill:#c9d139;fill-opacity:1;fill-rule:nonzero;stroke:none"
         id="path69163" />
    </g>
    <g
       id="g69165"
       transform="matrix(0.48307355,0,0,-0.48307355,11.355411,32.980631)">
      <path
         inkscape:connector-curvature="0"
         d="m 0,0 c -0.09,-0.353 -0.119,-0.854 -0.594,-0.854 -0.445,-0.176 -0.802,0.236 -0.921,0.56 -0.147,0.56 0.327,0.795 0.802,1.001 C -0.297,0.736 0.029,0.441 0,0"
         style="fill:#6e9531;fill-opacity:1;fill-rule:nonzero;stroke:none"
         id="path69167" />
    </g>
    <g
       id="g69169"
       transform="matrix(0.48307355,0,0,-0.48307355,30.897708,33.364628)">
      <path
         inkscape:connector-curvature="0"
         d="m 0,0 c -0.06,-0.56 -0.712,-0.913 -1.158,-1.061 -0.238,0.031 -0.475,0.207 -0.564,0.443 -0.119,0.412 -0.119,0.972 0.297,1.266 C -0.89,0.913 0.089,0.824 0,0"
         style="fill:#c9d139;fill-opacity:1;fill-rule:nonzero;stroke:none"
         id="path69171" />
    </g>
    <g
       id="g69173"
       transform="matrix(0.48307355,0,0,-0.48307355,30.682604,33.122654)">
      <path
         inkscape:connector-curvature="0"
         d="m 0,0 c 0.089,-0.324 0.118,-0.53 0,-0.854 -0.267,-0.177 -0.564,-0.501 -0.921,-0.265 -0.267,0.265 -0.118,0.707 0,0.972 C -0.564,0.029 -0.386,0.147 0,0"
         style="fill:#6e9531;fill-opacity:1;fill-rule:nonzero;stroke:none"
         id="path69175" />
    </g>
    <g
       id="g69177"
       transform="matrix(0.48307355,0,0,-0.48307355,29.549893,33.97649)">
      <path
         inkscape:connector-curvature="0"
         d="m 0,0 c 0,-0.824 0.059,-1.648 -0.416,-2.268 -0.711,-0.619 -1.514,-1.295 -2.582,-0.913 -0.533,0.294 -1.395,0.354 -1.543,1.119 -0.119,0.795 -0.208,1.797 0.355,2.416 0.713,0.765 1.782,1.031 2.762,1.001 C -0.832,1.091 -0.179,0.678 0,0"
         style="fill:#c9d139;fill-opacity:1;fill-rule:nonzero;stroke:none"
         id="path69179" />
    </g>
    <g
       id="g69181"
       transform="matrix(0.48307355,0,0,-0.48307355,29.420662,33.97649)">
      <path
         inkscape:connector-curvature="0"
         d="m 0,0 c 0.03,-0.854 -0.029,-1.648 -0.504,-2.268 -0.683,-0.413 -1.455,-0.942 -2.226,-0.559 -0.386,0.059 -0.95,0.383 -1.127,0.765 -0.208,0.678 -0.208,1.326 0,2.003 0.593,0.913 1.661,1.178 2.641,1.12 C -0.712,0.824 -0.297,0.53 0,0"
         style="fill:#6e9531;fill-opacity:1;fill-rule:nonzero;stroke:none"
         id="path69183" />
    </g>
    <g
       id="g69185"
       transform="matrix(0.48307355,0,0,-0.48307355,10.896374,34.118514)">
      <path
         inkscape:connector-curvature="0"
         d="m 0,0 c 0.089,-0.53 0.179,-1.179 -0.06,-1.768 -0.652,-0.736 -1.602,-1.001 -2.552,-0.765 -0.385,0.383 -1.008,0.559 -1.069,1.207 -0.147,0.59 -0.147,0.972 0.061,1.68 C -2.909,1.679 -0.534,1.62 0,0"
         style="fill:#c9d139;fill-opacity:1;fill-rule:nonzero;stroke:none"
         id="path69187" />
    </g>
    <g
       id="g69189"
       transform="matrix(0.48307355,0,0,-0.48307355,21.190904,33.606647)">
      <path
         inkscape:connector-curvature="0"
         d="m 0,0 c -1.633,-1.796 -2.315,-4.005 -2.997,-6.214 -1.752,-0.118 -3.236,0.206 -4.691,0.295 0.773,1.561 2.138,2.974 3.473,4.24 C -2.938,-0.795 -1.543,-0.206 0,0"
         style="fill:#6e9531;fill-opacity:1;fill-rule:nonzero;stroke:none"
         id="path69191" />
    </g>
    <g
       id="g69193"
       transform="matrix(0.48307355,0,0,-0.48307355,10.839295,34.218509)">
      <path
         inkscape:connector-curvature="0"
         d="m 0,0 c -0.06,-0.794 -0.09,-1.854 -1.068,-2.032 -0.92,-0.148 -1.693,0.089 -2.227,0.913 -0.207,0.413 -0.207,1.119 0,1.561 0.326,0.354 0.772,0.737 1.276,0.766 C -1.247,0.825 -0.416,0.973 0,0"
         style="fill:#6e9531;fill-opacity:1;fill-rule:nonzero;stroke:none"
         id="path69195" />
    </g>
    <g
       id="g69197"
       transform="matrix(0.48307355,0,0,-0.48307355,44.045421,33.97649)">
      <path
         inkscape:connector-curvature="0"
         d="m 0,0 -0.297,-0.707 c -0.445,0.118 -0.95,0.619 -1.068,1.061 C -0.921,0.854 -0.445,0.206 0,0"
         style="fill:#dce8eb;fill-opacity:1;fill-rule:nonzero;stroke:none"
         id="path69199" />
    </g>
    <g
       id="g69201"
       transform="matrix(0.48307355,0,0,-0.48307355,12.04319,34.289761)">
      <path
         inkscape:connector-curvature="0"
         d="m 0,0 c 0.149,-0.382 0.327,-1 -0.147,-1.413 -0.239,-0.059 -0.505,-0.206 -0.713,-0.059 -0.505,0.325 -0.446,0.913 -0.446,1.355 0.208,0.353 0.624,0.471 1.07,0.412 C -0.147,0.206 -0.029,0.147 0,0"
         style="fill:#c9d139;fill-opacity:1;fill-rule:nonzero;stroke:none"
         id="path69203" />
    </g>
    <g
       id="g69205"
       transform="matrix(0.48307355,0,0,-0.48307355,11.971929,34.58835)">
      <path
         inkscape:connector-curvature="0"
         d="m 0,0 c 0.089,-0.294 -0.148,-0.56 -0.356,-0.56 -0.268,-0.029 -0.357,0.266 -0.505,0.413 -0.06,0.353 0,0.913 0.505,0.765 C -0.03,0.59 -0.148,0.206 0,0"
         style="fill:#6e9531;fill-opacity:1;fill-rule:nonzero;stroke:none"
         id="path69207" />
    </g>
    <g
       id="g69209"
       transform="matrix(0.48307355,0,0,-0.48307355,45.765897,35.882841)">
      <path
         inkscape:connector-curvature="0"
         d="m 0,0 c -0.683,0.177 -1.246,0.707 -1.781,1.179 0.921,0.117 1.633,1.384 2.612,0.794 L 0,0 z"
         style="fill:#dce8eb;fill-opacity:1;fill-rule:nonzero;stroke:none"
         id="path69211" />
    </g>
    <g
       id="g69213"
       transform="matrix(0.48307355,0,0,-0.48307355,22.151912,35.513001)">
      <path
         inkscape:connector-curvature="0"
         d="m 0,0 c 0.207,-0.53 0.296,-1.207 -0.416,-1.413 -0.416,-0.266 -1.039,-0.413 -1.514,-0.149 -0.505,0.325 -0.653,0.884 -0.564,1.356 -0.119,0.53 0.416,0.884 0.713,1.207 C -0.95,1.385 -0.387,0.56 0,0"
         style="fill:#c9d139;fill-opacity:1;fill-rule:nonzero;stroke:none"
         id="path69215" />
    </g>
    <g
       id="g69217"
       transform="matrix(0.48307355,0,0,-0.48307355,31.313305,35.029442)">
      <path
         inkscape:connector-curvature="0"
         d="M 0,0 C 0.119,-0.294 0.683,-0.883 0.268,-1.354 -0.029,-1.502 -0.386,-1.648 -0.713,-1.502 -1.188,-1.207 -1.039,-0.766 -0.86,-0.354 -0.682,-0.029 -0.297,-0.146 0,0"
         style="fill:#c9d139;fill-opacity:1;fill-rule:nonzero;stroke:none"
         id="path69219" />
    </g>
    <g
       id="g69221"
       transform="matrix(0.48307355,0,0,-0.48307355,36.40347,35.513001)">
      <path
         inkscape:connector-curvature="0"
         d="M 0,0 C -0.06,-0.441 -0.445,-0.678 -0.802,-0.854 -1.128,-0.825 -1.484,-0.913 -1.633,-0.56 -1.87,0 -1.573,0.647 -1.01,0.854 -0.386,1.001 -0.238,0.413 0,0"
         style="fill:#c9d139;fill-opacity:1;fill-rule:nonzero;stroke:none"
         id="path69223" />
    </g>
    <g
       id="g69225"
       transform="matrix(0.48307355,0,0,-0.48307355,22.050929,35.584255)">
      <path
         inkscape:connector-curvature="0"
         d="M 0,0 C 0.119,-0.206 0.06,-0.5 0.06,-0.766 -0.386,-1.237 -1.068,-1.354 -1.632,-1.06 -1.959,-0.678 -2.195,-0.147 -1.988,0.354 -1.454,1.179 -0.445,0.825 0,0"
         style="fill:#6e9531;fill-opacity:1;fill-rule:nonzero;stroke:none"
         id="path69227" />
    </g>
    <g
       id="g69229"
       transform="matrix(0.48307355,0,0,-0.48307355,31.370887,35.370975)">
      <path
         inkscape:connector-curvature="0"
         d="M 0,0 C 0.089,-0.412 -0.238,-0.529 -0.475,-0.647 -0.891,-0.618 -0.891,-0.088 -0.771,0.206 -0.505,0.354 -0.09,0.266 0,0"
         style="fill:#6e9531;fill-opacity:1;fill-rule:nonzero;stroke:none"
         id="path69231" />
    </g>
    <g
       id="g69233"
       transform="matrix(0.48307355,0,0,-0.48307355,36.231303,35.41344)">
      <path
         inkscape:connector-curvature="0"
         d="m 0,0 c 0.118,-0.471 -0.326,-0.677 -0.653,-0.766 -0.178,0.059 -0.386,0.148 -0.416,0.354 0.03,0.324 0.119,0.795 0.564,0.766 C -0.238,0.324 -0.207,0.177 0,0"
         style="fill:#6e9531;fill-opacity:1;fill-rule:nonzero;stroke:none"
         id="path69235" />
    </g>
    <g
       id="g69237"
       transform="matrix(0.48307355,0,0,-0.48307355,48.619007,37.248587)">
      <path
         inkscape:connector-curvature="0"
         d="m 0,0 c -1.157,0.177 -2.256,0.677 -3.206,1.177 0.742,0.708 1.811,1.65 2.762,2.357 L 0.356,3.298 0,0 z"
         style="fill:#dce8eb;fill-opacity:1;fill-rule:nonzero;stroke:none"
         id="path69239" />
    </g>
    <g
       id="g69241"
       transform="matrix(0.48307355,0,0,-0.48307355,51.61561,37.832139)">
      <path
         inkscape:connector-curvature="0"
         d="m 0,0 c -1.455,-0.03 -2.938,0.089 -4.363,0.561 l 0,0.146 c 1.276,0.501 2.196,1.856 3.354,2.681 -0.119,0.765 0.861,0.352 1.217,0.294 L 0,0 z"
         style="fill:#dce8eb;fill-opacity:1;fill-rule:nonzero;stroke:none"
         id="path69243" />
    </g>
    <g
       id="g69245"
       transform="matrix(0.48307355,0,0,-0.48307355,54.196537,38.045851)">
      <path
         inkscape:connector-curvature="0"
         d="m 0,0 -2.642,0.089 c 0.468,0.361 2.315,1.914 2.76,3.24 C -0.029,2.269 -0.178,1.12 0,0"
         style="fill:#dce8eb;fill-opacity:1;fill-rule:nonzero;stroke:none"
         id="path69247" />
    </g>
    <g
       id="g69249"
       transform="matrix(0.48307355,0,0,-0.48307355,55.501415,37.931219)">
      <path
         inkscape:connector-curvature="0"
         d="M 0,0 1.127,1.119 1.632,-0.148 0,0 z"
         style="fill:#dce8eb;fill-opacity:1;fill-rule:nonzero;stroke:none"
         id="path69251" />
    </g>
    <g
       id="g69253"
       transform="matrix(0.48307355,0,0,-0.48307355,47.486335,31.315817)">
      <path
         inkscape:connector-curvature="0"
         d="m 0,0 c -1.009,-0.118 -1.751,-0.766 -2.493,-1.414 -0.326,0.236 -0.594,0.413 -0.712,0.795 1.009,0.207 1.424,1.414 2.137,1.973 L 0,0 z M 3.057,-1.266 C 2.077,-1.649 1.188,-2.18 0.564,-2.975 c -0.98,0.265 -1.84,0.855 -2.702,1.355 0.654,0.501 1.367,1.236 2.257,1.355 0.89,-0.53 2.018,-0.53 2.938,-1.001 m 4.126,-1.12 c -0.98,-0.501 -2.434,-2.12 -2.434,-2.12 -1.306,0.265 -2.493,0.824 -3.77,1.266 0.386,0.942 1.485,1.414 2.434,1.678 1.188,-0.175 2.404,-0.765 3.77,-0.824 m 5.194,-0.353 c -1.93,-0.354 -1.068,-3.446 -3.206,-2.709 -1.306,0.206 -2.553,0.47 -3.769,0.853 0.327,1.149 1.573,1.825 2.641,2.12 l 4.334,-0.264 z m 2.7,0.117 c -0.266,-1.236 0.357,-2.091 1.01,-2.944 -0.653,-0.236 -4.986,0.029 -5.283,0 0.266,1.149 1.068,2.296 2.226,2.827 0.623,0.147 1.424,-0.031 2.047,0.117"
         style="fill:#ccae42;fill-opacity:1;fill-rule:evenodd;stroke:none"
         id="path69255" />
    </g>
    <g
       id="g69257"
       transform="matrix(0.48307355,0,0,-0.48307355,47.486335,31.315817)">
      <path
         inkscape:connector-curvature="0"
         d="M 0,0 C -0.312,-0.036 -0.599,-0.123 -0.867,-0.245 -1.173,0.109 -1.4,0.479 -1.545,0.86 c 0.15,0.188 0.305,0.36 0.477,0.494 L 0,0 z M 3.057,-1.266 C 2.519,-1.477 2.008,-1.731 1.552,-2.051 c -0.895,0.468 -1.631,0.988 -2.178,1.542 0.235,0.121 0.482,0.209 0.745,0.244 0.89,-0.53 2.018,-0.53 2.938,-1.001 m 4.126,-1.12 c -0.466,-0.238 -1.04,-0.729 -1.514,-1.179 -1.437,0.369 -2.717,0.825 -3.791,1.35 0.464,0.307 1.021,0.511 1.535,0.653 1.188,-0.175 2.404,-0.765 3.77,-0.824 m 5.194,-0.353 c -0.935,-0.17 -1.215,-0.986 -1.498,-1.695 -1.767,0.158 -3.425,0.43 -4.921,0.796 0.546,0.585 1.356,0.963 2.085,1.163 l 4.334,-0.264 z m 2.7,0.117 c -0.166,-0.77 0.014,-1.391 0.329,-1.956 -0.32,-0.008 -0.642,-0.013 -0.968,-0.013 -1.097,0 -2.171,0.044 -3.209,0.127 0.403,0.73 1.02,1.367 1.801,1.725 0.623,0.147 1.424,-0.031 2.047,0.117"
         style="fill:#f5d75c;fill-opacity:1;fill-rule:nonzero;stroke:none"
         id="path69259" />
    </g>
    <g
       id="g69261"
       transform="matrix(0.48307355,0,0,-0.48307355,45.91824,31.279007)">
      <path
         inkscape:connector-curvature="0"
         d="M 0,0 C -0.267,-0.154 -0.584,-0.299 -0.969,-0.43 -3.343,-0.221 -3.937,2.162 -3.877,2.692 -3.14,2.77 -2.312,2.823 -1.455,2.858 -1.37,1.683 -0.816,0.654 0,0"
         style="fill:#dce8eb;fill-opacity:1;fill-rule:nonzero;stroke:none"
         id="path69263" />
    </g>
    <g
       id="g69265"
       transform="matrix(0.48307355,0,0,-0.48307355,48.868119,31.303064)">
      <path
         inkscape:connector-curvature="0"
         d="m 0,0 c -0.097,-0.063 -0.199,-0.121 -0.309,-0.174 -0.444,0.118 -0.592,-0.264 -1.007,0.148 -0.951,0.264 -2.019,1.148 -2.256,2.121 0,0.294 -0.238,0.676 0.058,0.913 0.634,0.029 1.226,0.032 1.796,0.008 C -1.734,2.896 -1.743,2.775 -1.743,2.652 -1.743,1.54 -1.048,0.563 0,0"
         style="fill:#dce8eb;fill-opacity:1;fill-rule:nonzero;stroke:none"
         id="path69267" />
    </g>
    <g
       id="g69269"
       transform="matrix(0.48307355,0,0,-0.48307355,44.536496,30.137407)">
      <path
         inkscape:connector-curvature="0"
         d="M 0,0 C 0,0.792 0.647,1.436 1.446,1.436 2.244,1.436 2.892,0.792 2.892,0 2.892,-0.793 2.244,-1.436 1.446,-1.436 0.647,-1.436 0,-0.793 0,0"
         style="fill:#000000;fill-opacity:1;fill-rule:nonzero;stroke:none"
         id="path69271" />
    </g>
    <g
       id="g69273"
       transform="matrix(0.48307355,0,0,-0.48307355,47.467012,30.114265)">
      <path
         inkscape:connector-curvature="0"
         d="M 0,0 C 0,0.66 0.54,1.197 1.205,1.197 1.871,1.197 2.411,0.66 2.411,0 2.411,-0.66 1.871,-1.196 1.205,-1.196 0.54,-1.196 0,-0.66 0,0"
         style="fill:#000000;fill-opacity:1;fill-rule:nonzero;stroke:none"
         id="path69275" />
    </g>
    <g
       id="g69277"
       transform="matrix(0.48307355,0,0,-0.48307355,45.349799,30.229865)">
      <path
         inkscape:connector-curvature="0"
         d="M 0,0 C 0,0.37 0.302,0.67 0.675,0.67 1.047,0.67 1.35,0.37 1.35,0 1.35,-0.37 1.047,-0.67 0.675,-0.67 0.302,-0.67 0,-0.37 0,0"
         style="fill:#ffffff;fill-opacity:1;fill-rule:nonzero;stroke:none"
         id="path69279" />
    </g>
    <g
       id="g69281"
       transform="matrix(0.48307355,0,0,-0.48307355,48.119471,30.206726)">
      <path
         inkscape:connector-curvature="0"
         d="M 0,0 C 0,0.291 0.237,0.526 0.53,0.526 0.823,0.526 1.061,0.291 1.061,0 1.061,-0.291 0.823,-0.526 0.53,-0.526 0.237,-0.526 0,-0.291 0,0"
         style="fill:#ffffff;fill-opacity:1;fill-rule:nonzero;stroke:none"
         id="path69283" />
    </g>
    <g
       id="g69285"
       transform="matrix(0.48307355,0,0,-0.48307355,46.382494,28.441916)">
      <path
         inkscape:connector-curvature="0"
         d="m 0,0 c 0.504,-0.706 1.039,-1.384 0.919,-2.327 l -5.757,-0.294 c 0.178,1.443 1.396,2.945 2.85,3.328 C -1.217,0.736 -0.623,0.354 0,0"
         style="fill:#81ae37;fill-opacity:1;fill-rule:nonzero;stroke:none"
         id="path69287" />
    </g>
    <g
       id="g69289"
       transform="matrix(0.48307355,0,0,-0.48307355,45.212025,29.648634)">
      <path
         inkscape:connector-curvature="0"
         d="M 0,0 -2.415,-0.123 C -2.237,1.32 -1.02,2.822 0.435,3.205 0.819,3.22 1.161,3.131 1.483,2.995 0.629,2.321 0.055,1.235 0,0"
         style="fill:#5a7c2b;fill-opacity:1;fill-rule:nonzero;stroke:none"
         id="path69291" />
    </g>
    <g
       id="g69293"
       transform="matrix(0.48307355,0,0,-0.48307355,49.407808,29.024984)">
      <path
         inkscape:connector-curvature="0"
         d="m 0,0 c 0.356,-0.412 0.504,-1.031 0.415,-1.562 -1.603,0.354 -3.324,0.501 -5.104,0.442 -0.03,1.031 0.919,1.649 1.78,2.032 C -1.988,1.001 -0.742,0.854 0,0"
         style="fill:#81ae37;fill-opacity:1;fill-rule:nonzero;stroke:none"
         id="path69295" />
    </g>
    <g
       id="g69297"
       transform="matrix(0.48307355,0,0,-0.48307355,48.105752,29.576025)">
      <path
         inkscape:connector-curvature="0"
         d="m 0,0 c -0.653,0.036 -1.32,0.043 -1.994,0.021 -0.029,1.031 0.92,1.649 1.78,2.032 C 0.376,2.11 1.099,2.069 1.737,1.809 0.913,1.414 0.284,0.77 0,0"
         style="fill:#5a7c2b;fill-opacity:1;fill-rule:nonzero;stroke:none"
         id="path69299" />
    </g>
    <g
       id="g69301"
       transform="matrix(0.48307355,0,0,-0.48307355,39.457152,30.248708)">
      <path
         inkscape:connector-curvature="0"
         d="m 0,0 c -0.056,-0.329 -0.11,-0.71 -0.187,-1.094 -1.227,0.063 -1.561,-0.938 -1.807,-1.903 l -0.41,-0.185 C -1.841,-2.18 -2.048,0.265 0,0"
         style="fill:#f5d75c;fill-opacity:1;fill-rule:nonzero;stroke:none"
         id="path69303" />
    </g>
    <g
       id="g69305"
       transform="matrix(0.48307355,0,0,-0.48307355,33.922558,32.269211)">
      <path
         inkscape:connector-curvature="0"
         d="m 0,0 -1.041,0.167 c -0.301,0.491 -0.6,0.964 -1.155,1.256 -0.565,-0.12 -1.051,-0.435 -1.457,-0.838 l -0.769,0.123 c 0.504,0.824 1.247,1.618 2.226,1.826 C -1.127,1.974 -1.009,0.736 0,0"
         style="fill:#f5d75c;fill-opacity:1;fill-rule:nonzero;stroke:none"
         id="path69307" />
    </g>
    <g
       id="g69309"
       transform="matrix(0.48307355,0,0,-0.48307355,30.452854,31.99893)">
      <path
         inkscape:connector-curvature="0"
         d="m 0,0 c -0.293,-0.064 -0.584,-0.135 -0.875,-0.21 l -0.697,0.72 c -1.359,0.149 -2.185,-0.907 -3.074,-1.843 -0.885,-0.26 -1.782,-0.494 -2.7,-0.651 -0.618,0.421 -1.218,1.022 -1.795,1.226 -0.507,-0.361 -0.795,-0.916 -1.137,-1.409 -0.396,0.023 -0.798,0.067 -1.208,0.135 1.216,0.353 1.396,1.709 2.345,2.386 1.246,-0.443 2.612,-2.739 4.006,-1.06 1.099,1.001 1.959,2.503 3.563,2.326 L 0,0 z"
         style="fill:#f5d75c;fill-opacity:1;fill-rule:nonzero;stroke:none"
         id="path69311" />
    </g>
    <g
       id="g69313"
       transform="matrix(0.48307355,0,0,-0.48307355,37.435702,32.12675)">
      <path
         inkscape:connector-curvature="0"
         d="m 0,0 c -0.581,-0.071 -1.151,-0.187 -1.723,-0.301 -0.408,0.365 -0.814,0.73 -1.334,0.809 -0.493,-0.292 -0.876,-0.702 -1.22,-1.14 -0.263,-0.002 -0.529,0.012 -0.799,0.042 0.594,0.766 1.129,1.68 2.019,2.209 C -1.899,1.443 -1.307,-0.147 0,0"
         style="fill:#f5d75c;fill-opacity:1;fill-rule:nonzero;stroke:none"
         id="path69315" />
    </g>
    <g
       id="g69317"
       transform="matrix(0.48307355,0,0,-0.48307355,23.915323,32.923532)">
      <path
         inkscape:connector-curvature="0"
         d="M 0,0 C -0.41,-0.035 -0.829,-0.044 -1.25,-0.052 -1.4,0.071 -1.541,0.19 -1.662,0.303 -1.832,0.153 -2.017,0.032 -2.206,-0.079 -2.858,-0.112 -3.492,-0.19 -4.066,-0.412 -3.503,0.618 -2.434,0.736 -1.662,1.413 -1.217,1.001 -0.506,0.5 0,0"
         style="fill:#f5d75c;fill-opacity:1;fill-rule:nonzero;stroke:none"
         id="path69319" />
    </g>
    <g
       id="g69321"
       transform="matrix(0.48307355,0,0,-0.48307355,41.906024,29.063678)">
      <path
         inkscape:connector-curvature="0"
         d="M 0,0 C 0,0.541 0.68,0.979 1.517,0.979 2.354,0.979 3.034,0.541 3.034,0 3.034,-0.54 2.354,-0.978 1.517,-0.978 0.68,-0.978 0,-0.54 0,0"
         style="fill:#abc671;fill-opacity:1;fill-rule:nonzero;stroke:none"
         id="path69323" />
    </g>
    <g
       id="g69325"
       transform="matrix(0.48307355,0,0,-0.48307355,43.285413,33.535392)">
      <path
         inkscape:connector-curvature="0"
         d="m 0,0 c -0.534,-0.089 -0.95,-0.677 -1.514,-0.501 l 0.149,1.562 C -0.92,0.707 -0.355,0.472 0,0 m 4.541,-2.386 c -0.949,-0.383 -1.78,-1.03 -2.849,-1.06 -0.238,0.618 0.445,2.179 0.445,2.179 l 2.404,-1.119 z m 29.294,-0.295 c -0.356,-1.619 -0.86,-3.385 -2.284,-4.387 -0.297,1.002 -0.416,2.09 -0.862,3.034 1.099,0.353 2.048,1.03 3.146,1.353 M 9.616,-4.034 C 8.607,-5.213 7.242,-6.186 5.758,-6.51 c -0.504,0.531 0.03,1.15 0.089,1.709 l 0.831,1.62 2.938,-0.853 z m 5.967,-1.061 c -1.218,-1.091 -2.227,-2.415 -3.83,-2.885 -0.088,1.236 0.12,2.355 0.356,3.474 1.099,-0.324 2.345,-0.265 3.474,-0.589 m 10.685,-2.121 c -0.891,-0.823 -1.752,-1.737 -2.851,-2.121 -0.593,1.237 0.238,2.681 0,4.036 0.802,-0.059 3.474,0.265 4.067,0.442 l -1.216,-2.357 z m -4.038,1.915 c -1.142,-3.012 -4.006,-4.036 -4.214,-4.036 l -0.149,0.295 0.298,3.741 c 1.364,0.088 2.789,-0.147 4.065,0"
         style="fill:#dce8eb;fill-opacity:1;fill-rule:evenodd;stroke:none"
         id="path69327" />
    </g>
    <g
       id="g69329"
       transform="matrix(0.48307355,0,0,-0.48307355,43.285413,33.535392)">
      <path
         inkscape:connector-curvature="0"
         d="m 0,0 c -0.534,-0.089 -0.95,-0.677 -1.514,-0.501 l 0.091,0.957 c 0.099,0.046 0.198,0.082 0.303,0.101 -0.079,0.104 -0.169,0.198 -0.266,0.284 l 0.021,0.22 C -0.92,0.707 -0.355,0.472 0,0 m 33.835,-2.681 c -0.356,-1.619 -0.86,-3.385 -2.284,-4.387 -0.126,0.423 -0.22,0.863 -0.321,1.3 0.589,0.713 0.947,1.6 1.205,2.507 0.455,0.224 0.914,0.438 1.4,0.58 M 9.616,-4.034 C 8.607,-5.213 7.242,-6.186 5.758,-6.51 c -0.257,0.271 -0.244,0.563 -0.162,0.86 1.034,0.426 1.977,1.146 2.74,1.988 l 1.28,-0.372 z m 5.967,-1.061 c -1.218,-1.091 -2.227,-2.415 -3.83,-2.885 -0.025,0.36 -0.026,0.71 -0.008,1.056 0.892,0.548 1.614,1.349 2.397,2.088 0.488,-0.057 0.974,-0.125 1.441,-0.259 m 10.685,-2.121 c -0.891,-0.823 -1.752,-1.737 -2.851,-2.121 -0.154,0.324 -0.212,0.662 -0.218,1.009 0.698,0.452 1.316,1.082 1.948,1.668 l 0.796,1.541 c 0.684,0.087 1.293,0.185 1.541,0.26 l -1.216,-2.357 z m -4.038,1.915 c -1.142,-3.012 -4.006,-4.036 -4.214,-4.036 l -0.149,0.295 0.055,0.689 c 0.888,0.49 2.142,1.429 2.927,3.007 0.472,-0.011 0.936,-0.007 1.381,0.045 M 1.692,-3.446 c -0.076,0.199 -0.057,0.494 0.002,0.804 0.575,0.226 1.11,0.558 1.688,0.796 l 1.159,-0.54 c -0.949,-0.383 -1.78,-1.03 -2.849,-1.06"
         style="fill:#ffffff;fill-opacity:1;fill-rule:evenodd;stroke:none"
         id="path69331" />
    </g>
    <g
       id="g69333"
       transform="matrix(0.48307355,0,0,-0.48307355,3.7130325,27.659286)">
      <path
         inkscape:connector-curvature="0"
         d="m 0,0 1.068,-1.62 c -1.187,0.236 -2.67,0.795 -3.413,2.121 C -1.662,0.56 -0.652,0.471 0,0 m 8.399,-2.621 c -0.028,-0.59 0.654,-0.972 1.07,-1.267 -1.604,0.501 -3.444,0.943 -4.839,1.414 1.129,0.471 3.325,1.62 3.769,-0.147 m 6.056,-1.561 c 0,-0.796 -0.355,-1.414 -0.06,-2.18 -1.187,0.737 -2.849,1.679 -4.363,2.268 1.544,-0.206 2.613,0.883 4.126,0.501 l 0.297,-0.589 z m 4.422,-3.947 c 0.268,-0.795 -0.445,-1.385 -0.564,-2.121 -0.772,0.973 -1.603,2.181 -2.641,2.975 1.01,0.058 1.899,-0.088 2.849,-0.442 l 0.356,-0.412 z m 2.998,-6.009 c -0.326,-1.207 -1.365,-2.06 -1.365,-3.386 -0.119,-0.088 -0.297,-0.088 -0.416,-0.088 0.207,1.737 -0.059,3.446 -0.594,4.947 0.891,-0.294 1.988,-0.441 2.375,-1.473"
         style="fill:#ccae42;fill-opacity:1;fill-rule:evenodd;stroke:none"
         id="path69335" />
    </g>
    <g
       id="g69337"
       transform="matrix(0.48307355,0,0,-0.48307355,3.7130325,27.659286)">
      <path
         inkscape:connector-curvature="0"
         d="m 0,0 1.068,-1.62 c -0.36,0.071 -0.749,0.174 -1.134,0.317 L -0.56,-0.556 C -0.943,-0.28 -1.449,-0.135 -1.939,-0.074 -2.09,0.1 -2.227,0.29 -2.345,0.501 -1.662,0.56 -0.652,0.471 0,0"
         style="fill:#f5d75c;fill-opacity:1;fill-rule:evenodd;stroke:none"
         id="path69339" />
    </g>
    <g
       id="g69341"
       transform="matrix(0.48307355,0,0,-0.48307355,14.280248,34.488837)">
      <path
         inkscape:connector-curvature="0"
         d="m 0,0 c -0.326,-1.207 -1.365,-2.061 -1.365,-3.387 -0.119,-0.088 -0.297,-0.088 -0.416,-0.088 0.021,0.173 0.037,0.347 0.049,0.519 0.316,0.826 0.933,1.518 1.171,2.4 -0.272,0.729 -0.9,1.017 -1.56,1.227 -0.076,0.272 -0.161,0.54 -0.254,0.802 C -1.484,1.179 -0.387,1.031 0,0"
         style="fill:#f5d75c;fill-opacity:1;fill-rule:evenodd;stroke:none"
         id="path69343" />
    </g>
    <g
       id="g69345"
       transform="matrix(0.48307355,0,0,-0.48307355,12.831954,31.586145)">
      <path
         inkscape:connector-curvature="0"
         d="m 0,0 c 0.268,-0.795 -0.445,-1.385 -0.564,-2.121 l -0.227,0.291 c 0.203,0.401 0.391,0.802 0.23,1.274 l -0.355,0.412 c -0.549,0.205 -1.076,0.339 -1.619,0.407 -0.214,0.214 -0.437,0.413 -0.67,0.591 1.01,0.058 1.899,-0.088 2.849,-0.442 L 0,0 z"
         style="fill:#f5d75c;fill-opacity:1;fill-rule:evenodd;stroke:none"
         id="path69347" />
    </g>
    <g
       id="g69349"
       transform="matrix(0.48307355,0,0,-0.48307355,10.695841,29.679307)">
      <path
         inkscape:connector-curvature="0"
         d="m 0,0 c 0,-0.796 -0.355,-1.414 -0.061,-2.181 l -0.658,0.401 c 0.047,0.39 0.158,0.779 0.158,1.224 l -0.296,0.588 c -0.973,0.246 -1.762,-0.116 -2.612,-0.351 -0.32,0.147 -0.64,0.285 -0.954,0.407 1.544,-0.206 2.612,0.883 4.126,0.501 L 0,0 z"
         style="fill:#f5d75c;fill-opacity:1;fill-rule:evenodd;stroke:none"
         id="path69351" />
    </g>
    <g
       id="g69353"
       transform="matrix(0.48307355,0,0,-0.48307355,7.7705408,28.925472)">
      <path
         inkscape:connector-curvature="0"
         d="m 0,0 c -0.028,-0.59 0.653,-0.972 1.069,-1.267 -0.516,0.162 -1.057,0.317 -1.599,0.468 -0.024,0.078 -0.033,0.157 -0.03,0.243 -0.336,1.332 -1.667,1.008 -2.785,0.565 L -3.77,0.147 C -2.641,0.618 -0.444,1.767 0,0"
         style="fill:#f5d75c;fill-opacity:1;fill-rule:evenodd;stroke:none"
         id="path69355" />
    </g>
  </g>
</svg>
