<?xml version="1.0" encoding="UTF-8" standalone="no"?>
<!-- Created with Inkscape (http://www.inkscape.org/) -->

<svg
   xmlns:dc="http://purl.org/dc/elements/1.1/"
   xmlns:cc="http://creativecommons.org/ns#"
   xmlns:rdf="http://www.w3.org/1999/02/22-rdf-syntax-ns#"
   xmlns:svg="http://www.w3.org/2000/svg"
   xmlns="http://www.w3.org/2000/svg"
   xmlns:sodipodi="http://sodipodi.sourceforge.net/DTD/sodipodi-0.dtd"
   xmlns:inkscape="http://www.inkscape.org/namespaces/inkscape"
   width="64px"
   height="64px"
   id="svg167404"
   version="1.1"
   inkscape:version="0.48.5 r10040"
   sodipodi:docname="Nowy dokument 8">
  <defs
     id="defs167406" />
  <sodipodi:namedview
     id="base"
     pagecolor="#ffffff"
     bordercolor="#666666"
     borderopacity="1.0"
     inkscape:pageopacity="0.0"
     inkscape:pageshadow="2"
     inkscape:zoom="5.5"
     inkscape:cx="32"
     inkscape:cy="30.496503"
     inkscape:current-layer="layer1"
     showgrid="true"
     inkscape:document-units="px"
     inkscape:grid-bbox="true"
     inkscape:window-width="1366"
     inkscape:window-height="706"
     inkscape:window-x="-8"
     inkscape:window-y="-8"
     inkscape:window-maximized="1" />
  <metadata
     id="metadata167409">
    <rdf:RDF>
      <cc:Work
         rdf:about="">
        <dc:format>image/svg+xml</dc:format>
        <dc:type
           rdf:resource="http://purl.org/dc/dcmitype/StillImage" />
        <dc:title></dc:title>
      </cc:Work>
    </rdf:RDF>
  </metadata>
  <g
     id="layer1"
     inkscape:label="Layer 1"
     inkscape:groupmode="layer">
    <g
       transform="matrix(0.81959443,0,0,-0.80204217,46.264548,3.6000348)"
       id="g7729">
      <path
         id="path7731"
         style="fill:#000000;fill-opacity:1;fill-rule:nonzero;stroke:none"
         d="m 0,0 c 0.893,-7.265 -8.532,-7.095 -10.464,-13.144 4.16,-2.184 7.546,-6.508 9.247,-10.742 0.912,-2.101 1.086,-4.466 1.29,-6.83 0.856,0.799 1.812,1.721 2.821,2.322 0.223,1.809 -2.981,3.131 -0.879,4.938 0.499,0.588 1.395,0.716 2.084,0.374 l 0.591,-0.404 c 0.252,0.82 0.982,1.655 1.823,2.007 0.58,0.171 1.105,-0.293 1.572,-0.596 l 0.442,-1.003 c 0.842,0.352 2.152,0.434 2.959,-0.104 0.428,-0.556 0.626,-1.264 0.41,-1.989 l -0.403,-0.592 c 0.628,-0.276 1.217,-0.743 1.641,-1.363 0.14,-0.516 0.281,-1.094 0.071,-1.627 -0.689,-0.551 -1.474,-1.128 -2.448,-0.743 -1.145,-0.853 -2.174,-2.06 -3.756,-1.717 -1.552,1.169 -2.254,-0.686 -3.176,-1.545 -2.662,-3.254 -5.639,-6.367 -8.206,-9.654 2.364,-14.409 -5.339,-23.036 -5.339,-23.036 3.032,1.009 7.796,3.1 11.099,1.87 2.407,-0.402 4.296,-2.859 4.952,-5.079 0.319,-0.872 0.188,-1.918 -0.032,-2.739 -0.641,-1.03 -2.111,-0.246 -2.566,-1.376 -2.215,-0.496 -4.506,-0.416 -6.649,0.233 l -0.398,-0.434 c -4.409,0.601 -8.2,0.606 -12.746,0.892 -0.156,0.068 -0.247,0.2 -0.371,0.332 -1.231,-1.55 -3.166,-0.335 -4.834,-0.66 -3.852,0.04 -8.414,-0.088 -12.473,-0.488 l -10.148,0.418 c -0.683,0.534 -1.334,1.035 -1.398,1.96 -0.089,1.086 -0.078,2.329 0.715,3.129 1.019,0.92 2.066,1.712 3.291,2.083 3.708,0.35 6.946,-0.91 10.319,-1.888 1.872,-0.225 3.765,-0.801 5.504,-0.257 -0.638,0.947 -0.855,2.038 -1.586,2.956 -0.972,-0.478 -1.873,1.085 -2.298,-0.08 -0.334,-0.466 -1.004,-0.506 -1.611,-0.549 -0.895,-0.097 -1.087,0.771 -1.483,1.358 l -0.045,0.542 c -0.828,-0.002 -2.029,-0.661 -2.598,0.378 -0.394,0.589 -0.487,1.546 -0.084,2.139 -0.599,0.18 -1.211,0.901 -1.252,1.572 0.02,0.573 0.009,1.147 0.434,1.515 l 1.264,0.593 c -0.135,0.673 -0.68,1.521 -0.02,2.134 0.815,0.514 1.78,0.798 2.79,0.508 0.271,0.469 0.394,1.262 1.095,1.269 0.258,0.054 0.726,-0.216 0.771,0.196 -0.495,3.14 0.053,6.975 0.612,10.237 -3.717,4.876 -7.998,9.074 -12.715,12.679 -6.998,0.622 -6.455,3.984 -6.181,4.549 0.338,0.561 0.984,0.826 1.409,1.098 -0.189,1.026 -0.245,2.111 0.483,2.914 0.994,0.796 2.207,0.161 2.265,0.161 0.465,0.556 1.567,3.183 3.862,0.135 l 0.224,-1.825 c 2.167,0.94 3.306,-0.242 3.575,-0.729 0.486,-1.611 -1.514,-2.274 -1.94,-3.532 1.039,-1.281 2.606,-2.003 3.944,-2.974 2.152,7.434 3.662,10.036 5.595,13.345 -2.769,2.869 -6.869,3.108 -10.838,3.501 -2.224,0.206 -4.806,1.091 -5.454,3.472 -0.413,1.863 -0.057,3.889 1.109,5.314 2.396,2.911 6.507,2.959 9.69,1.955 3.451,-1.555 7.796,-3.968 8.765,-8.08 0.261,-0.805 0.615,-1.582 0.746,-2.415 1.289,2.249 3.584,5.036 6.313,5.61 0.099,-1.682 -0.182,-3.371 -0.182,-3.371 1.207,0.786 2.678,1.882 4.273,1.921 0.283,-0.106 -0.341,-1.549 -0.453,-1.991 l 1.15,0.055 c 0.086,4.298 1.092,8.437 4.44,11.315 2.066,1.648 5.053,3.232 7.7,1.547 C -0.997,1.563 -0.322,0.839 0,0"
         inkscape:connector-curvature="0" />
    </g>
    <g
       transform="matrix(0.81959443,0,0,-0.80204217,22.868483,9.418773)"
       id="g7733">
      <path
         id="path7735"
         style="fill:#acb0ca;fill-opacity:1;fill-rule:nonzero;stroke:none"
         d="m 0,0 c 1.707,-2.194 2.608,-4.68 3.412,-7.225 0,0 3.332,5.11 5.945,6.07 L 8.699,-4.51 c -0.019,-0.541 3.077,1.454 4.368,1.918 -0.02,-0.603 -0.657,-1.909 -0.168,-2.064 1.028,0.218 2.118,0.404 3.164,0.271 -0.327,-0.243 -1.01,-0.666 -0.805,-1.182 1.132,-0.422 2.329,-0.815 3.39,-1.424 3.426,-2.255 6.11,-5.695 7.705,-9.286 1.043,-2.044 1.419,-5.024 1.788,-7.235 -0.142,-0.047 -0.85,0.232 -0.709,-0.284 -0.119,-0.632 0.402,-2.092 0.157,-2.688 -0.278,0.202 -0.442,0.42 -1.024,0.8 -0.036,0.767 -0.413,1.863 -0.829,2.705 0.198,0.154 0.641,0.074 0.783,0.484 -0.259,0.805 -0.718,1.362 -1.302,1.956 0.262,0.215 0.77,0.195 1.157,0.278 -0.042,0.64 -1.666,1.587 -1.854,1.657 0.291,0.151 0.572,-0.019 0.836,0.227 -0.109,0.546 -1.956,1.606 -5.632,1.092 0.99,0.953 1.479,2.207 0.987,3.659 -1.268,3.501 -3.945,1.984 -4.545,1.209 -1.551,-2.021 0.069,-4.367 0.069,-4.367 -1.493,0.116 -3.151,0.078 -4.652,-0.062 0.554,1.288 0.765,2.778 0.045,4.046 -2.044,3.6 -5.117,1.293 -5.733,0.072 -1.14,-2.944 0.455,-4.316 0.455,-4.316 -2.592,-0.355 -5.491,-1.211 -7.128,-3.415 0.073,-0.607 0.758,-0.154 1.036,-0.418 -0.561,-0.555 -1.153,-1.075 -1.212,-1.869 0.276,-0.329 0.909,-0.414 1.36,-0.272 -0.377,-0.783 -0.914,-1.529 -0.851,-2.488 0.371,-0.33 0.654,-0.404 1.136,-0.294 -0.109,-0.41 -0.316,-0.849 -0.27,-1.359 0.274,-0.394 0.722,-0.314 1.136,-0.327 -0.668,-0.868 -0.36,-2.06 0.056,-2.933 -1.002,0.513 -2.017,1.504 -2.361,2.631 -0.186,0.166 -0.434,0.334 -0.663,0.15 -0.168,-0.249 -0.462,-0.462 -0.569,-0.745 -0.55,0.625 0.013,2.166 -1.229,2.209 l -0.726,-0.737 c -0.161,0.896 -0.139,1.47 -0.043,2.422 -0.456,0.653 -0.927,-0.095 -1.409,-0.174 0.69,4.213 2.1,8.083 4.01,11.712 0.518,1.129 1.254,2.154 1.488,3.389 1.281,5.927 -3.404,10.155 -6.887,10.786 -1.617,0.248 -3.29,-0.267 -4.544,-1.498 -0.303,-0.435 -0.485,-1.098 -0.215,-1.618 1.012,-2.009 3.261,-2.408 5.182,-3.015 1.526,-1.01 3.919,-0.903 5.099,-2.696 -3.481,2.48 -9.116,1.689 -13.264,3.363 -1.152,0.772 -3.324,5.31 2.26,8.109 2.07,0.915 4.789,0.311 6.804,-0.397 C -3.543,2.545 -1.635,1.522 0,0"
         inkscape:connector-curvature="0" />
    </g>
    <g
       transform="matrix(0.81959443,0,0,-0.80204217,22.868483,9.418773)"
       id="g7737">
      <path
         id="path7739"
         style="fill:#7881a3;fill-opacity:1;fill-rule:nonzero;stroke:none"
         d="m 0,0 c 1.707,-2.194 2.608,-4.68 3.412,-7.225 0,0 0.246,0.377 0.656,0.946 L 2.515,-9.18 c 0,0 -2.291,8.305 -8.957,10.894 -3.15,1.222 -6.297,0.662 -8.744,-0.269 0.559,0.861 1.484,1.701 2.928,2.424 2.07,0.915 4.789,0.311 6.804,-0.397 C -3.543,2.545 -1.635,1.522 0,0 m 6.479,-3.336 c 0.929,0.974 1.951,1.839 2.878,2.181 L 8.699,-4.51 c -0.019,-0.541 3.077,1.454 4.368,1.918 -0.02,-0.603 -0.657,-1.909 -0.168,-2.064 1.028,0.218 2.118,0.404 3.164,0.271 -0.327,-0.243 -1.01,-0.666 -0.805,-1.182 1.132,-0.422 2.329,-0.815 3.39,-1.424 3.426,-2.255 6.11,-5.695 7.705,-9.286 1.043,-2.044 1.419,-5.024 1.788,-7.235 -0.142,-0.047 -0.85,0.232 -0.709,-0.284 -0.119,-0.632 0.402,-2.092 0.157,-2.688 -0.278,0.202 -0.442,0.42 -1.024,0.8 -0.036,0.767 -0.413,1.863 -0.829,2.705 0.198,0.154 0.641,0.074 0.783,0.484 -0.259,0.805 -0.718,1.362 -1.302,1.956 0.262,0.215 0.77,0.195 1.157,0.278 -0.042,0.64 -1.666,1.587 -1.854,1.657 0.291,0.151 0.572,-0.019 0.836,0.227 -0.109,0.546 -1.956,1.606 -5.632,1.092 0.99,0.953 1.479,2.207 0.987,3.659 -1.268,3.501 -3.945,1.984 -4.545,1.209 -1.551,-2.021 0.069,-4.367 0.069,-4.367 -0.531,0.041 -1.086,0.062 -1.645,0.067 0.014,0.301 0.016,0.851 -0.01,1.84 -0.074,2.662 -4.58,8.882 -4.58,8.882 0,0 -3.334,-4.879 -2.459,0 0.48,2.678 -0.278,2.954 -1.062,2.659 m -4.903,-27.003 0.037,-0.08 c -0.262,0.135 -0.527,0.303 -0.779,0.496 l 0.742,-0.416 z"
         inkscape:connector-curvature="0" />
    </g>
    <g
       transform="matrix(0.81959443,0,0,-0.80204217,38.916228,23.638584)"
       id="g7741">
      <path
         id="path7743"
         style="fill:#ffffff;fill-opacity:1;fill-rule:nonzero;stroke:none"
         d="M 0,0 C 1.576,0.455 3.388,0.296 4.86,-0.393 4.721,-0.738 3.68,-0.447 4.072,-1.066 4.762,-1.409 5.626,-1.311 6.106,-2.125 5.871,-2.467 5.335,-2.321 5.009,-2.533 5.459,-3.313 6.208,-3.785 6.4,-4.652 L 5.41,-4.713 C 5.633,-5.677 6.338,-6.466 6.461,-7.49 6.605,-7.909 6.103,-7.7 5.968,-7.918 5.164,-9.038 5.33,-10.669 4.185,-11.552 c -0.056,0.257 0.018,0.541 -0.23,0.709 -2.363,-3.995 -6.851,-4.572 -6.796,-4.797 3.836,-2.754 4.084,-11.676 2.64,-15.639 -1.323,-2.312 -3.533,-4.497 -6.195,-4.978 -2.496,-0.294 -4.756,0.676 -6.186,2.606 -2.274,3.298 -2.875,7.97 -1.56,11.906 0.871,2.104 2.341,4.061 4.089,5.72 0.266,0.342 0.797,0.036 1.004,0.507 -3.213,-0.064 -5.94,1.418 -8.095,2.672 -0.774,0.664 -0.897,1.688 -0.67,2.7 0.103,0.219 0.458,0.334 0.341,0.657 -0.365,0.49 -1.318,-0.337 -1.187,0.647 0.047,0.445 0.535,0.745 0.328,1.231 l -1.209,0.042 c -0.186,1.058 0.758,1.598 1.011,2.481 -0.335,0.426 -1.075,0.198 -1.455,0.275 0.256,0.946 1.157,1.233 1.442,2.084 l -1.142,0.135 c 1.427,1.671 3.622,2.422 5.767,2.762 C -5.357,1.154 -2.084,0.551 0,0"
         inkscape:connector-curvature="0" />
    </g>
    <g
       transform="matrix(0.81959443,0,0,-0.80204217,38.916228,23.638584)"
       id="g7745">
      <path
         id="path7747"
         style="fill:#dce8eb;fill-opacity:1;fill-rule:nonzero;stroke:none"
         d="M 0,0 C 1.576,0.455 3.388,0.296 4.86,-0.393 4.721,-0.738 3.68,-0.447 4.072,-1.066 4.762,-1.409 5.626,-1.311 6.106,-2.125 5.871,-2.467 5.335,-2.321 5.009,-2.533 5.459,-3.313 6.208,-3.785 6.4,-4.652 L 5.41,-4.713 C 5.633,-5.677 6.338,-6.466 6.461,-7.49 6.605,-7.909 6.103,-7.7 5.968,-7.918 5.164,-9.038 5.33,-10.669 4.185,-11.552 c -0.056,0.257 0.018,0.541 -0.23,0.709 -2.363,-3.995 -6.851,-4.572 -6.796,-4.797 3.836,-2.754 4.084,-11.676 2.64,-15.639 -1.323,-2.312 -3.533,-4.497 -6.195,-4.978 l -0.236,-0.024 c 0.199,0.259 0.397,0.54 0.59,0.849 3.714,5.964 -0.95,19.552 -0.95,19.552 l -2.17,0.199 c 0.044,0.04 0.082,0.093 0.113,0.163 -2.189,-0.044 -4.154,0.631 -5.865,1.462 6.087,-2.05 10.155,1.474 10.287,3.352 0.148,2.141 -2.067,2.737 -2.067,2.737 l 1.768,0.745 0.134,0.547 -0.282,-0.1 c 0,0 -2.142,-0.596 -2.887,-0.596 -0.744,0 -2.588,0.447 -2.588,0.447 0,0 1.695,-0.13 3.034,0.82 1.341,0.95 1.994,2.066 1.994,2.066 l 0.074,1.267 1.564,-0.82 -0.521,-1.489 -0.388,-1.595 0.983,0.347 c 0,0 3.11,0.074 3.557,0.298 0.639,0.319 1.048,1.419 1.269,2.1 0.132,0.135 0.202,0.284 0.202,0.488 0,0.202 -0.065,-0.061 -0.202,-0.488 -0.205,-0.209 -0.559,-0.388 -1.046,-0.704 -0.8,-0.52 -2.085,-0.52 -2.607,-0.222 -0.52,0.297 -0.148,2.382 -0.148,2.382 0,0 -2.216,-0.893 -2.068,0.951 0.107,1.311 2.684,1.623 4.161,1.694 C -0.445,0.115 -0.217,0.057 0,0"
         inkscape:connector-curvature="0" />
    </g>
    <g
       transform="matrix(0.81959443,0,0,-0.80204217,45.582645,3.6791229)"
       id="g7749">
      <path
         id="path7751"
         style="fill:#7881a3;fill-opacity:1;fill-rule:nonzero;stroke:none"
         d="m 0,0 c 0.075,-1.501 0.081,-3.126 -1.07,-4.168 -2.541,-2.493 -5.769,-3.718 -8.085,-6.153 -0.893,-0.065 -1.694,-0.164 -2.373,0.465 -0.779,0.537 -0.549,1.611 -0.461,2.309 0.739,3.83 2.846,7.611 6.756,9.163 l 1.989,0.408 C -2.019,1.535 -0.78,1.397 0,0"
         inkscape:connector-curvature="0" />
    </g>
    <g
       transform="matrix(0.81959443,0,0,-0.80204217,21.779164,12.142105)"
       id="g7753">
      <path
         id="path7755"
         style="fill:#edccb8;fill-opacity:1;fill-rule:nonzero;stroke:none"
         d="m 0,0 c 0.71,-1.554 1.446,-3.268 1.256,-5.077 -2.056,4.055 -6.98,3.589 -10.277,5.87 -0.492,0.528 -0.947,1.181 -0.601,1.934 1.258,1.389 3.083,1.612 4.788,1.202 C -2.91,3.353 -0.984,1.947 0,0"
         inkscape:connector-curvature="0" />
    </g>
    <g
       transform="matrix(0.81959443,0,0,-0.80204217,31.110083,15.526485)"
       id="g7757">
      <path
         id="path7759"
         style="fill:#000000;fill-opacity:1;fill-rule:nonzero;stroke:none"
         d="m 0,0 c 0,0 -4.376,-1.482 -5.55,-3.854 0.315,1.71 0.84,3.986 2.835,4.554 C -1.718,0.952 -0.917,0.19 0,0"
         inkscape:connector-curvature="0" />
    </g>
    <g
       transform="matrix(0.81959443,0,0,-0.80204217,39.791063,18.148765)"
       id="g7761">
      <path
         id="path7763"
         style="fill:#000000;fill-opacity:1;fill-rule:nonzero;stroke:none"
         d="m 0,0 c -2.024,2.198 -3.524,2.064 -4.799,2.814 0.653,0.423 1.718,1.117 2.63,0.766 C -0.892,2.739 -0.497,1.291 0,0"
         inkscape:connector-curvature="0" />
    </g>
    <g
       transform="matrix(0.81959443,0,0,-0.80204217,30.2977,15.625938)"
       id="g7765">
      <path
         id="path7767"
         style="fill:#ecc051;fill-opacity:1;fill-rule:nonzero;stroke:none"
         d="m 0,0 c -1.193,-0.405 -2.389,-0.874 -3.438,-1.697 0.125,0.856 0.797,1.789 1.768,2.232 C -1.127,0.58 -0.305,0.392 0,0"
         inkscape:connector-curvature="0" />
    </g>
    <g
       transform="matrix(0.81959443,0,0,-0.80204217,38.89623,16.891721)"
       id="g7769">
      <path
         id="path7771"
         style="fill:#ecc051;fill-opacity:1;fill-rule:nonzero;stroke:none"
         d="m 0,0 c -0.775,0.632 -1.649,0.841 -2.527,1.254 0.284,0.189 0.808,0.214 1.135,0.425 C -0.665,1.495 -0.196,0.803 0,0"
         inkscape:connector-curvature="0" />
    </g>
    <g
       transform="matrix(0.81959443,0,0,-0.80204217,12.690845,20.953583)"
       id="g7773">
      <path
         id="path7775"
         style="fill:#acb0ca;fill-opacity:1;fill-rule:nonzero;stroke:none"
         d="M 0,0 C 0.257,-0.837 -0.101,-1.972 0.418,-2.627 L 0.396,-3.231 c -0.749,0.439 -0.857,0.574 -2.335,0.623 l -0.393,-0.306 0.09,0.763 c 0.437,-0.24 1.101,-0.39 1.525,-0.118 0.778,0.355 0.807,1.215 0.705,1.952 C -0.158,0.038 -0.524,0.496 -0.905,0.541 -1.473,0.752 -1.836,0.352 -2.229,0.078 -2.438,0.468 -2.16,1.096 -1.647,1.205 -0.916,1.18 -0.33,0.617 0,0"
         inkscape:connector-curvature="0" />
    </g>
    <g
       transform="matrix(0.81959443,0,0,-0.80204217,52.454781,21.827732)"
       id="g7777">
      <path
         id="path7779"
         style="fill:#7881a3;fill-opacity:1;fill-rule:nonzero;stroke:none"
         d="m 0,0 c -1.047,0.295 -1.632,-0.196 -2.045,-1.075 0.077,-0.544 0.021,-1.211 0.649,-1.488 L -1.946,-2.83 C -2.52,-1.919 -2.129,-0.754 -1.525,0.118 -1.09,0.74 -0.302,0.489 0,0"
         inkscape:connector-curvature="0" />
    </g>
    <g
       transform="matrix(0.81959443,0,0,-0.80204217,55.415404,23.026863)"
       id="g7781">
      <path
         id="path7783"
         style="fill:#7881a3;fill-opacity:1;fill-rule:nonzero;stroke:none"
         d="M 0,0 C 0.019,-0.352 -0.087,-0.666 -0.255,-0.916 -0.398,-0.432 -0.504,0.177 -0.902,0.637 -0.39,0.746 -0.081,0.417 0,0"
         inkscape:connector-curvature="0" />
    </g>
    <g
       transform="matrix(0.81959443,0,0,-0.80204217,49.394087,22.718237)"
       id="g7785">
      <path
         id="path7787"
         style="fill:#acb0ca;fill-opacity:1;fill-rule:nonzero;stroke:none"
         d="m 0,0 c -0.454,-0.239 -1.13,-0.407 -1.245,-1.009 -0.117,-0.6 0.056,-1.116 0.391,-1.543 0.334,-0.458 0.975,-0.352 1.457,-0.273 0.035,0.094 0.161,0.057 0.223,0.055 C 0.707,-3.467 0.272,-4.995 0.921,-5.56 1.452,-5.864 2.084,-5.999 2.782,-6.056 3.71,-5.96 4.953,-5.94 5.35,-4.616 5.789,-4.822 6.509,-5.23 7.093,-4.9 c 0.747,0.387 0.934,1.242 0.771,2.044 0.535,-0.21 0.739,-0.79 0.88,-1.273 C 8.663,-4.604 8.242,-4.813 7.854,-4.99 6.194,-4.168 5.701,-6.412 4.294,-6.555 3.137,-6.897 1.937,-5.676 1.013,-6.6 c -2.97,-3.783 -6.27,-7.077 -9.33,-10.761 -0.617,0.594 -0.599,1.325 -1.398,1.961 4.395,-18.92 -6.86,-28.594 -6.86,-28.594 3.243,2.383 11.108,5.155 15.462,2.996 1.835,-1.274 3.124,-3.613 2.79,-5.832 -0.106,-0.316 -0.436,-0.622 -0.724,-0.677 l -0.318,0.012 c 0.277,1.552 -0.339,3.07 -1.619,3.816 -0.198,-1.076 0.826,-1.908 0.755,-3.021 -0.15,-0.601 -0.031,-1.783 -1.08,-1.714 -1.751,0.06 -3.611,-0.32 -5.079,0.56 0.041,3.162 -2.299,4.38 -2.46,4.355 1.132,-1.347 1.904,-2.998 1.362,-4.795 -1.788,-0.13 -9.827,0.502 -12.143,0.807 l -0.37,0.331 c 0.139,2.129 -0.57,3.748 -0.307,5.809 l -0.15,0.26 c 1.321,0.432 2.978,0.438 4.152,1.225 -2.482,0.054 -5.2,-0.201 -7.38,-1.494 0.023,-0.256 -0.02,-0.574 0.297,-0.647 0.675,0.166 1.288,0.4 1.936,0.695 0.162,-0.801 0.865,-5.318 0.158,-6.41 l -0.706,-0.134 c -8.226,0.766 -15.528,-1.273 -23.873,-0.312 -0.642,0.818 -0.106,3.381 -0.263,3.449 -0.938,-0.413 -0.559,-3.262 -0.559,-3.262 -0.328,-0.274 -0.598,0.212 -0.982,0.194 -0.377,1.064 -0.909,2.262 -0.198,3.448 3.655,4.301 9.307,0.981 13.609,0.131 2.123,-0.362 3.93,-0.616 5.956,-0.05 -0.321,1.764 -1.448,3.236 -2.026,4.945 -2.557,6.144 -3.894,13.455 -2.066,20.176 -0.963,2.551 -3.484,4.233 -5.129,6.393 -2.492,2.54 -5.239,5.089 -8.159,7.229 -1.4,0.051 -5.345,0.312 -5.925,2.725 -0.074,0.64 0.391,1.228 0.97,1.368 -0.271,-0.469 -0.584,-1.19 -0.381,-1.834 0.321,-0.809 1.166,-1.252 2.098,-0.998 0.291,0.117 0.492,0.397 0.721,0.581 1.692,-1.935 3.435,-1.108 4.026,-0.588 0.472,0.748 0.532,1.543 0.242,2.35 0.433,-0.333 1.048,-0.069 1.531,0.042 0.744,0.325 0.518,1.192 0.601,1.731 -0.303,0.425 -0.71,0.631 -1.222,0.584 0.421,0.177 1.187,0.245 1.525,-0.148 1.284,-1.542 -1.541,-2.146 -1.658,-3.67 l -0.019,-0.54 4.697,-3.287 c 0.068,-0.767 -0.574,-1.796 0.176,-2.237 0.413,-0.013 0.689,0.55 1.011,0.665 0.285,-0.933 -0.252,-2.635 0.947,-2.963 l 0.731,0.834 c 0.395,-0.523 0.274,-2.175 1.455,-2.122 0.321,0.084 0.429,0.4 0.47,0.686 0.899,-1.594 2.549,-1.778 3.897,-2.431 2.043,-0.804 4.066,-2.213 6.416,-2.39 -3.742,-3.152 -5.341,-7.874 -4.553,-12.68 0.596,-2.985 2.069,-6.445 5.212,-7.67 3.118,-1.033 6.155,0.136 8.27,2.323 3.109,2.605 2.73,8.826 2.409,11.513 -0.616,2.41 -1.241,4.6 -2.6,6.75 1.806,0.638 3.589,1.5 5.072,2.882 1.145,-0.04 1.854,1.114 2.519,1.919 0.177,-0.388 0.67,-0.884 1.031,-0.578 0.593,0.52 0.526,1.351 0.772,2.044 0.218,-0.2 0.5,-0.304 0.819,-0.284 0.925,0.923 0.294,2.061 0.431,3.204 1.399,0.842 2.531,2.237 3.929,3.016 0.608,1.923 -3.604,3.567 -0.591,4.99 L 0,0 z"
         inkscape:connector-curvature="0" />
    </g>
    <g
       transform="matrix(0.81959443,0,0,-0.80204217,9.9054509,21.421174)"
       id="g7789">
      <path
         id="path7791"
         style="fill:#acb0ca;fill-opacity:1;fill-rule:nonzero;stroke:none"
         d="m 0,0 c -0.609,-0.104 -1.229,-0.103 -1.566,-1.092 -0.273,-0.5 0.087,-1.086 0.391,-1.543 l -0.382,0.015 c -0.16,0.897 -0.816,2.162 0.198,2.891 C -0.883,0.256 -0.34,0.3 0,0"
         inkscape:connector-curvature="0" />
    </g>
    <g
       transform="matrix(0.81959443,0,0,-0.80204217,53.105453,24.072482)"
       id="g7793">
      <path
         id="path7795"
         style="fill:#7881a3;fill-opacity:1;fill-rule:nonzero;stroke:none"
         d="M 0,0 C -0.509,0.019 -1.03,0.609 -0.259,0.774 L 0,0 z"
         inkscape:connector-curvature="0" />
    </g>
    <g
       transform="matrix(0.81959443,0,0,-0.80204217,54.027497,24.588599)"
       id="g7797">
      <path
         id="path7799"
         style="fill:#7881a3;fill-opacity:1;fill-rule:nonzero;stroke:none"
         d="M 0,0 C -0.097,-0.062 -0.168,-0.219 -0.294,-0.214 L -0.284,0.104 0,0 z"
         inkscape:connector-curvature="0" />
    </g>
    <g
       transform="matrix(0.81959443,0,0,-0.80204217,37.294664,25.168238)"
       id="g7801">
      <path
         id="path7803"
         style="fill:#000000;fill-opacity:1;fill-rule:nonzero;stroke:none"
         d="m 0,0 c 0.068,-0.766 -1.093,-1.622 -1.677,-1.92 -0.046,-0.095 -0.109,-0.852 -0.509,-1.38 0.491,-0.527 1.707,-0.575 1.955,-0.61 3.409,-0.153 3.555,3.285 3.036,3.94 C 2.609,-0.09 2.358,0.015 2.134,-0.01 1.809,0.703 2.422,0.696 3.15,0.783 4.503,0.791 4.752,0.153 5.182,-0.34 4.777,-0.039 4.239,0.044 3.73,0.094 4.193,-1.26 3.535,-2.767 2.547,-3.688 1.888,-4.302 1.114,-4.594 0.224,-4.53 c -0.508,-0.843 -0.926,-1.881 -1.868,-2.389 -1.047,0.068 -2.434,-0.36 -3.328,0.498 l -0.065,0.863 c -2.402,-0.394 -5.371,0.407 -6.334,1.974 -0.639,0.882 -0.981,2.041 -0.658,3.081 -0.48,0.846 -2.121,-0.531 -2.318,-0.684 -0.036,0.798 1.603,2.379 3.874,1.458 0.214,-0.261 0.466,-0.366 0.356,-0.777 -0.418,-0.081 -0.696,0.184 -1.074,0.26 -0.566,-0.681 -0.51,-5.521 6.34,-4.554 1.038,0.537 2.25,1.484 2.484,2.717 -0.815,0.379 -1.766,0.509 -2.246,1.385 -0.294,0.712 0.141,1.439 0.666,1.867 C -2.737,2.052 -0.195,1.453 0,0"
         inkscape:connector-curvature="0" />
    </g>
    <g
       transform="matrix(0.81959443,0,0,-0.80204217,9.9806961,24.43822)"
       id="g7805">
      <path
         id="path7807"
         style="fill:#acb0ca;fill-opacity:1;fill-rule:nonzero;stroke:none"
         d="M 0,0 C -0.182,0.261 -0.299,0.552 -0.578,0.784 -0.195,0.772 0.186,0.758 0.42,1.069 0.281,0.724 0.047,0.413 0,0"
         inkscape:connector-curvature="0" />
    </g>
    <g
       transform="matrix(0.81959443,0,0,-0.80204217,27.262663,25.335865)"
       id="g7809">
      <path
         id="path7811"
         style="fill:#ffffff;fill-opacity:1;fill-rule:nonzero;stroke:none"
         d="M 0,0 0.284,-0.009 0,0 z"
         inkscape:connector-curvature="0" />
    </g>
    <g
       transform="matrix(0.81959443,0,0,-0.80204217,34.976765,30.122286)"
       id="g7813">
      <path
         id="path7815"
         style="fill:#ffffff;fill-opacity:1;fill-rule:nonzero;stroke:none"
         d="m 0,0 c -0.458,-0.334 -0.986,0.034 -1.465,0.051 -0.276,1.22 1.352,1.26 1.768,2.232 C 0.489,1.073 0.185,0.727 0,0"
         inkscape:connector-curvature="0" />
    </g>
    <g
       transform="matrix(0.81959443,0,0,-0.80204217,36.539077,28.769562)"
       id="g7817">
      <path
         id="path7819"
         style="fill:#ffffff;fill-opacity:1;fill-rule:nonzero;stroke:none"
         d="M 0,0 C -0.053,-0.636 -0.43,-1.388 -1.082,-1.811 L -1.464,-1.798 -1.039,0.237 0,0 z"
         inkscape:connector-curvature="0" />
    </g>
    <g
       transform="matrix(0.81959443,0,0,-0.80204217,44.176385,32.097556)"
       id="g7821">
      <path
         id="path7823"
         style="fill:#acb0ca;fill-opacity:1;fill-rule:nonzero;stroke:none"
         d="M 0,0 C -0.936,0.605 -0.401,1.289 -0.31,2.082 -0.044,2.391 0.287,1.87 0.464,2.341 0.657,1.506 0.06,0.826 0,0"
         inkscape:connector-curvature="0" />
    </g>
    <g
       transform="matrix(0.81959443,0,0,-0.80204217,20.547392,48.103994)"
       id="g7825">
      <path
         id="path7827"
         style="fill:#dce8eb;fill-opacity:1;fill-rule:nonzero;stroke:none"
         d="M 0,0 0.236,0.374 C 2.687,-0.604 1.949,-3.445 3.033,-5.299 2.719,-6.085 2.65,-7.102 1.871,-7.553 1.695,-8.024 1.388,-8.619 0.839,-8.823 c -0.451,-0.143 -0.978,0.289 -1.121,0.741 -0.115,0.354 -0.002,0.828 -0.345,1.095 -0.887,0.159 -2.197,-0.911 -2.596,0.473 -0.289,0.806 0.776,1.215 0.322,1.9 -0.499,0.304 -1.519,0.276 -1.361,1.195 0.237,1.56 1.664,1.12 1.836,1.465 -0.201,0.644 -0.524,1.42 -0.248,2.048 C -1.928,0.418 -0.58,0.722 0,0"
         inkscape:connector-curvature="0" />
    </g>
    <g
       transform="matrix(0.81959443,0,0,-0.80204217,33.97547,25.223817)"
       id="g7829">
      <path
         id="path7831"
         style="fill:#e0a5a0;fill-opacity:1;fill-rule:nonzero;stroke:none"
         d="M 0,0 C 0,0.632 0.768,1.144 1.715,1.144 2.662,1.144 3.431,0.632 3.431,0 3.431,-0.633 2.662,-1.146 1.715,-1.146 0.768,-1.146 0,-0.633 0,0"
         inkscape:connector-curvature="0" />
    </g>
    <g
       transform="matrix(0.81959443,0,0,-0.80204217,27.859735,21.107095)"
       id="g7833">
      <path
         id="path7835"
         style="fill:#ffffff;fill-opacity:1;fill-rule:nonzero;stroke:none"
         d="M 0,0 C 0,1.784 1.203,3.23 2.688,3.23 4.172,3.23 5.375,1.784 5.375,0 5.375,-0.824 5.119,-1.575 4.697,-2.146 3.379,-2.159 2.117,-2.272 0.949,-2.466 0.369,-1.873 0,-0.989 0,0"
         inkscape:connector-curvature="0" />
    </g>
    <g
       transform="matrix(0.81959443,0,0,-0.80204217,35.959623,21.089129)"
       id="g7837">
      <path
         id="path7839"
         style="fill:#ffffff;fill-opacity:1;fill-rule:nonzero;stroke:none"
         d="M 0,0 C 0,1.38 0.992,2.499 2.214,2.499 3.438,2.499 4.43,1.38 4.43,0 4.43,-1.379 3.438,-2.498 2.214,-2.498 0.992,-2.498 0,-1.379 0,0"
         inkscape:connector-curvature="0" />
    </g>
    <g
       transform="matrix(0.81959443,0,0,-0.80204217,27.859735,21.107095)"
       id="g7841">
      <path
         id="path7843"
         style="fill:#ffffff;fill-opacity:1;fill-rule:nonzero;stroke:none"
         d="M 0,0 C 0,1.784 1.203,3.23 2.688,3.23 4.172,3.23 5.375,1.784 5.375,0 5.375,-0.824 5.119,-1.575 4.697,-2.146 3.379,-2.159 2.117,-2.272 0.949,-2.466 0.369,-1.873 0,-0.989 0,0"
         inkscape:connector-curvature="0" />
    </g>
    <g
       transform="matrix(0.81959443,0,0,-0.80204217,35.959623,21.277853)"
       id="g7845">
      <path
         id="path7847"
         style="fill:#ffffff;fill-opacity:1;fill-rule:nonzero;stroke:none"
         d="M 0,0 C 0,1.51 1.013,2.734 2.262,2.734 3.512,2.734 4.524,1.51 4.524,0 4.524,-1.051 4.033,-1.964 3.314,-2.422 2.523,-2.253 1.661,-2.118 0.743,-2.027 0.286,-1.526 0,-0.805 0,0"
         inkscape:connector-curvature="0" />
    </g>
    <g
       transform="matrix(0.81959443,0,0,-0.80204217,29.351646,18.653968)"
       id="g7849">
      <path
         id="path7851"
         style="fill:#dce8eb;fill-opacity:1;fill-rule:nonzero;stroke:none"
         d="m 0,0 c 0.271,0.112 0.563,0.172 0.867,0.172 1.485,0 2.688,-1.446 2.688,-3.231 0,-0.824 -0.256,-1.575 -0.678,-2.145 -1.318,-0.014 -2.58,-0.127 -3.748,-0.32 -0.063,0.063 -0.125,0.132 -0.182,0.204 0.709,0.068 1.443,0.108 2.196,0.116 0.421,0.57 0.677,1.321 0.677,2.145 C 1.82,-1.64 1.06,-0.433 0,0"
         inkscape:connector-curvature="0" />
    </g>
    <g
       transform="matrix(0.81959443,0,0,-0.80204217,37.10255,19.251574)"
       id="g7853">
      <path
         id="path7855"
         style="fill:#dce8eb;fill-opacity:1;fill-rule:nonzero;stroke:none"
         d="m 0,0 c 0.268,0.135 0.561,0.208 0.867,0.208 1.25,0 2.263,-1.225 2.263,-2.734 0,-1.051 -0.491,-1.964 -1.21,-2.422 -0.448,0.095 -0.918,0.18 -1.409,0.252 0.539,0.5 0.885,1.285 0.885,2.17 C 1.396,-1.388 0.819,-0.412 0,0"
         inkscape:connector-curvature="0" />
    </g>
    <g
       transform="matrix(0.81959443,0,0,-0.80204217,28.091844,20.854933)"
       id="g7857">
      <path
         id="path7859"
         style="fill:#000000;fill-opacity:1;fill-rule:nonzero;stroke:none"
         d="M 0,0 C 0,0.879 0.713,1.593 1.592,1.593 2.471,1.593 3.184,0.879 3.184,0 3.184,-0.879 2.471,-1.592 1.592,-1.592 0.713,-1.592 0,-0.879 0,0"
         inkscape:connector-curvature="0" />
    </g>
    <g
       transform="matrix(0.81959443,0,0,-0.80204217,28.207898,20.457043)"
       id="g7861">
      <path
         id="path7863"
         style="fill:#ffffff;fill-opacity:1;fill-rule:nonzero;stroke:none"
         d="m 0,0 c 0,0.475 0.385,0.859 0.858,0.859 0.476,0 0.86,-0.384 0.86,-0.859 0,-0.474 -0.384,-0.857 -0.86,-0.857 C 0.385,-0.857 0,-0.474 0,0"
         inkscape:connector-curvature="0" />
    </g>
    <g
       transform="matrix(0.81959443,0,0,-0.80204217,35.804306,20.854933)"
       id="g7865">
      <path
         id="path7867"
         style="fill:#000000;fill-opacity:1;fill-rule:nonzero;stroke:none"
         d="M 0,0 C 0,0.774 0.629,1.403 1.403,1.403 2.179,1.403 2.807,0.774 2.807,0 2.807,-0.774 2.179,-1.402 1.403,-1.402 0.629,-1.402 0,-0.774 0,0"
         inkscape:connector-curvature="0" />
    </g>
    <g
       transform="matrix(0.81959443,0,0,-0.80204217,36.114855,20.342665)"
       id="g7869">
      <path
         id="path7871"
         style="fill:#ffffff;fill-opacity:1;fill-rule:nonzero;stroke:none"
         d="M 0,0 C 0,0.37 0.3,0.67 0.67,0.67 1.039,0.67 1.34,0.37 1.34,0 1.34,-0.37 1.039,-0.67 0.67,-0.67 0.3,-0.67 0,-0.37 0,0"
         inkscape:connector-curvature="0" />
    </g>
    <g
       transform="matrix(0.81959443,0,0,-0.80204217,34.699828,28.850254)"
       id="g7873">
      <path
         id="path7875"
         style="fill:#dce8eb;fill-opacity:1;fill-rule:evenodd;stroke:none"
         d="M 0,0 C 0.268,0.186 0.511,0.397 0.641,0.697 0.702,0.298 0.71,-0.007 0.687,-0.264 0.49,-0.145 0.256,-0.054 0,0"
         inkscape:connector-curvature="0" />
    </g>
    <g
       transform="matrix(0.81959443,0,0,-0.80204217,36.539077,28.769562)"
       id="g7877">
      <path
         id="path7879"
         style="fill:#dce8eb;fill-opacity:1;fill-rule:evenodd;stroke:none"
         d="m 0,0 c -0.052,-0.618 -0.41,-1.347 -1.03,-1.775 0.074,0.137 0.115,0.287 0.115,0.443 0,0.259 -0.112,0.5 -0.305,0.701 L -1.039,0.237 0,0 z"
         inkscape:connector-curvature="0" />
    </g>
    <g
       transform="matrix(0.81959443,0,0,-0.80204217,33.97547,24.999809)"
       id="g7881">
      <path
         id="path7883"
         style="fill:#edccb8;fill-opacity:1;fill-rule:nonzero;stroke:none"
         d="M 0,0 C 0,0.49 0.555,0.889 1.24,0.889 1.926,0.889 2.48,0.49 2.48,0 2.48,-0.489 1.926,-0.888 1.24,-0.888 0.555,-0.888 0,-0.489 0,0"
         inkscape:connector-curvature="0" />
    </g>
    <g
       transform="matrix(0.81959443,0,0,-0.80204217,34.36043,24.918399)"
       id="g7885">
      <path
         id="path7887"
         style="fill:#ffffff;fill-opacity:1;fill-rule:nonzero;stroke:none"
         d="M 0,0 C 0,0.286 0.255,0.519 0.57,0.519 0.885,0.519 1.139,0.286 1.139,0 1.139,-0.287 0.885,-0.521 0.57,-0.521 0.255,-0.521 0,-0.287 0,0"
         inkscape:connector-curvature="0" />
    </g>
    <g
       transform="matrix(0.81959443,0,0,-0.80204217,21.779164,12.142105)"
       id="g7889">
      <path
         id="path7891"
         style="fill:#e7bbb0;fill-opacity:1;fill-rule:nonzero;stroke:none"
         d="m 0,0 c 0.71,-1.554 1.446,-3.268 1.256,-5.077 -0.437,0.861 -1.004,1.519 -1.656,2.042 -0.203,0.527 -0.431,1.04 -0.66,1.537 -0.982,1.946 -2.908,3.352 -4.832,3.928 -1.313,0.316 -2.695,0.257 -3.837,-0.422 -0.034,0.228 -0.009,0.469 0.107,0.719 1.258,1.389 3.083,1.612 4.788,1.202 C -2.91,3.353 -0.984,1.947 0,0"
         inkscape:connector-curvature="0" />
    </g>
    <g
       transform="matrix(0.81959443,0,0,-0.80204217,45.582645,3.6791229)"
       id="g7893">
      <path
         id="path7895"
         style="fill:#acb0ca;fill-opacity:1;fill-rule:nonzero;stroke:none"
         d="M 0,0 0.009,-0.218 C -0.587,0.1 -1.256,0.261 -1.92,0.526 L -3.91,0.117 c -3.91,-1.552 -6.017,-5.333 -6.757,-9.162 -0.045,-0.356 -0.126,-0.809 -0.092,-1.241 -0.271,0.074 -0.528,0.206 -0.769,0.43 -0.779,0.537 -0.549,1.611 -0.461,2.309 0.739,3.83 2.846,7.611 6.756,9.163 l 1.989,0.408 C -2.019,1.535 -0.78,1.397 0,0"
         inkscape:connector-curvature="0" />
    </g>
    <g
       transform="matrix(0.81959443,0,0,-0.80204217,49.394087,22.718237)"
       id="g7897">
      <path
         id="path7899"
         style="fill:#7881a3;fill-opacity:1;fill-rule:nonzero;stroke:none"
         d="m 0,0 c -0.454,-0.239 -1.13,-0.407 -1.245,-1.009 -0.117,-0.6 0.056,-1.116 0.391,-1.543 0.334,-0.458 0.975,-0.352 1.457,-0.273 0.035,0.094 0.161,0.057 0.223,0.055 -0.119,-0.697 -0.054,-2.814 1.956,-3.286 0.928,0.096 2.171,0.116 2.568,1.44 0.292,-0.137 0.707,-0.363 1.124,-0.403 0.228,0.141 0.478,0.226 0.767,0.206 0.623,0.419 0.776,1.21 0.623,1.957 0.535,-0.21 0.739,-0.79 0.88,-1.273 C 8.663,-4.604 8.242,-4.813 7.854,-4.99 7.631,-4.879 7.428,-4.824 7.241,-4.813 7.194,-4.844 7.145,-4.873 7.093,-4.9 6.896,-5.012 6.685,-5.038 6.474,-5.019 5.748,-5.461 5.219,-6.462 4.294,-6.555 3.137,-6.897 1.937,-5.676 1.013,-6.6 c -2.97,-3.783 -6.27,-7.077 -9.33,-10.761 -0.617,0.594 -0.599,1.325 -1.398,1.961 4.395,-18.92 -6.86,-28.594 -6.86,-28.594 3.243,2.383 11.108,5.155 15.462,2.996 l 0.081,-0.059 c -1.235,0.345 -2.779,0.548 -4.453,0.548 -4.047,0 -7.328,-1.191 -7.328,-2.661 0,-1.213 2.227,-2.234 5.273,-2.558 0.268,-0.805 0.325,-1.668 0.054,-2.566 -1.788,-0.13 -9.827,0.502 -12.143,0.807 l -0.37,0.331 c 0.139,2.129 -0.57,3.748 -0.307,5.809 l -0.15,0.26 c 1.321,0.432 2.978,0.438 4.152,1.225 -2.482,0.054 -5.2,-0.201 -7.38,-1.494 0.023,-0.256 -0.02,-0.574 0.297,-0.647 0.675,0.166 1.288,0.4 1.936,0.695 0.162,-0.801 0.865,-5.318 0.158,-6.41 l -0.706,-0.134 c -8.226,0.766 -15.528,-1.273 -23.873,-0.312 -0.357,0.457 -0.35,1.457 -0.299,2.264 7.909,-1.44 22.506,-0.017 23.135,0.439 0.819,0.596 0,2.066 -1.041,3.482 -1.043,1.415 1.117,1.918 1.117,1.918 0,0 1.596,0.364 3.194,2.205 2.021,0.176 3.879,1.192 5.315,2.676 3.109,2.605 2.73,8.826 2.409,11.513 -0.616,2.41 -1.241,4.6 -2.6,6.75 1.806,0.638 3.589,1.5 5.072,2.882 1.145,-0.04 1.854,1.114 2.519,1.919 0.177,-0.388 0.67,-0.884 1.031,-0.578 0.593,0.52 0.526,1.351 0.772,2.044 0.218,-0.2 0.5,-0.304 0.819,-0.284 0.925,0.923 0.294,2.061 0.431,3.204 1.399,0.842 2.531,2.237 3.929,3.016 0.608,1.923 -3.604,3.567 -0.591,4.99 L 0,0 z m 1.348,-44.135 c 0.332,-0.863 0.465,-1.79 0.329,-2.695 -0.106,-0.316 -0.436,-0.622 -0.724,-0.677 l -0.318,0.012 c 0.17,0.95 0.005,1.887 -0.442,2.641 0.483,0.214 0.873,0.458 1.155,0.719 m -2.003,-1.038 c 0.221,-0.482 0.461,-0.97 0.426,-1.527 -0.15,-0.601 -0.031,-1.783 -1.08,-1.714 -1.751,0.06 -3.611,-0.32 -5.079,0.56 0.011,0.81 -0.135,1.493 -0.361,2.061 0.41,-0.026 0.833,-0.04 1.264,-0.04 1.849,0 3.54,0.249 4.83,0.66 m -46.051,-0.623 c -0.15,-0.961 0.012,-2.181 0.012,-2.181 -0.328,-0.274 -0.598,0.212 -0.982,0.194 -0.262,0.743 -0.6,1.549 -0.54,2.37 0.461,-0.144 0.967,-0.272 1.51,-0.383"
         inkscape:connector-curvature="0" />
    </g>
    <g
       transform="matrix(0.81959443,0,0,-0.80204217,10.309675,24.942621)"
       id="g7901">
      <path
         id="path7903"
         style="fill:#edccb8;fill-opacity:1;fill-rule:nonzero;stroke:none"
         d="m 0,0 c 0,0.982 0.797,1.779 1.778,1.779 0.984,0 1.78,-0.797 1.78,-1.779 0,-0.981 -0.796,-1.778 -1.78,-1.778 C 0.797,-1.778 0,-0.981 0,0"
         inkscape:connector-curvature="0" />
    </g>
    <g
       transform="matrix(0.81959443,0,0,-0.80204217,7.8661422,24.886241)"
       id="g7905">
      <path
         id="path7907"
         style="fill:#edccb8;fill-opacity:1;fill-rule:nonzero;stroke:none"
         d="m 0,0 c 0,0.635 0.514,1.148 1.149,1.148 0.635,0 1.15,-0.513 1.15,-1.148 0,-0.636 -0.515,-1.149 -1.15,-1.149 C 0.514,-1.149 0,-0.636 0,0"
         inkscape:connector-curvature="0" />
    </g>
    <g
       transform="matrix(0.81959443,0,0,-0.80204217,8.897028,22.632098)"
       id="g7909">
      <path
         id="path7911"
         style="fill:#edccb8;fill-opacity:1;fill-rule:nonzero;stroke:none"
         d="M 0,0 C 0,0.583 0.474,1.057 1.057,1.057 1.64,1.057 2.112,0.583 2.112,0 2.112,-0.583 1.64,-1.056 1.057,-1.056 0.474,-1.056 0,-0.583 0,0"
         inkscape:connector-curvature="0" />
    </g>
    <g
       transform="matrix(0.81959443,0,0,-0.80204217,10.857905,21.728998)"
       id="g7913">
      <path
         id="path7915"
         style="fill:#edccb8;fill-opacity:1;fill-rule:nonzero;stroke:none"
         d="M 0,0 C 0,0.555 0.447,1.002 1.002,1.002 1.555,1.002 2.003,0.555 2.003,0 2.003,-0.553 1.555,-1.001 1.002,-1.001 0.447,-1.001 0,-0.553 0,0"
         inkscape:connector-curvature="0" />
    </g>
    <g
       transform="matrix(0.81959443,0,0,-0.80204217,13.276692,23.398131)"
       id="g7917">
      <path
         id="path7919"
         style="fill:#edccb8;fill-opacity:1;fill-rule:nonzero;stroke:none"
         d="M 0,0 C 0,0.493 0.398,0.894 0.893,0.894 1.386,0.894 1.785,0.493 1.785,0 1.785,-0.493 1.386,-0.893 0.893,-0.893 0.398,-0.893 0,-0.493 0,0"
         inkscape:connector-curvature="0" />
    </g>
    <g
       transform="matrix(0.81959443,0,0,-0.80204217,50.537015,25.822217)"
       id="g7921">
      <path
         id="path7923"
         style="fill:#edccb8;fill-opacity:1;fill-rule:nonzero;stroke:none"
         d="M 0,0 C 0,1.034 0.839,1.872 1.871,1.872 2.905,1.872 3.743,1.034 3.743,0 3.743,-1.033 2.905,-1.872 1.871,-1.872 0.839,-1.872 0,-1.033 0,0"
         inkscape:connector-curvature="0" />
    </g>
    <g
       transform="matrix(0.81959443,0,0,-0.80204217,48.804962,23.889218)"
       id="g7925">
      <path
         id="path7927"
         style="fill:#edccb8;fill-opacity:1;fill-rule:nonzero;stroke:none"
         d="M 0,0 C 0,0.54 0.439,0.978 0.979,0.978 1.52,0.978 1.958,0.54 1.958,0 1.958,-0.541 1.52,-0.979 0.979,-0.979 0.439,-0.979 0,-0.541 0,0"
         inkscape:connector-curvature="0" />
    </g>
    <g
       transform="matrix(0.81959443,0,0,-0.80204217,51.147691,22.931259)"
       id="g7929">
      <path
         id="path7931"
         style="fill:#edccb8;fill-opacity:1;fill-rule:nonzero;stroke:none"
         d="M 0,0 C 0,0.559 0.453,1.011 1.011,1.011 1.567,1.011 2.019,0.559 2.019,0 2.019,-0.557 1.567,-1.009 1.011,-1.009 0.453,-1.009 0,-0.557 0,0"
         inkscape:connector-curvature="0" />
    </g>
    <g
       transform="matrix(0.81959443,0,0,-0.80204217,53.108653,23.492131)"
       id="g7933">
      <path
         id="path7935"
         style="fill:#edccb8;fill-opacity:1;fill-rule:nonzero;stroke:none"
         d="M 0,0 C 0,0.559 0.451,1.011 1.009,1.011 1.567,1.011 2.02,0.559 2.02,0 2.02,-0.557 1.567,-1.009 1.009,-1.009 0.451,-1.009 0,-0.557 0,0"
         inkscape:connector-curvature="0" />
    </g>
    <g
       transform="matrix(0.81959443,0,0,-0.80204217,53.949065,25.541027)"
       id="g7937">
      <path
         id="path7939"
         style="fill:#edccb8;fill-opacity:1;fill-rule:nonzero;stroke:none"
         d="M 0,0 C 0,0.546 0.441,0.986 0.985,0.986 1.529,0.986 1.972,0.546 1.972,0 1.972,-0.544 1.529,-0.985 0.985,-0.985 0.441,-0.985 0,-0.544 0,0"
         inkscape:connector-curvature="0" />
    </g>
    <g
       transform="matrix(0.81959443,0,0,-0.80204217,48.884221,23.835161)"
       id="g7941">
      <path
         id="path7943"
         style="fill:#f3dcca;fill-opacity:1;fill-rule:nonzero;stroke:none"
         d="M 0,0 C 0,0.364 0.297,0.659 0.66,0.659 1.024,0.659 1.319,0.364 1.319,0 1.319,-0.364 1.024,-0.66 0.66,-0.66 0.297,-0.66 0,-0.364 0,0"
         inkscape:connector-curvature="0" />
    </g>
    <g
       transform="matrix(0.81959443,0,0,-0.80204217,51.270224,22.946979)"
       id="g7945">
      <path
         id="path7947"
         style="fill:#f3dcca;fill-opacity:1;fill-rule:nonzero;stroke:none"
         d="M 0,0 C 0,0.397 0.324,0.721 0.723,0.721 1.12,0.721 1.442,0.397 1.442,0 1.442,-0.398 1.12,-0.722 0.723,-0.722 0.324,-0.722 0,-0.398 0,0"
         inkscape:connector-curvature="0" />
    </g>
    <g
       transform="matrix(0.81959443,0,0,-0.80204217,50.96361,25.450955)"
       id="g7949">
      <path
         id="path7951"
         style="fill:#f3dcca;fill-opacity:1;fill-rule:nonzero;stroke:none"
         d="M 0,0 C 0,0.625 0.509,1.132 1.134,1.132 1.758,1.132 2.265,0.625 2.265,0 2.265,-0.625 1.758,-1.132 1.134,-1.132 0.509,-1.132 0,-0.625 0,0"
         inkscape:connector-curvature="0" />
    </g>
    <g
       transform="matrix(0.81959443,0,0,-0.80204217,53.288714,23.376149)"
       id="g7953">
      <path
         id="path7955"
         style="fill:#f3dcca;fill-opacity:1;fill-rule:nonzero;stroke:none"
         d="M 0,0 C 0,0.337 0.273,0.609 0.609,0.609 0.946,0.609 1.22,0.337 1.22,0 1.22,-0.336 0.946,-0.61 0.609,-0.61 0.273,-0.61 0,-0.336 0,0"
         inkscape:connector-curvature="0" />
    </g>
    <g
       transform="matrix(0.81959443,0,0,-0.80204217,54.206831,25.411013)"
       id="g7957">
      <path
         id="path7959"
         style="fill:#f3dcca;fill-opacity:1;fill-rule:nonzero;stroke:none"
         d="m 0,0 c 0,0.364 0.294,0.659 0.658,0.659 0.364,0 0.66,-0.295 0.66,-0.659 0,-0.364 -0.296,-0.66 -0.66,-0.66 C 0.294,-0.66 0,-0.364 0,0"
         inkscape:connector-curvature="0" />
    </g>
    <g
       transform="matrix(0.81959443,0,0,-0.80204217,7.8581102,24.825201)"
       id="g7961">
      <path
         id="path7963"
         style="fill:#f3dcca;fill-opacity:1;fill-rule:nonzero;stroke:none"
         d="M 0,0 C 0,0.434 0.352,0.784 0.784,0.784 1.217,0.784 1.569,0.434 1.569,0 1.569,-0.433 1.217,-0.784 0.784,-0.784 0.352,-0.784 0,-0.433 0,0"
         inkscape:connector-curvature="0" />
    </g>
    <g
       transform="matrix(0.81959443,0,0,-0.80204217,10.271239,24.802424)"
       id="g7965">
      <path
         id="path7967"
         style="fill:#f3dcca;fill-opacity:1;fill-rule:nonzero;stroke:none"
         d="M 0,0 C 0,0.673 0.544,1.217 1.216,1.217 1.889,1.217 2.433,0.673 2.433,0 2.433,-0.672 1.889,-1.216 1.216,-1.216 0.544,-1.216 0,-0.672 0,0"
         inkscape:connector-curvature="0" />
    </g>
    <g
       transform="matrix(0.81959443,0,0,-0.80204217,8.9466102,22.595287)"
       id="g7969">
      <path
         id="path7971"
         style="fill:#f3dcca;fill-opacity:1;fill-rule:nonzero;stroke:none"
         d="m 0,0 c 0,0.369 0.299,0.669 0.668,0.669 0.37,0 0.669,-0.3 0.669,-0.669 0,-0.37 -0.299,-0.669 -0.669,-0.669 C 0.299,-0.669 0,-0.37 0,0"
         inkscape:connector-curvature="0" />
    </g>
    <g
       transform="matrix(0.81959443,0,0,-0.80204217,10.893147,21.642859)"
       id="g7973">
      <path
         id="path7975"
         style="fill:#f3dcca;fill-opacity:1;fill-rule:nonzero;stroke:none"
         d="M 0,0 C 0,0.384 0.311,0.693 0.693,0.693 1.075,0.693 1.385,0.384 1.385,0 1.385,-0.382 1.075,-0.692 0.693,-0.692 0.311,-0.692 0,-0.382 0,0"
         inkscape:connector-curvature="0" />
    </g>
    <g
       transform="matrix(0.81959443,0,0,-0.80204217,13.455199,23.224967)"
       id="g7977">
      <path
         id="path7979"
         style="fill:#f3dcca;fill-opacity:1;fill-rule:nonzero;stroke:none"
         d="M 0,0 C 0,0.319 0.259,0.577 0.578,0.577 0.896,0.577 1.155,0.319 1.155,0 1.155,-0.317 0.896,-0.576 0.578,-0.576 0.259,-0.576 0,-0.317 0,0"
         inkscape:connector-curvature="0" />
    </g>
    <g
       transform="matrix(0.81959443,0,0,-0.80204217,22.287477,54.012799)"
       id="g7981">
      <path
         id="path7983"
         style="fill:#ffffff;fill-opacity:1;fill-rule:nonzero;stroke:none"
         d="m 0,0 c -0.075,-0.068 -0.158,-0.131 -0.252,-0.186 -0.176,-0.471 -0.483,-1.066 -1.032,-1.27 -0.451,-0.143 -0.978,0.289 -1.121,0.741 -0.116,0.355 -0.002,0.828 -0.345,1.095 -0.887,0.159 -2.197,-0.911 -2.596,0.474 -0.289,0.805 0.776,1.214 0.322,1.899 -0.499,0.305 -1.519,0.276 -1.361,1.195 0.237,1.56 1.664,1.12 1.836,1.465 -0.201,0.645 -0.524,1.42 -0.248,2.048 0.602,0.262 1.595,0.509 2.261,0.217 C -2.523,7.195 -2.323,6.682 -2.184,6.23 -2.354,5.887 -3.782,6.326 -4.018,4.767 -4.178,3.848 -3.157,3.875 -2.658,3.571 -2.203,2.886 -3.27,2.478 -2.979,1.67 -2.582,0.287 -1.27,1.356 -0.383,1.198 -0.043,0.932 -0.154,0.457 -0.039,0.103 -0.029,0.068 -0.016,0.034 0,0"
         inkscape:connector-curvature="0" />
    </g>
  </g>
</svg>
