<?xml version="1.0" encoding="UTF-8" standalone="no"?>
<!-- Created with Inkscape (http://www.inkscape.org/) -->

<svg
   xmlns:dc="http://purl.org/dc/elements/1.1/"
   xmlns:cc="http://creativecommons.org/ns#"
   xmlns:rdf="http://www.w3.org/1999/02/22-rdf-syntax-ns#"
   xmlns:svg="http://www.w3.org/2000/svg"
   xmlns="http://www.w3.org/2000/svg"
   xmlns:sodipodi="http://sodipodi.sourceforge.net/DTD/sodipodi-0.dtd"
   xmlns:inkscape="http://www.inkscape.org/namespaces/inkscape"
   width="64px"
   height="64px"
   id="svg173711"
   version="1.1"
   inkscape:version="0.48.5 r10040"
   sodipodi:docname="Nowy dokument 36">
  <defs
     id="defs173713" />
  <sodipodi:namedview
     id="base"
     pagecolor="#ffffff"
     bordercolor="#666666"
     borderopacity="1.0"
     inkscape:pageopacity="0.0"
     inkscape:pageshadow="2"
     inkscape:zoom="5.5"
     inkscape:cx="32"
     inkscape:cy="32"
     inkscape:current-layer="layer1"
     showgrid="true"
     inkscape:document-units="px"
     inkscape:grid-bbox="true"
     inkscape:window-width="1366"
     inkscape:window-height="706"
     inkscape:window-x="-8"
     inkscape:window-y="-8"
     inkscape:window-maximized="1" />
  <metadata
     id="metadata173716">
    <rdf:RDF>
      <cc:Work
         rdf:about="">
        <dc:format>image/svg+xml</dc:format>
        <dc:type
           rdf:resource="http://purl.org/dc/dcmitype/StillImage" />
        <dc:title></dc:title>
      </cc:Work>
    </rdf:RDF>
  </metadata>
  <g
     id="layer1"
     inkscape:label="Layer 1"
     inkscape:groupmode="layer">
    <g
       transform="matrix(0.5985402,0,0,-0.5985402,45.075633,15.283619)"
       id="g5137">
      <path
         id="path5139"
         style="fill:#000000;fill-opacity:1;fill-rule:nonzero;stroke:none"
         d="M 0,0 C 0.737,0.93 1.949,1.989 3.105,2.023 3.75,1.209 2.938,0.002 2.731,-0.956 3.846,-1.14 5.643,-0.827 6.5,-1.746 6.551,-2.562 5.635,-2.763 5.088,-3.046 l 1.797,-1.5 c 1.443,2.548 4.336,3.488 7.143,3.436 2.566,-0.509 4.423,-3.2 4.954,-5.569 0.865,-7.559 -6.027,-8.335 -8.21,-8.282 -1.714,-5.906 -4.901,-11.299 -10.261,-15.266 0.44,-1.741 1.321,-3.378 0.938,-5.294 4.192,0.686 8.543,2.706 12.989,1.723 3.378,1.291 7.89,2.772 11.08,-0.143 1.079,-1.462 0.943,-3.454 0.914,-5.201 -0.371,-0.512 -1.059,0.056 -1.578,-0.293 -1.987,-0.988 -4.626,-0.1 -6.637,-0.932 -0.295,-0.859 -0.114,-2.179 -1.246,-2.338 -1.088,-0.476 -2.654,0.638 -3.27,-0.423 -10.314,-0.147 -19.429,-0.043 -29.869,0.348 0.049,-0.221 -0.205,-0.957 -0.205,-0.957 -4.183,0.092 -8.566,0.449 -12.572,0.283 1.79,-1.592 4.56,-3.549 4.762,-6.245 0.294,-2.139 -1.337,-3.459 -2.917,-4.407 -6.601,-3.214 -13.466,0.456 -18.502,4.499 -2.359,1.435 -8.374,0.501 -8.374,0.501 -12.151,-4.239 -16.499,-0.198 -17.129,2.084 -1.567,7.576 7.195,12.147 9.363,13.001 0.062,6.554 6.059,14.785 9.357,17.061 4.2,3.277 10.34,3.61 15.055,1.24 3.822,-1.574 6.773,-4.851 10.879,-5.755 l 1.732,0.285 c 0.137,1.992 1.625,3.599 3.381,4.321 -0.799,2.04 -0.757,4.629 -0.233,6.85 -2.113,0.236 -3.774,1.915 -4.843,3.534 -0.534,1.151 -0.655,5.642 2.392,6.931 2.063,0.643 4.548,0.356 6.223,-1.012 0.87,-0.703 1.567,-1.738 2.045,-2.731 1.6,0.759 3.314,1.263 5.108,1.544 -0.249,0.638 -1.25,0.596 -1.645,1.366 -0.068,0.503 3.701,0.931 5.017,0.394 -0.411,1.114 -1.527,1.858 -2.38,2.841 C -9.864,3.608 -5.08,4.332 0,0 m -54.545,-42.705 c 0,0 -5.541,-0.834 -7,1.116 -0.041,-0.747 -0.324,-4.322 7,-1.116"
         inkscape:connector-curvature="0" />
    </g>
    <g
       transform="matrix(0.5985402,0,0,-0.5985402,18.233078,24.23245)"
       id="g5141">
      <path
         id="path5143"
         style="fill:#f5d75c;fill-opacity:1;fill-rule:nonzero;stroke:none"
         d="m 0,0 c -0.034,-1.216 0.24,-2.573 1.401,-3.071 0.735,-0.289 1.667,-0.369 2.356,0.251 0.438,0.632 0.881,1.328 0.864,2.203 2.466,-0.597 4.583,-1.926 6.733,-3.195 -0.53,-1.19 -1.511,-2.637 -0.905,-4.168 0.828,-2.666 3.806,-3.073 5.937,-4.122 1.041,0.143 1.59,0.541 1.845,1.247 0.932,1.107 -0.742,4.317 1.792,3.81 0.013,-2.749 1.119,-5.492 3.537,-7.025 1.531,-1.173 3.408,-1.677 5.255,-2.212 0.989,-1.989 3.131,-2.819 5.03,-2.949 l -0.135,-1.368 c -0.738,-0.366 -1.67,-0.286 -2.296,-0.909 -0.122,-0.524 0.068,-1.097 0.29,-1.608 0.285,-0.514 2.44,0.09 2.727,-0.423 2.382,-0.407 4.596,0.133 6.718,0.678 -0.089,-0.495 -0.157,-1.21 0.354,-1.58 1.721,-1.747 8.506,-0.977 8.915,-0.312 0.444,1.319 0.118,2.836 0.009,4.341 3.125,0.617 7.174,2.184 10.111,-0.155 1.786,-1.687 1.838,-4.25 1.221,-6.497 -0.744,0.131 -1.696,-0.163 -2.399,0.125 0.311,1.139 -0.771,3.726 -0.917,3.92 -0.447,-0.164 0.426,-3.145 -0.227,-4.328 -1.695,-0.161 -3.359,-0.294 -5.16,-0.105 -0.258,0.42 -0.478,0.994 -1.002,1.114 -0.682,0.13 -1.621,-1.102 -1.84,-1.121 -3.898,0.11 -7.666,-0.316 -11.555,0.012 -0.208,0.792 -0.433,1.835 -1.388,2.103 -1.192,0.499 -4.231,-1.466 -4.002,-1.884 -1.416,-0.206 -2.87,0.058 -4.278,0.007 0.166,1.99 0.106,4.429 -1.556,6.077 0.654,0.529 1.928,1.024 1.703,2.066 -0.6,1.093 -3.912,1.641 -4.367,1.291 -0.34,-0.513 -0.286,-1.265 -0.469,-1.787 -4.576,0.271 -9.037,-0.806 -13.283,-1.989 L 6.61,-22.832 c 10.604,11.475 -1.581,19.29 -2.009,18.844 10.656,-7.807 2.38,-18.991 -0.612,-19.987 l 8.663,2.014 c 0.047,-0.909 -0.786,-2.489 0.654,-3.033 1.511,-0.36 3.642,-0.816 4.75,0.657 0.222,1.268 -0.032,2.375 -0.731,3.348 0.862,0.33 1.987,0.365 2.962,0.501 -0.123,-0.556 0.119,-1.317 0.433,-1.896 0.535,-0.497 1.318,-0.444 1.926,-0.164 0.559,0.533 0.854,1.392 0.58,2.125 1.815,0.061 3.57,-1 4.423,-2.606 0.705,-1.442 0.52,-3.181 0.43,-4.894 l -2.935,-0.001 c 0.253,1.266 -0.399,4.298 -0.575,4.526 -0.183,0.072 0.034,-2.937 -0.235,-4.484 -3.245,0.045 -6.48,0.308 -9.456,0.121 -5.783,3.488 -14.699,3.768 -20.921,1.252 -0.884,-0.172 -2.231,-0.338 -3.034,-0.732 -2.162,-0.139 -5.119,0.097 -6.617,0.707 -0.607,0.937 0.341,1.731 0.207,2.767 2.317,0.098 4.983,-0.26 7.016,0.976 0.984,0.886 -0.282,7.136 -1.82,8.184 -1.721,0.528 -3.432,0.055 -5.096,-0.107 0.941,3.043 2.43,5.837 4.558,8.317 -0.203,-1.487 -0.119,-2.866 0.855,-3.948 1.028,-1.166 8.976,-0.22 9.169,2.143 C -0.627,-5.4 -2.579,-3.3 -3.733,-0.928 -2.581,-0.364 -1.263,-0.245 0,0"
         inkscape:connector-curvature="0" />
    </g>
    <g
       transform="matrix(0.5985402,0,0,-0.5985402,18.233078,24.23245)"
       id="g5145">
      <path
         id="path5147"
         style="fill:#fbea98;fill-opacity:1;fill-rule:nonzero;stroke:none"
         d="m 0,0 c -0.034,-1.216 0.24,-2.573 1.401,-3.071 0.735,-0.289 1.667,-0.369 2.356,0.251 0.438,0.632 0.881,1.328 0.864,2.203 2.466,-0.597 4.583,-1.926 6.733,-3.195 -0.53,-1.19 -1.511,-2.637 -0.905,-4.168 0.828,-2.666 3.806,-3.073 5.937,-4.122 1.041,0.143 1.59,0.541 1.845,1.247 0.932,1.107 -0.742,4.317 1.792,3.81 0.007,-1.598 0.383,-3.192 1.171,-4.548 -1.853,-0.312 -3.707,-0.566 -4.922,-0.587 -2.501,-0.045 -4.751,0.739 -5.677,1.113 -1.278,4.658 -5.738,7.345 -5.994,7.079 10.656,-7.807 2.38,-18.991 -0.612,-19.987 l 8.663,2.014 c 0.029,-0.531 -0.246,-1.291 -0.19,-1.941 -2.566,-0.334 -5.129,-0.708 -7.216,-1.024 -1.472,0.111 -2.961,0.104 -4.418,-0.017 1.032,3.085 4.629,15.144 -1.64,16.692 C -0.627,-5.4 -2.579,-3.3 -3.733,-0.928 -2.581,-0.364 -1.263,-0.245 0,0 m 18.128,-23.243 c -0.041,0.824 -0.313,1.571 -0.803,2.254 0.862,0.33 1.987,0.365 2.962,0.501 -0.123,-0.556 0.119,-1.317 0.433,-1.896 0.535,-0.497 1.318,-0.444 1.926,-0.164 0.559,0.533 0.854,1.392 0.58,2.125 1.815,0.061 3.57,-1 4.423,-2.606 0.705,-1.442 0.52,-3.181 0.43,-4.894 l -1.497,-0.001 c 0.138,1.914 -0.194,4.717 -3.266,4.928 -1.115,0.076 -2.985,-0.034 -5.188,-0.247 m -32.158,11.969 c 0.842,1.733 1.902,3.364 3.201,4.877 -0.18,-1.325 -0.133,-2.563 0.567,-3.582 -1.488,-0.465 -2.731,-0.897 -3.768,-1.295"
         inkscape:connector-curvature="0" />
    </g>
    <g
       transform="matrix(0.5985402,0,0,-0.5985402,45.280214,15.687508)"
       id="g5149">
      <path
         id="path5151"
         style="fill:#f5d75c;fill-opacity:1;fill-rule:nonzero;stroke:none"
         d="M 0,0 C 0.5,0.631 1.324,1.463 2.125,1.826 L 1.393,-0.821 c 0,0 2.857,-0.307 3.88,-0.454 -0.462,-0.476 -1.154,-0.565 -1.554,-1.042 0.325,-0.954 2.67,-2.702 3.079,-2.629 1.071,2.566 3.887,3.855 6.567,3.716 2.074,-0.296 3.555,-2.466 4.271,-4.285 -0.847,-0.08 -1.773,-0.468 -2.157,-1.229 -0.549,-1.807 1.38,-2.852 1.993,-3.103 -0.011,-0.811 -1.013,-1.447 -1.601,-1.946 -0.51,0.401 -1.207,0.813 -1.85,0.473 -0.8,-0.365 -0.751,-1.242 -0.754,-1.898 -1.076,-0.256 -2.234,-0.289 -3.322,-0.201 -1.574,-6.285 -5.675,-11.163 -5.675,-11.163 -0.571,1.029 -1.546,1.486 -2.707,1.392 -0.597,-0.064 -1.208,-0.407 -1.485,-0.954 -0.064,-0.621 0.193,-1.072 0.382,-1.613 0.442,-0.491 0.987,-0.833 1.601,-1.052 -3.917,-3.823 -9.083,-6.456 -14.481,-5.767 -1.071,0.399 -2.076,0.889 -2.836,1.896 4.844,-0.534 9.365,1.103 12.192,4.984 0.648,1.058 0.71,2.836 -0.016,3.873 l -0.868,0.731 c 0.731,0.868 2.307,0.536 3.283,1.266 -1.192,0.5 -2.779,0.02 -3.991,-0.479 -0.781,-0.584 -1.614,-0.976 -1.76,-2 0.172,-0.29 0.535,-0.496 0.738,-0.195 0.24,0.395 0.572,0.752 0.963,1.074 0.517,-0.276 1.043,-0.96 1.199,-1.561 0.366,-1.955 -1.142,-3.314 -2.418,-4.433 -2.977,-1.969 -6.503,-3.095 -10.228,-2.088 -1.496,2.137 -1.081,4.991 -1.081,4.991 2.194,-0.426 4.722,0.721 6.837,1.735 1.224,0.717 2.693,1.357 3.51,2.659 0.608,2.652 1.195,5.494 1.485,8.041 0.483,-0.307 1.172,-0.249 1.586,-0.709 0.483,-0.931 1.184,-1.842 2.231,-2.114 1.787,-0.468 3.662,0.936 4.342,2.361 0.881,1.678 2.305,0.995 2.472,1.903 -0.269,0.858 -1.118,1.338 -1.958,1.382 -0.594,1.188 -1.449,2.763 -2.905,2.995 -2.783,0.521 -4.033,-2.506 -5.824,-3.88 -0.078,0.879 -0.595,1.749 -1.306,2.473 -0.788,0.48 -1.612,0.834 -2.507,0.413 -0.385,-0.167 -0.773,-0.428 -1.103,-0.754 -0.189,1.165 -1.369,1.883 -2.35,2.216 -0.861,0.294 -1.656,-0.007 -2.365,-0.407 -1.425,-0.987 -1.554,-2.855 -3.301,-3.418 -0.357,-0.233 -0.095,-0.62 0.014,-0.907 0.906,-0.579 1.947,-0.977 2.58,-2.008 l -5.256,-3.16 -0.361,1.455 c 0.836,-0.168 1.473,0.672 1.94,1.24 0.123,0.557 -0.03,1.221 -0.505,1.683 -0.459,0.179 -0.81,0.635 -1.41,0.51 -0.101,0.444 -0.029,1.219 0.152,1.71 -1.198,0.968 -2.851,1.025 -3.839,2.45 0.664,0.714 0.766,1.491 0.658,2.432 -0.504,0.495 -0.959,1.362 -1.877,1.099 0.084,1.588 1.067,3.066 2.567,3.675 5.263,1.347 7.375,-4.072 7.375,-4.072 2.017,0.988 4.179,1.687 6.47,1.91 0.446,0.164 -0.975,1.643 -1.621,1.833 1.547,0.326 3.629,-0.47 4.89,0.337 -0.23,1.011 -1.363,2.008 -2.103,2.796 1.918,0.242 3.463,-0.68 5.088,-1.234 C -2.538,1.633 -0.219,0.012 0,0"
         inkscape:connector-curvature="0" />
    </g>
    <g
       transform="matrix(0.5985402,0,0,-0.5985402,43.489855,16.466631)"
       id="g5153">
      <path
         id="path5155"
         style="fill:#fbea98;fill-opacity:1;fill-rule:nonzero;stroke:none"
         d="M 0,0 C -1.093,1.865 -3.759,3.59 -5.706,4.668 -3.8,4.898 -2.265,3.98 -0.646,3.43 0.453,2.935 2.772,1.313 2.991,1.302 3.491,1.933 4.315,2.765 5.116,3.128 L 4.384,0.48 c 0,0 2.857,-0.306 3.881,-0.454 C 7.802,-0.449 7.11,-0.538 6.71,-1.016 7.035,-1.97 9.38,-3.717 9.789,-3.645 c 1.071,2.567 3.887,3.856 6.567,3.716 2.075,-0.296 3.555,-2.466 4.271,-4.284 -0.847,-0.08 -1.773,-0.469 -2.156,-1.229 -0.55,-1.807 1.38,-2.852 1.992,-3.103 -0.011,-0.811 -1.013,-1.447 -1.601,-1.946 -0.509,0.401 -1.207,0.812 -1.849,0.472 -0.801,-0.364 -0.752,-1.241 -0.755,-1.897 -1.075,-0.256 -2.234,-0.289 -3.321,-0.201 -1.575,-6.285 -5.676,-11.163 -5.676,-11.163 -0.571,1.029 -1.546,1.486 -2.706,1.391 -0.598,-0.063 -1.208,-0.406 -1.486,-0.953 -0.064,-0.621 0.193,-1.072 0.382,-1.613 0.443,-0.491 0.987,-0.833 1.601,-1.052 -1.608,-1.57 -3.427,-2.939 -5.387,-3.961 -1.872,0.453 -2.047,1.724 -1.703,2.948 0.719,0.612 1.378,1.32 1.965,2.125 0.648,1.059 0.71,2.836 -0.016,3.874 l -0.868,0.731 c 0.731,0.868 2.308,0.536 3.283,1.266 -1.192,0.5 -2.779,0.02 -3.991,-0.479 -0.78,-0.584 -1.613,-0.976 -1.76,-2 0.172,-0.29 0.535,-0.496 0.738,-0.195 0.241,0.394 0.572,0.752 0.963,1.074 0.517,-0.276 1.043,-0.96 1.2,-1.562 0.365,-1.955 -1.143,-3.313 -2.418,-4.432 -0.688,-0.453 -1.401,-0.861 -2.142,-1.211 -4.82,-0.318 -5.694,2.204 -5.661,4.46 1.15,0.36 2.291,0.89 3.33,1.389 0.539,0.316 1.127,0.619 1.687,0.967 l 0.084,-0.003 c 0,0 1.543,1.885 4.036,2.842 3.856,1.481 3.595,3.236 3.688,3.979 1.562,-0.02 3.066,1.21 3.659,2.453 0.881,1.678 2.305,0.995 2.472,1.903 C 7.942,-8.481 7.093,-8.001 6.253,-7.957 5.659,-6.77 4.805,-5.194 3.349,-4.962 2.683,-4.838 2.106,-4.916 1.587,-5.126 1.194,-2.996 0.642,-1.091 0,0"
         inkscape:connector-curvature="0" />
    </g>
    <g
       transform="matrix(0.5985402,0,0,-0.5985402,42.044324,16.788709)"
       id="g5157">
      <path
         id="path5159"
         style="fill:#000000;fill-opacity:1;fill-rule:nonzero;stroke:none"
         d="m 0,0 c 0.143,-0.288 0.506,-0.495 0.328,-0.892 -0.896,-0.421 -1.877,-1.275 -2.87,-0.536 -0.36,0.239 -0.687,0.63 -0.629,1.094 C -2.406,0.563 -0.898,0.734 0,0"
         inkscape:connector-curvature="0" />
    </g>
    <g
       transform="matrix(0.5985402,0,0,-0.5985402,45.823808,17.435787)"
       id="g5161">
      <path
         id="path5163"
         style="fill:#000000;fill-opacity:1;fill-rule:nonzero;stroke:none"
         d="m 0,0 c -0.015,-0.278 0.311,-0.608 -0.043,-0.809 -0.494,-0.473 -1.367,-0.46 -2.047,-0.33 -0.457,0.243 -1.029,0.617 -1.125,1.183 -0.156,0.602 0.562,0.565 0.856,0.83 C -1.473,1.108 -0.354,1.019 0,0"
         inkscape:connector-curvature="0" />
    </g>
    <g
       transform="matrix(0.5985402,0,0,-0.5985402,39.789264,17.736196)"
       id="g5165">
      <path
         id="path5167"
         style="fill:#000000;fill-opacity:1;fill-rule:nonzero;stroke:none"
         d="M 0,0 C 0.072,-0.408 -0.168,-0.834 -0.438,-1.193 -1.18,-1.654 -2.121,-1.73 -2.91,-1.283 -3.135,-0.834 -3.563,-0.655 -3.375,-0.041 -2.551,0.79 -0.646,1.408 0,0"
         inkscape:connector-curvature="0" />
    </g>
    <g
       transform="matrix(0.5985402,0,0,-0.5985402,34.130066,18.018526)"
       id="g5169">
      <path
         id="path5171"
         style="fill:#774019;fill-opacity:1;fill-rule:nonzero;stroke:none"
         d="m 0,0 c 0.033,-0.533 0.416,-0.99 0.139,-1.507 -0.768,-0.334 -1.532,-1.199 -2.19,-1.852 -1.728,0.722 -2.543,2.757 -2.279,3.586 0.219,0.582 0.632,1.341 1.324,1.43 C -1.786,1.686 -0.436,1.241 0,0"
         inkscape:connector-curvature="0" />
    </g>
    <g
       transform="matrix(0.5985402,0,0,-0.5985402,33.988572,18.197968)"
       id="g5173">
      <path
         id="path5175"
         style="fill:#edccb8;fill-opacity:1;fill-rule:nonzero;stroke:none"
         d="m 0,0 c 0.705,-1.442 -1.366,-1.677 -1.947,-2.584 -0.808,0.667 -1.674,1.431 -1.901,2.473 0.032,0.561 0.272,0.985 0.545,1.408 C -2.098,2.296 -0.465,1.242 0,0"
         inkscape:connector-curvature="0" />
    </g>
    <g
       transform="matrix(0.5985402,0,0,-0.5985402,53.932172,20.009931)"
       id="g5177">
      <path
         id="path5179"
         style="fill:#774019;fill-opacity:1;fill-rule:nonzero;stroke:none"
         d="m 0,0 c 0.121,-1.286 -0.864,-2.203 -1.932,-2.896 -0.826,-0.269 -1.515,-0.889 -2.449,-0.839 0.34,1.698 -0.774,3.099 -1.321,4.565 0.681,1.088 1.862,1.589 2.997,1.78 C -2.332,2.589 -0.502,2.637 0,0"
         inkscape:connector-curvature="0" />
    </g>
    <g
       transform="matrix(0.5985402,0,0,-0.5985402,43.46352,18.601265)"
       id="g5181">
      <path
         id="path5183"
         style="fill:#000000;fill-opacity:1;fill-rule:nonzero;stroke:none"
         d="m 0,0 c 0.009,-0.438 -0.514,-0.878 -0.869,-1.079 -0.455,-0.351 -1.26,-0.214 -1.718,-0.003 -0.483,0.307 -0.735,0.85 -0.675,1.409 0.648,0.435 1.549,0.949 2.429,0.466 C -0.532,0.59 -0.169,0.352 0,0"
         inkscape:connector-curvature="0" />
    </g>
    <g
       transform="matrix(0.5985402,0,0,-0.5985402,53.562753,19.579159)"
       id="g5185">
      <path
         id="path5187"
         style="fill:#edccb8;fill-opacity:1;fill-rule:nonzero;stroke:none"
         d="m 0,0 c 0.254,-0.481 0.314,-1.141 0.13,-1.662 -0.629,-1.278 -3.56,-2.374 -3.56,-2.374 0.396,1.571 -0.633,2.812 -1.22,4.124 0.621,1.122 1.886,1.431 3.004,1.278 C -1.073,0.993 -0.34,0.674 0,0"
         inkscape:connector-curvature="0" />
    </g>
    <g
       transform="matrix(0.5985402,0,0,-0.5985402,48.892462,19.521282)"
       id="g5189">
      <path
         id="path5191"
         style="fill:#000000;fill-opacity:1;fill-rule:nonzero;stroke:none"
         d="m 0,0 c 0.278,-0.64 -0.219,-1.175 -0.814,-1.238 -0.665,-0.153 -1.166,0.405 -1.358,0.915 -0.197,0.416 0.043,0.841 0.432,1.1 0.111,0.339 0.382,0.107 0.607,0.25 C -0.637,0.971 -0.031,0.596 0,0"
         inkscape:connector-curvature="0" />
    </g>
    <g
       transform="matrix(0.5985402,0,0,-0.5985402,38.632526,20.908938)"
       id="g5193">
      <path
         id="path5195"
         style="fill:#ffffff;fill-opacity:1;fill-rule:nonzero;stroke:none"
         d="m 0,0 c -1.155,-1.188 -2.487,-2.181 -3.823,-3.235 -0.531,0.028 -0.908,0.547 -1.24,0.814 -0.293,0.953 -0.112,5.83 3.813,4.204 C -0.589,1.28 -0.276,0.701 0,0"
         inkscape:connector-curvature="0" />
    </g>
    <g
       transform="matrix(0.5985402,0,0,-0.5985402,41.467451,21.019966)"
       id="g5197">
      <path
         id="path5199"
         style="fill:#f5d75c;fill-opacity:1;fill-rule:nonzero;stroke:none"
         d="m 0,0 c 0.985,-3.237 0.063,-6.53 -0.759,-9.704 -3.457,2.523 -8.76,2.677 -12.985,2.492 3.556,2.312 7.598,4.349 10.097,7.934 0.457,0.382 0.943,0.732 1.539,0.762 C -1.265,1.472 -0.392,0.863 0,0"
         inkscape:connector-curvature="0" />
    </g>
    <g
       transform="matrix(0.5985402,0,0,-0.5985402,33.982768,20.796111)"
       id="g5201">
      <path
         id="path5203"
         style="fill:#000000;fill-opacity:1;fill-rule:nonzero;stroke:none"
         d="m 0,0 c 0.162,-0.509 -0.502,-0.66 -0.641,-0.935 -0.283,-0.046 -0.76,-0.21 -0.896,0.172 -0.174,0.26 -0.258,0.483 -0.274,0.764 0.238,0.332 0.582,0.346 0.871,0.485 C -0.568,0.436 -0.266,0.264 0,0"
         inkscape:connector-curvature="0" />
    </g>
    <g
       transform="matrix(0.5985402,0,0,-0.5985402,50.280118,22.996225)"
       id="g5205">
      <path
         id="path5207"
         style="fill:#000000;fill-opacity:1;fill-rule:nonzero;stroke:none"
         d="m 0,0 c 0.135,-0.412 0.084,-0.784 -0.215,-1.112 -0.238,-0.394 -0.642,-0.372 -1.047,-0.321 -0.359,0.3 -0.527,0.684 -0.631,1.065 0.083,0.4 0.186,1.177 0.811,1.175 C -0.544,0.935 -0.168,0.384 0,0"
         inkscape:connector-curvature="0" />
    </g>
    <g
       transform="matrix(0.5985402,0,0,-0.5985402,49.226208,25.276961)"
       id="g5209">
      <path
         id="path5211"
         style="fill:#000000;fill-opacity:1;fill-rule:nonzero;stroke:none"
         d="m 0,0 c -0.039,-0.748 -0.321,-1.357 -0.788,-1.896 -0.75,-0.616 -3.19,-0.083 -3.43,0.087 -0.447,0.398 -0.57,1.029 -0.664,1.627 0.363,0.98 1.412,1.331 2.39,1.499 C -1.671,0.899 -0.22,1.198 0,0"
         inkscape:connector-curvature="0" />
    </g>
    <g
       transform="matrix(0.5985402,0,0,-0.5985402,40.606453,27.105922)"
       id="g5213">
      <path
         id="path5215"
         style="fill:#603081;fill-opacity:1;fill-rule:nonzero;stroke:none"
         d="m 0,0 c 1.284,-2.099 -6.731,-5.011 -8.504,-4.957 -2.266,0.868 -4.275,2.44 -6.162,3.977 -0.377,0.55 -1.002,1.146 -0.867,1.918 C -14.945,3.363 -1.869,2.334 0,0"
         inkscape:connector-curvature="0" />
    </g>
    <g
       transform="matrix(0.5985402,0,0,-0.5985402,48.479828,27.387658)"
       id="g5217">
      <path
         id="path5219"
         style="fill:#000000;fill-opacity:1;fill-rule:nonzero;stroke:none"
         d="m 0,0 c 0.152,-0.664 -0.346,-1.23 -0.74,-1.616 -0.649,-0.436 -1.516,-0.327 -2.259,-0.195 -0.448,0.399 -0.855,0.982 -0.54,1.622 C -2.593,0.573 -0.852,1.043 0,0"
         inkscape:connector-curvature="0" />
    </g>
    <g
       transform="matrix(0.5985402,0,0,-0.5985402,14.807815,25.398589)"
       id="g5221">
      <path
         id="path5223"
         style="fill:#ecc051;fill-opacity:1;fill-rule:nonzero;stroke:none"
         d="m 0,0 c 1.284,-1.691 2.407,-3.499 2.106,-5.669 -0.625,-0.623 -4.562,-1.613 -4.779,0.563 -0.217,1.228 -0.034,2.937 0.736,3.927 C -1.339,-1.117 -0.818,-0.114 0,0"
         inkscape:connector-curvature="0" />
    </g>
    <g
       transform="matrix(0.5985402,0,0,-0.5985402,34.708136,30.161173)"
       id="g5225">
      <path
         id="path5227"
         style="fill:#dce8eb;fill-opacity:1;fill-rule:nonzero;stroke:none"
         d="m 0,0 c -0.347,-1.855 0.05,-3.813 1.06,-5.396 -3.18,0.698 -6.888,2.672 -7.543,6.235 -0.022,1.376 -0.356,2.736 0.271,3.983 C -4.573,2.737 -2.349,1.061 0,0"
         inkscape:connector-curvature="0" />
    </g>
    <g
       transform="matrix(0.5985402,0,0,-0.5985402,14.913636,26.937014)"
       id="g5229">
      <path
         id="path5231"
         style="fill:#000000;fill-opacity:1;fill-rule:nonzero;stroke:none"
         d="m 0,0 c 0.094,-0.567 -0.001,-1.218 -0.339,-1.699 -0.417,-0.197 -0.899,-0.485 -1.417,-0.239 -0.484,0.306 -0.484,0.901 -0.615,1.407 L -2.113,0.204 -2.117,0.111 C -1.684,0.65 -0.322,0.985 0,0"
         inkscape:connector-curvature="0" />
    </g>
    <g
       transform="matrix(0.5985402,0,0,-0.5985402,26.801421,27.65305)"
       id="g5233">
      <path
         id="path5235"
         style="fill:#ecc051;fill-opacity:1;fill-rule:nonzero;stroke:none"
         d="m 0,0 c -0.274,-0.486 0.043,-0.972 0.238,-1.418 0.383,-0.428 0.864,-0.201 1.328,-0.289 0.287,0.109 0.549,0.378 0.57,0.72 0.504,-0.495 0.126,-1.162 0.188,-1.759 -1.521,-1.17 -4.162,1.031 -4.029,1.804 0.025,0.466 0.519,0.941 0.671,1.463 C -0.598,0.499 -0.334,0.173 0,0"
         inkscape:connector-curvature="0" />
    </g>
    <g
       transform="matrix(0.5985402,0,0,-0.5985402,21.723764,30.378621)"
       id="g5237">
      <path
         id="path5239"
         style="fill:#000000;fill-opacity:1;fill-rule:nonzero;stroke:none"
         d="m 0,0 c 1.538,-0.455 3.046,-8.028 1.072,-9.361 -1.477,-0.767 -7.995,0.012 -8.759,1.52 -0.888,2.108 -0.186,4.787 0.573,6.778 C -5.299,0.778 -2.419,0.315 0,0"
         inkscape:connector-curvature="0" />
    </g>
    <g
       transform="matrix(0.5985402,0,0,-0.5985402,20.796147,31.675657)"
       id="g5241">
      <path
         id="path5243"
         style="fill:#ecc051;fill-opacity:1;fill-rule:nonzero;stroke:none"
         d="M 0,0 C 0.874,-1.2 1.23,-2.75 0.844,-4.166 0.57,-5.214 -3.723,-4.895 -3.945,-3.79 -4.004,-2.507 -3.961,-1.104 -3.131,-0.147 -2.236,0.211 0,0 0,0"
         inkscape:connector-curvature="0" />
    </g>
    <g
       transform="matrix(0.5985402,0,0,-0.5985402,30.472746,34.649625)"
       id="g5245">
      <path
         id="path5247"
         style="fill:#000000;fill-opacity:1;fill-rule:nonzero;stroke:none"
         d="m 0,0 c 0.267,-1.481 -1.472,-1.235 -2.274,-1.691 -1.414,-0.147 -3.276,-0.517 -4.37,0.665 -0.755,1.07 -0.293,2.139 0.077,3.243 1.57,0.762 3.707,1.024 5.523,0.523 C -0.399,1.925 -0.106,0.974 0,0"
         inkscape:connector-curvature="0" />
    </g>
    <g
       transform="matrix(0.5985402,0,0,-0.5985402,20.65064,33.012978)"
       id="g5249">
      <path
         id="path5251"
         style="fill:#000000;fill-opacity:1;fill-rule:nonzero;stroke:none"
         d="m 0,0 c 0.009,-0.47 -0.106,-0.87 -0.374,-1.199 -0.529,0.028 -1.105,-0.255 -1.557,0.082 -0.351,0.455 -0.228,0.979 -0.017,1.436 C -1.522,1.297 -0.106,0.941 0,0"
         inkscape:connector-curvature="0" />
    </g>
    <g
       transform="matrix(0.5985402,0,0,-0.5985402,57.210673,35.56557)"
       id="g5253">
      <path
         id="path5255"
         style="fill:#f5d75c;fill-opacity:1;fill-rule:nonzero;stroke:none"
         d="M 0,0 C 0.587,-0.717 1.368,-1.289 2.351,-1.028 3.134,-0.976 3.088,-0.066 3.298,0.358 5.39,-0.251 5.142,-2.58 5.302,-4.337 L 5.286,-4.616 5.005,-4.603 C 4.978,-3.321 4.55,-1.956 3.463,-1.242 3.5,-1.743 4.55,-4.953 3.474,-5.209 2.106,-5.075 0.472,-5.864 -0.629,-4.839 -2.159,-3.666 -2.407,-1.81 -2.095,-0.046 -1.958,0.79 0.267,1.518 0,0"
         inkscape:connector-curvature="0" />
    </g>
    <g
       transform="matrix(0.5985402,0,0,-0.5985402,43.754593,34.448573)"
       id="g5257">
      <path
         id="path5259"
         style="fill:#ffffff;fill-opacity:1;fill-rule:nonzero;stroke:none"
         d="m 0,0 c -0.225,-1.894 -0.936,-3.542 -2.043,-5.015 -1.879,-0.682 -3.928,-1.043 -6.033,-0.714 -0.461,0.773 -0.149,1.943 -0.389,2.707 l 0.252,0.672 C -5.291,-2.034 -2.539,-1.366 0,0"
         inkscape:connector-curvature="0" />
    </g>
    <g
       transform="matrix(0.5985402,0,0,-0.5985402,29.062346,34.089689)"
       id="g5261">
      <path
         id="path5263"
         style="fill:#ecc051;fill-opacity:1;fill-rule:nonzero;stroke:none"
         d="m 0,0 c 0.271,-0.796 -0.514,-0.849 -0.961,-1.073 -0.465,0.086 -0.785,-0.085 -1.176,0.217 -0.265,0.294 -0.054,0.752 -0.097,1.128 C -1.504,0.516 -0.498,0.619 0,0"
         inkscape:connector-curvature="0" />
    </g>
    <g
       transform="matrix(0.5985402,0,0,-0.5985402,45.348026,35.073991)"
       id="g5265">
      <path
         id="path5267"
         style="fill:#fbea98;fill-opacity:1;fill-rule:nonzero;stroke:none"
         d="m 0,0 0.459,-2.585 c -1.276,-0.496 -2.606,-0.863 -3.965,-1.135 0.731,1.397 1.463,2.858 1.575,4.414 C -1.24,0.783 -0.584,0.187 0,0"
         inkscape:connector-curvature="0" />
    </g>
    <g
       transform="matrix(0.5985402,0,0,-0.5985402,11.532838,34.74138)"
       id="g5269">
      <path
         id="path5271"
         style="fill:#ecc051;fill-opacity:1;fill-rule:nonzero;stroke:none"
         d="m 0,0 c 0.1,-1.067 0.289,-2.231 -0.383,-3.134 -1.173,-0.908 -2.804,-0.446 -4.221,-0.684 -0.301,0.797 -0.259,1.605 -0.189,2.352 l 0.18,2.239 c 1.212,0.498 2.734,0.326 4.068,0.162 L 0,0 z"
         inkscape:connector-curvature="0" />
    </g>
    <g
       transform="matrix(0.5985402,0,0,-0.5985402,51.486537,36.704175)"
       id="g5273">
      <path
         id="path5275"
         style="fill:#000000;fill-opacity:1;fill-rule:nonzero;stroke:none"
         d="m 0,0 c 0.35,-0.487 0.535,-1.121 0.285,-1.733 -0.578,-0.313 -1.277,-0.526 -1.951,-0.272 -0.391,0.27 -0.938,0.58 -1.002,1.113 -0.035,0.534 0.084,1.027 0.598,1.312 C -1.346,0.539 -0.572,0.403 0,0"
         inkscape:connector-curvature="0" />
    </g>
    <g
       transform="matrix(0.5985402,0,0,-0.5985402,47.164658,37.150743)"
       id="g5277">
      <path
         id="path5279"
         style="fill:#ecc051;fill-opacity:1;fill-rule:nonzero;stroke:none"
         d="m 0,0 c 0.034,-0.533 0.225,-1.667 -0.617,-1.623 -1.064,-0.038 -2.455,-0.371 -3.112,0.787 -0.179,0.76 0.559,0.565 0.946,0.764 0.41,-0.522 1.004,-0.491 1.576,-0.302 0.394,0.353 0.155,1.178 0.926,0.981 L 0,0 z"
         inkscape:connector-curvature="0" />
    </g>
    <g
       transform="matrix(0.5985402,0,0,-0.5985402,10.668311,35.182145)"
       id="g5281">
      <path
         id="path5283"
         style="fill:#000000;fill-opacity:1;fill-rule:nonzero;stroke:none"
         d="m 0,0 c 0.325,-0.329 0.231,-0.948 0.205,-1.447 -0.41,-0.665 -1.043,-0.851 -1.749,-0.595 -0.889,0.327 -0.612,1.406 -0.432,1.896 C -1.418,0.355 -0.519,0.808 0,0"
         inkscape:connector-curvature="0" />
    </g>
    <g
       transform="matrix(0.5985402,0,0,-0.5985402,27.616274,37.790224)"
       id="g5285">
      <path
         id="path5287"
         style="fill:#ecc051;fill-opacity:1;fill-rule:nonzero;stroke:none"
         d="M 0,0 C -0.226,-0.144 -0.515,-0.285 -0.754,-0.085 -1.146,0.154 -1.211,0.719 -0.914,1.047 -0.057,1.909 0.186,0.553 0,0"
         inkscape:connector-curvature="0" />
    </g>
    <g
       transform="matrix(0.5985402,0,0,-0.5985402,7.781432,38.899615)"
       id="g5289">
      <path
         id="path5291"
         style="fill:#f5d75c;fill-opacity:1;fill-rule:nonzero;stroke:none"
         d="m 0,0 c -1.227,-3.511 1.145,-4.994 1.145,-4.994 -0.926,-0.984 -1.166,-3.938 -0.293,-5.608 -2.418,-0.215 -4.655,-0.004 -6.853,0.954 1.463,0.517 3.39,0.322 4.31,1.803 -0.262,2.17 -0.534,4.714 -2.797,5.613 -1.152,0.06 -2.101,-0.139 -3.241,-0.423 0.782,1.769 2.049,3.328 3.776,4.673 C -2.354,2.747 -0.636,1.563 0,0"
         inkscape:connector-curvature="0" />
    </g>
    <g
       transform="matrix(0.5985402,0,0,-0.5985402,30.624713,39.592245)"
       id="g5293">
      <path
         id="path5295"
         style="fill:#000000;fill-opacity:1;fill-rule:nonzero;stroke:none"
         d="m 0,0 c -0.024,-0.437 -0.292,-0.797 -0.676,-0.964 -0.372,0.019 -0.67,0.316 -0.839,0.668 -0.162,0.478 0.262,0.829 0.643,0.935 C -0.437,0.616 -0.168,0.383 0,0"
         inkscape:connector-curvature="0" />
    </g>
    <g
       transform="matrix(0.5985402,0,0,-0.5985402,23.746774,40.633888)"
       id="g5297">
      <path
         id="path5299"
         style="fill:#ecc051;fill-opacity:1;fill-rule:nonzero;stroke:none"
         d="m 0,0 c 0.01,-0.438 -0.232,-0.863 -0.642,-0.935 -1.119,0.09 -2.877,-0.068 -3.402,1.241 0,0.593 0.648,0.996 1.125,1.189 C -2.037,1.012 0.377,1.791 0,0"
         inkscape:connector-curvature="0" />
    </g>
    <g
       transform="matrix(0.5985402,0,0,-0.5985402,19.70315,39.693404)"
       id="g5301">
      <path
         id="path5303"
         style="fill:#f5d75c;fill-opacity:1;fill-rule:nonzero;stroke:none"
         d="m 0,0 c -0.91,-0.67 -1.183,-1.718 -1.111,-2.721 0.539,-2.245 6.966,-3.55 7.765,-3.779 3.017,0.568 2.231,4.441 2.147,5.196 2.222,-0.491 4.232,-2.065 6.084,-3.691 -0.864,-0.392 -0.947,-1.357 -0.865,-2.203 0.273,-0.733 0.725,-1.662 1.553,-1.955 0.588,-0.094 1.159,-0.531 1.7,-0.309 0.267,-1.45 -1.478,-2.607 -2.638,-3.297 -2.658,-1.265 -6.557,-1.155 -9.31,-0.043 0.201,1.458 -0.772,2.57 -1.591,3.613 -1.257,1.035 -3.045,0.909 -4.478,0.359 l -0.33,-0.358 c -4.392,4.001 -13.057,1.153 -13.057,1.153 -0.848,1.107 -1.265,2.659 -0.751,4.162 0.771,0.396 1.624,0.571 2.449,0.841 -0.149,-1.055 0.12,-2.474 1.183,-3.061 1.607,-0.303 3.889,-0.891 5.115,0.482 2.081,3.22 -0.41,4.673 -0.41,4.673 C -4.482,-0.296 -2.336,0.123 0,0"
         inkscape:connector-curvature="0" />
    </g>
    <g
       transform="matrix(0.5985402,0,0,-0.5985402,15.22811,41.25344)"
       id="g5305">
      <path
         id="path5307"
         style="fill:#ecc051;fill-opacity:1;fill-rule:nonzero;stroke:none"
         d="m 0,0 c 0.234,-0.917 -0.411,-1.32 -1.105,-1.44 -0.573,0.374 -1.778,0.061 -1.69,1.119 -0.039,1.063 1.168,0.844 1.721,1.253 C -0.479,0.962 -0.227,0.419 0,0"
         inkscape:connector-curvature="0" />
    </g>
    <g
       transform="matrix(0.5985402,0,0,-0.5985402,4.6180272,42.547541)"
       id="g5309">
      <path
         id="path5311"
         style="fill:#ecc051;fill-opacity:1;fill-rule:nonzero;stroke:none"
         d="m 0,0 c -0.078,-0.309 0.066,-0.534 0.114,-0.817 -0.837,-0.456 -1.96,-0.46 -2.815,-0.697 -0.334,0.798 -0.377,1.77 -0.397,2.582 0.828,0.3 1.571,0.76 2.53,0.618 L 0,0 z"
         inkscape:connector-curvature="0" />
    </g>
    <g
       transform="matrix(0.5985402,0,0,-0.5985402,40.606453,27.105922)"
       id="g5313">
      <path
         id="path5315"
         style="fill:#835796;fill-opacity:1;fill-rule:nonzero;stroke:none"
         d="m 0,0 c 1.284,-2.099 -6.731,-5.011 -8.504,-4.957 -0.179,0.068 -0.355,0.141 -0.531,0.218 2.771,0.611 8.52,3.01 7.418,4.811 -0.929,1.161 -4.635,2 -8.196,2.25 C -5.837,2.25 -1.072,1.34 0,0"
         inkscape:connector-curvature="0" />
    </g>
    <g
       transform="matrix(0.5985402,0,0,-0.5985402,40.606453,27.105922)"
       id="g5317">
      <path
         id="path5319"
         style="fill:#b18db8;fill-opacity:1;fill-rule:nonzero;stroke:none"
         d="m 0,0 c 0.029,-0.049 0.053,-0.097 0.072,-0.145 -4.363,1.341 -12.646,1.585 -13.113,-0.333 -0.134,-0.772 0.49,-1.368 0.867,-1.918 0.965,-0.786 1.962,-1.58 3.008,-2.286 -1.998,0.903 -3.8,2.318 -5.5,3.702 -0.377,0.55 -1.002,1.146 -0.867,1.918 C -14.945,3.363 -1.869,2.334 0,0"
         inkscape:connector-curvature="0" />
    </g>
    <g
       transform="matrix(0.5985402,0,0,-0.5985402,32.119929,27.119928)"
       id="g5321">
      <path
         id="path5323"
         style="fill:#ffffff;fill-opacity:1;fill-rule:nonzero;stroke:none"
         d="M 0,0 C -0.013,0.681 0.531,1.243 1.213,1.255 1.894,1.267 2.456,0.724 2.468,0.043 2.479,-0.639 1.937,-1.201 1.256,-1.213 0.574,-1.224 0.013,-0.681 0,0"
         inkscape:connector-curvature="0" />
    </g>
    <g
       transform="matrix(0.5985402,0,0,-0.5985402,43.045026,22.08788)"
       id="g5325">
      <path
         id="path5327"
         style="fill:#ffffff;fill-opacity:1;fill-rule:nonzero;stroke:none"
         d="M 0,0 C -0.031,1.81 1.364,3.301 3.117,3.331 4.869,3.362 6.316,1.921 6.348,0.112 6.38,-1.697 4.984,-3.188 3.23,-3.219 1.479,-3.249 0.031,-1.809 0,0"
         inkscape:connector-curvature="0" />
    </g>
    <g
       transform="matrix(0.5985402,0,0,-0.5985402,39.429245,25.995931)"
       id="g5329">
      <path
         id="path5331"
         style="fill:#fbea98;fill-opacity:1;fill-rule:nonzero;stroke:none"
         d="m 0,0 c -1.957,0.727 -4.173,1.029 -6.344,1.122 2.082,1.597 5.11,4.437 6.706,8.36 C 0.648,9.656 0.954,9.78 1.297,9.798 1.63,9.793 1.969,9.694 2.28,9.524 1.954,6.857 1.264,3.543 0,0"
         inkscape:connector-curvature="0" />
    </g>
    <g
       transform="matrix(0.5985402,0,0,-0.5985402,45.360294,30.078153)"
       id="g5333">
      <path
         id="path5335"
         style="fill:#dce8eb;fill-opacity:1;fill-rule:nonzero;stroke:none"
         d="m 0,0 -0.056,-0.101 c -0.009,-0.093 -0.013,-0.183 -0.009,-0.27 -0.291,-1.54 -0.913,-3.385 -1.98,-5.543 -3.169,-1.988 -6.784,-3.095 -10.509,-2.619 -1.071,0.399 -2.076,0.889 -2.836,1.896 4.844,-0.534 9.366,1.103 12.192,4.984 0.648,1.058 0.71,2.836 -0.016,3.873 l -0.868,0.731 c 0.731,0.868 2.308,0.536 3.283,1.266 -1.192,0.5 -2.779,0.02 -3.991,-0.479 -0.78,-0.584 -1.613,-0.976 -1.76,-2 0.172,-0.29 0.535,-0.496 0.738,-0.195 0.241,0.395 0.572,0.752 0.963,1.074 0.517,-0.276 1.043,-0.96 1.2,-1.561 0.365,-1.955 -1.143,-3.314 -2.418,-4.433 -2.978,-1.969 -6.503,-3.095 -10.229,-2.088 -1.496,2.137 -1.081,4.991 -1.081,4.991 2.194,-0.426 4.722,0.721 6.837,1.735 1.225,0.717 2.693,1.357 3.511,2.659 0.114,0.492 0.225,0.994 0.335,1.498 1.672,0.328 3.867,0.604 5.029,0.106 C -0.444,4.999 0.51,3.195 0,0"
         inkscape:connector-curvature="0" />
    </g>
    <g
       transform="matrix(0.5985402,0,0,-0.5985402,45.360294,30.078153)"
       id="g5337">
      <path
         id="path5339"
         style="fill:#ffffff;fill-opacity:1;fill-rule:nonzero;stroke:none"
         d="m 0,0 -0.056,-0.101 c -0.009,-0.093 -0.013,-0.183 -0.009,-0.27 -0.291,-1.54 -0.913,-3.385 -1.98,-5.543 -0.464,-0.29 -0.934,-0.562 -1.415,-0.813 -1.872,0.454 -2.047,1.724 -1.703,2.949 0.719,0.611 1.378,1.319 1.965,2.125 0.648,1.058 0.71,2.836 -0.016,3.873 l -0.868,0.731 c 0.731,0.868 2.308,0.536 3.283,1.266 -1.192,0.5 -2.779,0.02 -3.991,-0.479 -0.78,-0.584 -1.613,-0.976 -1.76,-2 0.172,-0.29 0.535,-0.496 0.738,-0.195 0.241,0.395 0.572,0.752 0.963,1.074 0.517,-0.276 1.043,-0.96 1.2,-1.561 0.365,-1.955 -1.143,-3.314 -2.418,-4.433 -0.688,-0.453 -1.401,-0.861 -2.142,-1.211 -4.82,-0.318 -5.694,2.204 -5.661,4.46 1.15,0.36 2.291,0.891 3.33,1.389 0.539,0.316 1.127,0.619 1.687,0.968 l 0.084,-0.003 0.118,0.132 c 0.552,0.366 1.066,0.787 1.464,1.328 0.648,0.491 1.478,1.007 2.454,1.381 0.617,0.237 1.127,0.481 1.552,0.726 C -2.595,5.776 -2.069,5.696 -1.665,5.524 -0.444,4.999 0.51,3.195 0,0"
         inkscape:connector-curvature="0" />
    </g>
    <g
       transform="matrix(0.5985402,0,0,-0.5985402,31.962695,31.258895)"
       id="g5341">
      <path
         id="path5343"
         style="fill:#ffffff;fill-opacity:1;fill-rule:nonzero;stroke:none"
         d="M 0,0 C -1.051,1.502 -1.284,3.152 -0.521,3.687 0.242,4.221 1.713,3.438 2.764,1.936 3.816,0.434 4.05,-1.218 3.285,-1.752 2.523,-2.286 1.053,-1.502 0,0"
         inkscape:connector-curvature="0" />
    </g>
    <g
       transform="matrix(0.5985402,0,0,-0.5985402,43.754593,34.448573)"
       id="g5345">
      <path
         id="path5347"
         style="fill:#dce8eb;fill-opacity:1;fill-rule:nonzero;stroke:none"
         d="m 0,0 c -0.071,-0.602 -0.192,-1.178 -0.358,-1.732 -0.378,0.069 -0.781,0.104 -1.195,0.097 -2.227,-0.04 -4.011,-1.256 -3.988,-2.718 0.011,-0.514 0.242,-0.99 0.636,-1.389 -1.033,-0.144 -2.093,-0.155 -3.171,0.013 -0.461,0.773 -0.149,1.943 -0.389,2.707 l 0.252,0.672 C -5.291,-2.034 -2.539,-1.366 0,0"
         inkscape:connector-curvature="0" />
    </g>
    <g
       transform="matrix(0.5985402,0,0,-0.5985402,37.931156,19.87843)"
       id="g5349">
      <path
         id="path5351"
         style="fill:#dce8eb;fill-opacity:1;fill-rule:nonzero;stroke:none"
         d="m 0,0 c -2.215,-0.28 -2.308,-3.69 -2.071,-4.5 l -0.58,-0.457 c -0.532,0.028 -0.909,0.548 -1.241,0.814 -0.293,0.954 -0.111,5.831 3.814,4.205 L 0,0 z"
         inkscape:connector-curvature="0" />
    </g>
    <g
       transform="matrix(0.5985402,0,0,-0.5985402,43.045026,22.08788)"
       id="g5353">
      <path
         id="path5355"
         style="fill:#dce8eb;fill-opacity:1;fill-rule:nonzero;stroke:none"
         d="M 0,0 C -0.031,1.81 1.364,3.301 3.117,3.331 3.678,3.341 4.209,3.2 4.672,2.942 3.046,2.773 1.792,1.344 1.823,-0.371 1.844,-1.601 2.52,-2.66 3.499,-3.203 3.41,-3.212 3.322,-3.217 3.23,-3.219 1.479,-3.249 0.031,-1.809 0,0"
         inkscape:connector-curvature="0" />
    </g>
    <g
       transform="matrix(0.5985402,0,0,-0.5985402,36.488554,21.553624)"
       id="g5357">
      <path
         id="path5359"
         style="fill:#000000;fill-opacity:1;fill-rule:nonzero;stroke:none"
         d="M 0,0 C -0.013,0.709 0.552,1.294 1.261,1.307 1.97,1.319 2.556,0.753 2.568,0.045 2.581,-0.665 2.015,-1.25 1.306,-1.262 0.597,-1.274 0.013,-0.709 0,0"
         inkscape:connector-curvature="0" />
    </g>
    <g
       transform="matrix(0.5985402,0,0,-0.5985402,44.183626,22.323466)"
       id="g5361">
      <path
         id="path5363"
         style="fill:#000000;fill-opacity:1;fill-rule:nonzero;stroke:none"
         d="M 0,0 C -0.016,0.904 0.703,1.65 1.609,1.666 2.512,1.683 3.259,0.961 3.275,0.058 3.291,-0.847 2.57,-1.593 1.667,-1.608 0.761,-1.625 0.015,-0.903 0,0"
         inkscape:connector-curvature="0" />
    </g>
    <g
       transform="matrix(0.5985402,0,0,-0.5985402,37.234996,21.208208)"
       id="g5365">
      <path
         id="path5367"
         style="fill:#ffffff;fill-opacity:1;fill-rule:nonzero;stroke:none"
         d="M 0,0 C -0.006,0.347 0.27,0.633 0.618,0.639 0.965,0.646 1.25,0.369 1.258,0.021 1.264,-0.326 0.987,-0.612 0.639,-0.618 0.292,-0.624 0.008,-0.347 0,0"
         inkscape:connector-curvature="0" />
    </g>
    <g
       transform="matrix(0.5985402,0,0,-0.5985402,45.065099,22.022401)"
       id="g5369">
      <path
         id="path5371"
         style="fill:#ffffff;fill-opacity:1;fill-rule:nonzero;stroke:none"
         d="M 0,0 C -0.009,0.475 0.369,0.864 0.842,0.873 1.316,0.882 1.706,0.504 1.715,0.03 1.725,-0.442 1.346,-0.834 0.872,-0.842 0.398,-0.851 0.008,-0.473 0,0"
         inkscape:connector-curvature="0" />
    </g>
    <g
       transform="matrix(0.5985402,0,0,-0.5985402,37.07656,37.710139)"
       id="g5373">
      <path
         id="path5375"
         style="fill:#fbea98;fill-opacity:1;fill-rule:nonzero;stroke:none"
         d="m 0,0 c 0.059,-0.204 0.138,-0.405 0.222,-0.599 0.285,-0.513 2.439,0.09 2.726,-0.422 2.383,-0.408 4.597,0.132 6.719,0.677 -0.09,-0.495 -0.157,-1.21 0.354,-1.58 0.108,-0.109 0.236,-0.209 0.38,-0.299 C 9.502,-2.338 8.657,-2.428 7.901,-2.465 2.63,-2.729 -1.933,-0.428 -3.228,0.296 L -3.332,0.473 0,0 z m 19.129,-1.331 c 0.118,1.088 -0.099,2.266 -0.185,3.436 3.125,0.618 7.174,2.185 10.112,-0.155 1.786,-1.686 1.838,-4.25 1.22,-6.497 -0.744,0.132 -1.695,-0.162 -2.398,0.125 0.31,1.14 -0.772,3.727 -0.917,3.921 -0.447,-0.164 0.426,-3.145 -0.228,-4.328 -0.539,-0.052 -1.072,-0.101 -1.608,-0.136 -0.362,2.802 -2.856,3.607 -5.996,3.634"
         inkscape:connector-curvature="0" />
    </g>
    <g
       transform="matrix(0.5985402,0,0,-0.5985402,33.039943,19.517212)"
       id="g5377">
      <path
         id="path5379"
         style="fill:#e7bbb0;fill-opacity:1;fill-rule:nonzero;stroke:none"
         d="m 0,0 c -0.147,-0.115 -0.272,-0.24 -0.362,-0.38 -0.808,0.667 -1.674,1.431 -1.901,2.473 0.032,0.561 0.272,0.985 0.545,1.408 0.707,0.586 1.563,0.465 2.242,0.014 C 0.172,3.505 -0.179,3.385 -0.501,3.119 -0.772,2.696 -1.015,2.271 -1.043,1.711 -0.897,1.041 -0.489,0.487 0,0"
         inkscape:connector-curvature="0" />
    </g>
    <g
       transform="matrix(0.5985402,0,0,-0.5985402,52.284989,21.649509)"
       id="g5381">
      <path
         id="path5383"
         style="fill:#e7bbb0;fill-opacity:1;fill-rule:nonzero;stroke:none"
         d="m 0,0 c -0.705,-0.357 -1.295,-0.577 -1.295,-0.577 0.396,1.571 -0.633,2.812 -1.221,4.124 0.621,1.122 1.887,1.431 3.004,1.278 C 0.668,4.708 0.863,4.598 1.058,4.478 0.131,4.448 -0.795,4.073 -1.297,3.163 -0.836,2.132 -0.099,1.143 0,0"
         inkscape:connector-curvature="0" />
    </g>
    <g
       transform="matrix(0.5985402,0,0,-0.5985402,7.781432,38.899615)"
       id="g5385">
      <path
         id="path5387"
         style="fill:#fbea98;fill-opacity:1;fill-rule:nonzero;stroke:none"
         d="M 0,0 C -1.227,-3.511 1.145,-4.994 1.145,-4.994 0.702,-5.463 0.417,-6.379 0.333,-7.392 c -0.955,0.136 -1.63,0.495 -1.918,1.204 -0.946,2.346 0.452,4.775 1.574,6.212 L 0,0 z"
         inkscape:connector-curvature="0" />
    </g>
    <g
       transform="matrix(0.5985402,0,0,-0.5985402,19.70315,39.693404)"
       id="g5389">
      <path
         id="path5391"
         style="fill:#fbea98;fill-opacity:1;fill-rule:nonzero;stroke:none"
         d="m 0,0 c -0.91,-0.67 -1.183,-1.718 -1.111,-2.721 0.539,-2.245 6.966,-3.55 7.765,-3.779 3.017,0.568 2.231,4.441 2.147,5.196 2.222,-0.491 4.232,-2.065 6.084,-3.691 -0.864,-0.392 -0.947,-1.357 -0.865,-2.203 0.273,-0.733 0.725,-1.662 1.553,-1.955 0.588,-0.094 1.159,-0.531 1.7,-0.309 0.267,-1.45 -1.478,-2.607 -2.638,-3.297 -0.112,-0.054 -0.225,-0.103 -0.34,-0.151 -4.231,2.583 -10.686,6.23 -15.272,7.701 -1.413,0.453 -2.991,0.606 -4.632,0.587 1.043,2.531 -0.936,3.684 -0.936,3.684 C -4.482,-0.296 -2.336,0.123 0,0 m -15.07,-5.79 c -0.082,0.622 -0.032,1.274 0.188,1.917 0.771,0.396 1.624,0.571 2.449,0.841 -0.1,-0.714 -0.01,-1.593 0.388,-2.271 -1.051,-0.168 -2.068,-0.343 -3.025,-0.487"
         inkscape:connector-curvature="0" />
    </g>
    <g
       transform="matrix(0.5985402,0,0,-0.5985402,27.597537,45.995012)"
       id="g5393">
      <path
         id="path5395"
         style="fill:#000000;fill-opacity:1;fill-rule:nonzero;stroke:none"
         d="m 0,0 c -0.394,-0.948 -0.17,-2.052 -1.262,-2.62 -0.74,-0.398 -1.691,-0.098 -2.394,0.188 -0.528,0.652 -0.897,1.359 -0.79,2.228 0.104,0.775 0.602,1.374 1.368,1.645 C -2.51,1.568 -1.94,1.727 -1.287,1.66 -0.618,1.313 -0.344,0.58 0,0"
         inkscape:connector-curvature="0" />
    </g>
  </g>
</svg>
