<?xml version="1.0" encoding="UTF-8" standalone="no"?>
<!-- Created with Inkscape (http://www.inkscape.org/) -->

<svg
   xmlns:dc="http://purl.org/dc/elements/1.1/"
   xmlns:cc="http://creativecommons.org/ns#"
   xmlns:rdf="http://www.w3.org/1999/02/22-rdf-syntax-ns#"
   xmlns:svg="http://www.w3.org/2000/svg"
   xmlns="http://www.w3.org/2000/svg"
   xmlns:sodipodi="http://sodipodi.sourceforge.net/DTD/sodipodi-0.dtd"
   xmlns:inkscape="http://www.inkscape.org/namespaces/inkscape"
   width="64px"
   height="64px"
   id="svg174643"
   version="1.1"
   inkscape:version="0.48.5 r10040"
   sodipodi:docname="Nowy dokument 40">
  <defs
     id="defs174645" />
  <sodipodi:namedview
     id="base"
     pagecolor="#ffffff"
     bordercolor="#666666"
     borderopacity="1.0"
     inkscape:pageopacity="0.0"
     inkscape:pageshadow="2"
     inkscape:zoom="5.5"
     inkscape:cx="31.727273"
     inkscape:cy="27.05994"
     inkscape:current-layer="layer1"
     showgrid="true"
     inkscape:document-units="px"
     inkscape:grid-bbox="true"
     inkscape:window-width="1366"
     inkscape:window-height="706"
     inkscape:window-x="-8"
     inkscape:window-y="-8"
     inkscape:window-maximized="1" />
  <metadata
     id="metadata174648">
    <rdf:RDF>
      <cc:Work
         rdf:about="">
        <dc:format>image/svg+xml</dc:format>
        <dc:type
           rdf:resource="http://purl.org/dc/dcmitype/StillImage" />
        <dc:title></dc:title>
      </cc:Work>
    </rdf:RDF>
  </metadata>
  <g
     id="layer1"
     inkscape:label="Layer 1"
     inkscape:groupmode="layer">
    <g
       transform="matrix(0.71952717,0,0,-0.71952717,35.276384,1.7879267)"
       id="g5685">
      <path
         id="path5687"
         style="fill:#000000;fill-opacity:1;fill-rule:nonzero;stroke:none"
         d="m 0,0 c -0.93,-0.923 -1.424,-1.689 -2.176,-2.667 3.744,0.646 7.851,0.435 11.203,-1.097 l 0.053,0.076 c 0.223,-0.258 -2.252,-0.825 -3.125,-1.419 4.055,-2.001 7.836,-5.064 10.689,-8.975 0.124,-0.154 -1.449,-0.025 -2.131,0.114 l -0.005,-0.254 c 2.232,-3.087 3.514,-6.69 3.295,-10.598 0.046,-0.255 -1.639,0.79 -2.24,1.258 -0.761,-4.355 -2.935,-8.127 -4.957,-11.927 -1.259,-2.289 -3.149,-4.339 -4.86,-6.366 -0.894,-3.185 -1.689,-6.549 -2.127,-9.793 1.289,-3.247 4.998,-4.684 7.24,-7.187 1.778,-1.453 2.323,-3.723 2.16,-5.777 4.949,-0.178 5.811,2.667 6.036,3.856 -0.372,3.487 -3.303,5.773 -5.516,8.529 -1.617,1.882 -1.95,4.682 -0.743,6.896 0.442,0.526 0.885,1.153 1.5,1.498 -1.622,1.679 -2.572,3.981 -2.077,6.132 1.463,3.86 5.906,3.732 8.861,5.636 2.857,2.444 1.482,4.927 1.691,5.279 0.446,-0.694 3.496,-7.317 3.322,-11.945 -0.068,-2.513 -1.125,-4.831 -3.408,-6.163 -2.074,-0.929 -5.078,-1.283 -7.138,-0.002 -0.084,-0.431 -0.471,-0.754 -0.68,-1.156 -1.342,-4.066 2.877,-6.782 5.369,-9.542 3.42,-4.35 1.365,-9.168 -1.16,-11.181 -1.949,-1.084 -4.496,-1.446 -6.597,-1.105 -0.901,-2.143 -1.626,-4.39 -3.03,-6.22 2.735,0.968 6.061,1.948 9.041,0.982 3.116,-2.216 0.914,-5.859 0.721,-6.667 -4.278,-0.637 -8.54,0 -12.692,-0.741 -0.443,-0.601 -0.488,-1.642 -1.48,-1.726 -1.186,-1.122 -3.188,-0.833 -4.785,-0.653 -1.566,-0.912 -3.364,-0.653 -5.188,-0.392 -1.044,1.339 -1.865,-0.602 -2.859,-0.763 -1.146,-0.208 -2.498,-0.565 -3.606,-0.039 -4.025,-1.209 -5.167,0.877 -5.167,0.877 -0.512,-0.269 -0.885,0.219 -1.261,0.454 l -0.289,0.92 c -1.677,-0.072 -3.668,-0.596 -5.308,0.093 -0.61,-0.065 -1.275,-0.309 -1.912,-0.475 -1.323,-0.154 -2.225,0.648 -3.52,0.57 -1.361,0.66 -0.824,2.3 -1.082,3.6 0.135,1.826 1.053,3.511 2.696,4.474 2.523,0.54 5.156,0.037 7.293,-1.22 -0.797,2.376 -3.961,9.267 -2.909,12.293 0.596,0.777 1.121,1.631 1.942,2.227 l -0.174,0.18 c 0.748,2.096 1.902,4.133 1.74,6.548 -0.922,-0.466 -1.533,-1.929 -2.647,-1.782 0.342,2.077 0.554,4.105 0.413,6.216 -0.465,0.286 -1.779,2.799 -1.672,4.6 -0.828,0.524 -1.84,0.82 -2.668,1.393 -1.576,1.348 -3.123,2.95 -3.215,4.983 -2.617,2.789 -3.802,6.264 -4.27,9.955 -0.13,2.72 0.247,5.457 1.356,7.9 l -0.05,0.052 c -1,-0.592 -2.663,-2.696 -2.663,-2.696 -0.318,2.063 1.34,8.239 6.555,13.194 -1.291,0.226 -3.899,-0.795 -3.899,-0.795 3.438,5.448 10.085,5.919 10.085,5.919 -0.376,0.287 -1.134,0.554 -1.075,1.061 1.438,0.812 2.98,0.404 4.627,0.224 1.516,-0.484 2.869,-1.498 4.123,-2.46 3.088,3.807 7.621,5.886 12.404,6.362 C -1.291,0.353 -0.164,0.791 0,0"
         inkscape:connector-curvature="0" />
    </g>
    <g
       transform="matrix(0.71952717,0,0,-0.71952717,32.91123,4.3413849)"
       id="g5689">
      <path
         id="path5691"
         style="fill:#ce7d1f;fill-opacity:1;fill-rule:nonzero;stroke:none"
         d="m 0,0 c 3.269,1.111 7.531,0.834 10.789,-0.239 -0.895,-0.39 -1.941,-0.601 -2.59,-1.352 0.196,-0.511 0.804,-0.572 1.259,-0.707 3.421,-1.863 6.778,-4.513 9.313,-7.706 -0.484,-0.043 -1.086,0.297 -1.748,0.208 1.34,-2.383 3.482,-7.147 3.393,-10.803 0,0 -2.207,1.973 -2.287,1.77 -0.154,-4.39 -2.499,-8.214 -4.342,-11.89 -3.356,-6.037 -8.875,-10.818 -14.414,-15.292 -3.499,-2.606 -7.15,-5.184 -10.799,-7.558 0,0 0.666,3.29 0.543,3.419 -2.096,-2.231 -5.936,-5.382 -5.936,-5.382 0.921,1.863 1.883,5.022 0.977,6.51 -0.772,-0.571 -1.521,-1.27 -2.168,-1.918 0.48,1.211 0.437,3.142 0.384,4.489 0.378,-0.184 0.675,-0.595 1.132,-0.63 0.305,0.021 0.765,0.14 0.695,0.548 l 0.004,0.253 c 0.578,-0.365 1.303,-1.064 1.998,-0.467 -0.099,0.053 -0.047,0.154 -0.072,0.23 0.71,-0.164 1.693,-0.512 2.339,0.036 l 0.005,0.355 c 1.062,-0.297 2.53,-0.603 3.458,0.194 -0.221,0.461 -0.441,0.922 -0.457,1.456 5.869,2.996 11.217,11.218 5.254,24.298 0.991,1.455 1.479,3.497 0.621,5.239 -0.511,1.304 -1.906,1.481 -3.068,1.806 -2.032,-0.091 -3.804,-1.153 -5.354,-2.649 -1.228,0.961 -2.605,2.076 -4.291,1.496 -2.37,-1.906 -1.351,-7.595 -1.351,-7.502 -2.889,-4.471 -7.848,-5.797 -8.881,-9.64 -0.215,-0.708 -0.404,-1.442 -0.344,-2.255 -6.81,8.443 -1.894,17.99 -2.072,18.018 -0.713,-0.089 -2.912,-2.387 -2.912,-2.387 0.566,4.791 3.632,8.674 7.043,12.018 -0.467,0.948 -3.479,0.06 -3.479,0.06 3.002,4.153 10.289,4.494 10.266,4.698 -0.422,0.566 -1.08,0.654 -1.633,0.994 2.909,0.761 5.164,-1.056 7.4,-2.39 l 0.664,0.191 C -7.189,1.446 -2.813,3.351 2.193,3.442 2.193,3.442 -0.254,0.106 0,0"
         inkscape:connector-curvature="0" />
    </g>
    <g
       transform="matrix(0.71952717,0,0,-0.71952717,32.91123,4.3413849)"
       id="g5693">
      <path
         id="path5695"
         style="fill:#a95926;fill-opacity:1;fill-rule:nonzero;stroke:none"
         d="m 0,0 c 3.269,1.111 7.531,0.834 10.789,-0.239 -0.895,-0.39 -1.941,-0.601 -2.59,-1.352 0.196,-0.511 0.804,-0.572 1.259,-0.707 3.421,-1.863 6.778,-4.513 9.313,-7.706 -0.484,-0.043 -1.086,0.297 -1.748,0.208 1.34,-2.383 3.482,-7.147 3.393,-10.803 0,0 -2.207,1.973 -2.287,1.77 -0.154,-4.39 -2.499,-8.214 -4.342,-11.89 -3.356,-6.037 -8.875,-10.818 -14.414,-15.292 -3.499,-2.606 -7.15,-5.184 -10.799,-7.558 0,0 0.666,3.29 0.543,3.419 -2.096,-2.231 -5.936,-5.382 -5.936,-5.382 0.38,0.77 3.157,4.466 5.446,6.171 5.539,4.475 13.658,10.875 17.015,16.912 1.842,3.676 4.188,7.5 4.34,11.891 0.081,0.202 1.282,1.113 1.282,1.113 0.09,3.655 -1.045,5.537 -2.387,7.919 0.663,0.091 1.266,-0.25 1.75,-0.208 -2.535,3.193 -5.893,5.843 -9.314,7.706 -0.456,0.135 -1.064,0.196 -1.258,0.708 0.648,0.75 1.693,0.96 2.589,1.351 -3.258,1.073 -7.52,1.351 -10.79,0.24 -0.183,0.076 1.046,1.842 1.74,2.813 2.575,1.532 5.463,2.301 8.599,2.358 C 2.193,3.442 -0.254,0.106 0,0"
         inkscape:connector-curvature="0" />
    </g>
    <g
       transform="matrix(0.71952717,0,0,-0.71952717,30.959222,15.656025)"
       id="g5697">
      <path
         id="path5699"
         style="fill:#fbea98;fill-opacity:1;fill-rule:nonzero;stroke:none"
         d="m 0,0 c 0.302,-1.555 -0.336,-3.145 -1.297,-4.372 0.166,-0.764 0.789,-1.359 0.877,-2.149 2.828,-5.306 2.382,-13.476 -1.486,-18.26 -1.173,-1.657 -2.789,-2.618 -4.43,-3.453 -0.44,-0.501 -0.073,-1.294 0.146,-1.831 -1.223,-0.258 -2.253,0.445 -3.291,0.59 -0.385,-0.196 -0.06,-0.557 -0.066,-0.838 l 0.051,-0.075 c -0.926,-0.569 -2.033,1.406 -2.315,-0.138 -0.74,-0.165 -1.464,1.956 -1.873,0.338 l -0.086,-0.482 c -2.746,1.573 -2.806,5.053 -2.828,5.357 2.125,-0.62 4.894,-0.592 7.059,-0.198 0.143,-0.536 0.539,-1.127 1.018,-1.364 1.614,-0.547 1.427,1.803 1.427,1.803 2.836,0.916 6.148,2.916 6.887,6.051 0.621,2.047 -0.287,3.892 -1.682,5.39 1.232,0.758 2.496,0.514 2.524,0.616 -1.078,0.806 -2.485,0.17 -3.485,-0.296 -0.512,-0.32 -0.902,-0.796 -1.24,-1.247 -0.08,-0.254 0.146,-0.358 0.219,-0.512 0.687,0.014 1.1,1.911 1.839,0.527 4.079,-5.038 -1.357,-7.8 -3.078,-8.963 -2.64,-1.325 -5.845,-1.6 -8.914,-1.445 -0.638,1.306 -1.247,2.842 -0.788,4.357 3.532,0.066 10.609,5.391 8.927,8.073 -0.674,0.622 -1.623,0.131 -2.385,0.042 -3.521,-0.878 -7.855,-1.843 -11.199,0.12 1.547,1.369 3.246,2.635 4.824,4.309 0.702,0.877 1.404,1.779 1.575,2.894 -0.076,0.052 -0.491,-0.474 -0.491,-0.474 -0.131,1.221 -0.626,5.912 1.135,6.761 1.609,0.506 2.854,-0.913 4.135,-1.672 1.27,1.426 3.066,2.436 4.975,2.733 C -1.922,1.964 -0.406,1.479 0,0"
         inkscape:connector-curvature="0" />
    </g>
    <g
       transform="matrix(0.71952717,0,0,-0.71952717,19.99133,30.43166)"
       id="g5701">
      <path
         id="path5703"
         style="fill:#fbea98;fill-opacity:1;fill-rule:nonzero;stroke:none"
         d="M 0,0 C -0.306,-1.519 0.124,-3.076 0.735,-4.407 -2.333,-4.15 -5.457,-2.75 -6.929,0.299 -7.53,2.188 -7.362,4.598 -6.216,6.28 -5.222,3.545 -2.597,1.137 0,0"
         inkscape:connector-curvature="0" />
    </g>
    <g
       transform="matrix(0.71952717,0,0,-0.71952717,30.959222,15.656025)"
       id="g5705">
      <path
         id="path5707"
         style="fill:#f5d75c;fill-opacity:1;fill-rule:nonzero;stroke:none"
         d="m 0,0 c 0.302,-1.555 -0.336,-3.145 -1.297,-4.372 0.166,-0.764 0.789,-1.359 0.877,-2.149 2.828,-5.306 2.382,-13.476 -1.486,-18.26 -1.173,-1.657 -2.789,-2.618 -4.43,-3.453 -0.44,-0.501 -0.073,-1.294 0.146,-1.831 -1.223,-0.258 -2.253,0.445 -3.291,0.59 -0.385,-0.196 -0.06,-0.557 -0.066,-0.838 l 0.051,-0.075 c -0.256,-0.157 -0.526,-0.12 -0.788,-0.017 -1.538,1.588 -0.997,2.998 -0.91,3.606 -2.035,-0.355 -4.07,0.042 -5.284,0.38 -0.101,0.585 -0.112,1.009 -0.12,1.106 2.125,-0.62 4.894,-0.592 7.059,-0.198 0.143,-0.536 0.539,-1.127 1.018,-1.364 1.614,-0.547 1.427,1.803 1.427,1.803 2.836,0.916 6.148,2.916 6.887,6.051 0.621,2.047 -0.287,3.892 -1.682,5.39 1.232,0.758 2.496,0.514 2.524,0.616 -1.078,0.806 -2.485,0.17 -3.485,-0.296 -0.512,-0.32 -0.902,-0.796 -1.24,-1.247 -0.08,-0.254 0.146,-0.358 0.219,-0.512 0.687,0.014 1.1,1.911 1.839,0.527 4.079,-5.038 -1.357,-7.8 -3.078,-8.963 -2.64,-1.325 -5.845,-1.6 -8.914,-1.445 -0.195,0.399 -0.387,0.818 -0.546,1.252 2.174,-0.079 3.896,0.26 4.461,0.477 1.04,0.4 0.628,3.109 0.306,4.629 2.705,1.809 4.946,4.434 3.918,6.072 -0.674,0.622 -1.623,0.131 -2.385,0.042 l -0.664,-0.163 c 2.497,2.967 2.18,5.98 3.584,7.889 1.559,2.118 0.312,4.661 -0.996,4.225 -1.308,-0.436 -2.393,-1.707 -2.393,-1.707 0,0 -0.872,1.458 -1.931,2.268 -0.463,0.354 -1.406,0.59 -2.219,0.735 0.133,0.155 0.286,0.279 0.463,0.363 1.609,0.506 2.854,-0.913 4.135,-1.672 1.27,1.426 3.066,2.436 4.975,2.733 C -1.922,1.964 -0.406,1.479 0,0 m -14.998,-23.678 c 0.138,-0.438 0.306,-0.861 0.49,-1.264 -2.319,0.194 -4.672,1.043 -6.319,2.763 1.963,-0.985 4.03,-1.39 5.829,-1.499"
         inkscape:connector-curvature="0" />
    </g>
    <g
       transform="matrix(0.71952717,0,0,-0.71952717,31.288046,14.565509)"
       id="g5709">
      <path
         id="path5711"
         style="fill:#000000;fill-opacity:1;fill-rule:nonzero;stroke:none"
         d="M 0,0 -0.004,-0.203 C -1.065,1.518 -2.856,3.683 -5.06,4.052 -5.789,4.495 -3.674,6.337 -3.674,6.337 -0.771,6.106 -0.213,0.894 0,0"
         inkscape:connector-curvature="0" />
    </g>
    <g
       transform="matrix(0.71952717,0,0,-0.71952717,30.477213,12.888217)"
       id="g5713">
      <path
         id="path5715"
         style="fill:#ecc051;fill-opacity:1;fill-rule:nonzero;stroke:none"
         d="M 0,0 C -0.973,1.033 -2.18,1.79 -3.439,2.32 -2.977,2.643 -2.649,3.933 -1.9,3.208 -1.028,2.253 -0.104,1.323 0,0"
         inkscape:connector-curvature="0" />
    </g>
    <g
       transform="matrix(0.71952717,0,0,-0.71952717,19.682867,13.576879)"
       id="g5717">
      <path
         id="path5719"
         style="fill:#000000;fill-opacity:1;fill-rule:nonzero;stroke:none"
         d="m 0,0 c -1.694,-0.986 -3.246,-2.56 -4.416,-4.189 0.582,-0.062 1.18,0.665 1.785,0.4 -0.533,-1.362 -1.543,-2.514 -1.293,-4.193 -0.082,-0.38 -0.524,1.989 0.313,3.397 -0.459,-0.144 -1.047,-0.362 -1.487,-0.762 -0.201,0.08 -0.349,0.286 -0.345,0.49 -3.606,-0.362 -3.208,2.494 -3.067,3.405 0.984,2.422 3.203,4.516 5.701,5.031 C 0.56,3.922 0,0 0,0"
         inkscape:connector-curvature="0" />
    </g>
    <g
       transform="matrix(0.71952717,0,0,-0.71952717,24.087167,12.520757)"
       id="g5721">
      <path
         id="path5723"
         style="fill:#000000;fill-opacity:1;fill-rule:nonzero;stroke:none"
         d="m 0,0 c -2.89,-1.185 -4.711,-3.627 -4.711,-3.627 0.555,1.312 1.385,4.648 3.877,5.344 L 0,0 z"
         inkscape:connector-curvature="0" />
    </g>
    <g
       transform="matrix(0.71952717,0,0,-0.71952717,19.479815,13.238195)"
       id="g5725">
      <path
         id="path5727"
         style="fill:#fbea98;fill-opacity:1;fill-rule:nonzero;stroke:none"
         d="m 0,0 c 0,-0.063 -1.611,-1.25 -1.864,-1.169 -0.016,0.584 -0.615,1.076 -1.016,1.413 -0.783,0.242 -1.631,-0.275 -2.15,-0.928 0,0 -0.753,-1.272 1.224,-2.636 -0.645,-0.523 -0.791,-1.613 -1.778,-1.493 -0.86,0.218 -2.06,-0.041 -2.191,1.13 -0.16,2.518 1.809,4.693 3.963,5.849 0.764,0.189 1.687,0.631 2.493,0.186 C -0.993,2.143 -0.125,1.309 0,0"
         inkscape:connector-curvature="0" />
    </g>
    <g
       transform="matrix(0.71952717,0,0,-0.71952717,23.594648,12.456788)"
       id="g5729">
      <path
         id="path5731"
         style="fill:#ecc051;fill-opacity:1;fill-rule:nonzero;stroke:none"
         d="M 0,0 C -1.271,-0.276 -2.37,-1.511 -3.015,-2.083 -2.748,-1.325 -1.36,0.633 -0.513,1.15 -0.214,0.815 -0.172,0.357 0,0"
         inkscape:connector-curvature="0" />
    </g>
    <g
       transform="matrix(0.71952717,0,0,-0.71952717,41.510443,19.440588)"
       id="g5733">
      <path
         id="path5735"
         style="fill:#000000;fill-opacity:1;fill-rule:nonzero;stroke:none"
         d="m 0,0 c -0.961,-1.202 -3.937,-1.404 -3.937,-1.404 0.089,-0.815 0.073,-1.728 -0.044,-2.566 -0.661,-0.038 -1.056,0.63 -1.428,1.068 -0.382,-1.416 -0.237,-3.324 -1.423,-4.369 0.611,1.588 0.668,3.417 0.752,5.244 0.341,0.629 1.279,-0.835 1.506,-1.017 0.443,2.241 -1.186,6.319 -1.876,7.424 0,0 0.405,4.412 2.479,5.367 C -0.272,10.177 2.119,2.649 0,0"
         inkscape:connector-curvature="0" />
    </g>
    <g
       transform="matrix(0.71952717,0,0,-0.71952717,41.114128,19.122994)"
       id="g5737">
      <path
         id="path5739"
         style="fill:#fbea98;fill-opacity:1;fill-rule:nonzero;stroke:none"
         d="m 0,0 c -0.781,-1.053 -2.055,-1.234 -3.192,-0.985 -0.3,0.284 -1.421,3.047 -1.15,4.033 0.596,-0.798 1.26,-2.131 2.481,-2 0.535,0.143 0.798,0.621 0.984,1.1 0.223,1.14 -0.168,2.061 -0.992,2.812 -0.326,0.311 -0.756,0.394 -1.211,0.453 -0.9,-0.594 -1.148,-1.605 -1.668,-2.358 -0.347,0.437 -0.44,0.999 -0.789,1.359 0.144,0.988 0.518,2.024 0.916,2.982 0.363,0.425 0.729,1.028 1.293,1.247 C -0.744,9.237 2.084,2.895 0,0"
         inkscape:connector-curvature="0" />
    </g>
    <g
       transform="matrix(0.71952717,0,0,-0.71952717,17.865122,14.038527)"
       id="g5741">
      <path
         id="path5743"
         style="fill:#edccb8;fill-opacity:1;fill-rule:nonzero;stroke:none"
         d="m 0,0 c 0.188,-0.841 -0.733,-1.232 -1.251,-1.858 -0.637,-0.065 -0.852,0.674 -1.251,1.114 -0.192,0.614 0.024,1.346 0.687,1.512 C -1.067,1.39 -0.242,0.639 0,0"
         inkscape:connector-curvature="0" />
    </g>
    <g
       transform="matrix(0.71952717,0,0,-0.71952717,39.760772,15.991894)"
       id="g5745">
      <path
         id="path5747"
         style="fill:#edccb8;fill-opacity:1;fill-rule:nonzero;stroke:none"
         d="M 0,0 C 0.649,-0.647 0.811,-1.614 0.518,-2.448 0.361,-2.623 0.354,-3.004 0.025,-2.922 c -0.56,-0.093 -1.062,0.273 -1.46,0.687 l -0.813,1.41 c 0.391,0.578 0.74,1.74 1.649,1.393 L 0,0 z"
         inkscape:connector-curvature="0" />
    </g>
    <g
       transform="matrix(0.71952717,0,0,-0.71952717,29.299566,17.473119)"
       id="g5749">
      <path
         id="path5751"
         style="fill:#000000;fill-opacity:1;fill-rule:nonzero;stroke:none"
         d="m 0,0 c 0.641,-1.205 0.813,-3.011 0.006,-4.09 -2.184,-2.712 -4.662,-0.756 -5.119,0.65 -0.479,1.71 0.263,3.423 1.603,4.544 0.592,0.42 1.327,0.408 2.01,0.192 C -0.843,1.133 -0.371,0.463 0,0"
         inkscape:connector-curvature="0" />
    </g>
    <g
       transform="matrix(0.71952717,0,0,-0.71952717,24.912822,17.578527)"
       id="g5753">
      <path
         id="path5755"
         style="fill:#000000;fill-opacity:1;fill-rule:nonzero;stroke:none"
         d="m 0,0 c 0.515,-1.102 0.612,-2.703 -0.242,-3.654 -2.547,-1.785 -3.839,-0.187 -4.198,0.988 -0.22,1.146 0.18,3.07 1.539,3.808 C -1.776,1.63 -0.54,1.101 0,0"
         inkscape:connector-curvature="0" />
    </g>
    <g
       transform="matrix(0.71952717,0,0,-0.71952717,52.685564,32.537497)"
       id="g5757">
      <path
         id="path5759"
         style="fill:#ce7d1f;fill-opacity:1;fill-rule:nonzero;stroke:none"
         d="m 0,0 c -1.638,-2.105 -4.133,-2.493 -6.439,-2.25 1.404,0.458 2.886,1.042 3.997,1.988 -1.636,-0.506 -3.234,-1.849 -5.083,-1.562 2.072,0.776 4.338,2.591 5.613,4.372 -1.266,-1.222 -2.633,-2.444 -4.195,-3.229 -0.568,-0.422 -1.333,-0.687 -2.145,-0.623 0.69,1.741 0.473,3.802 -0.389,5.366 -0.249,0.284 -0.629,0.417 -0.863,0.015 -0.734,-1.307 -0.812,-2.881 -0.254,-4.263 -1.244,1.445 -2.078,3.161 -1.56,5.133 2.091,4.891 8.935,2.638 10.453,8.046 C 0.896,9.179 2.533,4.02 0,0"
         inkscape:connector-curvature="0" />
    </g>
    <g
       transform="matrix(0.71952717,0,0,-0.71952717,26.405265,25.225593)"
       id="g5761">
      <path
         id="path5763"
         style="fill:#835796;fill-opacity:1;fill-rule:nonzero;stroke:none"
         d="m 0,0 c -0.349,-2.584 -3.046,-4.29 -5.026,-5.652 -1.459,-0.686 -3.276,-1.441 -4.832,-0.398 -1.86,1.175 -3.86,2.987 -4.534,5.082 -0.144,0.511 -0.056,1.118 0.508,1.439 2.418,-1.083 5.451,-1.95 8.26,-1.11 l 4.667,1.062 C -0.603,0.366 0.086,0.583 0,0"
         inkscape:connector-curvature="0" />
    </g>
    <g
       transform="matrix(0.71952717,0,0,-0.71952717,46.70593,32.744145)"
       id="g5765">
      <path
         id="path5767"
         style="fill:#a95926;fill-opacity:1;fill-rule:nonzero;stroke:none"
         d="m 0,0 -0.372,-0.908 c -1.081,0.629 -0.826,2.174 -1.212,3.273 0.238,0.605 0.275,1.316 0.693,1.867 C -0.125,3.05 0.307,1.57 0,0"
         inkscape:connector-curvature="0" />
    </g>
    <g
       transform="matrix(0.71952717,0,0,-0.71952717,51.442577,30.414103)"
       id="g5769">
      <path
         id="path5771"
         style="fill:#000000;fill-opacity:1;fill-rule:nonzero;stroke:none"
         d="M 0,0 -0.183,-0.353 0,0 z"
         inkscape:connector-curvature="0" />
    </g>
    <g
       transform="matrix(0.71952717,0,0,-0.71952717,46.209819,33.959714)"
       id="g5773">
      <path
         id="path5775"
         style="fill:#fbea98;fill-opacity:1;fill-rule:nonzero;stroke:none"
         d="m 0,0 c -1.261,-0.892 -1.24,-2.619 -1.037,-4.071 0.961,-4.588 7.984,-6.717 7.205,-12.114 -0.209,-5.76 -5.802,-6.426 -6.869,-6.484 -0.401,0.313 -0.394,0.77 -0.41,1.227 0.156,0.301 0.164,0.657 0.57,0.726 1.252,0.384 2.707,0.79 3.739,1.764 0.906,0.925 1.282,2.137 1.228,3.407 -0.69,2.603 -2.197,5.041 -4.401,6.884 -1.49,1.905 -3.361,3.843 -2.453,6.442 0.122,1.116 0.949,1.941 1.776,2.662 C -0.348,0.489 -0.254,0.08 0,0"
         inkscape:connector-curvature="0" />
    </g>
    <g
       transform="matrix(0.71952717,0,0,-0.71952717,25.561404,33.76364)"
       id="g5777">
      <path
         id="path5779"
         style="fill:#ffffff;fill-opacity:1;fill-rule:nonzero;stroke:none"
         d="m 0,0 c 0.043,-0.433 -0.09,-0.887 -0.401,-1.212 -0.454,0.16 -0.986,0.322 -1.205,0.858 C -1.07,-0.235 -0.535,-0.117 0,0"
         inkscape:connector-curvature="0" />
    </g>
    <g
       transform="matrix(0.71952717,0,0,-0.71952717,36.840499,35.678452)"
       id="g5781">
      <path
         id="path5783"
         style="fill:#f5d75c;fill-opacity:1;fill-rule:nonzero;stroke:none"
         d="M 0,0 C 2.615,-1.443 0.338,-3.943 0.378,-5.975 L -0.29,-9.393 -4.408,-28.446 c 7.328,4.413 8.146,-1.844 8.242,-3.674 -0.115,-0.76 -0.307,-1.493 -0.598,-2.2 -0.031,1.144 0.021,2.616 -0.902,3.548 -0.021,-1.245 0.484,-2.752 -0.071,-4.013 -1.131,-0.767 -2.599,-0.513 -3.867,-0.363 0.607,1.284 0.639,3.137 -0.152,4.395 -0.381,-1.466 0.179,-2.873 -0.506,-4.207 -1.343,-1.348 -3.185,-0.655 -4.883,-0.448 l -0.731,0.368 c -0.054,4.192 0.12,19.987 0.12,19.987 0.162,0.556 -0.174,1.679 0.94,1.407 0.462,0.295 0.599,0.877 0.634,1.435 0.631,-0.163 1.321,-0.048 1.836,0.35 0.565,0.422 0.221,1.062 0.205,1.621 0.942,0.06 1.934,0.221 2.457,1.075 0.09,0.761 -0.334,1.301 -0.652,1.892 0.972,0.414 1.726,1.442 1.873,2.531 l -0.088,0.84 c 0.639,0.218 0.5,0.982 0.636,1.513 -0.015,0.584 -0.661,1.358 -0.661,1.358 -0.165,-0.708 0.368,-2.14 -0.651,-2.3 -0.313,-0.477 0.235,-1.122 0.047,-1.703 -0.369,-0.755 -0.944,-1.685 -1.86,-1.796 -0.115,-0.785 0.765,-1.309 0.674,-2.145 -0.619,-0.574 -1.433,-0.61 -2.246,-0.647 -0.697,-0.623 0.604,-1.788 -0.721,-1.994 -0.67,-0.522 -0.974,0.932 -1.521,0.103 0.012,-0.711 0.03,-1.169 -0.512,-1.642 -0.407,-0.094 -0.705,0.368 -0.775,0.675 -0.097,0.306 0.01,0.684 -0.367,0.869 -0.686,-0.065 -0.627,-0.98 -1.242,-1.325 -0.027,-0.1 -0.153,-0.048 -0.229,-0.045 -0.516,0.998 0.038,2.157 0.057,3.223 -0.599,0.671 -1.174,-0.181 -1.782,-0.221 0.166,0.808 0.584,1.512 0.901,2.243 -0.244,0.512 -0.734,0.09 -1.09,0.146 3.579,2.656 7.022,4.984 10.502,7.969 C -0.932,0.448 -0.375,0.337 0,0"
         inkscape:connector-curvature="0" />
    </g>
    <g
       transform="matrix(0.71952717,0,0,-0.71952717,43.774432,45.7047)"
       id="g5785">
      <path
         id="path5787"
         style="fill:#f5d75c;fill-opacity:1;fill-rule:nonzero;stroke:none"
         d="m 0,0 c 2.424,-3.38 -3.292,-14.039 -3.193,-14.167 2.769,1.449 5.989,2.229 9.129,1.717 0.86,-0.244 1.224,-0.78 1.619,-1.474 0.431,-1.454 -0.326,-3.097 -0.629,-4.387 l -0.787,0.015 c 0.351,1.213 0.781,2.576 -0.063,3.658 -0.126,0.053 0.081,-1.907 -0.497,-3.724 l -10.733,-0.445 c 0.271,2.459 -0.448,4.936 -2.762,6.196 -2.158,1.389 -5.195,-0.774 -5.195,-0.774 1.602,7.313 3.125,14.475 4.597,21.764 C -6.414,5.015 -2.277,3.342 0,0"
         inkscape:connector-curvature="0" />
    </g>
    <g
       transform="matrix(0.71952717,0,0,-0.71952717,28.497074,41.545689)"
       id="g5789">
      <path
         id="path5791"
         style="fill:#fbea98;fill-opacity:1;fill-rule:nonzero;stroke:none"
         d="m 0,0 c -0.142,-0.81 -1.403,-1.753 -0.349,-2.432 0.482,-0.084 0.866,0.062 1.226,0.36 0.08,-1.221 -0.735,-2.831 0.779,-3.443 0.457,0.069 0.918,0.289 1.18,0.716 1.132,-0.68 0.066,-2.007 0.377,-3.104 0.019,-6.573 -0.098,-12.927 -0.286,-19.325 -1.187,-1.072 -3.074,-1.545 -4.589,-0.96 -0.58,1.661 0.337,4.693 0.337,4.693 -0.636,-1.463 -1.296,-2.975 -1.073,-4.732 -0.977,-0.642 -2.419,-0.288 -3.481,-0.014 -0.475,0.338 -1.002,0.754 -0.939,1.414 0.047,1.369 0.726,3.897 0.726,3.897 -0.707,-1.283 -1.494,-2.666 -1.291,-4.193 l -0.004,-0.229 c -0.225,0.182 -0.705,0.318 -0.648,0.748 0.222,2.434 0.17,5.332 2.553,6.534 1.857,0.172 5.613,-0.047 5.613,-0.047 -1.411,5.027 -2.11,10.095 -3.215,15.243 0.231,1.571 0.619,3.344 1.783,4.669 C -0.892,-0.06 -0.435,-0.067 0,0"
         inkscape:connector-curvature="0" />
    </g>
    <g
       transform="matrix(0.71952717,0,0,-0.71952717,23.709842,43.56375)"
       id="g5793">
      <path
         id="path5795"
         style="fill:#f5d75c;fill-opacity:1;fill-rule:nonzero;stroke:none"
         d="m 0,0 c 0.808,-0.293 1.528,0.304 2.221,0.698 1.377,-5.586 2.214,-11.493 3.589,-17.13 -1.873,0.413 -3.732,0.192 -5.418,-0.388 -2.632,-1.942 -2.371,-6.258 -2.371,-6.258 -1.831,-0.222 -4.153,-0.766 -5.659,0.302 -1.039,2.236 0.184,4.645 -0.097,4.574 -0.753,-1.003 -1.409,-3.077 -0.52,-5.07 -0.996,-0.313 -1.987,-0.372 -2.918,0.126 -0.624,0.645 -0.676,3.261 -0.224,4.576 -0.638,-0.091 -0.553,-1.057 -0.841,-1.586 -0.223,-1.062 0.094,-1.856 0.152,-2.923 -0.255,0.055 -0.455,0.186 -0.735,0.141 -0.457,1.454 -0.651,3.489 0.136,4.874 0.497,0.727 1.147,1.706 2.039,1.919 2.855,0.509 5.405,-0.348 7.484,-2.035 0.715,0.242 -3.597,9.283 -3.069,13.286 1.513,2.386 3.826,3.895 5.538,5.948 L 1.167,2.85 C 0.845,1.865 0.825,0.774 0,0"
         inkscape:connector-curvature="0" />
    </g>
    <g
       transform="matrix(0.71952717,0,0,-0.71952717,22.097957,18.708403)"
       id="g5797">
      <path
         id="path5799"
         style="fill:#ffffff;fill-opacity:1;fill-rule:nonzero;stroke:none"
         d="M 0,0 C 0,1.315 0.835,2.381 1.867,2.381 2.897,2.381 3.733,1.315 3.733,0 3.733,-1.314 2.897,-2.381 1.867,-2.381 0.835,-2.381 0,-1.314 0,0"
         inkscape:connector-curvature="0" />
    </g>
    <g
       transform="matrix(0.71952717,0,0,-0.71952717,25.989303,18.941023)"
       id="g5801">
      <path
         id="path5803"
         style="fill:#ffffff;fill-opacity:1;fill-rule:nonzero;stroke:none"
         d="M 0,0 C 0,1.545 1.024,2.798 2.288,2.798 3.551,2.798 4.575,1.545 4.575,0 4.575,-1.545 3.551,-2.798 2.288,-2.798 1.024,-2.798 0,-1.545 0,0"
         inkscape:connector-curvature="0" />
    </g>
    <g
       transform="matrix(0.71952717,0,0,-0.71952717,23.347274,16.999526)"
       id="g5805">
      <path
         id="path5807"
         style="fill:#dce8eb;fill-opacity:1;fill-rule:nonzero;stroke:none"
         d="m 0,0 0.131,0.006 c 1.03,0 1.866,-1.066 1.866,-2.381 0,-1.314 -0.836,-2.381 -1.866,-2.381 -0.379,0 -0.732,0.143 -1.025,0.39 0.969,0.085 1.737,1.116 1.737,2.375 C 0.843,-1.158 0.508,-0.425 0,0"
         inkscape:connector-curvature="0" />
    </g>
    <g
       transform="matrix(0.71952717,0,0,-0.71952717,27.635657,16.927861)"
       id="g5809">
      <path
         id="path5811"
         style="fill:#dce8eb;fill-opacity:1;fill-rule:nonzero;stroke:none"
         d="m 0,0 c 1.263,0 2.287,-1.253 2.287,-2.798 0,-1.545 -1.024,-2.798 -2.287,-2.798 -0.424,0 -0.814,0.142 -1.155,0.385 1.264,0 2.288,1.254 2.288,2.798 C 1.133,-1.385 0.675,-0.486 0,0"
         inkscape:connector-curvature="0" />
    </g>
    <g
       transform="matrix(0.71952717,0,0,-0.71952717,22.966431,18.641631)"
       id="g5813">
      <path
         id="path5815"
         style="fill:#000000;fill-opacity:1;fill-rule:nonzero;stroke:none"
         d="M 0,0 C 0,0.695 0.563,1.259 1.259,1.259 1.953,1.259 2.517,0.695 2.517,0 2.517,-0.694 1.953,-1.258 1.259,-1.258 0.563,-1.258 0,-0.694 0,0"
         inkscape:connector-curvature="0" />
    </g>
    <g
       transform="matrix(0.71952717,0,0,-0.71952717,27.201425,18.775895)"
       id="g5817">
      <path
         id="path5819"
         style="fill:#000000;fill-opacity:1;fill-rule:nonzero;stroke:none"
         d="M 0,0 C 0,0.799 0.646,1.445 1.444,1.445 2.243,1.445 2.891,0.799 2.891,0 2.891,-0.798 2.243,-1.446 1.444,-1.446 0.646,-1.446 0,-0.798 0,0"
         inkscape:connector-curvature="0" />
    </g>
    <g
       transform="matrix(0.71952717,0,0,-0.71952717,22.966431,18.338779)"
       id="g5821">
      <path
         id="path5823"
         style="fill:#ffffff;fill-opacity:1;fill-rule:nonzero;stroke:none"
         d="M 0,0 C 0,0.359 0.292,0.651 0.649,0.651 1.009,0.651 1.302,0.359 1.302,0 1.302,-0.358 1.009,-0.649 0.649,-0.649 0.292,-0.649 0,-0.358 0,0"
         inkscape:connector-curvature="0" />
    </g>
    <g
       transform="matrix(0.71952717,0,0,-0.71952717,27.268842,18.506072)"
       id="g5825">
      <path
         id="path5827"
         style="fill:#ffffff;fill-opacity:1;fill-rule:nonzero;stroke:none"
         d="M 0,0 C 0,0.384 0.312,0.696 0.697,0.696 1.082,0.696 1.394,0.384 1.394,0 1.394,-0.386 1.082,-0.698 0.697,-0.698 0.312,-0.698 0,-0.386 0,0"
         inkscape:connector-curvature="0" />
    </g>
    <g
       transform="matrix(0.71952717,0,0,-0.71952717,20.259783,29.931369)"
       id="g5829">
      <path
         id="path5831"
         style="fill:#b18db8;fill-opacity:1;fill-rule:nonzero;stroke:none"
         d="m 0,0 c -0.449,0.054 -0.894,0.205 -1.317,0.49 -1.86,1.175 -3.86,2.988 -4.534,5.082 -0.144,0.511 -0.056,1.118 0.508,1.439 2.418,-1.083 5.451,-1.949 8.26,-1.11 L 7.584,6.963 C 7.858,6.919 8.335,7.039 8.495,6.824 L 4.625,5.353 C 1.96,4.13 -1.164,4.564 -3.71,5.301 -4.224,4.904 -4.226,4.292 -4.013,3.806 -3.24,2.211 -1.64,0.916 0,0"
         inkscape:connector-curvature="0" />
    </g>
    <g
       transform="matrix(0.71952717,0,0,-0.71952717,16.591202,26.325962)"
       id="g5833">
      <path
         id="path5835"
         style="fill:#ffffff;fill-opacity:1;fill-rule:nonzero;stroke:none"
         d="M 0,0 C 0,0.465 0.377,0.842 0.842,0.842 1.308,0.842 1.685,0.465 1.685,0 1.685,-0.465 1.308,-0.841 0.842,-0.841 0.377,-0.841 0,-0.465 0,0"
         inkscape:connector-curvature="0" />
    </g>
    <g
       transform="matrix(0.71952717,0,0,-0.71952717,25.561404,33.76364)"
       id="g5837">
      <path
         id="path5839"
         style="fill:#dce8eb;fill-opacity:1;fill-rule:nonzero;stroke:none"
         d="m 0,0 c 0.043,-0.433 -0.09,-0.887 -0.401,-1.212 -0.162,0.057 -0.333,0.114 -0.497,0.189 0.175,0.26 0.261,0.573 0.257,0.883 L 0,0 z"
         inkscape:connector-curvature="0" />
    </g>
    <g
       transform="matrix(0.71952717,0,0,-0.71952717,41.114128,19.122994)"
       id="g5841">
      <path
         id="path5843"
         style="fill:#f5d75c;fill-opacity:1;fill-rule:nonzero;stroke:none"
         d="m 0,0 c -0.781,-1.053 -2.055,-1.234 -3.192,-0.985 -0.075,0.069 -0.198,0.291 -0.339,0.597 0.764,0.064 1.496,0.378 2.01,1.074 0.277,0.385 0.468,0.833 0.583,1.316 l 0.061,0.146 c 0.043,0.223 0.064,0.438 0.063,0.644 C -0.65,4.934 -1.67,7.484 -2.998,8.683 -0.512,8.702 1.996,2.771 0,0"
         inkscape:connector-curvature="0" />
    </g>
    <g
       transform="matrix(0.71952717,0,0,-0.71952717,19.479815,13.238195)"
       id="g5845">
      <path
         id="path5847"
         style="fill:#f5d75c;fill-opacity:1;fill-rule:nonzero;stroke:none"
         d="m 0,0 c 0,-0.063 -1.611,-1.25 -1.864,-1.169 -0.016,0.584 -0.615,1.076 -1.016,1.413 -0.158,0.051 -0.318,0.068 -0.479,0.06 -0.156,0.585 -0.501,1.117 -0.984,1.553 0.175,0.11 0.353,0.212 0.531,0.309 0.764,0.189 1.687,0.631 2.493,0.186 C -0.993,2.143 -0.125,1.309 0,0"
         inkscape:connector-curvature="0" />
    </g>
    <g
       transform="matrix(0.71952717,0,0,-0.71952717,15.461975,16.701641)"
       id="g5849">
      <path
         id="path5851"
         style="fill:#f5d75c;fill-opacity:1;fill-rule:nonzero;stroke:none"
         d="M 0,0 C -0.806,0.204 -1.908,-0.009 -2.153,0.925 -0.861,0.93 0.302,1.357 1.118,2.038 1.294,1.86 1.511,1.677 1.778,1.493 1.133,0.971 0.987,-0.119 0,0"
         inkscape:connector-curvature="0" />
    </g>
    <g
       transform="matrix(0.71952717,0,0,-0.71952717,15.368507,8.4241953)"
       id="g5853">
      <path
         id="path5855"
         style="fill:#a95926;fill-opacity:1;fill-rule:nonzero;stroke:none"
         d="M 0,0 C -0.998,0.284 -2.978,-0.3 -2.978,-0.3 0.024,3.853 7.312,4.194 7.289,4.398 6.867,4.964 6.209,5.052 5.656,5.392 c 2.908,0.761 5.164,-1.056 7.4,-2.39 l 0.664,0.191 c 3.471,3.927 7.848,5.832 12.854,5.923 0,0 -0.492,-0.672 -1.013,-1.421 C 21.606,7.097 18.113,5.232 15.24,1.983 L 14.578,1.791 C 12.34,3.125 10.086,4.943 7.178,4.181 7.73,3.841 8.39,3.753 8.811,3.187 8.83,3.012 3.416,2.734 0,0"
         inkscape:connector-curvature="0" />
    </g>
    <g
       transform="matrix(0.71952717,0,0,-0.71952717,12.344985,15.813451)"
       id="g5857">
      <path
         id="path5859"
         style="fill:#a95926;fill-opacity:1;fill-rule:nonzero;stroke:none"
         d="M 0,0 C -0.927,-0.633 -2.339,-2.108 -2.339,-2.108 -1.822,2.257 0.767,5.868 3.805,9.006 4.72,9.174 5.942,9.275 6.225,8.698 3.639,6.163 1.251,3.316 0,0"
         inkscape:connector-curvature="0" />
    </g>
    <g
       transform="matrix(0.71952717,0,0,-0.71952717,14.272385,27.892948)"
       id="g5861">
      <path
         id="path5863"
         style="fill:#a95926;fill-opacity:1;fill-rule:nonzero;stroke:none"
         d="m 0,0 c -0.041,-0.307 -0.059,-0.621 -0.033,-0.951 -4.375,5.424 -3.912,11.303 -3.067,14.822 0.666,0.663 1.993,1.92 2.516,1.985 C -0.421,15.831 -4.527,7.83 0,0"
         inkscape:connector-curvature="0" />
    </g>
    <g
       transform="matrix(0.71952717,0,0,-0.71952717,20.738269,38.113187)"
       id="g5865">
      <path
         id="path5867"
         style="fill:#a95926;fill-opacity:1;fill-rule:nonzero;stroke:none"
         d="m 0,0 c 0.13,-0.076 0.267,-0.133 0.424,-0.145 0.305,0.021 0.765,0.14 0.695,0.548 L 1.123,0.656 C 1.701,0.291 2.426,-0.408 3.121,0.189 3.021,0.242 3.074,0.343 3.049,0.419 3.759,0.255 4.742,-0.093 5.388,0.455 L 5.393,0.81 C 6.455,0.513 7.923,0.207 8.851,1.004 8.63,1.465 8.41,1.926 8.394,2.46 c 5.869,2.996 11.217,11.218 5.254,24.298 0.991,1.455 1.479,3.497 0.621,5.239 -0.027,0.064 -0.052,0.126 -0.082,0.185 0.69,-0.247 1.301,-0.624 1.602,-1.396 0.859,-1.742 0.369,-3.783 -0.62,-5.239 C 21.132,12.468 15.783,4.245 9.914,1.249 9.931,0.715 10.152,0.254 10.373,-0.207 9.445,-1.003 7.976,-0.699 6.914,-0.401 L 6.908,-0.755 C 6.264,-1.303 5.279,-0.956 4.57,-0.791 4.596,-0.868 4.543,-0.968 4.644,-1.021 3.947,-1.619 3.223,-0.92 2.645,-0.555 L 2.641,-0.809 C 2.71,-1.216 2.251,-1.335 1.945,-1.355 1.729,-1.339 0.877,-0.694 0,0"
         inkscape:connector-curvature="0" />
    </g>
    <g
       transform="matrix(0.71952717,0,0,-0.71952717,52.685564,32.537497)"
       id="g5869">
      <path
         id="path5871"
         style="fill:#a95926;fill-opacity:1;fill-rule:nonzero;stroke:none"
         d="m 0,0 c -1.638,-2.105 -4.133,-2.493 -6.439,-2.25 1.404,0.458 2.886,1.042 3.997,1.988 -1.636,-0.506 -3.234,-1.849 -5.083,-1.562 2.072,0.776 4.338,2.591 5.613,4.372 -1.266,-1.222 -2.633,-2.444 -4.195,-3.229 -0.568,-0.422 -1.333,-0.687 -2.145,-0.623 0.034,0.09 0.068,0.18 0.098,0.271 1.55,0.196 3.029,0.836 4.125,2.244 1.656,2.628 1.529,5.743 0.752,8.652 1.087,0.641 1.972,1.565 2.412,3.13 C 0.896,9.179 2.533,4.02 0,0"
         inkscape:connector-curvature="0" />
    </g>
    <g
       transform="matrix(0.71952717,0,0,-0.71952717,46.209819,33.959714)"
       id="g5873">
      <path
         id="path5875"
         style="fill:#f5d75c;fill-opacity:1;fill-rule:nonzero;stroke:none"
         d="m 0,0 c -1.261,-0.892 -1.24,-2.619 -1.037,-4.071 0.961,-4.588 7.984,-6.717 7.205,-12.114 -0.209,-5.76 -5.802,-6.426 -6.869,-6.484 -0.162,0.125 -0.256,0.275 -0.315,0.438 1.899,0.305 5.883,1.546 6.059,6.391 0.78,5.398 -6.242,7.527 -7.205,12.114 -0.109,0.783 -0.164,1.644 0.002,2.413 0.336,0.681 0.922,1.245 1.508,1.756 C -0.348,0.489 -0.254,0.08 0,0"
         inkscape:connector-curvature="0" />
    </g>
    <g
       transform="matrix(0.71952717,0,0,-0.71952717,23.709842,43.56375)"
       id="g5877">
      <path
         id="path5879"
         style="fill:#fbea98;fill-opacity:1;fill-rule:nonzero;stroke:none"
         d="m 0,0 c 0.058,-0.021 0.116,-0.038 0.174,-0.049 -1.677,-1.888 -3.821,-3.36 -5.252,-5.615 -0.526,-4.004 3.785,-13.044 3.069,-13.286 -0.358,0.29 -0.73,0.557 -1.116,0.796 l -0.292,0.175 c -1.785,1.023 -3.836,1.463 -6.074,1.065 -0.84,-0.201 -1.466,-1.08 -1.949,-1.789 l 0.043,0.133 c -0.638,-0.091 -0.553,-1.057 -0.841,-1.586 -0.223,-1.062 0.094,-1.856 0.152,-2.923 -0.255,0.055 -0.455,0.186 -0.735,0.141 -0.457,1.454 -0.651,3.489 0.136,4.874 0.497,0.727 1.147,1.706 2.039,1.919 2.739,0.488 5.197,-0.281 7.229,-1.834 l 0.255,-0.201 c 0.538,0.615 -3.587,9.366 -3.069,13.286 1.513,2.386 3.826,3.895 5.538,5.948 L 1.167,2.85 C 0.845,1.865 0.825,0.774 0,0"
         inkscape:connector-curvature="0" />
    </g>
    <g
       transform="matrix(0.71952717,0,0,-0.71952717,28.497074,41.545689)"
       id="g5881">
      <path
         id="path5883"
         style="fill:#f5d75c;fill-opacity:1;fill-rule:nonzero;stroke:none"
         d="m 0,0 c -0.142,-0.81 -1.403,-1.753 -0.349,-2.432 0.482,-0.084 0.866,0.062 1.226,0.36 0.08,-1.221 -0.735,-2.831 0.779,-3.443 0.457,0.069 0.918,0.289 1.18,0.716 1.132,-0.68 0.066,-2.007 0.377,-3.104 0.019,-6.573 -0.098,-12.927 -0.286,-19.325 -1.187,-1.072 -3.074,-1.545 -4.589,-0.96 -0.58,1.661 0.337,4.693 0.337,4.693 -0.636,-1.463 -1.296,-2.975 -1.073,-4.732 -0.977,-0.642 -2.419,-0.288 -3.481,-0.014 -0.475,0.338 -1.002,0.754 -0.939,1.414 0.008,0.262 0.041,0.566 0.088,0.888 1.542,-0.604 2.974,-0.742 3.013,0.495 0.086,2.645 4.721,4.289 4.721,4.289 0,0 -0.086,5.031 -0.172,10.842 -0.061,4.056 -2.254,4.118 -3.572,3.786 -0.112,0.549 -0.225,1.101 -0.344,1.653 0.231,1.571 0.619,3.344 1.783,4.669 C -0.892,-0.06 -0.435,-0.067 0,0"
         inkscape:connector-curvature="0" />
    </g>
    <g
       transform="matrix(0.71952717,0,0,-0.71952717,23.239058,60.033434)"
       id="g5885">
      <path
         id="path5887"
         style="fill:#f5d75c;fill-opacity:1;fill-rule:nonzero;stroke:none"
         d="m 0,0 c -0.103,-0.463 -0.141,-0.938 -0.075,-1.429 l -0.004,-0.228 c -0.226,0.181 -0.705,0.317 -0.649,0.748 0.038,0.395 0.067,0.803 0.099,1.214 C -0.423,0.197 -0.211,0.096 0,0"
         inkscape:connector-curvature="0" />
    </g>
    <g
       transform="matrix(0.71952717,0,0,-0.71952717,31.16724,60.077686)"
       id="g5889">
      <path
         id="path5891"
         style="fill:#fbea98;fill-opacity:1;fill-rule:nonzero;stroke:none"
         d="M 0,0 C -0.019,4.957 0.109,16.939 0.127,18.652 1.379,18.841 2.951,18.893 2.845,17.915 2.672,16.308 2.326,2.698 2.326,2.698 2.326,2.698 2.027,0.811 0,0"
         inkscape:connector-curvature="0" />
    </g>
    <g
       transform="matrix(0.71952717,0,0,-0.71952717,49.392863,35.637652)"
       id="g5893">
      <path
         id="path5895"
         style="fill:#b18db8;fill-opacity:1;fill-rule:nonzero;stroke:none"
         d="M 0,0 C 0,0 6.066,-3.259 5.721,4.222 5.721,4.222 4.992,-0.86 0,0"
         inkscape:connector-curvature="0" />
    </g>
    <g
       transform="matrix(0.71952717,0,0,-0.71952717,53.770466,34.961008)"
       id="g5897">
      <path
         id="path5899"
         style="fill:#b18db8;fill-opacity:1;fill-rule:nonzero;stroke:none"
         d="M 0,0 C -0.252,-3.04 -3.045,-2.371 -3.045,-2.371 1.578,-4.091 0,0 0,0"
         inkscape:connector-curvature="0" />
    </g>
    <g
       transform="matrix(0.71952717,0,0,-0.71952717,36.645219,36.726083)"
       id="g5901">
      <path
         id="path5903"
         style="fill:#fbea98;fill-opacity:1;fill-rule:nonzero;stroke:none"
         d="m 0,0 c -0.156,0.248 -0.305,0.425 -0.305,0.425 -0.165,-0.708 0.368,-2.14 -0.65,-2.3 -0.314,-0.477 0.234,-1.122 0.047,-1.703 -0.369,-0.755 -0.945,-1.685 -1.861,-1.796 -0.115,-0.785 0.765,-1.309 0.674,-2.145 -0.619,-0.574 -1.432,-0.61 -2.246,-0.647 -0.696,-0.623 0.605,-1.788 -0.721,-1.994 -0.669,-0.522 -0.973,0.932 -1.52,0.103 0.012,-0.711 0.029,-1.169 -0.513,-1.642 -0.407,-0.094 -0.705,0.368 -0.774,0.675 -0.098,0.306 0.01,0.684 -0.367,0.869 -0.687,-0.065 -0.627,-0.98 -1.243,-1.324 -0.027,-0.101 -0.153,-0.049 -0.228,-0.046 -0.517,0.998 0.037,2.157 0.057,3.223 -0.6,0.671 -1.174,-0.181 -1.783,-0.221 0.166,0.808 0.584,1.512 0.902,2.243 -0.244,0.512 -0.735,0.09 -1.09,0.146 3.578,2.656 7.021,4.984 10.502,7.969 0.234,0.035 0.494,0.023 0.742,-0.042 C -0.22,1.205 -0.074,0.567 0,0"
         inkscape:connector-curvature="0" />
    </g>
    <g
       transform="matrix(0.71952717,0,0,-0.71952717,30.933968,44.354216)"
       id="g5905">
      <path
         id="path5907"
         style="fill:#ffffff;fill-opacity:1;fill-rule:nonzero;stroke:none"
         d="M 0,0 C -0.027,0.179 -0.087,0.343 -0.299,0.446 -0.985,0.382 -0.926,-0.533 -1.541,-0.878 -1.568,-0.979 -1.694,-0.927 -1.77,-0.924 -2.286,0.074 -1.732,1.233 -1.713,2.3 -1.809,2.405 -1.902,2.474 -1.995,2.513 -0.084,4.164 2.382,6.063 2.996,5.47 4.033,4.468 3.947,3.084 3.083,3.17 2.218,3.257 2.045,3.344 2.045,3.344 c 0,0 0.865,-1.573 0,-1.349 C 1.18,2.219 0.956,2.306 0.956,2.306 L 0.783,0.093 0.004,0.006 0,0 z"
         inkscape:connector-curvature="0" />
    </g>
  </g>
</svg>
