<?xml version="1.0" encoding="UTF-8" standalone="no"?>
<!-- Created with Inkscape (http://www.inkscape.org/) -->

<svg
   xmlns:dc="http://purl.org/dc/elements/1.1/"
   xmlns:cc="http://creativecommons.org/ns#"
   xmlns:rdf="http://www.w3.org/1999/02/22-rdf-syntax-ns#"
   xmlns:svg="http://www.w3.org/2000/svg"
   xmlns="http://www.w3.org/2000/svg"
   xmlns:sodipodi="http://sodipodi.sourceforge.net/DTD/sodipodi-0.dtd"
   xmlns:inkscape="http://www.inkscape.org/namespaces/inkscape"
   width="64px"
   height="64px"
   id="svg170047"
   version="1.1"
   inkscape:version="0.48.5 r10040"
   sodipodi:docname="Nowy dokument 18">
  <defs
     id="defs170049" />
  <sodipodi:namedview
     id="base"
     pagecolor="#ffffff"
     bordercolor="#666666"
     borderopacity="1.0"
     inkscape:pageopacity="0.0"
     inkscape:pageshadow="2"
     inkscape:zoom="5.5"
     inkscape:cx="32"
     inkscape:cy="32"
     inkscape:current-layer="layer1"
     showgrid="true"
     inkscape:document-units="px"
     inkscape:grid-bbox="true"
     inkscape:window-width="1366"
     inkscape:window-height="706"
     inkscape:window-x="-8"
     inkscape:window-y="-8"
     inkscape:window-maximized="1" />
  <metadata
     id="metadata170052">
    <rdf:RDF>
      <cc:Work
         rdf:about="">
        <dc:format>image/svg+xml</dc:format>
        <dc:type
           rdf:resource="http://purl.org/dc/dcmitype/StillImage" />
        <dc:title></dc:title>
      </cc:Work>
    </rdf:RDF>
  </metadata>
  <g
     id="layer1"
     inkscape:label="Layer 1"
     inkscape:groupmode="layer">
    <g
       transform="matrix(0.67404175,0,0,-0.67404175,48.612537,3.9097108)"
       id="g5913">
      <path
         id="path5915"
         style="fill:#000000;fill-opacity:1;fill-rule:nonzero;stroke:none"
         d="m 0,0 c 1.367,-0.837 0.568,-2.634 0.714,-3.893 0.7,0.443 2.642,1.752 3.466,0.491 0.493,-1.775 -1.082,-3.125 -2.358,-4.101 0.447,-0.945 0.193,-2.18 -0.161,-3.078 -0.175,-0.618 -1.12,-1.003 -0.925,-1.647 0.732,0.414 1.391,1.379 2.322,0.934 -0.008,-1.323 -0.727,-2.442 -0.892,-3.583 0.644,0.135 1.469,0.425 2.002,-0.088 -0.1,-1.447 -0.751,-2.812 -1.622,-4.026 0.278,-0.118 0.739,-0.018 0.897,-0.355 0.085,-1.35 -1.187,-2.419 -1.566,-3.563 0,0 1.294,-0.161 1.33,-0.438 -0.734,-2.043 -2.153,-3.544 -3.817,-5.079 0.279,-0.149 0.743,-0.296 0.658,-0.726 -0.299,-0.467 -0.754,-0.875 -1.21,-1.129 l 0.593,-0.512 c 0.172,-1.105 -1.269,-1.314 -1.905,-1.94 0.344,-0.241 0.779,-0.54 0.696,-1.034 -0.784,-0.905 -1.984,-0.896 -3.088,-1.068 -2.666,-4.015 -6.754,-7.685 -10.674,-10.366 1.77,-2.798 3.3,-5.847 4.218,-9.091 2.171,-8.143 -2.327,-14.709 -6.492,-20.933 1.273,-0.715 2.578,0.23 3.902,0.161 1.804,0.616 4.268,2.104 5.992,0.32 0.165,-0.643 0.812,-0.755 1.279,-1.085 0.5,-0.484 0.636,-1.158 0.678,-1.833 -0.542,-0.655 0.113,-1.229 0.188,-1.996 -0.016,-0.799 -0.562,-1.271 -1.076,-1.803 -2.219,-1.453 -5.098,-0.365 -7.175,0.613 -1.886,0.582 -4.23,1.002 -6.281,0.353 0.158,-0.152 0.07,-0.4 0.104,-0.583 -0.264,-0.835 -1.117,-1.189 -1.82,-1.446 -1.651,-0.644 -3.051,0.407 -4.528,0.443 -1.205,0.348 -1.658,1.539 -2.32,2.451 l -1.24,-1.129 c -2.188,-1.546 -5.124,-2.457 -7.727,-1.365 -0.266,-0.62 -0.562,-1.209 -1.075,-1.741 -0.519,-0.347 -1.16,-0.574 -1.839,-0.402 -0.623,0.451 -1.397,0.776 -1.81,1.445 -0.976,-0.386 -1.788,-1.446 -3.056,-1.069 -0.681,0.328 -0.851,1.155 -1.501,1.451 -1.01,-0.294 -2.29,-0.871 -3.109,0.161 -1.401,2.743 -0.288,5.961 1.394,8.205 -0.096,0.152 -0.219,0.179 -0.371,0.145 -0.372,0.18 -0.84,0.571 -0.665,1.097 0.237,0.465 3.716,5.601 3.716,5.601 0,0 -0.401,0.054 -0.492,-0.071 -0.84,0.632 1.909,3.478 2.048,4.311 -0.092,-0.033 -0.891,-0.077 -0.898,0.292 l 2.248,3.422 c -1.981,0.703 -3.797,2.578 -4.965,4.28 -4.725,8.159 4.433,13.762 4.793,21.394 0.775,6.658 -2.65,12.656 -8.101,16.558 -2.338,1.836 -7.166,3.597 -6.249,7.395 0.68,1.519 2.338,1.732 3.811,1.912 5.541,-0.304 10.621,-4.151 13.81,-8.893 1.012,-1.704 1.693,-3.599 2.369,-5.341 0.912,0.601 2.086,0.252 3.014,-0.04 0.967,2.755 2.362,5.64 5.197,7.104 -0.226,0.549 -1.523,0.804 -1.137,1.671 1.163,0.328 2.546,0.414 3.685,0.311 -0.317,0.486 -0.696,1.064 -0.461,1.744 1.407,0.425 2.509,-1.094 3.418,-2.001 0.755,0.721 1.349,1.931 2.486,2.043 0.562,-0.574 0.029,-1.66 0.102,-2.366 1.077,-0.013 2.182,0.13 3.05,-0.316 0.109,-0.92 -1.058,-1.033 -1.539,-1.657 2.113,-1.286 4.362,-3.306 5.356,-5.595 0.291,-0.734 0.427,-1.53 0.686,-2.264 0.485,0.347 2.467,0.582 3.489,-0.831 1.074,-1.611 1.178,-3.978 0.409,-5.744 -0.686,-1.242 -1.836,-2.309 -3.22,-2.271 0.447,-1.006 0.739,-1.893 1.156,-2.87 1.724,1.722 2.767,3.584 3.806,5.694 0.326,0.714 -0.123,1.813 0.637,2.287 1.042,0.141 0.163,1.263 0.122,1.847 -0.112,1.075 -0.588,1.958 -0.05,2.891 0.24,0.311 0.585,-0.083 0.857,0.168 -0.113,1.228 -1.425,2.313 -0.647,3.587 0.274,0.159 0.676,-0.02 0.951,0.171 l -0.829,1.677 c -0.229,0.733 -0.763,1.401 -0.777,2.137 0.305,0.222 0.588,-0.174 0.892,0.078 -0.322,0.794 -0.95,1.553 -0.873,2.414 -0.188,0.213 -0.496,0.238 -0.804,0.233 -0.913,-0.539 -1.756,0.184 -2.38,0.696 -0.381,0.793 0.002,1.63 0.484,2.284 0.692,0.843 1.799,0.893 2.784,0.848 -0.37,1.778 -2.536,2.539 -2.355,4.542 0.206,0.526 0.752,0.904 1.241,1.129 1.078,-0.105 2.038,-0.519 2.882,-1.273 0.075,1.017 -0.503,2.329 0.095,3.323 2.452,1.113 3.102,-1.514 3.427,-2.461 C -2.356,-2.409 -1.673,0.038 0,0 m -43.588,-45.106 c -4.237,-7.905 0.996,-11.208 1.246,-11.511 2.135,4.527 5.226,8.918 8.633,12.851 -4.668,5.04 -2.17,11.557 -1.907,12.3 -0.429,-0.1 -0.74,0.141 -1.199,0.04 0.124,-5.41 -4.486,-9.119 -6.773,-13.68 m 6.201,-24.094 c 0.102,-2.275 -1.586,-4.241 -0.717,-6.441 2.528,-0.354 5.127,0.428 7.676,0.657 -2.238,3.129 -4.297,6.538 -5.498,10.238 -0.035,-1.569 -0.069,-3.108 -0.444,-4.529 -0.298,-0.529 -0.831,0.047 -1.017,0.075 m 10.857,-5.284 c 0.991,-0.414 2.534,-0.725 2.619,-2.107 0.375,1.45 2.602,0.658 2.477,2.503 l 0.526,3.452 c -1.794,0.554 -3.764,0.643 -5.764,0.731 -0.528,-1.486 0.115,-3.042 0.142,-4.579"
         inkscape:connector-curvature="0" />
    </g>
    <g
       transform="matrix(0.67404175,0,0,-0.67404175,27.08338,18.608943)"
       id="g5917">
      <path
         id="path5919"
         style="fill:#f3dcca;fill-opacity:1;fill-rule:nonzero;stroke:none"
         d="m 0,0 c -0.748,-1.242 -0.75,-4.596 -0.903,-4.598 -0.254,0.425 -0.076,0.86 -0.239,1.319 -0.607,1.311 -1.863,2.765 -3.431,2.768 -0.856,-0.26 -1.804,-0.616 -2.28,-1.515 -2.294,-4.995 1.931,-6.67 2.795,-6.839 1.018,-0.198 1.332,1.221 1.873,1.877 -0.22,0.303 -0.677,0.018 -0.957,0.229 -0.466,0.329 -0.849,1.122 -0.399,1.685 0.363,0.405 1.563,0.303 1.626,0.304 0.174,0.587 -0.297,1.102 -0.611,1.558 -0.561,0.359 -1.088,0.627 -1.728,0.247 -1.286,-1.024 -0.76,-2.227 -0.972,-2.509 -0.403,0.301 -0.47,2.435 1.21,3.036 0.488,0.254 0.924,-0.107 1.386,-0.191 1.182,-0.718 1.297,-2.038 1.318,-3.299 l -0.294,-0.681 c 0,0 -0.672,-2.041 -1.116,-3.096 -1.536,-3.593 -1.2,-8.723 1.678,-11.564 6.906,-6.747 19.721,-2.949 20.15,4.934 0.337,3.636 -1.376,6.588 -3.484,9.288 0.337,0.099 0.682,-0.265 1.024,-0.413 0.581,0.164 1.383,-0.066 1.68,0.554 -0.128,0.304 -0.073,0.675 -0.505,0.728 -0.467,0.361 -0.786,-0.752 -1.104,-0.112 0.29,0.959 0.115,2.155 1.182,2.759 1.834,0.546 1.932,-1.504 1.663,-1.878 -0.256,0.487 -0.056,1.383 -0.919,1.521 -1.229,0.161 -1.352,-1.869 -1.352,-1.869 0.642,0.227 1.051,-0.289 1.396,-0.621 0.227,-0.704 -0.256,-1.234 -0.774,-1.489 -0.277,-0.006 -0.584,-0.072 -0.801,0.048 0.167,-0.767 1.161,-1.333 1.421,-2.128 0.757,0.658 2.173,0.622 2.55,1.888 0.74,1.674 0.852,4.136 -0.527,5.528 -2.162,2.347 -4.97,-2.394 -5.33,-2.893 -0.13,0.49 1.84,3.528 -0.199,6.056 C 10.702,3.141 8.966,-0.95 7.983,-0.968 7.343,0.436 6.114,2.105 4.296,2.288 2.513,2.319 0.832,1.676 0,0"
         inkscape:connector-curvature="0" />
    </g>
    <g
       transform="matrix(0.67404175,0,0,-0.67404175,27.08338,18.608943)"
       id="g5921">
      <path
         id="path5923"
         style="fill:#edccb8;fill-opacity:1;fill-rule:nonzero;stroke:none"
         d="m 0,0 c -0.748,-1.242 -0.75,-4.596 -0.903,-4.598 -0.254,0.425 -0.076,0.86 -0.239,1.319 -0.607,1.311 -1.863,2.765 -3.431,2.768 -0.856,-0.26 -1.804,-0.616 -2.28,-1.515 -2.294,-4.995 1.931,-6.67 2.795,-6.839 1.018,-0.198 1.332,1.221 1.873,1.877 -0.22,0.303 -0.677,0.018 -0.957,0.229 -0.466,0.329 -0.849,1.122 -0.399,1.685 0.363,0.405 1.563,0.303 1.626,0.304 0.174,0.587 -0.297,1.102 -0.611,1.558 -0.561,0.359 -1.088,0.627 -1.728,0.247 -1.286,-1.024 -0.76,-2.227 -0.972,-2.509 -0.403,0.301 -0.47,2.435 1.21,3.036 0.488,0.254 0.924,-0.107 1.386,-0.191 1.182,-0.718 1.297,-2.038 1.318,-3.299 l -0.294,-0.681 c 0,0 -0.672,-2.041 -1.116,-3.096 -1.536,-3.593 -1.2,-8.723 1.678,-11.564 2.484,-2.425 5.732,-3.489 8.893,-3.489 -2.237,1.921 0.228,4.675 0.228,4.675 0,0 6.436,4.384 7.124,5.07 0.689,0.69 0.837,3.007 0.625,4.224 -0.211,1.218 1.112,0.784 1.112,0.784 l -0.635,0.582 c 0,0 -1.525,0.583 -1.684,0.635 -0.158,0.055 -1.057,0.055 -1.057,0.055 0,0 -0.478,-0.424 -0.16,-0.743 0.318,-0.317 -0.688,-0.888 -1.419,-1.366 -0.73,-0.475 -2.954,-0.581 -4.066,0.212 -1.109,0.794 -0.688,2.319 -0.688,2.319 0,0 1.007,-0.106 1.642,0.212 0.635,0.318 0.836,0.635 0.836,0.635 l 0.529,1.154 -0.846,4.012 c 0,0 0,1.111 1.641,2.742 0.498,0.495 0.932,0.807 1.295,1.001 C 9.909,1.405 8.729,-0.955 7.983,-0.968 7.343,0.436 6.114,2.105 4.296,2.288 2.513,2.319 0.832,1.676 0,0"
         inkscape:connector-curvature="0" />
    </g>
    <g
       transform="matrix(0.67404175,0,0,-0.67404175,47.176225,7.1061456)"
       id="g5925">
      <path
         id="path5927"
         style="fill:#edccb8;fill-opacity:1;fill-rule:nonzero;stroke:none"
         d="M 0,0 C 0.526,-0.268 1.2,-0.071 1.698,-0.431 2.137,0.868 2.323,2.531 1.992,3.848 0.312,3.265 0.251,1.419 0,0"
         inkscape:connector-curvature="0" />
    </g>
    <g
       transform="matrix(0.67404175,0,0,-0.67404175,44.934297,4.5751888)"
       id="g5929">
      <path
         id="path5931"
         style="fill:#edccb8;fill-opacity:1;fill-rule:nonzero;stroke:none"
         d="M 0,0 C -0.13,-1.325 0.261,-2.579 0.376,-3.899 0.935,-4.166 1.692,-3.568 2.372,-3.71 2.161,-2.238 2.06,0.036 0,0"
         inkscape:connector-curvature="0" />
    </g>
    <g
       transform="matrix(0.67404175,0,0,-0.67404175,42.230241,6.4051481)"
       id="g5933">
      <path
         id="path5935"
         style="fill:#f3dcca;fill-opacity:1;fill-rule:nonzero;stroke:none"
         d="M 0,0 C 0.281,-1.993 2.789,-2.996 2.304,-5.126 1.883,-5.656 1.381,-5.111 0.92,-5.088 -1.608,-4.803 -1.174,-6.755 -0.983,-7.09 -0.138,-8.029 2.136,-7.773 2.136,-7.773 2.455,-8.537 5.104,-8.706 5.104,-8.706 L 5.041,-8.707 c 0.208,0.403 -0.272,1.533 0.616,1.733 0.591,-0.42 0.793,0.352 1.034,0.664 0.046,0.862 0.156,1.663 -0.044,2.521 0.525,-0.052 0.575,-2.973 -0.154,-3.54 0.317,-0.516 1.121,-0.749 1.255,-1.392 0.639,0.442 1.042,1.955 2.068,1.297 1.494,1.097 0.591,3.178 0.732,3.918 0.969,0.878 2.674,1.861 2.369,3.424 C 11.65,0.265 9.938,-2.071 9.85,-2.257 9.299,-2.39 8.856,-1.782 8.303,-1.7 4.188,-0.91 2.354,-2.757 2.354,-2.757 2.32,-2.542 3.563,-1.475 3.563,-1.475 2.87,-0.626 1.961,0.496 0.82,0.538 0.483,0.5 0.182,0.188 0,0"
         inkscape:connector-curvature="0" />
    </g>
    <g
       transform="matrix(0.67404175,0,0,-0.67404175,10.174369,10.592225)"
       id="g5937">
      <path
         id="path5939"
         style="fill:#a8672b;fill-opacity:1;fill-rule:nonzero;stroke:none"
         d="m 0,0 c -0.448,-2.499 2.341,-3.741 3.933,-5.098 6.771,-3.848 11.762,-10.31 10.026,-21.168 -1.258,-5.465 -6.813,-9.59 -5.415,-15.746 0.592,-2.204 1.672,-4.154 3.727,-5.594 0.589,-0.266 0.667,0.442 1.001,0.755 l -0.003,0.216 c -2.286,2.327 -2.909,6.223 -1.7,9.258 1.803,4.213 4.873,8.019 7.11,12.024 0.468,1.301 0.784,2.66 0.725,4.196 -2.12,0.794 -4.29,5.229 -0.889,8.718 C 16.92,-5.67 10.442,0.705 3.356,1.442 2.13,1.268 0.653,1.272 0,0"
         inkscape:connector-curvature="0" />
    </g>
    <g
       transform="matrix(0.67404175,0,0,-0.67404175,31.051933,13.212026)"
       id="g5941">
      <path
         id="path5943"
         style="fill:#a8672b;fill-opacity:1;fill-rule:nonzero;stroke:none"
         d="m 0,0 c -1.076,0.259 -3.816,0.21 -3.816,0.21 0.312,-0.333 1.503,-1.512 1.413,-1.667 -3.058,-1.1 -4.72,-4.449 -5.563,-7.263 0.437,-0.331 0.69,-0.788 0.912,-1.215 0.152,1.911 1.593,3.964 3.458,4.551 1.62,0.521 3.537,-0.03 4.76,-1.392 0.408,-0.486 0.758,-1.125 1.137,-1.672 0.961,1.307 2.449,2.349 4.173,2.348 1.319,0.084 2.557,-0.354 3.342,-1.326 0.571,-0.942 0.811,-2.353 0.704,-3.248 1.315,0.362 0.498,1.454 0.482,2.285 -0.783,2.631 -3.523,5.749 -6.234,6.626 0.544,0.502 1.243,0.945 1.88,1.416 C 5.818,-0.36 4.645,-0.042 3.851,-0.395 3.584,-0.12 4.014,0.899 3.969,1.606 L 3.967,1.821 2.154,-0.116 C 1.041,0.264 0.493,1.729 -0.682,2.047 L 0,0 z"
         inkscape:connector-curvature="0" />
    </g>
    <g
       transform="matrix(0.67404175,0,0,-0.67404175,45.933491,13.097503)"
       id="g5945">
      <path
         id="path5947"
         style="fill:#a8672b;fill-opacity:1;fill-rule:nonzero;stroke:none"
         d="m 0,0 c -1.081,0.227 -2.048,1.009 -3.184,0.897 0.261,-0.856 0.736,-1.586 0.996,-2.412 -0.396,-0.253 -0.708,0.019 -1.17,0.103 0.329,-1.163 1.399,-2.651 1.976,-4.026 -0.514,-0.438 -0.981,-0.108 -1.537,-0.026 0.238,-1.258 0.901,-2.321 1.078,-3.579 0.217,-0.15 0.281,-0.333 0.102,-0.521 -0.579,-0.318 -0.813,0.663 -1.423,0.406 0.15,-1.567 0.641,-3.218 0.885,-4.843 -0.24,-0.405 -0.733,-0.321 -1.015,-0.02 -0.22,-3.262 -2.534,-5.736 -4.677,-8.11 0.293,-5.363 -1.307,-6.662 -3.972,-9.015 2.155,1.575 8.513,7.111 10.515,10.578 0.954,0.016 1.748,0.306 2.574,0.568 -0.221,0.396 -1.146,0.472 -0.972,1.09 0.823,0.384 1.647,0.766 2.344,1.362 -0.192,0.398 -0.682,0.326 -1.053,0.444 -0.014,0.738 0.903,1.091 1.541,1.502 -0.222,0.397 -1.568,0.003 -0.968,0.875 1.669,1.259 3.367,2.705 4.192,4.717 -0.461,-0.008 -0.983,-0.079 -1.325,0.193 0.008,1.292 1.375,2.238 1.629,3.565 -0.461,-0.009 -0.947,-0.416 -1.319,-0.178 -0.018,1.046 1.074,1.865 1.487,2.856 0.329,0.529 0.534,1.147 0.646,1.764 L 5.203,-2.124 C 4.965,-0.836 6.056,0.136 6.095,1.429 5.45,1.355 4.765,0.052 3.905,-0.024 3.837,0.374 4.006,1.238 3.722,1.756 3.27,1.194 2.728,0.539 2.149,0.16 1.559,0.58 1.203,1.527 0.396,1.975 0.347,1.297 0.327,0.559 0,0"
         inkscape:connector-curvature="0" />
    </g>
    <g
       transform="matrix(0.67404175,0,0,-0.67404175,28.025281,19.131595)"
       id="g5949">
      <path
         id="path5951"
         style="fill:#000000;fill-opacity:1;fill-rule:nonzero;stroke:none"
         d="m 0,0 c -0.936,-1.031 -1.061,-2.632 -0.732,-3.857 0.038,-0.429 0.531,-0.482 0.448,-0.946 L -1.6,-5.286 c 1.326,-0.131 3.157,0.67 4.432,-0.2 0.041,-0.583 0.479,-0.976 0.824,-1.401 0,0 -0.639,1.435 0.211,2.065 0.431,0.557 4.496,1.405 4.806,-0.5 0.136,-0.737 -0.574,-1.472 -0.586,-1.64 0.608,0.349 0.969,0.816 1.174,1.435 1.313,0.484 2.619,-0.231 3.846,-0.148 -0.223,0.487 -0.894,0.198 -1.268,0.47 0.777,1.212 1.274,2.697 0.881,4.167 C 12.48,0.276 9.634,1.802 8.063,-0.382 7.373,-1.348 7.516,-2.452 7.535,-3.56 6.705,-3.573 5.932,-3.341 5.074,-3.479 5.453,-2.304 3.779,2.966 0,0"
         inkscape:connector-curvature="0" />
    </g>
    <g
       transform="matrix(0.67404175,0,0,-0.67404175,24.911143,22.378045)"
       id="g5953">
      <path
         id="path5955"
         style="fill:#edccb8;fill-opacity:1;fill-rule:nonzero;stroke:none"
         d="M 0,0 C -0.025,-0.339 0.103,-0.675 0.382,-0.793 0.688,-0.726 1.37,-1.022 1.237,-0.409 1.11,-0.258 1.198,0.021 1.319,0.176 1.252,0.452 0.913,0.446 0.728,0.535 0.422,0.468 0.024,0.369 0,0"
         inkscape:connector-curvature="0" />
    </g>
    <g
       transform="matrix(0.67404175,0,0,-0.67404175,30.934719,23.122526)"
       id="g5957">
      <path
         id="path5959"
         style="fill:#000000;fill-opacity:1;fill-rule:nonzero;stroke:none"
         d="m 0,0 c 0.098,-0.337 0.045,-0.769 0.446,-0.885 0.338,0.007 0.736,0.106 0.667,0.534 C 1.199,0.021 0.856,0.261 0.67,0.473 0.456,0.314 0.086,0.309 0,0"
         inkscape:connector-curvature="0" />
    </g>
    <g
       transform="matrix(0.67404175,0,0,-0.67404175,32.579715,23.529377)"
       id="g5961">
      <path
         id="path5963"
         style="fill:#000000;fill-opacity:1;fill-rule:nonzero;stroke:none"
         d="M 0,0 C 0.28,-0.18 0.651,-0.327 0.955,-0.137 1.135,0.143 1.282,0.515 1.092,0.818 0.877,0.815 -0.13,1.52 0,0"
         inkscape:connector-curvature="0" />
    </g>
    <g
       transform="matrix(0.67404175,0,0,-0.67404175,31.183576,23.160073)"
       id="g5965">
      <path
         id="path5967"
         style="fill:#e0a5a0;fill-opacity:1;fill-rule:nonzero;stroke:none"
         d="m 0,0 c -0.025,-0.247 0.069,-0.398 0.227,-0.519 0.057,0.124 0.212,0.035 0.148,0.218 L 0.217,0.065 C 0.186,-0.027 0.094,0.001 0,0"
         inkscape:connector-curvature="0" />
    </g>
    <g
       transform="matrix(0.67404175,0,0,-0.67404175,32.782468,23.277221)"
       id="g5969">
      <path
         id="path5971"
         style="fill:#e0a5a0;fill-opacity:1;fill-rule:nonzero;stroke:none"
         d="M 0,0 C 0.002,-0.092 -0.026,-0.216 0.065,-0.245 0.375,-0.363 0.399,-0.023 0.429,0.13 0.274,0.128 0.089,0.155 0,0"
         inkscape:connector-curvature="0" />
    </g>
    <g
       transform="matrix(0.67404175,0,0,-0.67404175,26.356019,23.92167)"
       id="g5973">
      <path
         id="path5975"
         style="fill:#000000;fill-opacity:1;fill-rule:nonzero;stroke:none"
         d="m 0,0 c 0,0 1.051,0.095 1.707,0.081 -1.675,-2.704 -2.984,-6.91 -0.781,-9.762 2.457,-3.371 6.773,-4.064 10.603,-3.228 8.803,2.463 5.679,9.355 4.38,11.608 0.393,0.316 1.641,-0.648 1.948,-0.641 -0.292,0.886 -1.284,1.298 -2.118,1.53 -0.522,-0.04 -1.416,0.068 -1.588,-0.643 l 0.003,-0.123 c 0.342,-0.24 1.042,0.203 1.114,-0.348 C 13.014,-5.984 3.807,-4.271 2.563,-1.38 2.434,-0.981 2.424,-0.397 2.541,-0.058 2.971,-0.051 3.598,-0.716 3.801,-0.036 3.758,0.701 3.023,0.474 2.585,0.835 1.693,0.942 0.702,0.381 0,0"
         inkscape:connector-curvature="0" />
    </g>
    <g
       transform="matrix(0.67404175,0,0,-0.67404175,27.385485,27.599915)"
       id="g5977">
      <path
         id="path5979"
         style="fill:#ffffff;fill-opacity:1;fill-rule:nonzero;stroke:none"
         d="m 0,0 c 2.117,-3.315 5.926,-4.694 9.729,-4.136 1.835,0.493 3.821,1.328 4.834,3.129 C 15.465,0.208 14.7,1.764 14.249,2.955 12.232,0.367 4.459,-1.286 0.21,3.817 -0.54,2.758 -0.729,1.187 0,0"
         inkscape:connector-curvature="0" />
    </g>
    <g
       transform="matrix(0.67404175,0,0,-0.67404175,28.547938,31.268994)"
       id="g5981">
      <path
         id="path5983"
         style="fill:#ffffff;fill-opacity:1;fill-rule:nonzero;stroke:none"
         d="M 0,0 C 2.897,-2.103 7.475,-1.839 10.554,-0.247 12.317,0.86 13.76,2.73 13.479,4.816 12.306,1.567 8.537,0.672 5.586,0.681 2.172,0.684 -1.253,3.084 -2.57,6.29 -3.17,3.727 -1.869,1.442 0,0"
         inkscape:connector-curvature="0" />
    </g>
    <g
       transform="matrix(0.67404175,0,0,-0.67404175,26.250668,33.838781)"
       id="g5985">
      <path
         id="path5987"
         style="fill:#7e4425;fill-opacity:1;fill-rule:nonzero;stroke:none"
         d="m 0,0 c -3.41,-3.718 -6.041,-8.008 -8.367,-12.262 0.31,-0.087 0.889,0.23 1.111,-0.196 -1.035,-1.506 -3.722,-5.23 -3.722,-5.23 0.31,-0.058 0.734,0.35 1.019,-0.137 -0.41,-1.238 -1.621,-2.274 -2.369,-3.517 0.31,-0.179 0.976,0.417 1.265,-0.193 -0.017,-0.8 -0.967,-1.03 -1.232,-1.713 0,0 -3.481,-4.889 -3.596,-5.444 1.453,-0.406 4.639,0.296 4.639,0.296 0.201,-0.981 -1.341,-2.515 0.265,-2.793 1.137,-0.042 1.585,2.579 2.504,0.996 l 0.237,-1.257 c 0.855,0.292 0.523,3.485 2.127,1.575 0.357,2.282 1.273,4.42 1.048,6.815 0.422,0.468 1.209,-0.563 1.209,-0.563 0.432,1.637 0.202,4.309 0.323,6.217 0.451,0.469 0.775,-0.448 1.117,-0.596 -0.379,5.745 0.264,11.26 2.239,16.154 0.154,0.034 -1.913,-11.965 -1.485,-17.094 0.098,-0.306 -0.144,-0.617 -0.418,-0.653 1.207,-4.038 3.332,-7.691 5.943,-11.121 0.122,0.156 0.305,0.221 0.426,0.285 0.163,-0.49 0.359,-1.162 0.914,-1.307 l 0.508,0.901 c 0.342,-0.241 0.715,-0.388 1.114,-0.411 -1.641,0.679 -1.206,5.637 -1.206,5.637 -0.5,0.453 -1.009,-0.294 -1.328,0.346 1.984,0.866 9.074,-0.149 10.049,-1.362 -0.057,-0.247 -0.332,-0.344 -0.578,-0.318 -0.221,0.273 -0.499,0.391 -0.838,0.447 -0.095,-1.662 -0.097,-3.323 -1.026,-4.662 -0.118,-0.34 0.254,-0.426 0.32,-0.671 0.461,-0.022 0.266,0.62 0.726,0.597 0.342,-0.24 0.507,-0.789 0.967,-0.782 0.15,0.279 0.021,0.615 0.356,0.805 l 1.116,-0.502 c -0.131,0.396 -0.561,0.389 -0.754,0.817 2.062,3.572 4.461,6.998 5.933,10.805 1.468,3.962 1.202,8.662 -0.343,12.602 -0.87,2.322 -1.864,4.581 -3.59,6.518 -0.796,-0.258 -1.672,-1.074 -2.652,-1.306 3.053,-4.036 5.528,-10.175 2.476,-15.026 -1.676,-2.612 -4.328,-3.951 -7.146,-4.553 -3.073,-0.146 -6.319,0.781 -8.245,3.639 -1.907,3.503 -1.401,7.971 -0.419,11.709 0.615,1.671 1.171,3.404 2.501,4.718 L 0.276,0.067 0,0 z"
         inkscape:connector-curvature="0" />
    </g>
    <g
       transform="matrix(0.67404175,0,0,-0.67404175,27.829134,36.360506)"
       id="g5989">
      <path
         id="path5991"
         style="fill:#edccb8;fill-opacity:1;fill-rule:nonzero;stroke:none"
         d="m 0,0 c -1.906,-3.632 -3.416,-12.41 0.115,-15.404 2.002,-1.934 4.59,-2.288 7.293,-2.089 3.218,0.702 6.341,3.219 7.329,6.465 C 15.864,-4.72 11.863,0.33 11.266,1.15 8.168,0.636 4.517,0.202 1.601,1.658 0.773,1.49 0.604,0.595 0,0"
         inkscape:connector-curvature="0" />
    </g>
    <g
       transform="matrix(0.67404175,0,0,-0.67404175,16.588949,53.865165)"
       id="g5993">
      <path
         id="path5995"
         style="fill:#f3dcca;fill-opacity:1;fill-rule:nonzero;stroke:none"
         d="m 0,0 c -2.059,-1.943 -3.3,-4.824 -2.144,-7.633 1.032,-0.904 2.63,0.845 3.484,-0.462 0.377,-0.425 0.73,-1.34 1.492,-0.866 0.762,0.321 1.361,1.223 2.258,0.993 0.992,-0.444 1.512,-2.004 2.759,-1.275 0.452,0.5 0.905,0.97 0.924,1.647 -0.404,0.3 -0.685,0.541 -1.123,0.872 -0.21,-0.281 0.203,-1.012 -0.415,-0.899 -0.409,0.608 0.021,2.429 0.021,2.429 1.311,-1.207 2.879,-2.901 4.838,-2.283 0.271,0.19 0.697,0.473 0.66,0.842 C 11.586,-4.902 8.922,-3.75 8.453,-1.544 8.11,-1.304 7.98,-0.937 7.638,-0.666 7.188,-1.32 6.907,-2.862 5.734,-2.637 5.33,-2.367 5.137,-1.878 5.188,-1.324 4.679,-2.009 3.701,-2.488 2.865,-2.164 2.494,-1.955 1.938,-1.78 1.806,-1.291 L 2.084,0.344 0,0 z"
         inkscape:connector-curvature="0" />
    </g>
    <g
       transform="matrix(0.67404175,0,0,-0.67404175,39.944161,54.742633)"
       id="g5997">
      <path
         id="path5999"
         style="fill:#edccb8;fill-opacity:1;fill-rule:nonzero;stroke:none"
         d="M 0,0 C 1.141,-0.133 2.61,0.229 3.9,0.345 2.683,1.339 1.225,0.329 0,0"
         inkscape:connector-curvature="0" />
    </g>
    <g
       transform="matrix(0.67404175,0,0,-0.67404175,28.64803,54.794599)"
       id="g6001">
      <path
         id="path6003"
         style="fill:#edccb8;fill-opacity:1;fill-rule:nonzero;stroke:none"
         d="m 0,0 c -2.54,-0.69 -5.241,-1.014 -8.1,-1.034 1.043,-1.672 3.383,-0.094 4.901,-0.653 -0.908,-0.814 -2.266,-0.654 -3.462,-0.797 l 0.659,-0.665 c 1.443,0.086 4.658,0.819 4.658,0.819 0.045,-0.768 -3.816,-1.543 -3.816,-1.543 0.683,-0.449 0.884,-1.337 0.773,-2.108 l -0.149,-0.218 c 2.022,0.435 4.093,1.671 5.538,3.418 0.636,-1.63 1.277,-2.714 2.144,-3.068 -0.101,0.521 -0.018,1.137 0.249,1.696 0.384,0.836 2.474,0.872 1.437,2.177 C 4.91,-1.237 4.711,-0.318 3.849,-0.24 3.67,-0.613 3.117,-0.684 2.747,-0.537 l -0.373,0.21 C 2.225,-0.607 2.109,-1.009 1.71,-1.077 1.156,-1.087 0.838,-0.446 0.584,0.01 0.369,-0.055 0.189,-0.242 0,0"
         inkscape:connector-curvature="0" />
    </g>
    <g
       transform="matrix(0.67404175,0,0,-0.67404175,37.009049,55.208666)"
       id="g6005">
      <path
         id="path6007"
         style="fill:#f3dcca;fill-opacity:1;fill-rule:nonzero;stroke:none"
         d="m 0,0 c 0.037,-0.398 -0.487,-0.314 -0.639,-0.441 -0.308,0.087 -0.527,0.298 -0.838,0.416 -0.148,-0.28 -0.046,-0.77 -0.475,-0.87 -0.553,-0.102 -0.625,0.543 -1.061,0.781 -0.176,-0.403 -0.728,-0.504 -1.041,-0.234 -0.105,0.799 -0.739,0.049 -1.108,0.135 -1.071,-0.326 -0.435,-1.576 -0.916,-2.229 -0.659,-0.996 -2.75,-0.941 -2.232,-2.499 0.667,-1.378 5.193,-0.956 4.411,1.06 1.671,1.137 4.083,0.441 5.683,0.315 2.803,-0.229 6.336,-3.611 8.862,-0.308 0.206,0.619 -0.357,1.071 -0.759,1.248 -2.14,1.009 -4.52,-0.078 -6.451,1.364 2.823,-0.621 5.196,0.03 6.87,-0.679 0.331,0.436 -0.017,0.921 -0.025,1.383 C 8.65,1.259 4.131,0.028 4.131,0.028 2.778,0.004 1.387,-0.16 0,0"
         inkscape:connector-curvature="0" />
    </g>
    <g
       transform="matrix(0.67404175,0,0,-0.67404175,27.527029,25.026828)"
       id="g6009">
      <path
         id="path6011"
         style="fill:#dce8eb;fill-opacity:1;fill-rule:evenodd;stroke:none"
         d="m 0,0 c 4.249,-5.104 12.022,-3.45 14.039,-0.862 0.451,-1.192 1.216,-2.747 0.314,-3.962 -0.36,-0.64 -0.843,-1.159 -1.398,-1.583 -0.4,1.677 -2.95,2.969 -6.038,2.969 -2.563,0 -4.753,-0.888 -5.655,-2.147 -0.549,0.51 -1.045,1.1 -1.472,1.768 C -0.938,-2.631 -0.75,-1.06 0,0 M -1.056,-2.971 C -0.593,-4.1 0.133,-5.128 1.026,-5.987 0.894,-6.269 0.823,-6.563 0.823,-6.866 c 0,-1.895 2.728,-3.43 6.094,-3.43 3.272,0 5.944,1.454 6.086,3.276 0.877,0.621 1.587,1.458 1.991,2.576 0.28,-2.086 -1.162,-3.956 -2.926,-5.064 -3.079,-1.592 -7.656,-1.855 -10.553,0.247 -1.869,1.443 -3.17,3.727 -2.571,6.29"
         inkscape:connector-curvature="0" />
    </g>
    <g
       transform="matrix(0.67404175,0,0,-0.67404175,33.626303,22.469585)"
       id="g6013">
      <path
         id="path6015"
         style="fill:#ffffff;fill-opacity:1;fill-rule:nonzero;stroke:none"
         d="m 0,0 c 0,0.292 -0.235,0.529 -0.528,0.529 -0.293,0 -0.53,-0.237 -0.53,-0.529 0,-0.293 0.237,-0.529 0.53,-0.529 C -0.235,-0.529 0,-0.293 0,0"
         inkscape:connector-curvature="0" />
    </g>
    <g
       transform="matrix(0.67404175,0,0,-0.67404175,36.331027,20.760754)"
       id="g6017">
      <path
         id="path6019"
         style="fill:#ffffff;fill-opacity:1;fill-rule:nonzero;stroke:none"
         d="M 0,0 C 0,1.487 -0.97,2.693 -2.166,2.693 -3.36,2.693 -4.33,1.487 -4.33,0 c 0,-0.53 0.123,-1.025 0.336,-1.441 0.431,-0.143 0.779,-0.493 0.941,-0.941 0.555,-0.055 1.074,-0.116 1.543,-0.186 C -0.635,-2.223 0,-1.203 0,0"
         inkscape:connector-curvature="0" />
    </g>
    <g
       transform="matrix(0.67404175,0,0,-0.67404175,31.029554,20.725229)"
       id="g6021">
      <path
         id="path6023"
         style="fill:#ffffff;fill-opacity:1;fill-rule:nonzero;stroke:none"
         d="m 0,0 c 0,1.488 -1.073,2.694 -2.398,2.694 -1.326,0 -2.399,-1.206 -2.399,-2.694 0,-0.988 0.476,-1.853 1.182,-2.321 0.675,0.041 1.388,0.072 2.132,0.088 0.118,0.174 0.541,0.756 1.244,1.058 C -0.086,-0.82 0,-0.421 0,0"
         inkscape:connector-curvature="0" />
    </g>
    <g
       transform="matrix(0.67404175,0,0,-0.67404175,34.981666,18.950612)"
       id="g6025">
      <path
         id="path6027"
         style="fill:#dce8eb;fill-opacity:1;fill-rule:nonzero;stroke:none"
         d="m 0,0 c -0.053,0.006 -0.107,0.008 -0.164,0.008 -1.194,0 -2.164,-1.206 -2.164,-2.694 0,-0.53 0.123,-1.025 0.336,-1.441 0.431,-0.143 0.779,-0.492 0.941,-0.94 0.555,-0.055 1.073,-0.117 1.543,-0.187 0.251,0.098 0.482,0.253 0.684,0.45 -0.304,0.039 -0.623,0.075 -0.956,0.106 -1.014,0.589 -1.277,1.853 -1.277,2.384 0,0.983 0.424,1.844 1.057,2.314"
         inkscape:connector-curvature="0" />
    </g>
    <g
       transform="matrix(0.67404175,0,0,-0.67404175,29.449736,18.909765)"
       id="g6029">
      <path
         id="path6031"
         style="fill:#dce8eb;fill-opacity:1;fill-rule:nonzero;stroke:none"
         d="m 0,0 -0.055,0.001 c -1.325,0 -2.398,-1.206 -2.398,-2.694 0,-0.989 0.475,-1.853 1.182,-2.322 0.674,0.041 1.388,0.073 2.131,0.088 0.045,0.068 0.134,0.193 0.267,0.34 -0.387,-0.016 -0.764,-0.034 -1.129,-0.058 -0.705,0.469 -1.181,1.333 -1.181,2.322 0,0.99 0.476,1.854 1.183,2.323"
         inkscape:connector-curvature="0" />
    </g>
    <g
       transform="matrix(0.67404175,0,0,-0.67404175,39.148323,20.989184)"
       id="g6033">
      <path
         id="path6035"
         style="fill:#edccb8;fill-opacity:1;fill-rule:nonzero;stroke:none"
         d="m 0,0 c 1.834,0.546 1.932,-1.504 1.662,-1.878 -0.256,0.487 -0.056,1.383 -0.919,1.522 -1.228,0.161 -1.351,-1.87 -1.351,-1.87 0.641,0.227 1.05,-0.289 1.395,-0.621 0.228,-0.704 -0.256,-1.234 -0.773,-1.489 -0.278,-0.006 -0.584,-0.072 -0.801,0.048 0.073,-0.334 0.302,-0.63 0.559,-0.924 0.247,-0.131 0.516,-0.203 0.796,-0.203 1.166,0 2.112,1.239 2.112,2.769 0,1.529 -0.946,2.769 -2.112,2.769 C -0.599,0.123 -1.067,-0.604 0,0"
         inkscape:connector-curvature="0" />
    </g>
    <g
       transform="matrix(0.67404175,0,0,-0.67404175,35.688601,21.010214)"
       id="g6037">
      <path
         id="path6039"
         style="fill:#000000;fill-opacity:1;fill-rule:nonzero;stroke:none"
         d="m 0,0 c 0,0.727 -0.59,1.318 -1.317,1.318 -0.728,0 -1.319,-0.591 -1.319,-1.318 0,-0.729 0.591,-1.318 1.319,-1.318 C -0.59,-1.318 0,-0.729 0,0"
         inkscape:connector-curvature="0" />
    </g>
    <g
       transform="matrix(0.67404175,0,0,-0.67404175,35.653012,20.69294)"
       id="g6041">
      <path
         id="path6043"
         style="fill:#ffffff;fill-opacity:1;fill-rule:nonzero;stroke:none"
         d="M 0,0 C 0,0.351 -0.284,0.635 -0.635,0.635 -0.985,0.635 -1.27,0.351 -1.27,0 c 0,-0.35 0.285,-0.635 0.635,-0.635 C -0.284,-0.635 0,-0.35 0,0"
         inkscape:connector-curvature="0" />
    </g>
    <g
       transform="matrix(0.67404175,0,0,-0.67404175,30.260068,20.83712)"
       id="g6045">
      <path
         id="path6047"
         style="fill:#000000;fill-opacity:1;fill-rule:nonzero;stroke:none"
         d="m 0,0 c 0,0.729 -0.589,1.319 -1.317,1.319 -0.729,0 -1.319,-0.59 -1.319,-1.319 0,-0.727 0.59,-1.317 1.319,-1.317 C -0.589,-1.317 0,-0.727 0,0"
         inkscape:connector-curvature="0" />
    </g>
    <g
       transform="matrix(0.67404175,0,0,-0.67404175,30.224479,20.519852)"
       id="g6049">
      <path
         id="path6051"
         style="fill:#ffffff;fill-opacity:1;fill-rule:nonzero;stroke:none"
         d="m 0,0 c 0,0.353 -0.284,0.637 -0.636,0.637 -0.349,0 -0.635,-0.284 -0.635,-0.637 0,-0.35 0.286,-0.635 0.635,-0.635 C -0.284,-0.635 0,-0.35 0,0"
         inkscape:connector-curvature="0" />
    </g>
    <g
       transform="matrix(0.67404175,0,0,-0.67404175,31.051933,13.212026)"
       id="g6053">
      <path
         id="path6055"
         style="fill:#7e4425;fill-opacity:1;fill-rule:nonzero;stroke:none"
         d="m 0,0 c -1.076,0.259 -3.816,0.21 -3.816,0.21 0.312,-0.333 1.503,-1.512 1.413,-1.667 -3.058,-1.1 -4.72,-4.449 -5.563,-7.263 0.437,-0.331 0.69,-0.788 0.912,-1.215 0.152,1.911 1.593,3.964 3.458,4.551 0.537,0.172 1.108,0.228 1.674,0.174 -0.41,0.265 -1.433,0.695 -1.761,0.847 0,0 2.523,1.072 3.62,1.234 l -1.4,1.645 c 1.207,0.144 2.264,-1.009 3.441,-0.946 l 0.953,2.476 0.083,-0.197 c 0.305,-0.639 0.289,-1.747 0.64,-1.901 0.416,0.431 1.119,0.633 1.766,0.823 -0.232,-0.172 -0.232,-0.172 0,0 0.397,0.297 0.826,0.584 1.228,0.882 C 5.818,-0.36 4.645,-0.042 3.851,-0.395 3.584,-0.12 4.014,0.899 3.969,1.606 L 3.967,1.821 2.154,-0.116 C 1.041,0.264 0.493,1.729 -0.682,2.047 L 0,0 z"
         inkscape:connector-curvature="0" />
    </g>
    <g
       transform="matrix(0.67404175,0,0,-0.67404175,10.174369,10.592225)"
       id="g6057">
      <path
         id="path6059"
         style="fill:#7e4425;fill-opacity:1;fill-rule:nonzero;stroke:none"
         d="m 0,0 c -0.448,-2.499 2.341,-3.741 3.933,-5.098 6.771,-3.848 11.762,-10.31 10.026,-21.168 -1.258,-5.465 -6.813,-9.59 -5.415,-15.746 0.592,-2.204 1.672,-4.154 3.727,-5.594 0.589,-0.266 0.667,0.442 1.001,0.755 l -0.003,0.216 c -1.144,1.165 -1.872,2.723 -2.161,4.368 l -0.071,0.255 c -1.399,6.156 4.157,10.281 5.414,15.746 1.737,10.858 -3.254,17.32 -10.026,21.168 C 4.834,-3.741 2.044,-2.499 2.493,0 2.922,0.836 3.706,1.12 4.541,1.267 4.147,1.343 3.754,1.401 3.356,1.442 2.13,1.268 0.653,1.272 0,0"
         inkscape:connector-curvature="0" />
    </g>
    <g
       transform="matrix(0.67404175,0,0,-0.67404175,45.933491,13.097503)"
       id="g6061">
      <path
         id="path6063"
         style="fill:#7e4425;fill-opacity:1;fill-rule:nonzero;stroke:none"
         d="m 0,0 c -1.081,0.227 -2.048,1.009 -3.184,0.897 0.261,-0.856 0.736,-1.586 0.996,-2.412 -0.396,-0.253 -0.708,0.019 -1.17,0.103 0.329,-1.163 1.399,-2.651 1.976,-4.026 -0.514,-0.438 -0.981,-0.108 -1.537,-0.026 0.238,-1.258 0.901,-2.321 1.078,-3.579 0.217,-0.15 0.281,-0.333 0.102,-0.521 -0.579,-0.318 -0.813,0.663 -1.423,0.406 0.15,-1.567 0.641,-3.218 0.885,-4.843 -0.24,-0.405 -0.733,-0.321 -1.015,-0.02 -0.22,-3.262 -2.534,-5.736 -4.677,-8.11 0.293,-5.363 -1.307,-6.662 -3.972,-9.015 0.852,0.624 2.363,1.867 4.003,3.358 0.45,1.065 0.728,2.435 0.824,4.338 2.379,2.137 4.938,4.354 5.499,7.577 0.248,-0.33 0.73,-0.464 1.011,-0.088 -0.074,1.642 -0.389,3.336 -0.374,4.908 0.634,0.193 0.763,-0.806 1.372,-0.551 0.2,0.167 0.153,0.357 -0.046,0.529 -0.044,1.268 -0.594,2.397 -0.698,3.672 0.543,-0.14 0.972,-0.517 1.532,-0.134 -0.432,1.427 -1.342,3.018 -1.545,4.21 0.45,-0.132 0.732,-0.436 1.152,-0.226 -0.173,0.85 -0.567,1.624 -0.737,2.503 1.141,-0.007 2.02,-0.886 3.071,-1.224 0.385,0.522 0.481,1.253 0.602,1.922 0.754,-0.529 1.008,-1.507 1.553,-1.988 0.16,0.082 0.319,0.184 0.475,0.297 L 5.203,-2.124 C 4.965,-0.836 6.056,0.136 6.095,1.429 5.45,1.355 4.765,0.052 3.905,-0.024 3.837,0.374 4.006,1.238 3.722,1.756 3.27,1.194 2.728,0.539 2.149,0.16 1.559,0.58 1.203,1.527 0.396,1.975 0.347,1.297 0.327,0.559 0,0"
         inkscape:connector-curvature="0" />
    </g>
    <g
       transform="matrix(0.67404175,0,0,-0.67404175,26.250668,33.838781)"
       id="g6065">
      <path
         id="path6067"
         style="fill:#a8672b;fill-opacity:1;fill-rule:nonzero;stroke:none"
         d="m 0,0 c -3.41,-3.718 -6.041,-8.008 -8.367,-12.262 0.31,-0.087 0.889,0.23 1.111,-0.196 -1.035,-1.506 -3.722,-5.23 -3.722,-5.23 0.31,-0.058 0.734,0.35 1.019,-0.137 -0.41,-1.238 -1.621,-2.274 -2.369,-3.517 0.31,-0.179 0.976,0.417 1.265,-0.193 -0.017,-0.8 -0.967,-1.03 -1.232,-1.713 0,0 -3.481,-4.889 -3.596,-5.444 1.453,-0.406 5.569,0.965 4.098,1.295 0.084,0.56 3.305,5.625 3.305,5.625 0.228,0.694 1.164,0.974 1.138,1.775 -0.318,0.594 -0.953,-0.036 -1.271,0.126 0.681,1.281 1.836,2.379 2.181,3.636 -0.312,0.471 -0.712,0.042 -1.023,0.082 0,0 2.486,3.862 3.442,5.419 -0.246,0.415 -0.805,0.067 -1.12,0.138 1.688,3.514 3.573,7.06 5.915,10.339 L 0.276,0.067 0,0 z"
         inkscape:connector-curvature="0" />
    </g>
    <g
       transform="matrix(0.67404175,0,0,-0.67404175,29.878896,55.008545)"
       id="g6069">
      <path
         id="path6071"
         style="fill:#a8672b;fill-opacity:1;fill-rule:nonzero;stroke:none"
         d="M 0,0 0.322,0.57 C 0.664,0.329 1.037,0.183 1.437,0.159 -0.205,0.838 0.23,5.796 0.23,5.796 -0.135,6.127 -0.506,5.817 -0.803,5.876 -0.909,4.893 -1.067,2.219 0,0"
         inkscape:connector-curvature="0" />
    </g>
    <g
       transform="matrix(0.67404175,0,0,-0.67404175,32.37629,48.175983)"
       id="g6073">
      <path
         id="path6075"
         style="fill:#f3dcca;fill-opacity:1;fill-rule:nonzero;stroke:none"
         d="M 0,0 C 0.221,0.009 0.441,0.021 0.662,0.036 3.88,0.738 7.003,3.255 7.991,6.501 8.692,10.425 7.409,13.861 6.196,16.097 3.02,15.302 0.125,13.443 -0.086,9.345 -0.283,5.532 -0.185,2.387 0,0"
         inkscape:connector-curvature="0" />
    </g>
    <g
       transform="matrix(0.67404175,0,0,-0.67404175,32.677786,50.787895)"
       id="g6077">
      <path
         id="path6079"
         style="fill:#a8672b;fill-opacity:1;fill-rule:nonzero;stroke:none"
         d="M 0,0 C 2.198,-0.291 4.301,-0.86 4.799,-1.481 4.742,-1.729 4.467,-1.825 4.221,-1.8 4,-1.526 3.91,-6.878 4.37,-6.87 c 0.15,0.278 0.021,0.614 0.356,0.805 l 1.116,-0.502 c -0.131,0.395 -0.561,0.388 -0.754,0.817 2.061,3.571 4.461,6.997 5.933,10.805 1.468,3.962 1.202,8.662 -0.343,12.601 C 10.316,18.617 9.936,19.567 9.49,20.488 8.45,20.44 7.332,20.321 6.234,20.085 8.284,16.314 9.324,11.677 6.912,7.843 5.235,5.23 2.584,3.892 -0.234,3.289 L -0.397,3.282 C -0.275,1.89 -0.125,0.787 0,0"
         inkscape:connector-curvature="0" />
    </g>
    <g
       transform="matrix(0.67404175,0,0,-0.67404175,42.230241,6.4051481)"
       id="g6081">
      <path
         id="path6083"
         style="fill:#edccb8;fill-opacity:1;fill-rule:nonzero;stroke:none"
         d="m 0,0 c 0.281,-1.993 2.789,-2.996 2.304,-5.126 -0.421,-0.53 -0.923,0.015 -1.384,0.038 -2.528,0.285 -2.094,-1.667 -1.903,-2.002 0.845,-0.939 3.119,-0.683 3.119,-0.683 0.292,-0.696 2.514,-0.904 2.905,-0.934 0.208,0.403 -0.272,1.533 0.616,1.733 0.147,-0.103 0.269,-0.135 0.372,-0.119 -0.745,0.767 -1.172,1.662 -1.172,2.619 0,1.107 0.574,2.131 1.547,2.97 -2.786,0.021 -4.05,-1.253 -4.05,-1.253 -0.034,0.215 1.209,1.282 1.209,1.282 C 2.87,-0.626 1.961,0.496 0.82,0.538 0.483,0.5 0.182,0.188 0,0"
         inkscape:connector-curvature="0" />
    </g>
    <g
       transform="matrix(0.67404175,0,0,-0.67404175,47.215114,11.90081)"
       id="g6085">
      <path
         id="path6087"
         style="fill:#edccb8;fill-opacity:1;fill-rule:nonzero;stroke:none"
         d="m 0,0 c 0.169,-0.157 0.304,-0.336 0.353,-0.567 0.089,0.061 0.173,0.143 0.256,0.238 C 0.397,-0.225 0.194,-0.115 0,0"
         inkscape:connector-curvature="0" />
    </g>
    <g
       transform="matrix(0.67404175,0,0,-0.67404175,38.032579,56.68246)"
       id="g6089">
      <path
         id="path6091"
         style="fill:#edccb8;fill-opacity:1;fill-rule:nonzero;stroke:none"
         d="M 0,0 C -1.68,0.438 -2.56,1.318 -3.021,2.103 -3.133,1.817 -3.072,1.385 -3.471,1.292 -4.023,1.189 -4.096,1.835 -4.531,2.072 -4.708,1.67 -5.26,1.568 -5.572,1.839 c -0.106,0.799 -0.74,0.049 -1.109,0.135 -1.071,-0.327 -0.434,-1.577 -0.916,-2.23 -0.659,-0.995 -2.75,-0.94 -2.231,-2.499 0.667,-1.378 5.192,-0.956 4.41,1.061 1.672,1.136 4.083,0.44 5.684,0.314 2.802,-0.228 6.336,-3.61 8.862,-0.308 0.021,0.065 0.034,0.126 0.039,0.187 C 6.497,-1.262 2.309,-0.604 0,0"
         inkscape:connector-curvature="0" />
    </g>
    <g
       transform="matrix(0.67404175,0,0,-0.67404175,17.993658,53.6335)"
       id="g6093">
      <path
         id="path6095"
         style="fill:#edccb8;fill-opacity:1;fill-rule:nonzero;stroke:none"
         d="m 0,0 -0.278,-1.635 c 0.132,-0.489 0.688,-0.664 1.059,-0.873 0.836,-0.324 1.814,0.155 2.323,0.84 C 3.097,-1.757 3.095,-1.845 3.099,-1.93 1.572,-2.673 0.621,-3.715 0.621,-4.871 0.621,-6.725 3.069,-8.29 6.42,-8.784 6.244,-9.065 6.004,-9.321 5.765,-9.587 4.518,-10.315 3.998,-8.756 3.006,-8.312 2.109,-8.082 1.51,-8.983 0.748,-9.305 c -0.762,-0.473 -1.115,0.442 -1.492,0.867 -0.854,1.306 -2.452,-0.443 -3.484,0.461 -1.156,2.809 0.085,5.69 2.144,7.633 L 0,0 z m 5.479,-1.129 0.075,0.119 0.095,-0.083 -0.17,-0.036 z"
         inkscape:connector-curvature="0" />
    </g>
    <g
       transform="matrix(0.67404175,0,0,-0.67404175,41.804317,13.188973)"
       id="g6097">
      <path
         id="path6099"
         style="fill:#b18db8;fill-opacity:1;fill-rule:nonzero;stroke:none"
         d="M 0,0 C 0,0 -7.351,1.133 -2.191,7.358 -2.191,7.358 -4.866,2.501 0,0"
         inkscape:connector-curvature="0" />
    </g>
    <g
       transform="matrix(0.67404175,0,0,-0.67404175,38.678984,9.9777683)"
       id="g6101">
      <path
         id="path6103"
         style="fill:#b18db8;fill-opacity:1;fill-rule:nonzero;stroke:none"
         d="M 0,0 C -1.761,-2.783 1.085,-4.023 1.085,-4.023 -4.021,-2.501 0,0 0,0"
         inkscape:connector-curvature="0" />
    </g>
    <g
       transform="matrix(0.67404175,0,0,-0.67404175,52.723923,5.925295)"
       id="g6105">
      <path
         id="path6107"
         style="fill:#b18db8;fill-opacity:1;fill-rule:nonzero;stroke:none"
         d="m 0,0 c 0,0 5.282,-5.237 -2.552,-7.242 0,0 5.018,2.358 2.552,7.242"
         inkscape:connector-curvature="0" />
    </g>
    <g
       transform="matrix(0.67404175,0,0,-0.67404175,53.365076,10.36049)"
       id="g6109">
      <path
         id="path6111"
         style="fill:#b18db8;fill-opacity:1;fill-rule:nonzero;stroke:none"
         d="M 0,0 C 3.06,1.217 1.487,3.892 1.487,3.892 4.723,-0.339 0,0 0,0"
         inkscape:connector-curvature="0" />
    </g>
  </g>
</svg>
