<?xml version="1.0" encoding="UTF-8" standalone="no"?>
<!-- Created with Inkscape (http://www.inkscape.org/) -->

<svg
   xmlns:dc="http://purl.org/dc/elements/1.1/"
   xmlns:cc="http://creativecommons.org/ns#"
   xmlns:rdf="http://www.w3.org/1999/02/22-rdf-syntax-ns#"
   xmlns:svg="http://www.w3.org/2000/svg"
   xmlns="http://www.w3.org/2000/svg"
   xmlns:sodipodi="http://sodipodi.sourceforge.net/DTD/sodipodi-0.dtd"
   xmlns:inkscape="http://www.inkscape.org/namespaces/inkscape"
   width="64px"
   height="64px"
   id="svg206729"
   version="1.1"
   inkscape:version="0.48.5 r10040"
   sodipodi:docname="Nowy dokument 80">
  <defs
     id="defs206731" />
  <sodipodi:namedview
     id="base"
     pagecolor="#ffffff"
     bordercolor="#666666"
     borderopacity="1.0"
     inkscape:pageopacity="0.0"
     inkscape:pageshadow="2"
     inkscape:zoom="5.5"
     inkscape:cx="32"
     inkscape:cy="24.253603"
     inkscape:current-layer="layer1"
     showgrid="true"
     inkscape:document-units="px"
     inkscape:grid-bbox="true"
     inkscape:window-width="1366"
     inkscape:window-height="706"
     inkscape:window-x="-8"
     inkscape:window-y="-8"
     inkscape:window-maximized="1" />
  <metadata
     id="metadata206734">
    <rdf:RDF>
      <cc:Work
         rdf:about="">
        <dc:format>image/svg+xml</dc:format>
        <dc:type
           rdf:resource="http://purl.org/dc/dcmitype/StillImage" />
        <dc:title></dc:title>
      </cc:Work>
    </rdf:RDF>
  </metadata>
  <g
     id="layer1"
     inkscape:label="Layer 1"
     inkscape:groupmode="layer">
    <g
       id="g58945"
       transform="matrix(1.6719032,0,0,-1.6719032,34.73557,20.580687)">
      <path
         inkscape:connector-curvature="0"
         d="m 0,0 0.33,2.26 c 0.756,3.106 3.18,5.515 6.253,6.206 1.933,0.305 3.806,0.793 5.671,0.012 0.062,-0.303 -0.25,-0.489 -0.284,-0.771 0.882,-0.045 1.784,0.155 2.673,-0.276 L 14.718,7.357 C 14.63,6.8 14.234,6.343 13.961,5.875 14.039,5.684 14.244,5.616 14.416,5.522 14.581,5.336 15.023,5.201 14.755,4.869 13.393,3.962 15.475,3.715 15.434,2.745 15.469,2.179 14.813,2.181 14.605,1.771 c 0.29,-0.346 0.512,-0.822 0.637,-1.278 0.153,-0.49 -0.445,-0.523 -0.585,-0.877 0.061,-1.108 -0.844,-1.89 -1.53,-2.481 -1.025,-1.114 -2.669,-1.138 -4.061,-1.64 0.227,-0.043 0.377,-0.086 0.602,-0.085 1.468,-0.242 2.615,-1.164 2.978,-2.581 0.437,-1.299 -0.476,-2.397 -0.369,-3.695 -0.134,-0.992 1.116,-2.097 0.399,-3.013 0.312,-0.886 0.678,-1.826 0.494,-2.735 0.454,-0.681 -0.402,-0.995 -0.667,-1.446 -1.308,0.693 -2.83,0.883 -4.263,0.557 -0.864,-0.111 -1.948,0.36 -2.814,0.696 -1.856,1.045 -3.598,2.333 -4.546,4.344 -0.288,3.622 -1.226,9.267 -1.226,9.267 0,0 0.446,0.371 0.396,1.183 -0.051,0.812 0.571,1.51 0.571,1.51 0,0 -0.484,0.42 -0.621,0.503"
         style="fill:#000000;fill-opacity:1;fill-rule:nonzero;stroke:none"
         id="path58947" />
    </g>
    <g
       id="g58949"
       transform="matrix(1.6719032,0,0,-1.6719032,42.260873,8.4806146)">
      <path
         inkscape:connector-curvature="0"
         d="M 0,0 C 0.165,0.514 0.981,0.56 1.36,0.803 2.344,1.096 3.274,1.263 4.26,0.962 4.635,0.845 5.049,0.744 5.403,0.604 5.624,0.425 5.94,0.27 5.933,-0.077 6.049,-0.849 6.479,-1.36 6.724,-2.11 6.931,-3.323 6.513,-4.505 5.519,-5.249 4.044,-6.099 2.229,-6.071 0.76,-5.235 c -1.034,0.864 -2.281,1.775 -2.348,3.341 0.298,0.404 0.521,0.852 0.88,1.25 C -0.485,-0.419 -0.272,-0.17 0,0"
         style="fill:#000000;fill-opacity:1;fill-rule:nonzero;stroke:none"
         id="path58951" />
    </g>
    <g
       id="g58953"
       transform="matrix(1.6719032,0,0,-1.6719032,47.921403,18.29335)">
      <path
         inkscape:connector-curvature="0"
         d="m 0,0 c -0.119,0.039 -0.244,0.086 -0.379,0.13 -0.455,0.148 -0.859,-0.143 -1.228,0.167 -0.391,0.339 -0.328,0.748 -0.666,1.146 -0.59,0.704 -1.238,0.915 -1.582,1.77 -0.231,0.57 0.369,0.915 0.516,1.497 0.197,0.766 0.388,1.235 0.915,1.789 0.151,0.052 0.292,0.105 0.399,0.173 0.578,0.173 1.139,0.301 1.703,0.317 0.145,-0.059 0.26,-0.167 0.336,-0.351 L 0.461,5.531 C 0.602,5.18 1.075,5.397 1.395,5.207 1.616,5.067 1.645,4.837 1.747,4.585 1.938,4.113 1.758,3.773 1.881,3.275 2.158,2.162 2.145,0.924 1.374,0.27 0.93,0.11 0.467,0.021 0,0"
         style="fill:#ccae42;fill-opacity:1;fill-rule:nonzero;stroke:none"
         id="path58955" />
    </g>
    <g
       id="g58957"
       transform="matrix(1.6719032,0,0,-1.6719032,47.921403,18.29335)">
      <path
         inkscape:connector-curvature="0"
         d="m 0,0 c -0.119,0.039 -0.244,0.086 -0.379,0.13 -0.455,0.148 -0.859,-0.143 -1.228,0.167 -0.391,0.339 -0.328,0.748 -0.666,1.146 -0.59,0.704 -1.238,0.915 -1.582,1.77 -0.231,0.57 0.369,0.915 0.516,1.497 0.197,0.766 0.388,1.235 0.915,1.789 0.151,0.052 0.292,0.105 0.399,0.173 0.281,0.084 0.559,0.158 0.834,0.213 L -1.388,6.828 C -1.494,6.76 -1.635,6.707 -1.785,6.655 -2.312,6.1 -2.504,5.632 -2.701,4.865 -2.848,4.283 -3.447,3.938 -3.218,3.369 -2.873,2.514 -2.226,2.303 -1.636,1.599 -1.296,1.201 -1.361,0.792 -0.969,0.453 -0.601,0.142 -0.195,0.434 0.26,0.286 0.395,0.242 0.518,0.195 0.639,0.156 0.836,0.165 1.031,0.185 1.225,0.219 0.826,0.091 0.414,0.019 0,0"
         style="fill:#f5d75c;fill-opacity:1;fill-rule:nonzero;stroke:none"
         id="path58959" />
    </g>
    <g
       id="g58961"
       transform="matrix(1.6719032,0,0,-1.6719032,52.27758,16.534841)">
      <path
         inkscape:connector-curvature="0"
         d="M 0,0 C -1.568,-0.009 -3.004,0.828 -3.575,2.244 -4.08,3.493 -3.789,4.883 -2.936,5.938 -2.538,5.948 -2.139,5.904 -1.731,5.779 -1.356,5.662 -0.942,5.562 -0.588,5.421 -0.367,5.242 -0.051,5.087 -0.059,4.74 0.058,3.969 0.488,3.457 0.732,2.707 0.902,1.708 0.65,0.73 0,0"
         style="fill:#603081;fill-opacity:1;fill-rule:nonzero;stroke:none"
         id="path58963" />
    </g>
    <g
       id="g58965"
       transform="matrix(1.6719032,0,0,-1.6719032,35.39537,19.392125)">
      <path
         inkscape:connector-curvature="0"
         d="M 0,0 C 0.105,2.404 1.562,4.946 3.492,6.278 L 3.311,6.026 C 2.899,5.682 2.655,5.181 2.291,4.824 2.291,4.824 1.83,4.087 1.746,3.963 1.129,2.634 0.528,1.197 0.129,-0.288 0.104,-0.194 0.071,-0.109 0.031,-0.045 L 0,0 z"
         style="fill:#b08c4b;fill-opacity:1;fill-rule:nonzero;stroke:none"
         id="path58967" />
    </g>
    <g
       id="g58969"
       transform="matrix(1.6719032,0,0,-1.6719032,48.574649,6.3531243)">
      <path
         inkscape:connector-curvature="0"
         d="M 0,0 C 0.654,0.189 1.298,0.183 1.939,0.144 2.553,0.138 3.166,0.058 3.762,-0.09 3.76,-0.418 3.365,-0.622 3.432,-0.968 4.332,-1.17 5.252,-0.754 6.105,-1.317 5.92,-1.779 5.642,-2.234 5.365,-2.658 5.427,-2.992 5.787,-3.113 6.074,-3.268 6.552,-3.64 5.822,-3.86 5.732,-4.194 5.758,-4.66 6.279,-4.883 6.55,-5.22 7.51,-6.01 5.981,-6.21 6.021,-6.863 c 0.292,-0.39 0.79,-0.992 0.544,-1.493 -0.629,-0.21 -0.461,-0.961 -0.651,-1.412 -0.797,-0.976 -1.537,-2.17 -3.072,-2.387 0.627,0.401 1.21,0.949 1.256,1.758 -0.338,0.579 0.226,1.134 0.335,1.714 0.079,0.836 -0.994,1.461 -0.498,2.302 -0.027,-0.011 -0.029,-0.041 -0.049,-0.063 0.01,0.048 0.229,0.389 0.245,0.575 -0.213,0.821 -0.657,1.552 -0.43,2.389 0.34,1.298 -1.629,1.084 -1.381,2.421 C 1.941,-0.304 0.802,-0.139 0,0"
         style="fill:#764e33;fill-opacity:1;fill-rule:nonzero;stroke:none"
         id="path58971" />
    </g>
    <g
       id="g58973"
       transform="matrix(1.6719032,0,0,-1.6719032,38.170863,14.317563)">
      <path
         inkscape:connector-curvature="0"
         d="M 0,0 C 0.131,0.41 0.284,0.771 0.563,1.076 0.969,-0.19 1.783,-1.098 2.836,-1.819 1.786,-1.364 0.67,-0.922 0,0"
         style="fill:#000000;fill-opacity:1;fill-rule:nonzero;stroke:none"
         id="path58975" />
    </g>
    <g
       id="g58977"
       transform="matrix(1.6719032,0,0,-1.6719032,36.601815,25.002029)">
      <path
         inkscape:connector-curvature="0"
         d="m 0,0 c 0.292,0.339 0.505,0.749 0.388,1.175 -0.052,0.645 -0.604,0.877 -0.809,0.942 0.149,0.299 0,0.775 0.216,0.981 C 0.405,2.585 1.255,2.361 2.021,2.566 2.254,2.69 2.27,2.98 2.116,3.216 1.534,3.845 0.845,4.372 0.378,5.122 L 0.793,6.049 C 1.961,4.927 3.554,4.304 5.058,3.897 6.716,3.556 8.75,3.646 9.812,5.223 10.558,6.18 10.639,7.673 10.04,8.638 10.352,8.496 10.599,8.253 10.62,7.903 10.358,7.039 10.755,6.096 11.102,5.313 10.817,4.615 10.608,3.803 11.231,3.22 11.668,2.547 11.077,1.979 10.956,1.32 11.099,0.931 11.036,0.533 10.909,0.184 10.192,-0.732 9.239,-1.399 8.071,-1.529 5.799,-1.881 3.299,-2.146 1.021,-2.664 c 0.48,0.432 0.909,0.919 1.442,1.298 0.524,0.434 1.081,0.972 1.366,1.669 C 3.782,0.344 3.319,-0.718 0.534,-2.458 0.909,-1.175 1.837,-0.592 2.34,0.596 2.317,0.689 2.501,0.823 2.37,0.891 1.92,-0.17 0.993,-0.753 0.493,-1.805 0.306,-2.224 -0.089,-2.368 -0.278,-2.712 c -0.132,0.566 0.077,0.899 -0.053,1.501 -0.065,0.408 -0.11,0.644 -0.11,0.644 0,0 0.225,0.232 0.441,0.567"
         style="fill:#c00a21;fill-opacity:1;fill-rule:nonzero;stroke:none"
         id="path58979" />
    </g>
    <g
       id="g58981"
       transform="matrix(1.6719032,0,0,-1.6719032,36.939807,19.723496)">
      <path
         inkscape:connector-curvature="0"
         d="M 0,0 C -0.691,0.348 -0.049,1.083 0.041,1.597 0.539,1.173 0.947,0.458 1.555,0.063 1.627,-0.116 1.877,-0.328 1.613,-0.45 1.045,-0.485 0.488,-0.323 0,0"
         style="fill:#000000;fill-opacity:1;fill-rule:nonzero;stroke:none"
         id="path58983" />
    </g>
    <g
       id="g58985"
       transform="matrix(1.6719032,0,0,-1.6719032,48.78678,20.068081)">
      <path
         inkscape:connector-curvature="0"
         d="m 0,0 c -0.012,0.249 0.188,0.42 0.4,0.521 0.223,0 0.422,-0.159 0.612,-0.26 C 1.218,0.12 1.242,-0.197 1.097,-0.391 0.921,-0.655 0.568,-0.559 0.34,-0.473 0.094,-0.453 0.098,-0.169 0,0"
         style="fill:#835796;fill-opacity:1;fill-rule:nonzero;stroke:none"
         id="path58987" />
    </g>
    <g
       id="g58989"
       transform="matrix(1.6719032,0,0,-1.6719032,49.044788,20.087636)">
      <path
         inkscape:connector-curvature="0"
         d="M 0,0 C -0.024,0.169 0.088,0.334 0.282,0.368 0.517,0.343 0.857,0.272 0.907,-0.035 0.879,-0.225 0.768,-0.39 0.555,-0.416 0.326,-0.403 0.016,-0.336 0,0"
         style="fill:#ffffff;fill-opacity:1;fill-rule:nonzero;stroke:none"
         id="path58991" />
    </g>
    <g
       id="g58993"
       transform="matrix(1.6719032,0,0,-1.6719032,49.061106,22.471435)">
      <path
         inkscape:connector-curvature="0"
         d="M 0,0 C -0.055,0.394 0.451,0.466 0.693,0.31 0.817,0.151 0.916,-0.092 0.777,-0.267 0.668,-0.326 0.469,-0.496 0.33,-0.374 0.186,-0.313 0.023,-0.17 0,0"
         style="fill:#835796;fill-opacity:1;fill-rule:nonzero;stroke:none"
         id="path58995" />
    </g>
    <g
       id="g58997"
       transform="matrix(1.6719032,0,0,-1.6719032,49.279791,22.458395)">
      <path
         inkscape:connector-curvature="0"
         d="M 0,0 C -0.039,0.207 0.201,0.201 0.318,0.278 0.443,0.269 0.566,0.185 0.598,0.033 0.58,-0.108 0.511,-0.27 0.337,-0.281 0.176,-0.287 0.023,-0.169 0,0"
         style="fill:#ffffff;fill-opacity:1;fill-rule:nonzero;stroke:none"
         id="path58999" />
    </g>
    <g
       id="g59001"
       transform="matrix(1.6719032,0,0,-1.6719032,42.130198,46.318795)">
      <path
         inkscape:connector-curvature="0"
         d="m 0,0 c -0.616,2.152 -0.985,5.04 -3.228,6.027 0.01,0.508 0.002,1.009 -0.013,1.494 0.004,0.631 0.004,1.261 -0.023,1.886 0.201,-0.053 0.238,0.186 0.361,0.25 0.938,0.186 1.863,0.441 2.809,0.57 C -0.791,9.334 -0.907,8.185 -0.522,7.119 0.077,5.454 1.935,4.282 3.705,4.179 3.925,4.117 4.214,4.101 4.429,4.084 4.879,3.744 5.384,3.232 5.294,2.646 5.007,2.396 4.511,2.999 4.437,2.478 4.647,1.922 5.183,1.407 5.287,0.706 5.218,0.692 5.19,0.651 5.144,0.617 L 3.824,1.157 3.544,1.148 C 3.396,0.671 3.435,0.166 3.226,-0.276 2.911,-0.567 2.628,-0.234 2.333,-0.205 1.657,0.178 1.435,-0.746 0.87,-0.751 0.47,-0.646 0.156,-0.385 0,0"
         style="fill:#9c7c5e;fill-opacity:1;fill-rule:nonzero;stroke:none"
         id="path59003" />
    </g>
    <g
       id="g59005"
       transform="matrix(1.6719032,0,0,-1.6719032,42.04045,34.87344)">
      <path
         inkscape:connector-curvature="0"
         d="M 0,0 C -0.467,1.153 -0.537,2.584 0.432,3.467 2.529,3.734 4.997,4.373 6.711,2.786 7.449,1.953 7.675,0.658 7.266,-0.357 7.48,0.847 7.146,2.336 6.064,3.061 4.96,3.986 3.533,3.752 2.311,3.392 1.581,2.873 0.82,2.209 0.74,1.193 0.695,0.862 0.799,0.457 0.73,0.221 0.846,-0.507 1.322,-1.208 1.781,-1.753 0.994,-1.356 0.402,-0.776 0,0"
         style="fill:#151515;fill-opacity:1;fill-rule:nonzero;stroke:none"
         id="path59007" />
    </g>
    <g
       id="g59009"
       transform="matrix(1.6719032,0,0,-1.6719032,43.895059,32.927358)">
      <path
         inkscape:connector-curvature="0"
         d="M 0,0 C 0.074,0.7 0.504,1.335 1.002,1.76 1.959,2.341 3.149,2.419 4.221,2.017 5.299,1.56 5.937,0.312 5.945,-0.816 5.907,-1.457 5.602,-2.028 5.455,-2.549 5.09,-3.084 4.254,-3.377 3.646,-3.459 c 0.405,0.254 0.805,0.519 1.095,0.905 0.509,0.697 0.687,1.544 0.46,2.33 C 4.861,0.578 4.209,1.194 3.316,1.34 2.742,1.361 2.17,1.01 1.642,0.693 0.94,0.216 1.018,-0.677 0.854,-1.413 0.908,-2.285 1.596,-3.065 2.082,-3.494 1.738,-3.529 1.681,-3.165 1.357,-3.176 0.557,-2.338 -0.273,-1.243 0,0"
         style="fill:#f5d75c;fill-opacity:1;fill-rule:nonzero;stroke:none"
         id="path59011" />
    </g>
    <g
       id="g59013"
       transform="matrix(1.6719032,0,0,-1.6719032,46.412811,32.932201)">
      <path
         inkscape:connector-curvature="0"
         d="M 0,0 C 0.211,0.547 0.771,0.744 1.273,0.977 1.736,1.268 2.233,0.813 2.635,0.707 3.195,0.278 3.675,-0.541 3.431,-1.266 3.382,-2.434 2.285,-3.114 1.39,-3.55 0.802,-3.46 0.563,-2.945 0.188,-2.605 -0.368,-1.817 -0.336,-0.866 0,0"
         style="fill:#000000;fill-opacity:1;fill-rule:nonzero;stroke:none"
         id="path59015" />
    </g>
    <g
       id="g59017"
       transform="matrix(1.6719032,0,0,-1.6719032,39.281141,41.91551)">
      <path
         inkscape:connector-curvature="0"
         d="m 0,0 c -0.535,0.99 -1.615,1.895 -1.512,3.188 0.709,-0.28 1.188,-0.875 1.578,-1.508 1.028,-1.582 0.846,-3.606 1.887,-4.929 -0.982,0.587 -1.844,1.282 -2.529,2.167 -0.5,0.588 -0.805,1.229 -1.158,1.947 0.045,0.279 0.082,0.563 0.111,0.849 0.209,-1.015 0.989,-1.879 1.637,-2.632 0,0 -1.281,1.657 -1.385,2.688 C -0.996,1.102 -0.523,0.519 0,0"
         style="fill:#b9a6b8;fill-opacity:1;fill-rule:nonzero;stroke:none"
         id="path59019" />
    </g>
    <g
       id="g59021"
       transform="matrix(1.6719032,0,0,-1.6719032,55.004254,34.716789)">
      <path
         inkscape:connector-curvature="0"
         d="M 0,0 C 0.24,0.991 -0.232,2.126 -0.872,2.896 -0.162,2.393 0.244,1.424 0.354,0.635 0.6,-0.711 -0.637,-1.523 -0.999,-2.728 c -0.41,-0.716 0.183,-1.446 0.298,-2.173 -0.007,-0.167 0.019,-0.529 -0.263,-0.494 -0.977,0.022 -0.361,-0.95 -0.692,-1.457 C -1.994,-7.197 -2.479,-7.14 -2.879,-7.107 -4.023,-7.63 -5.313,-8.24 -6.523,-7.819 l 0.769,0.563 c 0.464,-0.006 1.017,-0.453 1.402,-0.118 0.336,0.389 0.226,0.954 0.325,1.411 0.263,-0.027 0.388,-0.111 0.621,-0.211 0.367,-0.059 0.894,-0.591 1.174,-0.136 -0.039,0.684 -0.467,1.227 -0.864,1.767 l 0.039,0.089 c 0.135,0.07 0.215,-0.017 0.321,-0.093 0.213,0.026 0.474,-0.032 0.535,0.261 0.033,0.654 -0.494,1.186 -0.952,1.582 C -1.612,-2.573 -0.393,-1.499 0,0"
         style="fill:#b08c4b;fill-opacity:1;fill-rule:nonzero;stroke:none"
         id="path59023" />
    </g>
    <g
       id="g59025"
       transform="matrix(1.6719032,0,0,-1.6719032,48.192518,34.130621)">
      <path
         inkscape:connector-curvature="0"
         d="M 0,0 C 0.029,0.295 0.075,0.477 0.238,0.736 0.506,1.068 0.917,0.937 1.258,0.865 1.585,0.685 1.658,0.282 1.705,-0.057 1.67,-0.265 1.566,-0.484 1.385,-0.589 1.123,-0.827 0.782,-0.758 0.487,-0.652 0.219,-0.581 0.072,-0.254 0,0"
         style="fill:#194890;fill-opacity:1;fill-rule:nonzero;stroke:none"
         id="path59027" />
    </g>
    <g
       id="g59029"
       transform="matrix(1.6719032,0,0,-1.6719032,48.633232,34.17643)">
      <path
         inkscape:connector-curvature="0"
         d="M 0,0 C 0.049,0.287 0.072,0.595 0.328,0.773 0.547,0.786 0.793,0.692 0.978,0.603 1.217,0.343 1.219,0.045 1.082,-0.279 0.897,-0.562 0.584,-0.599 0.276,-0.425 0.188,-0.282 -0.029,-0.221 0,0"
         style="fill:#603081;fill-opacity:1;fill-rule:nonzero;stroke:none"
         id="path59031" />
    </g>
    <g
       id="g59033"
       transform="matrix(1.6719032,0,0,-1.6719032,53.47279,40.666425)">
      <path
         inkscape:connector-curvature="0"
         d="M 0,0 C 0,0.701 0.328,1.548 0.873,2.007 0.708,1.493 0.828,0.975 0.885,0.463 0.893,-0.22 1.882,-1.191 1.178,-1.848 1.378,-2.526 1.695,-3.128 1.73,-3.77 1.754,-4.192 1.547,-4.678 1.779,-5.031 1.825,-5.476 1.327,-5.423 1.146,-5.749 c -0.66,0.194 -1.36,0.672 -2.07,0.698 -1.495,-0.097 -3.058,-0.431 -4.498,0.403 -0.031,0.076 -0.23,0.055 -0.172,0.169 1.049,-0.128 2.209,-0.122 3.14,0.449 0.505,0.74 1.345,-0.158 1.854,0.571 0.267,0.375 0.152,0.806 0.154,1.208 0.189,0.195 0.43,0.115 0.704,0.285 C 0.707,-1.309 0.068,-0.688 0,0"
         style="fill:#764e33;fill-opacity:1;fill-rule:nonzero;stroke:none"
         id="path59035" />
    </g>
    <g
       id="g59037"
       transform="matrix(1.6719032,0,0,-1.6719032,39.978391,39.508799)">
      <path
         inkscape:connector-curvature="0"
         d="M 0,0 C 0.153,-0.046 0.308,-0.117 0.488,-0.157 0.484,0.197 0.478,0.437 0.484,0.797 0.759,0.653 0.908,0.317 1.204,0.438 1.269,0.464 1.3,0.515 1.365,0.541 L 1.048,1.33 1.204,1.444 C 1.449,1.25 1.64,1.123 1.925,1.021 L 1.813,1.296 C 1.632,1.744 1.203,1.826 1.022,2.276 L 0.646,3.207 C 0.582,3.362 0.585,3.495 0.606,3.63 0.642,3.434 0.695,3.238 0.765,3.046 1.364,1.381 3.222,0.209 4.992,0.105 5.212,0.044 5.501,0.027 5.716,0.011 6.166,-0.329 6.671,-0.841 6.581,-1.428 6.294,-1.678 5.798,-1.074 5.724,-1.596 5.935,-2.151 6.47,-2.666 6.574,-3.367 6.505,-3.381 6.478,-3.422 6.431,-3.456 l -1.32,0.54 -0.28,-0.009 C 4.683,-3.402 4.722,-3.907 4.513,-4.35 4.198,-4.641 3.915,-4.308 3.62,-4.278 2.944,-3.896 2.722,-4.819 2.157,-4.824 1.757,-4.719 1.443,-4.458 1.287,-4.073 0.921,-2.791 0.64,-1.247 0,0"
         style="fill:#c00a21;fill-opacity:1;fill-rule:nonzero;stroke:none"
         id="path59039" />
    </g>
    <g
       id="g59041"
       transform="matrix(1.6719032,0,0,-1.6719032,37.233794,16.43854)">
      <path
         inkscape:connector-curvature="0"
         d="M 0,0 0.415,0.927 C 0.999,0.365 1.688,-0.07 2.419,-0.416 2.042,-0.669 1.639,-0.986 1.223,-1.388 0.781,-0.959 0.334,-0.537 0,0"
         style="fill:#fbea98;fill-opacity:1;fill-rule:nonzero;stroke:none"
         id="path59043" />
    </g>
    <g
       id="g59045"
       transform="matrix(1.6719032,0,0,-1.6719032,37.619001,20.597072)">
      <path
         inkscape:connector-curvature="0"
         d="m 0,0 c -0.188,-0.238 -0.377,-0.495 -0.563,-0.772 -0.17,0.149 -0.363,0.222 -0.466,0.254 0.148,0.299 0,0.775 0.216,0.981 C -0.574,0.261 -0.295,0.103 0,0"
         style="fill:#fbea98;fill-opacity:1;fill-rule:nonzero;stroke:none"
         id="path59047" />
    </g>
    <g
       id="g59049"
       transform="matrix(1.6719032,0,0,-1.6719032,48.705191,16.735644)">
      <path
         inkscape:connector-curvature="0"
         d="m 0,0 c 0.039,1.266 0.681,2.072 0.207,3.245 -0.244,0.604 -0.631,0.803 -0.875,1.406 -0.164,0.407 -0.227,0.942 0.189,1.11 L -0.455,5.706 -0.008,4.6 C 0.133,4.248 0.606,4.466 0.926,4.275 1.147,4.136 1.176,3.905 1.278,3.653 1.47,3.182 1.289,2.842 1.412,2.344 1.689,1.23 1.676,-0.008 0.905,-0.662 0.533,-0.796 0.148,-0.88 -0.24,-0.916 -0.361,-0.577 -0.002,-0.363 0,0"
         style="fill:#ab3484;fill-opacity:1;fill-rule:nonzero;stroke:none"
         id="path59051" />
    </g>
    <g
       id="g59053"
       transform="matrix(1.6719032,0,0,-1.6719032,45.077295,8.2274883)">
      <path
         inkscape:connector-curvature="0"
         d="m 0,0 c 0.383,0.155 0.701,0.348 1.07,0.191 0.385,-0.163 0.358,-0.57 0.578,-0.926 0.192,-0.318 0.477,-0.42 0.618,-0.771 0.492,-1.217 0.492,-2.797 -0.723,-3.289 -0.965,-0.389 -1.898,0.406 -2.289,1.371 l -0.381,0.943 c -0.141,0.35 0.17,0.591 0.282,0.943 C -0.656,-0.965 -0.383,-0.473 0,0"
         style="fill:#000000;fill-opacity:1;fill-rule:evenodd;stroke:none"
         id="path59055" />
    </g>
    <g
       id="g59057"
       transform="matrix(1.6719032,0,0,-1.6719032,48.181016,13.641607)">
      <path
         inkscape:connector-curvature="0"
         d="M 0,0 C 0.296,0.119 0.166,0.474 0.265,0.769 0.418,1.238 0.579,1.597 0.388,2.068 L 0.474,1.859 0.924,0.743 C 1.065,0.392 0.771,0.145 0.714,-0.223 0.592,-0.96 0.452,-1.59 -0.239,-1.869 c -0.833,-0.337 -1.763,0.167 -2.1,1 -0.265,0.658 -0.432,1.037 -0.685,1.699 0,0 1.315,-1.521 2.136,-1.189 L 0,0 z"
         style="fill:#90121c;fill-opacity:1;fill-rule:evenodd;stroke:none"
         id="path59059" />
    </g>
    <g
       id="g59061"
       transform="matrix(1.6719032,0,0,-1.6719032,49.815469,11.35261)">
      <path
         inkscape:connector-curvature="0"
         d="M 0,0 C -0.386,0.953 -0.396,1.848 -0.024,1.999 0.349,2.148 0.961,1.498 1.348,0.545 1.732,-0.408 1.742,-1.304 1.371,-1.453 0.998,-1.604 0.385,-0.953 0,0"
         style="fill:#835796;fill-opacity:1;fill-rule:nonzero;stroke:none"
         id="path59063" />
    </g>
    <g
       id="g59065"
       transform="matrix(1.6719032,0,0,-1.6719032,50.213782,13.610683)">
      <path
         inkscape:connector-curvature="0"
         d="M 0,0 C -0.156,0.388 -0.001,0.816 0.348,0.956 0.695,1.098 1.104,0.897 1.26,0.509 1.417,0.122 1.262,-0.306 0.914,-0.446 0.566,-0.587 0.157,-0.387 0,0"
         style="fill:#b18db8;fill-opacity:1;fill-rule:nonzero;stroke:none"
         id="path59067" />
    </g>
    <g
       id="g59069"
       transform="matrix(1.6719032,0,0,-1.6719032,48.64634,9.3623763)">
      <path
         inkscape:connector-curvature="0"
         d="M 0,0 C -0.082,0.205 0.018,0.44 0.223,0.523 0.429,0.606 0.662,0.507 0.746,0.301 0.83,0.095 0.729,-0.139 0.523,-0.222 0.318,-0.305 0.084,-0.206 0,0"
         style="fill:#ffffff;fill-opacity:1;fill-rule:nonzero;stroke:none"
         id="path59071" />
    </g>
    <g
       id="g59073"
       transform="matrix(1.6719032,0,0,-1.6719032,49.7403,11.382036)">
      <path
         inkscape:connector-curvature="0"
         d="M 0,0 C -0.072,0.178 0.014,0.382 0.192,0.454 0.371,0.526 0.574,0.439 0.646,0.261 0.719,0.082 0.633,-0.121 0.455,-0.192 0.275,-0.265 0.072,-0.179 0,0"
         style="fill:#ffffff;fill-opacity:1;fill-rule:nonzero;stroke:none"
         id="path59075" />
    </g>
    <g
       id="g59077"
       transform="matrix(1.6719032,0,0,-1.6719032,50.393412,14.262056)">
      <path
         inkscape:connector-curvature="0"
         d="M 0,0 C -0.064,0.158 0.013,0.337 0.17,0.399 0.326,0.463 0.506,0.388 0.57,0.229 0.633,0.073 0.557,-0.106 0.4,-0.17 0.242,-0.233 0.063,-0.157 0,0"
         style="fill:#ffffff;fill-opacity:1;fill-rule:nonzero;stroke:none"
         id="path59079" />
    </g>
    <g
       id="g59081"
       transform="matrix(1.6719032,0,0,-1.6719032,48.574649,6.3531243)">
      <path
         inkscape:connector-curvature="0"
         d="M 0,0 C 0.654,0.189 1.298,0.183 1.939,0.144 2.553,0.138 3.166,0.058 3.762,-0.09 3.76,-0.418 3.365,-0.622 3.432,-0.968 4.332,-1.17 5.252,-0.754 6.105,-1.317 5.92,-1.779 5.642,-2.234 5.365,-2.658 5.427,-2.992 5.787,-3.113 6.074,-3.268 6.552,-3.64 5.822,-3.86 5.732,-4.194 5.758,-4.66 6.279,-4.883 6.55,-5.22 7.51,-6.01 5.981,-6.21 6.021,-6.863 6.313,-7.253 6.811,-7.855 6.565,-8.356 5.936,-8.566 6.104,-9.317 5.914,-9.768 5.154,-10.7 4.445,-11.829 3.048,-12.121 c 0.933,0.467 1.514,1.346 2.127,2.098 0.19,0.45 0.02,1.201 0.651,1.411 0.244,0.501 -0.252,1.103 -0.543,1.493 -0.041,0.653 1.487,0.853 0.527,1.643 -0.271,0.338 -0.792,0.559 -0.816,1.027 0.088,0.333 0.819,0.553 0.34,0.927 -0.285,0.151 -0.647,0.273 -0.707,0.607 0.274,0.425 0.553,0.88 0.738,1.342 -0.853,0.563 -1.772,0.147 -2.674,0.349 -0.064,0.346 0.33,0.55 0.33,0.879 C 2.427,-0.198 1.813,-0.118 1.199,-0.112 0.972,-0.099 0.742,-0.089 0.514,-0.091 0.334,-0.057 0.162,-0.027 0,0"
         style="fill:#9c7c5e;fill-opacity:1;fill-rule:nonzero;stroke:none"
         id="path59083" />
    </g>
    <g
       id="g59085"
       transform="matrix(1.6719032,0,0,-1.6719032,36.601815,25.002029)">
      <path
         inkscape:connector-curvature="0"
         d="M 0,0 C 0.292,0.339 0.505,0.749 0.388,1.175 0.336,1.82 -0.216,2.052 -0.421,2.117 -0.272,2.416 0.351,2.436 0.438,2.031 0.67,0.953 0.653,-0.521 0.653,-0.521 c 0,0 2.168,2.394 2.859,3.335 0.69,0.943 0.716,1.003 0.716,1.003 0,0 -1.31,-2.402 -1.563,-3.168 -0.252,-0.763 -0.59,-1.155 -0.59,-1.155 0,0 1.94,1.192 2.807,1.949 0.867,0.758 1.39,1.072 1.39,1.072 0,0 -2.955,-5.616 4.059,-2.963 C 9.704,-1.03 8.948,-1.432 8.071,-1.529 5.799,-1.881 3.299,-2.146 1.021,-2.664 c 0.48,0.432 0.909,0.919 1.442,1.298 0.524,0.434 1.081,0.972 1.366,1.669 C 3.782,0.344 3.319,-0.718 0.534,-2.458 0.909,-1.175 1.837,-0.592 2.34,0.596 2.317,0.689 2.501,0.823 2.37,0.891 1.92,-0.17 0.993,-0.753 0.493,-1.805 0.306,-2.224 -0.04,-2.763 -0.228,-3.107 c -0.133,0.567 -0.888,1.233 -0.103,1.896 -0.065,0.408 -0.11,0.644 -0.11,0.644 0,0 0.225,0.232 0.441,0.567"
         style="fill:#90121c;fill-opacity:1;fill-rule:nonzero;stroke:none"
         id="path59087" />
    </g>
    <g
       id="g59089"
       transform="matrix(1.6719032,0,0,-1.6719032,43.895059,32.927358)">
      <path
         inkscape:connector-curvature="0"
         d="M 0,0 C 0.074,0.7 0.504,1.335 1.002,1.76 1.959,2.341 3.149,2.419 4.221,2.017 4.444,1.922 4.65,1.792 4.836,1.637 4.772,1.67 4.709,1.701 4.643,1.729 3.571,2.131 2.381,2.053 1.424,1.472 0.926,1.047 0.496,0.412 0.422,-0.289 0.174,-1.417 0.836,-2.423 1.559,-3.227 1.502,-3.194 1.438,-3.173 1.357,-3.176 0.557,-2.338 -0.273,-1.243 0,0"
         style="fill:#fbea98;fill-opacity:1;fill-rule:nonzero;stroke:none"
         id="path59091" />
    </g>
    <g
       id="g59093"
       transform="matrix(1.6719032,0,0,-1.6719032,45.090403,48.245497)">
      <path
         inkscape:connector-curvature="0"
         d="m 0,0 c 1.191,-0.346 2.438,-0.115 3.641,-0.037 0.71,-0.025 1.409,-0.502 2.068,-0.698 0.182,0.326 0.68,0.274 0.635,0.718 C 6.111,0.336 6.317,0.822 6.295,1.245 6.261,1.886 5.942,2.488 5.742,3.167 6.445,3.823 5.457,4.795 5.451,5.477 5.433,5.627 5.41,5.776 5.392,5.927 5.525,6.164 5.692,6.377 5.887,6.54 5.722,6.026 5.842,5.508 5.898,4.996 5.906,4.313 6.896,3.342 6.191,2.686 6.392,2.007 6.709,1.405 6.744,0.764 6.768,0.341 6.561,-0.145 6.793,-0.498 6.839,-0.942 6.341,-0.89 6.16,-1.216 5.5,-1.021 4.8,-0.544 4.09,-0.518 2.595,-0.615 1.031,-0.949 -0.408,-0.115 -0.439,-0.039 -0.639,-0.06 -0.58,0.054 -0.389,0.03 -0.195,0.012 0,0"
         style="fill:#9c7c5e;fill-opacity:1;fill-rule:nonzero;stroke:none"
         id="path59095" />
    </g>
    <g
       id="g59097"
       transform="matrix(1.6719032,0,0,-1.6719032,45.485373,31.079063)">
      <path
         inkscape:connector-curvature="0"
         d="M 0,0 C -0.103,0.256 0.186,0.61 0.643,0.796 1.1,0.98 1.553,0.924 1.655,0.67 1.758,0.415 1.471,0.06 1.014,-0.126 0.557,-0.31 0.104,-0.253 0,0"
         style="fill:#ffffff;fill-opacity:1;fill-rule:nonzero;stroke:none"
         id="path59099" />
    </g>
    <g
       id="g59101"
       transform="matrix(1.6719032,0,0,-1.6719032,39.119434,38.139015)">
      <path
         inkscape:connector-curvature="0"
         d="m 0,0 c -0.371,0.479 -0.833,0.874 -1.427,1.135 0.01,0.508 -1.078,2.005 -1.095,2.49 0.005,0.631 1.085,0.265 1.059,0.89 0.2,-0.053 0.237,0.185 0.36,0.25 C -0.427,4.899 0.244,5.069 0.92,5.201 0.336,4.466 -0.332,3.027 -0.032,0.415 -0.017,0.277 -0.006,0.139 0,0"
         style="fill:#764e33;fill-opacity:1;fill-rule:nonzero;stroke:none"
         id="path59103" />
    </g>
    <g
       id="g59105"
       transform="matrix(1.6719032,0,0,-1.6719032,38.770073,41.38652)">
      <path
         inkscape:connector-curvature="0"
         d="M 0,0 C -0.045,-0.188 -0.097,-0.375 -0.154,-0.562 -0.53,0.015 -1.003,0.844 -1.065,1.453 -0.765,0.919 -0.401,0.438 0,0 m -0.181,-0.647 c -0.064,-0.203 -0.134,-0.403 -0.211,-0.602 -0.431,0.548 -0.712,1.142 -1.037,1.798 0.045,0.278 0.082,0.562 0.112,0.848 0.156,-0.76 0.634,-1.436 1.136,-2.044 M 0.213,1.611 C 0.206,1.119 0.142,0.623 0.03,0.131 -0.53,0.957 -1.293,1.774 -1.206,2.871 -0.591,2.629 -0.147,2.147 0.213,1.611"
         style="fill:#835796;fill-opacity:1;fill-rule:nonzero;stroke:none"
         id="path59107" />
    </g>
    <g
       id="g59109"
       transform="matrix(1.6719032,0,0,-1.6719032,36.67364,30.590866)">
      <path
         inkscape:connector-curvature="0"
         d="M 0,0 C 0.2,-0.053 0.237,0.186 0.36,0.25 1.299,0.436 2.224,0.69 3.17,0.819 2.59,0.077 2.411,-0.844 2.591,-1.745 1.589,-1.229 0.728,-0.982 0.022,-0.886 0.019,-0.59 0.013,-0.294 0,0"
         style="fill:#f5d75c;fill-opacity:1;fill-rule:nonzero;stroke:none"
         id="path59111" />
    </g>
    <g
       id="g59113"
       transform="matrix(1.6719032,0,0,-1.6719032,33.994449,30.527174)">
      <path
         inkscape:connector-curvature="0"
         d="M 0,0 C 0.2,-0.053 1.84,0.147 1.963,0.212 2.639,0.347 3.31,0.517 3.985,0.648 3.661,0.24 3.312,-0.384 3.115,-1.306 2.561,-1.102 2.063,-0.983 1.625,-0.924 1.621,-0.628 0.012,-0.294 0,0"
         style="fill:#ccae42;fill-opacity:1;fill-rule:nonzero;stroke:none"
         id="path59115" />
    </g>
    <g
       id="g59117"
       transform="matrix(1.6719032,0,0,-1.6719032,32.923227,2.7872891)">
      <path
         inkscape:connector-curvature="0"
         d="m 0,0 c 0.152,-0.388 -0.553,-0.456 -0.525,-0.829 -0.661,-2.134 -0.567,-5.702 0.095,-8.593 0.196,0.222 0.444,0.332 0.733,0.332 0.581,-0.069 1.01,-0.705 1.161,-1.216 0.429,-0.096 0.897,-0.179 1.16,-0.635 0.373,-1.464 -0.636,-2.555 -0.636,-2.555 -0.498,-2.888 0.278,-6.19 0.733,-9.353 0,-0.331 0.11,-0.87 -0.304,-1.021 -0.539,-0.028 -0.787,0.607 -1.119,0.925 -0.069,-2.306 -1.23,-4.213 -2.597,-5.925 -0.678,-0.637 -1.506,-1.479 -2.347,-1.699 -1.452,-0.236 -2.792,-0.982 -3.745,-2.115 -0.414,0.319 -1.326,0.29 -1.16,1.091 -0.512,0.775 -0.525,1.782 -0.566,2.723 -1.009,0.58 -0.263,2.07 -0.76,2.941 -0.387,1.243 -1.644,1.92 -1.727,3.287 -0.193,1.452 0.525,2.736 1.795,3.509 0.207,0.083 0.332,0.18 0.526,0.305 -1.479,-0.056 -3.011,-0.65 -4.379,0 -0.856,0.29 -1.988,0.677 -2.348,1.726 -0.261,0.277 -0.829,0.083 -0.87,0.594 -0.056,0.47 -0.028,0.994 0.11,1.422 -0.345,0.305 -0.953,0.057 -1.132,0.595 -0.401,0.885 1.436,1.892 -0.166,2.223 -0.373,0.207 -0.014,0.498 0.069,0.733 0.124,0.151 0.29,0.29 0.29,0.498 -0.428,0.331 -0.967,0.607 -1.257,1.091 l 0.041,0.095 c 0.663,0.734 1.575,0.885 2.376,1.257 -0.139,0.249 -0.497,0.305 -0.553,0.609 1.437,1.422 3.357,1.672 5.263,2.113 3.109,0.512 6.258,-0.815 8.123,-3.411 l 0.732,-1.16 c 0.235,0.248 0.608,0.621 1.022,0.663 -0.414,2.886 -1.823,5.539 -4.075,7.624 -0.109,-0.056 -0.262,-0.139 -0.401,-0.07 -0.166,0.083 -0.221,0.304 -0.193,0.47 0.152,0.305 0.414,0.181 0.662,0.166 0.196,-0.055 0.057,-0.275 0.071,-0.399 0.289,-0.374 3.257,-2.853 4.24,-7.791 l 0.691,-0.498 0.304,0.593 c -0.387,3.094 -0.871,6.148 0.026,9.16 -0.166,0.137 -0.248,0.372 -0.166,0.593 C -0.566,0.233 -0.208,0.164 0,0"
         style="fill:#000000;fill-opacity:1;fill-rule:nonzero;stroke:none"
         id="path59119" />
    </g>
    <g
       id="g59121"
       transform="matrix(1.6719032,0,0,-1.6719032,17.125078,13.204076)">
      <path
         inkscape:connector-curvature="0"
         d="m 0,0 c 0.318,-0.056 0.608,-0.208 0.898,-0.332 0.483,-0.235 0.858,-0.566 1.286,-0.829 0.524,-1.478 -0.291,-2.79 -0.926,-3.978 -1.051,-1.326 -2.722,-2.03 -4.406,-1.796 -1.203,0.318 -2.032,1.257 -2.293,2.459 -0.056,0.787 0.151,1.423 -0.029,2.183 -0.137,0.317 0.097,0.58 0.236,0.829 0.275,0.262 0.621,0.511 0.923,0.759 0.803,0.649 1.728,0.843 2.75,0.939 C -1.119,0.151 -0.345,0.414 0,0"
         style="fill:#000000;fill-opacity:1;fill-rule:nonzero;stroke:none"
         id="path59123" />
    </g>
    <g
       id="g59125"
       transform="matrix(1.6719032,0,0,-1.6719032,15.55456,24.424045)">
      <path
         inkscape:connector-curvature="0"
         d="m 0,0 c -0.44,-0.154 -0.903,-0.245 -1.375,-0.264 -0.959,0.318 -1.436,1.461 -1.596,2.596 -0.072,0.508 -0.367,0.756 -0.367,1.265 0,0.271 -0.058,0.496 0.095,0.709 0.223,0.295 0.745,0.272 0.745,0.65 l 0,1.194 c 0,0.198 0.066,0.342 0.178,0.451 0.529,0.197 1.097,0.288 1.699,0.344 0.123,-0.023 0.273,-0.019 0.433,-0.01 C 0.509,6.617 0.861,6.255 1.332,5.618 1.686,5.134 2.371,5.039 2.371,4.424 2.371,3.502 1.851,3.065 1.567,2.19 1.402,1.694 1.615,1.339 1.379,0.878 1.154,0.453 0.668,0.571 0.303,0.263 0.193,0.172 0.096,0.082 0,0"
         style="fill:#ccae42;fill-opacity:1;fill-rule:nonzero;stroke:none"
         id="path59127" />
    </g>
    <g
       id="g59129"
       transform="matrix(1.6719032,0,0,-1.6719032,15.55456,24.424045)">
      <path
         inkscape:connector-curvature="0"
         d="m 0,0 c -0.392,-0.137 -0.801,-0.224 -1.219,-0.255 0.194,0.042 0.383,0.095 0.569,0.161 0.095,0.081 0.193,0.171 0.302,0.263 C 0.02,0.476 0.504,0.358 0.729,0.783 0.965,1.244 0.752,1.599 0.918,2.096 1.201,2.97 1.722,3.407 1.722,4.33 1.722,4.944 1.035,5.039 0.681,5.524 0.211,6.16 -0.142,6.523 -0.838,6.84 -0.998,6.832 -1.147,6.828 -1.271,6.851 L -1.476,6.83 c 0.277,0.052 0.562,0.088 0.855,0.115 0.123,-0.023 0.273,-0.019 0.433,-0.01 C 0.509,6.617 0.861,6.255 1.332,5.618 1.686,5.134 2.371,5.039 2.371,4.424 2.371,3.502 1.851,3.065 1.567,2.19 1.402,1.694 1.615,1.339 1.379,0.878 1.154,0.453 0.668,0.571 0.303,0.263 0.193,0.172 0.096,0.082 0,0"
         style="fill:#f5d75c;fill-opacity:1;fill-rule:nonzero;stroke:none"
         id="path59131" />
    </g>
    <g
       id="g59133"
       transform="matrix(1.6719032,0,0,-1.6719032,10.85718,24.422547)">
      <path
         inkscape:connector-curvature="0"
         d="m 0,0 c -0.877,0.433 -1.477,1.244 -1.692,2.234 -0.056,0.787 0.151,1.423 -0.029,2.183 -0.137,0.317 0.097,0.58 0.236,0.829 0.275,0.262 0.621,0.511 0.923,0.759 0.333,0.269 0.687,0.46 1.059,0.598 C 1.683,5.946 2.474,4.766 2.474,3.419 2.474,1.891 1.457,0.578 0,0"
         style="fill:#603081;fill-opacity:1;fill-rule:nonzero;stroke:none"
         id="path59135" />
    </g>
    <g
       id="g59137"
       transform="matrix(1.6719032,0,0,-1.6719032,36.848321,21.310467)">
      <path
         inkscape:connector-curvature="0"
         d="M 0,0 C 0.25,-0.663 0.152,-1.382 -0.289,-1.92 L -0.691,-2.251 C -1.216,-5.774 -0.207,-9.117 0.11,-12.46 l -0.069,-0.069 c -0.525,0.235 -0.703,0.801 -1.035,1.202 -1.465,2.486 -2.666,5.125 -2.984,8.053 -0.553,0.442 -1.713,0.622 -1.451,1.617 0.015,0.178 0.083,0.331 0.195,0.469 0.373,-0.194 0.787,-0.469 1.228,-0.262 0.471,0.221 0.885,0.704 0.899,1.228 0.359,-0.441 0.883,-0.731 1.449,-0.634 0.539,0.193 0.83,0.787 0.83,1.353 C -0.455,0.47 -0.138,0.332 0,0"
         style="fill:#764e33;fill-opacity:1;fill-rule:nonzero;stroke:none"
         id="path59139" />
    </g>
    <g
       id="g59141"
       transform="matrix(1.6719032,0,0,-1.6719032,28.413769,24.20203)">
      <path
         inkscape:connector-curvature="0"
         d="m 0,0 c 0.092,-0.043 0.184,-0.082 0.276,-0.113 0.267,-0.088 0.591,-0.121 0.93,0.037 0.362,0.17 0.718,0.48 0.929,0.871 C 2.506,0.542 2.959,0.402 3.453,0.486 L 3.52,0.503 C 4.088,0.707 4.422,1.212 4.549,1.736 4.616,1.693 4.657,1.639 4.684,1.578 4.876,1.051 4.799,0.501 4.475,0.086 L 4.104,-0.22 C 4.078,-0.242 3.971,-0.431 3.967,-0.465 3.696,-2.279 3.822,-4.037 4.051,-5.746 4.231,-7.101 4.48,-8.441 4.653,-9.78 L 4.609,-9.711 C 4.535,-9.594 4.458,-9.479 4.373,-9.373 2.928,-6.915 1.764,-4.341 1.457,-1.502 1.452,-1.462 1.344,-1.264 1.313,-1.238 1.139,-1.1 0.928,-0.989 0.75,-0.896 0.582,-0.81 0.408,-0.724 0.258,-0.621 0.012,-0.45 -0.078,-0.307 -0.005,-0.029 L 0,0 z"
         style="fill:#9c7c5e;fill-opacity:1;fill-rule:nonzero;stroke:none"
         id="path59143" />
    </g>
    <g
       id="g59145"
       transform="matrix(1.6719032,0,0,-1.6719032,32.482513,3.0208472)">
      <path
         inkscape:connector-curvature="0"
         d="M 0,0 C 0,-0.109 -0.123,-0.192 -0.207,-0.221 -0.33,-0.165 -0.248,-0.068 -0.303,0 l 0.041,0.166 C -0.178,0.125 -0.027,0.14 0,0"
         style="fill:#aa892e;fill-opacity:1;fill-rule:nonzero;stroke:none"
         id="path59147" />
    </g>
    <g
       id="g59149"
       transform="matrix(1.6719032,0,0,-1.6719032,22.715656,5.6756691)">
      <path
         inkscape:connector-curvature="0"
         d="m 0,0 c 0.041,-0.138 -0.029,-0.332 -0.193,-0.401 -0.07,0.097 -0.264,0.042 -0.236,0.207 C -0.442,0.041 -0.139,0.041 0,0"
         style="fill:#aa892e;fill-opacity:1;fill-rule:nonzero;stroke:none"
         id="path59151" />
    </g>
    <g
       id="g59153"
       transform="matrix(1.6719032,0,0,-1.6719032,27.703545,21.03293)">
      <path
         inkscape:connector-curvature="0"
         d="M 0,0 -0.028,-0.222 C -0.967,1.036 -2.086,2.169 -3.177,3.19 -3.302,3.273 -4.006,3.784 -4.006,3.784 -4.476,3.978 -4.89,4.351 -5.401,4.517 L -5.664,4.683 C -3.315,4.157 -0.953,2.265 0,0"
         style="fill:#b08c4b;fill-opacity:1;fill-rule:nonzero;stroke:none"
         id="path59155" />
    </g>
    <g
       id="g59157"
       transform="matrix(1.6719032,0,0,-1.6719032,10.473444,13.597642)">
      <path
         inkscape:connector-curvature="0"
         d="m 0,0 c -0.69,-0.428 -1.684,-1.009 -1.754,-1.851 0.733,-1.147 -1.174,-1.684 -0.373,-2.762 0.525,-0.691 0.387,-1.533 0.498,-2.376 0.082,-0.165 0.414,-0.401 0.441,-0.443 -0.027,0.014 -0.041,0.042 -0.068,0.042 0.773,-0.593 0.014,-1.575 0.401,-2.321 0.317,-0.497 1.048,-0.801 0.953,-1.464 0.345,-0.731 1.09,-1.021 1.823,-1.16 -1.505,-0.373 -2.638,0.456 -3.743,1.064 -0.346,0.344 -0.471,1.104 -1.133,1.063 -0.414,0.373 -0.18,1.119 -0.055,1.588 -0.207,0.622 -1.699,0.235 -1.105,1.327 0.124,0.414 0.523,0.815 0.373,1.257 -0.208,0.276 -0.967,0.207 -0.664,0.732 0.208,0.248 0.498,0.497 0.428,0.828 -0.415,0.29 -0.842,0.609 -1.188,0.967 0.58,0.843 1.59,0.802 2.349,1.326 -0.07,0.346 -0.511,0.387 -0.635,0.692 0.497,0.358 1.036,0.662 1.602,0.897 C -1.271,-0.317 -0.676,-0.068 0,0"
         style="fill:#764e33;fill-opacity:1;fill-rule:nonzero;stroke:none"
         id="path59159" />
    </g>
    <g
       id="g59161"
       transform="matrix(1.6719032,0,0,-1.6719032,23.107282,17.085071)">
      <path
         inkscape:connector-curvature="0"
         d="m 0,0 c -0.275,-1.104 -1.146,-1.934 -1.947,-2.749 0.704,1.064 1.118,2.211 1.021,3.536 C -0.553,0.608 -0.275,0.331 0,0"
         style="fill:#000000;fill-opacity:1;fill-rule:nonzero;stroke:none"
         id="path59163" />
    </g>
    <g
       id="g59165"
       transform="matrix(1.6719032,0,0,-1.6719032,24.769555,18.701467)">
      <path
         inkscape:connector-curvature="0"
         d="m 0,0 c -0.15,-0.87 -0.594,-1.616 -0.896,-2.417 -0.057,-0.276 0.068,-0.539 0.33,-0.566 0.787,0.096 1.492,0.621 1.865,1.325 0.275,-0.11 0.318,-0.608 0.566,-0.828 C 1.574,-2.763 1.451,-3.177 1.464,-3.604 1.506,-4.337 2.363,-4.696 2.957,-4.876 2.97,-5.76 3.288,-6.561 3.412,-7.362 c -0.305,0.248 -0.594,0.58 -0.926,0.897 -0.855,0.788 -1.933,0.982 -2.748,1.796 -0.097,-0.11 0.123,-0.166 0.138,-0.262 0.912,-0.912 1.989,-1.105 2.817,-2.155 -3.234,0.571 -4.06,1.381 -4.088,1.326 0.525,-0.539 1.245,-0.829 1.893,-1.036 0.635,-0.152 1.215,-0.442 1.822,-0.663 -2.306,-0.373 -4.723,-1.063 -6.961,-1.589 -1.132,-0.317 -2.265,-0.055 -3.273,0.526 -0.249,0.275 -0.456,0.621 -0.471,1.036 -0.358,0.566 -1.118,0.87 -0.967,1.657 0.36,0.773 -0.138,1.45 -0.662,1.989 0.028,0.857 0.041,1.879 -0.525,2.583 -0.111,0.332 0.027,0.65 0.262,0.899 -0.194,-1.12 0.442,-2.474 1.492,-3.08 1.575,-1.065 3.495,-0.388 4.904,0.551 1.242,0.939 2.486,2.115 3.149,3.592 L 0,0 z"
         style="fill:#c00a21;fill-opacity:1;fill-rule:nonzero;stroke:none"
         id="path59167" />
    </g>
    <g
       id="g59169"
       transform="matrix(1.6719032,0,0,-1.6719032,26.271593,21.633812)">
      <path
         inkscape:connector-curvature="0"
         d="m 0,0 c -0.332,-0.483 -0.787,-0.843 -1.326,-1.022 -0.291,0.013 -0.139,0.303 -0.139,0.497 0.416,0.594 0.526,1.409 0.829,1.989 C -0.359,1.022 0.51,0.58 0,0"
         style="fill:#000000;fill-opacity:1;fill-rule:nonzero;stroke:none"
         id="path59171" />
    </g>
    <g
       id="g59173"
       transform="matrix(1.6719032,0,0,-1.6719032,36.570784,21.864026)">
      <path
         inkscape:connector-curvature="0"
         d="m 0,0 c -0.332,-0.069 -0.289,-0.554 -0.428,-0.829 -1.107,-2.092 -2.183,-1.728 -2.445,-1.686 l 0.332,0.07 c -0.111,0.124 0,0.331 -0.166,0.427 -0.621,-0.151 -1.367,0.07 -1.865,0.471 2.752,-0.961 3.951,1.008 4.047,1.519 -0.027,0.042 -0.082,0.042 -0.137,0.069 0.055,0.221 0.399,0.11 0.565,0.097 C -0.055,0.096 0.043,0.096 0,0"
         style="fill:#000000;fill-opacity:1;fill-rule:nonzero;stroke:none"
         id="path59175" />
    </g>
    <g
       id="g59177"
       transform="matrix(1.6719032,0,0,-1.6719032,32.531467,25.906702)">
      <path
         inkscape:connector-curvature="0"
         d="M 0,0 C -0.111,0.11 0.082,0.276 -0.07,0.373 0.373,0.456 0.967,0.718 1.366,1.063 1.104,0.607 0.606,0.055 0,0"
         style="fill:#ffffff;fill-opacity:1;fill-rule:nonzero;stroke:none"
         id="path59179" />
    </g>
    <g
       id="g59181"
       transform="matrix(1.6719032,0,0,-1.6719032,15.417196,26.391554)">
      <path
         inkscape:connector-curvature="0"
         d="m 0,0 c -0.028,-0.193 0.082,-0.456 -0.139,-0.566 -0.179,-0.166 -0.469,-0.387 -0.731,-0.207 -0.207,0.124 -0.304,0.427 -0.166,0.634 0.138,0.166 0.262,0.388 0.47,0.471 C -0.332,0.317 -0.084,0.234 0,0"
         style="fill:#835796;fill-opacity:1;fill-rule:nonzero;stroke:none"
         id="path59183" />
    </g>
    <g
       id="g59185"
       transform="matrix(1.6719032,0,0,-1.6719032,15.185537,26.50741)">
      <path
         inkscape:connector-curvature="0"
         d="m 0,0 c 0.11,-0.318 -0.152,-0.497 -0.359,-0.594 -0.207,-0.055 -0.372,0.055 -0.469,0.221 -0.069,0.304 0.221,0.498 0.428,0.608 C -0.207,0.276 -0.041,0.166 0,0"
         style="fill:#ffffff;fill-opacity:1;fill-rule:nonzero;stroke:none"
         id="path59187" />
    </g>
    <g
       id="g59189"
       transform="matrix(1.6719032,0,0,-1.6719032,16.063888,28.724688)">
      <path
         inkscape:connector-curvature="0"
         d="M 0,0 C 0.041,-0.165 -0.055,-0.358 -0.166,-0.47 -0.249,-0.635 -0.497,-0.552 -0.622,-0.539 -0.814,-0.428 -0.814,-0.165 -0.76,0.028 -0.594,0.264 -0.098,0.388 0,0"
         style="fill:#835796;fill-opacity:1;fill-rule:nonzero;stroke:none"
         id="path59191" />
    </g>
    <g
       id="g59193"
       transform="matrix(1.6719032,0,0,-1.6719032,15.856438,28.793236)">
      <path
         inkscape:connector-curvature="0"
         d="m 0,0 c 0.041,-0.166 -0.056,-0.332 -0.208,-0.387 -0.165,-0.054 -0.29,0.07 -0.359,0.194 -0.028,0.151 0.054,0.276 0.166,0.332 C -0.263,0.11 -0.042,0.207 0,0"
         style="fill:#ffffff;fill-opacity:1;fill-rule:nonzero;stroke:none"
         id="path59195" />
    </g>
    <g
       id="g59197"
       transform="matrix(1.6719032,0,0,-1.6719032,30.588581,31.611397)">
      <path
         inkscape:connector-curvature="0"
         d="m 0,0 c 0.373,-1.049 0.83,-2.085 1.258,-3.121 -1.74,-1.755 -0.994,-4.587 -0.76,-6.824 0,-0.415 -0.193,-0.774 -0.524,-1.022 -0.526,-0.207 -1.078,0.566 -1.562,-0.042 -0.262,-0.138 -0.4,-0.553 -0.801,-0.4 -0.359,0.331 -0.51,0.815 -0.829,1.202 l -0.262,-0.098 -1.022,-0.994 c -0.056,0.014 -0.098,0.042 -0.166,0.028 -0.166,0.69 0.139,1.367 0.125,1.96 -0.264,0.457 -0.498,-0.29 -0.857,-0.165 -0.303,0.512 -0.028,1.174 0.262,1.658 0.194,0.096 0.456,0.22 0.636,0.359 1.603,0.76 2.887,2.542 2.817,4.31 -0.041,1.132 -0.58,2.155 -1.559,2.721 0.925,0.235 1.877,0.346 2.816,0.525 C -0.289,0.083 -0.166,-0.124 0,0"
         style="fill:#9c7c5e;fill-opacity:1;fill-rule:nonzero;stroke:none"
         id="path59199" />
    </g>
    <g
       id="g59201"
       transform="matrix(1.6719032,0,0,-1.6719032,27.217088,37.591955)">
      <path
         inkscape:connector-curvature="0"
         d="m 0,0 c -0.082,-0.871 -0.414,-1.63 -0.994,-2.293 0.222,0.677 0.4,1.505 0.235,2.223 -0.152,0.194 -0.207,0.608 -0.373,0.899 -0.456,0.911 -1.409,1.243 -2.279,1.45 -1.272,-0.124 -2.68,-0.442 -3.358,-1.713 -0.731,-1.077 -0.482,-2.583 0.166,-3.619 -0.759,0.787 -1.035,2.072 -0.662,3.122 0.994,2.113 3.522,2.445 5.567,2.983 C -0.469,2.597 0,1.243 0,0"
         style="fill:#151515;fill-opacity:1;fill-rule:nonzero;stroke:none"
         id="path59203" />
    </g>
    <g
       id="g59205"
       transform="matrix(1.6719032,0,0,-1.6719032,24.769555,36.483323)">
      <path
         inkscape:connector-curvature="0"
         d="m 0,0 c 0.719,-1.05 0.359,-2.376 -0.069,-3.454 -0.303,-0.11 -0.221,-0.469 -0.552,-0.567 0.29,0.581 0.635,1.562 0.359,2.391 -0.427,0.621 -0.691,1.478 -1.52,1.658 C -2.389,0.124 -3.053,0.234 -3.577,0 c -0.775,-0.47 -1.148,-1.285 -1.16,-2.155 0.082,-0.815 0.566,-1.533 1.298,-1.99 0.416,-0.249 0.884,-0.344 1.354,-0.427 -0.595,-0.153 -1.478,-0.195 -2.017,0.166 -0.332,0.427 -0.83,0.842 -1.105,1.422 -0.415,1.049 -0.29,2.445 0.539,3.274 0.842,0.773 1.975,1.147 3.08,0.967 C -0.967,1.05 -0.331,0.622 0,0"
         style="fill:#f5d75c;fill-opacity:1;fill-rule:nonzero;stroke:none"
         id="path59207" />
    </g>
    <g
       id="g59209"
       transform="matrix(1.6719032,0,0,-1.6719032,22.438119,37.430289)">
      <path
         inkscape:connector-curvature="0"
         d="M 0,0 C 0.635,-0.677 1.022,-1.548 0.801,-2.486 0.58,-2.942 0.553,-3.509 0.041,-3.813 c -0.994,0.069 -2.265,0.291 -2.748,1.354 -0.498,0.58 -0.359,1.52 0,2.127 0.33,0.249 0.621,0.856 1.16,0.761 C -0.994,0.4 -0.4,0.429 0,0"
         style="fill:#000000;fill-opacity:1;fill-rule:nonzero;stroke:none"
         id="path59211" />
    </g>
    <g
       id="g59213"
       transform="matrix(1.6719032,0,0,-1.6719032,32.414032,43.089347)">
      <path
         inkscape:connector-curvature="0"
         d="M 0,0 C 0.291,0.677 0.512,1.396 0.607,2.155 0.897,1.16 0.332,-0.856 0.332,-0.856 0.677,0.166 1.119,1.368 0.802,2.459 L 1.299,1.63 C 1.229,0.76 1.201,0 0.939,-0.787 0.636,-1.865 0.097,-2.832 -0.594,-3.743 -0.125,-2.127 -1.049,-0.317 -0.69,1.534 -0.566,2.266 -0.346,2.998 0.207,3.523 0.787,2.362 0.125,1.119 0,0"
         style="fill:#b9a6b8;fill-opacity:1;fill-rule:nonzero;stroke:none"
         id="path59215" />
    </g>
    <g
       id="g59217"
       transform="matrix(1.6719032,0,0,-1.6719032,15.13966,42.30406)">
      <path
         inkscape:connector-curvature="0"
         d="M 0,0 C 0.926,-1.243 2.459,-1.781 3.937,-1.326 3.66,-1.864 3.371,-2.556 3.646,-3.148 3.813,-3.397 4.033,-3.246 4.24,-3.19 c 0.07,0.11 0.112,0.22 0.262,0.207 l 0.07,-0.07 C 4.406,-3.702 4.213,-4.364 4.434,-5.014 c 0.429,-0.318 0.718,0.373 1.036,0.567 0.18,0.179 0.262,0.303 0.498,0.427 0.261,-0.385 0.373,-0.953 0.829,-1.188 0.482,-0.166 0.828,0.456 1.257,0.637 L 8.979,-4.807 C 8.012,-5.649 6.589,-5.566 5.332,-5.512 4.973,-5.69 4.545,-5.926 4.103,-5.732 c -0.498,0.345 -0.29,1.477 -1.189,1.091 -0.248,-0.137 -0.358,0.207 -0.428,0.36 -0.166,0.718 0.111,1.615 -0.539,2.127 -0.787,0.98 -2.238,1.27 -2.513,2.61 -0.194,0.773 -0.18,1.823 0.29,2.556 C -0.58,2.059 -0.594,0.829 0,0"
         style="fill:#b08c4b;fill-opacity:1;fill-rule:nonzero;stroke:none"
         id="path59219" />
    </g>
    <g
       id="g59221"
       transform="matrix(1.6719032,0,0,-1.6719032,21.236355,39.208365)">
      <path
         inkscape:connector-curvature="0"
         d="m 0,0 c 0.028,-0.263 0.014,-0.622 -0.207,-0.787 -0.234,-0.208 -0.525,-0.401 -0.857,-0.277 -0.207,0.028 -0.385,0.194 -0.497,0.373 -0.084,0.332 -0.166,0.732 0.069,1.022 0.291,0.193 0.623,0.47 0.996,0.263 C -0.248,0.414 -0.138,0.263 0,0"
         style="fill:#194890;fill-opacity:1;fill-rule:nonzero;stroke:none"
         id="path59223" />
    </g>
    <g
       id="g59225"
       transform="matrix(1.6719032,0,0,-1.6719032,20.844461,39.417352)">
      <path
         inkscape:connector-curvature="0"
         d="m 0,0 c 0.11,-0.193 -0.069,-0.331 -0.098,-0.497 -0.219,-0.276 -0.525,-0.359 -0.8,-0.165 -0.248,0.248 -0.36,0.524 -0.235,0.855 0.139,0.153 0.332,0.332 0.539,0.402 C -0.291,0.525 -0.152,0.249 0,0"
         style="fill:#603081;fill-opacity:1;fill-rule:nonzero;stroke:none"
         id="path59227" />
    </g>
    <g
       id="g59229"
       transform="matrix(1.6719032,0,0,-1.6719032,18.788823,47.246206)">
      <path
         inkscape:connector-curvature="0"
         d="m 0,0 c 0.192,-0.663 -0.166,-1.478 0.497,-1.92 0.318,-0.055 0.511,0.11 0.76,0 0.152,-0.373 0.207,-0.814 0.594,-1.063 0.746,-0.484 1.188,0.663 1.934,0.166 1.077,-0.181 2.155,0.249 3.08,0.759 C 6.962,-2.141 6.769,-2.196 6.769,-2.278 5.746,-3.592 4.171,-3.867 2.749,-4.338 2.099,-4.628 1.63,-5.332 1.091,-5.76 c -0.289,0.236 -0.733,0 -0.856,0.428 0.082,0.414 -0.291,0.787 -0.429,1.188 -0.207,0.609 -0.138,1.285 -0.207,1.99 -0.897,0.344 -0.345,1.615 -0.594,2.252 C -1.133,0.595 -1.216,1.119 -1.562,1.533 -0.884,1.313 -0.263,0.649 0,0"
         style="fill:#764e33;fill-opacity:1;fill-rule:nonzero;stroke:none"
         id="path59231" />
    </g>
    <g
       id="g59233"
       transform="matrix(1.6719032,0,0,-1.6719032,32.531467,25.906702)">
      <path
         inkscape:connector-curvature="0"
         d="M 0,0 C -0.033,0.031 -0.039,0.067 -0.037,0.105 0.246,0.211 0.508,0.375 0.707,0.538 0.483,0.457 0.228,0.405 -0.025,0.382 0.411,0.474 0.979,0.729 1.366,1.063 1.104,0.607 0.606,0.055 0,0"
         style="fill:#dce8eb;fill-opacity:1;fill-rule:nonzero;stroke:none"
         id="path59235" />
    </g>
    <g
       id="g59237"
       transform="matrix(1.6719032,0,0,-1.6719032,28.034983,21.522798)">
      <path
         inkscape:connector-curvature="0"
         d="m 0,0 c 0,0.61 0.421,1.105 0.939,1.105 0.52,0 0.94,-0.495 0.94,-1.105 0,-0.61 -0.42,-1.104 -0.94,-1.104 C 0.421,-1.104 0,-0.61 0,0"
         style="fill:#ffffff;fill-opacity:1;fill-rule:nonzero;stroke:none"
         id="path59239" />
    </g>
    <g
       id="g59241"
       transform="matrix(1.6719032,0,0,-1.6719032,31.702069,21.049315)">
      <path
         inkscape:connector-curvature="0"
         d="M 0,0 C -0.137,0.595 0.162,1.172 0.668,1.288 1.174,1.404 1.694,1.018 1.832,0.423 1.969,-0.172 1.67,-0.749 1.164,-0.864 0.659,-0.981 0.139,-0.595 0,0"
         style="fill:#ffffff;fill-opacity:1;fill-rule:nonzero;stroke:none"
         id="path59243" />
    </g>
    <g
       id="g59245"
       transform="matrix(1.6719032,0,0,-1.6719032,29.605636,23.369409)">
      <path
         inkscape:connector-curvature="0"
         d="m 0,0 c -0.221,0 -0.424,0.089 -0.584,0.239 0.482,0.047 0.862,0.522 0.862,1.102 0,0.35 -0.139,0.662 -0.354,0.865 L 0,2.21 C 0.23,2.21 0.44,2.113 0.604,1.952 0.939,1.643 0.795,1.334 0.938,1.184 L 0.939,1.104 C 0.939,0.494 0.52,0 0,0"
         style="fill:#dce8eb;fill-opacity:1;fill-rule:nonzero;stroke:none"
         id="path59247" />
    </g>
    <g
       id="g59249"
       transform="matrix(1.6719032,0,0,-1.6719032,33.093093,18.717852)">
      <path
         inkscape:connector-curvature="0"
         d="m 0,0 c 0.463,0.034 0.914,-0.338 1.041,-0.884 0.137,-0.595 -0.162,-1.171 -0.668,-1.288 -0.279,-0.065 -0.562,0.024 -0.785,0.218 0.041,0.003 0.082,0.009 0.123,0.017 0.506,0.117 0.805,0.694 0.668,1.289 C 0.316,-0.382 0.178,-0.157 0,0"
         style="fill:#dce8eb;fill-opacity:1;fill-rule:nonzero;stroke:none"
         id="path59251" />
    </g>
    <g
       id="g59253"
       transform="matrix(1.6719032,0,0,-1.6719032,28.964026,21.730114)">
      <path
         inkscape:connector-curvature="0"
         d="M 0,0 C 0,0.288 0.233,0.52 0.521,0.52 0.808,0.52 1.04,0.288 1.04,0 1.04,-0.287 0.808,-0.521 0.521,-0.521 0.233,-0.521 0,-0.287 0,0"
         style="fill:#000000;fill-opacity:1;fill-rule:nonzero;stroke:none"
         id="path59255" />
    </g>
    <g
       id="g59257"
       transform="matrix(1.6719032,0,0,-1.6719032,32.658798,20.979094)">
      <path
         inkscape:connector-curvature="0"
         d="M 0,0 C 0,0.274 0.223,0.496 0.496,0.496 0.77,0.496 0.993,0.274 0.993,0 0.993,-0.273 0.77,-0.496 0.496,-0.496 0.223,-0.496 0,-0.273 0,0"
         style="fill:#000000;fill-opacity:1;fill-rule:nonzero;stroke:none"
         id="path59259" />
    </g>
    <g
       id="g59261"
       transform="matrix(1.6719032,0,0,-1.6719032,28.964026,21.413455)">
      <path
         inkscape:connector-curvature="0"
         d="M 0,0 C 0,0.13 0.106,0.236 0.236,0.236 0.367,0.236 0.474,0.13 0.474,0 0.474,-0.131 0.367,-0.236 0.236,-0.236 0.106,-0.236 0,-0.131 0,0"
         style="fill:#ffffff;fill-opacity:1;fill-rule:nonzero;stroke:none"
         id="path59263" />
    </g>
    <g
       id="g59265"
       transform="matrix(1.6719032,0,0,-1.6719032,32.658798,20.70323)">
      <path
         inkscape:connector-curvature="0"
         d="M 0,0 C 0,0.132 0.105,0.236 0.236,0.236 0.367,0.236 0.473,0.132 0.473,0 0.473,-0.13 0.367,-0.235 0.236,-0.235 0.105,-0.235 0,-0.13 0,0"
         style="fill:#ffffff;fill-opacity:1;fill-rule:nonzero;stroke:none"
         id="path59267" />
    </g>
    <g
       id="g59269"
       transform="matrix(1.6719032,0,0,-1.6719032,30.866117,41.118681)">
      <path
         inkscape:connector-curvature="0"
         d="m 0,0 c -0.127,-1.396 0.193,-2.932 0.332,-4.259 0,-0.415 -0.193,-0.773 -0.524,-1.021 -0.526,-0.207 -1.079,0.565 -1.562,-0.042 -0.262,-0.139 -0.4,-0.553 -0.801,-0.401 -0.359,0.331 -0.51,0.816 -0.829,1.202 l -0.262,-0.097 -1.022,-0.994 c -0.056,0.013 -0.098,0.042 -0.166,0.027 -0.166,0.69 0.139,1.367 0.125,1.961 -0.264,0.456 -0.498,-0.29 -0.857,-0.165 -0.303,0.512 -0.028,1.174 0.262,1.657 0.194,0.097 0.456,0.221 0.636,0.36 1.603,0.759 2.887,2.542 2.817,4.309 -0.006,0.204 -0.03,0.406 -0.071,0.602 C -1.853,3.022 -1.8,2.899 -1.8,2.732 l 0,-1.004 c 0,-0.485 -0.366,-0.722 -0.366,-1.206 l 0,-0.295 c 0.225,0.201 0.354,0.389 0.508,0.662 l 0.189,-0.048 0,-0.851 c 0.072,0 0.118,-0.035 0.19,-0.035 0.318,0 0.33,0.366 0.531,0.603 0.143,-0.331 0.225,-0.556 0.354,-0.887 C -0.242,-0.224 -0.125,-0.099 0,0"
         style="fill:#c00a21;fill-opacity:1;fill-rule:nonzero;stroke:none"
         id="path59271" />
    </g>
    <g
       id="g59273"
       transform="matrix(1.6719032,0,0,-1.6719032,31.176289,23.646957)">
      <path
         inkscape:connector-curvature="0"
         d="M 0,0 C 0,0.169 0.158,0.309 0.355,0.309 0.551,0.309 0.71,0.169 0.71,0 0.71,-0.17 0.551,-0.307 0.355,-0.307 0.158,-0.307 0,-0.17 0,0"
         style="fill:#c0a792;fill-opacity:1;fill-rule:nonzero;stroke:none"
         id="path59275" />
    </g>
    <g
       id="g59277"
       transform="matrix(1.6719032,0,0,-1.6719032,24.769555,18.701467)">
      <path
         inkscape:connector-curvature="0"
         d="m 0,0 c -0.107,-0.623 -0.366,-1.182 -0.615,-1.743 -0.535,0.215 -1.028,0.359 -1.472,0.451 0.548,0.596 1.024,1.258 1.355,1.997 L 0,0 z"
         style="fill:#fbea98;fill-opacity:1;fill-rule:nonzero;stroke:none"
         id="path59279" />
    </g>
    <g
       id="g59281"
       transform="matrix(1.6719032,0,0,-1.6719032,25.969581,22.699978)">
      <path
         inkscape:connector-curvature="0"
         d="M 0,0 C 0.235,0.207 0.435,0.457 0.581,0.733 0.856,0.624 0.899,0.126 1.147,-0.095 1.019,-0.219 0.923,-0.368 0.856,-0.535 0.563,-0.336 0.278,-0.158 0,0"
         style="fill:#fbea98;fill-opacity:1;fill-rule:nonzero;stroke:none"
         id="path59283" />
    </g>
    <g
       id="g59285"
       transform="matrix(1.6719032,0,0,-1.6719032,14.243386,23.271448)">
      <path
         inkscape:connector-curvature="0"
         d="m 0,0 c 0.139,-0.337 0.551,-0.4 0.567,-0.76 -0.375,-0.111 -0.763,-0.178 -1.158,-0.193 -0.959,0.317 -1.435,1.461 -1.596,2.596 -0.072,0.507 -0.367,0.755 -0.367,1.264 0,0.272 -0.058,0.496 0.095,0.709 0.224,0.295 0.745,0.273 0.745,0.651 l 0,1.194 0.002,0.059 C -1.265,5.52 -1.123,5 -1.123,4.563 -1.123,3.912 -1.407,3.58 -1.407,2.931 -1.407,1.666 -0.509,1.157 0,0"
         style="fill:#ab3484;fill-opacity:1;fill-rule:nonzero;stroke:none"
         id="path59287" />
    </g>
    <g
       id="g59289"
       transform="matrix(1.6719032,0,0,-1.6719032,14.421277,14.023643)">
      <path
         inkscape:connector-curvature="0"
         d="m 0,0 c -0.414,0 -0.781,0.06 -1.064,-0.225 -0.295,-0.295 -0.119,-0.662 -0.19,-1.075 -0.059,-0.367 -0.283,-0.568 -0.283,-0.946 0,-1.312 0.592,-2.777 1.902,-2.777 1.041,0 1.608,1.087 1.608,2.127 l 0,1.016 c 0,0.379 -0.377,0.485 -0.615,0.77 C 0.969,-0.649 0.531,-0.296 0,0"
         style="fill:#000000;fill-opacity:1;fill-rule:evenodd;stroke:none"
         id="path59291" />
    </g>
    <g
       id="g59293"
       transform="matrix(1.6719032,0,0,-1.6719032,13.570612,20.21002)">
      <path
         inkscape:connector-curvature="0"
         d="m 0,0 0.958,0 c 0.887,0 1.536,1.904 1.536,1.904 0.013,-0.71 0,-1.124 0,-1.833 0,-0.897 -0.674,-1.714 -1.571,-1.714 -0.746,0 -1.111,0.533 -1.502,1.17 -0.19,0.321 -0.556,0.439 -0.556,0.817 l 0,1.206 0,0.223 c 0,-0.507 0.284,-0.78 0.603,-1.158 C -0.331,0.38 -0.319,0 0,0"
         style="fill:#90121c;fill-opacity:1;fill-rule:evenodd;stroke:none"
         id="path59295" />
    </g>
    <g
       id="g59297"
       transform="matrix(1.6719032,0,0,-1.6719032,8.7689054,18.696612)">
      <path
         inkscape:connector-curvature="0"
         d="M 0,0 C 0,1.028 0.325,1.861 0.727,1.861 1.129,1.861 1.453,1.028 1.453,0 1.453,-1.027 1.129,-1.861 0.727,-1.861 0.325,-1.861 0,-1.027 0,0"
         style="fill:#835796;fill-opacity:1;fill-rule:nonzero;stroke:none"
         id="path59299" />
    </g>
    <g
       id="g59301"
       transform="matrix(1.6719032,0,0,-1.6719032,9.4023562,20.939972)">
      <path
         inkscape:connector-curvature="0"
         d="m 0,0 c 0,0.418 0.303,0.757 0.678,0.757 0.377,0 0.68,-0.339 0.68,-0.757 0,-0.418 -0.303,-0.756 -0.68,-0.756 C 0.303,-0.756 0,-0.418 0,0"
         style="fill:#b18db8;fill-opacity:1;fill-rule:nonzero;stroke:none"
         id="path59303" />
    </g>
    <g
       id="g59305"
       transform="matrix(1.6719032,0,0,-1.6719032,10.192565,16.41397)">
      <path
         inkscape:connector-curvature="0"
         d="M 0,0 C 0,0.222 0.18,0.402 0.402,0.402 0.623,0.402 0.804,0.222 0.804,0 0.804,-0.222 0.623,-0.402 0.402,-0.402 0.18,-0.402 0,-0.222 0,0"
         style="fill:#ffffff;fill-opacity:1;fill-rule:nonzero;stroke:none"
         id="path59307" />
    </g>
    <g
       id="g59309"
       transform="matrix(1.6719032,0,0,-1.6719032,10.11432,18.696612)">
      <path
         inkscape:connector-curvature="0"
         d="M 0,0 C 0,0.192 0.156,0.349 0.348,0.349 0.541,0.349 0.696,0.192 0.696,0 0.696,-0.192 0.541,-0.349 0.348,-0.349 0.156,-0.349 0,-0.192 0,0"
         style="fill:#ffffff;fill-opacity:1;fill-rule:nonzero;stroke:none"
         id="path59311" />
    </g>
    <g
       id="g59313"
       transform="matrix(1.6719032,0,0,-1.6719032,10.724899,21.612573)">
      <path
         inkscape:connector-curvature="0"
         d="M 0,0 C 0,0.17 0.137,0.309 0.307,0.309 0.478,0.309 0.614,0.17 0.614,0 0.614,-0.17 0.478,-0.307 0.307,-0.307 0.137,-0.307 0,-0.17 0,0"
         style="fill:#ffffff;fill-opacity:1;fill-rule:nonzero;stroke:none"
         id="path59315" />
    </g>
    <g
       id="g59317"
       transform="matrix(1.6719032,0,0,-1.6719032,10.473444,13.597642)">
      <path
         inkscape:connector-curvature="0"
         d="m 0,0 c -0.137,-0.086 -0.288,-0.178 -0.441,-0.276 -0.213,-0.084 -0.421,-0.18 -0.627,-0.278 -0.567,-0.235 -1.106,-0.539 -1.604,-0.897 0.125,-0.305 0.567,-0.346 0.636,-0.692 -0.759,-0.525 -1.767,-0.483 -2.349,-1.326 0.347,-0.358 0.775,-0.677 1.189,-0.967 0.069,-0.331 -0.222,-0.58 -0.429,-0.829 -0.303,-0.525 0.457,-0.455 0.664,-0.732 0.152,-0.441 -0.248,-0.842 -0.373,-1.257 -0.594,-1.091 0.897,-0.704 1.105,-1.326 -0.125,-0.469 -0.359,-1.215 0.055,-1.588 0.664,0.041 0.787,-0.719 1.133,-1.063 0.851,-0.468 1.717,-1.067 2.757,-1.148 -1.404,-0.254 -2.485,0.527 -3.538,1.108 -0.346,0.344 -0.471,1.104 -1.133,1.063 -0.414,0.373 -0.18,1.119 -0.055,1.588 -0.207,0.622 -1.699,0.235 -1.105,1.327 0.124,0.414 0.523,0.815 0.373,1.257 -0.208,0.276 -0.967,0.207 -0.664,0.732 0.208,0.248 0.498,0.497 0.428,0.828 -0.415,0.29 -0.842,0.609 -1.188,0.967 0.58,0.843 1.59,0.802 2.349,1.326 -0.07,0.346 -0.511,0.387 -0.635,0.692 0.497,0.358 1.036,0.662 1.602,0.897 C -1.271,-0.317 -0.676,-0.068 0,0"
         style="fill:#9c7c5e;fill-opacity:1;fill-rule:nonzero;stroke:none"
         id="path59319" />
    </g>
    <g
       id="g59321"
       transform="matrix(1.6719032,0,0,-1.6719032,27.217088,24.727837)">
      <path
         inkscape:connector-curvature="0"
         d="m 0,0 c 0.042,-0.732 0.899,-1.092 1.493,-1.271 0.013,-0.884 0.331,-1.685 0.455,-2.487 -0.304,0.248 -0.594,0.58 -0.926,0.898 -0.855,0.788 -1.933,0.981 -2.748,1.796 -0.097,-0.111 0.123,-0.166 0.138,-0.262 0.912,-0.912 1.989,-1.106 2.817,-2.155 -3.234,0.571 -4.06,1.38 -4.087,1.326 0.524,-0.539 1.244,-0.829 1.892,-1.036 0.635,-0.153 1.215,-0.443 1.822,-0.663 -2.306,-0.374 -4.723,-1.064 -6.96,-1.589 -0.852,-0.239 -1.704,-0.15 -2.5,0.156 7.496,0.168 2.652,4.266 2.652,4.266 0,0 0.603,-0.093 1.69,-0.471 1.087,-0.378 3.333,-0.757 3.333,-0.757 0,0 -0.461,0.236 -0.981,0.851 -0.521,0.615 -2.635,2.353 -2.635,2.353 0,0 0.047,-0.049 1.04,-0.662 0.992,-0.615 3.901,-2.022 3.901,-2.022 0,0 -0.409,2.157 -0.396,1.729"
         style="fill:#90121c;fill-opacity:1;fill-rule:nonzero;stroke:none"
         id="path59323" />
    </g>
    <g
       id="g59325"
       transform="matrix(1.6719032,0,0,-1.6719032,24.769555,36.483323)">
      <path
         inkscape:connector-curvature="0"
         d="m 0,0 c 0.719,-1.05 0.359,-2.376 -0.069,-3.454 -0.076,-0.027 -0.127,-0.07 -0.167,-0.121 0.369,1.015 0.605,2.196 -0.047,3.149 -0.332,0.622 -0.967,1.05 -1.589,1.257 -1.105,0.18 -2.237,-0.193 -3.08,-0.966 -0.051,-0.052 -0.099,-0.104 -0.144,-0.159 0.114,0.214 0.254,0.411 0.428,0.584 0.842,0.773 1.975,1.147 3.08,0.967 C -0.967,1.05 -0.331,0.622 0,0"
         style="fill:#fbea98;fill-opacity:1;fill-rule:nonzero;stroke:none"
         id="path59327" />
    </g>
    <g
       id="g59329"
       transform="matrix(1.6719032,0,0,-1.6719032,29.399925,51.133702)">
      <path
         inkscape:connector-curvature="0"
         d="M 0,0 C 0.176,0.084 0.351,0.175 0.519,0.268 0.615,0.185 0.422,0.129 0.422,0.047 c -1.023,-1.314 -2.598,-1.589 -4.02,-2.06 -0.65,-0.29 -1.119,-0.994 -1.658,-1.422 -0.289,0.236 -0.732,0 -0.855,0.428 0.082,0.414 -0.291,0.787 -0.43,1.189 -0.207,0.608 -0.138,1.284 -0.207,1.989 -0.897,0.345 -0.345,1.615 -0.594,2.252 -0.137,0.497 -0.221,1.021 -0.566,1.435 0.242,-0.078 0.475,-0.212 0.688,-0.382 0.039,-0.148 0.075,-0.294 0.116,-0.44 0.248,-0.635 -0.304,-1.905 0.593,-2.252 0.07,-0.704 0,-1.381 0.207,-1.988 0.138,-0.4 0.511,-0.774 0.429,-1.188 0.123,-0.428 0.565,-0.193 0.855,-0.428 0.54,0.428 1.009,1.132 1.659,1.423 C -2.218,-1.02 -0.976,-0.768 0,0"
         style="fill:#9c7c5e;fill-opacity:1;fill-rule:nonzero;stroke:none"
         id="path59331" />
    </g>
    <g
       id="g59333"
       transform="matrix(1.6719032,0,0,-1.6719032,19.618221,35.363308)">
      <path
         inkscape:connector-curvature="0"
         d="M 0,0 C 0,0.273 0.399,0.496 0.892,0.496 1.384,0.496 1.784,0.273 1.784,0 1.784,-0.275 1.384,-0.497 0.892,-0.497 0.399,-0.497 0,-0.275 0,0"
         style="fill:#ffffff;fill-opacity:1;fill-rule:nonzero;stroke:none"
         id="path59335" />
    </g>
    <g
       id="g59337"
       transform="matrix(1.6719032,0,0,-1.6719032,30.588581,31.611397)">
      <path
         inkscape:connector-curvature="0"
         d="m 0,0 c 0.373,-1.049 0.83,-2.085 1.258,-3.121 -0.467,-0.471 -0.756,-1.02 -0.922,-1.613 -0.047,0.13 -0.088,0.263 -0.125,0.398 -0.701,2.533 -1.86,3.618 -2.676,4.08 0.676,0.13 1.361,0.224 2.037,0.353 C -0.289,0.083 -0.166,-0.124 0,0"
         style="fill:#764e33;fill-opacity:1;fill-rule:nonzero;stroke:none"
         id="path59339" />
    </g>
    <g
       id="g59341"
       transform="matrix(1.6719032,0,0,-1.6719032,32.688224,42.405204)">
      <path
         inkscape:connector-curvature="0"
         d="M 0,0 C 0.209,0.555 0.367,1.138 0.443,1.746 0.615,1.158 0.488,0.211 0.354,-0.463 0.23,-0.313 0.113,-0.157 0,0 M 0.412,-0.533 C 0.677,0.305 0.881,1.21 0.638,2.05 L 1.135,1.221 C 1.07,0.419 1.043,-0.289 0.834,-1.011 0.688,-0.856 0.547,-0.696 0.412,-0.533 M -0.799,1.413 C -0.666,2.046 -0.437,2.658 0.043,3.114 0.535,2.13 0.134,1.086 -0.076,0.108 -0.363,0.524 -0.609,0.96 -0.799,1.413"
         style="fill:#835796;fill-opacity:1;fill-rule:nonzero;stroke:none"
         id="path59343" />
    </g>
    <g
       id="g59345"
       transform="matrix(1.6719032,0,0,-1.6719032,30.588581,31.611397)">
      <path
         inkscape:connector-curvature="0"
         d="m 0,0 c 0.1,-0.277 0.203,-0.553 0.313,-0.83 -0.619,-0.355 -1.326,-0.904 -2.061,-1.758 -0.172,0.902 -0.682,1.689 -1.496,2.16 0.925,0.235 1.877,0.346 2.816,0.525 C -0.289,0.083 -0.166,-0.124 0,0"
         style="fill:#f5d75c;fill-opacity:1;fill-rule:nonzero;stroke:none"
         id="path59347" />
    </g>
    <g
       id="g59349"
       transform="matrix(1.6719032,0,0,-1.6719032,30.588581,31.611397)">
      <path
         inkscape:connector-curvature="0"
         d="m 0,0 c 0.1,-0.277 0.203,-0.553 0.313,-0.83 -0.385,-0.22 -0.803,-0.516 -1.24,-0.912 -0.528,0.781 -1.086,1.23 -1.538,1.486 0.676,0.13 1.361,0.224 2.037,0.353 C -0.289,0.083 -0.166,-0.124 0,0"
         style="fill:#ccae42;fill-opacity:1;fill-rule:nonzero;stroke:none"
         id="path59351" />
    </g>
  </g>
</svg>
