<?xml version="1.0" encoding="UTF-8" standalone="no"?>
<!-- Created with Inkscape (http://www.inkscape.org/) -->

<svg
   xmlns:dc="http://purl.org/dc/elements/1.1/"
   xmlns:cc="http://creativecommons.org/ns#"
   xmlns:rdf="http://www.w3.org/1999/02/22-rdf-syntax-ns#"
   xmlns:svg="http://www.w3.org/2000/svg"
   xmlns="http://www.w3.org/2000/svg"
   xmlns:sodipodi="http://sodipodi.sourceforge.net/DTD/sodipodi-0.dtd"
   xmlns:inkscape="http://www.inkscape.org/namespaces/inkscape"
   width="64px"
   height="64px"
   id="svg145598"
   version="1.1"
   inkscape:version="0.48.5 r10040"
   sodipodi:docname="Nowy dokument 31">
  <defs
     id="defs145600">
    <clipPath
       id="clipPath70587"
       clipPathUnits="userSpaceOnUse">
      <path
         inkscape:connector-curvature="0"
         id="path70589"
         d="M 0,800 1600,800 1600,0 0,0 0,800 z" />
    </clipPath>
    <clipPath
       id="clipPath70599"
       clipPathUnits="userSpaceOnUse">
      <path
         inkscape:connector-curvature="0"
         id="path70601"
         d="m 1247.66,53.167 31.64,0 0,-28.7666 -31.64,0 0,28.7666 z" />
    </clipPath>
    <clipPath
       id="clipPath70623"
       clipPathUnits="userSpaceOnUse">
      <path
         inkscape:connector-curvature="0"
         id="path70625"
         d="m 1252.09,58.2578 29.73,0 0,-33.5742 -29.73,0 0,33.5742 z" />
    </clipPath>
    <clipPath
       id="clipPath70639"
       clipPathUnits="userSpaceOnUse">
      <path
         inkscape:connector-curvature="0"
         id="path70641"
         d="m 1211.97,69.9268 32.92,0 0,-15.8555 -32.92,0 0,15.8555 z" />
    </clipPath>
    <clipPath
       id="clipPath70655"
       clipPathUnits="userSpaceOnUse">
      <path
         inkscape:connector-curvature="0"
         id="path70657"
         d="m 1213.7,69.6309 37.45,0 0,-11.0743 -37.45,0 0,11.0743 z" />
    </clipPath>
    <clipPath
       id="clipPath70671"
       clipPathUnits="userSpaceOnUse">
      <path
         inkscape:connector-curvature="0"
         id="path70673"
         d="m 1213.7,69.6289 31.18,0 0,-15.1816 -31.18,0 0,15.1816 z" />
    </clipPath>
    <clipPath
       id="clipPath70687"
       clipPathUnits="userSpaceOnUse">
      <path
         inkscape:connector-curvature="0"
         id="path70689"
         d="m 1213.7,69.6172 0,0 0,0 0,0 z" />
    </clipPath>
    <clipPath
       id="clipPath70703"
       clipPathUnits="userSpaceOnUse">
      <path
         inkscape:connector-curvature="0"
         id="path70705"
         d="m 1216.75,54.5928 28.84,0 0,-19.4522 -28.84,0 0,19.4522 z" />
    </clipPath>
    <clipPath
       id="clipPath70743"
       clipPathUnits="userSpaceOnUse">
      <path
         inkscape:connector-curvature="0"
         id="path70745"
         d="m 1248.5,54.8633 5.28,0 0,-2.9268 -5.28,0 0,2.9268 z" />
    </clipPath>
    <clipPath
       id="clipPath70767"
       clipPathUnits="userSpaceOnUse">
      <path
         inkscape:connector-curvature="0"
         id="path70769"
         d="m 1261.13,72.0303 27.72,0 0,-12.8321 -27.72,0 0,12.8321 z" />
    </clipPath>
    <clipPath
       id="clipPath70783"
       clipPathUnits="userSpaceOnUse">
      <path
         inkscape:connector-curvature="0"
         id="path70785"
         d="m 1255.28,76.6719 33.34,0 0,-15.2188 -33.34,0 0,15.2188 z" />
    </clipPath>
  </defs>
  <sodipodi:namedview
     id="base"
     pagecolor="#ffffff"
     bordercolor="#666666"
     borderopacity="1.0"
     inkscape:pageopacity="0.0"
     inkscape:pageshadow="2"
     inkscape:zoom="5.5"
     inkscape:cx="32"
     inkscape:cy="32"
     inkscape:current-layer="layer1"
     showgrid="true"
     inkscape:document-units="px"
     inkscape:grid-bbox="true"
     inkscape:window-width="1366"
     inkscape:window-height="706"
     inkscape:window-x="-8"
     inkscape:window-y="-8"
     inkscape:window-maximized="1" />
  <metadata
     id="metadata145603">
    <rdf:RDF>
      <cc:Work
         rdf:about="">
        <dc:format>image/svg+xml</dc:format>
        <dc:type
           rdf:resource="http://purl.org/dc/dcmitype/StillImage" />
        <dc:title></dc:title>
      </cc:Work>
    </rdf:RDF>
  </metadata>
  <g
     id="layer1"
     inkscape:label="Layer 1"
     inkscape:groupmode="layer">
    <g
       id="g70583"
       transform="matrix(0.7667248,0,0,-0.7667248,-926.76933,73.382858)">
      <g
         id="g70585"
         clip-path="url(#clipPath70587)">
        <g
           id="g70591"
           transform="translate(1277.2617,28.9766)">
          <path
             inkscape:connector-curvature="0"
             d="m 0,0 c -0.684,-1.463 -4.096,-3.576 -8.225,-1.203 -4.128,2.373 -2.632,5.688 -2.632,5.688 0,0 2.178,4.681 7.086,2.211 C 1.137,4.226 0.683,1.462 0,0 m 2.828,5.201 c -2.211,2.502 -5.299,5.266 -5.299,5.266 0,0 -0.551,0.812 -2.469,0.586 -1.919,-0.229 -6.893,0.617 -9.526,4.939 -2.632,4.324 -3.12,7.618 -3.512,10.393 0,0 -0.194,0.53 -1.364,0.953 -1.17,0.422 -40.524,16.318 -47.047,14.043 0,0 28.259,-14.563 44.556,-21.065 0,0 3.855,-6.827 7.367,-9.231 0,0 2.535,-1.659 1.431,-4.714 -1.106,-3.056 -0.651,-4.909 1.268,-7.476 1.918,-2.569 9.133,-5.688 13.49,-2.439 4.356,3.251 3.314,6.242 1.105,8.745"
             style="fill:#c8c7c7;fill-opacity:1;fill-rule:nonzero;stroke:none"
             id="path70593" />
        </g>
        <g
           id="g70595">
          <g
             id="g70597" />
          <g
             id="g70603">
            <g
               style="opacity:0.5"
               clip-path="url(#clipPath70599)"
               id="g70605">
              <g
                 transform="translate(1247.6729,53.167)"
                 id="g70607">
                <path
                   inkscape:connector-curvature="0"
                   d="m 0,0 c 2.718,-1.072 5.404,-2.22 8.105,-3.333 l 0.034,-0.014 0.02,-0.033 c 0.423,-0.714 0.86,-1.424 1.302,-2.129 0.459,-0.693 0.898,-1.402 1.394,-2.071 0.477,-0.683 0.975,-1.349 1.508,-1.989 0.499,-0.668 1.103,-1.244 1.664,-1.859 0.609,-0.571 1.276,-1.048 1.918,-1.604 0.605,-0.586 1.054,-1.35 1.202,-2.19 0.177,-0.84 -0.038,-1.707 -0.294,-2.488 -0.117,-0.4 -0.261,-0.797 -0.315,-1.202 l -0.109,-0.605 -0.029,-0.614 c -0.036,-0.409 0.053,-0.815 0.098,-1.218 0.111,-0.392 0.189,-0.797 0.376,-1.165 0.303,-0.762 0.779,-1.45 1.255,-2.124 0.484,-0.673 1.117,-1.19 1.796,-1.66 0.679,-0.469 1.424,-0.837 2.176,-1.176 0.765,-0.31 1.542,-0.605 2.35,-0.784 0.802,-0.212 1.628,-0.298 2.453,-0.342 0.825,0.007 1.661,0.05 2.455,0.29 0.814,0.178 1.552,0.581 2.252,1.027 l 0.016,-0.021 c -0.685,-0.473 -1.418,-0.908 -2.235,-1.119 -0.803,-0.26 -1.652,-0.32 -2.49,-0.344 -0.839,0.03 -1.681,0.1 -2.5,0.299 -0.824,0.168 -1.622,0.444 -2.403,0.756 -0.766,0.347 -1.521,0.725 -2.217,1.205 -0.688,0.477 -1.361,1.035 -1.852,1.724 -0.48,0.686 -0.963,1.386 -1.277,2.177 -0.348,0.771 -0.512,1.633 -0.477,2.48 l 0.042,0.635 0.124,0.625 c 0.067,0.422 0.217,0.809 0.341,1.209 0.272,0.785 0.492,1.594 0.333,2.413 -0.133,0.809 -0.558,1.559 -1.141,2.14 l -1.911,1.611 c -0.573,0.607 -1.191,1.178 -1.702,1.84 -0.547,0.632 -1.059,1.294 -1.547,1.972 -0.508,0.664 -0.96,1.368 -1.432,2.057 -0.456,0.701 -0.907,1.404 -1.315,2.137 l 0.053,-0.047 c -2.677,1.168 -5.37,2.302 -8.031,3.511 L 0,0 z"
                   style="fill:#a7a5a6;fill-opacity:1;fill-rule:nonzero;stroke:none"
                   id="path70609" />
              </g>
            </g>
          </g>
        </g>
        <g
           id="g70611"
           transform="translate(1276.7412,29.6143)">
          <path
             inkscape:connector-curvature="0"
             d="m 0,0 c -0.371,-0.795 -1.907,-1.972 -4.024,-1.972 -1.148,0 -2.316,0.336 -3.469,1 -3.649,2.097 -2.469,4.908 -2.421,5.018 0.003,0.007 0.094,0.195 0.272,0.468 l -0.962,0.428 c -0.157,-0.255 -0.242,-0.432 -0.255,-0.463 -0.017,-0.037 -1.637,-3.775 2.847,-6.353 1.314,-0.755 2.656,-1.138 3.988,-1.138 2.447,0 4.385,1.325 4.967,2.572 0.03,0.064 0.06,0.132 0.088,0.202 L 0.075,0.187 C 0.05,0.124 0.029,0.062 0,0"
             style="fill:#d3d2d2;fill-opacity:1;fill-rule:nonzero;stroke:none"
             id="path70613" />
        </g>
        <g
           id="g70615"
           transform="translate(1273.6748,36.5547)">
          <path
             inkscape:connector-curvature="0"
             d="m 0,0 c -1.021,0.514 -2.016,0.775 -2.955,0.775 -2.566,0 -4.027,-1.877 -4.583,-2.773 l 0.963,-0.429 c 0.495,0.755 1.679,2.162 3.62,2.162 0.774,0 1.612,-0.223 2.488,-0.663 3.265,-1.644 4.504,-3.655 3.609,-5.826 L 4.098,-7.179 C 4.796,-5.511 5.043,-2.538 0,0"
             style="fill:#a7a5a6;fill-opacity:1;fill-rule:nonzero;stroke:none"
             id="path70617" />
        </g>
        <g
           id="g70619">
          <g
             id="g70621" />
          <g
             id="g70627">
            <g
               style="opacity:0.5"
               clip-path="url(#clipPath70623)"
               id="g70629">
              <g
                 transform="translate(1252.0986,58.2578)"
                 id="g70631">
                <path
                   inkscape:connector-curvature="0"
                   d="m 0,0 3.531,-1.312 1.76,-0.671 C 5.58,-2.096 5.885,-2.204 6.172,-2.33 6.459,-2.445 6.759,-2.619 6.985,-2.875 L 6.999,-2.891 7.004,-2.918 C 7.158,-3.951 7.321,-4.98 7.557,-5.994 7.663,-6.503 7.808,-7.003 7.932,-7.508 8.095,-8.002 8.239,-8.502 8.417,-8.99 8.612,-9.472 8.786,-9.963 9,-10.438 l 0.673,-1.41 0.759,-1.367 c 0.259,-0.439 0.597,-0.851 0.892,-1.279 0.142,-0.223 0.313,-0.417 0.506,-0.592 l 0.551,-0.549 c 0.348,-0.39 0.815,-0.642 1.226,-0.958 0.406,-0.331 0.9,-0.518 1.35,-0.776 0.452,-0.26 0.962,-0.392 1.44,-0.594 0.494,-0.156 0.999,-0.285 1.505,-0.394 0.513,-0.079 1.024,-0.174 1.542,-0.176 0.502,-0.052 1.037,0.039 1.555,0.06 0.295,10e-4 0.528,-0.031 0.799,-0.06 l 0.405,-0.123 c 0.112,-0.057 0.288,-0.144 0.336,-0.209 l 0.044,-0.039 0.036,-0.053 -0.017,0.02 1.964,-1.833 1.882,-1.927 c 0.614,-0.657 1.287,-1.253 1.85,-1.961 0.282,-0.352 0.545,-0.731 0.773,-1.123 0.221,-0.401 0.417,-0.819 0.527,-1.268 0.131,-0.447 0.138,-0.912 0.095,-1.385 -0.066,-0.429 -0.206,-0.904 -0.427,-1.298 -0.208,-0.411 -0.486,-0.774 -0.776,-1.122 -0.303,-0.337 -0.629,-0.652 -0.972,-0.945 -0.345,-0.281 -0.706,-0.576 -1.099,-0.789 -0.195,-0.11 -0.375,-0.245 -0.583,-0.334 L 25.2,-33.168 c -0.416,-0.194 -0.878,-0.207 -1.312,-0.318 -0.446,-0.061 -0.898,-0.057 -1.344,-0.088 l 0,0.027 c 0.445,0.045 0.893,0.055 1.332,0.13 0.427,0.125 0.885,0.153 1.282,0.356 l 0.613,0.248 c 0.202,0.09 0.382,0.231 0.575,0.344 0.392,0.223 0.72,0.504 1.065,0.793 0.334,0.295 0.647,0.61 0.937,0.944 0.276,0.343 0.539,0.701 0.73,1.095 0.207,0.393 0.319,0.791 0.385,1.245 0.026,0.415 0.017,0.865 -0.115,1.278 -0.105,0.421 -0.289,0.821 -0.5,1.206 -0.222,0.382 -0.469,0.74 -0.745,1.088 -0.551,0.699 -1.226,1.297 -1.832,1.951 l -1.868,1.922 -1.96,1.838 -0.01,0.009 -0.007,0.011 -0.036,0.052 0.044,-0.038 c -0.226,0.201 -0.422,0.241 -0.663,0.321 -0.246,0.032 -0.535,0.07 -0.76,0.072 -0.526,-0.012 -1.034,-0.093 -1.574,-0.035 -0.53,0.013 -1.047,0.119 -1.565,0.207 -0.512,0.119 -1.02,0.257 -1.518,0.421 -0.481,0.21 -0.994,0.349 -1.448,0.616 -0.452,0.266 -0.947,0.461 -1.352,0.8 -0.412,0.324 -0.877,0.583 -1.227,0.982 l -0.567,0.548 c -0.198,0.175 -0.374,0.37 -0.519,0.588 -0.303,0.428 -0.638,0.822 -0.917,1.276 l -0.784,1.361 -0.696,1.41 c -0.222,0.475 -0.405,0.967 -0.609,1.45 -0.185,0.491 -0.339,0.994 -0.509,1.49 -0.13,0.507 -0.289,1.009 -0.396,1.523 -0.224,1.026 -0.372,2.065 -0.514,3.1 l 0.019,-0.043 c -0.189,0.213 -0.442,0.377 -0.733,0.497 -0.288,0.13 -0.574,0.235 -0.869,0.354 L 3.481,-1.441 -0.01,-0.023 0,0 z"
                   style="fill:#a7a5a6;fill-opacity:1;fill-rule:nonzero;stroke:none"
                   id="path70633" />
              </g>
            </g>
          </g>
        </g>
        <g
           id="g70635">
          <g
             id="g70637" />
          <g
             id="g70643">
            <g
               clip-path="url(#clipPath70639)"
               id="g70645">
              <g
                 transform="translate(1211.9863,69.9268)"
                 id="g70647">
                <path
                   inkscape:connector-curvature="0"
                   d="m 0,0 c 1.363,-0.634 2.712,-1.298 4.06,-1.964 1.348,-0.664 2.701,-1.319 4.03,-2.021 2.658,-1.407 5.364,-2.713 8.092,-3.977 2.731,-1.258 5.445,-2.548 8.155,-3.848 1.359,-0.641 2.711,-1.298 4.054,-1.972 l 4.035,-2.017 -0.027,-0.001 0.483,0.342 0.017,-0.02 -0.47,-0.369 -0.011,-0.008 -0.016,0.006 -4.096,1.883 c -1.367,0.626 -2.726,1.27 -4.077,1.928 -2.711,1.3 -5.417,2.609 -8.108,3.953 -1.353,0.652 -2.688,1.344 -4.058,1.965 -1.369,0.624 -2.715,1.291 -4.063,1.956 -1.354,0.652 -2.686,1.351 -4.021,2.042 -1.335,0.688 -2.67,1.379 -3.991,2.099 L 0,0 z"
                   style="fill:#a7a5a6;fill-opacity:1;fill-rule:nonzero;stroke:none"
                   id="path70649" />
              </g>
            </g>
          </g>
        </g>
        <g
           id="g70651">
          <g
             id="g70653" />
          <g
             id="g70659">
            <g
               style="opacity:0.39999396"
               clip-path="url(#clipPath70655)"
               id="g70661">
              <g
                 transform="translate(1213.7041,69.6309)"
                 id="g70663">
                <path
                   inkscape:connector-curvature="0"
                   d="m 0,0 c 0.802,-0.053 1.606,-0.07 2.406,-0.15 l 2.386,-0.405 c 0.799,-0.123 1.572,-0.346 2.36,-0.515 0.785,-0.182 1.569,-0.366 2.34,-0.596 1.541,-0.462 3.095,-0.884 4.624,-1.383 1.524,-0.515 3.075,-0.941 4.606,-1.437 l 4.588,-1.496 c 1.522,-0.516 3.033,-1.071 4.55,-1.604 l 2.274,-0.807 2.25,-0.869 4.494,-1.755 -0.024,-0.003 0.575,0.331 0.013,-0.022 -0.559,-0.355 -0.011,-0.008 -0.014,0.005 c -3.037,1.059 -6.055,2.168 -9.084,3.247 -1.514,0.537 -3.021,1.095 -4.542,1.617 l -4.553,1.59 c -0.759,0.263 -1.528,0.498 -2.291,0.748 -0.764,0.252 -1.532,0.491 -2.302,0.719 -1.539,0.466 -3.099,0.855 -4.646,1.289 -0.772,0.224 -1.565,0.361 -2.339,0.573 -0.782,0.182 -1.553,0.421 -2.342,0.557 L 2.397,-0.281 -0.002,-0.026 0,0 z"
                   style="fill:#a7a5a6;fill-opacity:1;fill-rule:nonzero;stroke:none"
                   id="path70665" />
              </g>
            </g>
          </g>
        </g>
        <g
           id="g70667">
          <g
             id="g70669" />
          <g
             id="g70675">
            <g
               clip-path="url(#clipPath70671)"
               id="g70677">
              <g
                 transform="translate(1244.8711,54.4473)"
                 id="g70679">
                <path
                   inkscape:connector-curvature="0"
                   d="m 0,0 c 0,0 -0.495,0.22 -1.362,0.604 -0.861,0.397 -2.09,0.965 -3.565,1.646 -1.482,0.668 -3.174,1.525 -5.001,2.414 -1.816,0.909 -3.775,1.835 -5.744,2.738 -0.984,0.453 -1.969,0.907 -2.937,1.353 -0.955,0.474 -1.895,0.942 -2.805,1.393 -1.815,0.912 -3.522,1.739 -4.959,2.499 -2.892,1.487 -4.801,2.512 -4.801,2.512 l 0.012,0.023 c 0,0 1.965,-0.915 4.886,-2.339 2.929,-1.406 6.764,-3.421 10.665,-5.312 1.943,-0.959 3.895,-1.898 5.747,-2.735 1.84,-0.859 3.571,-1.632 5.023,-2.363 C -3.382,1.717 -2.167,1.119 -1.315,0.701 -0.471,0.27 0.012,0.023 0.012,0.023 L 0,0 z"
                   style="fill:#a7a5a6;fill-opacity:1;fill-rule:nonzero;stroke:none"
                   id="path70681" />
              </g>
            </g>
          </g>
        </g>
        <g
           id="g70683">
          <g
             id="g70685" />
          <g
             id="g70691">
            <g
               clip-path="url(#clipPath70687)"
               id="g70693" />
          </g>
        </g>
        <g
           id="g70695"
           transform="translate(1284.7861,69.0234)">
          <path
             inkscape:connector-curvature="0"
             d="m 0,0 c 0,0 -10.923,-5.267 -14.759,-7.541 -3.836,-2.276 -4.681,-0.131 -4.81,2.404 -0.131,2.535 6.566,7.477 6.566,7.477 5.982,2.601 9.751,3.9 13.328,1.82 C 3.899,2.08 0,0 0,0 m 3.494,5.169 c -2.858,4.811 -12.871,2.276 -17.682,0 -4.811,-2.275 -8.018,-9.383 -8.366,-10.207 -0.346,-0.823 -1.126,-1.04 -1.126,-1.04 0,0 -1.204,-0.26 -2.829,-0.163 -1.625,0.098 -2.502,-0.552 -2.502,-0.552 l -11.15,-6.728 c 0.065,-1.008 -1.691,-1.724 -1.691,-1.724 -3.965,-1.398 -28.442,-19.243 -28.442,-19.243 -0.261,-1.17 2.34,0 2.34,0 3.1,1.033 6.232,2.243 9.309,3.551 7.311,3.892 14.939,8.843 17.725,10.404 4.681,2.622 2.472,6.935 2.472,6.935 l 9.273,5.515 c 2.186,1.203 3.739,-0.615 4.37,-1.578 l 3.855,-0.253 c 5.007,-0.585 7.281,0.325 7.281,0.325 0,0 9.623,4.552 14.889,7.412 5.266,2.861 2.274,7.346 2.274,7.346"
             style="fill:#d3d2d2;fill-opacity:1;fill-rule:nonzero;stroke:none"
             id="path70697" />
        </g>
        <g
           id="g70699">
          <g
             id="g70701" />
          <g
             id="g70707">
            <g
               clip-path="url(#clipPath70703)"
               id="g70709">
              <g
                 transform="translate(1245.5879,54.5693)"
                 id="g70711">
                <path
                   inkscape:connector-curvature="0"
                   d="m 0,0 c 0,0 -0.483,-0.253 -1.34,-0.669 -0.408,-0.24 -0.905,-0.53 -1.474,-0.863 -0.56,-0.354 -1.191,-0.754 -1.879,-1.19 -1.366,-0.89 -2.959,-1.928 -4.667,-3.041 -1.711,-1.108 -3.499,-2.346 -5.265,-3.617 -1.77,-1.265 -3.537,-2.53 -5.195,-3.717 -1.664,-1.177 -3.198,-2.304 -4.544,-3.226 l -4.463,-3.106 -0.016,0.021 c 0,0 1.722,1.331 4.352,3.262 1.304,0.981 2.866,2.069 4.528,3.25 1.66,1.184 3.451,2.42 5.256,3.633 1.802,1.22 3.598,2.446 5.265,3.621 1.68,1.157 3.246,2.242 4.641,3.09 1.386,0.862 2.569,1.543 3.418,1.982 0.878,0.368 1.371,0.593 1.371,0.593 L 0,0 z"
                   style="fill:#a7a5a6;fill-opacity:1;fill-rule:nonzero;stroke:none"
                   id="path70713" />
              </g>
            </g>
          </g>
        </g>
        <g
           id="g70715"
           transform="translate(1255.6113,60.9404)">
          <path
             inkscape:connector-curvature="0"
             d="m 0,0 -9.273,-5.515 c 0,0 2.209,-4.313 -2.472,-6.935 -2.786,-1.561 -10.414,-6.512 -17.725,-10.404 16.871,7.164 32.168,17.253 32.168,17.253 l 1.562,4.03 0.11,-0.007 C 3.739,-0.615 2.186,1.203 0,0"
             style="fill:#e9e9e9;fill-opacity:1;fill-rule:nonzero;stroke:none"
             id="path70717" />
        </g>
        <g
           id="g70719"
           transform="translate(1251.1396,51.8711)">
          <path
             inkscape:connector-curvature="0"
             d="m 0,0 c -1.493,0 -2.709,1.216 -2.709,2.71 0,1.493 1.216,2.709 2.709,2.709 1.494,0 2.71,-1.216 2.71,-2.709 C 2.71,1.216 1.494,0 0,0"
             style="fill:#e9e9e9;fill-opacity:1;fill-rule:nonzero;stroke:none"
             id="path70721" />
        </g>
        <g
           id="g70723"
           transform="translate(1251.1396,57.3545)">
          <path
             inkscape:connector-curvature="0"
             d="m 0,0 c -1.529,0 -2.773,-1.244 -2.773,-2.773 0,-1.531 1.244,-2.775 2.773,-2.775 1.53,0 2.774,1.244 2.774,2.775 C 2.774,-1.244 1.53,0 0,0 m 0,-0.13 c 1.461,0 2.645,-1.183 2.645,-2.643 0,-1.46 -1.184,-2.645 -2.645,-2.645 -1.46,0 -2.644,1.185 -2.644,2.645 0,1.46 1.184,2.643 2.644,2.643"
             style="fill:#a7a5a6;fill-opacity:1;fill-rule:nonzero;stroke:none"
             id="path70725" />
        </g>
        <g
           id="g70727"
           transform="translate(1251.1396,55.2734)">
          <path
             inkscape:connector-curvature="0"
             d="m 0,0 c 0.526,0 0.954,-0.31 0.954,-0.692 0,0.526 -0.428,0.953 -0.954,0.953 -0.526,0 -0.953,-0.427 -0.953,-0.953 C -0.953,-0.31 -0.526,0 0,0"
             style="fill:#aeacac;fill-opacity:1;fill-rule:nonzero;stroke:none"
             id="path70729" />
        </g>
        <g
           id="g70731"
           transform="translate(1251.1396,53.8867)">
          <path
             inkscape:connector-curvature="0"
             d="m 0,0 c -0.526,0 -0.953,0.311 -0.953,0.694 0,-0.526 0.427,-0.954 0.953,-0.954 0.526,0 0.954,0.428 0.954,0.954 C 0.954,0.311 0.526,0 0,0"
             style="fill:#f4f4f4;fill-opacity:1;fill-rule:nonzero;stroke:none"
             id="path70733" />
        </g>
        <g
           id="g70735"
           transform="translate(1252.0938,56.4766)">
          <path
             inkscape:connector-curvature="0"
             d="M 0,0 C 0,0.246 -0.428,0.445 -0.954,0.445 -1.48,0.445 -1.907,0.246 -1.907,0 c 0,-0.246 0.427,-0.444 0.953,-0.444 C -0.428,-0.444 0,-0.246 0,0"
             style="fill:#ffffff;fill-opacity:1;fill-rule:nonzero;stroke:none"
             id="path70737" />
        </g>
        <g
           id="g70739">
          <g
             id="g70741" />
          <g
             id="g70747">
            <g
               clip-path="url(#clipPath70743)"
               id="g70749">
              <g
                 transform="translate(1251.1396,52.5)"
                 id="g70751">
                <path
                   inkscape:connector-curvature="0"
                   d="M 0,0 C -1.364,0 -2.488,1.034 -2.629,2.363 -2.638,2.27 -2.644,2.176 -2.644,2.081 c 0,-1.46 1.184,-2.644 2.644,-2.644 1.461,0 2.645,1.184 2.645,2.644 C 2.645,2.176 2.64,2.27 2.63,2.363 2.488,1.034 1.366,0 0,0"
                   style="fill:#e9e9e9;fill-opacity:1;fill-rule:nonzero;stroke:none"
                   id="path70753" />
              </g>
            </g>
          </g>
        </g>
        <g
           id="g70755"
           transform="translate(1269.7627,61.9297)">
          <path
             inkscape:connector-curvature="0"
             d="m 0,0 c -0.997,-0.592 -1.812,-0.891 -2.427,-0.891 -0.676,0 -1.469,0.327 -1.599,2.875 -0.063,1.229 2.125,3.52 4.279,5.37 L -0.798,7.822 C -2.774,6.089 -5.152,3.636 -5.065,1.931 c 0.131,-2.563 1.019,-3.863 2.638,-3.863 0.815,0 1.782,0.34 2.957,1.037 1.816,1.077 5.265,2.845 8.371,4.399 L 7.672,4.05 C 4.762,2.588 1.687,1.001 0,0"
             style="fill:#e7e6e7;fill-opacity:1;fill-rule:nonzero;stroke:none"
             id="path70757" />
        </g>
        <g
           id="g70759"
           transform="translate(1287.1396,71.252)">
          <path
             inkscape:connector-curvature="0"
             d="m 0,0 c 0.016,0.889 -0.578,1.689 -1.768,2.381 -1.273,0.742 -2.616,1.103 -4.104,1.103 -2.805,0 -6.049,-1.312 -9.693,-2.896 L -15.619,0.565 -15.665,0.53 c -0.268,-0.197 -1.314,-0.981 -2.51,-2.03 l 1.051,-0.469 c 0.707,0.608 1.41,1.168 2.028,1.627 4.16,1.807 6.867,2.785 9.224,2.785 1.299,0 2.47,-0.314 3.582,-0.961 0.576,-0.336 1.26,-0.861 1.249,-1.461 -0.013,-0.786 -1.158,-1.576 -1.539,-1.781 -0.061,-0.029 -3.465,-1.672 -7.125,-3.512 l 1.229,-0.546 c 3.349,1.673 6.301,3.097 6.368,3.13 C -1.896,-2.574 -0.029,-1.534 0,0"
             style="fill:#a7a5a6;fill-opacity:1;fill-rule:nonzero;stroke:none"
             id="path70761" />
        </g>
        <g
           id="g70763">
          <g
             id="g70765" />
          <g
             id="g70771">
            <g
               style="opacity:0.5"
               clip-path="url(#clipPath70767)"
               id="g70773">
              <g
                 transform="translate(1288.7549,72.0303)"
                 id="g70775">
                <path
                   inkscape:connector-curvature="0"
                   d="m 0,0 c 0.065,-0.468 0.143,-0.931 0.058,-1.411 -0.003,-0.49 -0.213,-0.93 -0.43,-1.36 C -0.848,-3.61 -1.595,-4.257 -2.408,-4.746 -2.811,-5.007 -3.24,-5.2 -3.66,-5.413 L -4.927,-6.038 -7.46,-7.286 c -1.701,-0.81 -3.35,-1.719 -5.034,-2.561 -1.681,-0.849 -3.373,-1.676 -5.071,-2.493 l -0.007,-0.003 -0.005,-0.002 c -0.206,-0.068 -0.413,-0.125 -0.621,-0.164 -0.209,-0.04 -0.414,-0.103 -0.625,-0.123 -0.42,-0.046 -0.838,-0.128 -1.26,-0.144 l -1.266,-0.051 c -0.211,-0.017 -0.433,0.019 -0.636,0.029 l -0.627,0.049 c -1.674,0.127 -3.348,0.25 -5.018,0.416 l 0.002,0.027 c 1.678,-0.056 3.352,-0.154 5.027,-0.228 l 0.629,-0.029 c 0.216,-0.004 0.411,-0.034 0.62,-0.012 l 1.249,0.054 c 0.416,0.014 0.826,0.094 1.239,0.137 0.209,0.018 0.406,0.079 0.609,0.117 0.205,0.038 0.402,0.092 0.596,0.154 l -0.012,-0.005 c 1.694,0.819 3.394,1.627 5.105,2.413 0.857,0.388 1.69,0.827 2.538,1.239 0.847,0.41 1.678,0.852 2.512,1.289 l 2.502,1.309 1.252,0.652 c 0.411,0.231 0.85,0.41 1.244,0.654 0.805,0.459 1.54,1.069 2.016,1.868 0.216,0.393 0.425,0.834 0.451,1.295 0.112,0.453 0.064,0.927 0.026,1.397 L 0,0 z"
                   style="fill:#a7a5a6;fill-opacity:1;fill-rule:nonzero;stroke:none"
                   id="path70777" />
              </g>
            </g>
          </g>
        </g>
        <g
           id="g70779">
          <g
             id="g70781" />
          <g
             id="g70787">
            <g
               style="opacity:0.5"
               clip-path="url(#clipPath70783)"
               id="g70789">
              <g
                 transform="translate(1257.123,61.9834)"
                 id="g70791">
                <path
                   inkscape:connector-curvature="0"
                   d="m 0,0 c -0.245,-0.036 -0.493,-0.063 -0.735,-0.108 l -0.686,-0.261 -0.425,-0.161 0.382,0.242 0.471,0.301 -0.006,-0.004 C -0.276,0.478 0.574,0.485 1.376,0.495 1.78,0.474 2.165,0.484 2.572,0.524 2.97,0.562 3.383,0.557 3.768,0.63 4.543,0.684 5.211,1.25 5.54,1.927 c 0.337,0.73 0.703,1.452 1.095,2.156 0.783,1.408 1.667,2.764 2.684,4.014 0.506,0.626 1.032,1.24 1.614,1.799 0.571,0.57 1.209,1.07 1.879,1.526 0.691,0.429 1.425,0.771 2.164,1.084 0.749,0.306 1.503,0.597 2.273,0.837 0.771,0.235 1.543,0.474 2.331,0.647 0.782,0.202 1.58,0.333 2.376,0.472 0.802,0.101 1.605,0.201 2.416,0.213 0.819,0.045 1.609,-0.032 2.425,-0.149 0.793,-0.162 1.599,-0.349 2.307,-0.769 0.708,-0.399 1.333,-0.964 1.748,-1.67 l -0.005,0.006 c 0.169,-0.289 0.29,-0.574 0.396,-0.877 0.125,-0.293 0.164,-0.613 0.25,-0.918 l -0.025,-0.004 c -0.099,0.299 -0.15,0.613 -0.286,0.898 -0.115,0.29 -0.258,0.582 -0.417,0.834 l -0.005,0.006 c -0.428,0.674 -1.037,1.209 -1.736,1.579 -0.692,0.392 -1.485,0.558 -2.261,0.699 -0.778,0.099 -1.597,0.14 -2.384,0.107 C 23.58,14.407 22.786,14.312 21.992,14.214 21.204,14.078 20.413,13.951 19.637,13.753 18.854,13.585 18.087,13.349 17.32,13.118 16.557,12.874 15.8,12.616 15.054,12.326 14.305,12.028 13.573,11.706 12.888,11.3 12.222,10.861 11.582,10.376 11.007,9.817 10.426,9.267 9.875,8.68 9.388,8.042 8.397,6.778 7.547,5.411 6.792,3.997 6.413,3.29 6.064,2.569 5.741,1.835 5.399,1.071 4.64,0.476 3.792,0.427 3.384,0.357 2.987,0.372 2.584,0.34 2.189,0.308 1.771,0.304 1.371,0.331 0.968,0.333 0.576,0.336 0.184,0.286 L -0.393,0.153 C -0.57,0.075 -0.77,0.014 -0.923,-0.081 l -0.006,-0.005 -0.487,-0.28 -0.044,0.081 0.717,0.235 C -0.498,-0.017 -0.25,0 -0.004,0.026 L 0,0 z"
                   style="fill:#a7a5a6;fill-opacity:1;fill-rule:nonzero;stroke:none"
                   id="path70793" />
              </g>
            </g>
          </g>
        </g>
      </g>
    </g>
  </g>
</svg>
