<?xml version="1.0" encoding="UTF-8" standalone="no"?>
<!-- Created with Inkscape (http://www.inkscape.org/) -->

<svg
   xmlns:dc="http://purl.org/dc/elements/1.1/"
   xmlns:cc="http://creativecommons.org/ns#"
   xmlns:rdf="http://www.w3.org/1999/02/22-rdf-syntax-ns#"
   xmlns:svg="http://www.w3.org/2000/svg"
   xmlns="http://www.w3.org/2000/svg"
   xmlns:sodipodi="http://sodipodi.sourceforge.net/DTD/sodipodi-0.dtd"
   xmlns:inkscape="http://www.inkscape.org/namespaces/inkscape"
   width="64px"
   height="64px"
   id="svg167131"
   version="1.1"
   inkscape:version="0.48.5 r10040"
   sodipodi:docname="Nowy dokument 6">
  <defs
     id="defs167133" />
  <sodipodi:namedview
     id="base"
     pagecolor="#ffffff"
     bordercolor="#666666"
     borderopacity="1.0"
     inkscape:pageopacity="0.0"
     inkscape:pageshadow="2"
     inkscape:zoom="5.5"
     inkscape:cx="32"
     inkscape:cy="32"
     inkscape:current-layer="layer1"
     showgrid="true"
     inkscape:document-units="px"
     inkscape:grid-bbox="true"
     inkscape:window-width="1366"
     inkscape:window-height="706"
     inkscape:window-x="-8"
     inkscape:window-y="-8"
     inkscape:window-maximized="1" />
  <metadata
     id="metadata167136">
    <rdf:RDF>
      <cc:Work
         rdf:about="">
        <dc:format>image/svg+xml</dc:format>
        <dc:type
           rdf:resource="http://purl.org/dc/dcmitype/StillImage" />
        <dc:title></dc:title>
      </cc:Work>
    </rdf:RDF>
  </metadata>
  <g
     id="layer1"
     inkscape:label="Layer 1"
     inkscape:groupmode="layer">
    <g
       transform="matrix(0.81154617,0,0,-0.86932985,41.800739,2.7653185)"
       id="g7989">
      <path
         id="path7991"
         style="fill:#000000;fill-opacity:1;fill-rule:nonzero;stroke:none"
         d="m 0,0 c 2.429,1.484 5.878,1.809 7.302,-0.704 0.395,-1.025 0.918,-2.246 1.199,-3.475 2.313,0.159 8.791,0.121 6.425,-8.81 5.347,-1.039 2.589,-6.625 2.103,-7.602 1.809,-1.416 5.194,-3.306 2.419,-8.347 1.856,-2.155 2.088,-5.086 1.884,-7.252 1.378,-0.552 3.212,-1.567 3.55,-3.234 0.111,-0.875 -0.74,-1.665 -1.366,-2.048 -1.63,-0.256 -3.245,0.168 -4.627,0.879 -0.23,-0.367 0.038,-1.117 -0.146,-1.604 -0.047,-0.921 -2.037,-1.19 -0.884,-2.15 0.47,-2.021 -0.292,-4.247 -2.007,-5.466 l -2,-1.109 c -0.158,-4.031 -4.956,-3.451 -4.956,-3.451 -0.656,-3.457 -4.179,-3.944 -6.179,-3.935 -1.08,-3.394 -0.865,-7.264 -1.947,-10.62 0,0 -1.266,6.472 -1.669,10.015 l -1.325,-1.005 c -0.547,-2.617 -1.67,-9.412 -2.475,-9.2 -0.394,2.103 -0.222,5.189 -0.891,7.164 -2.661,-0.493 -4.833,-0.129 -6.774,1.682 -0.796,-1.267 -2.342,-1.641 -3.777,-1.771 -0.752,-2.464 -1.698,-5.516 -2.532,-7.942 0,0 -0.972,6.421 -0.99,9.257 -0.48,1.144 -1.192,-0.2 -1.917,-0.066 -0.455,-3.015 0.205,-5.869 -0.538,-8.653 -0.72,0.054 -2.135,6.201 -2.686,8.26 -6.034,1.295 -6.591,4.408 -6.899,5.236 -6.229,-2.291 -7.72,3.568 -7.861,5.362 -5.461,0.669 -4.9,4.066 -4.334,5.045 -5.345,2.521 -3.112,5.527 -2.78,6.338 -2.639,2.347 -4.156,5.691 -3.199,9.163 0.574,1.898 1.828,3.741 3.339,5.112 -0.464,0.703 -0.053,1.558 0.123,2.203 0.696,0.705 1.269,1.445 2.136,1.833 -0.075,0.957 -0.041,2.319 0.565,3.259 -1.438,1.149 -3.435,2.239 -3.389,4.319 0.049,0.88 0.534,1.897 1.441,2.249 2.284,0.959 5.183,0.38 7.043,-1.393 0.276,0.13 0.596,0.141 0.745,0.425 -0.612,0.379 -1.541,0.627 -1.77,1.458 0.783,1.666 2.73,1.974 4.149,2.544 -0.452,0.383 -0.755,1.012 -0.658,1.695 1.509,0.951 4.882,-0.149 5.498,-0.647 0.811,0.828 0.862,2.788 2.431,2.483 0.799,-2.251 1.912,0.227 3.031,0.266 1.987,0.309 3.665,0.327 5.225,-0.857 0.617,1.78 1.692,4.216 4.088,4.26 1.28,-0.035 2.665,-0.746 3.581,-1.794 0.593,0.181 1.032,0.195 1.636,0.058 0.155,1.284 1.285,2.123 2.433,2.483 0.592,0.181 0.966,-0.206 1.45,-0.309 C -5.268,0.936 -2.864,3.148 0,0"
         inkscape:connector-curvature="0" />
    </g>
    <g
       transform="matrix(0.81154617,0,0,-0.86932985,29.485689,14.067476)"
       id="g7993">
      <path
         id="path7995"
         style="fill:#b18db8;fill-opacity:1;fill-rule:nonzero;stroke:none"
         d="m 0,0 c -0.002,-1.08 -1.037,-2.355 -2.1,-2.832 -1.969,-0.828 -5.083,-2.098 -7.289,-0.734 9.151,-13.505 0.211,-24.3 -8.715,-25.168 -13.388,-1.495 -16.534,7.576 -15.74,11.162 0.952,4.79 5.924,6.642 9.567,8.769 l 0.579,0.619 c 0.224,-0.712 0.694,-1.574 1.392,-2.07 0.81,-0.331 1.647,-0.263 2.308,0.281 0.967,0.912 0.832,2.508 0.632,3.66 -0.421,0.584 -0.608,1.376 -1.301,1.752 1.037,0.078 1.816,0.664 2.548,1.449 0.22,-0.552 0.917,-1.087 1.56,-1.184 0.961,-0.047 1.53,0.853 1.788,1.501 2.913,-1.315 3.568,0.805 4.091,0.703 0.167,-0.194 -0.059,-0.602 0.306,-0.749 1.52,2.291 3.348,4.874 6.475,4.623 C -2.337,1.677 -0.891,1.486 0,0"
         inkscape:connector-curvature="0" />
    </g>
    <g
       transform="matrix(0.81154617,0,0,-0.86932985,2.1823467,32.229168)"
       id="g7997">
      <path
         id="path7999"
         style="fill:#d0bcd7;fill-opacity:1;fill-rule:nonzero;stroke:none"
         d="m 0,0 c -0.354,1.275 -0.392,2.456 -0.2,3.319 0.952,4.79 5.924,6.643 9.566,8.77 l 0.579,0.619 c 0.225,-0.712 0.695,-1.574 1.393,-2.07 0.809,-0.331 1.646,-0.263 2.308,0.281 0.966,0.912 0.832,2.508 0.631,3.659 -0.421,0.585 -0.607,1.377 -1.3,1.753 1.037,0.077 1.816,0.663 2.547,1.448 0.22,-0.551 0.917,-1.087 1.561,-1.183 0.961,-0.047 1.529,0.852 1.787,1.501 1.115,-0.504 1.9,-0.503 2.474,-0.318 C 20.207,13.669 20.97,8.862 16.237,4.233 15.573,3.583 14.354,2.354 13.866,0.943 13.245,-0.853 13.239,-2.525 13.841,-3.849 14.147,-4.526 14.69,-5.636 12.882,-5.931 4.855,-7.067 1.516,-2.609 0,0"
         inkscape:connector-curvature="0" />
    </g>
    <g
       transform="matrix(0.81154617,0,0,-0.86932985,41.606533,3.7458326)"
       id="g8001">
      <path
         id="path8003"
         style="fill:#ffffff;fill-opacity:1;fill-rule:nonzero;stroke:none"
         d="m 0,0 c 2.416,1.7 4.681,1.044 5.939,0.488 1.363,-1.232 1.47,-3.186 2.244,-4.718 9.246,1.404 5.666,-7.717 5.767,-8.353 4.706,-1.038 3.273,-6.174 1.821,-7.492 6.081,-2.084 2.992,-6.692 2.361,-8.072 4.846,-3.572 1.384,-9.866 0.375,-10.741 -0.165,0.155 -0.253,-0.767 -0.421,-1.653 -0.25,-0.889 -1.332,-0.807 -1.545,-1.572 2.321,-4.514 -1.698,-6.296 -3.046,-6.662 -0.283,-4.431 -3.869,-3.655 -4.952,-3.532 -0.627,-1.501 -1.249,-3.162 -3.034,-3.544 -1.89,-0.864 -4.266,-0.348 -5.78,0.679 -2.458,-4.004 -6.058,-5.09 -8.587,-4.817 -1.128,0.28 -2.119,1.164 -3.022,1.813 -1.75,-1.382 -5.347,-3.053 -7.675,0.011 -3.357,-1.156 -9.394,-1.114 -11.383,4.319 -5.517,-1.217 -7.379,2.981 -7.353,4.54 -1.676,1.061 -5.774,1.544 -4.298,5.126 -1.273,0.995 -2.969,1.456 -3.467,3.117 0.18,0.607 -0.095,1.637 0.404,2.213 2.325,-1.317 4.852,-2.749 7.489,-2.696 15.793,-2.823 23.505,13.529 15.819,24.338 6.964,0.399 9.197,4.517 8.43,5.85 -0.848,1.37 -2.194,2.162 -3.718,2.268 -1.647,0.303 -3.547,-0.283 -4.967,-0.812 -0.018,0.518 -0.668,0.816 -1.002,1.204 0.616,0.701 1.064,1.595 0.872,2.509 -0.722,1.212 -2.219,0.602 -3.257,0.565 l -0.393,-0.213 c -0.31,0.867 2.161,3.733 6.891,0.72 1.953,7.022 6.467,3.664 6.913,2.36 1.928,1.374 2.624,0.411 3.26,0.514 -0.14,0.594 0.213,3.428 3.565,2.043 C -5.08,1.262 -1.595,3.04 0,0"
         inkscape:connector-curvature="0" />
    </g>
    <g
       transform="matrix(0.81154617,0,0,-0.86932985,19.248598,10.523914)"
       id="g8005">
      <path
         id="path8007"
         style="fill:#dce8eb;fill-opacity:1;fill-rule:nonzero;stroke:none"
         d="M 0,0 C 1.23,0.282 2.445,2.124 4,1.1 3.705,0.369 3.33,-0.363 2.628,-0.868 2.976,-1.655 4.18,-1.773 4.412,-2.725 3.439,-3.479 2.681,-4.623 2.117,-5.683 l -0.79,0.853 c -0.47,-0.257 -1.078,-3.253 -3.655,-0.48 -1.742,-4.422 -2.671,-0.825 -2.965,0.047 -0.682,-1.062 -1.336,-1.804 -2.52,-2.206 -0.749,0.814 1.103,1.599 -0.352,2.027 -6.092,-2.641 -5.575,0.442 0.194,2.485 -0.853,0.409 -1.778,0.538 -2.523,1.27 0.758,1.187 2.654,1.813 4.342,1.591 0,0 -0.965,1.326 -1.115,2.16 1.686,-0.22 3.371,-0.401 4.837,-1.19 C -1.709,3.64 0.249,4.154 0,0"
         inkscape:connector-curvature="0" />
    </g>
    <g
       transform="matrix(0.81154617,0,0,-0.86932985,9.6939405,13.974896)"
       id="g8009">
      <path
         id="path8011"
         style="fill:#b18db8;fill-opacity:1;fill-rule:nonzero;stroke:none"
         d="m 0,0 c -0.645,-0.981 -2.185,-1.555 -1.896,-2.943 1.312,-0.954 3.33,-0.364 4.673,0.083 0.298,-1.629 -1.705,-1.767 -2.418,-1.724 -3.967,-0.046 -5.478,1.207 -6.921,3.597 -0.256,0.509 0.083,1.082 0.43,1.453 C -4.416,1.686 -1.57,1.464 0,0"
         inkscape:connector-curvature="0" />
    </g>
    <g
       transform="matrix(0.81154617,0,0,-0.86932985,20.459587,18.81819)"
       id="g8013">
      <path
         id="path8015"
         style="fill:#000000;fill-opacity:1;fill-rule:nonzero;stroke:none"
         d="m 0,0 c 0.486,-1.303 0.782,-2.932 0.027,-4.197 -0.753,-1.305 -2.304,-1.52 -3.672,-1.287 -0.89,0.289 -1.63,0.902 -2.097,1.644 -0.443,1.225 -0.17,2.594 0.149,3.764 1.003,1.034 2.533,1.847 3.987,1.458 C -0.996,1.044 -0.301,0.628 0,0"
         inkscape:connector-curvature="0" />
    </g>
    <g
       transform="matrix(0.81154617,0,0,-0.86932985,11.175174,18.57539)"
       id="g8017">
      <path
         id="path8019"
         style="fill:#dce8eb;fill-opacity:1;fill-rule:nonzero;stroke:none"
         d="m 0,0 c -1.083,-2.196 -3.471,-3.679 -5.673,-4.716 -0.829,-0.268 -1.529,-0.812 -2.272,-1.317 -0.362,1.185 1.136,1.798 1.83,2.542 0.081,-0.037 0.245,-0.152 0.41,-0.267 0.157,0.006 0.019,2.839 0.707,3.783 C -3.429,-0.279 -1.49,-0.852 0,0"
         inkscape:connector-curvature="0" />
    </g>
    <g
       transform="matrix(0.81154617,0,0,-0.86932985,23.078122,27.477585)"
       id="g8021">
      <path
         id="path8023"
         style="fill:#000000;fill-opacity:1;fill-rule:nonzero;stroke:none"
         d="m 0,0 c -0.511,-0.259 -1.521,0.066 -2.023,-0.432 1.066,-3.04 -0.351,-5.967 -2.315,-8.154 0.334,-0.389 0.817,-0.491 0.836,-1.012 -0.341,-0.57 -1.377,0.513 -1.377,0.513 -2.168,-1.603 -5.247,-1.982 -5.221,-1.621 2.954,0.143 5.641,2.195 6.823,4.955 0.345,1.531 1.161,3.397 0.226,4.965 -0.274,-0.13 -0.503,-0.497 -0.861,-0.511 -0.632,0.938 0.554,1.299 1.102,1.599 C -1.942,0.651 -0.743,0.692 0,0"
         inkscape:connector-curvature="0" />
    </g>
    <g
       transform="matrix(0.81154617,0,0,-0.86932985,7.5802656,29.725589)"
       id="g8025">
      <path
         id="path8027"
         style="fill:#000000;fill-opacity:1;fill-rule:nonzero;stroke:none"
         d="M 0,0 C 1.346,1.525 3.602,2.164 5.506,1.431 5.958,1.087 5.896,0.605 5.629,0.196 4.229,-0.932 2.22,-0.603 0.516,-1.022 c -0.926,-0.992 0.282,-5.827 0.989,-6.6 -2.818,3.323 -1.716,6.774 -1.681,6.935 -1.179,1.718 -4.839,-0.218 -4.515,2.242 0.786,0.387 1.856,0.625 2.708,0.295 C -1.214,1.557 -0.386,0.745 0,0"
         inkscape:connector-curvature="0" />
    </g>
    <g
       transform="matrix(0.81154617,0,0,-0.86932985,6.9240559,29.506517)"
       id="g8029">
      <path
         id="path8031"
         style="fill:#835796;fill-opacity:1;fill-rule:nonzero;stroke:none"
         d="m 0,0 c -0.743,0.692 -3.624,-0.099 -3.272,0.965 0.308,0.37 1.182,0.52 1.788,0.342 C -0.877,1.088 -0.376,0.466 0,0"
         inkscape:connector-curvature="0" />
    </g>
    <g
       transform="matrix(0.81154617,0,0,-0.86932985,11.481049,28.974223)"
       id="g8033">
      <path
         id="path8035"
         style="fill:#835796;fill-opacity:1;fill-rule:nonzero;stroke:none"
         d="M 0,0 C 0.129,-0.274 -0.294,-0.544 -0.618,-0.599 -1.726,-0.958 -3.091,-0.805 -4.041,-1.038 -2.996,-0.042 -1.303,0.634 0,0"
         inkscape:connector-curvature="0" />
    </g>
    <g
       transform="matrix(0.81154617,0,0,-0.86932985,61.13915,36.722651)"
       id="g8037">
      <path
         id="path8039"
         style="fill:#dce8eb;fill-opacity:1;fill-rule:nonzero;stroke:none"
         d="m 0,0 c 0.149,-0.794 -0.513,-1.297 -1.103,-1.557 -0.715,-0.106 -1.558,-0.054 -1.859,0.575 -0.185,0.753 0.106,1.562 0.606,2.139 C -1.384,1.87 -0.577,0.539 0,0"
         inkscape:connector-curvature="0" />
    </g>
    <g
       transform="matrix(0.81154617,0,0,-0.86932985,42.398277,58.864217)"
       id="g8041">
      <path
         id="path8043"
         style="fill:#b18db8;fill-opacity:1;fill-rule:nonzero;stroke:none"
         d="m 0,0 -0.567,4.776 c 0.141,0.565 0.776,0.667 1.228,0.323 L 0,0 z"
         inkscape:connector-curvature="0" />
    </g>
    <g
       transform="matrix(0.81154617,0,0,-0.86932985,23.388782,58.91516)"
       id="g8045">
      <path
         id="path8047"
         style="fill:#835796;fill-opacity:1;fill-rule:nonzero;stroke:none"
         d="M 0,0 C 0.093,0.803 -1.186,1.917 0.003,2.238 L 0,0 z"
         inkscape:connector-curvature="0" />
    </g>
    <g
       transform="matrix(0.81154617,0,0,-0.86932985,27.465503,57.581525)"
       id="g8049">
      <path
         id="path8051"
         style="fill:#b18db8;fill-opacity:1;fill-rule:nonzero;stroke:none"
         d="M 0,0 C 0.043,-1.237 -0.588,-2.619 -0.82,-3.945 L -0.965,0.166 C -0.643,0.098 -0.212,0.353 0,0"
         inkscape:connector-curvature="0" />
    </g>
    <g
       transform="matrix(0.81154617,0,0,-0.86932985,38.406365,58.839612)"
       id="g8053">
      <path
         id="path8055"
         style="fill:#835796;fill-opacity:1;fill-rule:nonzero;stroke:none"
         d="M 0,0 C -0.107,0.795 -0.246,1.35 -0.153,2.111 L 0.406,2.132 0,0 z"
         inkscape:connector-curvature="0" />
    </g>
    <g
       transform="matrix(0.81154617,0,0,-0.86932985,16.839364,16.309568)"
       id="g8057">
      <path
         id="path8059"
         style="fill:#ffffff;fill-opacity:1;fill-rule:nonzero;stroke:none"
         d="M 0,0 C -1.333,-2.186 -2.068,0.635 -2.324,1.393 -3.006,0.33 -3.66,-0.412 -4.845,-0.813 -5.593,0 -3.741,0.785 -5.196,1.213 c -6.092,-2.641 -5.575,0.442 0.194,2.485 -0.853,0.409 -1.778,0.538 -2.523,1.271 0.757,1.186 2.654,1.812 4.341,1.591 0,0 -0.964,1.326 -1.114,2.16 C -2.612,8.499 -0.927,8.318 0.539,7.529 1.1,9.682 2.411,10.471 2.847,8.757 L 2.46,8.925 C 2.373,8.081 2.938,6.541 2.938,6.541 1.376,7.218 -0.62,7.139 -1.676,6.208 -1.161,5.298 -0.308,4.921 0.399,4.291 -5.71,3.918 -7.056,1.096 -0.471,1.956 0.809,1.143 -1.187,0.898 -0.693,-0.089 -0.448,-0.077 -0.218,-0.047 0,0"
         inkscape:connector-curvature="0" />
    </g>
    <g
       transform="matrix(0.81154617,0,0,-0.86932985,55.563744,43.117872)"
       id="g8061">
      <path
         id="path8063"
         style="fill:#dce8eb;fill-opacity:1;fill-rule:nonzero;stroke:none"
         d="m 0,0 c -0.376,-2.224 -2.732,-3.222 -3.703,-3.485 -0.164,-2.569 -1.439,-3.386 -2.691,-3.597 -0.154,0.043 -0.272,0.036 -0.337,-0.043 -0.789,-0.07 -1.526,0.062 -1.924,0.108 -0.627,-1.501 -1.249,-3.162 -3.034,-3.544 -1.89,-0.864 -4.266,-0.348 -5.781,0.679 -2.457,-4.004 -6.057,-5.09 -8.587,-4.817 -1.128,0.28 -2.118,1.164 -3.021,1.813 -1.75,-1.382 -5.347,-3.052 -7.675,0.011 -3.357,-1.156 -9.394,-1.114 -11.383,4.319 -5.517,-1.216 -7.38,2.981 -7.353,4.54 -1.479,0.936 -4.839,1.423 -4.601,3.981 0.032,0.343 0.128,0.722 0.303,1.145 -1.034,0.81 -2.349,1.267 -3.071,2.301 -0.166,0.237 -0.302,0.506 -0.396,0.817 0.18,0.606 -0.096,1.636 0.403,2.212 2.326,-1.317 4.853,-2.749 7.49,-2.696 11.063,-1.977 18.163,5.458 18.778,13.803 2.145,-8.218 -2.483,-17.258 -11.49,-19.042 2.299,-1.99 5.389,-0.503 6.972,0.744 0.902,-0.648 1.892,-1.532 3.021,-1.813 2.528,-0.271 6.131,0.814 8.585,4.817 1.516,-1.026 3.893,-1.542 5.781,-0.677 1.786,0.382 2.407,2.042 3.034,3.543 1.084,-0.122 4.669,-0.899 4.954,3.53 1.346,0.368 5.368,2.149 3.044,6.663 0.214,0.767 1.296,0.685 1.544,1.573 0.17,0.885 0.257,1.807 0.422,1.654 1.009,0.874 4.471,7.169 -0.375,10.738 0.631,1.383 3.72,5.99 -2.361,8.074 2.268,3.061 -0.434,7.604 0.037,7.396 2.334,-1.871 2.128,-3.306 2.243,-4.719 9.247,1.406 5.666,-7.716 5.769,-8.352 4.707,-1.038 3.272,-6.174 1.82,-7.491 6.08,-2.084 2.992,-6.692 2.361,-8.073 C 4.551,9.768 -2.133,3.956 -2.347,3.188 -0.864,2.549 -0.185,1.369 0,0"
         inkscape:connector-curvature="0" />
    </g>
    <g
       transform="matrix(0.81154617,0,0,-0.86932985,39.364471,54.21452)"
       id="g8065">
      <path
         id="path8067"
         style="fill:#ffffff;fill-opacity:1;fill-rule:nonzero;stroke:none"
         d="m 0,0 c -2.053,-1.654 -4.334,-2.125 -6.096,-1.935 -1.128,0.281 -2.118,1.164 -3.021,1.814 -1.75,-1.382 -5.347,-3.053 -7.675,0.011 -3.357,-1.157 -9.395,-1.115 -11.383,4.319 -5.517,-1.217 -7.38,2.98 -7.353,4.54 -1.479,0.936 -4.839,1.423 -4.601,3.98 0.032,0.343 0.128,0.722 0.303,1.146 -1.034,0.81 -2.349,1.266 -3.071,2.301 -0.166,0.237 -0.302,0.506 -0.396,0.816 0.18,0.607 -0.096,1.637 0.403,2.213 0.362,-0.205 0.726,-0.412 1.096,-0.614 -0.005,-0.239 -0.017,-0.462 -0.072,-0.647 0.095,-0.311 0.228,-0.58 0.395,-0.818 0.723,-1.034 2.037,-1.49 3.072,-2.3 -0.175,-0.424 -0.272,-0.803 -0.304,-1.145 -0.236,-2.559 3.123,-3.045 4.6,-3.981 -0.025,-1.559 1.837,-5.757 7.355,-4.54 1.988,-5.432 8.025,-5.475 11.383,-4.319 2.328,-3.064 5.925,-1.392 7.677,-0.012 0.9,-0.647 1.891,-1.532 3.02,-1.812 C -3.308,-1.13 -1.636,-0.883 0,0"
         inkscape:connector-curvature="0" />
    </g>
    <g
       transform="matrix(0.81154617,0,0,-0.86932985,7.470142,22.191976)"
       id="g8069">
      <path
         id="path8071"
         style="fill:#ffffff;fill-opacity:1;fill-rule:nonzero;stroke:none"
         d="m 0,0 c -0.369,-0.198 -0.741,-0.383 -1.107,-0.556 -0.83,-0.268 -1.53,-0.812 -2.273,-1.317 -0.361,1.185 1.137,1.798 1.83,2.542 0.081,-0.037 0.245,-0.151 0.41,-0.267 0.158,0.006 0.02,2.839 0.707,3.784 C 0.122,4.077 0.723,3.937 1.334,3.836 0.465,2.957 -0.053,1.855 -0.053,0.656 -0.053,0.435 -0.034,0.216 0,0"
         inkscape:connector-curvature="0" />
    </g>
    <g
       transform="matrix(0.81154617,0,0,-0.86932985,11.005561,20.687597)"
       id="g8073">
      <path
         id="path8075"
         style="fill:#ffffff;fill-opacity:1;fill-rule:nonzero;stroke:none"
         d="M 0,0 C 0,1.178 0.663,2.134 1.483,2.134 2.304,2.134 2.967,1.178 2.967,0 2.967,-1.177 2.304,-2.131 1.483,-2.131 0.663,-2.131 0,-1.177 0,0"
         inkscape:connector-curvature="0" />
    </g>
    <g
       transform="matrix(0.81154617,0,0,-0.86932985,16.265601,20.687597)"
       id="g8077">
      <path
         id="path8079"
         style="fill:#ffffff;fill-opacity:1;fill-rule:nonzero;stroke:none"
         d="M 0,0 C 0,1.479 1.094,2.677 2.445,2.677 3.795,2.677 4.892,1.479 4.892,0 4.892,-1.478 3.795,-2.675 2.445,-2.675 1.094,-2.675 0,-1.478 0,0"
         inkscape:connector-curvature="0" />
    </g>
    <g
       transform="matrix(0.81154617,0,0,-0.86932985,11.808427,18.938769)"
       id="g8081">
      <path
         id="path8083"
         style="fill:#dce8eb;fill-opacity:1;fill-rule:nonzero;stroke:none"
         d="m 0,0 c 0.155,0.078 0.32,0.122 0.494,0.122 0.82,0 1.484,-0.956 1.484,-2.134 0,-1.176 -0.664,-2.131 -1.484,-2.131 -0.226,0 -0.441,0.073 -0.635,0.205 0.579,0.291 0.992,1.082 0.992,2.011 C 0.851,-1.076 0.503,-0.342 0,0"
         inkscape:connector-curvature="0" />
    </g>
    <g
       transform="matrix(0.81154617,0,0,-0.86932985,17.922694,18.392044)"
       id="g8085">
      <path
         id="path8087"
         style="fill:#dce8eb;fill-opacity:1;fill-rule:nonzero;stroke:none"
         d="m 0,0 c 0.131,0.023 0.267,0.036 0.403,0.036 1.35,0 2.447,-1.197 2.447,-2.677 0,-1.477 -1.097,-2.674 -2.447,-2.674 -0.253,0 -0.496,0.042 -0.726,0.119 1.159,0.21 2.044,1.311 2.044,2.64 C 1.721,-1.354 0.997,-0.338 0,0"
         inkscape:connector-curvature="0" />
    </g>
    <g
       transform="matrix(0.81154617,0,0,-0.86932985,11.786184,20.72324)"
       id="g8089">
      <path
         id="path8091"
         style="fill:#000000;fill-opacity:1;fill-rule:nonzero;stroke:none"
         d="M 0,0 C 0,0.6 0.485,1.086 1.087,1.086 1.687,1.086 2.173,0.6 2.173,0 2.173,-0.6 1.687,-1.086 1.087,-1.086 0.485,-1.086 0,-0.6 0,0"
         inkscape:connector-curvature="0" />
    </g>
    <g
       transform="matrix(0.81154617,0,0,-0.86932985,18.131177,20.704553)"
       id="g8093">
      <path
         id="path8095"
         style="fill:#000000;fill-opacity:1;fill-rule:nonzero;stroke:none"
         d="M 0,0 C 0,0.797 0.646,1.441 1.441,1.441 2.238,1.441 2.883,0.797 2.883,0 2.883,-0.798 2.238,-1.443 1.441,-1.443 0.646,-1.443 0,-0.798 0,0"
         inkscape:connector-curvature="0" />
    </g>
    <g
       transform="matrix(0.81154617,0,0,-0.86932985,11.853549,20.304744)"
       id="g8097">
      <path
         id="path8099"
         style="fill:#ffffff;fill-opacity:1;fill-rule:nonzero;stroke:none"
         d="M 0,0 C 0,0.312 0.253,0.563 0.563,0.563 0.876,0.563 1.128,0.312 1.128,0 1.128,-0.312 0.876,-0.564 0.563,-0.564 0.253,-0.564 0,-0.312 0,0"
         inkscape:connector-curvature="0" />
    </g>
    <g
       transform="matrix(0.81154617,0,0,-0.86932985,18.368148,20.123054)"
       id="g8101">
      <path
         id="path8103"
         style="fill:#ffffff;fill-opacity:1;fill-rule:nonzero;stroke:none"
         d="M 0,0 C 0,0.381 0.309,0.688 0.69,0.688 1.07,0.688 1.379,0.381 1.379,0 1.379,-0.382 1.07,-0.689 0.69,-0.689 0.309,-0.689 0,-0.382 0,0"
         inkscape:connector-curvature="0" />
    </g>
  </g>
</svg>
