<?xml version="1.0" encoding="UTF-8" standalone="no"?>
<!-- Created with Inkscape (http://www.inkscape.org/) -->

<svg
   xmlns:dc="http://purl.org/dc/elements/1.1/"
   xmlns:cc="http://creativecommons.org/ns#"
   xmlns:rdf="http://www.w3.org/1999/02/22-rdf-syntax-ns#"
   xmlns:svg="http://www.w3.org/2000/svg"
   xmlns="http://www.w3.org/2000/svg"
   xmlns:sodipodi="http://sodipodi.sourceforge.net/DTD/sodipodi-0.dtd"
   xmlns:inkscape="http://www.inkscape.org/namespaces/inkscape"
   width="64px"
   height="64px"
   id="svg143123"
   version="1.1"
   inkscape:version="0.48.5 r10040"
   sodipodi:docname="Nowy dokument 23">
  <defs
     id="defs143125">
    <clipPath
       id="clipPath71769"
       clipPathUnits="userSpaceOnUse">
      <path
         inkscape:connector-curvature="0"
         id="path71771"
         d="M 0,800 1600,800 1600,0 0,0 0,800 z" />
    </clipPath>
    <clipPath
       id="clipPath71777"
       clipPathUnits="userSpaceOnUse">
      <path
         inkscape:connector-curvature="0"
         id="path71779"
         d="m 1434.32,55.8164 3.35,0 0,-1.5996 -3.35,0 0,1.5996 z" />
    </clipPath>
    <clipPath
       id="clipPath71793"
       clipPathUnits="userSpaceOnUse">
      <path
         inkscape:connector-curvature="0"
         id="path71795"
         d="m 1450.7,23.7588 2.27,0 0,-0.6846 -2.27,0 0,0.6846 z" />
    </clipPath>
    <clipPath
       id="clipPath71645"
       clipPathUnits="userSpaceOnUse">
      <path
         inkscape:connector-curvature="0"
         id="path71647"
         d="m 1400,11.637 94.5,0 0,89.393 -94.5,0 0,-89.393 z m 29.763,58.621 c -0.046,0.093 -0.117,0.165 -0.196,0.218 l 0,0 c 5.293,2.099 12.235,3.569 21.087,3.569 l 0,0 c 0,0 35.17,0.534 35.17,-23.73 l 0,0 c 0,-21.013 -20.109,-25.104 -30.924,-25.822 l 0,0 c 0.436,-0.312 0.55,-0.588 -0.282,-0.653 l 0,0 c -2.084,-0.165 -5.117,-0.125 -5.117,-0.125 l 0,0 -0.407,0.643 c -8.922,0.107 -25.823,1.394 -32.44,13.824 l 0,0 c 0,0 -1.917,5.215 5.161,4.418 l 0,0 c 7.076,-0.799 9.683,-1.277 9.683,1.222 l 0,0 c 0,0 0.799,2.076 -3.989,4.152 l 0,0 c -4.79,2.074 -11.973,5.213 -11.973,9.576 l 0,0 c 0,2.619 3.493,8.04 11.787,11.953 l 0,0 0.01,-0.014 c -0.049,-0.142 -0.043,-0.301 0.029,-0.445 l 0,0 c 0.105,-0.206 0.317,-0.321 0.533,-0.313 l 0,0 c -0.132,-0.165 -0.164,-0.392 -0.072,-0.592 l 0,0 0,0.002 c 0,-0.008 0,-0.017 0.01,-0.024 l 0,0 c 0.081,-0.163 0.232,-0.269 0.399,-0.299 l 0,0 -0.013,-0.007 0.775,-1.989 c 0.822,-2.113 2.069,-4.726 3.24,-7.05 l 0,0 c 0.917,-1.821 1.788,-3.463 2.371,-4.545 l 0,0 c 0.494,0.015 1.013,0.09 1.54,0.232 l 0,0 c 0.557,0.152 1.068,0.367 1.525,0.625 l 0,0 c -0.486,1.032 -1.393,2.936 -2.461,5.049 l 0,0 c -1.191,2.351 -2.581,4.957 -3.812,6.904 l 0,0 -1.144,1.801 -0.012,-0.006 c 0.073,0.154 0.078,0.337 -0.01,0.502 l 0,0 c -0.104,0.205 -0.314,0.318 -0.531,0.312 l 0,0 c 0.134,0.169 0.167,0.406 0.063,0.612" />
    </clipPath>
    <clipPath
       id="clipPath71693"
       clipPathUnits="userSpaceOnUse">
      <path
         inkscape:connector-curvature="0"
         id="path71695"
         d="m 1421.33,80.8145 6.39,0 0,-11.3653 -6.39,0 0,11.3653 z" />
    </clipPath>
    <clipPath
       id="clipPath71709"
       clipPathUnits="userSpaceOnUse">
      <path
         inkscape:connector-curvature="0"
         id="path71711"
         d="m 1423.57,81.9473 5.87,0 0,-11.6289 -5.87,0 0,11.6289 z" />
    </clipPath>
    <clipPath
       id="clipPath71725"
       clipPathUnits="userSpaceOnUse">
      <path
         inkscape:connector-curvature="0"
         id="path71727"
         d="m 1428.21,67.998 29.16,0 0,-55.4101 -29.16,0 0,55.4101 z" />
    </clipPath>
    <clipPath
       id="clipPath71741"
       clipPathUnits="userSpaceOnUse">
      <path
         inkscape:connector-curvature="0"
         id="path71743"
         d="m 1429.88,68.8438 27.86,0 0,-56.1973 -27.86,0 0,56.1973 z" />
    </clipPath>
    <clipPath
       id="clipPath71017"
       clipPathUnits="userSpaceOnUse">
      <path
         inkscape:connector-curvature="0"
         id="path71019"
         d="M 0,800 1600,800 1600,0 0,0 0,800 z" />
    </clipPath>
    <clipPath
       id="clipPath71033"
       clipPathUnits="userSpaceOnUse">
      <path
         inkscape:connector-curvature="0"
         id="path71035"
         d="m 1419.43,66.1641 63.77,0 0,-34.8125 -63.77,0 0,34.8125 z" />
    </clipPath>
    <clipPath
       id="clipPath71065"
       clipPathUnits="userSpaceOnUse">
      <path
         inkscape:connector-curvature="0"
         id="path71067"
         d="m 1442.75,65.8945 9.21,0 0,-3.2988 -9.21,0 0,3.2988 z" />
    </clipPath>
    <clipPath
       id="clipPath71081"
       clipPathUnits="userSpaceOnUse">
      <path
         inkscape:connector-curvature="0"
         id="path71083"
         d="m 1443.07,70.4824 8.79,0 0,-3.9551 -8.79,0 0,3.9551 z" />
    </clipPath>
    <clipPath
       id="clipPath71097"
       clipPathUnits="userSpaceOnUse">
      <path
         inkscape:connector-curvature="0"
         id="path71099"
         d="m 1444.9,65.4131 4.61,0 0,-1.4541 -4.61,0 0,1.4541 z" />
    </clipPath>
    <clipPath
       id="clipPath71113"
       clipPathUnits="userSpaceOnUse">
      <path
         inkscape:connector-curvature="0"
         id="path71115"
         d="m 1446.06,69.2529 2.66,0 0,-0.7256 -2.66,0 0,0.7256 z" />
    </clipPath>
    <clipPath
       id="clipPath71129"
       clipPathUnits="userSpaceOnUse">
      <path
         inkscape:connector-curvature="0"
         id="path71131"
         d="m 1444.28,68.2188 1.73,0 0,-1.1426 -1.73,0 0,1.1426 z" />
    </clipPath>
    <clipPath
       id="clipPath71157"
       clipPathUnits="userSpaceOnUse">
      <path
         inkscape:connector-curvature="0"
         id="path71159"
         d="m 1458.26,68.3457 4.45,0 0,-7.5957 -4.45,0 0,7.5957 z" />
    </clipPath>
    <clipPath
       id="clipPath71173"
       clipPathUnits="userSpaceOnUse">
      <path
         inkscape:connector-curvature="0"
         id="path71175"
         d="m 1461.57,67.2051 5.98,0 0,-6.6563 -5.98,0 0,6.6563 z" />
    </clipPath>
    <clipPath
       id="clipPath71189"
       clipPathUnits="userSpaceOnUse">
      <path
         inkscape:connector-curvature="0"
         id="path71191"
         d="m 1459.75,66.5107 2.5,0 0,-3.4677 -2.5,0 0,3.4677 z" />
    </clipPath>
    <clipPath
       id="clipPath71205"
       clipPathUnits="userSpaceOnUse">
      <path
         inkscape:connector-curvature="0"
         id="path71207"
         d="m 1464.74,64.21 1.21,0 0,-1.9961 -1.21,0 0,1.9961 z" />
    </clipPath>
    <clipPath
       id="clipPath71221"
       clipPathUnits="userSpaceOnUse">
      <path
         inkscape:connector-curvature="0"
         id="path71223"
         d="m 1464.11,65.9453 1.47,0 0,-1.2187 -1.47,0 0,1.2187 z" />
    </clipPath>
    <clipPath
       id="clipPath71253"
       clipPathUnits="userSpaceOnUse">
      <path
         inkscape:connector-curvature="0"
         id="path71255"
         d="m 1441.32,36.8516 5.93,0 0,-6.9942 -5.93,0 0,6.9942 z" />
    </clipPath>
    <clipPath
       id="clipPath71269"
       clipPathUnits="userSpaceOnUse">
      <path
         inkscape:connector-curvature="0"
         id="path71271"
         d="m 1445.24,37.8809 5.2,0 0,-7.0664 -5.2,0 0,7.0664 z" />
    </clipPath>
    <clipPath
       id="clipPath71285"
       clipPathUnits="userSpaceOnUse">
      <path
         inkscape:connector-curvature="0"
         id="path71287"
         d="m 1443.34,35.334 1.99,0 0,-3.6445 -1.99,0 0,3.6445 z" />
    </clipPath>
    <clipPath
       id="clipPath71301"
       clipPathUnits="userSpaceOnUse">
      <path
         inkscape:connector-curvature="0"
         id="path71303"
         d="m 1448.09,36.4004 1.09,0 0,-2.1309 -1.09,0 0,2.1309 z" />
    </clipPath>
    <clipPath
       id="clipPath71317"
       clipPathUnits="userSpaceOnUse">
      <path
         inkscape:connector-curvature="0"
         id="path71319"
         d="m 1445.82,37.3164 1.11,0 0,-1.543 -1.11,0 0,1.543 z" />
    </clipPath>
    <clipPath
       id="clipPath71349"
       clipPathUnits="userSpaceOnUse">
      <path
         inkscape:connector-curvature="0"
         id="path71351"
         d="m 1458.52,40.2461 4.45,0 0,-7.5957 -4.45,0 0,7.5957 z" />
    </clipPath>
    <clipPath
       id="clipPath71365"
       clipPathUnits="userSpaceOnUse">
      <path
         inkscape:connector-curvature="0"
         id="path71367"
         d="m 1461.83,39.1055 5.98,0 0,-6.6553 -5.98,0 0,6.6553 z" />
    </clipPath>
    <clipPath
       id="clipPath71381"
       clipPathUnits="userSpaceOnUse">
      <path
         inkscape:connector-curvature="0"
         id="path71383"
         d="m 1460.01,38.4111 2.5,0 0,-3.4668 -2.5,0 0,3.4668 z" />
    </clipPath>
    <clipPath
       id="clipPath71397"
       clipPathUnits="userSpaceOnUse">
      <path
         inkscape:connector-curvature="0"
         id="path71399"
         d="m 1465,36.1113 1.21,0 0,-1.9961 -1.21,0 0,1.9961 z" />
    </clipPath>
    <clipPath
       id="clipPath71413"
       clipPathUnits="userSpaceOnUse">
      <path
         inkscape:connector-curvature="0"
         id="path71415"
         d="m 1464.37,37.8467 1.47,0 0,-1.2178 -1.47,0 0,1.2178 z" />
    </clipPath>
    <clipPath
       id="clipPath71445"
       clipPathUnits="userSpaceOnUse">
      <path
         inkscape:connector-curvature="0"
         id="path71447"
         d="m 1470.67,59.6621 5.29,0 0,-9.2783 -5.29,0 0,9.2783 z" />
    </clipPath>
    <clipPath
       id="clipPath71461"
       clipPathUnits="userSpaceOnUse">
      <path
         inkscape:connector-curvature="0"
         id="path71463"
         d="m 1474.6,59.2969 4.73,0 0,-8.8301 -4.73,0 0,8.8301 z" />
    </clipPath>
    <clipPath
       id="clipPath71477"
       clipPathUnits="userSpaceOnUse">
      <path
         inkscape:connector-curvature="0"
         id="path71479"
         d="m 1472.52,57.499 1.75,0 0,-4.6279 -1.75,0 0,4.6279 z" />
    </clipPath>
    <clipPath
       id="clipPath71493"
       clipPathUnits="userSpaceOnUse">
      <path
         inkscape:connector-curvature="0"
         id="path71495"
         d="m 1477.17,56.2461 0.94,0 0,-2.6709 -0.94,0 0,2.6709 z" />
    </clipPath>
    <clipPath
       id="clipPath71509"
       clipPathUnits="userSpaceOnUse">
      <path
         inkscape:connector-curvature="0"
         id="path71511"
         d="m 1475.04,58.0527 1.08,0 0,-1.7265 -1.08,0 0,1.7265 z" />
    </clipPath>
    <clipPath
       id="clipPath71541"
       clipPathUnits="userSpaceOnUse">
      <path
         inkscape:connector-curvature="0"
         id="path71543"
         d="m 1467.57,45.4746 10.76,0 0,-6.0596 -10.76,0 0,6.0596 z" />
    </clipPath>
    <clipPath
       id="clipPath71557"
       clipPathUnits="userSpaceOnUse">
      <path
         inkscape:connector-curvature="0"
         id="path71559"
         d="m 1470.96,46.3711 8.93,0 0,-6.125 -8.93,0 0,6.125 z" />
    </clipPath>
    <clipPath
       id="clipPath71573"
       clipPathUnits="userSpaceOnUse">
      <path
         inkscape:connector-curvature="0"
         id="path71575"
         d="m 1470.59,44.1602 4.28,0 0,-3.1563 -4.28,0 0,3.1563 z" />
    </clipPath>
    <clipPath
       id="clipPath71589"
       clipPathUnits="userSpaceOnUse">
      <path
         inkscape:connector-curvature="0"
         id="path71591"
         d="m 1475.73,45.0898 2.42,0 0,-1.8476 -2.42,0 0,1.8476 z" />
    </clipPath>
    <clipPath
       id="clipPath71605"
       clipPathUnits="userSpaceOnUse">
      <path
         inkscape:connector-curvature="0"
         id="path71607"
         d="m 1472.75,45.8818 1.6,0 0,-1.3369 -1.6,0 0,1.3369 z" />
    </clipPath>
    <clipPath
       id="clipPath71629"
       clipPathUnits="userSpaceOnUse">
      <path
         inkscape:connector-curvature="0"
         id="path71631"
         d="m 1424.36,68.9404 8.97,0 0,-10.8174 -8.97,0 0,10.8174 z" />
    </clipPath>
  </defs>
  <sodipodi:namedview
     id="base"
     pagecolor="#ffffff"
     bordercolor="#666666"
     borderopacity="1.0"
     inkscape:pageopacity="0.0"
     inkscape:pageshadow="2"
     inkscape:zoom="5.5"
     inkscape:cx="32"
     inkscape:cy="32"
     inkscape:current-layer="layer1"
     showgrid="true"
     inkscape:document-units="px"
     inkscape:grid-bbox="true"
     inkscape:window-width="1366"
     inkscape:window-height="706"
     inkscape:window-x="-8"
     inkscape:window-y="-8"
     inkscape:window-maximized="1" />
  <metadata
     id="metadata143128">
    <rdf:RDF>
      <cc:Work
         rdf:about="">
        <dc:format>image/svg+xml</dc:format>
        <dc:type
           rdf:resource="http://purl.org/dc/dcmitype/StillImage" />
        <dc:title></dc:title>
      </cc:Work>
    </rdf:RDF>
  </metadata>
  <g
     id="layer1"
     inkscape:label="Layer 1"
     inkscape:groupmode="layer">
    <g
       id="g71013"
       transform="matrix(0.81801724,0,0,-0.81801724,-1154.0386,73.157653)">
      <g
         id="g71015"
         clip-path="url(#clipPath71017)">
        <g
           id="g71021"
           transform="translate(1436.1309,53.8271)">
          <path
             inkscape:connector-curvature="0"
             d="m 0,0 c -2.382,-0.649 -4.65,0.064 -5.069,1.596 -0.416,1.53 1.175,3.299 3.555,3.948 C 0.869,6.193 3.138,5.479 3.557,3.948 3.973,2.417 2.38,0.649 0,0 m 14.516,19.587 c -25.436,0 -35.119,-12.132 -35.119,-16.496 0,-4.363 7.183,-7.502 11.972,-9.577 4.789,-2.076 3.99,-4.151 3.99,-4.151 0,-2.501 -2.607,-2.022 -9.684,-1.223 -7.076,0.797 -5.161,-4.416 -5.161,-4.416 7.023,-13.197 25.647,-13.836 34.002,-13.836 8.352,0 35.17,1.703 35.17,25.966 0,24.263 -35.17,23.733 -35.17,23.733"
             style="fill:#72583c;fill-opacity:1;fill-rule:nonzero;stroke:none"
             id="path71023" />
        </g>
        <g
           id="g71025"
           transform="translate(1436.1309,54.4658)">
          <path
             inkscape:connector-curvature="0"
             d="m 0,0 c -2.382,-0.649 -4.65,0.065 -5.069,1.597 -0.416,1.53 1.175,3.299 3.555,3.947 C 0.869,6.194 3.138,5.479 3.557,3.948 3.973,2.417 2.38,0.648 0,0 m 14.516,19.585 c -25.436,0 -35.119,-12.132 -35.119,-16.494 0,-4.363 7.183,-7.502 11.972,-9.578 4.789,-2.075 3.99,-4.149 3.99,-4.149 0,-2.502 -2.607,-2.023 -9.684,-1.224 -7.076,0.797 -5.161,-4.416 -5.161,-4.416 7.023,-13.198 25.647,-13.835 34.002,-13.835 8.352,0 35.17,1.702 35.17,25.965 0,24.264 -35.17,23.731 -35.17,23.731"
             style="fill:#ac9d8c;fill-opacity:1;fill-rule:nonzero;stroke:none"
             id="path71027" />
        </g>
        <g
           id="g71029">
          <g
             id="g71031" />
          <g
             id="g71037">
            <g
               style="opacity:0.5"
               clip-path="url(#clipPath71033)"
               id="g71039">
              <g
                 transform="translate(1478.8867,60.6426)"
                 id="g71041">
                <path
                   inkscape:connector-curvature="0"
                   d="m 0,0 c 0,0 -0.183,-0.002 -0.524,-0.006 -0.171,-0.01 -0.381,-0.004 -0.63,0.031 -0.249,0.024 -0.539,0.051 -0.851,0.128 -0.636,0.115 -1.38,0.354 -2.228,0.627 -0.846,0.257 -1.788,0.667 -2.824,0.81 -0.981,0.1 -2.125,-0.291 -3.359,-0.569 -0.31,-0.076 -0.645,-0.117 -0.975,-0.171 -0.328,-0.01 -0.718,-0.055 -1.033,-0.024 -0.707,0.026 -1.296,0.172 -1.78,-0.103 -0.129,-0.058 -0.258,-0.131 -0.386,-0.227 l -0.171,-0.118 -0.195,-0.171 -0.388,-0.346 -0.318,-0.358 c -0.229,-0.224 -0.395,-0.519 -0.591,-0.781 -0.105,-0.133 -0.14,-0.281 -0.215,-0.419 l -0.101,-0.209 -0.026,-0.053 c 0.011,0.054 -0.006,-0.023 -0.008,-0.027 l -0.03,-0.131 c -0.341,-1.237 0.281,-2.541 1.143,-3.609 0.858,-1.097 1.942,-2.026 3.083,-2.878 1.16,-0.88 2.205,-1.835 3.28,-2.634 1.072,-0.801 2.165,-1.489 3.307,-1.842 0.566,-0.193 1.144,-0.256 1.703,-0.291 0.268,0.012 0.58,0.004 0.803,0.045 0.278,0.059 0.55,0.117 0.818,0.175 0.557,0.082 0.98,0.317 1.441,0.459 l 0.317,0.11 0.305,0.187 c 0.184,0.135 0.33,0.262 0.517,0.413 0.17,0.152 0.361,0.261 0.57,0.39 0.2,0.071 0.367,0.162 0.571,0.205 0.404,0.101 0.769,0.119 1.093,0.087 0.648,-0.052 1.131,-0.177 1.471,-0.218 0.34,-0.035 0.521,-0.054 0.521,-0.054 0,0 -0.183,10e-4 -0.526,0.003 -0.342,0.011 -0.846,0.073 -1.472,0.083 -0.312,0.009 -0.66,-0.041 -0.996,-0.149 -0.17,-0.045 -0.352,-0.158 -0.539,-0.24 -0.131,-0.107 -0.311,-0.219 -0.461,-0.378 -0.595,-0.714 -1.658,-1.114 -2.699,-1.425 -0.264,-0.07 -0.535,-0.14 -0.809,-0.213 -0.333,-0.072 -0.609,-0.067 -0.925,-0.095 -0.616,0.007 -1.264,0.051 -1.896,0.234 -1.275,0.332 -2.494,1.019 -3.607,1.845 -1.131,0.815 -2.187,1.754 -3.326,2.591 -1.165,0.845 -2.34,1.806 -3.295,2.998 -0.467,0.604 -0.883,1.271 -1.145,2.027 -0.134,0.373 -0.22,0.773 -0.239,1.182 -0.035,0.394 0.032,0.897 0.125,1.201 0.256,0.814 0.696,1.437 1.207,1.996 l 0.391,0.418 0.397,0.343 0.198,0.169 c 0.114,0.089 0.167,0.115 0.254,0.175 0.152,0.109 0.321,0.203 0.505,0.285 0.355,0.168 0.798,0.253 1.167,0.224 0.381,-0.013 0.682,-0.068 1.01,-0.097 0.34,-0.044 0.601,-0.009 0.915,-0.02 0.305,0.038 0.603,0.059 0.905,0.118 1.207,0.203 2.378,0.589 3.596,0.414 1.13,-0.204 2.018,-0.685 2.846,-1.005 C -3.289,0.78 -2.574,0.49 -1.961,0.334 -1.353,0.169 -0.867,0.061 -0.522,0.045 -0.182,0.016 0,0 0,0"
                   style="fill:#d2b48c;fill-opacity:1;fill-rule:nonzero;stroke:none"
                   id="path71043" />
              </g>
              <g
                 transform="translate(1481.1201,45.0801)"
                 id="g71045">
                <path
                   inkscape:connector-curvature="0"
                   d="m 0,0 c -1.228,-0.375 -2.459,-0.731 -3.692,-1.084 -1.233,-0.352 -2.462,-0.72 -3.701,-1.051 l -0.077,0.518 0.089,0.006 c 0.018,-0.002 0.01,0.009 0.115,-0.008 0.222,-0.919 -0.194,-0.363 -0.042,-0.523 L -7.323,-2.144 -7.349,-2.146 -7.52,-2.164 -7.853,-2.199 c -0.165,-0.023 -0.418,-0.1 -0.632,-0.146 -0.466,-0.136 -0.942,-0.116 -1.377,-0.161 -0.466,0.015 -0.941,-0.011 -1.418,0.07 -0.444,0.059 -0.89,0.132 -1.35,0.258 -0.926,0.229 -1.728,0.463 -2.633,0.727 -0.852,0.29 -1.711,0.558 -2.557,0.866 -0.841,0.306 -1.696,0.667 -2.526,0.927 l -2.584,0.783 -2.587,0.585 -0.645,0.149 -0.643,0.08 -1.34,0.16 c -0.902,0.154 -1.762,0.073 -2.643,0.104 -0.873,0.049 -1.764,-0.102 -2.648,-0.158 C -34.323,2 -35.198,1.797 -36.084,1.69 c -0.884,-0.113 -1.761,-0.299 -2.642,-0.477 -1.746,-0.361 -3.499,-0.827 -5.283,-1.125 -0.891,-0.147 -1.785,-0.297 -2.689,-0.355 -0.9,-0.102 -1.809,-0.072 -2.706,-0.052 0.899,0.063 1.795,0.118 2.679,0.272 0.888,0.117 1.763,0.326 2.634,0.53 1.743,0.425 3.464,0.917 5.224,1.371 0.875,0.216 1.752,0.44 2.649,0.593 0.894,0.157 1.78,0.364 2.692,0.426 0.911,0.069 1.804,0.234 2.735,0.199 0.917,-0.017 1.866,0.067 2.747,-0.073 l 1.343,-0.142 0.697,-0.078 0.673,-0.144 c 0.894,-0.194 1.797,-0.385 2.677,-0.615 l 2.573,-0.819 c 0.883,-0.29 1.683,-0.646 2.529,-0.967 0.84,-0.318 1.697,-0.599 2.544,-0.9 l 2.551,-0.784 c 0.404,-0.132 0.843,-0.224 1.289,-0.302 0.406,-0.088 0.842,-0.084 1.272,-0.118 0.458,0.028 0.895,-0.011 1.303,0.097 0.227,0.038 0.407,0.095 0.69,0.125 l 0.339,0.021 0.165,0.012 0.016,0 0.006,10e-4 c 0.159,-0.159 -0.25,0.398 -0.022,-0.519 0.084,-0.015 0.044,-0.005 0.035,-0.008 l -0.08,-0.002 -2.491,-0.052 2.414,0.57 c 1.247,0.295 2.503,0.555 3.756,0.829 C -2.512,-0.522 -1.259,-0.252 0,0"
                   style="fill:#d2b48c;fill-opacity:1;fill-rule:nonzero;stroke:none"
                   id="path71047" />
              </g>
              <g
                 transform="translate(1424.8516,31.3516)"
                 id="g71049">
                <path
                   inkscape:connector-curvature="0"
                   d="m 0,0 c 0,0 0.195,0.098 0.561,0.281 0.366,0.18 0.908,0.444 1.549,0.85 0.656,0.374 1.429,0.896 2.394,1.37 0.966,0.509 2.125,0.856 3.358,1.27 1.221,0.464 2.622,0.762 4.104,1.099 0.734,0.181 1.508,0.351 2.283,0.448 0.769,0.14 1.59,0.194 2.419,0.269 0.413,0.055 0.838,0.021 1.263,0.029 0.424,-0.016 0.854,0.031 1.283,-0.038 0.872,-0.112 1.72,-0.215 2.559,-0.342 0.853,-0.124 1.712,-0.248 2.575,-0.373 L 24.998,4.77 C 25.28,4.723 25.436,4.652 25.661,4.595 26.078,4.471 26.499,4.36 26.914,4.224 28.561,3.621 30.237,3.141 31.87,2.798 32.694,2.603 33.5,2.566 34.332,2.494 c 0.838,-0.04 1.665,-0.079 2.479,-0.117 1.607,-0.031 3.164,-0.014 4.494,0.525 1.431,0.498 2.647,1.126 3.893,1.613 1.233,0.482 2.47,0.684 3.5,0.858 1.052,0.19 1.984,0.261 2.731,0.379 0.749,0.115 1.33,0.249 1.715,0.385 0.377,0.146 0.572,0.248 0.572,0.248 0,0 -0.184,-0.117 -0.554,-0.297 C 52.787,5.924 52.213,5.726 51.462,5.568 50.71,5.402 49.797,5.276 48.771,5.024 47.726,4.774 46.592,4.521 45.401,4.016 44.23,3.508 42.945,2.791 41.563,2.253 40.113,1.606 38.431,1.518 36.791,1.546 35.973,1.574 35.141,1.604 34.298,1.633 33.457,1.694 32.554,1.729 31.703,1.92 29.978,2.262 28.287,2.724 26.656,3.303 26.245,3.443 25.824,3.56 25.409,3.689 25.214,3.742 24.963,3.838 24.814,3.855 l -0.638,0.1 C 23.322,4.09 22.473,4.223 21.629,4.355 20.792,4.479 19.961,4.6 19.141,4.721 18.738,4.793 18.326,4.75 17.923,4.771 17.519,4.769 17.117,4.808 16.718,4.76 15.919,4.699 15.137,4.646 14.351,4.543 13.561,4.473 12.827,4.338 12.1,4.187 10.649,3.914 9.267,3.679 8.02,3.258 6.764,2.878 5.601,2.606 4.652,2.179 3.684,1.775 2.885,1.305 2.194,0.966 1.524,0.59 0.961,0.388 0.581,0.234 0.202,0.082 0,0 0,0"
                   style="fill:#d2b48c;fill-opacity:1;fill-rule:nonzero;stroke:none"
                   id="path71051" />
              </g>
              <g
                 transform="translate(1470.665,65.0332)"
                 id="g71053">
                <path
                   inkscape:connector-curvature="0"
                   d="M 0,0 C 0,0 -0.206,0.012 -0.591,0.034 -0.976,0.066 -1.543,0.066 -2.259,0.155 -2.975,0.237 -3.844,0.338 -4.841,0.453 -5.338,0.515 -5.866,0.564 -6.422,0.569 -6.99,0.58 -7.54,0.65 -8.162,0.585 c -1.195,-0.071 -2.429,-0.491 -3.705,-1.074 -0.647,-0.285 -1.289,-0.593 -2.01,-0.888 -0.703,-0.254 -1.38,-0.559 -2.163,-0.746 -1.521,-0.484 -3.135,-0.694 -4.8,-0.795 -1.649,-0.037 -3.362,0.303 -4.947,0.502 -1.628,0.227 -3.273,0.506 -4.86,0.764 -1.592,0.234 -3.158,0.468 -4.67,0.476 -0.76,0.057 -1.495,-0.051 -2.221,-0.061 -0.358,-0.05 -0.713,-0.1 -1.064,-0.149 l -0.507,-0.072 -0.519,-0.126 c -0.688,-0.168 -1.363,-0.318 -1.971,-0.542 -0.621,-0.196 -1.22,-0.402 -1.79,-0.639 -1.143,-0.438 -2.182,-0.893 -3.108,-1.274 -0.929,-0.381 -1.745,-0.733 -2.472,-0.86 -0.351,-0.11 -0.691,-0.08 -0.965,-0.097 -0.279,-0.018 -0.518,-10e-4 -0.712,0.012 -0.387,0.023 -0.593,0.035 -0.593,0.035 0,0 0.205,0.006 0.59,0.017 0.192,0.004 0.427,0.008 0.705,0.049 0.281,0.047 0.597,0.037 0.932,0.164 0.691,0.167 1.469,0.565 2.366,1.004 0.901,0.445 1.906,0.967 3.053,1.449 0.562,0.26 1.169,0.497 1.809,0.727 0.635,0.26 1.298,0.435 1.977,0.63 l 0.513,0.147 0.559,0.106 c 0.366,0.066 0.737,0.133 1.112,0.2 0.754,0.054 1.533,0.151 2.316,0.111 1.578,0.011 3.179,-0.208 4.792,-0.425 1.614,-0.24 3.218,-0.488 4.854,-0.697 1.672,-0.232 3.205,-0.57 4.806,-0.558 1.565,0.074 3.138,0.257 4.569,0.694 0.725,0.153 1.441,0.477 2.145,0.69 0.664,0.242 1.346,0.534 2.005,0.793 1.314,0.539 2.668,0.947 3.952,0.969 0.612,0.038 1.242,-0.044 1.796,-0.095 0.57,-0.042 1.099,-0.128 1.594,-0.221 C -3.808,0.625 -2.947,0.469 -2.239,0.34 -1.531,0.211 -0.967,0.147 -0.586,0.086 -0.204,0.029 0,0 0,0"
                   style="fill:#d2b48c;fill-opacity:1;fill-rule:nonzero;stroke:none"
                   id="path71055" />
              </g>
            </g>
          </g>
        </g>
        <g
           id="g71057"
           transform="translate(1449.6133,63.1494)">
          <path
             inkscape:connector-curvature="0"
             d="m 0,0 c -1.705,-0.68 -3.964,-0.878 -5.531,0.245 -2.47,1.77 -1.147,4.502 0.689,6.137 2.35,2.095 4.621,0.355 6.223,-1.615 C 2.354,3.568 2.751,2.638 1.927,1.245 1.621,0.729 0.578,0.347 0,0"
             style="fill:#386b95;fill-opacity:1;fill-rule:nonzero;stroke:none"
             id="path71059" />
        </g>
        <g
           id="g71061">
          <g
             id="g71063" />
          <g
             id="g71069">
            <g
               style="opacity:0.5"
               clip-path="url(#clipPath71065)"
               id="g71071">
              <g
                 transform="translate(1451.5127,64.8672)"
                 id="g71073">
                <path
                   inkscape:connector-curvature="0"
                   d="m 0,0 c -0.31,-0.402 -1.362,-0.699 -1.947,-0.971 -1.723,-0.53 -4.005,-0.685 -5.589,0.192 -0.65,0.358 -1.034,0.768 -1.224,1.199 0.129,-0.684 0.53,-1.336 1.307,-1.893 1.568,-1.123 3.826,-0.924 5.531,-0.245 0.58,0.347 1.62,0.729 1.927,1.245 0.33,0.559 0.462,1.044 0.441,1.5 C 0.427,0.712 0.289,0.378 0,0"
                   style="fill:#386b95;fill-opacity:1;fill-rule:nonzero;stroke:none"
                   id="path71075" />
              </g>
            </g>
          </g>
        </g>
        <g
           id="g71077">
          <g
             id="g71079" />
          <g
             id="g71085">
            <g
               clip-path="url(#clipPath71081)"
               id="g71087">
              <g
                 transform="translate(1444.7002,68.8711)"
                 id="g71089">
                <path
                   inkscape:connector-curvature="0"
                   d="M 0,0 C 2.377,1.634 4.672,0.277 6.288,-1.259 6.693,-1.643 6.996,-1.992 7.159,-2.344 6.998,-1.892 6.697,-1.447 6.299,-0.955 4.698,1.016 2.427,2.755 0.077,0.66 -0.637,0.025 -1.269,-0.775 -1.634,-1.621 -1.256,-1.021 -0.662,-0.455 0,0"
                   style="fill:#386b95;fill-opacity:1;fill-rule:nonzero;stroke:none"
                   id="path71091" />
              </g>
            </g>
          </g>
        </g>
        <g
           id="g71093">
          <g
             id="g71095" />
          <g
             id="g71101">
            <g
               clip-path="url(#clipPath71097)"
               id="g71103">
              <g
                 transform="translate(1449.5098,65)"
                 id="g71105">
                <path
                   inkscape:connector-curvature="0"
                   d="m 0,0 c 0,0 -0.061,-0.057 -0.167,-0.154 -0.118,-0.085 -0.248,-0.246 -0.427,-0.405 -0.1,-0.078 -0.204,-0.17 -0.326,-0.256 -0.147,-0.061 -0.265,-0.165 -0.474,-0.188 -0.151,-0.013 -0.308,-0.024 -0.467,-0.038 -0.172,0.016 -0.354,0.045 -0.534,0.071 -0.183,0.04 -0.315,0.085 -0.48,0.14 -0.158,0.05 -0.31,0.109 -0.455,0.166 -0.291,0.121 -0.543,0.281 -0.745,0.435 -0.206,0.148 -0.339,0.325 -0.421,0.443 -0.077,0.127 -0.112,0.199 -0.112,0.199 0,0 0.062,-0.053 0.172,-0.144 0.106,-0.091 0.279,-0.193 0.488,-0.298 0.205,-0.114 0.471,-0.194 0.747,-0.292 0.14,-0.046 0.286,-0.094 0.435,-0.132 0.141,-0.037 0.322,-0.084 0.456,-0.105 l 0.422,-0.09 c 0.16,0.002 0.318,0.005 0.47,0.009 0.093,0.006 0.236,0.07 0.353,0.092 0.116,0.057 0.225,0.123 0.33,0.178 C -0.314,-0.097 0,0 0,0"
                   style="fill:#386b95;fill-opacity:1;fill-rule:nonzero;stroke:none"
                   id="path71107" />
              </g>
            </g>
          </g>
        </g>
        <g
           id="g71109">
          <g
             id="g71111" />
          <g
             id="g71117">
            <g
               clip-path="url(#clipPath71113)"
               id="g71119">
              <g
                 transform="translate(1446.0576,68.8203)"
                 id="g71121">
                <path
                   inkscape:connector-curvature="0"
                   d="m 0,0 c 0,0 0.163,0.096 0.415,0.194 0.127,0.044 0.264,0.118 0.43,0.155 0.173,0.026 0.343,0.09 0.547,0.083 L 1.698,0.406 C 1.782,0.382 1.864,0.357 1.943,0.334 2.113,0.262 2.266,0.178 2.376,0.085 c 0.242,-0.163 0.281,-0.4 0.285,-0.376 0,0 -0.042,0.021 -0.115,0.061 -0.055,0.046 -0.16,0.068 -0.283,0.107 C 2.149,-0.069 2,-0.073 1.862,-0.023 1.781,-0.008 1.697,0.008 1.611,0.023 1.561,0.015 1.463,0.014 1.392,0.011 1.24,0.039 1.065,-0.004 0.91,-0.01 0.75,-0.029 0.586,-0.029 0.454,-0.039 0.185,-0.037 0,0 0,0"
                   style="fill:#386b95;fill-opacity:1;fill-rule:nonzero;stroke:none"
                   id="path71123" />
              </g>
            </g>
          </g>
        </g>
        <g
           id="g71125">
          <g
             id="g71127" />
          <g
             id="g71133">
            <g
               style="opacity:0.39999396"
               clip-path="url(#clipPath71129)"
               id="g71135">
              <g
                 transform="translate(1446.0088,67.6416)"
                 id="g71137">
                <path
                   inkscape:connector-curvature="0"
                   d="M 0,0 C -0.968,0.63 -2.749,1.096 -0.965,-0.565"
                   style="fill:#5681a5;fill-opacity:1;fill-rule:nonzero;stroke:none"
                   id="path71139" />
              </g>
            </g>
          </g>
        </g>
        <g
           id="g71141"
           transform="translate(1442.8467,63.4492)">
          <path
             inkscape:connector-curvature="0"
             d="m 0,0 c 0,-0.385 -0.313,-0.697 -0.697,-0.697 -0.387,0 -0.698,0.312 -0.698,0.697 0,0.385 0.311,0.697 0.698,0.697 C -0.313,0.697 0,0.385 0,0"
             style="fill:#386b95;fill-opacity:1;fill-rule:nonzero;stroke:none"
             id="path71143" />
        </g>
        <g
           id="g71145"
           transform="translate(1444.042,62.752)">
          <path
             inkscape:connector-curvature="0"
             d="m 0,0 c 0,-0.225 -0.183,-0.406 -0.406,-0.406 -0.225,0 -0.406,0.181 -0.406,0.406 0,0.225 0.181,0.406 0.406,0.406 C -0.183,0.406 0,0.225 0,0"
             style="fill:#386b95;fill-opacity:1;fill-rule:nonzero;stroke:none"
             id="path71147" />
        </g>
        <g
           id="g71149"
           transform="translate(1458.3447,63.7129)">
          <path
             inkscape:connector-curvature="0"
             d="M 0,0 C -0.299,1.619 0.107,3.479 1.829,4.258 4.543,5.484 7.294,3.332 8.647,1.223 10.382,-1.481 7.759,-2.564 5.06,-3.025 3.418,-3.305 2.242,-3.237 0.884,-2.023 0.379,-1.573 0.234,-0.598 0,0"
             style="fill:#c82257;fill-opacity:1;fill-rule:nonzero;stroke:none"
             id="path71151" />
        </g>
        <g
           id="g71153">
          <g
             id="g71155" />
          <g
             id="g71161">
            <g
               style="opacity:0.5"
               clip-path="url(#clipPath71157)"
               id="g71163">
              <g
                 transform="translate(1459.7744,61.5186)"
                 id="g71165">
                <path
                   inkscape:connector-curvature="0"
                   d="M 0,0 C -0.372,0.407 -0.417,1.356 -0.563,1.928 -0.687,3.499 -0.223,5.362 1.221,6.253 1.812,6.62 2.389,6.757 2.935,6.729 2.119,6.905 1.26,6.856 0.406,6.47 -1.316,5.69 -1.723,3.83 -1.423,2.211 -1.188,1.614 -1.046,0.639 -0.541,0.188 0.005,-0.299 0.522,-0.601 1.052,-0.769 0.696,-0.627 0.353,-0.382 0,0"
                   style="fill:#c82257;fill-opacity:1;fill-rule:nonzero;stroke:none"
                   id="path71167" />
              </g>
            </g>
          </g>
        </g>
        <g
           id="g71169">
          <g
             id="g71171" />
          <g
             id="g71177">
            <g
               clip-path="url(#clipPath71173)"
               id="g71179">
              <g
                 transform="translate(1466.2588,65.2578)"
                 id="g71181">
                <path
                   inkscape:connector-curvature="0"
                   d="m 0,0 c 1.201,-2.535 -0.993,-3.792 -3.2,-4.441 -0.553,-0.164 -1.036,-0.261 -1.485,-0.246 0.561,-0.057 1.156,0 1.83,0.113 2.698,0.461 5.322,1.544 3.585,4.247 C 0.207,0.493 -0.532,1.316 -1.395,1.947 -0.814,1.404 -0.335,0.707 0,0"
                   style="fill:#c82257;fill-opacity:1;fill-rule:nonzero;stroke:none"
                   id="path71183" />
              </g>
            </g>
          </g>
        </g>
        <g
           id="g71185">
          <g
             id="g71187" />
          <g
             id="g71193">
            <g
               clip-path="url(#clipPath71189)"
               id="g71195">
              <g
                 transform="translate(1460.4863,63.043)"
                 id="g71197">
                <path
                   inkscape:connector-curvature="0"
                   d="m 0,0 c 0,0 -0.043,0.062 -0.118,0.174 -0.061,0.12 -0.191,0.264 -0.311,0.445 -0.12,0.202 -0.284,0.416 -0.308,0.81 l 0.028,0.212 0.09,0.259 C -0.545,2.053 -0.46,2.193 -0.36,2.322 0.035,2.795 0.542,3.208 0.998,3.357 1.219,3.442 1.42,3.467 1.555,3.467 1.69,3.469 1.766,3.463 1.766,3.463 1.766,3.463 1.695,3.436 1.57,3.387 1.446,3.354 1.286,3.252 1.104,3.143 0.915,3.039 0.734,2.859 0.533,2.685 0.338,2.5 0.146,2.289 -0.031,2.057 -0.122,1.953 -0.199,1.84 -0.263,1.73 L -0.333,1.582 -0.374,1.371 C -0.348,1.303 -0.359,1.164 -0.333,1.059 -0.292,0.941 -0.254,0.832 -0.219,0.73 -0.029,0.303 0,0 0,0"
                   style="fill:#386b95;fill-opacity:1;fill-rule:nonzero;stroke:none"
                   id="path71199" />
              </g>
            </g>
          </g>
        </g>
        <g
           id="g71201">
          <g
             id="g71203" />
          <g
             id="g71209">
            <g
               clip-path="url(#clipPath71205)"
               id="g71211">
              <g
                 transform="translate(1465.8184,64.21)"
                 id="g71213">
                <path
                   inkscape:connector-curvature="0"
                   d="M 0,0 C 0,0 0.052,-0.162 0.086,-0.399 0.096,-0.519 0.139,-0.646 0.129,-0.802 0.115,-0.96 0.121,-1.126 0.044,-1.308 l -0.06,-0.128 C -0.03,-1.464 -0.023,-1.461 -0.057,-1.514 L -0.096,-1.556 C -0.152,-1.613 -0.187,-1.668 -0.26,-1.724 -0.39,-1.84 -0.534,-1.907 -0.654,-1.949 -0.766,-2.01 -0.893,-1.995 -0.965,-1.993 c -0.075,0.005 -0.111,0.014 -0.111,0.014 0,0.017 0.156,0.074 0.301,0.236 0.089,0.065 0.152,0.174 0.235,0.259 0.044,0.032 0.086,0.113 0.131,0.17 l 0.033,0.047 c -0.018,-0.017 0.002,0.022 0.001,0.03 l 0.026,0.09 c 0.023,0.057 0.067,0.102 0.072,0.177 0.013,0.069 0.027,0.136 0.04,0.201 0.031,0.144 0.06,0.278 0.086,0.393 C -0.083,-0.147 0,0 0,0"
                   style="fill:#386b95;fill-opacity:1;fill-rule:nonzero;stroke:none"
                   id="path71215" />
              </g>
            </g>
          </g>
        </g>
        <g
           id="g71217">
          <g
             id="g71219" />
          <g
             id="g71225">
            <g
               style="opacity:0.39999396"
               clip-path="url(#clipPath71221)"
               id="g71227">
              <g
                 transform="translate(1464.4863,64.7266)"
                 id="g71229">
                <path
                   inkscape:connector-curvature="0"
                   d="M 0,0 C 0.992,0.507 2.021,1.722 -0.375,0.991"
                   style="fill:#d04370;fill-opacity:1;fill-rule:nonzero;stroke:none"
                   id="path71231" />
              </g>
            </g>
          </g>
        </g>
        <g
           id="g71233"
           transform="translate(1458.3389,61.7207)">
          <path
             inkscape:connector-curvature="0"
             d="m 0,0 c 0,-0.385 -0.313,-0.697 -0.697,-0.697 -0.385,0 -0.697,0.312 -0.697,0.697 0,0.386 0.312,0.697 0.697,0.697 C -0.313,0.697 0,0.386 0,0"
             style="fill:#c82257;fill-opacity:1;fill-rule:nonzero;stroke:none"
             id="path71235" />
        </g>
        <g
           id="g71237"
           transform="translate(1466.0371,60.75)">
          <path
             inkscape:connector-curvature="0"
             d="m 0,0 c 0,-0.121 -0.099,-0.217 -0.219,-0.217 -0.12,0 -0.218,0.096 -0.218,0.217 0,0.119 0.098,0.218 0.218,0.218 C -0.099,0.218 0,0.119 0,0"
             style="fill:#c82257;fill-opacity:1;fill-rule:nonzero;stroke:none"
             id="path71239" />
        </g>
        <g
           id="g71241"
           transform="translate(1467.9561,66.0996)">
          <path
             inkscape:connector-curvature="0"
             d="m 0,0 c 0,-0.225 -0.182,-0.405 -0.405,-0.405 -0.225,0 -0.407,0.18 -0.407,0.405 0,0.225 0.182,0.406 0.407,0.406 C -0.182,0.406 0,0.225 0,0"
             style="fill:#c82257;fill-opacity:1;fill-rule:nonzero;stroke:none"
             id="path71243" />
        </g>
        <g
           id="g71245"
           transform="translate(1443.3838,30.5693)">
          <path
             inkscape:connector-curvature="0"
             d="M 0,0 C -1.392,0.877 -2.483,2.438 -1.889,4.231 -0.95,7.058 2.495,7.621 4.964,7.186 8.128,6.63 7.144,3.965 5.653,1.669 4.747,0.272 3.902,-0.546 2.087,-0.724 1.414,-0.788 0.599,-0.233 0,0"
             style="fill:#e8e8e8;fill-opacity:1;fill-rule:nonzero;stroke:none"
             id="path71247" />
        </g>
        <g
           id="g71249">
          <g
             id="g71251" />
          <g
             id="g71257">
            <g
               style="opacity:0.5"
               clip-path="url(#clipPath71253)"
               id="g71259">
              <g
                 transform="translate(1445.9678,30.1328)"
                 id="g71261">
                <path
                   inkscape:connector-curvature="0"
                   d="M 0,0 C -0.552,0.002 -1.28,0.613 -1.8,0.893 -3.037,1.868 -4.094,3.471 -3.771,5.137 -3.638,5.82 -3.347,6.336 -2.959,6.719 -3.642,6.238 -4.187,5.574 -4.481,4.684 -5.078,2.891 -3.984,1.33 -2.592,0.453 -1.993,0.221 -1.179,-0.335 -0.505,-0.271 0.223,-0.2 0.794,-0.022 1.277,0.251 0.932,0.086 0.52,-0.001 0,0"
                   style="fill:#e8e8e8;fill-opacity:1;fill-rule:nonzero;stroke:none"
                   id="path71263" />
              </g>
            </g>
          </g>
        </g>
        <g
           id="g71265">
          <g
             id="g71267" />
          <g
             id="g71273">
            <g
               clip-path="url(#clipPath71269)"
               id="g71275">
              <g
                 transform="translate(1447.6143,37.4336)"
                 id="g71277">
                <path
                   inkscape:connector-curvature="0"
                   d="M 0,0 C 2.676,-0.835 2.114,-3.299 1.097,-5.364 0.843,-5.88 0.587,-6.3 0.269,-6.619 0.692,-6.246 1.055,-5.771 1.425,-5.2 2.917,-2.903 3.9,-0.24 0.736,0.316 -0.223,0.486 -1.328,0.502 -2.379,0.295 -1.585,0.354 -0.747,0.233 0,0"
                   style="fill:#e8e8e8;fill-opacity:1;fill-rule:nonzero;stroke:none"
                   id="path71279" />
              </g>
            </g>
          </g>
        </g>
        <g
           id="g71281">
          <g
             id="g71283" />
          <g
             id="g71289">
            <g
               clip-path="url(#clipPath71285)"
               id="g71291">
              <g
                 transform="translate(1445.3301,31.6895)"
                 id="g71293">
                <path
                   inkscape:connector-curvature="0"
                   d="M 0,0 C 0,0 -0.076,0.012 -0.209,0.031 -0.338,0.068 -0.531,0.07 -0.747,0.105 -0.977,0.153 -1.244,0.178 -1.55,0.427 l -0.137,0.164 -0.131,0.242 c -0.062,0.157 -0.108,0.315 -0.136,0.476 -0.078,0.613 -0.038,1.263 0.162,1.701 0.087,0.219 0.204,0.384 0.296,0.482 0.092,0.102 0.146,0.153 0.146,0.153 0,0 -0.027,-0.071 -0.076,-0.196 C -1.485,3.336 -1.52,3.148 -1.563,2.941 -1.615,2.732 -1.605,2.478 -1.613,2.212 -1.61,1.943 -1.586,1.658 -1.535,1.371 -1.52,1.234 -1.488,1.102 -1.451,0.98 L -1.39,0.828 -1.263,0.655 C -1.193,0.627 -1.1,0.525 -1.004,0.473 -0.891,0.424 -0.784,0.377 -0.686,0.335 -0.243,0.184 0,0 0,0"
                   style="fill:#e9e9e9;fill-opacity:1;fill-rule:nonzero;stroke:none"
                   id="path71295" />
              </g>
            </g>
          </g>
        </g>
        <g
           id="g71297">
          <g
             id="g71299" />
          <g
             id="g71305">
            <g
               clip-path="url(#clipPath71301)"
               id="g71307">
              <g
                 transform="translate(1448.0869,36.4004)"
                 id="g71309">
                <path
                   inkscape:connector-curvature="0"
                   d="M 0,0 C 0,0 0.154,-0.072 0.351,-0.208 0.446,-0.281 0.568,-0.336 0.676,-0.449 0.783,-0.566 0.909,-0.674 0.99,-0.854 1.021,-0.947 1.077,-1.01 1.079,-1.125 1.082,-1.206 1.1,-1.268 1.09,-1.359 1.087,-1.533 1.038,-1.684 0.988,-1.801 0.957,-1.924 0.861,-2.008 0.811,-2.06 0.756,-2.111 0.725,-2.131 0.725,-2.131 c -0.013,0.012 0.051,0.164 0.03,0.381 0.012,0.109 -0.026,0.229 -0.03,0.348 0.004,0.055 -0.025,0.14 -0.037,0.213 0.004,0.042 -0.058,0.103 -0.081,0.154 -0.028,0.056 -0.031,0.119 -0.083,0.174 L 0.403,-0.695 C 0.319,-0.575 0.24,-0.463 0.173,-0.365 0.052,-0.161 0,0 0,0"
                   style="fill:#e9e9e9;fill-opacity:1;fill-rule:nonzero;stroke:none"
                   id="path71311" />
              </g>
            </g>
          </g>
        </g>
        <g
           id="g71313">
          <g
             id="g71315" />
          <g
             id="g71321">
            <g
               style="opacity:0.39999396"
               clip-path="url(#clipPath71317)"
               id="g71323">
              <g
                 transform="translate(1446.8037,35.7734)"
                 id="g71325">
                <path
                   inkscape:connector-curvature="0"
                   d="M 0,0 C 0.299,1.07 0.104,2.65 -0.982,0.395"
                   style="fill:#ebebeb;fill-opacity:1;fill-rule:nonzero;stroke:none"
                   id="path71327" />
              </g>
            </g>
          </g>
        </g>
        <g
           id="g71329"
           transform="translate(1444.8457,29.2129)">
          <path
             inkscape:connector-curvature="0"
             d="m 0,0 c 0.282,-0.26 0.301,-0.7 0.038,-0.984 -0.259,-0.284 -0.7,-0.3 -0.981,-0.039 -0.285,0.261 -0.303,0.702 -0.043,0.984 C -0.725,0.244 -0.282,0.262 0,0"
             style="fill:#e8e8e8;fill-opacity:1;fill-rule:nonzero;stroke:none"
             id="path71331" />
        </g>
        <g
           id="g71333"
           transform="translate(1450.7783,34.2148)">
          <path
             inkscape:connector-curvature="0"
             d="m 0,0 c 0.089,-0.082 0.094,-0.219 0.014,-0.307 -0.083,-0.089 -0.221,-0.095 -0.31,-0.012 -0.088,0.081 -0.094,0.218 -0.013,0.307 C -0.227,0.076 -0.089,0.082 0,0"
             style="fill:#e8e8e8;fill-opacity:1;fill-rule:nonzero;stroke:none"
             id="path71335" />
        </g>
        <g
           id="g71337"
           transform="translate(1448.1465,39.2529)">
          <path
             inkscape:connector-curvature="0"
             d="M 0,0 C 0.163,-0.152 0.174,-0.408 0.022,-0.573 -0.13,-0.739 -0.387,-0.749 -0.551,-0.597 -0.715,-0.444 -0.726,-0.188 -0.574,-0.024 -0.422,0.141 -0.167,0.151 0,0"
             style="fill:#e8e8e8;fill-opacity:1;fill-rule:nonzero;stroke:none"
             id="path71339" />
        </g>
        <g
           id="g71341"
           transform="translate(1458.6045,35.6152)">
          <path
             inkscape:connector-curvature="0"
             d="M 0,0 C -0.301,1.616 0.106,3.479 1.829,4.258 4.542,5.484 7.293,3.332 8.647,1.221 10.381,-1.482 7.756,-2.564 5.058,-3.025 3.417,-3.306 2.242,-3.24 0.882,-2.025 0.377,-1.574 0.232,-0.6 0,0"
             style="fill:#2a2a2a;fill-opacity:1;fill-rule:nonzero;stroke:none"
             id="path71343" />
        </g>
        <g
           id="g71345">
          <g
             id="g71347" />
          <g
             id="g71353">
            <g
               style="opacity:0.5"
               clip-path="url(#clipPath71349)"
               id="g71355">
              <g
                 transform="translate(1460.0342,33.4199)"
                 id="g71357">
                <path
                   inkscape:connector-curvature="0"
                   d="M 0,0 C -0.373,0.406 -0.417,1.356 -0.563,1.928 -0.686,3.499 -0.225,5.361 1.22,6.254 1.812,6.618 2.388,6.755 2.934,6.729 2.117,6.906 1.259,6.855 0.406,6.469 -1.318,5.691 -1.724,3.83 -1.425,2.211 -1.188,1.614 -1.046,0.639 -0.542,0.187 0.004,-0.301 0.52,-0.601 1.05,-0.77 0.694,-0.627 0.352,-0.384 0,0"
                   style="fill:#2a2a2a;fill-opacity:1;fill-rule:nonzero;stroke:none"
                   id="path71359" />
              </g>
            </g>
          </g>
        </g>
        <g
           id="g71361">
          <g
             id="g71363" />
          <g
             id="g71369">
            <g
               clip-path="url(#clipPath71365)"
               id="g71371">
              <g
                 transform="translate(1466.5166,37.1582)"
                 id="g71373">
                <path
                   inkscape:connector-curvature="0"
                   d="m 0,0 c 1.201,-2.533 -0.99,-3.791 -3.199,-4.441 -0.554,-0.163 -1.035,-0.26 -1.486,-0.245 0.562,-0.056 1.157,-0.003 1.83,0.112 2.698,0.463 5.322,1.544 3.587,4.248 C 0.207,0.492 -0.53,1.316 -1.394,1.947 -0.814,1.406 -0.334,0.709 0,0"
                   style="fill:#2a2a2a;fill-opacity:1;fill-rule:nonzero;stroke:none"
                   id="path71375" />
              </g>
            </g>
          </g>
        </g>
        <g
           id="g71377">
          <g
             id="g71379" />
          <g
             id="g71385">
            <g
               clip-path="url(#clipPath71381)"
               id="g71387">
              <g
                 transform="translate(1460.7441,34.9443)"
                 id="g71389">
                <path
                   inkscape:connector-curvature="0"
                   d="m 0,0 c 0,0 -0.043,0.063 -0.118,0.175 -0.061,0.119 -0.19,0.263 -0.311,0.445 -0.119,0.201 -0.282,0.418 -0.305,0.809 l 0.026,0.213 0.091,0.259 c 0.073,0.153 0.158,0.293 0.257,0.422 0.397,0.473 0.903,0.885 1.36,1.034 0.221,0.085 0.421,0.11 0.556,0.11 0.135,10e-4 0.211,-0.005 0.211,-0.005 0,0 -0.072,-0.027 -0.195,-0.076 C 1.447,3.353 1.287,3.251 1.104,3.143 0.916,3.038 0.735,2.859 0.535,2.685 0.339,2.501 0.147,2.29 -0.03,2.058 -0.121,1.954 -0.197,1.841 -0.261,1.731 l -0.07,-0.147 -0.04,-0.21 C -0.346,1.301 -0.356,1.165 -0.332,1.059 -0.291,0.942 -0.253,0.833 -0.218,0.731 -0.029,0.303 0,0 0,0"
                   style="fill:#323232;fill-opacity:1;fill-rule:nonzero;stroke:none"
                   id="path71391" />
              </g>
            </g>
          </g>
        </g>
        <g
           id="g71393">
          <g
             id="g71395" />
          <g
             id="g71401">
            <g
               clip-path="url(#clipPath71397)"
               id="g71403">
              <g
                 transform="translate(1466.0771,36.1113)"
                 id="g71405">
                <path
                   inkscape:connector-curvature="0"
                   d="M 0,0 C 0,0 0.052,-0.162 0.086,-0.399 0.097,-0.52 0.14,-0.646 0.129,-0.803 0.116,-0.961 0.122,-1.127 0.046,-1.309 l -0.059,-0.127 c -0.015,-0.029 -0.008,-0.025 -0.043,-0.079 l -0.039,-0.043 c -0.057,-0.056 -0.091,-0.111 -0.164,-0.167 -0.13,-0.115 -0.275,-0.181 -0.394,-0.224 -0.112,-0.061 -0.239,-0.046 -0.311,-0.044 -0.075,0.005 -0.111,0.014 -0.111,0.014 0,0.017 0.156,0.073 0.301,0.236 0.089,0.065 0.152,0.174 0.236,0.259 0.043,0.033 0.086,0.113 0.131,0.17 l 0.033,0.046 c -0.02,-0.019 0.002,0.022 0.001,0.029 l 0.025,0.09 c 0.023,0.058 0.067,0.103 0.072,0.178 0.013,0.069 0.027,0.137 0.039,0.201 0.032,0.145 0.061,0.279 0.087,0.393 C -0.083,-0.148 0,0 0,0"
                   style="fill:#323232;fill-opacity:1;fill-rule:nonzero;stroke:none"
                   id="path71407" />
              </g>
            </g>
          </g>
        </g>
        <g
           id="g71409">
          <g
             id="g71411" />
          <g
             id="g71417">
            <g
               style="opacity:0.39999396"
               clip-path="url(#clipPath71413)"
               id="g71419">
              <g
                 transform="translate(1464.7461,36.6289)"
                 id="g71421">
                <path
                   inkscape:connector-curvature="0"
                   d="M 0,0 C 0.991,0.506 2.02,1.721 -0.376,0.99"
                   style="fill:#4a4a4a;fill-opacity:1;fill-rule:nonzero;stroke:none"
                   id="path71423" />
              </g>
            </g>
          </g>
        </g>
        <g
           id="g71425"
           transform="translate(1458.5977,33.6211)">
          <path
             inkscape:connector-curvature="0"
             d="m 0,0 c 0,-0.385 -0.312,-0.697 -0.697,-0.697 -0.385,0 -0.698,0.312 -0.698,0.697 0,0.385 0.313,0.697 0.698,0.697 C -0.312,0.697 0,0.385 0,0"
             style="fill:#2a2a2a;fill-opacity:1;fill-rule:nonzero;stroke:none"
             id="path71427" />
        </g>
        <g
           id="g71429"
           transform="translate(1466.2959,32.6504)">
          <path
             inkscape:connector-curvature="0"
             d="m 0,0 c 0,-0.119 -0.099,-0.219 -0.219,-0.219 -0.119,0 -0.218,0.1 -0.218,0.219 0,0.121 0.099,0.219 0.218,0.219 C -0.099,0.219 0,0.121 0,0"
             style="fill:#2a2a2a;fill-opacity:1;fill-rule:nonzero;stroke:none"
             id="path71431" />
        </g>
        <g
           id="g71433"
           transform="translate(1468.2139,38.001)">
          <path
             inkscape:connector-curvature="0"
             d="m 0,0 c 0,-0.225 -0.182,-0.405 -0.405,-0.405 -0.224,0 -0.405,0.18 -0.405,0.405 0,0.224 0.181,0.405 0.405,0.405 C -0.182,0.405 0,0.224 0,0"
             style="fill:#2a2a2a;fill-opacity:1;fill-rule:nonzero;stroke:none"
             id="path71435" />
        </g>
        <g
           id="g71437"
           transform="translate(1472.374,52.8154)">
          <path
             inkscape:connector-curvature="0"
             d="M 0,0 C -1.239,1.733 -2.15,4.013 -1.47,5.561 -0.396,7.999 2.861,6.597 5.136,4.705 8.049,2.286 6.944,0.046 5.393,-1.515 4.449,-2.463 3.603,-2.837 1.896,-1.97 1.264,-1.649 0.541,-0.592 0,0"
             style="fill:#597f5c;fill-opacity:1;fill-rule:nonzero;stroke:none"
             id="path71439" />
        </g>
        <g
           id="g71441">
          <g
             id="g71443" />
          <g
             id="g71449">
            <g
               style="opacity:0.5"
               clip-path="url(#clipPath71445)"
               id="g71451">
              <g
                 transform="translate(1474.7539,50.8604)"
                 id="g71453">
                <path
                   inkscape:connector-curvature="0"
                   d="m 0,0 c -0.515,0.32 -1.153,1.387 -1.616,1.983 -1.089,1.746 -1.962,4.049 -1.543,5.62 0.17,0.642 0.477,1.02 0.867,1.199 C -2.963,8.691 -3.519,8.307 -3.855,7.538 -4.537,5.99 -3.625,3.71 -2.387,1.978 -1.846,1.386 -1.124,0.327 -0.49,0.007 0.193,-0.341 0.738,-0.486 1.209,-0.476 0.875,-0.45 0.484,-0.304 0,0"
                   style="fill:#597f5c;fill-opacity:1;fill-rule:nonzero;stroke:none"
                   id="path71455" />
              </g>
            </g>
          </g>
        </g>
        <g
           id="g71457">
          <g
             id="g71459" />
          <g
             id="g71465">
            <g
               clip-path="url(#clipPath71461)"
               id="g71467">
              <g
                 transform="translate(1476.8008,57.6094)"
                 id="g71469">
                <path
                   inkscape:connector-curvature="0"
                   d="m 0,0 c 2.439,-2.434 1.743,-4.708 0.647,-6.295 -0.272,-0.398 -0.541,-0.694 -0.859,-0.848 0.421,0.15 0.793,0.441 1.179,0.829 1.553,1.561 2.657,3.8 -0.257,6.22 C -0.173,0.641 -1.205,1.297 -2.198,1.687 -1.455,1.291 -0.681,0.68 0,0"
                   style="fill:#597f5c;fill-opacity:1;fill-rule:nonzero;stroke:none"
                   id="path71471" />
              </g>
            </g>
          </g>
        </g>
        <g
           id="g71473">
          <g
             id="g71475" />
          <g
             id="g71481">
            <g
               clip-path="url(#clipPath71477)"
               id="g71483">
              <g
                 transform="translate(1474.2676,52.8711)"
                 id="g71485">
                <path
                   inkscape:connector-curvature="0"
                   d="m 0,0 c 0,0 -0.068,0.05 -0.187,0.137 -0.11,0.097 -0.29,0.213 -0.484,0.361 -0.183,0.164 -0.449,0.321 -0.64,0.611 -0.05,0.08 -0.104,0.114 -0.153,0.235 L -1.553,1.57 c -0.061,0.151 -0.129,0.299 -0.148,0.493 -0.019,0.177 -0.051,0.384 -0.043,0.539 -0.002,0.16 0.006,0.333 0.015,0.492 0.018,0.322 0.106,0.619 0.188,0.865 0.094,0.249 0.239,0.425 0.344,0.531 0.123,0.095 0.191,0.138 0.191,0.138 0,0 -0.046,-0.069 -0.126,-0.191 C -1.204,4.315 -1.26,4.123 -1.308,3.894 -1.351,3.658 -1.354,3.38 -1.356,3.079 -1.355,2.928 -1.354,2.779 -1.343,2.613 -1.34,2.439 -1.302,2.32 -1.285,2.168 -1.291,2.025 -1.231,1.865 -1.178,1.709 l 0.076,-0.23 C -1.1,1.448 -1.031,1.368 -1.001,1.316 -0.864,1.073 -0.666,0.861 -0.504,0.672 -0.159,0.298 0,0 0,0"
                   style="fill:#597f5c;fill-opacity:1;fill-rule:nonzero;stroke:none"
                   id="path71487" />
              </g>
            </g>
          </g>
        </g>
        <g
           id="g71489">
          <g
             id="g71491" />
          <g
             id="g71497">
            <g
               clip-path="url(#clipPath71493)"
               id="g71499">
              <g
                 transform="translate(1477.1689,56.2461)"
                 id="g71501">
                <path
                   inkscape:connector-curvature="0"
                   d="M 0,0 C 0,0 0.142,-0.133 0.308,-0.354 0.386,-0.465 0.495,-0.586 0.581,-0.73 0.662,-0.885 0.756,-1.047 0.835,-1.225 0.874,-1.412 0.95,-1.629 0.938,-1.799 0.942,-2 0.884,-2.154 0.841,-2.298 0.798,-2.438 0.709,-2.544 0.648,-2.605 0.578,-2.664 0.524,-2.667 0.528,-2.671 c 0.01,0.004 0.095,0.158 0.075,0.419 0.005,0.123 -0.021,0.285 -0.036,0.422 -0.008,0.174 -0.09,0.293 -0.134,0.457 C 0.381,-1.214 0.31,-1.053 0.249,-0.9 0.177,-0.745 0.138,-0.586 0.09,-0.458 0.018,-0.191 0,0 0,0"
                   style="fill:#597f5c;fill-opacity:1;fill-rule:nonzero;stroke:none"
                   id="path71503" />
              </g>
            </g>
          </g>
        </g>
        <g
           id="g71505">
          <g
             id="g71507" />
          <g
             id="g71513">
            <g
               style="opacity:0.39999396"
               clip-path="url(#clipPath71509)"
               id="g71515">
              <g
                 transform="translate(1475.9277,56.3262)"
                 id="g71517">
                <path
                   inkscape:connector-curvature="0"
                   d="M 0,0 C 0.355,0.955 0.284,2.737 -0.888,0.986"
                   style="fill:#729275;fill-opacity:1;fill-rule:nonzero;stroke:none"
                   id="path71519" />
              </g>
            </g>
          </g>
        </g>
        <g
           id="g71521"
           transform="translate(1481.418,54.1855)">
          <path
             inkscape:connector-curvature="0"
             d="m 0,0 c 0,-0.385 -0.312,-0.697 -0.697,-0.697 -0.386,0 -0.698,0.312 -0.698,0.697 0,0.385 0.312,0.696 0.698,0.696 C -0.312,0.696 0,0.385 0,0"
             style="fill:#597f5c;fill-opacity:1;fill-rule:nonzero;stroke:none"
             id="path71523" />
        </g>
        <g
           id="g71525"
           transform="translate(1477.7666,58.5137)">
          <path
             inkscape:connector-curvature="0"
             d="m 0,0 c 0,-0.121 -0.099,-0.218 -0.219,-0.218 -0.121,0 -0.218,0.097 -0.218,0.218 0,0.121 0.097,0.217 0.218,0.217 C -0.099,0.217 0,0.121 0,0"
             style="fill:#597f5c;fill-opacity:1;fill-rule:nonzero;stroke:none"
             id="path71527" />
        </g>
        <g
           id="g71529"
           transform="translate(1478.9482,58.0527)">
          <path
             inkscape:connector-curvature="0"
             d="m 0,0 c 0,-0.225 -0.183,-0.406 -0.404,-0.406 -0.226,0 -0.408,0.181 -0.408,0.406 0,0.224 0.182,0.404 0.408,0.404 C -0.183,0.404 0,0.224 0,0"
             style="fill:#597f5c;fill-opacity:1;fill-rule:nonzero;stroke:none"
             id="path71531" />
        </g>
        <g
           id="g71533"
           transform="translate(1472.8867,40.0293)">
          <path
             inkscape:connector-curvature="0"
             d="M 0,0 C -2.473,0.76 -4.957,2.111 -5.258,3.666 -5.732,6.117 -1.326,6.609 2.354,6.234 7.07,5.756 7.38,3.445 6.759,1.453 6.383,0.242 5.726,-0.468 3.333,-0.623 2.444,-0.682 0.972,-0.2 0,0"
             style="fill:#ebd467;fill-opacity:1;fill-rule:nonzero;stroke:none"
             id="path71535" />
        </g>
        <g
           id="g71537">
          <g
             id="g71539" />
          <g
             id="g71545">
            <g
               style="opacity:0.5"
               clip-path="url(#clipPath71541)"
               id="g71547">
              <g
                 transform="translate(1476.7256,39.6553)"
                 id="g71549">
                <path
                   inkscape:connector-curvature="0"
                   d="m 0,0 c -0.763,0.001 -2.151,0.529 -3.043,0.771 -2.32,0.844 -4.781,2.232 -5.375,3.677 -0.247,0.591 -0.17,1.038 0.128,1.371 -0.644,-0.417 -0.979,-0.994 -0.828,-1.765 0.3,-1.555 2.786,-2.907 5.257,-3.665 0.972,-0.201 2.444,-0.681 3.334,-0.624 0.96,0.062 1.636,0.215 2.131,0.454 C 1.231,0.075 0.718,0 0,0"
                   style="fill:#ebd467;fill-opacity:1;fill-rule:nonzero;stroke:none"
                   id="path71551" />
              </g>
            </g>
          </g>
        </g>
        <g
           id="g71553">
          <g
             id="g71555" />
          <g
             id="g71561">
            <g
               clip-path="url(#clipPath71557)"
               id="g71563">
              <g
                 transform="translate(1474.4277,45.9854)"
                 id="g71565">
                <path
                   inkscape:connector-curvature="0"
                   d="M 0,0 C 4.218,-0.722 4.985,-2.858 4.871,-4.648 4.843,-5.097 4.754,-5.46 4.517,-5.739 c 0.349,0.324 0.552,0.736 0.706,1.233 0.621,1.993 0.311,4.302 -4.404,4.78 C -0.611,0.421 -2.147,0.433 -3.467,0.252 -2.41,0.305 -1.178,0.2 0,0"
                   style="fill:#ebd467;fill-opacity:1;fill-rule:nonzero;stroke:none"
                   id="path71567" />
              </g>
            </g>
          </g>
        </g>
        <g
           id="g71569">
          <g
             id="g71571" />
          <g
             id="g71577">
            <g
               clip-path="url(#clipPath71573)"
               id="g71579">
              <g
                 transform="translate(1474.8711,41.0039)"
                 id="g71581">
                <path
                   inkscape:connector-curvature="0"
                   d="m 0,0 c 0,0 -0.093,0.001 -0.255,0.003 -0.16,0.006 -0.39,0.015 -0.665,0.024 -0.137,0.01 -0.285,0.02 -0.442,0.031 -0.16,0.02 -0.33,0.014 -0.504,0.067 C -2.048,0.184 -2.21,0.204 -2.423,0.302 -2.58,0.387 -2.74,0.475 -2.9,0.561 c -0.156,0.107 -0.302,0.267 -0.447,0.398 -0.155,0.148 -0.241,0.267 -0.36,0.414 -0.224,0.277 -0.379,0.576 -0.481,0.85 -0.119,0.269 -0.094,0.535 -0.071,0.697 0.067,0.16 0.113,0.236 0.113,0.236 0,0 -0.008,-0.09 -0.023,-0.246 0.018,-0.155 0.077,-0.356 0.217,-0.577 0.122,-0.226 0.336,-0.455 0.552,-0.699 0.101,-0.114 0.239,-0.272 0.353,-0.361 0.129,-0.1 0.23,-0.216 0.377,-0.31 L -2.207,0.677 C -2.098,0.619 -1.907,0.568 -1.768,0.516 -1.452,0.432 -1.15,0.342 -0.876,0.284 -0.337,0.156 0,0 0,0"
                   style="fill:#597f5c;fill-opacity:1;fill-rule:nonzero;stroke:none"
                   id="path71583" />
              </g>
            </g>
          </g>
        </g>
        <g
           id="g71585">
          <g
             id="g71587" />
          <g
             id="g71593">
            <g
               clip-path="url(#clipPath71589)"
               id="g71595">
              <g
                 transform="translate(1475.7256,45.0898)"
                 id="g71597">
                <path
                   inkscape:connector-curvature="0"
                   d="M 0,0 C 0,0 0.212,-0.016 0.507,-0.09 0.651,-0.134 0.828,-0.162 1.001,-0.227 1.175,-0.291 1.366,-0.379 1.556,-0.457 1.646,-0.502 1.733,-0.58 1.82,-0.641 1.906,-0.709 1.99,-0.756 2.07,-0.838 2.133,-0.896 2.202,-1 2.245,-1.078 2.292,-1.159 2.329,-1.24 2.36,-1.314 2.421,-1.469 2.437,-1.614 2.412,-1.717 2.391,-1.817 2.325,-1.846 2.336,-1.848 2.331,-1.846 2.353,-1.789 2.321,-1.717 2.309,-1.643 2.216,-1.553 2.136,-1.447 2.044,-1.333 1.924,-1.246 1.793,-1.13 1.659,-1.043 1.5,-0.948 1.337,-0.865 1.167,-0.774 1.006,-0.678 0.837,-0.594 0.668,-0.512 0.524,-0.404 0.396,-0.326 0.149,-0.15 0,0 0,0"
                   style="fill:#597f5c;fill-opacity:1;fill-rule:nonzero;stroke:none"
                   id="path71599" />
              </g>
            </g>
          </g>
        </g>
        <g
           id="g71601">
          <g
             id="g71603" />
          <g
             id="g71609">
            <g
               style="opacity:0.39999396"
               clip-path="url(#clipPath71605)"
               id="g71611">
              <g
                 transform="translate(1474.3486,44.5449)"
                 id="g71613">
                <path
                   inkscape:connector-curvature="0"
                   d="M 0,0 C -0.256,0.928 -1.515,2.299 -1.604,0.34"
                   style="fill:#eedb7e;fill-opacity:1;fill-rule:nonzero;stroke:none"
                   id="path71615" />
              </g>
            </g>
          </g>
        </g>
        <g
           id="g71617"
           transform="translate(1465.0059,44.5557)">
          <path
             inkscape:connector-curvature="0"
             d="M 0,0 C 0.005,0.164 0.146,0.293 0.31,0.288 0.476,0.281 0.604,0.143 0.597,-0.022 0.592,-0.188 0.454,-0.317 0.287,-0.31 0.123,-0.304 -0.006,-0.166 0,0"
             style="fill:#ebd467;fill-opacity:1;fill-rule:nonzero;stroke:none"
             id="path71619" />
        </g>
        <g
           id="g71621"
           transform="translate(1466.0361,44.5645)">
          <path
             inkscape:connector-curvature="0"
             d="M 0,0 C 0.01,0.309 0.27,0.547 0.576,0.536 0.883,0.525 1.122,0.266 1.112,-0.041 1.101,-0.35 0.842,-0.588 0.534,-0.576 0.228,-0.564 -0.013,-0.308 0,0"
             style="fill:#ebd467;fill-opacity:1;fill-rule:nonzero;stroke:none"
             id="path71623" />
        </g>
        <g
           id="g71625">
          <g
             id="g71627" />
          <g
             id="g71633">
            <g
               style="opacity:0.30000299"
               clip-path="url(#clipPath71629)"
               id="g71635">
              <g
                 transform="translate(1432.1973,58.123)"
                 id="g71637">
                <path
                   inkscape:connector-curvature="0"
                   d="m 0,0 -0.125,0.527 -7.714,9.277 1.8,1.013 L 1.132,1.062 0,0 z"
                   style="fill:#72583c;fill-opacity:1;fill-rule:nonzero;stroke:none"
                   id="path71639" />
              </g>
            </g>
          </g>
        </g>
      </g>
    </g>
    <g
       id="g71641"
       transform="matrix(0.81801724,0,0,-0.81801724,-1154.0386,73.157653)">
      <g
         id="g71643"
         clip-path="url(#clipPath71645)">
        <g
           id="g71649"
           transform="translate(1422.6875,81.2598)">
          <path
             inkscape:connector-curvature="0"
             d="m 0,0 -1.359,-0.687 6.019,-11.124 1.043,0.529 1.045,0.527 L 1.361,0.687 0,0 z"
             style="fill:#bdbcbc;fill-opacity:1;fill-rule:nonzero;stroke:none"
             id="path71651" />
        </g>
        <g
           id="g71653"
           transform="translate(1429.7539,70.2656)">
          <path
             inkscape:connector-curvature="0"
             d="m 0,0 c 0.145,-0.282 0.03,-0.627 -0.252,-0.77 l -1.382,-0.699 c -0.282,-0.142 -0.628,-0.029 -0.769,0.252 -0.141,0.283 -0.029,0.627 0.253,0.77 l 1.382,0.699 C -0.484,0.395 -0.141,0.28 0,0"
             style="fill:#bdbcbc;fill-opacity:1;fill-rule:nonzero;stroke:none"
             id="path71655" />
        </g>
        <g
           id="g71657"
           transform="translate(1427.6768,69.6748)">
          <path
             inkscape:connector-curvature="0"
             d="M 0,0 1.382,0.7 C 1.663,0.843 1.976,0.792 2.077,0.591 1.937,0.871 1.593,0.985 1.31,0.843 L -0.073,0.144 C -0.354,0.001 -0.467,-0.343 -0.326,-0.626 -0.429,-0.422 -0.283,-0.143 0,0"
             style="fill:#d3d2d2;fill-opacity:1;fill-rule:nonzero;stroke:none"
             id="path71659" />
        </g>
        <g
           id="g71661"
           transform="translate(1430.2236,69.3389)">
          <path
             inkscape:connector-curvature="0"
             d="m 0,0 c 0.143,-0.282 0.028,-0.625 -0.254,-0.77 l -1.382,-0.698 c -0.281,-0.142 -0.626,-0.029 -0.767,0.253 -0.143,0.282 -0.031,0.626 0.25,0.768 l 1.383,0.7 C -0.486,0.396 -0.143,0.282 0,0"
             style="fill:#bdbcbc;fill-opacity:1;fill-rule:nonzero;stroke:none"
             id="path71663" />
        </g>
        <g
           id="g71665"
           transform="translate(1428.1426,68.75)">
          <path
             inkscape:connector-curvature="0"
             d="M 0,0 1.384,0.698 C 1.666,0.84 1.977,0.792 2.079,0.589 1.938,0.871 1.595,0.984 1.312,0.842 l -1.384,-0.7 C -0.353,0 -0.466,-0.345 -0.325,-0.626 -0.427,-0.424 -0.281,-0.143 0,0"
             style="fill:#d3d2d2;fill-opacity:1;fill-rule:nonzero;stroke:none"
             id="path71667" />
        </g>
        <g
           id="g71669"
           transform="translate(1429.8984,68.7139)">
          <path
             inkscape:connector-curvature="0"
             d="m 0,0 -1.383,-0.7 c -0.282,-0.143 -0.595,-0.093 -0.698,0.11 0.144,-0.282 0.488,-0.395 0.77,-0.253 l 1.382,0.698 C 0.354,-0.002 0.468,0.343 0.323,0.625 0.428,0.422 0.282,0.141 0,0"
             style="fill:#888687;fill-opacity:1;fill-rule:nonzero;stroke:none"
             id="path71671" />
        </g>
        <g
           id="g71673"
           transform="translate(1429.4316,69.6387)">
          <path
             inkscape:connector-curvature="0"
             d="m 0,0 -1.384,-0.698 c -0.282,-0.143 -0.593,-0.095 -0.697,0.108 0.142,-0.281 0.487,-0.394 0.769,-0.252 L 0.07,-0.143 C 0.353,0 0.467,0.345 0.322,0.627 0.427,0.424 0.281,0.143 0,0"
             style="fill:#888687;fill-opacity:1;fill-rule:nonzero;stroke:none"
             id="path71675" />
        </g>
        <g
           id="g71677"
           transform="translate(1429.7822,69.3799)">
          <path
             inkscape:connector-curvature="0"
             d="m 0,0 c 0.026,-0.05 0.006,-0.11 -0.044,-0.135 l -1.557,-0.788 c -0.048,-0.024 -0.111,-0.005 -0.134,0.045 -0.027,0.05 -0.006,0.111 0.044,0.137 l 1.555,0.787 C -0.085,0.071 -0.024,0.05 0,0"
             style="fill:#deddde;fill-opacity:1;fill-rule:nonzero;stroke:none"
             id="path71679" />
        </g>
        <g
           id="g71681"
           transform="translate(1429.3301,70.2773)">
          <path
             inkscape:connector-curvature="0"
             d="M 0,0 C 0.027,-0.049 0.006,-0.109 -0.043,-0.137 L -1.6,-0.922 c -0.049,-0.025 -0.111,-0.006 -0.137,0.045 -0.025,0.049 -0.004,0.111 0.046,0.136 l 1.555,0.787 C -0.088,0.07 -0.025,0.05 0,0"
             style="fill:#deddde;fill-opacity:1;fill-rule:nonzero;stroke:none"
             id="path71683" />
        </g>
        <g
           id="g71685"
           transform="translate(1431.3848,67.043)">
          <path
             inkscape:connector-curvature="0"
             d="M 0,0 -1.145,1.803 -2.16,1.287 -3.178,0.772 -2.404,-1.216 c 1.962,-5.03 6.332,-12.923 6.332,-12.923 0,0 20.313,-38.552 20.834,-39.582 0.521,-1.029 1.221,-0.675 1.221,-0.675 0,0 0.703,0.355 0.182,1.384 -0.521,1.031 -19.516,40.249 -19.516,40.249 0,0 -3.763,8.2 -6.649,12.763"
             style="fill:#8b4d47;fill-opacity:1;fill-rule:nonzero;stroke:none"
             id="path71687" />
        </g>
        <g
           id="g71689">
          <g
             id="g71691" />
          <g
             id="g71697">
            <g
               style="opacity:0.5"
               clip-path="url(#clipPath71693)"
               id="g71699">
              <g
                 transform="translate(1427.7158,69.6367)"
                 id="g71701">
                <path
                   inkscape:connector-curvature="0"
                   d="M 0,0 -5.907,11.178 -6.388,10.936 -0.37,-0.187 0,0 z"
                   style="fill:#bdbcbc;fill-opacity:1;fill-rule:nonzero;stroke:none"
                   id="path71703" />
              </g>
            </g>
          </g>
        </g>
        <g
           id="g71705">
          <g
             id="g71707" />
          <g
             id="g71713">
            <g
               style="opacity:0.30000299"
               clip-path="url(#clipPath71709)"
               id="g71715">
              <g
                 transform="translate(1429.4355,70.5049)"
                 id="g71717">
                <path
                   inkscape:connector-curvature="0"
                   d="M 0,0 -5.387,11.442 -5.868,11.199 -0.371,-0.187 0,0 z"
                   style="fill:#bdbcbc;fill-opacity:1;fill-rule:nonzero;stroke:none"
                   id="path71719" />
              </g>
            </g>
          </g>
        </g>
        <g
           id="g71721">
          <g
             id="g71723" />
          <g
             id="g71729">
            <g
               style="opacity:0.5"
               clip-path="url(#clipPath71725)"
               id="g71731">
              <g
                 transform="translate(1456.3945,13.4473)"
                 id="g71733">
                <path
                   inkscape:connector-curvature="0"
                   d="m 0,0 c -0.521,1.03 -20.602,39.7 -20.602,39.7 0,0 -4.263,7.946 -6.389,12.894 l -0.837,1.957 -0.359,-0.183 0.773,-1.988 c 1.962,-5.03 6.332,-12.923 6.332,-12.923 0,0 20.313,-38.553 20.834,-39.582 0.52,-1.029 1.222,-0.676 1.222,-0.676 C 0.974,-0.801 0.52,-1.03 0,0"
                   style="fill:#8b4d47;fill-opacity:1;fill-rule:nonzero;stroke:none"
                   id="path71735" />
              </g>
            </g>
          </g>
        </g>
        <g
           id="g71737">
          <g
             id="g71739" />
          <g
             id="g71745">
            <g
               style="opacity:0.30000299"
               clip-path="url(#clipPath71741)"
               id="g71747">
              <g
                 transform="translate(1431.3848,67.043)"
                 id="g71749">
                <path
                   inkscape:connector-curvature="0"
                   d="m 0,0 -1.145,1.801 -0.359,-0.182 1.078,-1.836 c 2.723,-4.644 6.594,-12.789 6.594,-12.789 0,0 19.228,-39.099 19.748,-40.131 0.522,-1.03 0.067,-1.259 0.067,-1.259 0,0 0.703,0.355 0.181,1.384 -0.52,1.031 -19.517,40.248 -19.517,40.248 0,0 -3.761,8.201 -6.647,12.764"
                   style="fill:#8b4d47;fill-opacity:1;fill-rule:nonzero;stroke:none"
                   id="path71751" />
              </g>
            </g>
          </g>
        </g>
        <g
           id="g71753"
           transform="translate(1421.7842,85.7363)">
          <path
             inkscape:connector-curvature="0"
             d="m 0,0 c -0.053,-0.056 -0.104,-0.138 -0.177,-0.168 -0.043,-0.018 -0.06,-0.016 -0.098,-0.041 -0.035,-0.025 -0.067,-0.056 -0.097,-0.08 -0.072,-0.053 -0.156,-0.108 -0.232,-0.149 -0.037,-0.021 -0.082,-0.033 -0.123,-0.039 -0.037,-0.006 -0.095,0.008 -0.128,-0.001 -0.041,-0.01 -0.051,-0.047 -0.091,-0.071 -0.042,-0.025 -0.08,-0.013 -0.123,-0.027 -0.053,-0.015 -0.059,-0.029 -0.097,-0.07 -0.063,-0.06 -0.129,-0.104 -0.212,-0.137 -0.114,-0.046 -0.252,-0.053 -0.356,-0.117 -0.06,-0.041 -0.097,-0.126 -0.179,-0.129 -0.056,-0.002 -0.1,0.04 -0.152,0.045 -0.038,-0.082 -0.071,-0.162 -0.113,-0.245 -0.035,-0.068 -0.023,-0.113 -0.002,-0.186 0.036,-0.12 0.078,-0.241 0.118,-0.36 0.109,-0.323 0.225,-0.643 0.347,-0.961 0.326,-0.832 0.694,-1.733 1.295,-2.41 0,0 1.323,0.668 1.323,0.669 l 1.325,0.668 C 1.909,-2.307 0.072,0.083 0.072,0.083 L 0,0 z"
             style="fill:#f8f4f4;fill-opacity:1;fill-rule:nonzero;stroke:none"
             id="path71755" />
        </g>
        <g
           id="g71757"
           transform="translate(1420.7793,85.0225)">
          <path
             inkscape:connector-curvature="0"
             d="m 0,0 c -0.001,0 -0.869,-0.44 -1.201,-0.606 0.002,-0.031 0.011,-0.061 0.021,-0.098 0.023,-0.078 0.05,-0.155 0.076,-0.231 C -0.837,-0.8 0.15,-0.3 0.152,-0.3 L 1.408,0.334 C 1.33,0.445 1.262,0.538 1.208,0.61 L 0,0 z"
             style="fill:#e2e2e2;fill-opacity:1;fill-rule:nonzero;stroke:none"
             id="path71759" />
        </g>
        <g
           id="g71761"
           transform="translate(1421.7773,85.7324)">
          <path
             inkscape:connector-curvature="0"
             d="m 0,0 c -0.051,-0.055 -0.104,-0.137 -0.176,-0.166 -0.043,-0.018 -0.06,-0.018 -0.097,-0.043 -0.035,-0.024 -0.068,-0.055 -0.1,-0.08 -0.07,-0.052 -0.155,-0.107 -0.231,-0.148 -0.037,-0.022 -0.08,-0.033 -0.121,-0.038 -0.04,-0.005 -0.095,0.006 -0.129,-0.002 -0.041,-0.011 -0.051,-0.048 -0.09,-0.072 -0.042,-0.024 -0.081,-0.014 -0.124,-0.025 -0.053,-0.016 -0.058,-0.031 -0.099,-0.072 -0.061,-0.059 -0.128,-0.103 -0.21,-0.136 -0.113,-0.046 -0.252,-0.053 -0.356,-0.119 -0.06,-0.038 -0.097,-0.124 -0.181,-0.126 -0.055,-0.004 -0.1,0.039 -0.15,0.045 -0.039,-0.083 -0.072,-0.163 -0.113,-0.246 -0.015,-0.033 -0.022,-0.061 -0.022,-0.088 0.332,0.166 1.2,0.606 1.201,0.606 L 0.21,-0.1 C 0.127,0.015 0.074,0.084 0.074,0.084 L 0,0 z"
             style="fill:#cac9c9;fill-opacity:1;fill-rule:nonzero;stroke:none"
             id="path71763" />
        </g>
      </g>
    </g>
    <g
       id="g71765"
       transform="matrix(0.81801724,0,0,-0.81801724,-1154.0386,73.157653)">
      <g
         id="g71767"
         clip-path="url(#clipPath71769)">
        <g
           id="g71773">
          <g
             id="g71775" />
          <g
             id="g71781">
            <g
               style="opacity:0.5"
               clip-path="url(#clipPath71777)"
               id="g71783">
              <g
                 transform="translate(1434.3154,54.7754)"
                 id="g71785">
                <path
                   inkscape:connector-curvature="0"
                   d="m 0,0 0.274,-0.559 c 0.502,0.016 1.027,0.088 1.559,0.235 0.557,0.152 1.066,0.365 1.521,0.622 L 3.015,1.041 C 2.308,-0.376 0,0 0,0"
                   style="fill:#72583c;fill-opacity:1;fill-rule:nonzero;stroke:none"
                   id="path71787" />
              </g>
            </g>
          </g>
        </g>
        <g
           id="g71789">
          <g
             id="g71791" />
          <g
             id="g71797">
            <g
               style="opacity:0.39999396"
               clip-path="url(#clipPath71793)"
               id="g71799">
              <g
                 transform="translate(1451.0234,23.0742)"
                 id="g71801">
                <path
                   inkscape:connector-curvature="0"
                   d="M 0,0 1.945,0.383 1.81,0.685 c 0,0 -1.835,-0.08 -2.136,-0.03 L 0,0 z"
                   style="fill:#72583c;fill-opacity:1;fill-rule:nonzero;stroke:none"
                   id="path71803" />
              </g>
            </g>
          </g>
        </g>
      </g>
    </g>
  </g>
</svg>
