<?xml version="1.0" encoding="UTF-8" standalone="no"?>
<!-- Created with Inkscape (http://www.inkscape.org/) -->

<svg
   xmlns:dc="http://purl.org/dc/elements/1.1/"
   xmlns:cc="http://creativecommons.org/ns#"
   xmlns:rdf="http://www.w3.org/1999/02/22-rdf-syntax-ns#"
   xmlns:svg="http://www.w3.org/2000/svg"
   xmlns="http://www.w3.org/2000/svg"
   xmlns:sodipodi="http://sodipodi.sourceforge.net/DTD/sodipodi-0.dtd"
   xmlns:inkscape="http://www.inkscape.org/namespaces/inkscape"
   width="64px"
   height="64px"
   id="svg175676"
   version="1.1"
   inkscape:version="0.48.5 r10040"
   sodipodi:docname="Nowy dokument 44">
  <defs
     id="defs175678">
    <mask
       id="mask3025"
       height="1"
       width="1"
       y="0"
       x="0"
       maskUnits="userSpaceOnUse">
      <g
         id="g3027">
        <g
           style="opacity:0.5"
           id="g3029"
           clip-path="url(#clipPath3007)">
          <g
             id="g3031">
            <g
               id="g3033" />
            <g
               id="g3035">
              <g
                 id="g3037"
                 clip-path="url(#clipPath3011)">
                <g
                   id="g3039">
                  <g
                     id="g3041">
                    <g
                       id="g3043">
                      <g
                         id="g3045">
                        <path
                           inkscape:connector-curvature="0"
                           id="path3047"
                           style="fill:url(#radialGradient3019);stroke:none"
                           d="m 215.354,741.915 c 0,-5.829 -4.726,-10.556 -10.555,-10.556 -5.83,0 -10.555,4.727 -10.555,10.556 0,5.829 4.725,10.556 10.555,10.556 5.829,0 10.555,-4.727 10.555,-10.556" />
                      </g>
                    </g>
                  </g>
                </g>
              </g>
            </g>
          </g>
        </g>
      </g>
    </mask>
    <clipPath
       id="clipPath3007"
       clipPathUnits="userSpaceOnUse">
      <path
         inkscape:connector-curvature="0"
         id="path3009"
         d="m 194.244,752.471 21.11,0 0,-21.112 -21.11,0 0,21.112 z" />
    </clipPath>
    <clipPath
       id="clipPath3011"
       clipPathUnits="userSpaceOnUse">
      <path
         inkscape:connector-curvature="0"
         id="path3013"
         d="m 194.244,752.471 21.11,0 0,-21.112 -21.11,0 0,21.112 z" />
    </clipPath>
    <radialGradient
       id="radialGradient3019"
       spreadMethod="pad"
       gradientTransform="matrix(10.55542,0,0,-10.55542,204.79883,741.91504)"
       gradientUnits="userSpaceOnUse"
       r="1"
       cy="0"
       cx="0"
       fy="0"
       fx="0">
      <stop
         id="stop3021"
         offset="0"
         style="stop-opacity:1;stop-color:#ffffff" />
      <stop
         id="stop3023"
         offset="1"
         style="stop-opacity:1;stop-color:#231815" />
    </radialGradient>
    <clipPath
       id="clipPath3053"
       clipPathUnits="userSpaceOnUse">
      <path
         inkscape:connector-curvature="0"
         id="path3055"
         d="m 194.244,752.471 21.11,0 0,-21.112 -21.11,0 0,21.112 z" />
    </clipPath>
  </defs>
  <sodipodi:namedview
     id="base"
     pagecolor="#ffffff"
     bordercolor="#666666"
     borderopacity="1.0"
     inkscape:pageopacity="0.0"
     inkscape:pageshadow="2"
     inkscape:zoom="5.5"
     inkscape:cx="32"
     inkscape:cy="24.482517"
     inkscape:current-layer="layer1"
     showgrid="true"
     inkscape:document-units="px"
     inkscape:grid-bbox="true"
     inkscape:window-width="1366"
     inkscape:window-height="706"
     inkscape:window-x="-8"
     inkscape:window-y="-8"
     inkscape:window-maximized="1" />
  <metadata
     id="metadata175681">
    <rdf:RDF>
      <cc:Work
         rdf:about="">
        <dc:format>image/svg+xml</dc:format>
        <dc:type
           rdf:resource="http://purl.org/dc/dcmitype/StillImage" />
        <dc:title></dc:title>
      </cc:Work>
    </rdf:RDF>
  </metadata>
  <g
     id="layer1"
     inkscape:label="Layer 1"
     inkscape:groupmode="layer">
    <g
       transform="matrix(0.76830377,0,0,-0.76830377,-143.63371,632.07099)"
       id="g3003">
      <g
         id="g3005" />
      <g
         mask="url(#mask3025)"
         id="g3049">
        <g
           id="g3051" />
        <g
           id="g3057">
          <g
             id="g3059"
             clip-path="url(#clipPath3053)"
             style="opacity:0.5">
            <g
               id="g3061"
               transform="translate(215.354,741.915)">
              <path
                 id="path3063"
                 style="fill:#f8f5ee;fill-opacity:1;fill-rule:nonzero;stroke:none"
                 d="m 0,0 c 0,-5.829 -4.726,-10.556 -10.555,-10.556 -5.83,0 -10.555,4.727 -10.555,10.556 0,5.829 4.725,10.556 10.555,10.556 C -4.726,10.556 0,5.829 0,0"
                 inkscape:connector-curvature="0" />
            </g>
          </g>
        </g>
      </g>
    </g>
    <g
       transform="matrix(0.76830377,0,0,-0.76830377,24.378717,5.3129481)"
       id="g7201">
      <path
         id="path7203"
         style="fill:#000000;fill-opacity:1;fill-rule:nonzero;stroke:none"
         d="m 0,0 c 0.636,0.16 1.316,0.512 2.014,0.679 0.146,0.389 0.121,0.915 0.644,0.97 l 2.436,0.536 c 0.06,0.318 -0.317,0.652 -0.11,1.048 0.445,0.513 2.166,-0.177 1.771,0.933 1.276,0.29 3.005,0.44 4.213,-0.397 -10e-4,0.31 -0.15,0.824 -0.064,1.207 1.768,0.061 3.494,-1.252 4.754,-2.582 0.293,0.777 1.43,2.702 1.6,2.564 0.84,-1.187 1.142,-2.869 1.195,-4.264 0.714,0.325 1.74,0.93 2.458,0.32 0.092,-0.581 -0.298,-1.027 -0.462,-1.543 0.875,-0.624 1.726,-1.002 2.658,-1.588 0.461,2.726 2.381,4.889 4.554,6.456 0.9,0.313 0.566,-0.937 0.734,-1.355 1.636,0.421 3.576,1.217 5.317,0.653 0.545,-0.441 -0.435,-0.887 -0.714,-1.197 1.412,-0.692 2.97,-1.306 4.098,-2.558 0.133,-0.36 -0.908,-0.843 -0.908,-0.843 0.416,-1.575 1.692,-3.06 1.359,-4.932 -0.309,-0.313 -0.543,0.129 -0.899,-0.032 0.133,-1.574 0.274,-3.21 -0.66,-4.398 -0.867,-0.029 -1.088,0.882 -1.77,1.153 -0.374,-0.6 -0.447,-1.386 -1.154,-1.771 -0.753,-0.236 -1.455,0.22 -1.639,0.792 l -1.349,-0.795 c 1.119,-2.343 1.935,-4.779 2.151,-7.714 0.685,0.289 1.873,0.539 2.563,-0.105 0.163,-0.075 0.196,-0.383 0.47,-0.324 0.289,0.809 0.783,1.733 1.576,2.191 0.676,0.382 1.656,0.235 2.285,0.177 0.658,-0.336 1.041,-1.011 1.38,-1.568 0.886,0.155 1.868,0.29 2.758,-0.177 0.705,-0.486 1.214,-1.18 1.218,-2.114 0.067,-0.927 -1.084,-1.515 0.079,-2.233 0.633,-0.681 0.073,-1.581 -0.068,-2.312 -0.843,-1.147 -1.927,-1.51 -3.371,-1.413 -1.065,-1.108 -2.961,-1.432 -4.433,-1.057 l -1.048,-0.702 c -3.053,-3.248 -6.418,-6.185 -9.23,-9.657 0.231,-0.412 0.845,-5.361 0.746,-7.676 0.078,-4.599 -0.578,-9.027 -2.684,-12.986 l 0.102,-0.082 c -0.158,-0.266 -0.481,-0.456 -0.711,-0.355 0.013,0.188 -0.123,0.579 -0.39,0.768 -0.742,-2.132 -1.804,-4.175 -2.706,-6.263 1.87,-1.484 3.665,-3.164 3.955,-5.624 -0.15,-0.95 -0.818,-1.705 -1.644,-2.135 -1.034,-0.233 -2.174,-0.353 -3.143,-0.018 -0.743,-1.511 -2.365,-1.806 -3.926,-1.752 -1.015,0.174 -2.235,0.232 -2.901,1.252 -0.866,-0.963 -2.347,-1.088 -3.636,-0.974 -1.243,0.275 -2.635,0.782 -3.46,1.817 -1.326,-2.196 -4.129,-1.976 -6.432,-1.689 -1.953,1.103 -2.928,-1.771 -4.969,-1.019 -1.502,0.059 -3.468,0.413 -3.957,2.105 -0.821,0.102 -1.914,-0.17 -2.613,0.566 -0.48,0.417 -0.56,0.819 -0.504,1.448 0.563,1.771 2.442,3.608 3.963,4.516 -1.209,1.741 -1.742,2.078 -2.336,4.165 -0.726,-0.201 -0.853,0.719 -1.149,1.157 -1.439,3.926 -2.252,8.387 -1.259,12.57 -0.417,0.112 -0.516,-0.428 -0.915,0.122 -0.528,3.245 0.662,6.142 1.831,8.942 -0.277,-0.029 -0.918,-0.159 -0.999,0.331 0.376,2.343 1.802,4.175 3.018,6.233 -2.832,2.941 -4.941,6.425 -7.955,9.315 -1.363,-0.642 -3.312,-0.473 -4.527,0.427 -0.746,0.576 -0.741,1.417 -0.613,2.271 0.211,0.365 0.262,0.775 0.633,1.094 -0.634,0.4 -1.106,1.036 -1.221,1.833 -0.221,0.911 0.553,1.553 1.185,2.056 0.598,0.529 1.472,0.216 2.211,0.294 0.03,0.906 0.368,1.846 1.184,2.366 1.338,0.608 2.47,0.789 3.695,-0.203 l 1.1,-1.286 c 0.721,0.855 1.932,0.889 2.973,0.749 0.226,-0.07 0.433,-0.266 0.63,-0.37 0.67,2.219 1.856,4.274 3.168,6.312 -2.699,2.078 -2.436,4.508 -2.436,4.508 -0.387,-0.165 -0.745,-0.608 -1.193,-0.499 -0.681,1.142 -0.031,2.362 0.452,3.41 -0.453,0.17 -1.639,-0.11 -1.271,0.831 0.884,1.37 2.155,2.002 3.354,2.751 -0.18,0.23 -0.488,0.478 -0.303,0.809 1.039,0.482 2.497,0.823 3.558,0.219 -0.017,0.464 -0.118,0.827 0.184,1.202 C -3.737,5.336 -0.832,3.914 0,0 m 6.396,-65.9 c 0.258,0.806 -0.705,0.176 -1.016,0.485 -0.364,-0.691 -0.532,-1.457 -0.67,-2.219 l 1.058,-1.476 1.153,1.771 c -0.175,0.479 -0.114,1.078 -0.525,1.439 m 19.567,40.17 c -0.02,0.184 -0.125,0.297 -0.199,0.414 -0.366,-0.069 -0.417,-0.48 -0.61,-0.718 l 0.809,0.304 z m 3.579,1.496 -0.595,0.623 -0.621,-1.186 c 0.304,0.062 1.015,0.106 1.216,0.563 m 2.086,0.593 c 0.946,0.473 -0.412,1.264 -0.487,1.973 l -0.452,-2.227 0.939,0.254 z m -42.124,4.105 0.279,0.901 c -0.379,0.053 -0.594,-0.281 -0.756,-0.516 l 0.477,-0.385 z"
         inkscape:connector-curvature="0" />
    </g>
    <g
       transform="matrix(0.76830377,0,0,-0.76830377,11.932818,15.736144)"
       id="g7205">
      <path
         id="path7207"
         style="fill:#000000;fill-opacity:1;fill-rule:nonzero;stroke:none"
         d="M 0,0 C 0.463,-0.543 1.141,-1.063 1.148,-1.747 1.301,-2.012 1.59,-1.795 1.844,-1.829 2.072,-1.339 2.581,-0.85 3.118,-0.637 4.122,-0.406 4.909,-1.071 5.616,-1.59 5.393,-1.83 5.46,-2.165 5.171,-2.384 4.866,-1.854 4.383,-1.407 3.852,-1.09 3.127,-1.01 2.643,-1.435 2.113,-1.739 1.889,-2.261 1.598,-2.759 1.696,-3.401 c -0.67,0.458 -1.406,0.349 -2.061,0.374 0.431,0.326 0.383,0.788 0.623,1.186 -0.137,0.701 -0.671,1.33 -1.295,1.64 -0.318,0.371 -0.82,0.099 -1.18,-0.031 -0.457,-0.39 -0.837,-0.929 -0.744,-1.511 -0.057,-0.659 0.545,-1.345 1.225,-1.583 0.291,-0.095 0.731,-0.142 1.022,0.045 -0.679,-0.352 -1.306,-1.197 -1.574,-1.909 -0.144,-0.701 -0.099,-1.723 0.308,-2.334 0.771,-0.823 1.906,-1.544 3.099,-1.045 2.766,0.628 1.666,4.005 1.666,4.005 0.481,-0.136 1.018,-0.205 1.493,0.001 L 4.301,-5.37 C 4.174,-5.352 4.157,-5.479 4.102,-5.547 4.33,-6.238 5.157,-6.4 5.627,-6.726 5.934,-7.564 5.682,-9.023 6.779,-9.096 l 1.153,1.181 c 1.123,-2.094 3.155,-3.654 5.035,-5.231 -2.674,-0.344 -5.028,-1.651 -6.865,-3.711 0.061,-0.305 1.031,-0.639 1.031,-0.639 L 6.41,-18.319 c -2.844,3.063 -4.993,6.325 -7.917,9.256 -1.653,-0.267 -3.696,-0.388 -4.96,0.973 -0.368,0.833 0.899,2.118 1.016,2.194 -0.639,0.742 -1.968,1.536 -1.406,2.715 0.591,1.185 2.203,0.667 3.125,1.077 0.257,0.804 0.164,1.978 1.152,2.363 C -1.753,0.688 -0.734,0.483 0,0"
         inkscape:connector-curvature="0" />
    </g>
    <g
       transform="matrix(0.76830377,0,0,-0.76830377,10.988953,22.024323)"
       id="g7209">
      <path
         id="path7211"
         style="fill:#58595a;fill-opacity:1;fill-rule:nonzero;stroke:none"
         d="M 0,0 C 0.438,-0.308 0.935,-0.527 1.461,-0.547 3.763,-2.979 5.619,-5.605 7.832,-8.14 7.662,-8.311 7.492,-8.489 7.33,-8.673 7.392,-8.978 8.361,-9.312 8.361,-9.312 l -0.722,-0.823 c -2.844,3.064 -4.993,6.325 -7.917,9.256 -1.654,-0.267 -3.697,-0.388 -4.96,0.974 -0.368,0.833 0.898,2.118 1.015,2.193 -0.638,0.742 -1.967,1.536 -1.406,2.716 0.222,0.446 0.588,0.65 1.01,0.754 -0.293,-1.052 0.9,-1.788 1.496,-2.48 C -3.241,3.204 -4.506,1.919 -4.139,1.085 -3.076,-0.058 -1.469,-0.156 0,0"
         inkscape:connector-curvature="0" />
    </g>
    <g
       transform="matrix(0.76830377,0,0,-0.76830377,33.520309,3.2999184)"
       id="g7213">
      <path
         id="path7215"
         style="fill:#ffffff;fill-opacity:1;fill-rule:nonzero;stroke:none"
         d="m 0,0 c 0.344,0.285 -0.156,1.479 -0.156,1.479 1.597,-0.081 3.07,-1.639 4.046,-2.938 0.647,0.068 1.071,2.261 1.292,2.813 0.283,-1.215 1.021,-2.601 0.636,-3.98 0.688,-0.398 1.328,0.7 2.247,0.548 -0.296,-0.563 0.087,-1.406 0.011,-1.406 7.852,-5.132 11.336,-12.563 11.459,-18.843 l -0.254,-1.148 c -0.238,0.194 -0.519,0.506 -0.777,0.292 0.181,-1.098 -0.232,-2.546 -0.506,-2.886 -0.406,0.298 -0.726,1.263 -1.387,1.037 -0.382,-1.099 -0.915,-1.964 -1.615,-3.003 l -0.215,-0.023 c -0.451,0.451 -0.627,1.522 -1.412,1.284 -0.765,-1.014 -1.046,-2.196 -2.15,-2.935 -0.225,0.351 -0.029,1.148 -0.666,1.3 -1.559,-2.384 -3.398,-2.767 -4.434,-3.455 3.079,-2.914 6.891,-5.41 7.895,-9.633 -0.604,-0.187 -1.404,0.32 -1.77,-0.341 0.664,-1.58 1.534,-3.046 1.635,-4.904 -0.474,0.076 -1.178,0.562 -1.375,-0.237 0.346,-2.393 0.133,-4.813 -0.318,-7.041 -0.274,-0.059 -0.604,0.405 -1.016,0.486 -0.741,-5.052 -4.508,-8.071 -6.25,-9.562 -0.049,0.462 -0.016,1.026 -0.558,1.156 -1.016,-0.699 -1.448,-1.928 -2.674,-2.399 -2.251,-1.108 -4.852,-1.537 -6.751,-3.325 -1.515,0.495 -4.908,0.721 -7.829,3.381 -0.303,-0.063 -0.407,-1.164 -0.407,-1.164 -1.775,1.184 -4.328,4.745 -4.598,4.655 -0.433,-0.327 -0.416,-0.792 -0.525,-1.239 -2.49,1.732 -2.498,4.22 -2.431,5.349 -0.805,0.259 -1.391,-0.675 -1.901,-1.165 -0.684,2.669 -1.192,5.729 -0.729,8.424 -0.577,0.749 -1.212,-0.314 -1.819,-0.472 -0.185,3.25 0.64,6.358 2.427,8.912 0.035,0.253 -1.043,0.139 -1.449,0.159 0.756,2.882 2.766,5.678 5.113,7.636 -0.377,0.334 -0.99,0.239 -1.472,0.375 1.872,1.442 3.957,2.939 6.652,2.786 1.922,-1.106 6.008,-1.844 6.008,-1.844 -5.389,2.074 -9.282,4.24 -11.873,8.763 -0.61,-0.127 -1.034,-0.545 -1.487,-0.966 -0.636,1.303 0.467,2.664 -0.451,3.689 l -1.099,-0.209 c 0.394,1.287 1.304,2.41 1.859,3.652 -0.236,0.162 -0.266,0.359 -1.109,0.245 0,0 3.792,11.49 13.461,14.348 0.148,0.078 -0.286,0.655 -0.286,0.655 1.105,0.459 2.342,0.838 3.535,0.435 0.462,0.64 -0.441,0.948 -0.648,1.426 1.115,0.366 1.83,-0.524 2.805,-0.609 0.34,0.316 -0.817,1.254 -0.912,1.555 C -2.58,1.442 -1.313,0.64 0,0"
         inkscape:connector-curvature="0" />
    </g>
    <g
       transform="matrix(0.76830377,0,0,-0.76830377,22.526952,19.224243)"
       id="g7217">
      <path
         id="path7219"
         style="fill:#dce8eb;fill-opacity:1;fill-rule:evenodd;stroke:none"
         d="m 0,0 c 0,0 1.051,-1.503 2.348,-1.577 1.297,-0.075 2.123,0.975 2.123,0.975 0,0 1.877,-1.521 3.475,-1.671 1.597,-0.152 2.199,-0.055 2.874,0.621 0.676,0.675 1.051,1.652 1.051,1.652 0,0 1.447,0.751 2.199,0.825 0.75,0.075 1.672,0.075 1.899,0.075 0.224,0 1.051,-0.826 1.051,-0.826 0,0 -1.223,0.075 -1.974,-0.224 -0.751,-0.301 -1.127,-1.051 -1.127,-1.051 l -2.198,-3.25 -2.028,-0.152 c 0,0 -1.802,-0.224 -2.949,0.301 C 5.598,-3.775 5.221,-3.249 5.221,-3.249 5.221,-3.249 3.87,-4 2.047,-3.4 0.225,-2.8 0,0 0,0"
         inkscape:connector-curvature="0" />
    </g>
    <g
       transform="matrix(0.76830377,0,0,-0.76830377,33.520309,3.2999184)"
       id="g7221">
      <path
         id="path7223"
         style="fill:#dce8eb;fill-opacity:1;fill-rule:nonzero;stroke:none"
         d="m 0,0 c 0.344,0.285 -0.156,1.479 -0.156,1.479 1.597,-0.081 3.07,-1.639 4.046,-2.938 0.647,0.068 1.071,2.261 1.292,2.813 0.283,-1.215 1.021,-2.601 0.636,-3.98 0.688,-0.398 1.328,0.7 2.247,0.548 -0.296,-0.563 0.087,-1.406 0.011,-1.406 7.852,-5.132 11.336,-12.563 11.459,-18.843 l -0.254,-1.148 c -0.238,0.194 -0.519,0.506 -0.777,0.292 0.181,-1.098 -0.232,-2.546 -0.506,-2.886 -0.406,0.298 -0.726,1.263 -1.387,1.037 -0.382,-1.099 -0.915,-1.964 -1.615,-3.003 l -0.215,-0.023 c -0.451,0.451 -0.627,1.522 -1.412,1.284 -0.765,-1.014 -1.046,-2.196 -2.15,-2.935 -0.225,0.351 -0.029,1.148 -0.666,1.3 -1.559,-2.384 -3.398,-2.767 -4.434,-3.455 3.079,-2.914 6.891,-5.41 7.895,-9.633 -0.604,-0.187 -1.404,0.32 -1.77,-0.341 0.664,-1.58 1.534,-3.046 1.635,-4.904 -0.474,0.076 -1.178,0.562 -1.375,-0.237 0.346,-2.393 0.133,-4.813 -0.318,-7.041 -0.274,-0.059 -0.604,0.405 -1.016,0.486 -0.741,-5.052 -4.508,-8.071 -6.25,-9.562 -0.049,0.462 -0.016,1.026 -0.558,1.156 -1.016,-0.699 -1.448,-1.928 -2.674,-2.399 -2.251,-1.108 -4.852,-1.537 -6.751,-3.325 -1.091,0.356 -3.159,0.573 -5.32,1.661 0.834,0.345 1.672,0.685 2.463,1.108 1.209,0.514 1.598,1.757 2.588,2.491 0.549,-0.111 0.533,-0.676 0.599,-1.135 1.688,1.55 5.347,4.7 5.912,9.774 0.415,-0.067 0.76,-0.519 1.032,-0.449 0.373,2.241 0.502,4.667 0.074,7.046 0.168,0.805 0.889,0.344 1.366,0.286 -0.167,1.853 -1.088,3.287 -1.807,4.843 0.344,0.674 1.162,0.195 1.758,0.404 -1.151,4.184 -5.047,6.545 -8.225,9.351 l 0.164,0.11 c 1.791,0.002 5.363,0.079 7.508,0.621 2.951,0.746 8.593,6.266 6.635,13.522 -1.96,7.257 -4.053,13.889 -10.563,17.206 -1.428,0.727 -2.093,0.979 -2.093,0.979 l 0.736,-1.592 c 0,0 -1.498,0.774 -3.45,1.097 -0.17,0.163 -0.355,0.323 -0.435,0.508 1.115,0.366 1.83,-0.524 2.805,-0.609 0.34,0.316 -0.817,1.254 -0.912,1.555 C -2.58,1.442 -1.313,0.64 0,0"
         inkscape:connector-curvature="0" />
    </g>
    <g
       transform="matrix(0.76830377,0,0,-0.76830377,23.839983,5.6566134)"
       id="g7225">
      <path
         id="path7227"
         style="fill:#000000;fill-opacity:1;fill-rule:nonzero;stroke:none"
         d="m 0,0 -2.332,-1.803 c 0.105,0.759 -0.175,1.664 -0.764,2.224 -0.631,0.682 -1.451,1.063 -2.31,0.66 -0.561,-0.307 -1.166,-0.774 -1.449,-1.335 0.021,-1.088 -0.038,-2.308 0.943,-3.046 l 1.11,-0.785 c -0.538,-0.805 -1.285,-1.692 -1.901,-2.349 -0.738,0.203 -1.399,1.162 -1.849,1.892 -0.029,0.868 -0.315,1.805 -0.118,2.604 -0.482,0.447 -1.202,-0.127 -1.709,-0.335 0.238,0.99 0.539,1.985 1.139,2.796 -0.276,0.533 -0.881,0.374 -1.334,0.545 0.806,1.206 2.157,1.691 3.178,2.638 l -0.209,0.508 c 0.792,0.456 1.848,0.193 2.758,0.134 0.22,0.272 1.006,0.199 0.661,0.816 C -1.934,4.468 -0.218,2.374 0,0"
         inkscape:connector-curvature="0" />
    </g>
    <g
       transform="matrix(0.76830377,0,0,-0.76830377,21.438271,5.7894497)"
       id="g7229">
      <path
         id="path7231"
         style="fill:#f3dcca;fill-opacity:1;fill-rule:nonzero;stroke:none"
         d="m 0,0 c 0.424,-0.484 0.427,-1.388 0.302,-1.992 -0.535,-0.524 -0.948,-1.065 -1.548,-1.564 -0.98,0.426 -2.034,1.282 -2.019,2.621 -0.134,0.671 0.196,1.39 0.825,1.643 C -1.617,1.449 -0.521,0.786 0,0"
         inkscape:connector-curvature="0" />
    </g>
    <g
       transform="matrix(0.76830377,0,0,-0.76830377,45.602341,3.9916991)"
       id="g7233">
      <path
         id="path7235"
         style="fill:#000000;fill-opacity:1;fill-rule:nonzero;stroke:none"
         d="M 0,0 C 1.36,0.984 3.297,1.219 4.937,1.328 L 4.274,0.513 C 5.444,-0.548 7.2,-0.675 8.362,-1.955 l -1.091,-0.27 c 0.705,-1.358 1.589,-2.978 1.897,-4.719 -0.492,-0.053 -1.017,0.796 -1.415,0.131 0.755,-1.259 0.711,-2.915 0.357,-4.291 -0.476,0.385 -1.265,1.082 -2.048,1.124 -0.393,-0.696 -0.34,-2.091 -1.37,-2.075 -0.239,0.504 0.308,1.216 -0.371,1.455 -0.809,-0.302 -1.347,-1.107 -2.152,-1.441 -0.383,0.678 -0.999,1.204 -1.176,1.995 1.826,0.409 3.467,1.983 3.765,3.882 -0.163,1.261 -0.894,2.584 -2.252,3.064 -1.077,0.168 -2.019,-0.055 -2.857,-0.672 -0.703,-0.729 -1.451,-1.585 -1.537,-2.56 -0.735,0.483 -1.39,1.379 -2.09,2.115 0.605,2.243 1.678,4.475 3.806,5.85 C 0.096,1.162 -0.22,0.212 0,0"
         inkscape:connector-curvature="0" />
    </g>
    <g
       transform="matrix(0.76830377,0,0,-0.76830377,27.388932,7.1024074)"
       id="g7237">
      <path
         id="path7239"
         style="fill:#000000;fill-opacity:1;fill-rule:nonzero;stroke:none"
         d="m 0,0 c 1.217,-2.393 0.432,-4.998 -0.354,-7.291 1.721,-0.381 3.902,-0.992 4.685,-2.809 0.771,-1.228 1.232,-6.207 -6.032,-5.709 -1.418,0.163 -2.802,0.888 -3.913,1.674 -0.393,-0.103 -1.771,-3.321 2.283,-3.931 0.587,0.03 1.173,0.091 1.602,0.448 0.098,0.26 -0.242,1.407 -0.242,1.407 0.472,-0.044 0.332,-2.354 4.4,-2.745 1.686,0.24 3.689,1.041 4.178,2.899 -0.209,0.196 -0.811,-0.272 -0.839,0.286 -0.205,0.997 2.896,1.264 4.31,0.764 0.091,-0.27 0.531,-0.318 0.442,-0.639 -0.653,0.866 -1.983,0.196 -2.911,0.13 0.595,-5.234 -4.056,-6.435 -5.041,-6.258 l 1.064,0.547 c -0.155,0.606 -0.43,1.138 -0.823,1.626 -1.459,0.251 -3.08,0.268 -4.107,1.436 -0.85,-0.494 -1.738,-0.648 -2.718,-0.503 -1.365,0.542 -2.679,0.791 -2.727,3.138 -0.013,0.716 1.082,1.56 1.037,1.386 -0.896,1.121 -1.36,2.566 -0.92,4.014 0.253,0.555 0.694,1.1 1.185,1.463 -0.846,0.938 -1.997,1.224 -3.013,1.707 0.834,2.735 2.831,5.654 5.345,7.226 C -2.215,0.639 -0.459,1.415 0,0"
         inkscape:connector-curvature="0" />
    </g>
    <g
       transform="matrix(0.76830377,0,0,-0.76830377,26.786434,6.8301209)"
       id="g7241">
      <path
         id="path7243"
         style="fill:#000000;fill-opacity:1;fill-rule:nonzero;stroke:none"
         d="m 0,0 c 1.653,-2.1 1.183,-5.325 0.037,-7.47 -1.313,-0.23 -2.856,-0.362 -4.003,-1.011 -0.339,-0.628 -0.445,0.078 -0.853,0.127 -0.659,0.617 -1.532,0.929 -2.373,1.246 0.582,2.459 2.586,4.723 4.444,6.29 C -2.378,-0.779 -0.608,0.465 0,0"
         inkscape:connector-curvature="0" />
    </g>
    <g
       transform="matrix(0.76830377,0,0,-0.76830377,26.659584,11.771543)"
       id="g7245">
      <path
         id="path7247"
         style="fill:#000000;fill-opacity:1;fill-rule:nonzero;stroke:none"
         d="m 0,0 c -0.496,-0.612 -1.24,-0.94 -1.992,-0.895 -1.1,0.102 -1.571,0.586 -1.865,2.046 -0.12,1.42 0.849,2.58 1.976,3.415 C 0.688,5.896 1.102,1.08 0,0"
         inkscape:connector-curvature="0" />
    </g>
    <g
       transform="matrix(0.76830377,0,0,-0.76830377,39.768764,9.03069)"
       id="g7249">
      <path
         id="path7251"
         style="fill:#000000;fill-opacity:1;fill-rule:nonzero;stroke:none"
         d="M 0,0 C 1.473,-2.46 1.606,-6.4 0.855,-9.033 L 0.068,-9.241 c -3.668,0.82 -5.861,0.662 -8.845,0.317 -0.907,0.621 -1.266,1.403 -2.3,2.622 -0.109,0.737 1.729,8.531 6.524,9.031 C -2.713,2.704 -1.094,1.505 0,0"
         inkscape:connector-curvature="0" />
    </g>
    <g
       transform="matrix(0.76830377,0,0,-0.76830377,39.417649,9.1155173)"
       id="g7253">
      <path
         id="path7255"
         style="fill:#000000;fill-opacity:1;fill-rule:nonzero;stroke:none"
         d="m 0,0 c 1.469,-2.398 1.633,-6.336 0.865,-8.813 -2.998,0.37 -6.035,0.829 -9.162,0.375 -0.642,0.773 -1.096,1.815 -2.058,2.399 1.124,3.232 2.679,8.284 6.736,8.492 C -2.188,2.168 -0.901,1.183 0,0"
         inkscape:connector-curvature="0" />
    </g>
    <g
       transform="matrix(0.76830377,0,0,-0.76830377,48.113624,7.1722428)"
       id="g7257">
      <path
         id="path7259"
         style="fill:#f3dcca;fill-opacity:1;fill-rule:nonzero;stroke:none"
         d="M 0,0 C 0.674,-0.771 1.295,-1.95 0.779,-2.97 0.184,-4.403 -1.213,-5.048 -2.459,-5.646 l -2.25,2.753 c -0.363,1.394 0.918,2.526 1.891,3.344 C -1.957,0.853 -0.74,0.825 0,0"
         inkscape:connector-curvature="0" />
    </g>
    <g
       transform="matrix(0.76830377,0,0,-0.76830377,37.86307,9.1117488)"
       id="g7261">
      <path
         id="path7263"
         style="fill:#000000;fill-opacity:1;fill-rule:nonzero;stroke:none"
         d="M 0,0 C 1.243,-0.864 1.446,-2.493 1.313,-3.908 1.111,-5.237 0.357,-6.656 -0.956,-7.198 -2.003,-7.9 -3.24,-7.688 -4.314,-7.24 c -1.28,0.924 -1.297,2.572 -1.228,3.98 0.095,1.754 1.527,3.244 3.106,3.908 C -1.563,0.646 -0.584,0.812 0,0"
         inkscape:connector-curvature="0" />
    </g>
    <g
       transform="matrix(0.76830377,0,0,-0.76830377,11.776003,16.972572)"
       id="g7265">
      <path
         id="path7267"
         style="fill:#e7bbb0;fill-opacity:1;fill-rule:nonzero;stroke:none"
         d="m 0,0 c 0.085,-0.521 -0.208,-0.987 -0.61,-1.31 -0.637,-0.16 -1.264,0.179 -1.568,0.707 -0.287,0.655 -0.145,1.387 0.465,1.792 C -0.968,1.207 -0.29,0.686 0,0"
         inkscape:connector-curvature="0" />
    </g>
    <g
       transform="matrix(0.76830377,0,0,-0.76830377,15.574725,17.60212)"
       id="g7269">
      <path
         id="path7271"
         style="fill:#e7bbb0;fill-opacity:1;fill-rule:nonzero;stroke:none"
         d="m 0,0 c 0.581,-0.499 -0.089,-0.952 -0.225,-1.425 -0.496,-0.612 -1.175,-0.372 -1.787,-0.186 -0.447,0.42 -0.939,1.239 -0.409,1.824 0.184,0.33 0.571,0.496 0.894,0.685 C -0.887,1.028 -0.33,0.464 0,0"
         inkscape:connector-curvature="0" />
    </g>
    <g
       transform="matrix(0.76830377,0,0,-0.76830377,10.168097,19.199504)"
       id="g7273">
      <path
         id="path7275"
         style="fill:#000000;fill-opacity:1;fill-rule:nonzero;stroke:none"
         d="m 0,0 c 0.003,-0.622 -0.57,-1.087 -1.037,-1.385 0.362,-0.491 1.001,-0.641 1.008,-1.295 0.036,-0.65 -0.571,-1.088 -1.039,-1.385 -0.484,-0.426 -1.166,-0.155 -1.661,0.105 -0.5,0.321 -0.658,0.928 -0.678,1.423 0.198,0.488 0.605,1.06 1.084,1.235 -0.529,0.287 -1.06,0.606 -1.334,1.136 -0.109,0.736 0.141,1.323 0.721,1.728 0.627,0.251 1.293,0.446 1.866,0.039 C -0.559,1.156 -0.279,0.595 0,0"
         inkscape:connector-curvature="0" />
    </g>
    <g
       transform="matrix(0.76830377,0,0,-0.76830377,9.883751,19.228699)"
       id="g7277">
      <path
         id="path7279"
         style="fill:#e7bbb0;fill-opacity:1;fill-rule:nonzero;stroke:none"
         d="m 0,0 c 0.14,-0.732 -0.606,-0.749 -1.008,-1.07 -0.694,0.082 -1.41,0.381 -1.811,0.929 -0.293,0.436 -0.004,0.934 0.145,1.292 C -1.383,2.53 0.249,0.801 0,0"
         inkscape:connector-curvature="0" />
    </g>
    <g
       transform="matrix(0.76830377,0,0,-0.76830377,12.72363,18.475454)"
       id="g7281">
      <path
         id="path7283"
         style="fill:#e7bbb0;fill-opacity:1;fill-rule:nonzero;stroke:none"
         d="M 0,0 C 0.967,-0.615 1.708,-1.44 1.648,-2.661 1.556,-3.542 0.945,-4.26 0.104,-4.535 -0.672,-4.866 -1.473,-4.639 -2.084,-4.174 -2.973,-3.706 -2.848,-2.541 -2.872,-1.703 -2.723,-0.754 -1.547,0.478 0,0"
         inkscape:connector-curvature="0" />
    </g>
    <g
       transform="matrix(0.76830377,0,0,-0.76830377,9.7847134,21.009167)"
       id="g7285">
      <path
         id="path7287"
         style="fill:#e7bbb0;fill-opacity:1;fill-rule:nonzero;stroke:none"
         d="m 0,0 c 0.338,-0.557 -0.075,-1.066 -0.453,-1.324 -0.519,-0.117 -0.96,-0.35 -1.433,0.005 -0.399,0.238 -0.564,0.626 -0.702,1.047 0.114,0.385 0.448,0.764 0.803,0.956 C -1.155,0.626 -0.413,0.672 0,0"
         inkscape:connector-curvature="0" />
    </g>
    <g
       transform="matrix(0.76830377,0,0,-0.76830377,30.510168,23.13706)"
       id="g7289">
      <path
         id="path7291"
         style="fill:#ffffff;fill-opacity:1;fill-rule:nonzero;stroke:none"
         d="M 0,0 -0.824,1.314 C 0.457,1.573 1.698,2.202 2.654,3.174 2.233,1.854 1.282,0.539 0,0"
         inkscape:connector-curvature="0" />
    </g>
    <g
       transform="matrix(0.76830377,0,0,-0.76830377,54.886523,19.714188)"
       id="g7293">
      <path
         id="path7295"
         style="fill:#000000;fill-opacity:1;fill-rule:nonzero;stroke:none"
         d="m 0,0 c -0.085,-0.382 0.274,-0.532 0.44,-0.638 0.779,0.299 1.852,0.755 2.68,0.282 0.414,-0.393 0.624,-0.901 0.802,-1.411 0.177,-0.791 -1.435,-1.77 -0.215,-2.109 0.247,-0.565 0.878,-1.246 0.42,-1.918 -0.446,-0.794 -1.297,-1.288 -2.179,-1.193 0.424,0.418 1.631,0.482 1.623,1.446 -0.028,0.869 -0.459,1.696 -1.318,1.886 0.387,0.165 1.33,0.67 1.184,1.464 -0.05,0.773 -0.668,1.61 -1.442,1.873 C 1.446,-0.438 0.933,-0.587 0.565,-0.937 0.248,-1.468 0.005,-2.117 0.38,-2.73 0.638,-3.108 0.995,-3.539 1.452,-3.74 1.371,-4.152 0.573,-4.268 0.214,-4.71 c -0.339,0.867 -0.828,1.657 -1.704,2 0.585,0.063 1.203,0.407 1.6,1.071 C -0.103,-0.79 -0.03,0.277 -1.032,0.64 -1.744,0.597 -2.576,0.508 -3.031,-0.193 -3.239,-0.589 -3.403,-1.104 -3.2,-1.551 -2.853,-1.888 -2.552,-2.385 -2.128,-2.559 -2.954,-2.708 -4,-3.129 -4.5,-3.991 c -0.044,-1.064 0.078,-2.234 0.957,-2.889 0.767,-0.479 1.687,-0.944 2.541,-0.479 0.491,0.362 1.054,0.639 1.202,1.308 -0.034,0.029 -0.102,0.083 -0.109,0.145 l 0.086,0.071 c 0.326,-0.433 1.017,-1.076 1.454,-1.093 -0.802,0.227 -0.921,-0.719 -1.554,-0.91 -1.08,-0.393 -2.254,-0.486 -3.34,-0.226 -3.709,-2.633 -7.018,-6.997 -10.297,-10.175 -1.533,3.047 -4.321,5.275 -6.85,7.718 1.011,0.449 2.093,1.124 3,1.966 0.069,-0.367 0.272,-0.813 0.681,-0.832 0.557,0.308 1.141,0.68 1.523,1.188 0.87,0.029 1.732,0.991 2.525,0.265 l 0.724,0.825 4.97,1.891 c 0.196,0.207 0.195,0.519 0.133,0.823 0.257,-0.097 1.365,-0.261 1.791,0.126 0.101,0.229 0.636,0.472 0.656,0.879 0.135,0.793 -0.311,1.462 -0.69,2.107 -0.44,0.639 -1.254,0.367 -1.784,0.094 L -7.32,-1.454 c -0.288,0.374 0.288,0.808 0.645,0.972 1.149,0.617 3.256,-2.834 3.125,0.171 0.187,0.612 0.731,1.354 1.33,1.574 C -1.103,1.598 -0.345,0.898 0,0"
         inkscape:connector-curvature="0" />
    </g>
    <g
       transform="matrix(0.76830377,0,0,-0.76830377,54.467109,20.045019)"
       id="g7297">
      <path
         id="path7299"
         style="fill:#e7bbb0;fill-opacity:1;fill-rule:nonzero;stroke:none"
         d="m 0,0 c 0.299,-0.778 0.212,-1.721 -0.706,-1.88 -0.706,-0.105 -1.177,0.529 -1.509,1.025 -0.027,0.557 0,1.183 0.597,1.433 C -1.024,0.857 -0.141,0.731 0,0"
         inkscape:connector-curvature="0" />
    </g>
    <g
       transform="matrix(0.76830377,0,0,-0.76830377,50.77718,20.910897)"
       id="g7301">
      <path
         id="path7303"
         style="fill:#e7bbb0;fill-opacity:1;fill-rule:nonzero;stroke:none"
         d="M 0,0 C 0.254,-0.628 0.731,-1.325 0.434,-2.041 -0.106,-2.534 -0.75,-2.633 -1.408,-2.297 -2.164,-1.91 -1.812,-1.125 -1.91,-0.482 -1.564,0.084 -0.601,0.684 0,0"
         inkscape:connector-curvature="0" />
    </g>
    <g
       transform="matrix(0.76830377,0,0,-0.76830377,57.013655,20.830613)"
       id="g7305">
      <path
         id="path7307"
         style="fill:#e7bbb0;fill-opacity:1;fill-rule:nonzero;stroke:none"
         d="m 0,0 c 0.233,-0.441 0.693,-2.015 -1.201,-1.899 -0.576,0.436 -1.103,1.003 -0.873,1.775 C -1.75,0.657 -0.287,1.247 0,0"
         inkscape:connector-curvature="0" />
    </g>
    <g
       transform="matrix(0.76830377,0,0,-0.76830377,54.528653,22.909717)"
       id="g7309">
      <path
         id="path7311"
         style="fill:#e7bbb0;fill-opacity:1;fill-rule:nonzero;stroke:none"
         d="m 0,0 c 0.529,-0.598 0.254,-1.529 0.103,-2.168 -0.482,-0.456 -1.267,-0.975 -2.048,-0.651 -0.621,0.276 -1.104,0.724 -1.389,1.348 -0.346,0.929 -0.327,2.239 0.863,2.457 C -1.536,0.99 -0.418,1.016 0,0"
         inkscape:connector-curvature="0" />
    </g>
    <g
       transform="matrix(0.76830377,0,0,-0.76830377,57.156173,23.326831)"
       id="g7313">
      <path
         id="path7315"
         style="fill:#e7bbb0;fill-opacity:1;fill-rule:nonzero;stroke:none"
         d="m 0,0 c 0.349,-0.648 0.117,-1.421 -0.568,-1.71 -0.433,-0.015 -0.85,-0.214 -1.263,0.179 -0.2,0.415 -0.8,0.787 -0.511,1.284 C -1.814,0.369 -0.465,0.854 0,0"
         inkscape:connector-curvature="0" />
    </g>
    <g
       transform="matrix(0.76830377,0,0,-0.76830377,44.650259,41.817906)"
       id="g7317">
      <path
         id="path7319"
         style="fill:#000000;fill-opacity:1;fill-rule:nonzero;stroke:none"
         d="m 0,0 c -0.124,-3.563 -0.893,-6.913 -2.238,-10.106 -0.215,0.257 -0.383,0.675 -0.782,0.914 -1.084,-1.235 -1.128,-2.889 -1.919,-4.249 -0.566,-1.43 -1.672,-2.76 -1.415,-4.322 1.796,-1.088 3.659,-2.821 3.793,-4.988 -0.084,-0.693 -0.71,-0.946 -1.197,-1.34 -0.715,-0.013 -1.589,-0.291 -2.172,-0.072 0.39,0.725 0.776,1.794 0.457,2.757 -0.254,0.346 -0.543,0.72 -0.968,0.925 -0.523,0.226 -0.977,-0.197 -1.147,-0.65 0.352,-1.27 1.615,-2.633 0.118,-3.786 -1.218,-1.155 -2.8,-0.916 -4.367,-0.521 -0.493,-0.052 -0.545,0.441 -0.762,0.73 0.341,0.906 0.9,2.118 0.152,3.005 -0.461,0.543 -1.101,0.694 -1.694,0.414 -0.148,-0.078 -0.226,-0.212 -0.341,-0.317 0.162,-0.949 1.262,-1.642 1.099,-2.749 -0.805,-0.644 -1.728,-1.333 -2.935,-1.119 -1.293,0.177 -2.871,0.384 -3.49,1.814 -0.238,1.376 0.288,2.584 1.214,3.553 l -0.433,2.041 c 2.423,2.123 6.043,2.067 8.351,4.396 -0.005,-0.25 0.043,-0.712 0.454,-0.763 l 0.516,0.118 c 2.759,2.5 6.091,5.464 6.714,9.298 0.133,-0.359 0.41,-0.641 0.748,-0.886 0.738,0.078 0.344,0.877 0.707,1.257 0.411,2.317 0.692,4.682 0.525,7.155 C 0.6,2.585 -0.313,0.9 0,0"
         inkscape:connector-curvature="0" />
    </g>
    <g
       transform="matrix(0.76830377,0,0,-0.76830377,15.685748,48.713887)"
       id="g7321">
      <path
         id="path7323"
         style="fill:#000000;fill-opacity:1;fill-rule:nonzero;stroke:none"
         d="m 0,0 c 0.803,-0.507 0.934,0.907 1.584,1.226 0.607,-1.93 1.225,-3.952 3.086,-5.064 0.59,-0.279 0.932,0.317 1.037,0.794 1.152,-1.777 2.727,-3.419 4.609,-4.746 0.823,-0.131 0.378,0.85 0.53,1.178 1.475,-0.997 2.938,-2.183 4.861,-2.106 -0.014,-1.059 -1.127,-2.017 -0.365,-3.027 1.084,-0.852 1.222,-2.457 1.012,-3.724 -1.352,-1.948 -4.424,-1.227 -6.688,-0.718 -0.125,1.481 2.135,1.538 1.664,3.044 -0.5,0.601 -1.068,0.076 -1.578,-0.103 -0.869,-0.9 -1.455,-1.776 -0.912,-3.091 L 7.168,-17.32 c -1.58,-0.075 -3.252,-0.157 -4.318,1.102 -1.055,1.727 2.963,2.246 0.641,3.59 -0.72,0.049 -1.13,-0.804 -1.423,-1.269 -0.124,-0.606 -0.209,-1.269 0.04,-1.865 -0.819,0.1 -2.223,-0.171 -2.503,1.013 0.286,2.023 2.33,3.753 3.839,4.785 -0.582,1.239 -2.297,3.795 -2.009,5.506 -0.28,0.282 -0.867,0.532 -1.194,0.094 C -1.236,-0.971 -2.061,3.613 -1.3,7.336 -1.115,4.989 -1.063,2.13 0,0"
         inkscape:connector-curvature="0" />
    </g>
    <g
       transform="matrix(0.76830377,0,0,-0.76830377,18.593163,58.966673)"
       id="g7325">
      <path
         id="path7327"
         style="fill:#ccae42;fill-opacity:1;fill-rule:nonzero;stroke:none"
         d="M 0,0 C -0.069,-0.816 -0.987,-1.255 -1.353,-1.947 -1.438,-1.116 -1.37,-0.299 -0.675,0.21 -0.407,0.331 -0.173,0.17 0,0"
         inkscape:connector-curvature="0" />
    </g>
    <g
       transform="matrix(0.76830377,0,0,-0.76830377,24.131864,59.077001)"
       id="g7329">
      <path
         id="path7331"
         style="fill:#ccae42;fill-opacity:1;fill-rule:nonzero;stroke:none"
         d="m 0,0 c 0.067,-1.239 -1.676,-1.179 -1.737,-2.368 -0.275,0.252 -0.27,0.723 -0.012,1.219 0.364,0.692 0.713,1.225 1.471,1.429 L 0,0 z"
         inkscape:connector-curvature="0" />
    </g>
    <g
       transform="matrix(0.76830377,0,0,-0.76830377,34.885124,58.848896)"
       id="g7333">
      <path
         id="path7335"
         style="fill:#ccae42;fill-opacity:1;fill-rule:nonzero;stroke:none"
         d="m 0,0 c 0.17,-0.729 0.103,-1.577 -0.198,-2.264 0.183,0.924 -0.746,1.76 -1.115,2.623 C -0.83,0.785 -0.235,0.474 0,0"
         inkscape:connector-curvature="0" />
    </g>
    <g
       transform="matrix(0.76830377,0,0,-0.76830377,40.074936,58.374698)"
       id="g7337">
      <path
         id="path7339"
         style="fill:#ccae42;fill-opacity:1;fill-rule:nonzero;stroke:none"
         d="m 0,0 c 0.256,-0.658 0.08,-1.362 -0.17,-1.948 0.026,0.935 -1.379,1.567 -0.802,2.593 C -0.492,0.819 -0.249,0.284 0,0"
         inkscape:connector-curvature="0" />
    </g>
    <g
       transform="matrix(0.76830377,0,0,-0.76830377,22.648503,15.541763)"
       id="g7341">
      <path
         id="path7343"
         style="fill:#603081;fill-opacity:1;fill-rule:nonzero;stroke:none"
         d="M 0,0 C 0.218,2.074 2.725,3.511 5.602,3.209 8.477,2.905 10.631,0.979 10.413,-1.095 10.195,-3.168 7.688,-4.605 4.813,-4.304 1.936,-4.002 -0.219,-2.074 0,0"
         inkscape:connector-curvature="0" />
    </g>
    <g
       transform="matrix(0.76830377,0,0,-0.76830377,33.866968,11.379167)"
       id="g7345">
      <path
         id="path7347"
         style="fill:#ffffff;fill-opacity:1;fill-rule:nonzero;stroke:none"
         d="M 0,0 C 0.381,1.954 2.028,3.278 3.682,2.957 5.336,2.636 6.367,0.791 5.987,-1.164 5.607,-3.118 3.959,-4.442 2.307,-4.121 0.652,-3.801 -0.38,-1.954 0,0"
         inkscape:connector-curvature="0" />
    </g>
    <g
       transform="matrix(0.76830377,0,0,-0.76830377,24.20762,9.8845092)"
       id="g7349">
      <path
         id="path7351"
         style="fill:#ffffff;fill-opacity:1;fill-rule:nonzero;stroke:none"
         d="M 0,0 C 0.388,1.266 1.451,2.062 2.377,1.777 3.305,1.495 3.74,0.24 3.354,-1.024 2.968,-2.289 1.903,-3.085 0.978,-2.802 0.052,-2.519 -0.385,-1.265 0,0"
         inkscape:connector-curvature="0" />
    </g>
    <g
       transform="matrix(0.76830377,0,0,-0.76830377,26.084125,13.053763)"
       id="g7353">
      <path
         id="path7355"
         style="fill:#835796;fill-opacity:1;fill-rule:nonzero;stroke:none"
         d="m 0,0 c 0.367,0.02 0.744,0.01 1.13,-0.029 2.875,-0.304 5.029,-2.23 4.811,-4.304 -0.208,-1.98 -2.503,-3.379 -5.21,-3.238 2.376,0.124 4.284,1.441 4.472,3.238 0.22,2.074 -1.936,4 -4.811,4.304 C 0.261,-0.017 0.13,-0.007 0,0"
         inkscape:connector-curvature="0" />
    </g>
    <g
       transform="matrix(0.76830377,0,0,-0.76830377,22.648503,15.541763)"
       id="g7357">
      <path
         id="path7359"
         style="fill:#b18db8;fill-opacity:1;fill-rule:nonzero;stroke:none"
         d="M 0,0 C 0.218,2.074 2.725,3.511 5.602,3.209 6.66,3.097 7.622,2.765 8.404,2.286 7.945,2.436 7.455,2.541 6.941,2.596 4.066,2.897 1.558,1.461 1.34,-0.613 1.201,-1.924 2.011,-3.175 3.35,-3.994 1.242,-3.309 -0.18,-1.704 0,0"
         inkscape:connector-curvature="0" />
    </g>
    <g
       transform="matrix(0.76830377,0,0,-0.76830377,24.3337,14.378091)"
       id="g7361">
      <path
         id="path7363"
         style="fill:#ffffff;fill-opacity:1;fill-rule:nonzero;stroke:none"
         d="M 0,0 C 0,0.645 0.627,1.168 1.399,1.168 2.172,1.168 2.797,0.645 2.797,0 2.797,-0.646 2.172,-1.168 1.399,-1.168 0.627,-1.168 0,-0.646 0,0"
         inkscape:connector-curvature="0" />
    </g>
    <g
       transform="matrix(0.76830377,0,0,-0.76830377,29.713284,55.209975)"
       id="g7365">
      <path
         id="path7367"
         style="fill:#dce8eb;fill-opacity:1;fill-rule:nonzero;stroke:none"
         d="M 0,0 -0.108,-0.1 C -1.623,0.396 -5.016,0.621 -7.937,3.281 -8.24,3.219 -8.344,2.117 -8.344,2.117 c -1.775,1.185 -4.328,4.745 -4.598,4.655 -0.433,-0.327 -0.415,-0.792 -0.525,-1.239 -2.49,1.733 -2.498,4.221 -2.43,5.35 -0.806,0.259 -1.392,-0.676 -1.902,-1.165 -0.684,2.669 -1.192,5.728 -0.729,8.424 -0.576,0.749 -1.212,-0.315 -1.819,-0.472 -0.185,3.25 0.64,6.357 2.427,8.911 0.035,0.253 -1.043,0.14 -1.449,0.159 0.756,2.882 2.766,5.678 5.113,7.637 -0.377,0.334 -0.99,0.238 -1.472,0.375 1.873,1.441 3.957,2.938 6.652,2.785 0.525,0.074 1.053,0.109 1.6,0.077 0.193,-0.11 0.4,-0.211 0.622,-0.301 -3.48,1.694 -6.146,3.758 -8.087,7.143 -0.065,-0.014 -0.128,-0.029 -0.188,-0.05 0.385,0.356 0.771,0.678 1.293,0.787 2.592,-4.523 5.513,-7.23 10.9,-9.303 0,0 -1.935,0.604 -3.918,1.423 -0.222,0.09 -0.429,0.191 -0.622,0.301 -0.547,0.032 -1.075,-0.003 -1.583,-0.088 -1.988,-0.333 -3.683,-1.46 -5.174,-2.609 0.481,-0.136 1.093,-0.041 1.47,-0.375 -2.346,-1.959 -4.745,-4.183 -5.501,-7.064 0.408,-0.02 1.485,0.093 1.45,-0.16 -1.787,-2.553 -2.616,-4.743 -2.43,-7.993 0.606,0.157 1.242,1.22 1.818,0.472 -0.464,-2.695 -0.261,-5.754 0.426,-8.422 0.509,0.489 1.096,1.424 1.9,1.165 -0.068,-1.128 -0.798,-3.435 1.692,-5.167 0.109,0.447 0.091,0.912 0.523,1.238 0.271,0.091 2.247,-3.419 4.023,-4.601 0,0 0.102,1.099 0.407,1.163 C -5.688,1.876 -1.938,0.604 0,0"
         inkscape:connector-curvature="0" />
    </g>
    <g
       transform="matrix(0.76830377,0,0,-0.76830377,17.911137,21.163749)"
       id="g7369">
      <path
         id="path7371"
         style="fill:#dce8eb;fill-opacity:1;fill-rule:nonzero;stroke:none"
         d="M 0,0 C -0.4,-0.19 -0.725,-0.506 -1.066,-0.823 -1.702,0.479 -0.6,1.841 -1.518,2.866 L -2.616,2.657 c 0.393,1.287 1.303,2.41 1.858,3.652 -0.235,0.162 -0.265,0.359 -1.108,0.245 0,0 2.783,8.433 9.661,12.647 C 1.723,14.815 -0.762,7.29 -0.762,7.29 0.082,7.405 0.113,7.208 0.348,7.046 -0.206,5.804 -1.115,4.681 -1.51,3.394 l 1.099,0.209 C 0.486,2.602 -0.549,1.277 0,0"
         inkscape:connector-curvature="0" />
    </g>
    <g
       transform="matrix(0.76830377,0,0,-0.76830377,36.215359,9.0727194)"
       id="g7373">
      <path
         id="path7375"
         style="fill:#dce8eb;fill-opacity:1;fill-rule:nonzero;stroke:none"
         d="M 0,0 C 0.207,0.01 0.416,-0.004 0.625,-0.045 2.279,-0.366 3.311,-2.211 2.931,-4.166 2.551,-6.12 0.902,-7.444 -0.75,-7.123 c -0.303,0.059 -0.586,0.17 -0.844,0.322 1.424,0.07 2.724,1.295 3.055,3.001 C 1.771,-2.203 1.141,-0.681 0,0"
         inkscape:connector-curvature="0" />
    </g>
    <g
       transform="matrix(0.76830377,0,0,-0.76830377,25.373597,8.5377529)"
       id="g7377">
      <path
         id="path7379"
         style="fill:#dce8eb;fill-opacity:1;fill-rule:nonzero;stroke:none"
         d="M 0,0 C 0.284,0.098 0.578,0.111 0.859,0.024 1.787,-0.258 2.223,-1.513 1.837,-2.777 1.45,-4.042 0.386,-4.838 -0.54,-4.555 c -0.237,0.073 -0.44,0.208 -0.608,0.391 0.649,0.222 1.246,0.873 1.516,1.753 C 0.654,-1.47 0.486,-0.532 0,0"
         inkscape:connector-curvature="0" />
    </g>
    <g
       transform="matrix(0.76830377,0,0,-0.76830377,24.816884,10.350482)"
       id="g7381">
      <path
         id="path7383"
         style="fill:#151515;fill-opacity:1;fill-rule:nonzero;stroke:none"
         d="M 0,0 C 0,0.746 0.604,1.352 1.352,1.352 2.098,1.352 2.703,0.746 2.703,0 2.703,-0.747 2.098,-1.354 1.352,-1.354 0.604,-1.354 0,-0.747 0,0"
         inkscape:connector-curvature="0" />
    </g>
    <g
       transform="matrix(0.76830377,0,0,-0.76830377,24.909929,9.8334937)"
       id="g7385">
      <path
         id="path7387"
         style="fill:#ffffff;fill-opacity:1;fill-rule:nonzero;stroke:none"
         d="M 0,0 C 0,0.442 0.359,0.801 0.801,0.801 1.244,0.801 1.604,0.442 1.604,0 1.604,-0.443 1.244,-0.801 0.801,-0.801 0.359,-0.801 0,-0.443 0,0"
         inkscape:connector-curvature="0" />
    </g>
    <g
       transform="matrix(0.76830377,0,0,-0.76830377,35.581361,11.300339)"
       id="g7389">
      <path
         id="path7391"
         style="fill:#000000;fill-opacity:1;fill-rule:nonzero;stroke:none"
         d="M 0,0 C 0,1.085 0.879,1.964 1.964,1.964 3.049,1.964 3.929,1.085 3.929,0 3.929,-1.085 3.049,-1.964 1.964,-1.964 0.879,-1.964 0,-1.085 0,0"
         inkscape:connector-curvature="0" />
    </g>
    <g
       transform="matrix(0.76830377,0,0,-0.76830377,35.675167,10.731641)"
       id="g7393">
      <path
         id="path7395"
         style="fill:#ffffff;fill-opacity:1;fill-rule:nonzero;stroke:none"
         d="M 0,0 C 0,0.541 0.439,0.979 0.98,0.979 1.521,0.979 1.959,0.541 1.959,0 1.959,-0.541 1.521,-0.979 0.98,-0.979 0.439,-0.979 0,-0.541 0,0"
         inkscape:connector-curvature="0" />
    </g>
    <g
       transform="matrix(0.76830377,0,0,-0.76830377,30.510168,23.13706)"
       id="g7397">
      <path
         id="path7399"
         style="fill:#dce8eb;fill-opacity:1;fill-rule:nonzero;stroke:none"
         d="M 0,0 -0.041,0.064 C 0.74,0.526 1.412,1.223 1.875,1.973 1.088,1.491 0.215,1.194 -0.67,1.069 L -0.824,1.314 C 0.457,1.573 1.698,2.202 2.654,3.174 2.233,1.854 1.282,0.539 0,0"
         inkscape:connector-curvature="0" />
    </g>
    <g
       transform="matrix(0.76830377,0,0,-0.76830377,20.225808,5.8479211)"
       id="g7401">
      <path
         id="path7403"
         style="fill:#e7bbb0;fill-opacity:1;fill-rule:nonzero;stroke:none"
         d="M 0,0 C -0.207,0.314 -0.507,0.609 -0.843,0.803 -0.021,1.515 1.063,0.855 1.578,0.076 2.002,-0.408 2.005,-1.312 1.88,-1.916 1.345,-2.439 0.933,-2.98 0.332,-3.479 c -0.313,0.135 -0.633,0.315 -0.925,0.541 0.299,0.313 0.575,0.633 0.897,0.947 C 0.427,-1.387 0.425,-0.483 0,0"
         inkscape:connector-curvature="0" />
    </g>
    <g
       transform="matrix(0.76830377,0,0,-0.76830377,48.113624,7.1722428)"
       id="g7405">
      <path
         id="path7407"
         style="fill:#e7bbb0;fill-opacity:1;fill-rule:nonzero;stroke:none"
         d="M 0,0 C 0.674,-0.771 1.295,-1.95 0.779,-2.97 0.184,-4.403 -1.213,-5.048 -2.459,-5.646 l -0.416,0.51 c 0.865,0.483 1.663,1.097 2.077,2.091 0.517,1.02 -0.106,2.2 -0.778,2.97 C -1.861,0.241 -2.217,0.44 -2.594,0.543 -1.756,0.842 -0.679,0.755 0,0"
         inkscape:connector-curvature="0" />
    </g>
    <g
       transform="matrix(0.76830377,0,0,-0.76830377,19.288705,9.9265387)"
       id="g7409">
      <path
         id="path7411"
         style="fill:#58595a;fill-opacity:1;fill-rule:nonzero;stroke:none"
         d="m 0,0 c -0.268,-0.315 -0.533,-0.614 -0.779,-0.876 -0.739,0.202 -1.399,1.161 -1.849,1.892 -0.029,0.868 -0.315,1.804 -0.118,2.603 -0.483,0.447 -1.202,-0.127 -1.709,-0.335 0.238,0.99 0.539,1.986 1.139,2.797 -0.276,0.532 -0.881,0.374 -1.334,0.545 0.806,1.206 2.157,1.69 3.177,2.638 l -0.209,0.507 c 0.388,0.224 0.838,0.275 1.304,0.262 -1.009,-0.98 -2.359,-1.464 -3.167,-2.67 0.453,-0.17 1.061,-0.013 1.334,-0.545 -0.6,-0.81 -0.898,-1.807 -1.137,-2.797 0.506,0.208 1.225,0.783 1.707,0.334 -0.196,-0.798 0.09,-1.733 0.12,-2.602 C -1.141,1.132 -0.605,0.347 0,0"
         inkscape:connector-curvature="0" />
    </g>
    <g
       transform="matrix(0.76830377,0,0,-0.76830377,51.71574,6.7280096)"
       id="g7413">
      <path
         id="path7415"
         style="fill:#58595a;fill-opacity:1;fill-rule:nonzero;stroke:none"
         d="m 0,0 c 0.512,-1.039 1,-2.183 1.211,-3.383 -0.46,1.196 -1.064,2.314 -1.571,3.294 L 0,0 z"
         inkscape:connector-curvature="0" />
    </g>
    <g
       transform="matrix(0.76830377,0,0,-0.76830377,49.138541,4.6940028)"
       id="g7417">
      <path
         id="path7419"
         style="fill:#58595a;fill-opacity:1;fill-rule:nonzero;stroke:none"
         d="M 0,0 0.629,0.779 C 1.674,0.232 2.887,-0.077 3.76,-1.041 L 2.668,-1.311 2.762,-1.487 C 1.813,-0.997 0.775,-0.703 0,0"
         inkscape:connector-curvature="0" />
    </g>
    <g
       transform="matrix(0.76830377,0,0,-0.76830377,48.886384,3.5977867)"
       id="g7421">
      <path
         id="path7423"
         style="fill:#58595a;fill-opacity:1;fill-rule:nonzero;stroke:none"
         d="m 0,0 c 0.271,-0.248 0.578,-0.444 0.898,-0.615 -1.619,-0.114 -3.51,-0.358 -4.845,-1.323 -0.209,0.202 0.064,1.068 -0.135,1.556 1.347,0.874 3.181,1.093 4.744,1.197 L 0,0 z"
         inkscape:connector-curvature="0" />
    </g>
    <g
       transform="matrix(0.76830377,0,0,-0.76830377,42.979278,7.7116726)"
       id="g7425">
      <path
         id="path7427"
         style="fill:#58595a;fill-opacity:1;fill-rule:nonzero;stroke:none"
         d="M 0,0 C -0.187,0.213 -0.374,0.425 -0.563,0.625 0.041,2.868 1.114,5.1 3.242,6.475 3.487,6.045 3.246,5.217 3.368,4.914 1.619,3.701 0.614,1.892 0,0"
         inkscape:connector-curvature="0" />
    </g>
    <g
       transform="matrix(0.76830377,0,0,-0.76830377,15.685748,48.713887)"
       id="g7429">
      <path
         id="path7431"
         style="fill:#58595a;fill-opacity:1;fill-rule:nonzero;stroke:none"
         d="m 0,0 c 0.305,-0.191 0.512,-0.107 0.688,0.087 0.32,-1.429 0.764,-2.8 1.294,-4.017 0.329,0.44 0.915,0.191 1.194,-0.091 -0.287,-1.712 1.428,-4.269 2.011,-5.507 -1.513,-1.032 -3.556,-2.763 -3.841,-4.785 0.095,-0.404 0.32,-0.638 0.609,-0.776 0.016,-0.228 0.063,-0.456 0.153,-0.673 -0.819,0.1 -2.223,-0.171 -2.503,1.013 0.286,2.023 2.33,3.753 3.839,4.785 -0.582,1.239 -2.297,3.795 -2.009,5.506 -0.28,0.282 -0.867,0.532 -1.194,0.094 C -1.236,-0.971 -2.061,3.613 -1.3,7.336 -1.115,4.989 -1.063,2.13 0,0"
         inkscape:connector-curvature="0" />
    </g>
    <g
       transform="matrix(0.76830377,0,0,-0.76830377,21.715168,61.715049)"
       id="g7433">
      <path
         id="path7435"
         style="fill:#58595a;fill-opacity:1;fill-rule:nonzero;stroke:none"
         d="M 0,0 -0.68,-0.398 C -2.26,-0.473 -3.932,-0.555 -4.998,0.704 -5.221,1.065 -5.217,1.375 -5.098,1.649 -4.709,1.618 -3.397,1.367 -3.258,1.14 -2.43,0.161 -1.233,-0.007 0,0"
         inkscape:connector-curvature="0" />
    </g>
    <g
       transform="matrix(0.76830377,0,0,-0.76830377,27.534455,61.242309)"
       id="g7437">
      <path
         id="path7439"
         style="fill:#58595a;fill-opacity:1;fill-rule:nonzero;stroke:none"
         d="m 0,0 c -1.465,-0.799 -3.658,-0.351 -5.445,0.05 l 0.603,0.356 -0.023,0.061 0.307,-0.001 c 0.297,0 0.593,0.004 0.886,0.012 C -2.514,0.219 -1.188,-0.058 0,0"
         inkscape:connector-curvature="0" />
    </g>
    <g
       transform="matrix(0.76830377,0,0,-0.76830377,34.380194,60.406548)"
       id="g7441">
      <path
         id="path7443"
         style="fill:#58595a;fill-opacity:1;fill-rule:nonzero;stroke:none"
         d="m 0,0 c -0.002,-0.053 -0.008,-0.105 -0.016,-0.161 -0.804,-0.644 -1.728,-1.333 -2.935,-1.118 -1.293,0.176 -2.871,0.383 -3.489,1.813 -0.239,1.376 0.288,2.584 1.213,3.553 L -5.66,6.128 c 0.463,0.403 0.967,0.728 1.496,1.006 L -3.752,5.193 C -4.678,4.223 -5.203,3.016 -4.967,1.64 -4.349,0.21 -2.771,0.002 -1.475,-0.173 -0.932,-0.27 -0.445,-0.183 0,0"
         inkscape:connector-curvature="0" />
    </g>
    <g
       transform="matrix(0.76830377,0,0,-0.76830377,39.260841,60.603855)"
       id="g7445">
      <path
         id="path7447"
         style="fill:#58595a;fill-opacity:1;fill-rule:nonzero;stroke:none"
         d="m 0,0 c -0.11,-0.158 -0.259,-0.313 -0.455,-0.466 -1.218,-1.155 -2.8,-0.916 -4.367,-0.52 -0.493,-0.053 -0.545,0.44 -0.762,0.729 0.108,0.287 0.237,0.606 0.342,0.935 0.424,-0.063 0.86,-0.109 1.307,-0.138 0.119,-0.235 0.25,-0.456 0.588,-0.421 C -2.189,-0.174 -1.022,-0.38 0,0"
         inkscape:connector-curvature="0" />
    </g>
    <g
       transform="matrix(0.76830377,0,0,-0.76830377,42.63646,59.493422)"
       id="g7449">
      <path
         id="path7451"
         style="fill:#58595a;fill-opacity:1;fill-rule:nonzero;stroke:none"
         d="m 0,0 c -0.187,-0.509 -0.714,-0.744 -1.137,-1.085 -0.715,-0.013 -1.589,-0.291 -2.172,-0.072 0.118,0.219 0.237,0.47 0.334,0.741 l 0.036,0.049 c 0.402,0.114 0.783,0.245 1.143,0.388 L -1.835,-0.052 C -1.341,-0.237 -0.638,-0.065 0,0"
         inkscape:connector-curvature="0" />
    </g>
    <g
       transform="matrix(0.76830377,0,0,-0.76830377,11.048961,19.859016)"
       id="g7453">
      <path
         id="path7455"
         style="fill:#f3dcca;fill-opacity:1;fill-rule:nonzero;stroke:none"
         d="M 0,0 C 0,0.787 0.715,1.426 1.598,1.426 2.479,1.426 3.193,0.787 3.193,0 3.193,-0.788 2.479,-1.427 1.598,-1.427 0.715,-1.427 0,-0.788 0,0"
         inkscape:connector-curvature="0" />
    </g>
    <g
       transform="matrix(0.76830377,0,0,-0.76830377,8.1977792,18.569956)"
       id="g7457">
      <path
         id="path7459"
         style="fill:#f3dcca;fill-opacity:1;fill-rule:nonzero;stroke:none"
         d="M 0,0 C 0.143,0.37 0.681,0.509 1.203,0.309 1.724,0.109 2.03,-0.354 1.89,-0.725 1.746,-1.096 1.209,-1.234 0.688,-1.034 0.166,-0.833 -0.142,-0.371 0,0"
         inkscape:connector-curvature="0" />
    </g>
    <g
       transform="matrix(0.76830377,0,0,-0.76830377,7.9967172,21.160749)"
       id="g7461">
      <path
         id="path7463"
         style="fill:#f3dcca;fill-opacity:1;fill-rule:nonzero;stroke:none"
         d="M 0,0 C 0,0.336 0.43,0.609 0.963,0.609 1.494,0.609 1.926,0.336 1.926,0 1.926,-0.337 1.494,-0.61 0.963,-0.61 0.43,-0.61 0,-0.337 0,0"
         inkscape:connector-curvature="0" />
    </g>
    <g
       transform="matrix(0.76830377,0,0,-0.76830377,10.450987,17.003385)"
       id="g7465">
      <path
         id="path7467"
         style="fill:#f3dcca;fill-opacity:1;fill-rule:nonzero;stroke:none"
         d="M 0,0 C 0,0.417 0.305,0.755 0.682,0.755 1.059,0.755 1.364,0.417 1.364,0 1.364,-0.418 1.059,-0.756 0.682,-0.756 0.305,-0.756 0,-0.418 0,0"
         inkscape:connector-curvature="0" />
    </g>
    <g
       transform="matrix(0.76830377,0,0,-0.76830377,14.207684,17.550336)"
       id="g7469">
      <path
         id="path7471"
         style="fill:#f3dcca;fill-opacity:1;fill-rule:nonzero;stroke:none"
         d="M 0,0 C 0.198,0.465 0.699,0.696 1.121,0.517 1.542,0.339 1.725,-0.184 1.527,-0.648 1.329,-1.113 0.828,-1.344 0.407,-1.165 -0.015,-0.986 -0.197,-0.465 0,0"
         inkscape:connector-curvature="0" />
    </g>
    <g
       transform="matrix(0.76830377,0,0,-0.76830377,49.888019,22.022866)"
       id="g7473">
      <path
         id="path7475"
         style="fill:#f3dcca;fill-opacity:1;fill-rule:nonzero;stroke:none"
         d="M 0,0 C -0.226,0.504 -0.063,1.066 0.362,1.255 0.786,1.444 1.311,1.188 1.536,0.684 1.76,0.179 1.598,-0.383 1.174,-0.571 0.75,-0.76 0.224,-0.505 0,0"
         inkscape:connector-curvature="0" />
    </g>
    <g
       transform="matrix(0.76830377,0,0,-0.76830377,52.789441,23.586439)"
       id="g7477">
      <path
         id="path7479"
         style="fill:#f3dcca;fill-opacity:1;fill-rule:nonzero;stroke:none"
         d="m 0,0 c 0,0.788 0.525,1.426 1.172,1.426 0.645,0 1.17,-0.638 1.17,-1.426 0,-0.787 -0.525,-1.426 -1.17,-1.426 C 0.525,-1.426 0,-0.787 0,0"
         inkscape:connector-curvature="0" />
    </g>
    <g
       transform="matrix(0.76830377,0,0,-0.76830377,53.472236,20.486947)"
       id="g7481">
      <path
         id="path7483"
         style="fill:#f3dcca;fill-opacity:1;fill-rule:nonzero;stroke:none"
         d="M 0,0 C 0.085,0.484 0.434,0.827 0.777,0.766 1.123,0.705 1.334,0.264 1.248,-0.22 1.162,-0.704 0.813,-1.046 0.469,-0.986 0.125,-0.925 -0.086,-0.483 0,0"
         inkscape:connector-curvature="0" />
    </g>
    <g
       transform="matrix(0.76830377,0,0,-0.76830377,56.009709,21.130713)"
       id="g7485">
      <path
         id="path7487"
         style="fill:#f3dcca;fill-opacity:1;fill-rule:nonzero;stroke:none"
         d="M 0,0 C 0.279,0.429 0.784,0.596 1.127,0.372 1.473,0.147 1.525,-0.38 1.246,-0.809 0.968,-1.238 0.464,-1.405 0.119,-1.182 -0.225,-0.958 -0.279,-0.429 0,0"
         inkscape:connector-curvature="0" />
    </g>
    <g
       transform="matrix(0.76830377,0,0,-0.76830377,56.251344,23.533198)"
       id="g7489">
      <path
         id="path7491"
         style="fill:#f3dcca;fill-opacity:1;fill-rule:nonzero;stroke:none"
         d="M 0,0 C 0.338,0.328 0.806,0.393 1.045,0.146 1.283,-0.102 1.201,-0.566 0.862,-0.894 0.523,-1.221 0.056,-1.286 -0.183,-1.039 -0.422,-0.793 -0.34,-0.327 0,0"
         inkscape:connector-curvature="0" />
    </g>
    <g
       transform="matrix(0.76830377,0,0,-0.76830377,39.860351,28.420605)"
       id="g7493">
      <path
         id="path7495"
         style="fill:#58595a;fill-opacity:1;fill-rule:nonzero;stroke:none"
         d="M 0,0 C -0.285,0.27 -0.57,0.539 -0.853,0.812 0.158,1.26 1.24,1.935 2.147,2.777 2.217,2.41 2.42,1.964 2.828,1.945 3.386,2.253 3.97,2.625 4.352,3.133 5.222,3.162 6.084,4.124 6.877,3.398 l 0.724,0.825 4.969,1.891 c 0.197,0.207 0.196,0.519 0.133,0.824 0.09,-0.035 0.291,-0.078 0.53,-0.102 0.187,-0.766 0.39,-1.345 0.39,-1.345 L 0,0 z"
         inkscape:connector-curvature="0" />
    </g>
    <g
       transform="matrix(0.76830377,0,0,-0.76830377,52.164429,20.201906)"
       id="g7497">
      <path
         id="path7499"
         style="fill:#58595a;fill-opacity:1;fill-rule:nonzero;stroke:none"
         d="M 0,0 C 0.001,0.098 0,0.207 -0.007,0.324 0.18,0.936 0.724,1.678 1.323,1.897 1.632,1.989 1.913,2.003 2.165,1.955 1.198,1.478 0.481,0.687 0,0"
         inkscape:connector-curvature="0" />
    </g>
    <g
       transform="matrix(0.76830377,0,0,-0.76830377,51.009742,20.764613)"
       id="g7501">
      <path
         id="path7503"
         style="fill:#58595a;fill-opacity:1;fill-rule:nonzero;stroke:none"
         d="m 0,0 -0.051,0.084 c -0.44,0.64 -1.254,0.367 -1.784,0.094 l -0.439,-0.265 c -0.289,0.374 0.288,0.809 0.645,0.972 0.748,0.401 1.9,-0.918 2.578,-1.064 -0.135,-0.26 -0.201,-0.425 -0.201,-0.425 0,0 -0.334,0.333 -0.748,0.604"
         inkscape:connector-curvature="0" />
    </g>
  </g>
</svg>
