<?xml version="1.0" encoding="UTF-8" standalone="no"?>
<!-- Created with Inkscape (http://www.inkscape.org/) -->

<svg
   xmlns:dc="http://purl.org/dc/elements/1.1/"
   xmlns:cc="http://creativecommons.org/ns#"
   xmlns:rdf="http://www.w3.org/1999/02/22-rdf-syntax-ns#"
   xmlns:svg="http://www.w3.org/2000/svg"
   xmlns="http://www.w3.org/2000/svg"
   xmlns:sodipodi="http://sodipodi.sourceforge.net/DTD/sodipodi-0.dtd"
   xmlns:inkscape="http://www.inkscape.org/namespaces/inkscape"
   width="64px"
   height="64px"
   id="svg206034"
   version="1.1"
   inkscape:version="0.48.5 r10040"
   sodipodi:docname="Nowy dokument 78">
  <defs
     id="defs206036" />
  <sodipodi:namedview
     id="base"
     pagecolor="#ffffff"
     bordercolor="#666666"
     borderopacity="1.0"
     inkscape:pageopacity="0.0"
     inkscape:pageshadow="2"
     inkscape:zoom="5.5"
     inkscape:cx="32"
     inkscape:cy="21.045954"
     inkscape:current-layer="layer1"
     showgrid="true"
     inkscape:document-units="px"
     inkscape:grid-bbox="true"
     inkscape:window-width="1366"
     inkscape:window-height="706"
     inkscape:window-x="-8"
     inkscape:window-y="-8"
     inkscape:window-maximized="1" />
  <metadata
     id="metadata206039">
    <rdf:RDF>
      <cc:Work
         rdf:about="">
        <dc:format>image/svg+xml</dc:format>
        <dc:type
           rdf:resource="http://purl.org/dc/dcmitype/StillImage" />
        <dc:title></dc:title>
      </cc:Work>
    </rdf:RDF>
  </metadata>
  <g
     id="layer1"
     inkscape:label="Layer 1"
     inkscape:groupmode="layer">
    <g
       id="g56313"
       transform="matrix(1.2147404,0,0,-1.2147404,27.14356,1.7504537)">
      <path
         inkscape:connector-curvature="0"
         d="m 0,0 c -0.898,0.394 -1.875,0.944 -2.915,0.992 -0.063,-0.031 0.693,-0.898 0.992,-1.323 -0.678,0.205 -1.559,0.282 -2.348,0.188 -0.062,-0.046 0.915,-0.615 1.356,-0.944 -0.346,-0.175 -1.323,0.22 -1.387,-0.348 1.182,-0.598 2.427,-1.072 3.625,-1.654 -2.143,-2.442 -2.569,-5.609 -2.916,-8.745 0.047,-0.048 -1.029,-0.89 -1.812,-2.979 -1.717,-4.19 -2.19,-8.917 -2.079,-13.661 -2.079,0.442 -4.066,0.568 -6.32,0.489 -0.567,-0.142 -0.73,-0.056 -1.076,-0.591 -0.348,-0.552 -0.533,-1.424 -0.391,-2.086 2.333,-0.19 5.108,-0.332 7.629,-0.601 0.457,-0.929 0.284,-1.875 1.024,-2.647 0.378,-0.126 0.236,1.749 0.378,2.333 0.393,0.047 0.803,-0.065 1.182,-0.191 -0.363,-2.425 -0.545,-5.05 -0.56,-7.446 -0.158,-3.229 0.04,-6.687 0.56,-9.791 -0.189,-0.268 0.237,-0.394 0.41,-0.488 2.756,-1.245 6.098,-1.231 8.997,-0.3 0.441,0.189 0.898,0.488 1.181,0.897 0.064,1.12 -1.071,1.908 -1.48,2.805 -1.135,2.08 -4.682,8.946 -4.459,13.993 -0.065,-0.015 -0.079,0.047 -0.112,0.078 0.442,0.08 1.008,0.095 1.434,0.033 0.158,-0.978 0.316,-3.153 0.379,-3.105 0.568,0.962 1.576,1.639 1.732,2.758 0.396,-0.063 0.836,-0.031 1.183,0.126 -0.031,-0.395 0.016,-0.835 0.11,-1.104 0.348,-0.078 0.599,-0.41 0.946,-0.157 0.646,0.535 0.741,1.418 0.677,2.238 l 0.111,0.079 c 2.285,-0.064 4.68,0.173 6.917,-0.347 2.789,0.205 5.209,-0.32 8.14,-0.241 l 0.079,0.079 c -0.268,0.158 0,0.457 -0.079,0.724 l 0.219,0.079 -0.33,0.111 c -2.946,-0.079 -5.114,0.445 -7.981,1.106 -1.37,0.096 -2.742,-0.252 -3.971,0.3 0.551,0.583 1.371,0.836 2.032,1.324 2.695,2.112 5.266,3.591 8.322,4.774 0,0 -0.488,1.228 -0.787,0.535 -2.412,-0.866 -4.651,-1.401 -6.59,-3.23 -1.244,-0.975 -2.772,-1.259 -4.033,-2.189 -0.74,-0.567 -1.576,-1.056 -2.427,-1.434 -0.362,0.331 -0.866,-0.015 -1.165,0.442 -0.174,0.14 -0.71,-0.032 -0.537,0.346 0.489,1.324 0.521,2.835 1.293,4.049 0.015,0.222 0.047,0.6 0.377,0.568 0.427,0.378 0.19,1.386 0.789,1.433 0.172,0.536 0.346,1.104 0.377,1.702 0.174,-0.111 0.347,0.158 0.379,0.299 0.237,0.616 -0.315,1.183 0.078,1.702 -0.062,0.521 -0.015,1.087 -0.188,1.561 0.014,0.047 0.078,0.031 0.11,0.031 -0.268,0.96 -0.725,1.907 -1.623,2.536 0.662,0.048 1.402,0.112 1.891,0.709 1.023,-0.298 1.023,-1.464 1.355,-2.268 -0.063,-0.19 0.142,-0.378 -0.031,-0.521 0.646,-0.219 1.181,0.757 1.591,1.214 1.071,1.953 0.946,4.712 -0.269,6.57 -0.709,1.088 -1.89,1.97 -3.135,2.239 0.252,0.141 0.395,0.41 0.489,0.677 -0.016,0.316 -0.41,0.22 -0.615,0.346 L 6.665,-4.76 C 6.476,-4.57 6.303,-4.822 6.098,-4.79 5.829,-3.389 4.885,-1.845 3.672,-1.136 3.546,-1.119 3.514,-1.593 3.45,-1.655 2.474,-0.269 1.009,0.472 -0.457,1.103 -0.552,1.103 -0.269,0.299 0,0"
         style="fill:#000000;fill-opacity:1;fill-rule:nonzero;stroke:none"
         id="path56315" />
    </g>
    <g
       id="g56317"
       transform="matrix(1.2147404,0,0,-1.2147404,41.249416,34.079923)">
      <path
         inkscape:connector-curvature="0"
         d="m 0,0 c -2.096,-0.804 -3.859,-2.144 -5.861,-3.184 0.111,-0.235 0.316,-0.582 0.22,-0.976 1.733,-0.016 3.861,0.015 5.611,-0.078 2.237,-0.584 4.758,-0.127 7.058,-0.536 0.976,0.015 1.655,0.015 2.536,-0.142 0.065,0.142 0.033,0.33 0.048,0.488 -2.883,-0.142 -5.751,0.441 -8.446,1.103 -1.354,0 -2.852,-0.237 -4.08,0.331 -0.236,-0.094 -0.457,-0.457 -0.709,-0.268 1.102,1.56 3.215,1.97 4.568,3.341 0.868,0.299 1.451,1.15 2.348,1.465 1.482,0.709 2.916,1.513 4.492,1.97 C 7.549,4.381 6.965,3.481 6.588,3.481 4.271,2.71 1.892,1.812 0,0"
         style="fill:#9c6024;fill-opacity:1;fill-rule:nonzero;stroke:none"
         id="path56319" />
    </g>
    <g
       id="g56321"
       transform="matrix(1.2147404,0,0,-1.2147404,9.0563668,36.338485)">
      <path
         inkscape:connector-curvature="0"
         d="m 0,0 c -0.379,-0.505 -0.742,-1.214 -0.427,-1.891 1.718,0.015 3.073,-0.142 4.806,-0.299 2.19,-0.032 4.539,-0.678 6.84,-0.756 0.047,0.598 -0.032,1.149 -0.221,1.67 l -0.41,0 C 8.461,-0.898 6.791,0.397 0,0"
         style="fill:#9c6024;fill-opacity:1;fill-rule:nonzero;stroke:none"
         id="path56323" />
    </g>
    <g
       id="g56325"
       transform="matrix(1.2147404,0,0,-1.2147404,26.550378,37.391908)">
      <path
         inkscape:connector-curvature="0"
         d="m 0,0 c 0.269,-0.646 0.269,-1.512 0.157,-2.236 0.819,-0.127 1.781,0.078 2.522,0.126 0.472,0.583 0.283,1.433 -0.032,2.032 C 1.78,0.017 0.866,-0.078 0,0"
         style="fill:#9c6024;fill-opacity:1;fill-rule:nonzero;stroke:none"
         id="path56327" />
    </g>
    <g
       id="g56329"
       transform="matrix(1.2147404,0,0,-1.2147404,37.306272,36.742994)">
      <path
         inkscape:connector-curvature="0"
         d="m 0,0 c -0.67,-0.402 -1.34,-0.811 -2.035,-1.188 l 0.033,-0.095 c 0.023,-0.073 0.045,-0.154 0.06,-0.239 l 1.471,-0.004 c -0.057,0.022 -0.117,0.054 -0.175,0.098 -0.184,0.138 -0.229,0.429 -0.097,0.617 C -0.524,-0.502 -0.272,-0.235 0,0 M 0.009,-1.528 C 0.422,-1.529 0.838,-1.533 1.248,-1.539 0.955,-1.489 0.662,-1.415 0.377,-1.306 0.33,-1.343 0.281,-1.38 0.233,-1.412 0.18,-1.45 0.102,-1.495 0.009,-1.528 M 3.328,-1.613 C 4.106,-1.815 4.928,-1.888 5.785,-1.915 5.304,-1.808 4.828,-1.694 4.358,-1.58 4.016,-1.582 3.664,-1.598 3.31,-1.61 l 0.018,-0.003 z"
         style="fill:#b9834e;fill-opacity:1;fill-rule:nonzero;stroke:none"
         id="path56331" />
    </g>
    <g
       id="g56333"
       transform="matrix(1.2147404,0,0,-1.2147404,8.9438333,38.090626)">
      <path
         inkscape:connector-curvature="0"
         d="m 0,0 c 1.572,-0.007 2.869,-0.153 4.496,-0.301 2.045,-0.032 4.226,-0.595 6.378,-0.733 -0.01,0.261 -0.047,0.511 -0.111,0.753 l -0.082,0 -0.078,0.007 C 9.535,-0.084 8.581,0.335 7.044,0.656 5.589,0.963 3.57,1.183 0.332,1.008 0.103,0.664 -0.034,0.316 0,0"
         style="fill:#b9834e;fill-opacity:1;fill-rule:nonzero;stroke:none"
         id="path56335" />
    </g>
    <g
       id="g56337"
       transform="matrix(1.2147404,0,0,-1.2147404,27.346373,39.613785)">
      <path
         inkscape:connector-curvature="0"
         d="M 0,0 C 0.236,-0.005 0.488,0.011 0.75,0.035 1.104,0.068 1.451,0.116 1.768,0.146 1.92,0.461 1.876,0.898 1.697,1.327 1.119,1.368 0.527,1.342 -0.055,1.353 0.027,0.907 0.033,0.437 0,0"
         style="fill:#b9834e;fill-opacity:1;fill-rule:nonzero;stroke:none"
         id="path56339" />
    </g>
    <g
       id="g56341"
       transform="matrix(1.2147404,0,0,-1.2147404,27.200507,7.6651509)">
      <path
         inkscape:connector-curvature="0"
         d="M 0,0 C -0.283,-0.426 -0.409,-0.978 -0.347,-1.481 -0.252,-2.68 1.229,-3.31 1.356,-4.507 0.655,-9.98 4.869,-9.801 4.869,-9.801 l 0.11,0 C 4.334,-9.155 4.255,-8.21 3.892,-7.422 3.278,-6.682 2.71,-5.768 3.058,-4.696 3.451,-3.389 4.821,-2.159 6.162,-2.048 5.642,-0.331 3.924,0.63 2.271,0.944 1.356,0.992 0.44,0.818 0,0"
         style="fill:#ffffff;fill-opacity:1;fill-rule:nonzero;stroke:none"
         id="path56343" />
    </g>
    <g
       id="g56345"
       transform="matrix(1.2147404,0,0,-1.2147404,32.364222,17.905043)">
      <path
         inkscape:connector-curvature="0"
         d="M 0,0 C -0.111,0.342 -0.211,0.688 -0.359,1.008 -0.973,1.748 -1.541,2.662 -1.193,3.733 -0.8,5.041 0.57,6.271 1.911,6.382 1.45,7.902 0.05,8.829 -1.413,9.241 -1.236,7.482 -1.002,7.301 -1.695,6.691 -2.466,6.014 -2.824,5.109 -2.26,3.097 -1.852,1.643 -1.061,0.542 0,0"
         style="fill:#dce8eb;fill-opacity:1;fill-rule:nonzero;stroke:none"
         id="path56347" />
    </g>
    <g
       id="g56349"
       transform="matrix(1.2147404,0,0,-1.2147404,24.214675,1.0624248)">
      <path
         inkscape:connector-curvature="0"
         d="m 0,0 c 0.6,-0.52 1.702,-1.732 1.654,-1.812 -0.802,0.552 -1.843,0.82 -2.758,0.804 0.678,-0.332 1.924,-1.198 1.861,-1.214 -0.583,0.238 -1.292,0.142 -1.939,0.221 1.213,-0.536 2.427,-1.056 3.64,-1.592 -0.015,-0.236 -0.283,-0.189 -0.425,-0.299 -2.287,-2.06 -2.789,-7.737 -2.789,-8.587 1.229,-0.221 2.127,-1.119 3.088,-1.922 0.804,-0.742 1.419,-1.718 1.828,-2.68 0.047,0.268 0.315,0.442 0.52,0.521 -0.094,0.125 -0.205,0.299 -0.11,0.456 0.125,0.126 0.299,0.173 0.489,0.159 -0.095,0.188 -0.143,0.424 0.046,0.598 l 0.489,0.032 c -0.047,0.062 -0.047,0.157 -0.047,0.235 -2.049,0.851 -2.08,3.31 -2.08,5.248 L 3.436,-9.864 c -0.095,0.946 -1.434,2.238 -1.434,2.238 -0.563,1.787 0.346,2.757 1.087,3.167 1.891,0.614 3.797,-0.252 5.042,-1.732 0.348,-0.379 0.489,-0.852 0.678,-1.292 0.204,0.126 0.472,0.282 0.567,0.534 -0.142,0.126 -0.521,0.016 -0.567,0.301 l 0,0.976 c -0.174,-0.079 -0.426,-0.189 -0.569,0 -0.188,0.299 -0.156,0.661 -0.267,0.992 -0.299,0.898 -0.85,1.749 -1.623,2.379 -0.189,-0.362 0.237,-0.945 -0.377,-0.975 -0.537,1.574 -2.034,2.52 -3.452,3.167 0.331,-0.583 0.961,-1.183 1.26,-1.845 0,0 -2.442,1.64 -3.781,1.954"
         style="fill:#feec19;fill-opacity:1;fill-rule:nonzero;stroke:none"
         id="path56351" />
    </g>
    <g
       id="g56353"
       transform="matrix(1.2147404,0,0,-1.2147404,34.3976,11.168219)">
      <path
         inkscape:connector-curvature="0"
         d="m 0,0 c -1.056,-2.899 2.553,-4.428 2.616,-7.139 0.157,-0.566 0.299,-1.133 0.347,-1.749 1.906,1.292 1.812,4.145 1.323,6.099 -0.552,1.575 -2.127,3.183 -3.86,3.246 L 0,0 z"
         style="fill:#fbea98;fill-opacity:1;fill-rule:nonzero;stroke:none"
         id="path56355" />
    </g>
    <g
       id="g56357"
       transform="matrix(1.2147404,0,0,-1.2147404,31.603892,12.77568)">
      <path
         inkscape:connector-curvature="0"
         d="m 0,0 c -1.295,-3.365 3.151,-4.113 4.459,-5.169 -0.504,2.285 -3.53,3.986 -2.38,6.618 L 2.426,1.828 C 1.465,1.576 0.551,0.897 0,0"
         style="fill:#835796;fill-opacity:1;fill-rule:nonzero;stroke:none"
         id="path56359" />
    </g>
    <g
       id="g56361"
       transform="matrix(1.2147404,0,0,-1.2147404,21.823094,18.288298)">
      <path
         inkscape:connector-curvature="0"
         d="m 0,0 c -0.237,-0.615 -0.615,-1.151 -0.758,-1.813 0.158,-0.267 0.457,-0.141 0.679,0 0.739,0.347 1.323,1.561 1.323,1.561 C 0.74,-0.93 0.436,-2.853 1.322,-3.026 2.063,-2.963 3.214,-1.135 3.214,-1.135 2.978,-1.907 2.82,-2.947 3.104,-3.703 3.246,-3.782 3.435,-3.861 3.592,-3.782 4.38,-3.12 4.711,-2.206 4.758,-1.198 3.813,-0.126 2.679,0.756 1.434,1.292 0.709,1.292 0.299,0.535 0,0"
         style="fill:#c00a21;fill-opacity:1;fill-rule:nonzero;stroke:none"
         id="path56363" />
    </g>
    <g
       id="g56365"
       transform="matrix(1.2147404,0,0,-1.2147404,33.804418,19.437802)">
      <path
         inkscape:connector-curvature="0"
         d="M 0,0 C 0.567,0 1.088,0.173 1.512,0.504 0.709,0.852 -0.188,1.135 -0.945,1.702 -0.74,1.087 -0.488,0.426 0,0"
         style="fill:#835796;fill-opacity:1;fill-rule:nonzero;stroke:none"
         id="path56367" />
    </g>
    <g
       id="g56369"
       transform="matrix(1.2147404,0,0,-1.2147404,31.334608,19.570569)">
      <path
         inkscape:connector-curvature="0"
         d="m 0,0 c -0.03,-0.143 0.205,-0.395 -0.078,-0.457 -0.158,0.109 -0.348,0.188 -0.568,0.157 -0.094,-0.267 0.521,-0.535 0.08,-0.678 -0.174,0.064 -0.315,0.032 -0.457,0.032 -0.095,-0.126 0.109,-0.283 0.142,-0.456 -0.315,-0.112 -0.694,-0.379 -0.49,-0.757 -0.268,0 -0.125,-0.348 -0.109,-0.488 0.298,-2.269 -0.332,-4.333 -1.513,-6.083 l 0.188,0 c 0.064,-0.19 -0.125,-0.346 -0.078,-0.568 0.299,-0.156 0.442,0.316 0.678,0.032 -0.079,-0.188 -0.158,-0.425 -0.064,-0.645 0.3,-0.237 0.425,0.457 0.709,0.156 -0.03,-0.252 -0.188,-0.487 -0.079,-0.756 0.174,-0.173 0.41,-0.156 0.568,0 0.079,0.064 0.141,0.173 0.237,0.19 0.156,-0.269 -0.047,-0.773 0.377,-0.867 0.394,0.046 0.457,0.598 0.679,0.788 0.093,-0.252 0.03,-0.756 0.266,-1.056 0.584,0.74 0.9,1.685 1.026,2.615 l 0.409,-0.079 0.378,1.781 c 0.111,0.126 0.394,-0.141 0.379,-0.267 0.109,0.598 0.299,1.386 0.109,2.001 0.095,0.079 0.41,-0.269 0.457,-0.457 0.127,0.803 -0.205,1.497 -0.41,2.189 0.348,0.205 0.379,-0.299 0.568,-0.44 -0.062,0.819 -0.425,1.512 -0.836,2.189 0.049,0.126 0.457,-0.109 0.457,-0.109 C 2.521,-1.34 2.111,-0.315 1.088,-0.222 0.709,-0.41 0.348,-0.079 0,0"
         style="fill:#cf6b4d;fill-opacity:1;fill-rule:nonzero;stroke:none"
         id="path56371" />
    </g>
    <g
       id="g56373"
       transform="matrix(1.2147404,0,0,-1.2147404,20.999889,20.986965)">
      <path
         inkscape:connector-curvature="0"
         d="m 0,0 -0.189,0.109 c -0.504,-1.338 -0.852,-2.851 -1.182,-4.316 0.393,-0.032 0.819,0.235 1.135,0.566 0.14,1.403 0.55,2.758 1.322,3.829 -0.047,0.126 -0.047,0.173 0,0.299 C 0.756,0.268 0.457,-0.189 0,0"
         style="fill:#008acc;fill-opacity:1;fill-rule:nonzero;stroke:none"
         id="path56375" />
    </g>
    <g
       id="g56377"
       transform="matrix(1.2147404,0,0,-1.2147404,25.17189,28.300422)">
      <path
         inkscape:connector-curvature="0"
         d="M 0,0 C 0.126,-0.314 0,-0.787 0.457,-0.896 1.118,-1.181 1.371,-0.33 1.67,0 2.6,1.828 2.868,4.129 2.567,6.24 L 2.427,6.478 C 2.096,4.066 1.292,2.002 0,0"
         style="fill:#008acc;fill-opacity:1;fill-rule:nonzero;stroke:none"
         id="path56379" />
    </g>
    <g
       id="g56381"
       transform="matrix(1.2147404,0,0,-1.2147404,25.995193,23.245644)">
      <path
         inkscape:connector-curvature="0"
         d="M 0,0 C -0.284,0.015 -0.567,0.142 -0.709,0.425 -0.851,0.851 -0.756,1.102 -0.788,1.591 L -1.323,1.055 -1.276,1.024 c -0.521,-1.434 -0.709,-3.057 -0.725,-4.649 0.126,-0.236 0.016,-0.567 0.268,-0.756 1.087,0.094 1.228,1.324 1.78,2.001 0.567,1.292 1.087,2.616 1.355,4.05 C 1.134,1.055 0.772,0.204 0,0"
         style="fill:#008acc;fill-opacity:1;fill-rule:nonzero;stroke:none"
         id="path56383" />
    </g>
    <g
       id="g56385"
       transform="matrix(1.2147404,0,0,-1.2147404,21.171896,27.054837)">
      <path
         inkscape:connector-curvature="0"
         d="M 0,0 C 0.03,-0.269 0.204,-0.567 0.457,-0.646 1.181,-0.395 1.308,0.44 1.702,1.023 1.733,2.158 2.048,3.088 2.315,4.081 2.079,3.986 1.796,3.859 1.56,4.049 1.354,4.237 1.008,4.38 0.993,4.759 0.188,3.403 -0.315,1.765 0,0"
         style="fill:#008acc;fill-opacity:1;fill-rule:nonzero;stroke:none"
         id="path56387" />
    </g>
    <g
       id="g56389"
       transform="matrix(1.2147404,0,0,-1.2147404,27.832755,27.743954)">
      <path
         inkscape:connector-curvature="0"
         d="m 0,0 c -0.283,-0.646 -0.709,-1.293 -1.355,-1.623 -0.917,0.102 -1.104,0.898 -1.104,0.898 -0.725,-2.317 -2.772,-4.097 -3.859,-6.272 2.221,2.049 5.482,3.435 6.664,6.508 0.867,1.702 1.15,3.734 0.41,5.594 C 0.787,3.466 0.662,1.591 0,0"
         style="fill:#81ae37;fill-opacity:1;fill-rule:nonzero;stroke:none"
         id="path56391" />
    </g>
    <g
       id="g56393"
       transform="matrix(1.2147404,0,0,-1.2147404,19.296337,26.404708)">
      <path
         inkscape:connector-curvature="0"
         d="m 0,0 c -0.426,-1.953 -0.426,-3.971 -0.615,-5.861 0.363,1.197 0.363,2.458 0.883,3.624 L 1.134,0.441 C 0.787,0.205 0.408,-0.031 0,0"
         style="fill:#81ae37;fill-opacity:1;fill-rule:nonzero;stroke:none"
         id="path56395" />
    </g>
    <g
       id="g56397"
       transform="matrix(1.2147404,0,0,-1.2147404,18.835999,34.865131)">
      <path
         inkscape:connector-curvature="0"
         d="M 0,0 C 0.568,2.349 2.773,3.845 3.324,6.208 3.025,6.02 2.647,5.357 2.111,5.563 1.701,5.783 1.686,6.24 1.545,6.618 0.804,4.508 0.236,2.285 0,0"
         style="fill:#81ae37;fill-opacity:1;fill-rule:nonzero;stroke:none"
         id="path56399" />
    </g>
    <g
       id="g56401"
       transform="matrix(1.2147404,0,0,-1.2147404,18.874093,36.606573)">
      <path
         inkscape:connector-curvature="0"
         d="M 0,0 C 0.221,-0.079 0.426,-0.158 0.646,-0.236 0.726,0.709 1.528,1.465 1.971,2.301 3.088,3.577 4.082,4.885 4.586,6.461 4.365,6.396 4.082,6.271 3.861,6.429 3.703,6.791 3.547,7.138 3.562,7.563 2.836,4.869 0,2.962 0,0"
         style="fill:#81ae37;fill-opacity:1;fill-rule:nonzero;stroke:none"
         id="path56403" />
    </g>
    <g
       id="g56405"
       transform="matrix(1.2147404,0,0,-1.2147404,20.214486,36.969664)">
      <path
         inkscape:connector-curvature="0"
         d="M 0,0 1.844,-0.457 C 1.906,-0.189 2.158,0.015 2.411,0.063 2.836,-0.189 3.167,0.394 3.593,0.141 3.861,0.299 4.254,0.33 4.57,0.252 4.759,0.015 5.137,0.063 5.326,-0.048 6.24,0 6.555,-0.126 7.374,0 7.453,0.252 7.783,0.268 7.973,0.409 8.414,1.197 8.997,1.828 9.486,2.6 L 9.218,3.167 C 9.013,2.993 8.745,2.883 8.461,2.978 8.273,3.041 8.257,3.261 8.162,3.402 l 0.047,0.19 C 8.036,3.545 7.689,3.372 7.453,3.545 7.201,3.656 7.186,3.985 7.264,4.223 7.044,4.111 6.839,4.207 6.617,4.223 6.508,4.475 6.587,4.585 6.617,4.837 6.365,4.806 6.145,4.711 5.939,4.916 l 0.112,0.44 C 4.554,2.962 1.749,2.096 0,0"
         style="fill:#feec19;fill-opacity:1;fill-rule:nonzero;stroke:none"
         id="path56407" />
    </g>
    <g
       id="g56409"
       transform="matrix(1.2147404,0,0,-1.2147404,30.589632,36.434576)">
      <path
         inkscape:connector-curvature="0"
         d="M 0,0 0.725,-0.11 1.244,1.702 C 0.85,1.166 0.33,0.646 0,0"
         style="fill:#6e9531;fill-opacity:1;fill-rule:nonzero;stroke:none"
         id="path56411" />
    </g>
    <g
       id="g56413"
       transform="matrix(1.2147404,0,0,-1.2147404,15.028225,36.969664)">
      <path
         inkscape:connector-curvature="0"
         d="M 0,0 C 0.771,-0.032 1.732,-0.079 2.521,-0.269 1.891,0.047 0.818,0.078 0,0"
         style="fill:#49351b;fill-opacity:1;fill-rule:nonzero;stroke:none"
         id="path56415" />
    </g>
    <g
       id="g56417"
       transform="matrix(1.2147404,0,0,-1.2147404,14.74106,37.027729)">
      <path
         inkscape:connector-curvature="0"
         d="m 0,0 0.156,0.048 -0.109,0 L 0,0 z"
         style="fill:#000000;fill-opacity:1;fill-rule:nonzero;stroke:none"
         id="path56419" />
    </g>
    <g
       id="g56421"
       transform="matrix(1.2147404,0,0,-1.2147404,15.620144,37.658908)">
      <path
         inkscape:connector-curvature="0"
         d="m 0,0 c -0.141,-0.268 0.222,-0.332 0.378,-0.426 0.316,0.094 0.93,-0.252 1.057,0.189 C 1.388,-0.063 1.277,0.016 1.136,0.11 0.804,0.063 0.315,0.204 0,0"
         style="fill:#49351b;fill-opacity:1;fill-rule:nonzero;stroke:none"
         id="path56423" />
    </g>
    <g
       id="g56425"
       transform="matrix(1.2147404,0,0,-1.2147404,15.792151,37.756087)">
      <path
         inkscape:connector-curvature="0"
         d="m 0,0 c 0,-0.188 0.205,-0.157 0.315,-0.235 0.3,0.031 0.568,-0.064 0.789,0.047 C 0.945,0.284 0.362,-0.047 0,0"
         style="fill:#b9834e;fill-opacity:1;fill-rule:nonzero;stroke:none"
         id="path56427" />
    </g>
    <g
       id="g56429"
       transform="matrix(1.2147404,0,0,-1.2147404,13.725635,37.947171)">
      <path
         inkscape:connector-curvature="0"
         d="m 0,0 c 1.072,-0.739 2.837,-0.678 4.05,-0.33 l 0.645,0.031 C 3.119,-0.314 1.496,-0.835 0,0"
         style="fill:#49351b;fill-opacity:1;fill-rule:nonzero;stroke:none"
         id="path56431" />
    </g>
    <g
       id="g56433"
       transform="matrix(1.2147404,0,0,-1.2147404,18.510934,40.415756)">
      <path
         inkscape:connector-curvature="0"
         d="M 0,0 C 0.236,-0.409 0.127,-0.914 0.457,-1.323 0.362,-0.725 0.441,-0.236 0.535,0.331 0.205,0.426 -0.252,0.536 0,0"
         style="fill:#81ae37;fill-opacity:1;fill-rule:nonzero;stroke:none"
         id="path56435" />
    </g>
    <g
       id="g56437"
       transform="matrix(1.2147404,0,0,-1.2147404,21.917941,40.510632)">
      <path
         inkscape:connector-curvature="0"
         d="m 0,0 c 0.11,-1.64 0.504,-3.199 1.545,-4.428 0.393,-0.158 0.44,0.362 0.566,0.599 0.19,0.992 0.205,2.111 0.568,2.993 -0.394,0.11 -0.583,-0.031 -0.914,-0.189 -0.474,0 -0.425,0.457 -0.946,0.347 C 0.33,-0.552 0.74,0.504 0,0"
         style="fill:#5a7c2b;fill-opacity:1;fill-rule:nonzero;stroke:none"
         id="path56439" />
    </g>
    <g
       id="g56441"
       transform="matrix(1.2147404,0,0,-1.2147404,21.40085,40.415756)">
      <path
         inkscape:connector-curvature="0"
         d="M 0,0 C -0.41,-2.427 -0.205,-5.105 1.135,-7.122 1.26,-7.28 1.481,-7.28 1.623,-7.265 2.096,-6.556 2.176,-5.704 2.049,-4.886 0.584,-3.688 0.236,-1.844 0.11,0 L 0,0 z"
         style="fill:#269ad5;fill-opacity:1;fill-rule:nonzero;stroke:none"
         id="path56443" />
    </g>
    <g
       id="g56445"
       transform="matrix(1.2147404,0,0,-1.2147404,28.84818,40.568823)">
      <path
         inkscape:connector-curvature="0"
         d="m 0,0 c -0.127,-0.805 0.203,-1.513 0.03,-2.379 0.378,0.583 1.119,1.118 1.214,1.812 -0.379,0.046 -0.82,0.031 -1.056,0.346 C 0.03,-0.142 0.22,0.048 0,0"
         style="fill:#6e9531;fill-opacity:1;fill-rule:nonzero;stroke:none"
         id="path56447" />
    </g>
    <g
       id="g56449"
       transform="matrix(1.2147404,0,0,-1.2147404,25.13399,42.999392)">
      <path
         inkscape:connector-curvature="0"
         d="m 0,0 c -0.126,-0.978 -0.157,-1.875 -0.694,-2.68 0.315,-0.944 0.552,-1.922 1.293,-2.693 0.173,-0.079 0.393,-0.331 0.567,-0.064 0.3,0.425 0.205,1.151 0.22,1.702 0.142,1.86 -0.567,3.42 -0.52,5.327 C 0.095,1.434 0.126,0.599 0,0"
         style="fill:#269ad5;fill-opacity:1;fill-rule:nonzero;stroke:none"
         id="path56451" />
    </g>
    <g
       id="g56453"
       transform="matrix(1.2147404,0,0,-1.2147404,20.902515,45.469202)">
      <path
         inkscape:connector-curvature="0"
         d="m 0,0 c 0,-2.284 -0.063,-4.869 1.355,-6.696 0.253,-0.158 0.442,-0.253 0.757,-0.158 1.072,1.166 0.757,2.553 0.757,4.05 L 2.727,-2.048 C 2.742,-2.505 2.459,-3.198 1.971,-3.403 0.994,-3.214 0.709,-2.064 0.379,-1.26 0.19,-0.441 -0.047,0.394 0,1.245 L -0.156,0.189 0,0 z"
         style="fill:#cf6b4d;fill-opacity:1;fill-rule:nonzero;stroke:none"
         id="path56455" />
    </g>
    <g
       id="g56457"
       transform="matrix(1.2147404,0,0,-1.2147404,20.673561,45.852458)">
      <path
         inkscape:connector-curvature="0"
         d="M 0,0 -0.047,-0.188 0,0 z"
         style="fill:#ffffff;fill-opacity:1;fill-rule:nonzero;stroke:none"
         id="path56459" />
    </g>
    <g
       id="g56461"
       transform="matrix(1.2147404,0,0,-1.2147404,26.454267,50.024479)">
      <path
         inkscape:connector-curvature="0"
         d="m 0,0 c -0.804,0.016 -1.056,0.788 -1.466,1.324 0.142,-1.403 0.347,-2.821 1.277,-3.861 C 0.11,-2.82 0.315,-3.261 0.803,-3.184 1.45,-2.284 1.15,-1.26 1.055,-0.189 0.993,0.771 0.771,1.529 0.536,2.427 0.41,1.639 0.867,0.457 0,0"
         style="fill:#cf6b4d;fill-opacity:1;fill-rule:nonzero;stroke:none"
         id="path56463" />
    </g>
    <g
       id="g56465"
       transform="matrix(1.2147404,0,0,-1.2147404,23.104305,57.967792)">
      <path
         inkscape:connector-curvature="0"
         d="M 0,0 C 0.253,-0.157 0.568,-0.032 0.788,0.079 1.844,1.56 1.654,3.435 1.402,5.184 1.324,5.263 1.418,5.342 1.355,5.436 1.262,4.585 1.057,3.719 0.348,3.167 -0.109,2.994 -0.441,3.309 -0.756,3.546 -1.418,4.286 -1.639,5.216 -1.891,6.13 -1.828,3.987 -1.828,1.48 0,0"
         style="fill:#feec19;fill-opacity:1;fill-rule:nonzero;stroke:none"
         id="path56467" />
    </g>
    <g
       id="g56469"
       transform="matrix(1.2147404,0,0,-1.2147404,27.564637,54.158726)">
      <path
         inkscape:connector-curvature="0"
         d="m 0,0 c -0.63,-0.205 -1.072,0.441 -1.434,0.835 0.411,-1.434 0.993,-3.199 2.569,-3.75 0.646,0.441 0.472,1.197 0.457,1.969 C 1.387,0.41 0.977,1.67 0.488,2.915 0.551,1.954 0.803,0.677 0,0"
         style="fill:#feec19;fill-opacity:1;fill-rule:nonzero;stroke:none"
         id="path56471" />
    </g>
    <g
       id="g56473"
       transform="matrix(1.2147404,0,0,-1.2147404,22.64523,61.010591)">
      <path
         inkscape:connector-curvature="0"
         d="M 0,0 C 0.315,-0.331 0.741,-0.489 1.166,-0.41 1.608,-0.426 1.97,-0.048 2.19,0.314 2.711,1.56 2.821,3.15 2.537,4.396 L 2.301,5.262 C 2.175,4.159 2.096,2.852 1.056,2.236 -0.173,1.922 -0.599,3.308 -1.166,4.096 -1.45,4.664 -1.576,5.294 -1.67,5.939 -1.591,3.813 -1.149,1.732 0,0"
         style="fill:#81ae37;fill-opacity:1;fill-rule:nonzero;stroke:none"
         id="path56475" />
    </g>
    <g
       id="g56477"
       transform="matrix(1.2147404,0,0,-1.2147404,29.669053,57.565587)">
      <path
         inkscape:connector-curvature="0"
         d="m 0,0 c -0.219,-0.237 -0.52,-0.426 -0.834,-0.331 -0.836,0.236 -1.387,1.04 -1.812,1.733 0.347,-1.654 1.007,-3.608 2.568,-4.869 0.174,-0.125 0.473,-0.125 0.646,0 0.709,0.788 0.567,2.332 0.426,3.324 C 0.678,0.788 0.584,1.922 -0.031,2.772 0.143,1.922 0.285,0.851 0,0"
         style="fill:#81ae37;fill-opacity:1;fill-rule:nonzero;stroke:none"
         id="path56479" />
    </g>
    <g
       id="g56481"
       transform="matrix(1.2147404,0,0,-1.2147404,26.35942,56.877558)">
      <path
         inkscape:connector-curvature="0"
         d="M 0,0 C -0.111,0.379 -0.048,1.072 -0.189,1.45 -0.111,0.867 -0.174,0.536 0,0"
         style="fill:#ffffff;fill-opacity:1;fill-rule:nonzero;stroke:none"
         id="path56483" />
    </g>
    <g
       id="g56485"
       transform="matrix(1.2147404,0,0,-1.2147404,31.009544,61.642868)">
      <path
         inkscape:connector-curvature="0"
         d="M 0,0 C -0.189,-0.3 -0.566,-0.394 -0.835,-0.457 -1.843,-0.3 -2.238,0.708 -2.836,1.402 L -3.293,2.301 C -2.979,1.355 -2.646,0.205 -2.189,-0.804 -0.835,-0.631 0.6,-0.441 1.781,0.3 2.033,0.504 1.971,0.835 1.813,1.057 1.166,2.032 0.504,2.993 -0.047,4.002 0.395,2.742 0.395,1.276 0,0"
         style="fill:#84bbad;fill-opacity:1;fill-rule:nonzero;stroke:none"
         id="path56487" />
    </g>
    <g
       id="g56489"
       transform="matrix(1.2147404,0,0,-1.2147404,24.578805,61.738949)">
      <path
         inkscape:connector-curvature="0"
         d="m 0,0 c -0.599,-0.221 -1.34,-0.126 -1.78,0.379 -0.521,0.614 -0.821,1.323 -1.104,2.049 0.031,-0.741 0.252,-1.404 0.378,-2.08 1.607,-0.757 3.293,-1.23 5.263,-1.073 C 2.3,0.646 1.843,2.001 1.402,3.372 1.323,2.223 1.261,0.631 0,0"
         style="fill:#84bbad;fill-opacity:1;fill-rule:nonzero;stroke:none"
         id="path56491" />
    </g>
    <g
       id="g56493"
       transform="matrix(1.2147404,0,0,-1.2147404,28.021282,10.257164)">
      <path
         inkscape:connector-curvature="0"
         d="m 0,0 c 0,0.955 0.775,1.73 1.731,1.73 0.956,0 1.73,-0.775 1.73,-1.73 0,-0.956 -0.774,-1.731 -1.73,-1.731 C 0.775,-1.731 0,-0.956 0,0"
         style="fill:#000000;fill-opacity:1;fill-rule:nonzero;stroke:none"
         id="path56495" />
    </g>
    <g
       id="g56497"
       transform="matrix(1.2147404,0,0,-1.2147404,28.365297,10.120744)">
      <path
         inkscape:connector-curvature="0"
         d="M 0,0 C 0,0.77 0.622,1.393 1.392,1.393 2.16,1.393 2.782,0.77 2.782,0 2.782,-0.768 2.16,-1.392 1.392,-1.392 0.622,-1.392 0,-0.768 0,0"
         style="fill:#ffffff;fill-opacity:1;fill-rule:nonzero;stroke:none"
         id="path56499" />
    </g>
    <g
       id="g56501"
       transform="matrix(1.2147404,0,0,-1.2147404,31.745093,10.120744)">
      <path
         inkscape:connector-curvature="0"
         d="m 0,0 c 0,0.625 -0.411,1.154 -0.979,1.329 0.256,-0.252 0.415,-0.602 0.415,-0.99 0,-0.769 -0.624,-1.392 -1.392,-1.392 -0.144,0 -0.282,0.023 -0.412,0.062 0.251,-0.247 0.596,-0.401 0.977,-0.401 C -0.622,-1.392 0,-0.768 0,0"
         style="fill:#dce8eb;fill-opacity:1;fill-rule:nonzero;stroke:none"
         id="path56503" />
    </g>
    <g
       id="g56505"
       transform="matrix(1.2147404,0,0,-1.2147404,34.3976,11.168219)">
      <path
         inkscape:connector-curvature="0"
         d="m 0,0 c -1.056,-2.899 2.553,-4.428 2.616,-7.139 0.157,-0.566 0.299,-1.133 0.347,-1.749 1.906,1.292 1.812,4.145 1.323,6.099 -0.552,1.575 -2.127,3.183 -3.86,3.246 L 0,0 z"
         style="fill:#f5d75c;fill-opacity:1;fill-rule:nonzero;stroke:none"
         id="path56507" />
    </g>
    <g
       id="g56509"
       transform="matrix(1.2147404,0,0,-1.2147404,31.603892,12.77568)">
      <path
         inkscape:connector-curvature="0"
         d="m 0,0 c -1.295,-3.365 3.151,-4.113 4.459,-5.169 -0.504,2.285 -3.53,3.986 -2.38,6.618 L 2.426,1.828 C 1.465,1.576 0.551,0.897 0,0"
         style="fill:#835796;fill-opacity:1;fill-rule:nonzero;stroke:none"
         id="path56511" />
    </g>
    <g
       id="g56513"
       transform="matrix(1.2147404,0,0,-1.2147404,35.825843,16.64524)">
      <path
         inkscape:connector-curvature="0"
         d="M 0,0 C -0.902,1.313 -1.99,2.578 -1.557,4.182 -1.781,4.056 -1.973,3.838 -2.137,3.527 -2.793,2.285 -2.531,1.628 -1.063,0.611 -0.617,0.303 -0.277,0.122 0,0"
         style="fill:#b18db8;fill-opacity:1;fill-rule:nonzero;stroke:none"
         id="path56515" />
    </g>
    <g
       id="g56517"
       transform="matrix(1.2147404,0,0,-1.2147404,34.31218,11.431575)">
      <path
         inkscape:connector-curvature="0"
         d="m 0,0 c -0.526,-1.801 0.752,-3.073 1.721,-4.475 0.342,-0.121 0.591,-0.208 0.926,-0.56 0.677,-0.715 0.904,-1.901 0.904,-1.901 0,0 1.109,3.821 -0.791,5.495 C 1.541,-0.366 0.652,0.119 0,0"
         style="fill:#fbea98;fill-opacity:1;fill-rule:nonzero;stroke:none"
         id="path56519" />
    </g>
    <g
       id="g56521"
       transform="matrix(1.2147404,0,0,-1.2147404,38.625383,19.994153)">
      <path
         inkscape:connector-curvature="0"
         d="M 0,0 C 0,0 0.847,3.461 -0.338,5.211 -1.524,6.962 -3.481,7.826 -4.047,7.168 -4.61,6.511 -2.823,6.454 -1.863,5.664 -0.903,4.873 -0.227,4.103 -0.113,3.313 0,2.521 0,0 0,0"
         style="fill:#ffffff;fill-opacity:1;fill-rule:evenodd;stroke:none"
         id="path56523" />
    </g>
    <g
       id="g56525"
       transform="matrix(1.2147404,0,0,-1.2147404,28.589587,9.8456099)">
      <path
         inkscape:connector-curvature="0"
         d="M 0,0 C 0,0.437 0.354,0.791 0.791,0.791 1.228,0.791 1.582,0.437 1.582,0 1.582,-0.438 1.228,-0.791 0.791,-0.791 0.354,-0.791 0,-0.438 0,0"
         style="fill:#000000;fill-opacity:1;fill-rule:nonzero;stroke:none"
         id="path56527" />
    </g>
    <g
       id="g56529"
       transform="matrix(1.2147404,0,0,-1.2147404,28.659556,9.3662733)">
      <path
         inkscape:connector-curvature="0"
         d="M 0,0 C 0,0.219 0.176,0.396 0.395,0.396 0.612,0.396 0.79,0.219 0.79,0 0.79,-0.218 0.612,-0.395 0.395,-0.395 0.176,-0.395 0,-0.218 0,0"
         style="fill:#ffffff;fill-opacity:1;fill-rule:nonzero;stroke:none"
         id="path56531" />
    </g>
    <g
       id="g56533"
       transform="matrix(1.2147404,0,0,-1.2147404,30.618009,6.3650094)">
      <path
         inkscape:connector-curvature="0"
         d="m 0,0 c 1.097,-0.25 2.101,-0.925 2.859,-1.826 0.348,-0.379 0.49,-0.852 0.678,-1.292 0.204,0.126 0.473,0.282 0.567,0.534 -0.141,0.126 -0.52,0.017 -0.567,0.301 l 0,0.976 C 3.363,-1.386 3.111,-1.496 2.969,-1.307 2.78,-1.008 2.813,-0.646 2.701,-0.314 2.402,0.583 1.852,1.435 1.078,2.064 0.89,1.702 1.315,1.119 0.701,1.089 0.194,2.576 -1.168,3.503 -2.514,4.145 -1.295,2.951 -0.112,1.518 -0.031,0.39 L 0,0 z"
         style="fill:#ebcd00;fill-opacity:1;fill-rule:nonzero;stroke:none"
         id="path56535" />
    </g>
    <g
       id="g56537"
       transform="matrix(1.2147404,0,0,-1.2147404,31.334608,19.570569)">
      <path
         inkscape:connector-curvature="0"
         d="m 0,0 c -0.02,-0.09 0.065,-0.222 0.063,-0.322 0.726,-0.294 1.086,-1.122 1.515,-1.711 0,0 -0.41,0.235 -0.457,0.109 0.41,-0.677 0.772,-1.37 0.834,-2.189 -0.188,0.141 -0.219,0.645 -0.566,0.44 0.205,-0.692 0.536,-1.386 0.41,-2.189 -0.047,0.188 -0.363,0.536 -0.457,0.457 0.189,-0.615 0,-1.403 -0.112,-2.001 0.016,0.126 -0.267,0.393 -0.377,0.267 L 0.475,-8.92 0.065,-8.841 c -0.104,-0.765 -0.336,-1.542 -0.741,-2.206 0.043,-0.066 0.111,-0.117 0.219,-0.141 0.394,0.046 0.457,0.598 0.679,0.788 0.093,-0.252 0.03,-0.756 0.266,-1.056 0.584,0.74 0.9,1.685 1.026,2.615 l 0.409,-0.079 0.378,1.781 c 0.111,0.126 0.394,-0.141 0.379,-0.267 0.109,0.598 0.299,1.386 0.109,2.001 0.095,0.079 0.41,-0.269 0.457,-0.457 0.127,0.803 -0.205,1.497 -0.41,2.189 0.348,0.205 0.379,-0.299 0.568,-0.44 -0.062,0.819 -0.425,1.512 -0.836,2.189 0.049,0.126 0.457,-0.109 0.457,-0.109 C 2.521,-1.34 2.111,-0.315 1.088,-0.222 0.709,-0.41 0.348,-0.079 0,0"
         style="fill:#c00a21;fill-opacity:1;fill-rule:nonzero;stroke:none"
         id="path56539" />
    </g>
    <g
       id="g56541"
       transform="matrix(1.2147404,0,0,-1.2147404,29.645439,32.487884)">
      <path
         inkscape:connector-curvature="0"
         d="M 0,0 C 0.071,-0.006 0.143,0.009 0.207,0.041 0.197,0.113 0.184,0.18 0.163,0.233 0.1,0.18 0.049,0.095 0,0"
         style="fill:#cf6b4d;fill-opacity:1;fill-rule:nonzero;stroke:none"
         id="path56543" />
    </g>
    <g
       id="g56545"
       transform="matrix(1.2147404,0,0,-1.2147404,20.214486,36.969664)">
      <path
         inkscape:connector-curvature="0"
         d="M 0,0 1.844,-0.457 C 1.906,-0.189 2.158,0.015 2.411,0.063 2.836,-0.189 3.167,0.394 3.593,0.141 3.861,0.299 4.254,0.33 4.57,0.252 4.759,0.015 5.137,0.063 5.326,-0.048 6.24,0 6.555,-0.126 7.374,0 7.453,0.252 7.783,0.268 7.973,0.409 8.414,1.197 8.997,1.828 9.486,2.6 L 9.218,3.167 C 9.013,2.993 8.745,2.883 8.461,2.978 8.417,2.993 8.383,3.016 8.354,3.045 7.477,1.533 6.41,0.604 5.788,0.895 5.091,1.22 5.207,2.957 6.027,4.847 5.997,4.865 5.969,4.888 5.939,4.916 l 0.112,0.44 C 4.554,2.962 1.749,2.096 0,0"
         style="fill:#ebcd00;fill-opacity:1;fill-rule:nonzero;stroke:none"
         id="path56547" />
    </g>
    <g
       id="g56549"
       transform="matrix(1.2147404,0,0,-1.2147404,21.823094,18.288298)">
      <path
         inkscape:connector-curvature="0"
         d="m 0,0 c -0.237,-0.615 -0.615,-1.151 -0.758,-1.813 0.158,-0.267 0.457,-0.141 0.679,0 0.471,0.221 0.877,0.791 1.112,1.178 -0.338,-0.789 -0.451,-2.085 0.17,-2.354 0.875,2.268 1.973,2.676 2.844,2.527 C 3.262,0.277 2.38,0.884 1.434,1.292 0.709,1.292 0.299,0.535 0,0"
         style="fill:#cf6b4d;fill-opacity:1;fill-rule:nonzero;stroke:none"
         id="path56551" />
    </g>
    <g
       id="g56553"
       transform="matrix(1.2147404,0,0,-1.2147404,21.243031,28.001479)">
      <path
         inkscape:connector-curvature="0"
         d="M 0,0 C -0.284,0.24 -0.312,0.634 -0.437,0.968 -0.922,-0.412 -1.331,-1.84 -1.624,-3.301 -1.067,-2.327 -0.51,-1.229 0,0"
         style="fill:#acc22d;fill-opacity:1;fill-rule:nonzero;stroke:none"
         id="path56555" />
    </g>
    <g
       id="g56557"
       transform="matrix(1.2147404,0,0,-1.2147404,19.296337,26.404708)">
      <path
         inkscape:connector-curvature="0"
         d="m 0,0 c -0.403,-1.852 -0.426,-3.761 -0.588,-5.564 l 0.092,0.146 c 0.252,1.063 0.307,2.157 0.764,3.181 L 1.134,0.441 C 0.787,0.205 0.408,-0.031 0,0"
         style="fill:#acc22d;fill-opacity:1;fill-rule:nonzero;stroke:none"
         id="path56559" />
    </g>
    <g
       id="g56561"
       transform="matrix(1.2147404,0,0,-1.2147404,21.171896,27.054837)">
      <path
         inkscape:connector-curvature="0"
         d="M 0,0 C 0.018,-0.158 0.087,-0.328 0.192,-0.456 0.606,0.573 0.987,1.691 1.312,2.896 1.419,3.3 1.532,3.664 1.651,3.991 1.62,4.007 1.589,4.025 1.56,4.049 1.354,4.237 1.008,4.38 0.993,4.759 0.188,3.403 -0.315,1.765 0,0"
         style="fill:#92c1e6;fill-opacity:1;fill-rule:nonzero;stroke:none"
         id="path56563" />
    </g>
    <g
       id="g56565"
       transform="matrix(1.2147404,0,0,-1.2147404,20.999889,20.986965)">
      <path
         inkscape:connector-curvature="0"
         d="m 0,0 -0.189,0.109 c -0.504,-1.338 -0.852,-2.851 -1.182,-4.316 0.393,-0.032 0.819,0.235 1.135,0.566 0.14,1.403 0.55,2.758 1.322,3.829 -0.047,0.126 -0.047,0.173 0,0.299 C 0.756,0.268 0.457,-0.189 0,0"
         style="fill:#92c1e6;fill-opacity:1;fill-rule:nonzero;stroke:none"
         id="path56567" />
    </g>
    <g
       id="g56569"
       transform="matrix(1.2147404,0,0,-1.2147404,23.078164,19.059289)">
      <path
         inkscape:connector-curvature="0"
         d="M 0,0 C 0.063,0.148 0.135,0.279 0.211,0.383 0.211,0.383 0.133,0.221 0,0"
         style="fill:#acc22d;fill-opacity:1;fill-rule:nonzero;stroke:none"
         id="path56571" />
    </g>
    <g
       id="g56573"
       transform="matrix(1.2147404,0,0,-1.2147404,31.009544,61.642868)">
      <path
         inkscape:connector-curvature="0"
         d="M 0,0 C -0.189,-0.3 -0.566,-0.394 -0.835,-0.457 -1.843,-0.3 -2.238,0.708 -2.836,1.402 l -0.457,0.899 c 0.314,-0.946 0.647,-2.096 1.104,-3.105 1.171,0.151 2.404,0.313 3.478,0.832 C 0.84,0.088 0.447,0.197 0.098,0.354 0.069,0.235 0.036,0.116 0,0"
         style="fill:#0b989a;fill-opacity:1;fill-rule:evenodd;stroke:none"
         id="path56575" />
    </g>
    <g
       id="g56577"
       transform="matrix(1.2147404,0,0,-1.2147404,28.379679,57.869272)">
      <path
         inkscape:connector-curvature="0"
         d="m 0,0 c -0.71,0.305 -1.2,1.023 -1.585,1.652 0.348,-1.654 1.008,-3.608 2.568,-4.869 0.174,-0.125 0.473,-0.125 0.647,0 0.153,0.172 0.268,0.379 0.35,0.608 C 1.063,-2.09 0.482,-1.2 0,0"
         style="fill:#6e9531;fill-opacity:1;fill-rule:evenodd;stroke:none"
         id="path56579" />
    </g>
    <g
       id="g56581"
       transform="matrix(1.2147404,0,0,-1.2147404,27.204005,54.203798)">
      <path
         inkscape:connector-curvature="0"
         d="M 0,0 C -0.477,0.038 -0.835,0.543 -1.137,0.872 -0.789,-0.349 -0.314,-1.81 0.792,-2.557 0.52,-1.805 0.271,-0.947 0,0"
         style="fill:#ebcd00;fill-opacity:1;fill-rule:evenodd;stroke:none"
         id="path56583" />
    </g>
    <g
       id="g56585"
       transform="matrix(1.2147404,0,0,-1.2147404,25.88849,49.885755)">
      <path
         inkscape:connector-curvature="0"
         d="M 0,0 C -0.459,0.235 -0.683,0.794 -1,1.21 -0.858,-0.193 -0.653,-1.611 0.276,-2.651 0.517,-2.877 0.694,-3.204 1.005,-3.286 0.763,-2.44 0.496,-1.524 0.175,-0.548 0.112,-0.359 0.056,-0.178 0,0"
         style="fill:#c00a21;fill-opacity:1;fill-rule:evenodd;stroke:none"
         id="path56587" />
    </g>
    <g
       id="g56589"
       transform="matrix(1.2147404,0,0,-1.2147404,25.13399,42.999392)">
      <path
         inkscape:connector-curvature="0"
         d="m 0,0 c -0.126,-0.978 -0.157,-1.875 -0.694,-2.68 0.3,-0.901 0.53,-1.834 1.195,-2.588 C -0.653,-1.306 0.095,-0.277 1,-0.153 0.913,0.406 0.851,0.981 0.866,1.592 0.095,1.434 0.126,0.599 0,0"
         style="fill:#0078af;fill-opacity:1;fill-rule:evenodd;stroke:none"
         id="path56591" />
    </g>
    <g
       id="g56593"
       transform="matrix(1.2147404,0,0,-1.2147404,21.40085,40.415756)">
      <path
         inkscape:connector-curvature="0"
         d="m 0,0 c -0.41,-2.427 -0.205,-5.105 1.135,-7.122 0.014,-0.019 0.031,-0.035 0.049,-0.049 l -0.006,0.643 c 0,0.844 0.023,1.679 0.068,2.504 C 0.443,-2.891 0.209,-1.445 0.11,0 L 0,0 z"
         style="fill:#008acc;fill-opacity:1;fill-rule:nonzero;stroke:none"
         id="path56595" />
    </g>
    <g
       id="g56597"
       transform="matrix(1.2147404,0,0,-1.2147404,20.902515,45.469202)">
      <path
         inkscape:connector-curvature="0"
         d="M 0,0 C 0,-2.284 -0.063,-4.869 1.355,-6.696 1.518,-6.797 1.652,-6.872 1.813,-6.889 1.693,-5.709 1.621,-4.501 1.598,-3.271 0.912,-2.897 0.664,-1.951 0.379,-1.26 0.19,-0.441 -0.047,0.394 0,1.245 L -0.156,0.189 0,0 z"
         style="fill:#c00a21;fill-opacity:1;fill-rule:nonzero;stroke:none"
         id="path56599" />
    </g>
    <g
       id="g56601"
       transform="matrix(1.2147404,0,0,-1.2147404,23.104305,57.967792)">
      <path
         inkscape:connector-curvature="0"
         d="M 0,0 C 0.15,-0.094 0.324,-0.087 0.486,-0.043 0.297,0.984 0.143,2.039 0.027,3.12 -0.273,3.145 -0.52,3.368 -0.756,3.546 -1.418,4.286 -1.639,5.216 -1.891,6.13 -1.828,3.987 -1.828,1.48 0,0"
         style="fill:#ebcd00;fill-opacity:1;fill-rule:nonzero;stroke:none"
         id="path56603" />
    </g>
    <g
       id="g56605"
       transform="matrix(1.2147404,0,0,-1.2147404,22.64523,61.010591)">
      <path
         inkscape:connector-curvature="0"
         d="m 0,0 c 0.315,-0.331 0.741,-0.489 1.166,-0.41 0.112,-0.004 0.22,0.016 0.321,0.057 C 1.271,0.477 1.078,1.331 0.911,2.207 -0.208,2.033 -0.622,3.34 -1.166,4.096 -1.45,4.664 -1.576,5.294 -1.67,5.939 -1.591,3.813 -1.149,1.732 0,0"
         style="fill:#6e9531;fill-opacity:1;fill-rule:nonzero;stroke:none"
         id="path56607" />
    </g>
    <g
       id="g56609"
       transform="matrix(1.2147404,0,0,-1.2147404,24.720007,62.417503)">
      <path
         inkscape:connector-curvature="0"
         d="M 0,0 -0.15,0.546 C -0.744,0.342 -1.464,0.443 -1.896,0.938 -2.417,1.552 -2.717,2.261 -3,2.986 -2.969,2.245 -2.748,1.583 -2.622,0.906 -1.779,0.509 -0.915,0.191 0,0"
         style="fill:#0b989a;fill-opacity:1;fill-rule:nonzero;stroke:none"
         id="path56611" />
    </g>
    <g
       id="g56613"
       transform="matrix(1.2147404,0,0,-1.2147404,29.766427,37.027729)">
      <path
         inkscape:connector-curvature="0"
         d="M 0,0 C 0.394,-0.157 0.629,-0.804 0.678,-1.323 0.646,-1.892 0.535,-2.568 -0.031,-2.789 -0.111,-2.805 -0.205,-2.773 -0.269,-2.836 -0.08,-3.057 0.252,-2.994 0.457,-3.057 1.229,-2.679 1.732,-1.844 1.67,-0.945 1.623,-0.52 1.339,-0.078 0.945,0.079 0.646,0.11 0.252,0.205 0,0 m -3.893,0 c 0.725,-0.945 0.6,-2.332 -0.046,-3.324 0.283,-0.064 0.597,0.078 0.755,0.299 0.442,0.724 0.473,1.89 0.126,2.647 C -3.293,-0.126 -3.53,0.095 -3.893,0 m -0.992,-0.142 c 0.693,-0.867 0.52,-2.268 0,-3.151 l -0.111,-0.11 c 0.158,0 0.3,-0.142 0.457,-0.033 0.709,0.695 0.867,1.671 0.6,2.57 -0.063,0.314 -0.284,0.598 -0.569,0.788 -0.094,0.03 -0.252,-0.048 -0.377,-0.064 m -0.631,-1.181 c 0.064,-0.552 0.205,-1.182 -0.126,-1.656 0,-0.172 0.222,-0.235 0.316,-0.267 0.551,0.645 0.488,1.481 0.488,2.269 -0.252,0.237 -0.236,0.646 -0.646,0.788 -0.63,-0.268 0.079,-0.709 -0.032,-1.134 m 6.807,-1.702 c 0.488,0.046 0.931,0.536 1.166,0.993 0.127,0.519 0.3,1.055 -0.157,1.512 L 1.922,-0.331 C 2.285,-1.197 1.843,-2.332 1.291,-3.025 m 1.166,-0.946 c 0.11,-0.094 0.315,-0.267 0.49,-0.11 0.786,0.725 0.424,1.859 0.455,2.805 0.016,0.346 -0.345,0.424 -0.535,0.63 0.599,-1.181 -0.945,-2.174 -0.41,-3.325"
         style="fill:#acb0ca;fill-opacity:1;fill-rule:evenodd;stroke:none"
         id="path56615" />
    </g>
    <g
       id="g56617"
       transform="matrix(1.2147404,0,0,-1.2147404,30.447265,37.204478)">
      <path
         inkscape:connector-curvature="0"
         d="M 0,0 C 0.234,-0.342 0.352,-0.81 0.383,-1.154 L 0.385,-1.192 C 0.361,-1.592 0.301,-2.171 -0.031,-2.563 0.535,-2.197 0.893,-1.53 0.842,-0.818 0.801,-0.487 0.583,-0.161 0.314,-0.037 0.217,-0.025 0.107,-0.008 0,0"
         style="fill:#c8c9da;fill-opacity:1;fill-rule:evenodd;stroke:none"
         id="path56619" />
    </g>
    <g
       id="g56621"
       transform="matrix(1.2147404,0,0,-1.2147404,33.061872,41.683829)">
      <path
         inkscape:connector-curvature="0"
         d="M 0,0 C 0.027,-0.021 0.051,-0.033 0.066,-0.039 0.384,0.252 0.467,0.619 0.478,1.079 0.484,1.362 0.46,1.656 0.441,1.944 0.376,1.754 0.294,1.57 0.218,1.402 -0.029,0.857 -0.206,0.453 -0.035,0.026 L 0,0 z"
         style="fill:#c8c9da;fill-opacity:1;fill-rule:evenodd;stroke:none"
         id="path56623" />
    </g>
    <g
       id="g56625"
       transform="matrix(1.2147404,0,0,-1.2147404,32.584916,38.380104)">
      <path
         inkscape:connector-curvature="0"
         d="m 0,0 c -0.011,-0.327 -0.084,-0.656 -0.197,-0.966 0.029,0.046 0.055,0.094 0.082,0.142 0.028,0.117 0.058,0.234 0.082,0.35 0.024,0.113 0.041,0.226 0.043,0.337 C 0.01,-0.09 0.008,-0.044 0,0"
         style="fill:#c8c9da;fill-opacity:1;fill-rule:evenodd;stroke:none"
         id="path56627" />
    </g>
    <g
       id="g56629"
       transform="matrix(1.2147404,0,0,-1.2147404,23.493313,39.784703)">
      <path
         inkscape:connector-curvature="0"
         d="M 0,0 0.023,0.142 C 0.07,0.483 0.061,0.839 0.059,1.188 0.01,1.248 -0.027,1.311 -0.059,1.367 -0.1,1.442 -0.135,1.521 -0.176,1.597 -0.219,1.681 -0.26,1.736 -0.314,1.777 -0.312,1.757 -0.303,1.719 -0.285,1.678 -0.241,1.577 -0.182,1.47 -0.139,1.362 -0.096,1.249 -0.053,1.1 -0.08,0.935 -0.047,0.662 0,0.371 0,0.091 L 0,0 z"
         style="fill:#c8c9da;fill-opacity:1;fill-rule:evenodd;stroke:none"
         id="path56631" />
    </g>
    <g
       id="g56633"
       transform="matrix(1.2147404,0,0,-1.2147404,24.544307,37.84865)">
      <path
         inkscape:connector-curvature="0"
         d="M 0,0 C 0.219,-0.658 0.162,-1.415 -0.047,-2.059 0.248,-1.517 0.283,-0.872 0.1,-0.256 0.082,-0.17 0.049,-0.083 0,0"
         style="fill:#c8c9da;fill-opacity:1;fill-rule:evenodd;stroke:none"
         id="path56635" />
    </g>
    <g
       id="g56637"
       transform="matrix(1.2147404,0,0,-1.2147404,25.638059,40.5059)">
      <path
         inkscape:connector-curvature="0"
         d="M 0,0 C 0.371,0.633 0.405,1.66 0.115,2.335 0.369,1.612 0.305,0.749 0,0"
         style="fill:#c8c9da;fill-opacity:1;fill-rule:evenodd;stroke:none"
         id="path56639" />
    </g>
  </g>
</svg>
