<?xml version="1.0" encoding="UTF-8" standalone="no"?>
<!-- Created with Inkscape (http://www.inkscape.org/) -->

<svg
   xmlns:dc="http://purl.org/dc/elements/1.1/"
   xmlns:cc="http://creativecommons.org/ns#"
   xmlns:rdf="http://www.w3.org/1999/02/22-rdf-syntax-ns#"
   xmlns:svg="http://www.w3.org/2000/svg"
   xmlns="http://www.w3.org/2000/svg"
   xmlns:sodipodi="http://sodipodi.sourceforge.net/DTD/sodipodi-0.dtd"
   xmlns:inkscape="http://www.inkscape.org/namespaces/inkscape"
   width="64px"
   height="64px"
   id="svg20265"
   version="1.1"
   inkscape:version="0.48.5 r10040"
   sodipodi:docname="Nowy dokument 29">
  <defs
     id="defs20267" />
  <sodipodi:namedview
     id="base"
     pagecolor="#ffffff"
     bordercolor="#666666"
     borderopacity="1.0"
     inkscape:pageopacity="0.0"
     inkscape:pageshadow="2"
     inkscape:zoom="5.5"
     inkscape:cx="32"
     inkscape:cy="23.623377"
     inkscape:current-layer="layer1"
     showgrid="true"
     inkscape:document-units="px"
     inkscape:grid-bbox="true"
     inkscape:window-width="1366"
     inkscape:window-height="706"
     inkscape:window-x="-8"
     inkscape:window-y="-8"
     inkscape:window-maximized="1" />
  <metadata
     id="metadata20270">
    <rdf:RDF>
      <cc:Work
         rdf:about="">
        <dc:format>image/svg+xml</dc:format>
        <dc:type
           rdf:resource="http://purl.org/dc/dcmitype/StillImage" />
        <dc:title></dc:title>
      </cc:Work>
    </rdf:RDF>
  </metadata>
  <g
     id="layer1"
     inkscape:label="Layer 1"
     inkscape:groupmode="layer">
    <path
       id="path2999"
       style="fill:#e6961b;fill-opacity:1;fill-rule:nonzero;stroke:none"
       d="M 41.587871,34.805723 53.508017,22.88456 c 3.076411,-3.076261 -0.01225,-4.976117 -3.088697,-8.051654 L 8.7574856,56.492992 c 1.6785334,1.627197 3.5096044,3.094442 5.4727124,4.380642 L 34.588879,36.430017 c 2.401679,0.814325 4.978807,0.396982 6.998992,-1.624294"
       inkscape:connector-curvature="0" />
    <path
       id="path3001"
       style="fill:#d48119;fill-opacity:1;fill-rule:nonzero;stroke:none"
       d="M 8.7574856,56.492992 50.41932,14.832906 C 47.343709,11.75664 45.443926,8.6680126 42.367518,11.744279 L 30.447151,23.665442 c -2.020252,2.019821 -2.438544,4.595856 -1.624289,6.999577 L 4.1468036,51.066812 c 1.3598448,1.955841 2.9054667,3.772805 4.610682,5.42618"
       inkscape:connector-curvature="0" />
    <path
       id="path3003"
       style="fill:#cecbc8;fill-opacity:1;fill-rule:nonzero;stroke:none"
       d="M 50.832008,14.421378 C 47.755526,11.344385 45.443926,8.6680126 42.367518,11.744279 L 30.447151,23.665442 c -1.452188,1.451977 9.68744,12.593708 11.14072,11.140281 L 53.508017,22.88456 c 3.076411,-3.076261 0.399312,-5.387645 -2.676009,-8.463182"
       inkscape:connector-curvature="0" />
    <path
       id="path3005"
       style="fill:#a8a8a6;fill-opacity:1;fill-rule:nonzero;stroke:none"
       d="M 50.832008,14.421378 C 47.755526,11.344385 45.443926,8.6680126 42.367518,11.744279 L 30.447151,23.665442 c -0.726565,0.725622 1.696419,3.873869 4.480329,6.658576 l 15.904528,-15.90264"
       inkscape:connector-curvature="0" />
    <path
       id="path3007"
       style="fill:#b0b0ae;fill-opacity:1;fill-rule:nonzero;stroke:none"
       d="m 31.194082,34.240786 c -2.039235,-2.038724 -2.763769,-4.622757 -2.763769,-4.622757 l -6.37894,6.509523 c -0.785316,0.783791 6.320486,7.82917 7.105727,7.043928 l 6.438634,-6.439003 c 0,0 -2.361038,-0.450787 -4.401652,-2.491691"
       inkscape:connector-curvature="0" />
    <path
       id="path3009"
       style="fill:#888d8e;fill-opacity:1;fill-rule:nonzero;stroke:none"
       d="M 31.083854,34.131723 C 29.13245,32.112632 28.430313,29.618029 28.430313,29.618029 l -6.37894,6.509523 c -0.392767,0.392618 1.086324,2.308472 2.933609,4.155247 l 6.098872,-6.151076"
       inkscape:connector-curvature="0" />
    <path
       id="path3011"
       style="fill:#383a3b;fill-opacity:1;fill-rule:nonzero;stroke:none"
       d="M 45.364167,4.8566716 35.388662,18.722772 c -1.452119,1.452699 9.688599,12.593707 11.140792,11.141008 L 60.396493,19.887547 C 63.470943,16.812737 48.44058,1.7811345 45.364167,4.8566716"
       inkscape:connector-curvature="0" />
    <path
       id="path3013"
       style="fill:#2f2e2d;fill-opacity:1;fill-rule:nonzero;stroke:none"
       d="M 45.364167,4.8566716 35.388662,18.722772 c -0.714278,0.714715 1.61666,3.772076 4.344288,6.522608 L 55.188512,10.068368 C 51.430391,6.3093755 46.902951,3.3196335 45.364167,4.8566716"
       inkscape:connector-curvature="0" />
    <path
       id="path3015"
       style="fill:#1d1c1b;fill-opacity:1;fill-rule:nonzero;stroke:none"
       d="m 38.340452,20.763676 c -0.122664,0 -0.24648,-0.03851 -0.351031,-0.119241 -0.251935,-0.193401 -0.299047,-0.555486 -0.105644,-0.807053 L 47.83536,6.8626792 c 0.192309,-0.2530225 0.554685,-0.2995526 0.806615,-0.1068813 0.253028,0.1934024 0.300211,0.5554868 0.106732,0.807782 L 38.797128,20.538281 c -0.113567,0.147595 -0.284573,0.225392 -0.456676,0.225392"
       inkscape:connector-curvature="0" />
    <path
       id="path3017"
       style="fill:#2a2929;fill-opacity:1;fill-rule:nonzero;stroke:none"
       d="m 45.271829,27.693454 c -0.173263,0 -0.344198,-0.07708 -0.456681,-0.225397 -0.193402,-0.252294 -0.146286,-0.613651 0.105645,-0.807053 l 12.97324,-9.952237 c 0.252734,-0.193403 0.614016,-0.145417 0.807423,0.106881 0.193692,0.252295 0.146286,0.613657 -0.105944,0.807058 l -12.972657,9.952235 c -0.104769,0.07998 -0.228302,0.118515 -0.351031,0.118515"
       inkscape:connector-curvature="0" />
    <path
       id="path3019"
       style="fill:#2a2929;fill-opacity:1;fill-rule:nonzero;stroke:none"
       d="m 42.937837,25.360986 c -0.156538,0 -0.311624,-0.06326 -0.425193,-0.187582 -0.214998,-0.235574 -0.198278,-0.599116 0.03695,-0.814329 l 12.561355,-11.46165 c 0.235212,-0.214485 0.599839,-0.197766 0.813455,0.03783 0.214707,0.234845 0.198202,0.59911 -0.0375,0.812871 L 43.325835,25.209774 c -0.11023,0.101071 -0.249681,0.151231 -0.387969,0.151231"
       inkscape:connector-curvature="0" />
    <path
       id="path3021"
       style="fill:#1d1c1b;fill-opacity:1;fill-rule:nonzero;stroke:none"
       d="m 40.537318,22.959449 c -0.138292,0 -0.277746,-0.05016 -0.38826,-0.150502 -0.234846,-0.21449 -0.251931,-0.579483 -0.03695,-0.813601 L 51.573243,9.4336276 c 0.213905,-0.234118 0.57941,-0.250844 0.813453,-0.03709 0.234847,0.213763 0.251862,0.578028 0.03686,0.8136024 L 40.962492,22.771128 c -0.113642,0.124326 -0.269019,0.188311 -0.425194,0.188311"
       inkscape:connector-curvature="0" />
  </g>
</svg>
