<?xml version="1.0" encoding="UTF-8" standalone="no"?>
<!-- Created with Inkscape (http://www.inkscape.org/) -->

<svg
   xmlns:dc="http://purl.org/dc/elements/1.1/"
   xmlns:cc="http://creativecommons.org/ns#"
   xmlns:rdf="http://www.w3.org/1999/02/22-rdf-syntax-ns#"
   xmlns:svg="http://www.w3.org/2000/svg"
   xmlns="http://www.w3.org/2000/svg"
   xmlns:sodipodi="http://sodipodi.sourceforge.net/DTD/sodipodi-0.dtd"
   xmlns:inkscape="http://www.inkscape.org/namespaces/inkscape"
   width="64px"
   height="64px"
   id="svg20105"
   version="1.1"
   inkscape:version="0.48.5 r10040"
   sodipodi:docname="Nowy dokument 25">
  <defs
     id="defs20107" />
  <sodipodi:namedview
     id="base"
     pagecolor="#ffffff"
     bordercolor="#666666"
     borderopacity="1.0"
     inkscape:pageopacity="0.0"
     inkscape:pageshadow="2"
     inkscape:zoom="5.5"
     inkscape:cx="32"
     inkscape:cy="35.651349"
     inkscape:current-layer="layer1"
     showgrid="true"
     inkscape:document-units="px"
     inkscape:grid-bbox="true"
     inkscape:window-width="1366"
     inkscape:window-height="706"
     inkscape:window-x="-8"
     inkscape:window-y="-8"
     inkscape:window-maximized="1" />
  <metadata
     id="metadata20110">
    <rdf:RDF>
      <cc:Work
         rdf:about="">
        <dc:format>image/svg+xml</dc:format>
        <dc:type
           rdf:resource="http://purl.org/dc/dcmitype/StillImage" />
        <dc:title></dc:title>
      </cc:Work>
    </rdf:RDF>
  </metadata>
  <g
     id="layer1"
     inkscape:label="Layer 1"
     inkscape:groupmode="layer">
    <path
       id="path6603"
       style="fill:#2b545e;fill-opacity:1;fill-rule:nonzero;stroke:none"
       d="m 56.726894,13.292187 c 0,3.407873 -1.433326,6.170354 -6.934796,6.170354 -5.501466,0 -11.106318,-4.113569 -11.106318,-6.170354 0,-2.410025 5.604852,-6.171134 11.106318,-6.171134 5.50147,0 6.934796,2.7624818 6.934796,6.171134"
       inkscape:connector-curvature="0" />
    <path
       id="path6605"
       style="fill:#24474e;fill-opacity:1;fill-rule:nonzero;stroke:none"
       d="m 56.726894,13.292187 c 0,3.407873 -1.433326,6.170354 -6.934796,6.170354 -5.501466,0 -11.106318,-4.113569 -11.106318,-6.170354 0,-2.410025 18.041114,-3.4086522 18.041114,0"
       inkscape:connector-curvature="0" />
    <path
       id="path6607"
       style="fill:#a2d8c4;fill-opacity:1;fill-rule:nonzero;stroke:none"
       d="m 52.637605,41.617226 c 0,10.385745 -10.114743,18.804777 -22.590951,18.804777 -12.476987,0 -22.5917299,-8.419032 -22.5917299,-18.804777 0,-10.386526 10.1147429,-18.805558 22.5917299,-18.805558 12.476208,0 22.590951,8.419032 22.590951,18.805558"
       inkscape:connector-curvature="0" />
    <path
       id="path6609"
       style="fill:#b0b0ae;fill-opacity:1;fill-rule:nonzero;stroke:none"
       d="m 34.126547,19.445309 0,-5.915801 c 0,-1.95183 -1.582925,-5.5265302 -3.533976,-5.5265302 l -1.620518,0 c -1.951046,0 -3.534755,3.5747002 -3.534755,5.5265302 l 0,5.915801 C 23.3484,20.49955 21.912721,22.660505 21.912721,25.1606 l 0,17.340902 c 0,3.53554 2.865089,6.402976 6.402197,6.402976 l 2.934009,0 c 3.536324,0 6.402976,-2.867436 6.402976,-6.402976 l 0,-17.340902 c 0,-2.500095 -1.436458,-4.66105 -3.525356,-5.715291"
       inkscape:connector-curvature="0" />
    <path
       id="path6611"
       style="fill:#c3c1c0;fill-opacity:1;fill-rule:nonzero;stroke:none"
       d="m 29.694198,8.0029778 -0.722145,0 c -1.951046,0 -3.534755,3.5747002 -3.534755,5.5265302 l 0,5.915801 C 23.3484,20.49955 21.912721,22.660505 21.912721,25.1606 l 0,17.340902 c 0,3.53554 2.865089,6.402976 6.402197,6.402976 l 1.37928,0 0,-40.9015002"
       inkscape:connector-curvature="0" />
    <path
       id="path6613"
       style="fill:#b0b0ae;fill-opacity:1;fill-rule:nonzero;stroke:none"
       d="m 39.214463,11.704566 -16.220088,0 c -0.87566,0 -1.586057,0.710397 -1.586057,1.587621 0,0.876445 0.710397,1.586057 1.586057,1.586057 l 16.220088,0 c 0.876445,0 0.940671,-0.709612 0.940671,-1.586057 0,-0.877224 -0.06422,-1.587621 -0.940671,-1.587621"
       inkscape:connector-curvature="0" />
    <path
       id="path6615"
       style="fill:#cdeee2;fill-opacity:1;fill-rule:nonzero;stroke:none"
       d="m 51.790141,41.617226 c 0,9.996472 -9.73487,18.09986 -21.743487,18.09986 -12.007828,0 -21.7434818,-8.103388 -21.7434818,-18.09986 0,-9.995689 9.7356538,-18.099856 21.7434818,-18.099856 12.008617,0 21.743487,8.104167 21.743487,18.099856"
       inkscape:connector-curvature="0" />
    <path
       id="path6617"
       style="fill:#bde8da;fill-opacity:1;fill-rule:nonzero;stroke:none"
       d="m 30.046654,59.717086 c -12.007828,0 -21.7434818,-8.103388 -21.7434818,-18.09986 0,-9.995689 9.7356538,-18.099856 21.7434818,-18.099856 12.008617,0 12.008617,36.199716 0,36.199716"
       inkscape:connector-curvature="0" />
    <path
       id="path6619"
       style="fill:#68a593;fill-opacity:1;fill-rule:nonzero;stroke:none"
       d="m 50.482913,41.63289 c 0,9.394167 -9.150571,17.011942 -20.436259,17.011942 -11.287246,0 -20.4354754,-7.617775 -20.4354754,-17.011942 l 40.8717344,0"
       inkscape:connector-curvature="0" />
    <path
       id="path6621"
       style="fill:#cdeee2;fill-opacity:1;fill-rule:nonzero;stroke:none"
       d="m 14.493886,38.934634 c -1.900916,-1.901701 0.186413,-7.164281 2.08655,-9.064418 1.900921,-1.900922 6.502445,-3.703936 8.402582,-1.804583 1.899354,1.900137 -8.588211,12.768353 -10.489132,10.869001"
       inkscape:connector-curvature="0" />
    <path
       id="path6623"
       style="fill:#c3c1c0;fill-opacity:1;fill-rule:nonzero;stroke:none"
       d="m 22.994375,11.704566 c -0.536516,0 -1.005675,0.267866 -1.291558,0.676716 0.216173,0.216957 0.356372,0.510672 0.356372,0.843548 0,0.35794 -0.161347,0.675936 -0.411201,0.895241 0.277266,0.454278 0.775406,0.758173 1.346387,0.758173 l 6.699823,0 0,-3.173678 -6.699823,0"
       inkscape:connector-curvature="0" />
    <path
       id="path6625"
       style="fill:#828484;fill-opacity:1;fill-rule:nonzero;stroke:none"
       d="m 22.059189,13.22483 c 0,-0.332876 -0.140199,-0.626591 -0.356372,-0.843548 -0.09477,0.137067 -0.169964,0.28823 -0.220089,0.449578 0.127668,0.09086 0.211473,0.237322 0.211473,0.405718 0,0.17936 -0.09712,0.334444 -0.240453,0.42295 0.04075,0.166044 0.107302,0.31956 0.19424,0.460543 0.249854,-0.219305 0.411201,-0.537301 0.411201,-0.895241"
       inkscape:connector-curvature="0" />
  </g>
</svg>
