<?xml version="1.0" encoding="UTF-8" standalone="no"?>
<!-- Created with Inkscape (http://www.inkscape.org/) -->

<svg
   xmlns:dc="http://purl.org/dc/elements/1.1/"
   xmlns:cc="http://creativecommons.org/ns#"
   xmlns:rdf="http://www.w3.org/1999/02/22-rdf-syntax-ns#"
   xmlns:svg="http://www.w3.org/2000/svg"
   xmlns="http://www.w3.org/2000/svg"
   xmlns:sodipodi="http://sodipodi.sourceforge.net/DTD/sodipodi-0.dtd"
   xmlns:inkscape="http://www.inkscape.org/namespaces/inkscape"
   width="64px"
   height="64px"
   id="svg204394"
   version="1.1"
   inkscape:version="0.48.5 r10040"
   sodipodi:docname="pies_2.svg">
  <defs
     id="defs204396" />
  <sodipodi:namedview
     id="base"
     pagecolor="#ffffff"
     bordercolor="#666666"
     borderopacity="1.0"
     inkscape:pageopacity="0.0"
     inkscape:pageshadow="2"
     inkscape:zoom="5.5"
     inkscape:cx="32"
     inkscape:cy="32"
     inkscape:current-layer="layer1"
     showgrid="true"
     inkscape:document-units="px"
     inkscape:grid-bbox="true"
     inkscape:window-width="1366"
     inkscape:window-height="706"
     inkscape:window-x="-8"
     inkscape:window-y="-8"
     inkscape:window-maximized="1" />
  <metadata
     id="metadata204399">
    <rdf:RDF>
      <cc:Work
         rdf:about="">
        <dc:format>image/svg+xml</dc:format>
        <dc:type
           rdf:resource="http://purl.org/dc/dcmitype/StillImage" />
        <dc:title></dc:title>
      </cc:Work>
    </rdf:RDF>
  </metadata>
  <g
     id="layer1"
     inkscape:label="Layer 1"
     inkscape:groupmode="layer">
    <g
       id="g71853"
       transform="matrix(1.6554156,0,0,-1.5806829,24.479047,5.0616705)">
      <path
         inkscape:connector-curvature="0"
         d="m 0,0 c 0.429,-0.718 0.697,-1.516 0.75,-2.365 1.366,-0.187 2.786,-0.293 3.857,-1.144 1.045,0.718 2.626,1.569 3.939,0.692 0.724,-0.612 0.965,-1.49 0.83,-2.34 0.911,-0.691 2.465,-1.409 2.305,-2.765 -0.885,-1.86 -3.323,-2.365 -3.644,-4.518 -0.215,-0.081 -0.724,-0.266 -0.965,0 l -0.857,0.823 -1.152,-1.913 c 0.884,-0.134 1.367,-1.091 1.554,-1.835 0.428,-0.691 -0.722,-1.834 0.643,-1.861 2.223,-0.159 3.59,1.728 5.707,1.782 l 2.009,-0.133 c 2.42,2.983 0.481,5.582 -0.965,7.789 -1.474,1.833 -4.233,3.296 -3.215,6.007 1.6,2.351 4.521,1.222 5.561,-0.342 2.786,-3.137 3.033,-7.695 2.155,-12.046 -0.484,-0.903 -0.564,-1.94 -1.286,-2.738 1.5,-2.365 1.338,-5.476 0.133,-7.921 -1.339,-2.127 -3.162,-4.068 -5.143,-5.849 0.804,-0.052 1.741,-0.292 2.035,-1.169 -0.025,-0.452 0.188,-1.276 -0.428,-1.463 -1.152,-0.504 -2.652,-0.212 -3.536,-1.195 -1.099,-0.054 -1.849,-1.436 -3.027,-0.639 l -0.91,0.559 c -0.643,-0.133 -1.287,0.16 -1.795,0.638 -1.072,-0.612 -2.278,0.133 -3.27,-0.372 -1.15,-0.027 -2.41,0.611 -2.973,1.648 -0.294,0.824 0.188,1.621 0.912,1.993 0.803,0.4 1.794,0.532 2.758,0.372 0,1.809 -0.213,3.67 -0.375,5.477 -1.472,1.648 -1.312,4.465 -0.642,6.273 -1.421,0.212 -1.581,1.702 -1.822,2.792 0,0.425 0.214,0.796 0.535,1.036 0.134,-0.053 0.188,0.053 0.322,0.106 -1.018,1.197 -2.811,0.53 -4.123,0.584 0.107,1.275 -1.181,0.825 -1.797,1.331 -2.036,0.585 -4.492,1.897 -4.574,5.622 -0.25,0.33 -1.534,2.857 0.717,3.947 1.527,0.107 3.214,0.027 4.045,-1.462 0.508,-0.425 -0.134,-1.674 0.91,-1.462 0.59,-0.08 1.205,-0.106 1.715,-0.318 l 0.08,1.86 c -1.58,0.612 -2.92,2.02 -3.08,3.748 -0.134,1.064 -0.161,2.233 0.508,3.057 C -3.938,1.011 -1.393,1.808 0,0 m 5.197,-27.38 -0.375,0.08 c 0,-1.33 -1.527,-3.563 0.323,-4.334 l 0.186,0.187 c -0.054,1.275 -0.186,2.737 -0.134,4.067 m 4.875,-1.143 c -0.589,-0.212 -1.097,0.132 -1.661,0.186 l -0.374,-1.968 1.339,-0.318 c 0.241,0.691 0.563,1.435 0.696,2.1"
         style="fill:#000000;fill-opacity:1;fill-rule:nonzero;stroke:none"
         id="path71855" />
    </g>
    <g
       id="g71857"
       transform="matrix(1.6554156,0,0,-1.5806829,32.019002,11.321175)">
      <path
         inkscape:connector-curvature="0"
         d="M 0,0 C 1.166,0.972 2.92,1.302 3.67,0.77 4.849,-0.347 4.018,-2.367 4.634,-3.748 4.956,-3.803 5.009,-1.915 5.009,-1.915 5.651,-2.339 6.623,-2.918 6.54,-3.453 6.499,-5.034 3.509,-5.981 3.08,-8.028 2.438,-8.002 2.09,-7.284 1.795,-6.832 0.17,-3.66 1.981,-0.771 1.928,-0.559 1.365,-0.665 0.615,-0.559 0.375,-1.197 0.268,-1.649 0.59,-1.968 0.776,-2.233 0.563,-3.775 0.535,-5.716 1.285,-7.071 c -0.59,-1.303 -1.42,-2.765 -2.84,-3.455 l -1.927,-0.373 c -1.02,1.621 -3.109,1.594 -4.743,1.329 -0.027,0.106 -0.08,0.186 -0.08,0.318 2.303,-0.346 5.678,0.618 5.867,3.828 0.348,0.187 0.669,-0.452 0.963,-0.185 -0.187,0.318 -0.4,0.717 -0.776,0.823 -0.616,0.159 -1.286,0.027 -1.741,-0.371 0,-0.16 -0.375,-0.32 -0.054,-0.452 0.402,-0.426 0.59,0.372 1.019,0.265 -0.134,-1.355 -0.182,-2.411 -2.231,-3.166 -3.268,-0.771 -6.959,0.295 -8.834,3.086 -0.32,0.532 -0.4,1.196 -0.428,1.861 0.508,-0.373 1.206,-0.904 1.983,-0.638 0.91,0.319 1.656,0.458 2.384,1.515 1.205,0.107 2.518,-0.105 3.536,-0.745 0.67,-0.052 1.037,0.285 1.359,0.843 0.241,0.531 0.087,1.152 -0.262,1.497 -0.535,0.638 -1.4,0.276 -1.687,-0.106 0.107,0.611 0.455,1.276 1.1,1.595 1.58,0.771 3.642,0.691 5.276,0.053 L 0,0 z"
         style="fill:#b9834e;fill-opacity:1;fill-rule:nonzero;stroke:none"
         id="path71859" />
    </g>
    <g
       id="g71861"
       transform="matrix(1.6554156,0,0,-1.5806829,32.019002,11.321175)">
      <path
         inkscape:connector-curvature="0"
         d="M 0,0 C 1.166,0.972 2.92,1.302 3.67,0.77 4.849,-0.347 4.018,-2.367 4.634,-3.748 4.956,-3.803 5.009,-1.915 5.009,-1.915 5.651,-2.339 6.623,-2.918 6.54,-3.453 6.499,-5.034 3.509,-5.981 3.08,-8.028 2.438,-8.002 2.09,-7.284 1.795,-6.832 0.17,-3.66 1.981,-0.771 1.928,-0.559 1.365,-0.665 0.615,-0.559 0.375,-1.197 0.268,-1.649 0.59,-1.968 0.776,-2.233 0.563,-3.775 0.535,-5.716 1.285,-7.071 c -0.59,-1.303 -1.42,-2.765 -2.84,-3.455 l -1.927,-0.373 c 2.728,1.278 0.855,2.265 1.044,5.475 0.348,0.187 0.669,-0.452 0.963,-0.185 -0.187,0.318 -0.4,0.717 -0.776,0.823 -0.616,0.159 -1.286,0.027 -1.741,-0.371 0,-0.16 -0.375,-0.32 -0.054,-0.452 0.402,-0.426 -8.152,-2.314 -6.107,2.923 1.205,0.107 2.518,-0.105 3.536,-0.745 0.67,-0.052 1.037,0.285 1.359,0.843 0.241,0.531 0.087,1.152 -0.262,1.497 -0.535,0.638 -1.4,0.276 -1.687,-0.106 0.107,0.611 0.455,1.276 1.1,1.595 1.58,0.771 3.642,0.691 5.276,0.053 L 0,0 z"
         style="fill:#9c6024;fill-opacity:1;fill-rule:nonzero;stroke:none"
         id="path71863" />
    </g>
    <g
       id="g71865"
       transform="matrix(1.6554156,0,0,-1.5806829,21.908783,10.69143)">
      <path
         inkscape:connector-curvature="0"
         d="M 0,0 C 1.55,0.756 3.565,0.693 5.186,0.088 5.309,-2.141 4.598,-3.766 3.419,-4.31 1.825,-5.043 1.195,-5.611 -1.137,-4.592 c -1.043,0.455 -2.381,0.685 -3.544,0.799 0.215,0.178 0.426,0.405 0.635,0.709 1.205,0.106 2.519,-0.105 3.536,-0.745 0.67,-0.053 1.037,0.285 1.36,0.843 0.241,0.531 0.087,1.152 -0.262,1.497 C 0.053,-0.852 -0.813,-1.214 -1.1,-1.596 -0.992,-0.984 -0.645,-0.319 0,0"
         style="fill:#b9834e;fill-opacity:1;fill-rule:nonzero;stroke:none"
         id="path71867" />
    </g>
    <g
       id="g71869"
       transform="matrix(1.6554156,0,0,-1.5806829,32.019002,11.321175)">
      <path
         inkscape:connector-curvature="0"
         d="M 0,0 C 1.145,0.953 2.852,1.289 3.625,0.8 1.271,-3.588 2.539,-6.732 3.08,-8.028 2.438,-8.002 2.09,-7.284 1.795,-6.832 0.17,-3.66 1.981,-0.771 1.928,-0.559 1.451,-0.649 0.84,-0.586 0.518,-0.954 0.413,-0.966 0.311,-0.975 0.217,-0.975 c -0.428,0 -0.342,0.67 -0.272,1.004 L 0,0 z"
         style="fill:#b9834e;fill-opacity:1;fill-rule:nonzero;stroke:none"
         id="path71871" />
    </g>
    <g
       id="g71873"
       transform="matrix(1.6554156,0,0,-1.5806829,24.566321,7.1610705)">
      <path
         inkscape:connector-curvature="0"
         d="m 0,0 c -0.133,-0.453 -0.48,-0.799 -0.775,-1.171 -0.08,0.639 -0.397,1.366 -1.205,1.676 -0.484,0.026 -1.1,-0.24 -1.288,-0.773 -0.132,-0.716 0.349,-1.301 0.83,-1.646 l 0.135,0 C -2.545,-2.366 -3.08,-2.366 -3.535,-2.447 -5.01,-1.756 -5.598,-0.268 -5.731,1.195 -5.759,1.833 -5.651,2.418 -5.41,2.924 -3.589,1.939 -0.48,2.765 0,0"
         style="fill:#9c6024;fill-opacity:1;fill-rule:nonzero;stroke:none"
         id="path71875" />
    </g>
    <g
       id="g71877"
       transform="matrix(1.6554156,0,0,-1.5806829,54.679125,16.953844)">
      <path
         inkscape:connector-curvature="0"
         d="m 0,0 c 0.321,-2.364 0.349,-5.263 -0.777,-7.336 -0.214,-0.159 -0.644,-0.293 -0.964,-0.134 -0.429,0.213 -0.375,0.257 -0.188,0.708 0.858,1.835 -0.136,4.22 -1.152,5.673 C -4.34,1.356 -8.277,2.818 -6.67,5.981 -3.77,8.63 -0.183,2.461 0,0"
         style="fill:#9c6024;fill-opacity:1;fill-rule:nonzero;stroke:none"
         id="path71879" />
    </g>
    <g
       id="g71881"
       transform="matrix(1.6554156,0,0,-1.5806829,22.438914,8.0872239)">
      <path
         inkscape:connector-curvature="0"
         d="M 0,0 C 0.027,-0.266 0.242,-0.558 0.054,-0.823 -0.375,-0.903 -0.83,-1.515 -1.232,-0.903 -1.5,-0.558 -1.688,-0.106 -1.607,0.318 -1.5,0.611 -1.313,0.586 -1.099,0.771 -0.59,0.851 -0.188,0.372 0,0"
         style="fill:#edccb8;fill-opacity:1;fill-rule:nonzero;stroke:none"
         id="path71883" />
    </g>
    <g
       id="g71885"
       transform="matrix(1.6554156,0,0,-1.5806829,14.457692,12.710405)">
      <path
         inkscape:connector-curvature="0"
         d="m 0,0 c 1.016,-2.245 -1.715,-2.816 -2.706,-2.949 -1.568,0.746 -1.951,1.557 -1.817,2.806 -0.054,0.559 0.477,1.075 0.933,1.34 C -2.278,1.464 -0.671,1.383 0,0"
         style="fill:#835796;fill-opacity:1;fill-rule:nonzero;stroke:none"
         id="path71887" />
    </g>
    <g
       id="g71889"
       transform="matrix(1.6554156,0,0,-1.5806829,33.614557,14.220147)">
      <path
         inkscape:connector-curvature="0"
         d="m 0,0 c -0.08,0.159 -0.401,0.425 -0.188,0.69 0.162,0.16 0.376,0.16 0.564,0.265 L 0,0 z"
         style="fill:#edccb8;fill-opacity:1;fill-rule:nonzero;stroke:none"
         id="path71891" />
    </g>
    <g
       id="g71893"
       transform="matrix(1.6554156,0,0,-1.5806829,29.666856,14.053353)">
      <path
         inkscape:connector-curvature="0"
         d="m 0,0 c 0.295,-0.61 0.295,-1.329 -0.054,-1.915 -0.535,-0.61 -1.526,-0.796 -2.33,-0.504 -0.347,0.372 -0.615,0.771 -0.642,1.276 C -3.214,0.336 -1.663,1.586 0,0"
         style="fill:#000000;fill-opacity:1;fill-rule:nonzero;stroke:none"
         id="path71895" />
    </g>
    <g
       id="g71897"
       transform="matrix(1.6554156,0,0,-1.5806829,33.39313,27.458304)">
      <path
         inkscape:connector-curvature="0"
         d="m 0,0 c 0.17,-0.569 -4.787,-2.355 -5.599,-1.329 0,0.266 0.322,0.346 0.536,0.452 0.723,-0.931 2.036,0.053 3.081,0.107 C -1.286,-0.584 -0.777,0.771 0,0"
         style="fill:#feec19;fill-opacity:1;fill-rule:nonzero;stroke:none"
         id="path71899" />
    </g>
    <g
       id="g71901"
       transform="matrix(1.6554156,0,0,-1.5806829,34.589399,29.349307)">
      <path
         inkscape:connector-curvature="0"
         d="m 0,0 c 0.081,-0.77 -0.053,-1.647 -0.857,-2.126 -1.312,-0.852 -3.589,-1.116 -4.929,-0.24 -0.509,0.48 -0.348,1.223 -0.644,1.781 1.85,-0.451 4.367,0.159 6.03,1.464 L 0,0 z"
         style="fill:#ebcd00;fill-opacity:1;fill-rule:nonzero;stroke:none"
         id="path71903" />
    </g>
    <g
       id="g71905"
       transform="matrix(1.6554156,0,0,-1.5806829,52.326978,32.709712)">
      <path
         inkscape:connector-curvature="0"
         d="m 0,0 c 1.314,-2.207 0.966,-5.663 -0.428,-7.709 -1.606,-2.02 -3.107,-4.146 -5.277,-5.688 0.434,-0.271 2.225,0.265 2.625,-1.01 0.161,-0.613 -0.187,-1.144 -0.775,-1.144 -0.537,0 -0.189,0.957 -0.886,1.01 -0.268,-0.425 0.241,-0.691 0.054,-1.143 -0.294,-0.159 -0.616,-0.24 -0.964,-0.185 -0.054,0.849 -0.268,1.86 -1.153,2.418 0,0.77 0.51,1.568 0.778,2.366 1.098,0.293 2.384,0.318 3.214,1.196 -3.373,-1.14 -5.545,-0.372 -5.545,-0.372 0.428,1.808 1.152,5.582 1.045,5.556 -1.152,-2.658 -1.634,-5.583 -2.116,-8.481 0.428,-0.345 1.044,-0.186 1.526,-0.398 0.59,-0.213 1.152,-0.505 1.421,-1.144 0.187,-0.451 0.455,-1.089 0.052,-1.541 -0.079,-0.24 -0.347,-0.319 -0.562,-0.372 0.224,1.682 -0.536,2.153 -0.723,2.18 0.699,-1.199 0.161,-2.048 -0.054,-2.446 -0.482,-0.372 -1.232,-0.638 -1.795,-0.239 -0.562,0.637 0.402,2.154 -0.83,2.472 0.83,-1.15 0,-1.967 0,-1.967 -0.509,-0.027 -0.777,-0.027 -1.179,0.266 -0.481,0.426 -0.028,1.635 0.595,2.171 0.042,0.33 -0.138,7.611 -0.783,8.86 -0.562,1.542 -0.375,3.376 0.403,4.785 l 0.83,0.691 c 3.108,-1.568 5.331,2.366 8.493,1.275 C -1.15,1.463 -0.48,0.664 0,0"
         style="fill:#9c6024;fill-opacity:1;fill-rule:nonzero;stroke:none"
         id="path71907" />
    </g>
    <g
       id="g71909"
       transform="matrix(1.6554156,0,0,-1.5806829,32.639849,34.095908)">
      <path
         inkscape:connector-curvature="0"
         d="m 0,0 c -0.563,-1.437 -0.857,-3.403 -0.055,-4.786 l 0.323,-3.589 c -1.769,0.453 -3.483,2.074 -3.993,3.775 -0.321,1.329 -0.267,2.952 0.323,4.148 1.071,-0.054 2.411,0 3.402,0.452"
         style="fill:#ac7531;fill-opacity:1;fill-rule:nonzero;stroke:none"
         id="path71911" />
    </g>
    <g
       id="g71913"
       transform="matrix(1.6554156,0,0,-1.5806829,30.421724,53.886817)">
      <path
         inkscape:connector-curvature="0"
         d="M 0,0 C 0.482,-0.399 0.938,-0.798 1.232,-1.276 0.428,-1.622 1.34,-3.084 0.055,-2.791 c -0.403,0.186 -1.689,-0.48 -1.475,0.558 -0.187,0.585 0.174,1.303 0,1.542 -0.43,-0.612 -0.776,-1.41 -0.455,-2.18 -0.67,-0.133 -1.446,-0.054 -1.982,0.319 -0.686,1.209 0.214,1.728 0.267,1.914 -0.134,0.239 -0.401,0.106 -0.535,0 -0.241,-0.346 -0.59,-0.771 -0.43,-1.33 -0.294,0.159 -0.294,0.559 -0.267,0.905 0.134,0.636 0.778,1.7 3.724,1.195 0.188,1.17 -0.161,2.047 -0.134,3.269 0.241,0.321 0.83,0.506 1.232,0.241 L 0.509,3.083 0,0 z"
         style="fill:#9c6024;fill-opacity:1;fill-rule:nonzero;stroke:none"
         id="path71915" />
    </g>
    <g
       id="g71917"
       transform="matrix(1.6554156,0,0,-1.5806829,9.3216655,17.051088)">
      <path
         inkscape:connector-curvature="0"
         d="M 0,0 C -1.236,0.693 -1.543,1.468 -1.421,2.604 -1.475,3.162 -0.943,3.678 -0.487,3.943 0.705,4.185 2.141,4.141 2.896,3.095 2.16,3.396 1.26,3.362 0.469,3.201 0.013,2.935 -0.519,2.42 -0.465,1.862 -0.547,1.11 -0.439,0.517 0,0"
         style="fill:#b18db8;fill-opacity:1;fill-rule:nonzero;stroke:none"
         id="path71919" />
    </g>
    <g
       id="g71921"
       transform="matrix(1.6554156,0,0,-1.5806829,8.1383743,12.012629)">
      <path
         inkscape:connector-curvature="0"
         d="M 0,0 C 0,0.368 0.301,0.666 0.671,0.666 1.043,0.666 1.342,0.368 1.342,0 1.342,-0.368 1.043,-0.665 0.671,-0.665 0.301,-0.665 0,-0.368 0,0"
         style="fill:#ffffff;fill-opacity:1;fill-rule:nonzero;stroke:none"
         id="path71923" />
    </g>
    <g
       id="g71925"
       transform="matrix(1.6554156,0,0,-1.5806829,25.261596,15.510617)">
      <path
         inkscape:connector-curvature="0"
         d="M 0,0 C 0,0.695 0.568,1.258 1.268,1.258 1.968,1.258 2.535,0.695 2.535,0 2.535,-0.693 1.968,-1.258 1.268,-1.258 0.568,-1.258 0,-0.693 0,0"
         style="fill:#ffffff;fill-opacity:1;fill-rule:nonzero;stroke:none"
         id="path71927" />
    </g>
    <g
       id="g71929"
       transform="matrix(1.6554156,0,0,-1.5806829,20.219333,14.596729)">
      <path
         inkscape:connector-curvature="0"
         d="M 0,0 C 0,0.489 0.354,0.887 0.79,0.887 1.226,0.887 1.579,0.489 1.579,0 1.579,-0.49 1.226,-0.887 0.79,-0.887 0.354,-0.887 0,-0.49 0,0"
         style="fill:#ffffff;fill-opacity:1;fill-rule:nonzero;stroke:none"
         id="path71931" />
    </g>
    <g
       id="g71933"
       transform="matrix(1.6554156,0,0,-1.5806829,36.199654,58.150487)">
      <path
         inkscape:connector-curvature="0"
         d="m 0,0 c 0.037,0.606 0.09,1.229 -0.65,1.421 0.408,-0.567 0.414,-1.054 0.316,-1.4 -0.545,0.048 -1.146,0.175 -1.691,0.357 0.046,0.52 0.382,1.16 0.791,1.513 0.042,0.33 -0.139,7.611 -0.784,8.86 -0.318,0.877 -0.396,1.847 -0.26,2.78 0.641,-0.734 1.4,-1.562 1.709,-1.76 0.582,-0.372 0.25,-5.827 0.25,-5.827 l 0.042,-4.135 c 0,0 1.507,0.028 1.631,-1.168 C 1.404,0.161 0.805,-0.021 0,0"
         style="fill:#b9834e;fill-opacity:1;fill-rule:nonzero;stroke:none"
         id="path71935" />
    </g>
    <g
       id="g71937"
       transform="matrix(1.6554156,0,0,-1.5806829,41.195036,37.067465)">
      <path
         inkscape:connector-curvature="0"
         d="m 0,0 c 0,0 5.428,3.036 6.217,0.384 0.79,-2.651 -0.761,-5.468 -1.924,-6.169 -1.163,-0.7 -5.748,-0.66 -5.748,-0.66 L 0,0 z"
         style="fill:#b9834e;fill-opacity:1;fill-rule:evenodd;stroke:none"
         id="path71939" />
    </g>
    <g
       id="g71941"
       transform="matrix(1.6554156,0,0,-1.5806829,28.006672,56.379869)">
      <path
         inkscape:connector-curvature="0"
         d="m 0,0 c 0.042,0.385 0.15,0.733 0.039,0.886 -0.207,-0.297 -0.396,-0.636 -0.5,-0.996 -0.282,-0.052 -0.59,-0.08 -0.912,-0.08 -0.467,0 -0.903,0.059 -1.277,0.162 0.048,0.555 0.482,0.84 0.519,0.967 -0.134,0.239 -0.401,0.106 -0.535,0 -0.16,-0.229 -0.365,-0.492 -0.441,-0.805 -0.096,0.043 -0.186,0.091 -0.267,0.14 0,0.081 0.005,0.162 0.011,0.24 0.134,0.636 0.778,1.7 3.724,1.195 L 0.375,1.801 C 0.838,1.59 1.127,1.296 1.127,0.971 1.127,0.564 0.678,0.208 0,0"
         style="fill:#b9834e;fill-opacity:1;fill-rule:nonzero;stroke:none"
         id="path71943" />
    </g>
    <g
       id="g71945"
       transform="matrix(1.6554156,0,0,-1.5806829,29.745917,45.708743)">
      <path
         inkscape:connector-curvature="0"
         d="m 0,0 c -0.927,0.729 -1.67,1.724 -1.977,2.747 -0.269,1.117 -0.275,2.441 0.081,3.546 0.492,-0.122 1.048,-0.236 1.431,-0.236 0.832,0 0.872,-2.116 1.08,-2.981 C 0.764,2.457 1.453,0.545 0,0"
         style="fill:#cfa685;fill-opacity:1;fill-rule:nonzero;stroke:none"
         id="path71947" />
    </g>
    <g
       id="g71949"
       transform="matrix(1.6554156,0,0,-1.5806829,27.359868,17.498736)">
      <path
         inkscape:connector-curvature="0"
         d="m 0,0 c -0.271,0 -0.523,0.085 -0.73,0.23 l 0.104,-0.004 c 0.7,0 1.268,0.564 1.268,1.259 0,0.423 -0.213,0.799 -0.537,1.027 C 0.756,2.458 1.268,1.918 1.268,1.258 1.268,0.564 0.7,0 0,0"
         style="fill:#dce8eb;fill-opacity:1;fill-rule:nonzero;stroke:none"
         id="path71951" />
    </g>
    <g
       id="g71953"
       transform="matrix(1.6554156,0,0,-1.5806829,21.52711,15.998353)">
      <path
         inkscape:connector-curvature="0"
         d="m 0,0 c -0.205,0 -0.393,0.088 -0.533,0.231 0.392,0.053 0.696,0.427 0.696,0.881 0,0.26 -0.099,0.492 -0.257,0.656 L 0,1.773 C 0.436,1.773 0.789,1.376 0.789,0.887 0.789,0.396 0.436,0 0,0"
         style="fill:#dce8eb;fill-opacity:1;fill-rule:nonzero;stroke:none"
         id="path71955" />
    </g>
    <g
       id="g71957"
       transform="matrix(1.6554156,0,0,-1.5806829,30.785519,33.666721)">
      <path
         inkscape:connector-curvature="0"
         d="m 0,0 c -1.074,-0.271 -2.294,-0.248 -3.2,0.202 -0.106,0.23 -0.166,0.486 -0.166,0.755 0,0.39 0.123,0.75 0.336,1.046 0.834,-0.027 1.733,0.11 2.592,0.39 C -0.005,2.063 0.275,1.542 0.275,0.957 0.275,0.605 0.175,0.277 0,0"
         style="fill:#feec19;fill-opacity:1;fill-rule:nonzero;stroke:none"
         id="path71959" />
    </g>
    <g
       id="g71961"
       transform="matrix(1.6554156,0,0,-1.5806829,24.930247,31.707938)">
      <path
         inkscape:connector-curvature="0"
         d="M 0,0 C 0,0.437 0.497,0.792 1.109,0.792 1.722,0.792 2.22,0.437 2.22,0 2.22,-0.438 1.722,-0.792 1.109,-0.792 0.497,-0.792 0,-0.438 0,0"
         style="fill:#ffffff;fill-opacity:1;fill-rule:nonzero;stroke:none"
         id="path71963" />
    </g>
    <g
       id="g71965"
       transform="matrix(1.6554156,0,0,-1.5806829,51.859622,28.788986)">
      <path
         inkscape:connector-curvature="0"
         d="m 0,0 c -0.467,0.23 -0.413,0.274 -0.226,0.726 0.858,1.835 -0.136,4.219 -1.152,5.672 -1.259,2.446 -5.196,3.908 -3.589,7.071 1.055,0.964 2.201,0.76 3.241,-0.009 C -1.934,13.398 -2.146,13.303 -2.36,13.171 -4.547,10.37 -0.963,8.188 -0.197,5.55 0.486,4.007 0.988,1.638 0,0"
         style="fill:#b9834e;fill-opacity:1;fill-rule:nonzero;stroke:none"
         id="path71967" />
    </g>
    <g
       id="g71969"
       transform="matrix(1.6554156,0,0,-1.5806829,26.53216,16.297797)">
      <path
         inkscape:connector-curvature="0"
         d="M 0,0 C 0,0.39 0.318,0.706 0.711,0.706 1.104,0.706 1.422,0.39 1.422,0 1.422,-0.39 1.104,-0.705 0.711,-0.705 0.318,-0.705 0,-0.39 0,0"
         style="fill:#000000;fill-opacity:1;fill-rule:nonzero;stroke:none"
         id="path71971" />
    </g>
    <g
       id="g71973"
       transform="matrix(1.6554156,0,0,-1.5806829,20.780187,15.271239)">
      <path
         inkscape:connector-curvature="0"
         d="M 0,0 C 0,0.312 0.254,0.564 0.568,0.564 0.883,0.564 1.139,0.312 1.139,0 1.139,-0.312 0.883,-0.564 0.568,-0.564 0.254,-0.564 0,-0.312 0,0"
         style="fill:#000000;fill-opacity:1;fill-rule:nonzero;stroke:none"
         id="path71975" />
    </g>
    <g
       id="g71977"
       transform="matrix(1.6554156,0,0,-1.5806829,20.684836,15.049057)">
      <path
         inkscape:connector-curvature="0"
         d="M 0,0 C 0,0.172 0.14,0.312 0.313,0.312 0.487,0.312 0.626,0.172 0.626,0 0.626,-0.171 0.487,-0.312 0.313,-0.312 0.14,-0.312 0,-0.171 0,0"
         style="fill:#ffffff;fill-opacity:1;fill-rule:nonzero;stroke:none"
         id="path71979" />
    </g>
    <g
       id="g71981"
       transform="matrix(1.6554156,0,0,-1.5806829,26.53216,15.89643)">
      <path
         inkscape:connector-curvature="0"
         d="M 0,0 C 0,0.188 0.152,0.339 0.341,0.339 0.529,0.339 0.683,0.188 0.683,0 0.683,-0.188 0.529,-0.339 0.341,-0.339 0.152,-0.339 0,-0.188 0,0"
         style="fill:#ffffff;fill-opacity:1;fill-rule:nonzero;stroke:none"
         id="path71983" />
    </g>
    <g
       id="g71985"
       transform="matrix(1.6554156,0,0,-1.5806829,41.152923,50.148185)">
      <path
         inkscape:connector-curvature="0"
         d="M 0,0 C -0.589,-0.212 -1.098,0.133 -1.661,0.187 L -2.035,-1.781 -0.696,-2.1 C -0.455,-1.408 -0.133,-0.664 0,0"
         style="fill:#774019;fill-opacity:1;fill-rule:nonzero;stroke:none"
         id="path71987" />
    </g>
  </g>
</svg>
