<?xml version="1.0" encoding="UTF-8" standalone="no"?>
<!-- Created with Inkscape (http://www.inkscape.org/) -->

<svg
   xmlns:dc="http://purl.org/dc/elements/1.1/"
   xmlns:cc="http://creativecommons.org/ns#"
   xmlns:rdf="http://www.w3.org/1999/02/22-rdf-syntax-ns#"
   xmlns:svg="http://www.w3.org/2000/svg"
   xmlns="http://www.w3.org/2000/svg"
   xmlns:sodipodi="http://sodipodi.sourceforge.net/DTD/sodipodi-0.dtd"
   xmlns:inkscape="http://www.inkscape.org/namespaces/inkscape"
   width="64px"
   height="64px"
   id="svg204125"
   version="1.1"
   inkscape:version="0.48.5 r10040"
   sodipodi:docname="Nowy dokument 68">
  <defs
     id="defs204127" />
  <sodipodi:namedview
     id="base"
     pagecolor="#ffffff"
     bordercolor="#666666"
     borderopacity="1.0"
     inkscape:pageopacity="0.0"
     inkscape:pageshadow="2"
     inkscape:zoom="5.5"
     inkscape:cx="32"
     inkscape:cy="32"
     inkscape:current-layer="layer1"
     showgrid="true"
     inkscape:document-units="px"
     inkscape:grid-bbox="true"
     inkscape:window-width="1366"
     inkscape:window-height="706"
     inkscape:window-x="-8"
     inkscape:window-y="-8"
     inkscape:window-maximized="1" />
  <metadata
     id="metadata204130">
    <rdf:RDF>
      <cc:Work
         rdf:about="">
        <dc:format>image/svg+xml</dc:format>
        <dc:type
           rdf:resource="http://purl.org/dc/dcmitype/StillImage" />
        <dc:title></dc:title>
      </cc:Work>
    </rdf:RDF>
  </metadata>
  <g
     id="layer1"
     inkscape:label="Layer 1"
     inkscape:groupmode="layer">
    <g
       id="g72149"
       transform="matrix(1.1121852,0,0,-1.1121852,43.941951,9.3555281)">
      <path
         inkscape:connector-curvature="0"
         d="m 0,0 c 0.99,-1.036 0.91,-2.658 0.964,-3.88 0.641,0.053 1.473,0.106 2.196,0.185 0.255,3.455 2.733,4.387 4.421,5.024 0.294,0.16 0.267,0.585 0.642,0.532 C 8.786,0.852 8.732,-0.372 9,-1.462 9.134,-3.056 8.679,-4.466 7.339,-5.369 7.741,-5.954 7.661,-6.805 7.527,-7.39 7.902,-7.496 8.063,-7.921 8.17,-8.24 8.33,-8.798 8.116,-9.463 8.09,-9.941 c 1.017,-0.532 0.349,-2.284 2.464,-1.808 0.803,0 1.554,-0.133 2.17,-0.638 0.401,-0.399 0.589,-1.196 0.321,-1.781 -0.455,-1.303 -1.982,-1.462 -2.705,-2.42 0.321,-1.939 0.321,-3.986 -0.242,-5.794 -0.402,-0.266 -0.616,0.532 -1.044,0.744 -0.429,-0.319 -0.188,-1.01 -0.429,-1.462 -0.535,-1.089 -0.75,-2.286 -1.554,-3.243 -0.375,0.053 -0.696,0.451 -0.83,0.772 -0.429,-0.639 -0.723,-1.33 -1.098,-1.994 0.509,-0.24 1.259,-0.213 1.795,-0.559 2.732,1.488 7.072,2.658 9.643,0.372 0.67,-0.505 0.67,-2.311 0.59,-2.42 -2.358,-0.637 -5.304,-0.372 -7.796,-0.717 0,-0.265 -0.187,-0.797 -0.643,-0.823 -0.509,-0.267 -1.42,0.079 -1.661,-0.639 -4.875,-0.239 -9.884,-0.159 -14.653,0.453 l -0.321,0.318 c -4.368,-0.399 -14.054,-1.516 -17.44,-0.903 0.322,-1.197 2.688,-5.936 -0.885,-7.444 l -0.186,0.32 c -1.527,-1.489 -3.349,-2.659 -5.411,-2.686 -0.564,0.399 0.214,0.665 0.32,1.09 -4.294,-1.268 -7.232,0.478 -7.205,0.692 2.17,0.823 4.769,2.312 5.545,4.732 0,0 -1.741,-0.108 -2.144,0.425 4.488,0.676 2.854,9.049 10.046,8.931 -0.831,2.366 0.135,4.785 1.983,6.46 3.831,4.014 9.215,0.187 13.823,0.559 0.08,1.514 0.535,2.843 1.098,4.146 -0.294,0.054 -1.098,-0.426 -1.098,0.319 0.401,1.835 1.151,3.563 2.384,4.998 -0.455,0.105 -1.34,-0.292 -1.608,0.319 0.617,1.994 2.894,2.472 4.368,3.615 -0.884,0.984 -1.823,2.153 -1.795,3.589 0.132,1.78 0.963,5.343 0.963,5.343 C -3.055,2.845 -1.26,1.676 0,0 m -25.771,-31.526 0.321,1.037 c -0.402,-0.16 -0.321,-0.718 -0.321,-1.037"
         style="fill:#000000;fill-opacity:1;fill-rule:nonzero;stroke:none"
         id="path72151" />
    </g>
    <g
       id="g72153"
       transform="matrix(1.1121852,0,0,-1.1121852,44.238504,10.981543)">
      <path
         inkscape:connector-curvature="0"
         d="m 0,0 c 0.161,-1.01 0.536,-2.072 -0.08,-3.004 2.138,0.321 5.277,0.373 6.376,-0.69 0.321,-0.532 0.696,-1.144 0.455,-1.808 -0.884,-0.32 -1.795,-1.036 -1.875,-2.02 0.269,-0.532 -0.027,-1.064 0.455,-1.489 -0.508,-0.08 -1.07,-0.479 -1.285,-1.01 -0.429,-1.01 1.42,-1.728 0.134,-2.419 -0.992,0 -1.875,-0.771 -2.25,-1.595 l -0.081,-0.506 c -0.964,0.665 -1.474,1.782 -1.608,2.925 l 0.269,0.77 c 0.295,0.054 0.561,-0.398 0.829,-0.079 0,0.266 -0.213,0.531 -0.454,0.638 -1.89,0.227 -2.705,-0.717 -2.625,-0.957 0.572,0.481 1.66,0.532 1.66,0.532 -0.615,-1.304 0.215,-2.473 0.777,-3.51 0.698,-0.797 1.5,-1.488 2.518,-1.86 -0.723,-0.452 -1.527,-0.904 -1.929,-1.728 0.544,0.322 2.92,1.861 4.233,1.222 0.67,-0.133 1.072,0.16 1.742,0.239 0.32,-0.956 -0.028,-1.993 -0.189,-2.923 L 6.35,-18.82 c -0.724,-1.09 -0.135,-2.632 -1.099,-3.695 -0.215,0.187 -0.295,0.664 -0.643,0.744 -0.483,-1.594 -0.428,-3.19 -1.527,-4.519 l -0.723,-0.133 c -1.206,1.382 -2.518,2.951 -3.081,4.732 -0.375,0.239 -0.696,-0.399 -1.097,-0.453 -0.645,0.957 -0.805,2.101 -1.073,3.19 -0.563,0.372 -0.963,-0.637 -1.552,-0.77 -0.189,1.303 -0.537,2.924 0.052,4.147 -0.081,0.399 -0.482,0.08 -0.696,0 l -1.286,-1.011 c -0.43,2.074 0.509,4.015 1.93,5.557 0.025,0.213 -0.243,0.426 -0.456,0.239 l -1.42,-0.558 c 0.026,0.983 0.91,1.78 1.5,2.605 0.508,0.558 1.231,0.85 1.607,1.463 -0.402,0.292 -1.045,0 -1.554,0 1.018,2.604 5.198,2.923 4.045,6.326 -0.267,0.664 -0.696,1.223 -1.339,1.647 -0.643,0.213 -1.178,-0.212 -1.688,-0.504 -0.481,-0.533 -0.429,-1.516 -0.188,-2.181 0.348,-0.797 1.072,-1.435 1.795,-1.913 l -1.848,-0.372 c -0.884,0.77 -1.822,1.755 -1.795,3.004 -0.135,1.861 0.937,3.296 0.83,5.104 C -2.866,3.615 -0.723,1.994 0,0"
         style="fill:#ccae42;fill-opacity:1;fill-rule:nonzero;stroke:none"
         id="path72155" />
    </g>
    <g
       id="g72157"
       transform="matrix(1.1121852,0,0,-1.1121852,52.878581,8.3498457)">
      <path
         inkscape:connector-curvature="0"
         d="M 0,0 C 0.349,-1.383 0.751,-3.057 0.135,-4.412 -0.669,-4.944 -1.982,-5.157 -2.839,-4.6 -3.508,-4.066 -3.776,-3.349 -3.723,-2.499 -2.999,-1.01 -1.231,-0.744 0,0"
         style="fill:#58595a;fill-opacity:1;fill-rule:nonzero;stroke:none"
         id="path72159" />
    </g>
    <g
       id="g72161"
       transform="matrix(1.1121852,0,0,-1.1121852,42.927549,11.689605)">
      <path
         inkscape:connector-curvature="0"
         d="m 0,0 c 0.51,-0.852 0.161,-1.809 0.081,-2.633 l -0.589,-0.558 c -1.126,0.745 -2.412,1.994 -2.063,3.509 0.267,0.399 0.696,0.718 1.178,0.771 C -0.75,1.036 -0.294,0.451 0,0"
         style="fill:#f5d75c;fill-opacity:1;fill-rule:nonzero;stroke:none"
         id="path72163" />
    </g>
    <g
       id="g72165"
       transform="matrix(1.1121852,0,0,-1.1121852,41.438467,15.948295)">
      <path
         inkscape:connector-curvature="0"
         d="m 0,0 c -1.072,-0.956 -1.982,-1.833 -2.571,-3.057 0.347,-0.292 0.776,-0.026 1.151,0 -1.205,-1.143 -2.465,-2.42 -2.759,-3.961 0,0 1.125,0.187 1.741,0.32 -2.336,-2.692 -1.687,-6.062 -1.687,-6.062 0.562,0.56 1.231,0.957 1.741,1.462 -0.322,-1.488 -0.268,-3.163 0.456,-4.598 l 1.097,1.089 c 0.375,-1.036 0.724,-2.206 1.206,-3.242 l 0.268,-0.265 0.831,0.69 c 0.642,-1.568 1.553,-3.084 2.892,-4.333 -0.722,-0.293 -1.526,0.213 -2.169,0.585 -1.179,0.877 -2.251,1.809 -2.974,3.058 -0.617,0.159 -0.858,-0.746 -1.286,-1.011 -0.537,1.011 -0.991,2.073 -1.286,3.189 -0.133,0.159 -0.401,0.4 -0.562,0.107 l -0.858,-0.957 c -0.508,1.037 -0.347,2.552 -0.375,3.774 -0.106,0.373 -1.419,-0.451 -1.419,-0.451 -0.295,1.701 0.669,3.296 1.232,4.864 -0.401,0.267 -0.884,-0.026 -1.366,-0.079 0.402,1.94 1.42,3.694 2.84,5.104 -0.51,0.664 -1.179,0.08 -1.929,0.265 C -4.313,-1.647 -2.224,-0.479 0,0"
         style="fill:#58595a;fill-opacity:1;fill-rule:nonzero;stroke:none"
         id="path72167" />
    </g>
    <g
       id="g72169"
       transform="matrix(1.1121852,0,0,-1.1121852,53.653997,22.48127)">
      <path
         inkscape:connector-curvature="0"
         d="m 0,0 c -0.643,0.159 -1.313,0.372 -1.849,0.824 l 0.884,0.585 C -0.536,1.036 -0.107,0.558 0,0"
         style="fill:#58595a;fill-opacity:1;fill-rule:nonzero;stroke:none"
         id="path72171" />
    </g>
    <g
       id="g72173"
       transform="matrix(1.1121852,0,0,-1.1121852,53.028414,22.984244)">
      <path
         inkscape:connector-curvature="0"
         d="m 0,0 c -0.322,-0.452 -0.322,-1.17 -0.08,-1.648 0.615,-0.745 1.231,-1.569 2.143,-1.861 -1.099,-1.117 -3.001,-1.621 -4.715,-1.648 -0.991,0.159 -2.036,0.372 -2.813,0.957 -0.187,0.318 -0.187,0.877 0,1.196 0.375,1.568 3.134,0.452 2.385,2.499 -0.403,0.399 -0.617,1.01 -0.322,1.541 C -2.17,2.446 -1.366,-0.16 0,0"
         style="fill:#58595a;fill-opacity:1;fill-rule:nonzero;stroke:none"
         id="path72175" />
    </g>
    <g
       id="g72177"
       transform="matrix(1.1121852,0,0,-1.1121852,57.944274,24.048561)">
      <path
         inkscape:connector-curvature="0"
         d="M 0,0 C 0,-0.852 -0.616,-1.675 -1.394,-1.967 -3.604,-2.106 -4.531,-0.149 -3.911,0.638 -3.332,0.878 -0.804,1.541 0,0"
         style="fill:#835796;fill-opacity:1;fill-rule:nonzero;stroke:none"
         id="path72179" />
    </g>
    <g
       id="g72181"
       transform="matrix(1.1121852,0,0,-1.1121852,54.816274,33.272937)">
      <path
         inkscape:connector-curvature="0"
         d="M 0,0 C -0.295,0.106 -0.697,0.585 -1.152,0.585 -1.555,-0.93 -1.85,-2.472 -2.652,-3.828 L -2.84,-4.146 c -0.401,0.211 -0.295,0.956 -0.885,0.904 l -1.606,-2.872 c -0.188,-0.106 -0.456,-0.053 -0.644,-0.079 0.831,1.089 1.073,2.445 1.205,3.828 0.242,-0.107 0.242,-0.745 0.645,-0.559 0.829,1.036 0.723,2.472 1.097,3.695 L -2.385,0.08 c 0.349,0.319 0.59,3.748 0.59,3.748 L 0,4.546 C 0.481,3.11 0.188,1.516 0,0"
         style="fill:#707072;fill-opacity:1;fill-rule:nonzero;stroke:none"
         id="path72183" />
    </g>
    <g
       id="g72185"
       transform="matrix(1.1121852,0,0,-1.1121852,33.42406,31.350547)">
      <path
         inkscape:connector-curvature="0"
         d="m 0,0 c 0,-0.213 0.268,-0.346 0.401,-0.506 0.429,-0.053 0.75,0.346 1.019,0.559 0.08,-1.197 -0.054,-2.95 0.911,-3.935 0.535,0 0.75,0.665 1.071,0.957 0.429,-1.196 0.804,-2.392 1.742,-3.402 0.669,0 0.616,0.77 1.044,1.089 0.911,-1.301 2.331,-2.472 3.723,-3.189 L 7.795,-8.986 c 0.161,0.16 0.429,0.399 0.429,0.691 -0.241,0.293 -2.117,-1.356 -2.893,-1.647 0.536,-0.32 6.169,1.499 9.403,1.594 1.204,-0.292 2.518,-0.531 3.214,-1.807 0.08,-0.399 0.375,-0.718 0.241,-1.197 -0.402,-0.24 -0.884,-0.265 -1.339,-0.319 -0.242,1.275 -1.554,2.074 -2.625,2.552 -0.161,0 1.981,-1.541 1.928,-2.95 -3.991,-0.24 -8.867,-0.106 -12.804,0.133 -0.376,0.239 -0.911,0.08 -1.233,0.452 0.938,1.674 2.116,3.402 1.822,5.422 0,0 -1.26,-3.216 -1.822,-4.2 0.027,0.931 -0.241,1.861 -1.151,2.286 -0.859,0.664 -2.25,0.372 -3.269,0.266 -0.965,-0.238 -1.875,-0.558 -2.759,-0.957 1.098,2.101 0.294,4.892 -1.287,6.753 0,0 -0.941,1.333 -4.071,1.727 8.1,-2.622 4.099,-9.755 4.259,-9.888 1.822,1.328 3.831,2.153 6.296,1.967 1.861,-0.714 1.232,-3.244 1.232,-3.244 l -1.178,-0.079 c -0.108,0.452 -0.563,1.489 -0.563,1.489 l -0.081,-1.542 c -5.009,-0.053 -10.152,-1.755 -15.296,-0.691 0.349,0.691 0.107,1.515 0.911,1.913 -0.268,0.372 -0.991,0.399 -1.42,0.187 -0.321,-0.267 -0.67,-0.479 -0.777,-0.904 -0.054,-1.33 0.831,-2.233 1.232,-3.375 -0.08,-0.373 -0.187,-0.693 -0.508,-0.959 -0.724,0.133 -0.938,1.064 -1.554,1.331 -0.108,-0.984 0.267,-1.861 -0.321,-2.74 -0.75,0.267 -0.483,1.303 -0.965,1.782 -0.536,-0.691 -0.938,-1.702 -1.875,-2.02 -0.268,1.117 0.133,2.259 0.456,3.296 l -0.189,0.212 c -0.642,-0.238 -0.75,-1.116 -1.472,-0.956 -0.134,2.312 1.071,4.518 2.812,6.113 1.045,0.745 2.41,1.383 3.804,1.011 0.187,-0.159 0.348,-0.4 0.59,-0.505 -0.188,1.355 -0.75,2.818 -0.403,4.146 0.75,2.314 3.081,4.625 5.6,4.865 C -6.403,1.382 -3.589,-0.373 0,0"
         style="fill:#ccae42;fill-opacity:1;fill-rule:nonzero;stroke:none"
         id="path72187" />
    </g>
    <g
       id="g72189"
       transform="matrix(1.1121852,0,0,-1.1121852,62.323525,41.078875)">
      <path
         inkscape:connector-curvature="0"
         d="m 0,0 0,-1.275 c -0.348,-0.24 -0.856,-0.027 -1.232,-0.187 -0.133,1.17 -1.312,1.569 -2.25,1.914 -0.241,0.08 1.447,-0.664 1.608,-1.914 -1.475,-0.266 -2.572,-0.266 -4.18,-0.266 -0.509,0.373 -0.937,0.878 -1.017,1.489 0,0.612 0.401,1.197 0.963,1.463 C -4.205,1.622 -1.232,2.073 0,0"
         style="fill:#ccae42;fill-opacity:1;fill-rule:nonzero;stroke:none"
         id="path72191" />
    </g>
    <g
       id="g72193"
       transform="matrix(1.1121852,0,0,-1.1121852,8.7538355,47.878064)">
      <path
         inkscape:connector-curvature="0"
         d="m 0,0 c 0.483,0.026 0.777,0.558 1.099,0.771 -0.188,-1.197 -0.777,-2.233 0,-3.323 0.938,0.292 1.366,0.957 1.795,1.781 0.187,-0.532 0.376,-1.064 0.831,-1.461 0.347,-0.107 0.588,0.132 0.722,0.371 0.268,0.558 0.268,1.409 0.241,1.861 0.375,-0.346 0.75,-1.197 1.42,-0.771 0.349,0.132 0.242,0.239 0.403,0.504 C 6.992,-1.595 6.778,-3.376 5.921,-4.546 5.813,-4.254 6.188,-3.51 5.6,-3.455 5.01,-3.774 4.93,-4.493 4.447,-4.971 3.242,-5.98 1.983,-6.911 0.456,-7.151 c 0.268,0.372 0.776,0.957 0.375,1.409 -1.312,-0.399 -2.92,-0.824 -4.501,-0.638 -0.749,0.027 -1.606,0.159 -2.356,0.372 2.115,0.93 4.526,2.578 5.142,4.971 0.028,0.532 -0.562,0.319 -0.857,0.452 l -0.429,0 c 0.564,0.639 1.447,1.196 1.715,2.101 C -0.214,1.036 -0.723,0.238 0,0"
         style="fill:#58595a;fill-opacity:1;fill-rule:nonzero;stroke:none"
         id="path72195" />
    </g>
    <g
       id="g72197"
       transform="matrix(1.1121852,0,0,-1.1121852,49.850412,44.848738)">
      <path
         inkscape:connector-curvature="0"
         d="m 0,0 c -3.697,-0.141 -7.929,-0.013 -11.421,0.201 -0.376,0.238 -0.911,0.079 -1.232,0.451 0.795,1.42 1.761,2.876 1.859,4.518 0.092,-0.333 0.155,-0.621 0.155,-1.031 0,-0.649 -0.055,-1 -0.055,-1.65 l 0,-0.419 c 0,-0.703 0.956,-0.757 1.664,-0.757 0.695,0 1.03,0.323 1.717,0.487 C -4.36,2.503 -3.007,1.704 -2.285,1.528 -1.302,1.29 -0.428,0.78 0,0 m -36.275,1.106 c 0.502,1.02 1.227,1.952 2.084,2.736 1.045,0.745 2.41,1.383 3.803,1.011 0.188,-0.16 0.349,-0.4 0.59,-0.505 -0.187,1.355 -0.75,2.818 -0.402,4.146 0.508,1.565 1.739,3.13 3.262,4.052 -0.491,-0.428 -0.805,-0.981 -0.805,-1.725 l 0,-1.068 c 0,-0.595 0.463,-0.824 0.831,-1.284 1.213,-1.489 3.106,-1.907 3.106,-3.828 0,-1.014 -1.499,-0.785 -2.52,-0.785 -1.145,0 -1.799,0.164 -2.944,0.164 -1.526,0 -1.676,-2.219 -3.203,-2.219 -0.831,0 -1.185,0.704 -2.015,0.704 -0.891,0 -1.128,-0.836 -1.787,-1.399"
         style="fill:#fbea98;fill-opacity:1;fill-rule:nonzero;stroke:none"
         id="path72199" />
    </g>
    <g
       id="g72201"
       transform="matrix(1.1121852,0,0,-1.1121852,44.726175,22.385711)">
      <path
         inkscape:connector-curvature="0"
         d="m 0,0 c -1.571,0.044 -2.253,-0.771 -2.179,-0.99 0.573,0.481 1.391,-0.059 1.391,-0.059 0.272,-1.038 0.188,-1.358 0.653,-2.212 l -0.218,-0.064 c -0.367,0.244 -0.585,0.541 -1.036,0.541 -1.715,0 -2.356,-1.677 -4.073,-1.677 -0.191,0 -0.506,0.608 -0.506,0.608 0,1.934 2.476,2.234 2.727,4.152 0.098,0.762 -1.187,0.446 -1.187,0.446 -0.244,0 -0.557,0.027 -0.557,0.272 0,0.5 0.504,0.661 0.926,0.92 0.627,0.39 1.036,0.58 1.69,0.917 0.218,0.11 0.49,0.177 0.49,0.434 0,0.635 -1.09,0.608 -1.09,1.244 0,0.23 0.218,0.379 0.449,0.379 l 1.5,0 c 0.955,0 1.54,-0.218 2.358,-0.704 L 0.793,4.478 C 1.134,4.289 1.338,4.004 1.338,3.612 1.338,2.095 0.495,1.17 0,0"
         style="fill:#fbea98;fill-opacity:1;fill-rule:nonzero;stroke:none"
         id="path72203" />
    </g>
    <g
       id="g72205"
       transform="matrix(1.1121852,0,0,-1.1121852,48.379926,17.721918)">
      <path
         inkscape:connector-curvature="0"
         d="m 0,0 c 0.322,-1.09 0.027,-2.233 -0.589,-3.057 -0.642,-0.453 -1.259,-0.532 -2.063,-0.318 -0.964,0.318 -1.125,1.329 -1.286,2.153 0.137,1.452 0.832,1.833 1.822,2.179 C -1.313,1.063 -0.375,0.851 0,0"
         style="fill:#000000;fill-opacity:1;fill-rule:nonzero;stroke:none"
         id="path72207" />
    </g>
    <g
       id="g72209"
       transform="matrix(1.1121852,0,0,-1.1121852,57.944274,24.048561)">
      <path
         inkscape:connector-curvature="0"
         d="m 0,0 c 0,-0.852 -0.616,-1.675 -1.394,-1.967 -0.182,-0.012 -0.356,-0.01 -0.521,0.007 0.518,0.393 0.879,1.028 0.879,1.68 C -1.583,0.77 -2.925,0.803 -3.911,0.638 -3.332,0.878 -0.804,1.541 0,0"
         style="fill:#b18db8;fill-opacity:1;fill-rule:nonzero;stroke:none"
         id="path72211" />
    </g>
    <g
       id="g72213"
       transform="matrix(1.1121852,0,0,-1.1121852,56.067439,23.91937)">
      <path
         inkscape:connector-curvature="0"
         d="M 0,0 C 0,0.302 0.246,0.546 0.55,0.546 0.854,0.546 1.101,0.302 1.101,0 1.101,-0.302 0.854,-0.545 0.55,-0.545 0.246,-0.545 0,-0.302 0,0"
         style="fill:#ffffff;fill-opacity:1;fill-rule:nonzero;stroke:none"
         id="path72215" />
    </g>
    <g
       id="g72217"
       transform="matrix(1.1121852,0,0,-1.1121852,44.57732,19.216429)">
      <path
         inkscape:connector-curvature="0"
         d="M 0,0 C 0,0.989 0.697,1.791 1.559,1.791 2.419,1.791 3.117,0.989 3.117,0 3.117,-0.988 2.419,-1.789 1.559,-1.789 0.697,-1.789 0,-0.988 0,0"
         style="fill:#ffffff;fill-opacity:1;fill-rule:nonzero;stroke:none"
         id="path72219" />
    </g>
    <g
       id="g72221"
       transform="matrix(1.1121852,0,0,-1.1121852,50.165383,19.456483)">
      <path
         inkscape:connector-curvature="0"
         d="M 0,0 C 0,0.749 0.49,1.357 1.095,1.357 1.699,1.357 2.19,0.749 2.19,0 2.19,-0.75 1.699,-1.357 1.095,-1.357 0.49,-1.357 0,-0.75 0,0"
         style="fill:#ffffff;fill-opacity:1;fill-rule:nonzero;stroke:none"
         id="path72223" />
    </g>
    <g
       id="g72225"
       transform="matrix(1.1121852,0,0,-1.1121852,44.57732,19.216429)">
      <path
         inkscape:connector-curvature="0"
         d="M 0,0 C 0,0.989 0.697,1.791 1.559,1.791 1.706,1.791 1.848,1.768 1.983,1.723 1.402,1.463 0.99,0.813 0.99,0.055 c 0,-0.82 0.48,-1.51 1.133,-1.723 C 1.948,-1.746 1.758,-1.789 1.559,-1.789 0.697,-1.789 0,-0.988 0,0"
         style="fill:#dce8eb;fill-opacity:1;fill-rule:nonzero;stroke:none"
         id="path72227" />
    </g>
    <g
       id="g72229"
       transform="matrix(1.1121852,0,0,-1.1121852,50.165383,19.456483)">
      <path
         inkscape:connector-curvature="0"
         d="M 0,0 C 0,0.749 0.49,1.357 1.095,1.357 1.257,1.357 1.41,1.313 1.548,1.235 1.215,1.003 0.991,0.561 0.991,0.054 0.991,-0.496 1.254,-0.97 1.634,-1.183 1.475,-1.293 1.291,-1.357 1.095,-1.357 0.49,-1.357 0,-0.75 0,0"
         style="fill:#dce8eb;fill-opacity:1;fill-rule:nonzero;stroke:none"
         id="path72231" />
    </g>
    <g
       id="g72233"
       transform="matrix(1.1121852,0,0,-1.1121852,44.334151,18.975306)">
      <path
         inkscape:connector-curvature="0"
         d="M 0,0 C 0,0.54 0.441,0.979 0.986,0.979 1.531,0.979 1.972,0.54 1.972,0 1.972,-0.54 1.531,-0.978 0.986,-0.978 0.441,-0.978 0,-0.54 0,0"
         style="fill:#000000;fill-opacity:1;fill-rule:nonzero;stroke:none"
         id="path72235" />
    </g>
    <g
       id="g72237"
       transform="matrix(1.1121852,0,0,-1.1121852,49.984053,19.39678)">
      <path
         inkscape:connector-curvature="0"
         d="M 0,0 C 0,0.421 0.343,0.763 0.768,0.763 1.192,0.763 1.535,0.421 1.535,0 1.535,-0.421 1.192,-0.762 0.768,-0.762 0.343,-0.762 0,-0.421 0,0"
         style="fill:#000000;fill-opacity:1;fill-rule:nonzero;stroke:none"
         id="path72239" />
    </g>
    <g
       id="g72241"
       transform="matrix(1.1121852,0,0,-1.1121852,45.547323,18.669056)">
      <path
         inkscape:connector-curvature="0"
         d="M 0,0 C 0,0.239 0.195,0.433 0.437,0.433 0.676,0.433 0.872,0.239 0.872,0 0.872,-0.239 0.676,-0.433 0.437,-0.433 0.195,-0.433 0,-0.239 0,0"
         style="fill:#ffffff;fill-opacity:1;fill-rule:nonzero;stroke:none"
         id="path72243" />
    </g>
    <g
       id="g72245"
       transform="matrix(1.1121852,0,0,-1.1121852,50.893108,19.150142)">
      <path
         inkscape:connector-curvature="0"
         d="M 0,0 C 0,0.209 0.171,0.378 0.381,0.378 0.592,0.378 0.764,0.209 0.764,0 0.764,-0.209 0.592,-0.379 0.381,-0.379 0.171,-0.379 0,-0.209 0,0"
         style="fill:#ffffff;fill-opacity:1;fill-rule:nonzero;stroke:none"
         id="path72247" />
    </g>
    <g
       id="g72249"
       transform="matrix(1.1121852,0,0,-1.1121852,44.441544,13.676145)">
      <path
         inkscape:connector-curvature="0"
         d="M 0,0 C -0.054,-0.198 -0.138,-0.392 -0.263,-0.581 1.875,-0.26 5.015,-0.208 6.113,-1.271 6.435,-1.803 6.81,-2.415 6.568,-3.079 5.685,-3.399 4.773,-4.115 4.693,-5.1 4.962,-5.631 4.666,-6.163 5.148,-6.588 4.641,-6.668 4.078,-7.067 3.863,-7.598 3.51,-8.431 4.704,-9.065 4.414,-9.65 c -1.867,1.501 -0.649,4.574 -0.521,6.675 0.096,1.591 -2.321,2.003 -5.036,1.97 0.175,0.254 0.307,0.531 0.378,0.843 L 0,0 z"
         style="fill:#f5d75c;fill-opacity:1;fill-rule:nonzero;stroke:none"
         id="path72251" />
    </g>
    <g
       id="g72253"
       transform="matrix(1.1121852,0,0,-1.1121852,53.028414,22.984244)">
      <path
         inkscape:connector-curvature="0"
         d="m 0,0 c -0.322,-0.452 -0.322,-1.17 -0.08,-1.648 l 0.431,-0.523 c -1.596,-0.016 -2.674,0.248 -3.39,0.7 0.118,0.206 0.127,0.506 -0.041,0.966 -0.403,0.399 -0.617,1.01 -0.322,1.541 C -2.17,2.446 -1.366,-0.16 0,0"
         style="fill:#868688;fill-opacity:1;fill-rule:nonzero;stroke:none"
         id="path72255" />
    </g>
    <g
       id="g72257"
       transform="matrix(1.1121852,0,0,-1.1121852,41.472099,14.561266)">
      <path
         inkscape:connector-curvature="0"
         d="m 0,0 c -0.842,0.74 -1.528,1.742 -1.263,2.9 0.214,0.319 0.532,0.586 0.897,0.708 C -0.131,3.398 0.06,3.135 0.209,2.905 0.718,2.055 0.37,1.098 0.289,0.273 L 0,0 z"
         style="fill:#fbea98;fill-opacity:1;fill-rule:nonzero;stroke:none"
         id="path72259" />
    </g>
    <g
       id="g72261"
       transform="matrix(1.1121852,0,0,-1.1121852,46.52044,28.186692)">
      <path
         inkscape:connector-curvature="0"
         d="m 0,0 c 0.356,-0.249 0.741,-0.458 1.163,-0.612 -0.599,-0.374 -1.252,-0.748 -1.687,-1.334 -0.755,-0.525 -1.223,-1.372 -1.223,-1.372 0,0 0.108,1.136 0.6,2.11 C -0.916,-0.748 -0.438,-0.321 0,0 M 5.303,-2.3 C 5.237,-2.813 5.104,-3.322 5.021,-3.803 L 4.298,-3.351 C 3.574,-4.44 4.163,-5.982 3.199,-7.045 2.984,-6.858 2.904,-6.381 2.557,-6.301 2.179,-7.548 2.131,-8.795 1.602,-9.915 l -0.615,0.032 c 0,0 -0.762,0.434 -0.053,2.12 0.708,1.687 0.872,3.03 0.872,3.03 l 1.09,-0.596 -0.164,2.552 2.571,0.477 z"
         style="fill:#f5d75c;fill-opacity:1;fill-rule:nonzero;stroke:none"
         id="path72263" />
    </g>
    <g
       id="g72265"
       transform="matrix(1.1121852,0,0,-1.1121852,54.816274,33.272937)">
      <path
         inkscape:connector-curvature="0"
         d="M 0,0 C -0.295,0.106 -0.697,0.585 -1.152,0.585 -1.555,-0.93 -1.85,-2.472 -2.652,-3.828 L -2.84,-4.146 c -0.401,0.211 -0.295,0.956 -0.885,0.904 l -1.202,-2.15 -0.542,0.031 c 0.436,0.913 0.599,1.947 0.699,2.996 0.242,-0.107 0.242,-0.745 0.645,-0.559 0.829,1.036 0.723,2.472 1.097,3.695 L -2.385,0.08 c 0.191,0.173 0.349,1.272 0.453,2.234 L 0.262,2.721 C 0.26,1.818 0.11,0.896 0,0"
         style="fill:#9b9c9d;fill-opacity:1;fill-rule:nonzero;stroke:none"
         id="path72267" />
    </g>
    <g
       id="g72269"
       transform="matrix(1.1121852,0,0,-1.1121852,33.42406,31.350547)">
      <path
         inkscape:connector-curvature="0"
         d="m 0,0 c 0,-0.213 0.268,-0.346 0.401,-0.506 0.429,-0.053 0.75,0.346 1.019,0.559 0.043,-0.641 0.024,-1.443 0.145,-2.198 -0.386,0.002 -0.823,0.016 -1.315,0.04 -3.279,0.162 -5.688,0.604 -5.96,0.766 -0.272,0.163 -2.508,0.704 -2.508,0.704 0,0 0.095,-0.063 0.245,-0.176 -0.603,0.256 -1.403,0.493 -2.448,0.624 8.1,-2.622 4.099,-9.755 4.259,-9.888 1.822,1.328 3.831,2.153 6.296,1.967 1.861,-0.714 1.232,-3.244 1.232,-3.244 l -1.178,-0.079 c -0.108,0.452 -0.563,1.489 -0.563,1.489 l -0.081,-1.542 c -0.351,-0.004 -0.703,-0.015 -1.056,-0.034 0.013,0.781 -0.06,1.865 -0.536,2.101 -0.765,0.378 -5.243,-2.065 -5.243,-2.065 0,0 2.217,12.192 -6.728,10.303 1.09,1.278 2.601,2.251 4.188,2.401 C -6.403,1.382 -3.589,-0.373 0,0"
         style="fill:#f5d75c;fill-opacity:1;fill-rule:nonzero;stroke:none"
         id="path72271" />
    </g>
    <g
       id="g72273"
       transform="matrix(1.1121852,0,0,-1.1121852,33.42406,31.350547)">
      <path
         inkscape:connector-curvature="0"
         d="m 0,0 c 0,-0.213 0.268,-0.346 0.401,-0.506 0.429,-0.053 0.75,0.346 1.019,0.559 0.08,-1.197 -0.054,-2.95 0.911,-3.935 0.535,0 0.75,0.665 1.071,0.957 l 0.193,-0.54 C 3.036,-3.724 2.509,-4.093 1.95,-4.594 0.751,-5.676 0.52,-7.353 -1.088,-7.353 c -1.255,0 -1.881,0.853 -2.644,1.839 -0.859,1.096 -1.2,1.826 -1.868,3.03 -0.68,1.231 -1.322,2.38 -2.739,2.38 l -1.607,0 c -1.732,0 -2.849,-0.987 -3.626,-2.542 -0.463,-0.92 -0.613,-2.055 -1.649,-2.055 l -0.319,0 c -0.01,0.358 0.019,0.713 0.109,1.058 0.75,2.314 2.452,4.63 5.6,4.865 C -6.403,1.382 -3.589,-0.373 0,0"
         style="fill:#58595a;fill-opacity:1;fill-rule:nonzero;stroke:none"
         id="path72275" />
    </g>
    <g
       id="g72277"
       transform="matrix(1.1121852,0,0,-1.1121852,33.42406,31.350547)">
      <path
         inkscape:connector-curvature="0"
         d="m 0,0 c 0,-0.213 0.268,-0.346 0.401,-0.506 0.429,-0.053 0.75,0.346 1.019,0.559 0.043,-0.641 0.025,-1.443 0.145,-2.198 -0.386,0.002 -0.823,0.016 -1.315,0.04 -3.279,0.162 -5.688,0.604 -5.96,0.766 -0.09,0.055 -0.394,0.15 -0.762,0.252 -0.464,0.582 -1.029,0.983 -1.867,0.983 l -1.607,0 c -0.984,0 -1.768,-0.318 -2.405,-0.876 -0.507,-0.008 -1.062,-0.072 -1.668,-0.199 1.09,1.278 2.601,2.251 4.188,2.401 C -6.403,1.382 -3.589,-0.373 0,0"
         style="fill:#868688;fill-opacity:1;fill-rule:nonzero;stroke:none"
         id="path72279" />
    </g>
    <g
       id="g72281"
       transform="matrix(1.1121852,0,0,-1.1121852,46.005633,40.088407)">
      <path
         inkscape:connector-curvature="0"
         d="M 0,0 0.26,-0.252 C -0.463,-0.545 -1.267,-0.039 -1.909,0.333 -3.086,1.207 -4.155,2.137 -4.878,3.381 -5.229,3.479 -5.456,3.235 -5.664,2.956 -5.828,2.737 -5.98,2.496 -6.169,2.38 -6.706,3.391 -7.16,4.453 -7.455,5.569 -7.489,5.61 -7.531,5.655 -7.578,5.695 l 0.224,0.251 c 0.161,0.292 0.429,0.053 0.563,-0.106 0.264,-1.005 0.659,-1.966 1.127,-2.884 0.208,0.279 0.435,0.523 0.78,0.435 C -4.7,3.587 -4.499,3.732 -4.22,3.66 -3.496,2.41 -2.425,1.48 -1.246,0.604 -0.87,0.385 -0.439,0.123 0,0"
         style="fill:#868688;fill-opacity:1;fill-rule:nonzero;stroke:none"
         id="path72283" />
    </g>
    <g
       id="g72285"
       transform="matrix(1.1121852,0,0,-1.1121852,36.725738,34.179945)">
      <path
         inkscape:connector-curvature="0"
         d="M 0,0 -0.531,-0.594 C -1.04,0.443 -0.879,1.959 -0.906,3.181 -0.935,3.28 -1.048,3.295 -1.201,3.263 -1.456,3.129 -1.662,3 -1.662,3 l -0.014,0.086 c -0.335,-0.158 -0.65,-0.357 -0.65,-0.357 -0.295,1.702 0.67,3.296 1.232,4.865 -0.401,0.266 -0.884,-0.027 -1.366,-0.079 0.402,1.94 1.42,3.694 2.84,5.103 -0.51,0.664 -1.179,0.08 -1.929,0.266 1.143,1.443 2.657,2.471 4.317,3.084 -1.399,-0.627 -2.664,-1.565 -3.653,-2.814 0.749,-0.184 1.419,0.4 1.929,-0.265 -1.42,-1.41 -2.438,-3.163 -2.841,-5.104 0.483,0.053 0.966,0.346 1.367,0.079 C -0.983,6.322 -1.925,4.755 -1.676,3.086 L -1.662,3 c 0,0 0.206,0.129 0.461,0.263 0.389,0.202 0.894,0.414 0.959,0.189 C -0.219,2.351 -0.347,1.012 0,0"
         style="fill:#868688;fill-opacity:1;fill-rule:nonzero;stroke:none"
         id="path72287" />
    </g>
    <g
       id="g72289"
       transform="matrix(1.1121852,0,0,-1.1121852,39.575778,42.449532)">
      <path
         inkscape:connector-curvature="0"
         d="m 0,0 c 1.157,-0.022 6.208,1.542 9.203,1.632 1.204,-0.292 2.518,-0.531 3.214,-1.808 0.08,-0.398 0.375,-0.718 0.241,-1.196 -0.402,-0.24 -0.885,-0.266 -1.34,-0.319 -0.241,1.275 -1.553,2.074 -2.625,2.551 -0.16,0 1.982,-1.541 1.929,-2.95 L 9.842,-2.132 C 9.38,-0.281 7.654,0.479 6.359,0.616 4.833,0.778 -0.637,-0.15 -0.637,-0.15 L 0,0 z"
         style="fill:#f5d75c;fill-opacity:1;fill-rule:nonzero;stroke:none"
         id="path72291" />
    </g>
    <g
       id="g72293"
       transform="matrix(1.1121852,0,0,-1.1121852,62.323525,41.078875)">
      <path
         inkscape:connector-curvature="0"
         d="m 0,0 0,-1.275 c -0.283,-0.195 -0.672,-0.09 -1.011,-0.131 l 0,0.905 c -1.135,1.91 -3.748,1.677 -5.639,1.316 0.151,0.17 0.337,0.311 0.542,0.409 C -4.205,1.622 -1.232,2.073 0,0"
         style="fill:#f5d75c;fill-opacity:1;fill-rule:nonzero;stroke:none"
         id="path72295" />
    </g>
    <g
       id="g72297"
       transform="matrix(1.1121852,0,0,-1.1121852,13.259075,50.360905)">
      <path
         inkscape:connector-curvature="0"
         d="M 0,0 C 0.178,0.062 0.31,0.217 0.396,0.371 0.664,0.93 0.664,1.78 0.638,2.232 1.013,1.887 1.388,1.035 2.058,1.462 2.406,1.594 2.299,1.7 2.46,1.966 2.941,0.638 2.728,-1.144 1.87,-2.313 c -0.107,0.292 0.268,1.036 -0.321,1.09 -0.59,-0.319 -0.67,-1.038 -1.153,-1.515 -1.205,-1.01 -2.463,-1.941 -3.991,-2.181 0.268,0.372 0.777,0.957 0.375,1.409 -1.312,-0.398 -2.92,-0.824 -4.501,-0.637 -0.677,0.023 -1.443,0.134 -2.137,0.313 1.45,0.254 3.533,0.695 4.905,1.312 2.29,1.027 2.79,1.568 2.79,1.568 l 0.545,-1.947 c 0,0 0.98,0.26 1.526,2.163 C -0.021,-0.488 0.007,-0.242 0,0"
         style="fill:#868688;fill-opacity:1;fill-rule:nonzero;stroke:none"
         id="path72299" />
    </g>
    <g
       id="g72301"
       transform="matrix(1.1121852,0,0,-1.1121852,13.551269,46.901565)">
      <path
         inkscape:connector-curvature="0"
         d="m 0,0 c -0.106,-0.972 0.259,-1.84 -0.3,-2.706 -0.229,1.471 -1.391,2.948 -0.654,5.152 0.927,2.768 3.88,2.768 3.88,2.768 L 3.635,4.727 c 0,0 -0.489,-0.362 -0.813,-0.826 C 2.486,4.095 1.952,4.078 1.607,3.907 1.286,3.641 0.938,3.429 0.83,3.003 0.776,1.674 1.661,0.771 2.063,-0.372 1.982,-0.744 1.875,-1.064 1.554,-1.33 0.83,-1.197 0.616,-0.267 0,0"
         style="fill:#f5d75c;fill-opacity:1;fill-rule:nonzero;stroke:none"
         id="path72303" />
    </g>
    <g
       id="g72305"
       transform="matrix(1.1121852,0,0,-1.1121852,15.802776,41.242855)">
      <path
         inkscape:connector-curvature="0"
         d="m 0,0 c -0.521,-0.64 -0.941,-1.441 -1.859,-1.441 -0.159,0 -0.299,0.025 -0.43,0.067 C -1.599,-0.53 -0.676,-0.161 0,0"
         style="fill:#fff9c9;fill-opacity:1;fill-rule:nonzero;stroke:none"
         id="path72307" />
    </g>
    <g
       id="g72309"
       transform="matrix(1.1121852,0,0,-1.1121852,44.238504,10.981543)">
      <path
         inkscape:connector-curvature="0"
         d="m 0,0 c 0.161,-1.01 0.536,-2.072 -0.08,-3.004 0.12,-0.053 -0.729,-0.761 -1.369,-0.992 0.76,0.736 1.207,1.619 0.726,3.04 -0.267,0.664 -0.696,1.223 -1.339,1.647 -0.643,0.213 -1.178,-0.212 -1.688,-0.504 -0.481,-0.533 -0.429,-1.516 -0.188,-2.181 0.348,-0.797 1.072,-1.435 1.795,-1.913 l -1.848,-0.372 c -0.884,0.77 -1.822,1.755 -1.795,3.004 -0.135,1.861 0.937,3.296 0.83,5.104 C -2.866,3.615 -0.723,1.994 0,0"
         style="fill:#58595a;fill-opacity:1;fill-rule:nonzero;stroke:none"
         id="path72311" />
    </g>
    <g
       id="g72313"
       transform="matrix(1.1121852,0,0,-1.1121852,44.238504,10.981543)">
      <path
         inkscape:connector-curvature="0"
         d="m 0,0 c 0.161,-1.01 0.536,-2.072 -0.08,-3.004 0.085,-0.037 -0.308,-0.395 -0.77,-0.686 0.123,0.151 0.184,0.26 0.139,0.273 0.163,0.357 0.201,0.713 0.169,1.064 0.05,0.404 0,0.862 -0.181,1.397 -0.219,0.542 -0.545,1.014 -1.006,1.399 -0.852,0.973 -2.082,1.691 -3.35,1.988 0.097,0.449 0.152,0.91 0.123,1.398 C -2.866,3.615 -0.723,1.994 0,0"
         style="fill:#868688;fill-opacity:1;fill-rule:nonzero;stroke:none"
         id="path72315" />
    </g>
  </g>
</svg>
