<?xml version="1.0" encoding="UTF-8" standalone="no"?>
<!-- Created with Inkscape (http://www.inkscape.org/) -->

<svg
   xmlns:dc="http://purl.org/dc/elements/1.1/"
   xmlns:cc="http://creativecommons.org/ns#"
   xmlns:rdf="http://www.w3.org/1999/02/22-rdf-syntax-ns#"
   xmlns:svg="http://www.w3.org/2000/svg"
   xmlns="http://www.w3.org/2000/svg"
   xmlns:sodipodi="http://sodipodi.sourceforge.net/DTD/sodipodi-0.dtd"
   xmlns:inkscape="http://www.inkscape.org/namespaces/inkscape"
   width="64px"
   height="64px"
   id="svg18496"
   version="1.1"
   inkscape:version="0.48.5 r10040"
   sodipodi:docname="Nowy dokument 4">
  <defs
     id="defs18498" />
  <sodipodi:namedview
     id="base"
     pagecolor="#ffffff"
     bordercolor="#666666"
     borderopacity="1.0"
     inkscape:pageopacity="0.0"
     inkscape:pageshadow="2"
     inkscape:zoom="5.5"
     inkscape:cx="32"
     inkscape:cy="37.36963"
     inkscape:current-layer="layer1"
     showgrid="true"
     inkscape:document-units="px"
     inkscape:grid-bbox="true"
     inkscape:window-width="1366"
     inkscape:window-height="706"
     inkscape:window-x="-8"
     inkscape:window-y="-8"
     inkscape:window-maximized="1" />
  <metadata
     id="metadata18501">
    <rdf:RDF>
      <cc:Work
         rdf:about="">
        <dc:format>image/svg+xml</dc:format>
        <dc:type
           rdf:resource="http://purl.org/dc/dcmitype/StillImage" />
        <dc:title></dc:title>
      </cc:Work>
    </rdf:RDF>
  </metadata>
  <g
     id="layer1"
     inkscape:label="Layer 1"
     inkscape:groupmode="layer">
    <path
       id="path5651"
       style="fill:#eb571d;fill-opacity:1;fill-rule:nonzero;stroke:none"
       d="M 54.112634,13.898146 C 48.952742,7.863478 41.287532,4.0357559 32.723846,4.0357559 c -15.544055,0 -28.1441077,12.6000871 -28.1441077,28.1449511 0,8.811503 4.0494399,16.673205 10.3914927,21.833086 4.843554,3.945933 11.016824,6.312681 17.752615,6.312681 15.544045,0 28.150661,-12.600086 28.150661,-28.145767 0,-6.981207 -2.551815,-13.363999 -6.761873,-18.282561"
       inkscape:connector-curvature="0" />
    <path
       id="path5653"
       style="fill:#f26a1e;fill-opacity:1;fill-rule:nonzero;stroke:none"
       d="M 45.698149,45.371054 C 54.532503,36.533464 57.42509,24.197529 54.112634,13.898146 48.952742,7.863478 41.287532,4.0357559 32.723846,4.0357559 c -15.544055,0 -28.1441077,12.6000871 -28.1441077,28.1449511 0,8.811503 4.0494399,16.673205 10.3914927,21.833086 10.138758,2.945595 22.105364,-0.01632 30.726918,-8.642739"
       inkscape:connector-curvature="0" />
    <path
       id="path5655"
       style="fill:#353433;fill-opacity:1;fill-rule:nonzero;stroke:none"
       d="m 60.776709,34.39826 c 0.03254,-0.423947 0.05212,-0.848704 0.07088,-1.278354 -1.627245,-1.194381 -4.229638,-2.305601 -7.284449,-3.308389 0.33018,-2.8127 0.29102,-5.34821 0.01298,-7.613045 l 4.966672,-1.240848 c -0.136132,-0.326928 -0.284513,-0.652222 -0.43945,-0.972628 l -4.675599,1.169108 C 52.742893,16.91141 51.219182,13.682101 49.759843,11.431938 48.797818,9.9473196 47.796632,8.7643562 46.91205,7.8561377 45.871752,7.2495718 44.794,6.7008951 43.676261,6.2272179 l -0.09702,0.1646884 c 0.02634,0.017096 2.842011,1.8050184 5.327799,5.6563837 1.389232,2.155587 2.842061,5.253634 3.49426,9.331645 -7.05212,1.00034 -19.438596,-10.111867 -19.555204,-10.220299 -3.583944,-3.352414 -7.41981,-4.8288793 -9.725395,-5.4607182 -0.574757,0.2078983 -1.142999,0.4394335 -1.698229,0.6840194 1.575947,0.2975771 6.380341,1.496031 10.713564,5.5487698 0.503823,0.456549 11.760316,10.566785 19.354643,10.566785 0.361955,0 0.710063,-0.031 1.052489,-0.07907 0.258472,2.108306 0.290246,4.462006 0.0068,7.065995 C 42.681859,26.410197 29.01702,24.429888 28.177279,24.31086 13.751023,22.599595 7.54433,25.209295 5.0520275,27.050999 c -0.1035847,0.529117 -0.1810253,1.063938 -0.2519594,1.602835 1.2718463,-1.36966 6.4773569,-5.291139 23.2419069,-3.303498 0.207069,0.02934 14.484998,2.097704 24.385686,5.179445 l -0.0072,0.04645 c 0,0.04241 -0.173641,3.142887 -1.336225,7.363573 -3.39084,-1.505816 -7.407675,-0.306545 -7.88546,-0.154086 -1.549853,0.304095 -15.576646,5.535721 -17.190873,6.139023 l -0.02582,0.0114 c -6.929055,3.080114 -15.492689,3.13066 -17.1452526,3.108647 0.2193142,0.357093 0.451643,0.709287 0.6905331,1.053337 2.7123855,-0.0089 10.3654035,-0.312249 16.8615185,-3.195069 6.374658,-2.383861 16.157967,-5.965371 17.017234,-6.089291 l 0.09052,-0.02041 c 0.04494,-0.01468 4.106526,-1.320748 7.290185,0.165498 -0.425552,1.409612 -0.948956,2.914612 -1.620735,4.462822 -2.537971,5.850415 -7.581258,13.355846 -17.319727,16.86561 0.290248,0.0089 0.581272,0.02366 0.878028,0.02366 0.67178,0 1.336272,-0.03343 2.001491,-0.07826 8.447086,-3.936153 13.006958,-10.875781 15.403008,-16.395198 0.652252,-1.504999 1.168318,-2.96271 1.594697,-4.334005 0.167958,0.121475 0.342426,0.24377 0.497313,0.387254 0.258473,0.285348 3.442081,4.029097 3.196732,8.917488 0.361952,-0.493242 0.710061,-1.001157 1.039468,-1.518855 -0.367689,-4.682942 -3.332037,-7.967692 -3.473905,-8.123407 l -0.03927,-0.03585 c -0.290188,-0.260883 -0.59433,-0.479379 -0.910615,-0.679936 1.085141,-3.829351 1.362314,-6.770052 1.421004,-7.591037 3.280684,1.079425 5.967031,2.272176 7.322836,3.539114"
       inkscape:connector-curvature="0" />
  </g>
</svg>
