<?xml version="1.0" encoding="UTF-8" standalone="no"?>
<!-- Created with Inkscape (http://www.inkscape.org/) -->

<svg
   xmlns:dc="http://purl.org/dc/elements/1.1/"
   xmlns:cc="http://creativecommons.org/ns#"
   xmlns:rdf="http://www.w3.org/1999/02/22-rdf-syntax-ns#"
   xmlns:svg="http://www.w3.org/2000/svg"
   xmlns="http://www.w3.org/2000/svg"
   xmlns:sodipodi="http://sodipodi.sourceforge.net/DTD/sodipodi-0.dtd"
   xmlns:inkscape="http://www.inkscape.org/namespaces/inkscape"
   width="64px"
   height="64px"
   id="svg21417"
   version="1.1"
   inkscape:version="0.48.5 r10040"
   sodipodi:docname="Nowy dokument 11">
  <defs
     id="defs21419" />
  <sodipodi:namedview
     id="base"
     pagecolor="#ffffff"
     bordercolor="#666666"
     borderopacity="1.0"
     inkscape:pageopacity="0.0"
     inkscape:pageshadow="2"
     inkscape:zoom="5.5"
     inkscape:cx="32"
     inkscape:cy="32"
     inkscape:current-layer="layer1"
     showgrid="true"
     inkscape:document-units="px"
     inkscape:grid-bbox="true"
     inkscape:window-width="1366"
     inkscape:window-height="706"
     inkscape:window-x="-8"
     inkscape:window-y="-8"
     inkscape:window-maximized="1" />
  <metadata
     id="metadata21422">
    <rdf:RDF>
      <cc:Work
         rdf:about="">
        <dc:format>image/svg+xml</dc:format>
        <dc:type
           rdf:resource="http://purl.org/dc/dcmitype/StillImage" />
        <dc:title></dc:title>
      </cc:Work>
    </rdf:RDF>
  </metadata>
  <g
     id="layer1"
     inkscape:label="Layer 1"
     inkscape:groupmode="layer">
    <path
       id="path8220"
       style="fill:#e9dfbb;fill-opacity:1;fill-rule:nonzero;stroke:none"
       d="M 51.34533,15.699655 C 46.58942,10.141433 39.527785,6.611994 31.637151,6.611994 c -14.322931,0 -25.9334578,11.611448 -25.9334578,25.934379 0,8.117896 3.7336931,15.361711 9.5725428,20.115778 4.462402,3.636172 10.155874,5.816764 16.360915,5.816764 14.322936,0 25.932542,-11.609605 25.932542,-25.932542 0,-6.434139 -2.346208,-12.315307 -6.224363,-16.846718"
       inkscape:connector-curvature="0" />
    <path
       id="path8222"
       style="fill:#f7efda;fill-opacity:1;fill-rule:nonzero;stroke:none"
       d="M 43.627675,44.699755 C 51.77133,36.557936 54.434973,25.189393 51.382138,15.699655 46.624386,10.141433 39.564587,6.611994 31.673959,6.611994 c -14.322937,0 -25.9343848,11.611448 -25.9343848,25.934379 0,8.117896 3.7327777,15.361711 9.5734638,20.115778 9.346203,2.714247 20.366962,-0.01563 28.314637,-7.962396"
       inkscape:connector-curvature="0" />
    <path
       id="path8224"
       style="fill:#877751;fill-opacity:1;fill-rule:nonzero;stroke:none"
       d="m 53.28855,18.280488 c -0.230941,-0.349632 -0.470166,-0.690064 -0.716744,-1.025895 -4.30415,1.680072 -12.942809,4.609616 -20.863809,4.609616 -7.618285,0 -16.3876,-2.708726 -21.15271,-4.413636 -0.242899,0.340432 -0.477519,0.685464 -0.7057013,1.036933 4.7733893,1.724238 13.9061373,4.593057 21.8584113,4.593057 8.280748,0 17.28744,-3.108045 21.580553,-4.800075"
       inkscape:connector-curvature="0" />
    <path
       id="path8226"
       style="fill:#353433;fill-opacity:1;fill-rule:nonzero;stroke:none"
       d="m 45.140295,17.990659 c 0,0.579652 -0.468324,1.049818 -1.04706,1.049818 -0.579652,0 -1.04797,-0.470166 -1.04797,-1.049818 0,-0.577809 0.468318,-1.047054 1.04797,-1.047054 0.578736,0 1.04706,0.469245 1.04706,1.047054"
       inkscape:connector-curvature="0" />
    <path
       id="path8228"
       style="fill:#353433;fill-opacity:1;fill-rule:nonzero;stroke:none"
       d="m 45.140295,22.876303 c 0,0.579651 -0.468324,1.047975 -1.04706,1.047975 -0.579652,0 -1.04797,-0.468324 -1.04797,-1.047975 0,-0.579652 0.468318,-1.047054 1.04797,-1.047054 0.578736,0 1.04706,0.467402 1.04706,1.047054"
       inkscape:connector-curvature="0" />
    <path
       id="path8230"
       style="fill:#de2931;fill-opacity:1;fill-rule:nonzero;stroke:none"
       d="m 44.211005,23.365786 c -0.114085,0 -0.228177,-0.03131 -0.33031,-0.09661 -0.281543,-0.184017 -0.363427,-0.558493 -0.181253,-0.840957 0.19966,-0.307309 0.714902,-1.248557 0.714902,-1.89997 0,-0.671663 -0.543765,-1.796927 -0.734224,-2.138274 -0.163773,-0.293508 -0.05889,-0.663384 0.23462,-0.827157 0.291665,-0.163773 0.663383,-0.0598 0.827156,0.233699 0.09109,0.162857 0.889718,1.623947 0.889718,2.731732 0,1.127101 -0.816114,2.417975 -0.909961,2.561511 -0.11685,0.179416 -0.311909,0.276022 -0.510648,0.276022"
       inkscape:connector-curvature="0" />
    <path
       id="path8232"
       style="fill:#353433;fill-opacity:1;fill-rule:nonzero;stroke:none"
       d="m 19.790162,18.265766 c 0,0.579651 -0.47016,1.049817 -1.047975,1.049817 -0.579652,0 -1.047976,-0.470166 -1.047976,-1.049817 0,-0.577815 0.468324,-1.047054 1.047976,-1.047054 0.577815,0 1.047975,0.469239 1.047975,1.047054"
       inkscape:connector-curvature="0" />
    <path
       id="path8234"
       style="fill:#353433;fill-opacity:1;fill-rule:nonzero;stroke:none"
       d="m 19.790162,23.150488 c 0,0.580573 -0.47016,1.048891 -1.047975,1.048891 -0.579652,0 -1.047976,-0.468318 -1.047976,-1.048891 0,-0.578736 0.468324,-1.047054 1.047976,-1.047054 0.577815,0 1.047975,0.468318 1.047975,1.047054"
       inkscape:connector-curvature="0" />
    <path
       id="path8236"
       style="fill:#de2931;fill-opacity:1;fill-rule:nonzero;stroke:none"
       d="m 18.859957,23.640892 c -0.114085,0 -0.227261,-0.03131 -0.33031,-0.09753 -0.281543,-0.183101 -0.362511,-0.558492 -0.180331,-0.840957 0.199654,-0.307309 0.713059,-1.247635 0.713059,-1.899976 0,-0.671656 -0.541928,-1.796 -0.733303,-2.138268 -0.163773,-0.292586 -0.05795,-0.662462 0.23462,-0.827156 0.292586,-0.162858 0.663383,-0.0598 0.828077,0.234619 0.09016,0.162858 0.887876,1.623027 0.887876,2.730805 0,1.127107 -0.816114,2.418903 -0.908119,2.562432 -0.117771,0.178501 -0.311909,0.276028 -0.511569,0.276028"
       inkscape:connector-curvature="0" />
    <path
       id="path8238"
       style="fill:#353433;fill-opacity:1;fill-rule:nonzero;stroke:none"
       d="m 51.074829,16.449522 c 0,0.579652 -0.470166,1.047975 -1.049818,1.047975 -0.577809,0 -1.047054,-0.468323 -1.047054,-1.047975 0,-0.577815 0.469245,-1.047975 1.047054,-1.047975 0.579652,0 1.049818,0.47016 1.049818,1.047975"
       inkscape:connector-curvature="0" />
    <path
       id="path8240"
       style="fill:#353433;fill-opacity:1;fill-rule:nonzero;stroke:none"
       d="m 51.074829,21.335166 c 0,0.577809 -0.470166,1.047969 -1.049818,1.047969 -0.577809,0 -1.047054,-0.47016 -1.047054,-1.047969 0,-0.579657 0.469245,-1.048897 1.047054,-1.048897 0.579652,0 1.049818,0.46924 1.049818,1.048897"
       inkscape:connector-curvature="0" />
    <path
       id="path8242"
       style="fill:#de2931;fill-opacity:1;fill-rule:nonzero;stroke:none"
       d="m 50.145545,21.824649 c -0.114091,0 -0.229103,-0.03131 -0.330309,-0.09661 -0.282465,-0.184017 -0.363433,-0.559408 -0.181259,-0.840957 0.19966,-0.308224 0.713065,-1.249472 0.713065,-1.902728 0,-0.66982 -0.543771,-1.794163 -0.732387,-2.136431 -0.164695,-0.293508 -0.0598,-0.662463 0.232782,-0.828078 0.292587,-0.162852 0.66522,-0.05889 0.828994,0.234619 0.09109,0.163779 0.887881,1.623948 0.887881,2.72989 0,1.128938 -0.816114,2.420739 -0.908119,2.564269 -0.116855,0.179416 -0.31283,0.276028 -0.510648,0.276028"
       inkscape:connector-curvature="0" />
    <path
       id="path8244"
       style="fill:#353433;fill-opacity:1;fill-rule:nonzero;stroke:none"
       d="m 13.876786,16.623417 c 0,0.57873 -0.47016,1.047975 -1.04889,1.047975 -0.578736,0 -1.047975,-0.469245 -1.047975,-1.047975 0,-0.57873 0.469239,-1.047975 1.047975,-1.047975 0.57873,0 1.04889,0.469245 1.04889,1.047975"
       inkscape:connector-curvature="0" />
    <path
       id="path8246"
       style="fill:#353433;fill-opacity:1;fill-rule:nonzero;stroke:none"
       d="m 13.876786,21.50814 c 0,0.256699 -0.092,0.489482 -0.244741,0.671656 -0.192296,0.230026 -0.482124,0.376319 -0.804149,0.376319 -0.578736,0 -1.047975,-0.470166 -1.047975,-1.047975 0,-0.578737 0.469239,-1.047055 1.047975,-1.047055 0.57873,0 1.04889,0.468318 1.04889,1.047055"
       inkscape:connector-curvature="0" />
    <path
       id="path8248"
       style="fill:#de2931;fill-opacity:1;fill-rule:nonzero;stroke:none"
       d="m 12.947503,21.997622 c -0.114086,0 -0.229098,-0.03125 -0.33031,-0.0966 -0.282465,-0.183102 -0.363433,-0.559414 -0.181253,-0.840958 0.197817,-0.307308 0.713065,-1.248556 0.713065,-1.901812 0,-0.670741 -0.54377,-1.794163 -0.732387,-2.136432 -0.165616,-0.293507 -0.0598,-0.663383 0.232783,-0.828998 0.293502,-0.161016 0.66522,-0.05796 0.828993,0.23554 0.09109,0.163779 0.887881,1.623948 0.887881,2.72989 0,1.128944 -0.815198,2.419818 -0.908125,2.563353 -0.116849,0.179417 -0.31283,0.276022 -0.510647,0.276022"
       inkscape:connector-curvature="0" />
    <path
       id="path8250"
       style="fill:#353433;fill-opacity:1;fill-rule:nonzero;stroke:none"
       d="m 32.017148,19.766421 c 0,0.579652 -0.469245,1.048897 -1.047054,1.048897 -0.579652,0 -1.049818,-0.469245 -1.049818,-1.048897 0,-0.577814 0.470166,-1.047975 1.049818,-1.047975 0.577809,0 1.047054,0.470161 1.047054,1.047975"
       inkscape:connector-curvature="0" />
    <path
       id="path8252"
       style="fill:#353433;fill-opacity:1;fill-rule:nonzero;stroke:none"
       d="m 32.017148,24.652065 c 0,0.57873 -0.469245,1.048891 -1.047054,1.048891 -0.579652,0 -1.049818,-0.470161 -1.049818,-1.048891 0,-0.577815 0.470166,-1.047975 1.049818,-1.047975 0.577809,0 1.047054,0.47016 1.047054,1.047975"
       inkscape:connector-curvature="0" />
    <path
       id="path8254"
       style="fill:#de2931;fill-opacity:1;fill-rule:nonzero;stroke:none"
       d="m 31.087864,25.142469 c -0.11317,0 -0.228182,-0.03131 -0.33031,-0.09753 -0.281549,-0.182174 -0.362511,-0.560329 -0.180337,-0.840957 0.198739,-0.308224 0.713065,-1.24855 0.713065,-1.900891 0,-0.670735 -0.542849,-1.796921 -0.733309,-2.138268 -0.163773,-0.293508 -0.0598,-0.663383 0.233705,-0.827157 0.292586,-0.163773 0.664298,-0.05795 0.828071,0.23462 0.09109,0.164694 0.887882,1.624869 0.887882,2.730805 0,1.127101 -0.815193,2.417981 -0.907204,2.562432 -0.116849,0.179416 -0.312824,0.276949 -0.511563,0.276949"
       inkscape:connector-curvature="0" />
    <path
       id="path8256"
       style="fill:#353433;fill-opacity:1;fill-rule:nonzero;stroke:none"
       d="m 39.024501,19.402067 c 0,0.579652 -0.467402,1.047054 -1.047054,1.047054 -0.577814,0 -1.047975,-0.467402 -1.047975,-1.047054 0,-0.577809 0.470161,-1.047975 1.047975,-1.047975 0.579652,0 1.047054,0.470166 1.047054,1.047975"
       inkscape:connector-curvature="0" />
    <path
       id="path8258"
       style="fill:#353433;fill-opacity:1;fill-rule:nonzero;stroke:none"
       d="m 39.024501,24.287711 c 0,0.577809 -0.467402,1.047054 -1.047054,1.047054 -0.577814,0 -1.047975,-0.469245 -1.047975,-1.047054 0,-0.579651 0.470161,-1.049818 1.047975,-1.049818 0.579652,0 1.047054,0.470167 1.047054,1.049818"
       inkscape:connector-curvature="0" />
    <path
       id="path8260"
       style="fill:#de2931;fill-opacity:1;fill-rule:nonzero;stroke:none"
       d="m 38.097054,24.777194 c -0.114091,0 -0.229098,-0.03125 -0.330309,-0.09661 -0.283386,-0.184016 -0.362512,-0.560329 -0.180338,-0.841872 0.196902,-0.307309 0.71215,-1.248551 0.71215,-1.901813 0,-0.670741 -0.54285,-1.795084 -0.733309,-2.136431 -0.164694,-0.293508 -0.0598,-0.664299 0.23462,-0.828078 0.29075,-0.162852 0.664298,-0.05888 0.828077,0.234625 0.09017,0.163774 0.887882,1.623942 0.887882,2.729884 0,1.128944 -0.815199,2.419818 -0.909046,2.564275 -0.11685,0.17941 -0.312825,0.276022 -0.509727,0.276022"
       inkscape:connector-curvature="0" />
    <path
       id="path8262"
       style="fill:#353433;fill-opacity:1;fill-rule:nonzero;stroke:none"
       d="m 25.18001,19.402067 c 0,0.579652 -0.467402,1.047054 -1.047054,1.047054 -0.579651,0 -1.047975,-0.467402 -1.047975,-1.047054 0,-0.577809 0.468324,-1.047975 1.047975,-1.047975 0.579652,0 1.047054,0.470166 1.047054,1.047975"
       inkscape:connector-curvature="0" />
    <path
       id="path8264"
       style="fill:#353433;fill-opacity:1;fill-rule:nonzero;stroke:none"
       d="m 25.18001,24.287711 c 0,0.577809 -0.467402,1.047054 -1.047054,1.047054 -0.579651,0 -1.047975,-0.469245 -1.047975,-1.047054 0,-0.579651 0.468324,-1.049818 1.047975,-1.049818 0.579652,0 1.047054,0.470167 1.047054,1.049818"
       inkscape:connector-curvature="0" />
    <path
       id="path8266"
       style="fill:#de2931;fill-opacity:1;fill-rule:nonzero;stroke:none"
       d="m 24.250727,24.777194 c -0.112249,0 -0.228183,-0.03125 -0.329389,-0.09661 -0.28247,-0.184016 -0.361596,-0.560329 -0.181259,-0.841872 0.198739,-0.307309 0.713987,-1.248551 0.713987,-1.901813 0,-0.670741 -0.543771,-1.795084 -0.73423,-2.136431 -0.162852,-0.293508 -0.05795,-0.664299 0.235541,-0.828078 0.292586,-0.162852 0.662462,-0.05888 0.827156,0.234625 0.09201,0.163774 0.888803,1.623942 0.888803,2.729884 0,1.128944 -0.817035,2.419818 -0.909046,2.564275 -0.115928,0.17941 -0.311903,0.276022 -0.511563,0.276022"
       inkscape:connector-curvature="0" />
    <path
       id="path8268"
       style="fill:#877751;fill-opacity:1;fill-rule:nonzero;stroke:none"
       d="m 30.669222,41.771126 c -7.919151,0 -16.502607,2.84306 -20.9916946,4.572814 0.2226612,0.351475 0.4554446,0.696507 0.6928276,1.036017 4.464238,-1.703995 12.712784,-4.391561 20.298867,-4.391561 8.099495,0 17.495386,3.059279 22.000111,4.721871 0.244741,-0.338595 0.480282,-0.684542 0.710301,-1.035096 -4.467002,-1.662592 -14.257606,-4.904045 -22.710412,-4.904045"
       inkscape:connector-curvature="0" />
    <path
       id="path8270"
       style="fill:#353433;fill-opacity:1;fill-rule:nonzero;stroke:none"
       d="m 17.693296,46.67885 c 0,-0.579651 0.469239,-1.04889 1.048891,-1.04889 0.577815,0 1.047975,0.469239 1.047975,1.04889 0,0.578736 -0.47016,1.048897 -1.047975,1.048897 -0.579652,0 -1.048891,-0.470161 -1.048891,-1.048897"
       inkscape:connector-curvature="0" />
    <path
       id="path8272"
       style="fill:#353433;fill-opacity:1;fill-rule:nonzero;stroke:none"
       d="m 17.693296,41.792291 c 0,-0.577815 0.469239,-1.047054 1.048891,-1.047054 0.577815,0 1.047975,0.469239 1.047975,1.047054 0,0.579651 -0.47016,1.049812 -1.047975,1.049812 -0.579652,0 -1.048891,-0.470161 -1.048891,-1.049812"
       inkscape:connector-curvature="0" />
    <path
       id="path8274"
       style="fill:#de2931;fill-opacity:1;fill-rule:nonzero;stroke:none"
       d="m 18.62258,41.303724 c 0.114085,0 0.228177,0.03038 0.33031,0.09753 0.283385,0.182175 0.362511,0.558487 0.180331,0.841873 -0.197817,0.306387 -0.713059,1.247635 -0.713059,1.899976 0,0.670735 0.543765,1.796 0.733303,2.136431 0.164694,0.293508 0.05889,0.66522 -0.233699,0.828072 -0.293507,0.163779 -0.66522,0.05981 -0.828077,-0.234619 -0.09109,-0.161937 -0.888797,-1.622106 -0.888797,-2.729884 0,-1.128944 0.816114,-2.417981 0.909962,-2.562432 0.115006,-0.179417 0.310987,-0.276949 0.509726,-0.276949"
       inkscape:connector-curvature="0" />
    <path
       id="path8276"
       style="fill:#353433;fill-opacity:1;fill-rule:nonzero;stroke:none"
       d="m 43.284485,46.76994 c 0,-0.579651 0.469239,-1.047975 1.047975,-1.047975 0.578731,0 1.047055,0.468324 1.047055,1.047975 0,0.57873 -0.468324,1.048897 -1.047055,1.048897 -0.578736,0 -1.047975,-0.470167 -1.047975,-1.048897"
       inkscape:connector-curvature="0" />
    <path
       id="path8278"
       style="fill:#353433;fill-opacity:1;fill-rule:nonzero;stroke:none"
       d="m 43.284485,41.883381 c 0,-0.577815 0.469239,-1.04706 1.047975,-1.04706 0.578731,0 1.047055,0.469245 1.047055,1.04706 0,0.579651 -0.468324,1.049812 -1.047055,1.049812 -0.578736,0 -1.047975,-0.470161 -1.047975,-1.049812"
       inkscape:connector-curvature="0" />
    <path
       id="path8280"
       style="fill:#de2931;fill-opacity:1;fill-rule:nonzero;stroke:none"
       d="m 44.213769,41.394814 c 0.114091,0 0.227261,0.03038 0.33031,0.09753 0.281543,0.18218 0.363433,0.558492 0.181253,0.841878 -0.200576,0.306387 -0.713981,1.247635 -0.713981,1.89997 0,0.670741 0.541928,1.796927 0.733303,2.137353 0.163779,0.292586 0.05795,0.664304 -0.23462,0.827156 -0.292586,0.164694 -0.663377,0.0598 -0.827156,-0.234619 -0.09108,-0.161937 -0.888797,-1.622106 -0.888797,-2.72989 0,-1.128938 0.815193,-2.417975 0.908119,-2.562432 0.117771,-0.179416 0.311909,-0.276943 0.511569,-0.276943"
       inkscape:connector-curvature="0" />
    <path
       id="path8282"
       style="fill:#353433;fill-opacity:1;fill-rule:nonzero;stroke:none"
       d="m 11.941857,48.402167 c 0,-0.577815 0.468318,-1.047975 1.047969,-1.047975 0.579658,0 1.04706,0.47016 1.04706,1.047975 0,0.579652 -0.467402,1.048897 -1.04706,1.048897 -0.579651,0 -1.047969,-0.469245 -1.047969,-1.048897"
       inkscape:connector-curvature="0" />
    <path
       id="path8284"
       style="fill:#353433;fill-opacity:1;fill-rule:nonzero;stroke:none"
       d="m 11.941857,43.518366 c 0,-0.579652 0.468318,-1.048897 1.047969,-1.048897 0.579658,0 1.04706,0.469245 1.04706,1.048897 0,0.577815 -0.467402,1.047054 -1.04706,1.047054 -0.579651,0 -1.047969,-0.469239 -1.047969,-1.047054"
       inkscape:connector-curvature="0" />
    <path
       id="path8286"
       style="fill:#de2931;fill-opacity:1;fill-rule:nonzero;stroke:none"
       d="m 12.872056,43.027041 c 0.11317,0 0.227262,0.03312 0.33031,0.09845 0.280628,0.18218 0.361596,0.559414 0.180337,0.840957 -0.199659,0.30823 -0.714901,1.248551 -0.714901,1.89997 0,0.670741 0.543764,1.796927 0.735145,2.137353 0.163773,0.294429 0.05796,0.664304 -0.23462,0.828999 -0.292586,0.162851 -0.663383,0.05888 -0.828998,-0.235541 -0.09108,-0.161937 -0.888797,-1.623027 -0.888797,-2.730811 0,-1.127101 0.81795,-2.417975 0.909961,-2.561511 0.117771,-0.179416 0.311909,-0.277864 0.511563,-0.277864"
       inkscape:connector-curvature="0" />
    <path
       id="path8288"
       style="fill:#353433;fill-opacity:1;fill-rule:nonzero;stroke:none"
       d="m 49.329432,48.514416 c 0,-0.579651 0.468318,-1.047054 1.047975,-1.047054 0.57873,0 1.047054,0.467403 1.047054,1.047054 0,0.577815 -0.468324,1.047975 -1.047054,1.047975 -0.579657,0 -1.047975,-0.47016 -1.047975,-1.047975"
       inkscape:connector-curvature="0" />
    <path
       id="path8290"
       style="fill:#353433;fill-opacity:1;fill-rule:nonzero;stroke:none"
       d="m 49.329432,43.628778 c 0,-0.255784 0.09293,-0.489488 0.24382,-0.671663 0.193217,-0.228182 0.482125,-0.376312 0.804155,-0.376312 0.57873,0 1.047054,0.47016 1.047054,1.047975 0,0.579652 -0.468324,1.047975 -1.047054,1.047975 -0.579657,0 -1.047975,-0.468323 -1.047975,-1.047975"
       inkscape:connector-curvature="0" />
    <path
       id="path8292"
       style="fill:#de2931;fill-opacity:1;fill-rule:nonzero;stroke:none"
       d="m 50.258716,43.13929 c 0.114091,0 0.228176,0.03131 0.331231,0.09753 0.280622,0.183096 0.360669,0.558487 0.180331,0.840952 -0.199654,0.307308 -0.714901,1.248556 -0.714901,1.901812 0,0.66982 0.54377,1.794163 0.734224,2.136437 0.163779,0.293502 0.05889,0.663378 -0.23462,0.828072 -0.291665,0.162858 -0.662462,0.05889 -0.828078,-0.234619 -0.09108,-0.163773 -0.888796,-1.623948 -0.888796,-2.72989 0,-1.128938 0.817035,-2.420739 0.909961,-2.564269 0.115928,-0.178495 0.311909,-0.276027 0.510648,-0.276027"
       inkscape:connector-curvature="0" />
    <path
       id="path8294"
       style="fill:#353433;fill-opacity:1;fill-rule:nonzero;stroke:none"
       d="m 30.36192,45.085268 c 0,-0.57873 0.468318,-1.047975 1.047054,-1.047975 0.579651,0 1.047975,0.469245 1.047975,1.047975 0,0.577815 -0.468324,1.047975 -1.047975,1.047975 -0.578736,0 -1.047054,-0.47016 -1.047054,-1.047975"
       inkscape:connector-curvature="0" />
    <path
       id="path8296"
       style="fill:#353433;fill-opacity:1;fill-rule:nonzero;stroke:none"
       d="m 30.36192,40.200545 c 0,-0.57873 0.468318,-1.04889 1.047054,-1.04889 0.579651,0 1.047975,0.47016 1.047975,1.04889 0,0.578736 -0.468324,1.047054 -1.047975,1.047054 -0.578736,0 -1.047054,-0.468318 -1.047054,-1.047054"
       inkscape:connector-curvature="0" />
    <path
       id="path8298"
       style="fill:#de2931;fill-opacity:1;fill-rule:nonzero;stroke:none"
       d="m 31.291203,39.710141 c 0.112249,0 0.228177,0.03131 0.33031,0.09753 0.281544,0.18218 0.361591,0.558493 0.180332,0.840957 -0.198733,0.307309 -0.713981,1.248557 -0.713981,1.900891 0,0.670742 0.543771,1.795085 0.735146,2.137353 0.162851,0.292587 0.05795,0.664305 -0.235541,0.828078 -0.291665,0.161936 -0.663384,0.05888 -0.828078,-0.23462 -0.09017,-0.163779 -0.888796,-1.623947 -0.888796,-2.730811 0,-1.128022 0.817034,-2.419817 0.909961,-2.56151 0.116849,-0.180338 0.311909,-0.277865 0.510647,-0.277865"
       inkscape:connector-curvature="0" />
    <path
       id="path8300"
       style="fill:#353433;fill-opacity:1;fill-rule:nonzero;stroke:none"
       d="m 23.990342,45.176358 c 0,-0.577815 0.470161,-1.047975 1.048897,-1.047975 0.577809,0 1.047975,0.47016 1.047975,1.047975 0,0.579651 -0.470166,1.04889 -1.047975,1.04889 -0.578736,0 -1.048897,-0.469239 -1.048897,-1.04889"
       inkscape:connector-curvature="0" />
    <path
       id="path8302"
       style="fill:#353433;fill-opacity:1;fill-rule:nonzero;stroke:none"
       d="m 23.990342,40.292556 c 0,-0.578736 0.470161,-1.048896 1.048897,-1.048896 0.577809,0 1.047975,0.47016 1.047975,1.048896 0,0.577809 -0.470166,1.047976 -1.047975,1.047976 -0.578736,0 -1.048897,-0.470167 -1.048897,-1.047976"
       inkscape:connector-curvature="0" />
    <path
       id="path8304"
       style="fill:#de2931;fill-opacity:1;fill-rule:nonzero;stroke:none"
       d="m 24.920547,39.801231 c 0.11317,0 0.22634,0.03312 0.329389,0.09845 0.282464,0.182175 0.363433,0.559408 0.181259,0.840958 -0.198739,0.308224 -0.714908,1.24855 -0.714908,1.899969 0,0.670742 0.54377,1.796922 0.73423,2.137353 0.163773,0.294429 0.05795,0.664299 -0.234626,0.828993 -0.291665,0.162858 -0.663377,0.05981 -0.82715,-0.233698 -0.09109,-0.163773 -0.888803,-1.623948 -0.888803,-2.732648 0,-1.126179 0.817035,-2.417975 0.90904,-2.56151 0.116855,-0.179417 0.310988,-0.277865 0.511569,-0.277865"
       inkscape:connector-curvature="0" />
    <path
       id="path8306"
       style="fill:#353433;fill-opacity:1;fill-rule:nonzero;stroke:none"
       d="m 36.887149,45.246283 c 0,-0.578736 0.467402,-1.047975 1.047054,-1.047975 0.579651,0 1.047975,0.469239 1.047975,1.047975 0,0.577809 -0.468324,1.047975 -1.047975,1.047975 -0.579652,0 -1.047054,-0.470166 -1.047054,-1.047975"
       inkscape:connector-curvature="0" />
    <path
       id="path8308"
       style="fill:#353433;fill-opacity:1;fill-rule:nonzero;stroke:none"
       d="m 36.887149,40.36156 c 0,-0.57873 0.467402,-1.048896 1.047054,-1.048896 0.579651,0 1.047975,0.470166 1.047975,1.048896 0,0.577815 -0.468324,1.047976 -1.047975,1.047976 -0.579652,0 -1.047054,-0.470161 -1.047054,-1.047976"
       inkscape:connector-curvature="0" />
    <path
       id="path8310"
       style="fill:#de2931;fill-opacity:1;fill-rule:nonzero;stroke:none"
       d="m 37.816432,39.871157 c 0.112249,0 0.228177,0.03131 0.33031,0.09661 0.281543,0.183095 0.361591,0.559408 0.180338,0.841873 -0.198739,0.307308 -0.713987,1.248556 -0.713987,1.900891 0,0.670741 0.543771,1.796006 0.734224,2.137353 0.163779,0.292586 0.05889,0.664298 -0.235541,0.828077 -0.292586,0.161931 -0.662456,0.05888 -0.827156,-0.234619 -0.09108,-0.163779 -0.888797,-1.623948 -0.888797,-2.730811 0,-1.128938 0.817035,-2.418897 0.909041,-2.563348 0.115933,-0.179416 0.312829,-0.276027 0.511568,-0.276027"
       inkscape:connector-curvature="0" />
  </g>
</svg>
