<?xml version="1.0" encoding="UTF-8" standalone="no"?>
<!-- Created with Inkscape (http://www.inkscape.org/) -->

<svg
   xmlns:dc="http://purl.org/dc/elements/1.1/"
   xmlns:cc="http://creativecommons.org/ns#"
   xmlns:rdf="http://www.w3.org/1999/02/22-rdf-syntax-ns#"
   xmlns:svg="http://www.w3.org/2000/svg"
   xmlns="http://www.w3.org/2000/svg"
   xmlns:sodipodi="http://sodipodi.sourceforge.net/DTD/sodipodi-0.dtd"
   xmlns:inkscape="http://www.inkscape.org/namespaces/inkscape"
   width="64px"
   height="64px"
   id="svg168162"
   version="1.1"
   inkscape:version="0.48.5 r10040"
   sodipodi:docname="pomaranca.svg">
  <defs
     id="defs168164" />
  <sodipodi:namedview
     id="base"
     pagecolor="#ffffff"
     bordercolor="#666666"
     borderopacity="1.0"
     inkscape:pageopacity="0.0"
     inkscape:pageshadow="2"
     inkscape:zoom="5.5"
     inkscape:cx="32"
     inkscape:cy="32"
     inkscape:current-layer="layer1"
     showgrid="true"
     inkscape:document-units="px"
     inkscape:grid-bbox="true"
     inkscape:window-width="1366"
     inkscape:window-height="706"
     inkscape:window-x="-8"
     inkscape:window-y="-8"
     inkscape:window-maximized="1" />
  <metadata
     id="metadata168167">
    <rdf:RDF>
      <cc:Work
         rdf:about="">
        <dc:format>image/svg+xml</dc:format>
        <dc:type
           rdf:resource="http://purl.org/dc/dcmitype/StillImage" />
        <dc:title></dc:title>
      </cc:Work>
    </rdf:RDF>
  </metadata>
  <g
     id="layer1"
     inkscape:label="Layer 1"
     inkscape:groupmode="layer">
    <g
       transform="matrix(0.96699519,0,0,-0.96699519,52.710269,10.459136)"
       id="g7017">
      <path
         id="path7019"
         style="fill:#000000;fill-opacity:1;fill-rule:nonzero;stroke:none"
         d="m 0,0 c 8.152,-5.403 9.361,-18.713 8.64,-22.981 -0.942,-10.671 -7.293,-19.635 -13.927,-23.28 -6.86,-4.171 -15.759,-4.926 -23.571,-3.316 -5.912,1.247 -11.198,4.596 -15.827,9.291 -9.651,13.325 -6.466,25.117 -4.793,29.943 1.707,5.122 8.565,16.791 26.134,17.565 C -11.833,7.982 -2.863,2.381 0,0"
         inkscape:connector-curvature="0" />
    </g>
    <g
       transform="matrix(0.96699519,0,0,-0.96699519,55.534746,14.36483)"
       id="g7021">
      <path
         id="path7023"
         style="fill:#e3a716;fill-opacity:1;fill-rule:nonzero;stroke:none"
         d="m 0,0 c 7.551,-9.76 4.88,-24.174 1.564,-30.445 -3.874,-8.043 -12.857,-14.076 -21.426,-14.765 -5.943,-0.657 -11.886,-0.164 -16.942,2.266 -10.573,4.715 -13.855,12.608 -15.3,17.663 -1.773,4.596 -1.248,9.423 -0.788,14.578 1.413,8.799 9.456,17.5 18.124,19.6 5.647,1.773 12.148,1.905 18.123,0.723 0,0 10.949,-2.451 16.645,-9.62"
         inkscape:connector-curvature="0" />
    </g>
    <g
       transform="matrix(0.96699519,0,0,-0.96699519,40.84663,7.2635105)"
       id="g7025">
      <path
         id="path7027"
         style="fill:#ebbe57;fill-opacity:1;fill-rule:evenodd;stroke:none"
         d="m 0,0 c -2.621,-0.088 -9.32,0.124 -11.415,-5.078 -2.097,-5.202 2.319,-8.57 2.319,-8.57 0,0 1.535,2.931 3.194,3.368 1.66,0.436 3.805,-0.909 4.505,-1.834 0.698,-0.923 2.232,-1.709 3.979,-1.797 1.746,-0.087 4.329,0.175 4.329,0.175 0,0 -4.068,-4.539 -3.456,-6.161 0.61,-1.623 8.01,-0.925 9.755,-0.663 1.747,0.262 4.772,3.934 2.62,8.882 C 13.908,-7.261 11.589,-2.321 0,0"
         inkscape:connector-curvature="0" />
    </g>
    <g
       transform="matrix(0.96699519,0,0,-0.96699519,42.331084,11.355255)"
       id="g7029">
      <path
         id="path7031"
         style="fill:#fbea98;fill-opacity:1;fill-rule:nonzero;stroke:none"
         d="M 0,0 C 1.17,1.945 4.602,2.029 7.667,0.188 10.732,-1.653 12.269,-4.725 11.1,-6.669 9.931,-8.616 6.498,-8.7 3.434,-6.858 0.367,-5.018 -1.17,-1.946 0,0"
         inkscape:connector-curvature="0" />
    </g>
    <g
       transform="matrix(0.96699519,0,0,-0.96699519,45.116881,21.136698)"
       id="g7033">
      <path
         id="path7035"
         style="fill:#db923a;fill-opacity:1;fill-rule:evenodd;stroke:none"
         d="m 0,0 c 0,0 -3.021,-0.873 -4.941,0.087 -1.921,0.96 -2.409,3.018 -4.242,3.194 -1.835,0.175 -2.583,-1.622 -2.67,-2.671 -0.086,-1.048 -0.786,-2.407 -2.182,-3.193 -1.398,-0.785 -4.678,-2.184 -4.678,-2.184 0,0 3.543,0.314 5.113,-0.435 1.573,-0.749 3.72,-4.417 3.72,-4.417 l -0.089,-3.717 c 0,0 1.26,2.444 2.009,2.532 0.75,0.087 1.186,0.836 1.972,1.273 0.786,0.437 1.796,0.174 2.93,0 1.137,-0.175 2.97,-0.401 2.97,-0.401 0,0 -3.143,3.419 -2.619,4.468 0.522,1.048 0.786,1.833 0.959,2.357 C -1.573,-2.583 0,0 0,0"
         inkscape:connector-curvature="0" />
    </g>
    <g
       transform="matrix(0.96699519,0,0,-0.96699519,52.573342,50.103139)"
       id="g7037">
      <path
         id="path7039"
         style="fill:#d6811c;fill-opacity:1;fill-rule:nonzero;stroke:none"
         d="m 0,0 c -4.518,-4.627 -10.762,-7.767 -16.8,-8.252 -5.942,-0.657 -11.886,-0.164 -16.941,2.266 -10.573,4.715 -13.856,12.608 -15.3,17.663 -1.773,4.596 -1.248,9.423 -0.788,14.578 1.412,8.799 9.456,17.5 18.124,19.6 4.189,1.316 8.85,1.728 13.418,1.37 -11.677,-3.33 -20.076,-12.594 -20.076,-23.502 0,-13.707 13.264,-24.82 29.628,-24.82 3.041,0 5.973,0.384 8.735,1.097"
         inkscape:connector-curvature="0" />
    </g>
    <g
       transform="matrix(0.96699519,0,0,-0.96699519,35.725579,7.2842975)"
       id="g7041">
      <path
         id="path7043"
         style="fill:#f5d75c;fill-opacity:1;fill-rule:nonzero;stroke:none"
         d="m 0,0 0,-0.525 c -0.526,-0.099 -1.281,-0.067 -1.84,0.393 -0.098,0.196 -0.098,0.526 0.099,0.69 C -1.216,0.491 -0.493,0.427 0,0"
         inkscape:connector-curvature="0" />
    </g>
    <g
       transform="matrix(0.96699519,0,0,-0.96699519,35.343964,7.2842975)"
       id="g7045">
      <path
         id="path7047"
         style="fill:#ecc051;fill-opacity:1;fill-rule:nonzero;stroke:none"
         d="m 0,0 c 0,-0.066 -0.033,-0.197 0.065,-0.23 -0.361,-0.165 -0.788,0 -1.116,0.164 C -1.38,0.755 -0.328,0.032 0,0"
         inkscape:connector-curvature="0" />
    </g>
    <g
       transform="matrix(0.96699519,0,0,-0.96699519,45.375649,11.760426)"
       id="g7049">
      <path
         id="path7051"
         style="fill:#ecc051;fill-opacity:1;fill-rule:nonzero;stroke:none"
         d="M 0,0 C -0.032,-0.329 -0.394,-0.526 -0.688,-0.559 -1.28,-0.592 -1.806,-0.297 -2.101,0.162 -2.166,0.491 -2.003,0.786 -1.806,0.95 -1.017,1.05 -0.394,0.459 0,0"
         inkscape:connector-curvature="0" />
    </g>
    <g
       transform="matrix(0.96699519,0,0,-0.96699519,45.090424,11.760426)"
       id="g7053">
      <path
         id="path7055"
         style="fill:#fbea98;fill-opacity:1;fill-rule:nonzero;stroke:none"
         d="M 0,0 C -0.197,-0.198 -0.623,-0.329 -0.887,-0.231 -1.116,-0.1 -1.478,0.064 -1.511,0.394 -0.934,1.107 0,0 0,0"
         inkscape:connector-curvature="0" />
    </g>
    <g
       transform="matrix(0.96699519,0,0,-0.96699519,21.152652,13.28547)"
       id="g7057">
      <path
         id="path7059"
         style="fill:#f5d75c;fill-opacity:1;fill-rule:nonzero;stroke:none"
         d="m 0,0 c 0.032,-0.525 0.032,-1.019 -0.395,-1.347 -0.361,-0.097 -0.624,-0.46 -1.084,-0.328 -0.491,0.296 -0.688,0.92 -0.393,1.446 0.23,0.261 0.592,0.624 1.018,0.689 C -0.46,0.559 -0.033,0.395 0,0"
         inkscape:connector-curvature="0" />
    </g>
    <g
       transform="matrix(0.96699519,0,0,-0.96699519,20.771037,14.143001)"
       id="g7061">
      <path
         id="path7063"
         style="fill:#db923a;fill-opacity:1;fill-rule:nonzero;stroke:none"
         d="M 0,0 C -0.263,-0.296 -0.558,-0.558 -1.019,-0.46 -1.183,-0.196 -1.346,0.164 -1.183,0.492 -0.755,1.379 0.492,1.052 0,0"
         inkscape:connector-curvature="0" />
    </g>
    <g
       transform="matrix(0.96699519,0,0,-0.96699519,42.329228,17.698357)"
       id="g7065">
      <path
         id="path7067"
         style="fill:#ecc051;fill-opacity:1;fill-rule:nonzero;stroke:none"
         d="m 0,0 c -0.164,0 -0.362,0.033 -0.461,-0.164 -0.163,-0.427 0.328,-0.559 0.559,-0.723 0.361,-0.164 0.295,0.263 0.46,0.394 0.296,-0.098 0.033,-0.361 0,-0.558 -0.231,-0.328 -0.624,-0.033 -0.854,0.099 -0.428,0.164 -0.592,0.656 -0.394,1.018 C -0.461,0.033 -0.066,0.493 0,0"
         inkscape:connector-curvature="0" />
    </g>
    <g
       transform="matrix(0.96699519,0,0,-0.96699519,9.5637943,20.619162)"
       id="g7069">
      <path
         id="path7071"
         style="fill:#f5d75c;fill-opacity:1;fill-rule:nonzero;stroke:none"
         d="M 0,0 -0.853,-0.689 C -0.394,-0.132 0.066,0.854 0.1,1.674 0.492,1.182 0.296,0.491 0,0"
         inkscape:connector-curvature="0" />
    </g>
    <g
       transform="matrix(0.96699519,0,0,-0.96699519,28.613755,19.540769)"
       id="g7073">
      <path
         id="path7075"
         style="fill:#f5d75c;fill-opacity:1;fill-rule:nonzero;stroke:none"
         d="m 0,0 c -0.296,-0.459 -0.264,-1.543 -1.183,-1.018 -0.262,0 -0.393,0.296 -0.623,0.46 0,0.493 0.295,1.051 0.787,1.117 C -0.525,0.724 -0.198,0.328 0,0"
         inkscape:connector-curvature="0" />
    </g>
    <g
       transform="matrix(0.96699519,0,0,-0.96699519,28.01035,20.238653)"
       id="g7077">
      <path
         id="path7079"
         style="fill:#ecc051;fill-opacity:1;fill-rule:nonzero;stroke:none"
         d="M 0,0 C -0.329,-0.229 -0.657,0.066 -0.854,0.328 -0.756,0.69 -0.493,0.919 -0.164,1.05 0.524,0.952 0.131,0.361 0,0"
         inkscape:connector-curvature="0" />
    </g>
    <g
       transform="matrix(0.96699519,0,0,-0.96699519,39.916536,22.366236)"
       id="g7081">
      <path
         id="path7083"
         style="fill:#000000;fill-opacity:1;fill-rule:nonzero;stroke:none"
         d="M 0,0 C 0.819,-0.328 2.133,-0.195 2.822,-1.017 3.741,0 4.728,1.149 6.04,1.347 4.825,0.624 2.888,-0.59 2.986,-2.363 2.462,-2.987 1.707,-3.644 1.805,-4.398 2.1,-6.271 4.201,-6.895 5.022,-8.438 c -0.984,0.427 -2.036,2.825 -3.448,1.445 -1.181,0.23 -2.331,0.328 -3.415,-0.491 -0.491,-0.494 -0.721,-1.084 -1.41,-1.348 l -0.624,0.165 -0.559,-2.363 c 0.199,2.462 -1.247,4.661 -3.217,6.237 -1.313,0.689 -2.462,1.543 -4.037,1.412 0,0.131 2.724,-0.263 3.48,1.116 0.755,0.164 1.543,0.229 2.133,0.788 0.657,1.379 0.525,3.053 1.477,4.333 C -3.019,4.465 -1.15,0.69 0,0"
         inkscape:connector-curvature="0" />
    </g>
    <g
       transform="matrix(0.96699519,0,0,-0.96699519,40.360271,23.286908)"
       id="g7085">
      <path
         id="path7087"
         style="fill:#b08c4b;fill-opacity:1;fill-rule:nonzero;stroke:none"
         d="M 0,0 C 0.558,-0.032 1.379,-0.032 1.74,-0.624 2.299,-1.232 0.938,-1.319 0.46,-3.446 0.591,-4.07 1.444,-4.629 1.115,-5.253 c -1.51,0.395 -3.217,0.066 -4.201,-0.951 L -3.71,-6.992 c -0.99,-0.229 -0.821,0.82 -1.019,1.412 -1.016,1.443 -2.495,2.166 -3.938,2.758 -0.066,0.261 -0.265,0.721 0.229,0.852 0.788,0.296 1.773,0.164 2.364,0.886 0.985,1.281 0.591,3.251 1.74,4.4 C -2.102,3.316 -2.199,0.1 0,0"
         inkscape:connector-curvature="0" />
    </g>
    <g
       transform="matrix(0.96699519,0,0,-0.96699519,24.421869,23.190595)"
       id="g7089">
      <path
         id="path7091"
         style="fill:#f5d75c;fill-opacity:1;fill-rule:nonzero;stroke:none"
         d="m 0,0 c 0.066,-0.296 -0.033,-0.56 -0.295,-0.624 -0.197,0.131 -0.427,0.033 -0.624,0.131 -0.262,0.361 0.098,0.69 0.295,0.953 C -0.262,0.591 0.033,0.295 0,0"
         inkscape:connector-curvature="0" />
    </g>
    <g
       transform="matrix(0.96699519,0,0,-0.96699519,24.136722,23.190595)"
       id="g7093">
      <path
         id="path7095"
         style="fill:#ecc051;fill-opacity:1;fill-rule:nonzero;stroke:none"
         d="m 0,0 c -0.033,-0.1 0.066,-0.264 -0.098,-0.329 l -0.231,0 C -0.427,-0.23 -0.164,0.46 0,0"
         inkscape:connector-curvature="0" />
    </g>
    <g
       transform="matrix(0.96699519,0,0,-0.96699519,56.297821,24.491885)"
       id="g7097">
      <path
         id="path7099"
         style="fill:#ecc051;fill-opacity:1;fill-rule:nonzero;stroke:none"
         d="m 0,0 c -0.033,-0.657 -0.198,-1.445 -0.789,-1.741 -0.557,0.132 -1.181,0.329 -1.443,0.887 0,0.59 -0.1,1.673 0.722,2.036 C -0.656,1.279 -0.36,0.59 0,0"
         inkscape:connector-curvature="0" />
    </g>
    <g
       transform="matrix(0.96699519,0,0,-0.96699519,55.979564,24.714773)"
       id="g7101">
      <path
         id="path7103"
         style="fill:#f5d75c;fill-opacity:1;fill-rule:nonzero;stroke:none"
         d="m 0,0 c -0.163,-0.296 0.1,-1.084 -0.558,-1.117 -0.492,0.132 -1.18,0.329 -1.017,1.018 0.098,0.46 0,1.018 0.558,1.182 C -0.524,0.952 -0.064,0.558 0,0"
         inkscape:connector-curvature="0" />
    </g>
    <g
       transform="matrix(0.96699519,0,0,-0.96699519,50.42406,23.952688)"
       id="g7105">
      <path
         id="path7107"
         style="fill:#ecc051;fill-opacity:1;fill-rule:nonzero;stroke:none"
         d="m 0,0 0,-0.23 c -0.395,-0.066 -0.263,-0.591 -0.395,-0.887 0,-0.164 -0.065,-0.362 0.068,-0.459 L -0.395,-1.675 C -0.854,-1.15 -0.591,-0.362 -0.327,0.164 -0.196,0.164 0,0.164 0,0"
         inkscape:connector-curvature="0" />
    </g>
    <g
       transform="matrix(0.96699519,0,0,-0.96699519,11.087934,28.525121)"
       id="g7109">
      <path
         id="path7111"
         style="fill:#f5d75c;fill-opacity:1;fill-rule:nonzero;stroke:none"
         d="m 0,0 c 0.066,-0.492 0.099,-1.215 -0.524,-1.411 -0.297,-0.132 -0.624,0.065 -0.888,0.229 0,0.558 -0.065,1.346 0.559,1.741 C -0.361,0.69 -0.132,0.361 0,0"
         inkscape:connector-curvature="0" />
    </g>
    <g
       transform="matrix(0.96699519,0,0,-0.96699519,10.866066,29.223972)"
       id="g7113">
      <path
         id="path7115"
         style="fill:#db923a;fill-opacity:1;fill-rule:nonzero;stroke:none"
         d="m 0,0 c -0.132,-0.229 -0.328,-0.426 -0.623,-0.393 -0.231,0.295 -0.231,0.886 0,1.182 C 0.064,1.413 -0.164,0.197 0,0"
         inkscape:connector-curvature="0" />
    </g>
    <g
       transform="matrix(0.96699519,0,0,-0.96699519,49.725193,31.1919)"
       id="g7117">
      <path
         id="path7119"
         style="fill:#f5d75c;fill-opacity:1;fill-rule:nonzero;stroke:none"
         d="m 0,0 c -0.36,0.23 -0.623,-0.131 -0.952,-0.229 -0.46,-0.395 -0.098,-0.986 0,-1.445 l 0.264,-0.229 c -0.591,0 -0.624,0.655 -0.789,1.017 -0.197,0.755 0.525,0.853 0.919,1.181 L 0,0.23 0,0 z"
         inkscape:connector-curvature="0" />
    </g>
    <g
       transform="matrix(0.96699519,0,0,-0.96699519,58.107108,32.428981)"
       id="g7121">
      <path
         id="path7123"
         style="fill:#f5d75c;fill-opacity:1;fill-rule:nonzero;stroke:none"
         d="m 0,0 c -0.394,-0.1 -0.688,-0.526 -0.951,-0.854 l -0.067,-1.018 c -0.295,0.361 -0.328,1.018 -0.066,1.411 C -0.919,-0.033 -0.328,0.262 0,0"
         inkscape:connector-curvature="0" />
    </g>
    <g
       transform="matrix(0.96699519,0,0,-0.96699519,18.421548,34.397876)"
       id="g7125">
      <path
         id="path7127"
         style="fill:#f5d75c;fill-opacity:1;fill-rule:nonzero;stroke:none"
         d="m 0,0 c -0.032,-0.361 -0.427,-0.559 -0.165,-0.952 l 0.461,-0.46 c -0.656,-0.033 -0.82,0.591 -0.92,1.017 C -0.656,-0.066 -0.229,0.427 0,0"
         inkscape:connector-curvature="0" />
    </g>
    <g
       transform="matrix(0.96699519,0,0,-0.96699519,53.091807,35.986262)"
       id="g7129">
      <path
         id="path7131"
         style="fill:#f5d75c;fill-opacity:1;fill-rule:nonzero;stroke:none"
         d="m 0,0 c -0.033,-0.656 -0.361,-1.148 -0.789,-1.575 -0.524,0 -0.689,0.328 -0.887,0.689 0.099,0.69 0.69,0.919 1.184,1.182 C -0.329,0.23 -0.133,0.165 0,0"
         inkscape:connector-curvature="0" />
    </g>
    <g
       transform="matrix(0.96699519,0,0,-0.96699519,52.710269,36.080742)"
       id="g7133">
      <path
         id="path7135"
         style="fill:#ecc051;fill-opacity:1;fill-rule:nonzero;stroke:none"
         d="M 0,0 C -0.098,-0.296 -0.065,-1.019 -0.624,-1.083 -0.886,-0.952 -0.886,-0.722 -0.886,-0.46 -0.689,-0.197 -0.329,0 0,0"
         inkscape:connector-curvature="0" />
    </g>
    <g
       transform="matrix(0.96699519,0,0,-0.96699519,24.963,37.127997)"
       id="g7137">
      <path
         id="path7139"
         style="fill:#f5d75c;fill-opacity:1;fill-rule:nonzero;stroke:none"
         d="M 0,0 C -0.264,-0.657 -0.23,-1.412 0.558,-1.675 0.787,-1.642 1.084,-1.741 1.279,-1.577 1.246,-1.675 1.313,-1.708 1.346,-1.741 0.983,-2.299 0.359,-1.708 0,-1.741 -0.493,-1.445 -0.724,-0.69 -0.395,-0.165 -0.297,-0.033 -0.164,0 0,0"
         inkscape:connector-curvature="0" />
    </g>
    <g
       transform="matrix(0.96699519,0,0,-0.96699519,44.392641,43.382329)"
       id="g7141">
      <path
         id="path7143"
         style="fill:#f5d75c;fill-opacity:1;fill-rule:nonzero;stroke:none"
         d="m 0,0 c -0.1,-0.23 -0.1,-0.493 -0.296,-0.624 -0.46,0.196 -1.28,-0.198 -1.675,0.394 0.23,0.328 0.46,0.689 0.887,0.689 C -0.624,0.558 -0.1,0.394 0,0"
         inkscape:connector-curvature="0" />
    </g>
    <g
       transform="matrix(0.96699519,0,0,-0.96699519,12.992682,43.764772)"
       id="g7145">
      <path
         id="path7147"
         style="fill:#f5d75c;fill-opacity:1;fill-rule:nonzero;stroke:none"
         d="m 0,0 -0.131,-1.182 -0.098,0 c 0.361,0.953 -0.558,1.38 -1.346,1.742 l -0.296,0 0.065,0.229 C -1.05,0.854 -0.591,0.263 0,0"
         inkscape:connector-curvature="0" />
    </g>
    <g
       transform="matrix(0.96699519,0,0,-0.96699519,44.011026,43.605125)"
       id="g7149">
      <path
         id="path7151"
         style="fill:#ecc051;fill-opacity:1;fill-rule:nonzero;stroke:none"
         d="m 0,0 c -0.395,-0.229 -0.788,0.033 -1.182,0.065 -0.066,0.263 0.23,0.33 0.394,0.394 C -0.427,0.525 0.131,0.395 0,0"
         inkscape:connector-curvature="0" />
    </g>
    <g
       transform="matrix(0.96699519,0,0,-0.96699519,54.902022,44.14528)"
       id="g7153">
      <path
         id="path7155"
         style="fill:#f5d75c;fill-opacity:1;fill-rule:nonzero;stroke:none"
         d="m 0,0 c -0.854,-0.196 -1.281,-1.116 -1.413,-1.904 l -0.066,0 c -0.197,0.821 0.231,1.576 0.855,2.133 C -0.362,0.263 -0.134,0.196 0,0"
         inkscape:connector-curvature="0" />
    </g>
    <g
       transform="matrix(0.96699519,0,0,-0.96699519,31.0577,48.050108)"
       id="g7157">
      <path
         id="path7159"
         style="fill:#f5d75c;fill-opacity:1;fill-rule:nonzero;stroke:none"
         d="m 0,0 c 0.099,-0.361 0.197,-0.657 0,-1.018 -0.591,-0.46 -1.444,-0.165 -2.035,0.099 -0.428,0.098 -0.164,0.722 -0.231,0.919 0.395,0.394 1.083,0.624 1.707,0.394 L 0,0 z"
         inkscape:connector-curvature="0" />
    </g>
    <g
       transform="matrix(0.96699519,0,0,-0.96699519,30.834904,48.335278)"
       id="g7161">
      <path
         id="path7163"
         style="fill:#db923a;fill-opacity:1;fill-rule:nonzero;stroke:none"
         d="m 0,0 c -0.131,-0.264 -0.033,-0.69 -0.459,-0.624 -0.328,0 -0.886,-0.099 -1.182,0.132 -0.033,0.295 -0.328,0.656 0.065,0.787 C -1.017,0.295 -0.426,0.36 0,0"
         inkscape:connector-curvature="0" />
    </g>
    <g
       transform="matrix(0.96699519,0,0,-0.96699519,19.851386,52.622548)"
       id="g7165">
      <path
         id="path7167"
         style="fill:#f5d75c;fill-opacity:1;fill-rule:nonzero;stroke:none"
         d="m 0,0 0.098,-0.394 -0.165,0 C 0.031,0.164 -0.624,0.329 -0.854,0.56 L -1.644,0.395 C -1.774,0.56 -1.479,0.887 -1.248,0.887 -0.624,0.92 -0.133,0.593 0,0"
         inkscape:connector-curvature="0" />
    </g>
    <g
       transform="matrix(0.96699519,0,0,-0.96699519,27.695883,26.420166)"
       id="g7169">
      <path
         id="path7171"
         style="fill:#ebbd43;fill-opacity:1;fill-rule:evenodd;stroke:none"
         d="M 0,0 C 0,0 3.329,-0.24 5.027,-1.973 6.912,-3.894 6.998,-4.991 7.086,-6.126 7.174,-7.262 6.737,-9.32 6.737,-9.32 c 0,0 -1.622,-2.234 -1.71,0.786 C 4.941,-5.516 4.468,-4.242 3.281,-3.107 2.097,-1.973 1.457,-1.68 0.524,-1.187 -1.884,0.087 0,0 0,0"
         inkscape:connector-curvature="0" />
    </g>
    <g
       transform="matrix(0.96699519,0,0,-0.96699519,44.356746,31.499792)"
       id="g7173">
      <path
         id="path7175"
         style="fill:#ebbd43;fill-opacity:1;fill-rule:evenodd;stroke:none"
         d="m 0,0 c 0,0 -3.106,1.135 -4.329,0.437 -1.223,-0.7 -2.271,-1.31 -1.136,-1.486 1.136,-0.174 2.147,0.264 3.631,-0.087 C -0.35,-1.484 0.349,-2.184 0.522,-1.31 0.698,-0.437 0,0 0,0"
         inkscape:connector-curvature="0" />
    </g>
    <g
       transform="matrix(0.96699519,0,0,-0.96699519,32.726346,31.686708)"
       id="g7177">
      <path
         id="path7179"
         style="fill:#fbea98;fill-opacity:1;fill-rule:nonzero;stroke:none"
         d="M 0,0 C 0,0.81 0.441,1.466 0.986,1.466 1.531,1.466 1.972,0.81 1.972,0 1.972,-0.809 1.531,-1.466 0.986,-1.466 0.441,-1.466 0,-0.809 0,0"
         inkscape:connector-curvature="0" />
    </g>
    <g
       transform="matrix(0.96699519,0,0,-0.96699519,42.390651,56.717193)"
       id="g7181">
      <path
         id="path7183"
         style="fill:#ecc051;fill-opacity:1;fill-rule:nonzero;stroke:none"
         d="m 0,0 c -2.062,-0.757 -4.178,-1.244 -6.27,-1.412 -5.942,-0.657 -11.885,-0.164 -16.941,2.266 -10.573,4.714 -13.855,12.608 -15.3,17.663 -1.773,4.596 -1.248,9.422 -0.788,14.578 1.37,8.534 8.978,16.974 17.343,19.392 -7.761,-2.93 -14.563,-10.871 -15.851,-18.895 -0.459,-5.155 -0.985,-9.982 0.788,-14.578 1.445,-5.056 4.727,-12.948 15.3,-17.663 5.056,-2.429 10.999,-2.922 16.941,-2.265 C -3.188,-0.786 -1.584,-0.476 0,0"
         inkscape:connector-curvature="0" />
    </g>
    <g
       transform="matrix(0.96699519,0,0,-0.96699519,35.275965,23.787425)"
       id="g7185">
      <path
         id="path7187"
         style="fill:#c9ac7a;fill-opacity:1;fill-rule:nonzero;stroke:none"
         d="M 0,0 C 0.637,1.304 2.409,1.747 3.96,0.991 5.512,0.234 6.254,-1.436 5.618,-2.74 4.982,-4.043 3.21,-4.487 1.657,-3.73 0.106,-2.974 -0.635,-1.304 0,0"
         inkscape:connector-curvature="0" />
    </g>
    <g
       transform="matrix(0.96699519,0,0,-0.96699519,39.97881,24.42961)"
       id="g7189">
      <path
         id="path7191"
         style="fill:#764e33;fill-opacity:1;fill-rule:nonzero;stroke:none"
         d="m 0,0 c -0.033,-1.083 -0.722,-2.002 -1.74,-2.429 -0.656,-0.164 -1.411,-0.066 -1.97,0.23 -0.394,0.525 -0.558,1.28 -0.459,1.904 0.065,0.919 1.083,1.149 1.74,1.477 C -1.444,1.248 -0.525,0.92 0,0"
         inkscape:connector-curvature="0" />
    </g>
    <g
       transform="matrix(0.96699519,0,0,-0.96699519,39.661481,24.651439)"
       id="g7193">
      <path
         id="path7195"
         style="fill:#b08c4b;fill-opacity:1;fill-rule:nonzero;stroke:none"
         d="m 0,0 c -0.132,-0.689 -0.756,-1.74 -1.642,-1.871 -0.525,-0.067 -0.985,0.032 -1.411,0.229 -0.362,0.395 -0.362,1.083 -0.329,1.577 0.165,0.623 0.854,1.016 1.412,1.181 C -1.215,0.984 -0.296,0.854 0,0"
         inkscape:connector-curvature="0" />
    </g>
  </g>
</svg>
