<?xml version="1.0" encoding="UTF-8" standalone="no"?>
<!-- Created with Inkscape (http://www.inkscape.org/) -->

<svg
   xmlns:dc="http://purl.org/dc/elements/1.1/"
   xmlns:cc="http://creativecommons.org/ns#"
   xmlns:rdf="http://www.w3.org/1999/02/22-rdf-syntax-ns#"
   xmlns:svg="http://www.w3.org/2000/svg"
   xmlns="http://www.w3.org/2000/svg"
   xmlns:sodipodi="http://sodipodi.sourceforge.net/DTD/sodipodi-0.dtd"
   xmlns:inkscape="http://www.inkscape.org/namespaces/inkscape"
   width="64px"
   height="64px"
   id="svg21248"
   version="1.1"
   inkscape:version="0.48.5 r10040"
   sodipodi:docname="Nowy dokument 7">
  <defs
     id="defs21250" />
  <sodipodi:namedview
     id="base"
     pagecolor="#ffffff"
     bordercolor="#666666"
     borderopacity="1.0"
     inkscape:pageopacity="0.0"
     inkscape:pageshadow="2"
     inkscape:zoom="5.5"
     inkscape:cx="32"
     inkscape:cy="32"
     inkscape:current-layer="layer1"
     showgrid="true"
     inkscape:document-units="px"
     inkscape:grid-bbox="true"
     inkscape:window-width="1366"
     inkscape:window-height="706"
     inkscape:window-x="-8"
     inkscape:window-y="-8"
     inkscape:window-maximized="1" />
  <metadata
     id="metadata21253">
    <rdf:RDF>
      <cc:Work
         rdf:about="">
        <dc:format>image/svg+xml</dc:format>
        <dc:type
           rdf:resource="http://purl.org/dc/dcmitype/StillImage" />
        <dc:title></dc:title>
      </cc:Work>
    </rdf:RDF>
  </metadata>
  <g
     id="layer1"
     inkscape:label="Layer 1"
     inkscape:groupmode="layer">
    <path
       id="path9292"
       style="fill:#4a4b4c;fill-opacity:1;fill-rule:nonzero;stroke:none"
       d="m 58.455461,48.106852 c 0,3.048423 -0.716411,2.990214 -3.913529,2.990214 l -43.084507,0 c -3.1970612,0 -5.7851961,-2.471695 -5.7851961,-5.520118 l 0,-25.909809 c 0,-3.048422 2.5881349,-5.521008 5.7851961,-5.521008 l 42.780044,0 c 3.197061,0 4.217992,1.09256 4.217992,4.140981 l 0,29.81974"
       inkscape:connector-curvature="0" />
    <path
       id="path9294"
       style="fill:#3e3e40;fill-opacity:1;fill-rule:nonzero;stroke:none"
       d="m 57.336013,47.18713 c 0,3.048422 -0.886547,2.990214 -3.940371,2.990214 l -41.06058,0 c -3.0537678,0 -5.543385,-2.471696 -5.543385,-5.520118 l 0,-23.572441 c 0,-3.048422 2.4896172,-5.520117 5.543385,-5.520117 l 41.418785,0 c 3.062791,0 3.582166,1.397936 3.582166,4.446364 l 0,27.176098"
       inkscape:connector-curvature="0" />
    <path
       id="path9296"
       style="fill:#5fc560;fill-opacity:1;fill-rule:nonzero;stroke:none"
       d="M 55.285242,18.431297 18.953119,13.584625 16.857573,29.30854 53.198606,34.152523 55.285242,18.431297"
       inkscape:connector-curvature="0" />
    <path
       id="path9298"
       style="fill:#277f47;fill-opacity:1;fill-rule:nonzero;stroke:none"
       d="M 54.219536,19.394002 19.732238,14.797188 17.923279,28.345835 52.419487,32.941753 54.219536,19.394002 z M 52.670265,33.352804 17.573984,28.672709 19.472551,14.384344 54.577742,19.065341 52.670265,33.352804"
       inkscape:connector-curvature="0" />
    <path
       id="path9300"
       style="fill:#277f47;fill-opacity:1;fill-rule:nonzero;stroke:none"
       d="m 42.273006,24.6965 c 0.456723,-3.424548 -1.943286,-6.571482 -5.373249,-7.029999 -3.420939,-0.455832 -6.573225,1.950488 -7.030004,5.375939 -0.447757,3.424549 1.952309,6.572374 5.382215,7.028206 3.420996,0.457625 6.564315,-1.9487 7.021038,-5.374146"
       inkscape:connector-curvature="0" />
    <path
       id="path9302"
       style="fill:#5fc560;fill-opacity:1;fill-rule:nonzero;stroke:none"
       d="m 35.968435,27.221036 c 0.340272,-0.0028 0.635826,-0.13881 0.886547,-0.407476 0.259744,-0.266872 0.411947,-0.617921 0.474656,-1.050468 0.04483,-0.370753 0.0091,-0.67882 -0.107485,-0.921511 -0.12536,-0.244484 -0.402981,-0.486278 -0.832861,-0.724491 l -0.420857,3.103946 z m 0.447757,-7.108808 c -0.340329,0.01793 -0.61795,0.143282 -0.850795,0.377915 -0.214911,0.232844 -0.349238,0.523892 -0.40298,0.871366 -0.04483,0.346571 -0.0091,0.65016 0.12536,0.906284 0.134384,0.256123 0.376138,0.479116 0.752276,0.670761 l 0.376139,-2.826326 z m -1.191067,8.917801 0.134327,-1.019126 c -0.411947,-0.118215 -0.752276,-0.27762 -0.994031,-0.480013 -0.232845,-0.200599 -0.42988,-0.495233 -0.573174,-0.883896 -0.143293,-0.387772 -0.197035,-0.851663 -0.161169,-1.388988 l 0.86867,-0.07075 c 0,0.548074 0.06265,0.965395 0.196979,1.251074 0.179103,0.393141 0.447813,0.63136 0.770209,0.715537 l 0.43879,-3.242757 c -0.340329,-0.123584 -0.671634,-0.334035 -1.011963,-0.629566 -0.241812,-0.213135 -0.420914,-0.489859 -0.519432,-0.829269 -0.107428,-0.339409 -0.125361,-0.715536 -0.07162,-1.123903 0.09852,-0.726285 0.385104,-1.28421 0.877636,-1.674666 0.322397,-0.262389 0.77912,-0.391347 1.343327,-0.385082 l 0.06265,-0.488066 0.510465,0.06716 -0.07162,0.487175 c 0.483565,0.127165 0.850737,0.351945 1.101515,0.676135 0.322396,0.420006 0.474599,0.96002 0.474599,1.61824 l -0.90448,0.03405 c 0.0091,-0.408367 -0.05391,-0.729866 -0.188069,-0.962711 -0.134327,-0.233736 -0.331362,-0.402992 -0.600016,-0.509563 l -0.394015,2.94096 c 0.411948,0.180902 0.680602,0.318816 0.814929,0.414638 0.241811,0.17463 0.43879,0.372546 0.573173,0.595533 0.134327,0.222993 0.232788,0.476427 0.286531,0.763899 0.05391,0.284782 0.06271,0.586578 0.01816,0.902703 -0.09852,0.711059 -0.358205,1.276146 -0.806018,1.697054 -0.429824,0.421799 -0.949255,0.608966 -1.540305,0.559713 l -0.134327,1.031661 -0.501499,-0.06716"
       inkscape:connector-curvature="0" />
    <path
       id="path9304"
       style="fill:#5fc560;fill-opacity:1;fill-rule:nonzero;stroke:none"
       d="M 45.461157,5.6196774 12.084341,20.775822 18.63969,35.218217 52.016506,20.064763 45.461157,5.6196774"
       inkscape:connector-curvature="0" />
    <path
       id="path9306"
       style="fill:#277f47;fill-opacity:1;fill-rule:nonzero;stroke:none"
       d="M 45.058177,7.0068714 13.382835,21.386581 19.042671,33.833713 50.709046,19.45221 45.058177,7.0068714 z M 51.156802,19.66177 18.908344,34.301185 12.944045,21.17613 45.192503,6.5367154 51.156802,19.66177"
       inkscape:connector-curvature="0" />
    <path
       id="path9308"
       style="fill:#277f47;fill-opacity:1;fill-rule:nonzero;stroke:none"
       d="m 37.750551,17.832177 c -1.432877,-3.146037 -5.140403,-4.538606 -8.292746,-3.110217 -3.143319,1.428389 -4.540387,5.137726 -3.10751,8.283763 1.432878,3.146928 5.140404,4.540393 8.292747,3.111108 3.134352,-1.427492 4.531421,-5.13772 3.107509,-8.284654"
       inkscape:connector-curvature="0" />
    <path
       id="path9310"
       style="fill:#5fc560;fill-opacity:1;fill-rule:nonzero;stroke:none"
       d="m 33.738505,23.314681 c 0.286587,-0.178212 0.456723,-0.449562 0.537365,-0.814049 0.07162,-0.361798 0.02667,-0.741505 -0.161226,-1.14002 -0.15226,-0.341203 -0.349239,-0.582106 -0.573117,-0.723601 -0.232845,-0.142391 -0.600017,-0.200599 -1.092606,-0.172837 l 1.289584,2.850507 z m -3.394096,-6.258939 c -0.277621,0.193438 -0.447757,0.448665 -0.519432,0.764796 -0.06265,0.317021 -0.02667,0.635831 0.125417,0.954646 0.143294,0.319706 0.340272,0.554339 0.582084,0.703892 0.250777,0.147765 0.582083,0.205979 0.985121,0.172843 l -1.17319,-2.596177 z m 3.716492,8.190625 -0.420913,-0.934949 c -0.420858,0.1209 -0.77912,0.159405 -1.092549,0.116423 -0.31343,-0.04302 -0.635826,-0.18896 -0.958222,-0.443296 -0.331362,-0.252543 -0.626859,-0.617025 -0.86867,-1.093457 l 0.698534,-0.524783 c 0.28653,0.471052 0.564151,0.792552 0.823895,0.962705 0.367172,0.233736 0.71641,0.299112 1.02984,0.195231 l -1.34327,-2.978574 c -0.358262,0.07343 -0.752276,0.07343 -1.191066,0 -0.322396,-0.05017 -0.608983,-0.194335 -0.877637,-0.427174 -0.268711,-0.233735 -0.492589,-0.538221 -0.662725,-0.914348 -0.295497,-0.668071 -0.349239,-1.294953 -0.15226,-1.884215 0.143293,-0.397624 0.456723,-0.744195 0.949312,-1.039726 l -0.206002,-0.447774 0.456723,-0.209554 0.206002,0.447773 c 0.474599,-0.146868 0.913446,-0.149558 1.289584,-0.0099 0.501499,0.185373 0.922413,0.559713 1.262685,1.123903 l -0.75222,0.504189 c -0.206002,-0.348365 -0.438847,-0.584785 -0.671691,-0.71464 -0.223879,-0.130752 -0.483566,-0.169257 -0.770153,-0.117319 l 1.226876,2.70185 c 0.438847,-0.06358 0.74331,-0.08866 0.904536,-0.07701 0.304463,0.01793 0.573117,0.08418 0.805962,0.202393 0.232845,0.113732 0.447756,0.279408 0.644792,0.492549 0.197036,0.214929 0.358205,0.467471 0.492532,0.759415 0.295553,0.652851 0.367172,1.271669 0.223878,1.859143 -0.143236,0.589268 -0.483565,1.021816 -1.011963,1.29585 l 0.42988,0.945691 -0.46569,0.20956"
       inkscape:connector-curvature="0" />
    <path
       id="path9312"
       style="fill:#595a5c;fill-opacity:1;fill-rule:nonzero;stroke:none"
       d="m 56.037519,50.636757 c 0,3.048421 -1.200033,3.909936 -4.253858,3.909936 l -43.0038655,0 c -3.044858,0 -3.1075666,-0.286576 -3.1075666,-3.334101 l 0,-31.239174 c 0,0 0.035752,-0.747776 0.071675,-1.212563 0.089551,-1.048681 0.8507374,-2.083924 0.8507374,-2.083924 0,0 0.4656895,1.918248 1.7642402,2.452883 2.0418035,0.839126 3.6269415,0.76748 3.6269415,0.76748 l 39.797838,0 c 3.053825,0 4.253858,0.400308 4.253858,3.44873 l 0,27.290733"
       inkscape:connector-curvature="0" />
    <path
       id="path9314"
       style="fill:#6a6b6d;fill-opacity:1;fill-rule:nonzero;stroke:none"
       d="m 9.3171033,21.987488 0,0 -2.8298894,-0.0011 c -0.4030376,0 -0.7164672,-0.318809 -0.7164672,-0.709265 0,-0.39225 0.3134296,-0.709272 0.7164672,-0.709272 l 2.8298894,0.0011 c 0.3940145,0 0.7164107,0.317919 0.7164107,0.709272 0,0.392243 -0.3223962,0.709265 -0.7164107,0.709265"
       inkscape:connector-curvature="0" />
    <path
       id="path9316"
       style="fill:#6a6b6d;fill-opacity:1;fill-rule:nonzero;stroke:none"
       d="m 20.753169,21.991966 0,0 -5.722488,-0.0017 c -0.385105,0 -0.707501,-0.317918 -0.707501,-0.710168 0,-0.390456 0.322396,-0.708369 0.707501,-0.708369 l 5.722488,0.0017 c 0.385104,0 0.7075,0.318815 0.7075,0.710168 0,0.391347 -0.322396,0.708369 -0.7075,0.708369 z m 11.427098,0.0051 0,0 -5.722487,-0.0028 c -0.385105,0 -0.707501,-0.317022 -0.698535,-0.709272 0,-0.392243 0.31343,-0.709265 0.707501,-0.709265 l 5.713521,0.0028 c 0.385105,0 0.707501,0.318815 0.707501,0.709272 0,0.392243 -0.322396,0.709265 -0.707501,0.709265 z m 11.427099,0.0063 0,0 -5.713521,-0.0034 c -0.394071,0 -0.707501,-0.317919 -0.707501,-0.709272 0,-0.392249 0.322396,-0.709271 0.707501,-0.709271 l 0,0 5.713521,0.0028 c 0.394071,0 0.707501,0.317022 0.707501,0.709266 0,0.392249 -0.31343,0.710168 -0.707501,0.710168 z m 10.719655,1.662124 c -0.304463,0 -0.573174,-0.194334 -0.680602,-0.49613 -0.197035,-0.636734 -0.546274,-1.16331 -2.740395,-1.16331 l -1.58508,-0.0017 c -0.385105,0 -0.707501,-0.317022 -0.707501,-0.709271 0,-0.39225 0.322396,-0.709271 0.707501,-0.709271 l 1.58508,0.0011 c 1.773207,0 3.492615,0.260601 4.101598,2.154673 0.116451,0.37434 -0.09852,0.772854 -0.46569,0.891064 -0.07162,0.02236 -0.143293,0.03314 -0.214911,0.03314 z m 0.214911,11.408303 c -0.385047,0 -0.707444,-0.317021 -0.707444,-0.709271 l 0,-5.715343 c 0,-0.390456 0.322397,-0.709271 0.707444,-0.709271 0.402981,0 0.707501,0.318815 0.707501,0.709271 l 0,5.715343 c 0,0.39225 -0.30452,0.709271 -0.707501,0.709271 z m 0,11.430691 c -0.385047,0 -0.707444,-0.317918 -0.707444,-0.710168 l 0,-5.715342 c 0,-0.391353 0.322397,-0.709272 0.707444,-0.709272 0.402981,0 0.707501,0.317919 0.707501,0.709272 l 0,5.715342 c 0,0.39225 -0.30452,0.710168 -0.707501,0.710168 z m -33.761921,7.192985 -5.722487,0 c -0.385105,0 -0.707501,-0.317016 -0.707501,-0.709266 0,-0.392249 0.322396,-0.709271 0.707501,-0.709271 l 5.722487,0 c 0.385105,0 0.707501,0.317022 0.707501,0.709271 0,0.39225 -0.322396,0.709266 -0.707501,0.709266 z m 11.427156,0 -5.722545,0 c -0.385048,0 -0.707444,-0.317016 -0.707444,-0.709266 0,-0.392249 0.322396,-0.709271 0.707444,-0.709271 l 5.722545,0 c 0.385048,0 0.707444,0.317022 0.707444,0.709271 0,0.39225 -0.322396,0.709266 -0.707444,0.709266 z m 11.427098,0 -5.713577,0 c -0.394015,0 -0.707444,-0.317016 -0.707444,-0.709266 0,-0.392249 0.313429,-0.709271 0.707444,-0.709271 l 5.713577,0 c 0.394015,0 0.707444,0.317022 0.707444,0.709271 0,0.39225 -0.313429,0.709266 -0.707444,0.709266 z m 7.11059,0 -1.397069,0 c -0.385048,0 -0.707444,-0.317016 -0.707444,-0.709266 0,-0.392249 0.322396,-0.709271 0.707444,-0.709271 l 1.397069,0 c 2.373166,0 2.767237,-0.20687 2.973183,-0.966286 0.09852,-0.37792 0.474656,-0.605385 0.859704,-0.501504 0.376138,0.101196 0.608983,0.488963 0.501555,0.868676 -0.537365,2.017651 -2.38219,2.017651 -4.334442,2.017651"
       inkscape:connector-curvature="0" />
    <path
       id="path9318"
       style="fill:#6a6b6d;fill-opacity:1;fill-rule:nonzero;stroke:none"
       d="m 9.3171033,53.697714 -2.8298894,0 c -0.4030376,0 -0.7164672,-0.317016 -0.7164672,-0.709265 0,-0.39225 0.3134296,-0.709272 0.7164672,-0.709272 l 2.8298894,0 c 0.3940145,0 0.7164107,0.317022 0.7164107,0.709272 0,0.392249 -0.3223962,0.709265 -0.7164107,0.709265"
       inkscape:connector-curvature="0" />
    <path
       id="path9320"
       style="fill:#595a5c;fill-opacity:1;fill-rule:nonzero;stroke:none"
       d="m 53.315057,49.288964 c 0,2.585428 -0.90448,2.780659 -3.555323,2.780659 l -44.0068635,0 0,-29.950486 44.1501565,0.01969 c 2.650844,0 3.41203,0.731659 3.41203,3.315294 l 0,23.834835"
       inkscape:connector-curvature="0" />
    <path
       id="path9322"
       style="fill:#6b6b6e;fill-opacity:1;fill-rule:nonzero;stroke:none"
       d="m 58.553979,38.409927 -13.809232,0 c -0.886603,0 -2.552326,-1.598542 -2.552326,-4.825175 0,-3.22753 1.665723,-4.734728 2.552326,-4.734728 l 13.809232,0 c 0.447756,0 0.40298,9.559903 0,9.559903"
       inkscape:connector-curvature="0" />
    <path
       id="path9324"
       style="fill:#4f4f51;fill-opacity:1;fill-rule:nonzero;stroke:none"
       d="m 58.553979,39.17651 -13.809232,0 c -0.886603,0 -2.552326,-1.597645 -2.552326,-4.824279 0,-3.22753 1.665723,-4.735624 2.552326,-4.735624 l 13.809232,0 c 0.447756,0 0.40298,9.559903 0,9.559903"
       inkscape:connector-curvature="0" />
    <path
       id="path9326"
       style="fill:#d0cc5f;fill-opacity:1;fill-rule:nonzero;stroke:none"
       d="m 48.335822,34.423872 c 0,1.164207 -0.805961,2.107208 -1.799992,2.107208 -0.994088,0 -1.80005,-0.943001 -1.80005,-2.107208 0,-1.165097 0.805962,-2.109001 1.80005,-2.109001 0.994031,0 1.799992,0.943904 1.799992,2.109001"
       inkscape:connector-curvature="0" />
    <path
       id="path9328"
       style="fill:#e7e561;fill-opacity:1;fill-rule:nonzero;stroke:none"
       d="m 47.986584,34.423872 c 0,0.93853 -0.653759,1.698842 -1.450754,1.698842 -0.806019,0 -1.450811,-0.760312 -1.450811,-1.698842 0,-0.937632 0.644792,-1.699738 1.450811,-1.699738 0.796995,0 1.450754,0.762106 1.450754,1.699738"
       inkscape:connector-curvature="0" />
  </g>
</svg>
