<?xml version="1.0" encoding="UTF-8" standalone="no"?>
<!-- Created with Inkscape (http://www.inkscape.org/) -->

<svg
   xmlns:dc="http://purl.org/dc/elements/1.1/"
   xmlns:cc="http://creativecommons.org/ns#"
   xmlns:rdf="http://www.w3.org/1999/02/22-rdf-syntax-ns#"
   xmlns:svg="http://www.w3.org/2000/svg"
   xmlns="http://www.w3.org/2000/svg"
   xmlns:sodipodi="http://sodipodi.sourceforge.net/DTD/sodipodi-0.dtd"
   xmlns:inkscape="http://www.inkscape.org/namespaces/inkscape"
   width="64px"
   height="64px"
   id="svg19925"
   version="1.1"
   inkscape:version="0.48.5 r10040"
   sodipodi:docname="Nowy dokument 19">
  <defs
     id="defs19927" />
  <sodipodi:namedview
     id="base"
     pagecolor="#ffffff"
     bordercolor="#666666"
     borderopacity="1.0"
     inkscape:pageopacity="0.0"
     inkscape:pageshadow="2"
     inkscape:zoom="5.5"
     inkscape:cx="32"
     inkscape:cy="32"
     inkscape:current-layer="layer1"
     showgrid="true"
     inkscape:document-units="px"
     inkscape:grid-bbox="true"
     inkscape:window-width="1366"
     inkscape:window-height="706"
     inkscape:window-x="-8"
     inkscape:window-y="-8"
     inkscape:window-maximized="1" />
  <metadata
     id="metadata19930">
    <rdf:RDF>
      <cc:Work
         rdf:about="">
        <dc:format>image/svg+xml</dc:format>
        <dc:type
           rdf:resource="http://purl.org/dc/dcmitype/StillImage" />
        <dc:title></dc:title>
      </cc:Work>
    </rdf:RDF>
  </metadata>
  <g
     id="layer1"
     inkscape:label="Layer 1"
     inkscape:groupmode="layer">
    <path
       id="path6281"
       style="fill:#952027;fill-opacity:1;fill-rule:nonzero;stroke:none"
       d="m 29.381475,13.258422 c 0,0 -5.58453,3.00982 1.617283,9.289269 0,0 -11.914316,-6.076277 -1.617283,-9.289269"
       inkscape:connector-curvature="0" />
    <path
       id="path6283"
       style="fill:#e43749;fill-opacity:1;fill-rule:nonzero;stroke:none"
       d="m 24.43523,14.699502 c -1.94002,3.52854 5.678922,8.341735 5.678922,8.341735 l 0.884606,-0.493546 c -0.857637,-0.592438 -5.954911,-4.255822 -5.007378,-6.824238 0.93945,-2.548638 4.1893,-1.937327 5.172792,0.490845 0.868427,2.147694 1.637062,4.680146 1.601103,5.341806 l 0.775831,-0.435114 c 0,0 0.613111,-3.008019 -0.744367,-6.36575 -1.358373,-3.355932 -6.546448,-3.362227 -8.361509,-0.05571"
       inkscape:connector-curvature="0" />
    <path
       id="path6285"
       style="fill:#952027;fill-opacity:1;fill-rule:nonzero;stroke:none"
       d="m 37.752874,14.025257 c 0,0 4.949845,3.305589 -1.349383,10.476839 0,0 10.457058,-7.008531 1.349383,-10.476839"
       inkscape:connector-curvature="0" />
    <path
       id="path6287"
       style="fill:#e43749;fill-opacity:1;fill-rule:nonzero;stroke:none"
       d="m 42.128261,15.574218 c 1.738648,3.944774 -4.93995,9.471767 -4.93995,9.471767 l -0.78482,-0.543889 c 0.750656,-0.67874 5.215939,-4.875228 4.360102,-7.751098 -0.849548,-2.855196 -3.711933,-2.120718 -4.55878,0.625696 -0.747061,2.428177 -1.405121,5.292357 -1.367362,6.034923 l -0.687729,-0.478261 c 0,0 -0.566363,-3.376611 0.602322,-7.173945 1.170485,-3.797335 5.747244,-3.879147 7.376217,-0.185193"
       inkscape:connector-curvature="0" />
    <path
       id="path6289"
       style="fill:#952027;fill-opacity:1;fill-rule:nonzero;stroke:none"
       d="m 35.783184,9.389165 c 0,0 -7.682769,-0.03145 -3.654394,11.118714 0,0 -9.159813,-13.730284 3.654394,-11.118714"
       inkscape:connector-curvature="0" />
    <path
       id="path6291"
       style="fill:#e43749;fill-opacity:1;fill-rule:nonzero;stroke:none"
       d="m 29.687134,8.020903 c -4.105693,2.705061 1.212738,12.50226 1.212738,12.50226 l 1.228918,-0.01527 c -0.570858,-1.157001 -3.872852,-8.195196 -1.379052,-10.439975 2.474919,-2.227699 5.580035,0.373975 5.219539,3.613941 -0.318243,2.863286 -0.967313,6.091557 -1.388942,6.79367 l 1.077895,-0.01527 c 0,0 2.394907,-2.921718 2.892948,-7.400487 0.497141,-4.478773 -5.018162,-7.5730989 -8.864044,-5.038841"
       inkscape:connector-curvature="0" />
    <path
       id="path6293"
       style="fill:#e43749;fill-opacity:1;fill-rule:nonzero;stroke:none"
       d="m 48.267465,23.426902 c -2.705061,4.105687 -12.50226,-1.212739 -12.50226,-1.212739 l 0.01527,-1.228023 c 1.1579,0.569964 8.06754,3.752386 10.439973,1.379952 0.789315,-0.792009 -1.095867,-5.177286 -3.613941,-5.221334 -2.881264,-0.05036 -6.596791,0.931355 -9.742355,6.094256 l 0.01436,-2.959476 c 0,0 5.87131,-5.21864 10.350078,-5.715786 4.477873,-0.498042 7.572199,5.019068 5.038841,8.86315"
       inkscape:connector-curvature="0" />
    <path
       id="path6295"
       style="fill:#952027;fill-opacity:1;fill-rule:nonzero;stroke:none"
       d="m 32.864167,23.239014 c 0,0 3.549213,-6.747826 10.539759,-5.941432 0,0 -3.043977,-0.856737 -4.893201,-0.471967 -0.968213,0.202273 -3.993317,1.815961 -5.632179,3.453923 l -0.01436,2.959476"
       inkscape:connector-curvature="0" />
    <path
       id="path6297"
       style="fill:#e43749;fill-opacity:1;fill-rule:nonzero;stroke:none"
       d="m 19.25435,24.717852 c 3.378405,3.571688 12.10041,-3.370315 12.10041,-3.370315 l -0.229241,-1.207344 c -1.04103,0.764141 -7.290815,5.099074 -10.040824,3.176133 -0.914275,-0.641881 0.177998,-5.288762 2.650223,-5.769724 2.830021,-0.551978 6.658818,-0.231041 10.653935,4.30437 l -0.529505,-2.910933 c 0,0 -6.689388,-4.116477 -11.18614,-3.827003 -4.496746,0.288579 -6.584207,6.259669 -3.418858,9.604816"
       inkscape:connector-curvature="0" />
    <path
       id="path6299"
       style="fill:#952027;fill-opacity:1;fill-rule:nonzero;stroke:none"
       d="m 34.388853,21.850972 c 0,0 -4.668455,-6.027733 -11.412686,-4.016691 0,0 2.8489,-1.372757 4.736782,-1.315224 0.987993,0.03059 4.247733,1.093173 6.146399,2.420982 l 0.529505,2.910933"
       inkscape:connector-curvature="0" />
    <path
       id="path6301"
       style="fill:#e2e1df;fill-opacity:1;fill-rule:nonzero;stroke:none"
       d="m 56.773713,27.101076 -49.003067,0 c -0.841458,0 -1.524692,0.683233 -1.524692,1.526486 l 0,27.456064 c 0,0.841459 0.683234,1.524692 1.524692,1.524692 l 49.003067,0 c 0.843253,0 1.524692,-0.683233 1.524692,-1.524692 l 0,-27.456064 c 0,-0.841458 -0.681439,-1.526486 -1.524692,-1.526486"
       inkscape:connector-curvature="0" />
    <path
       id="path6303"
       style="fill:#cecbc8;fill-opacity:1;fill-rule:nonzero;stroke:none"
       d="m 56.773713,27.101076 -24.448046,0 0.0046,30.507242 24.443551,0 c 0.843252,0 1.524692,-0.683233 1.524692,-1.524692 l 0,-27.456064 c 0,-0.841458 -0.68144,-1.526486 -1.524692,-1.526486"
       inkscape:connector-curvature="0" />
    <path
       id="path6305"
       style="fill:#b2b2b2;fill-opacity:1;fill-rule:nonzero;stroke:none"
       d="m 58.444039,25.336358 -26.118372,-4.980408 0,-0.02068 -0.05213,0.0099 -0.05486,-0.0099 0,0.02068 -26.1183713,4.980408 c -0.898991,0 -1.628973,0.729083 -1.628973,1.628967 l 0,4.807801 c 0,0.89899 0.729982,1.628972 1.628973,1.628972 l 26.1732123,-4.992093 26.170509,4.992093 c 0.89989,0 1.628972,-0.729082 1.628972,-1.628972 l 0,-4.807801 c 0,-0.899884 -0.729082,-1.628967 -1.628972,-1.628967"
       inkscape:connector-curvature="0" />
    <path
       id="path6307"
       style="fill:#cfcac9;fill-opacity:1;fill-rule:nonzero;stroke:none"
       d="m 60.073012,30.885825 c 0,0.899891 0.05395,1.682911 -0.591538,1.628973 l -27.262782,-5.001089 0,-8.065739 26.225347,5.001082 c 0.899891,0 1.628973,0.729082 1.628973,1.628973 l 0,4.8078"
       inkscape:connector-curvature="0" />
    <path
       id="path6309"
       style="fill:#ecebec;fill-opacity:1;fill-rule:nonzero;stroke:none"
       d="m 4.471347,26.078025 c 0,-0.899891 0.729983,-1.628973 1.628973,-1.628973 l 26.225347,-5.001082 0,8.065739 -27.370663,5.216845 c -0.483657,0 -0.483657,-0.945738 -0.483657,-1.844729 l 0,-4.8078"
       inkscape:connector-curvature="0" />
    <path
       id="path6311"
       style="fill:#d51b32;fill-opacity:1;fill-rule:nonzero;stroke:none"
       d="m 49.963865,57.842054 -7.743908,0 0,-27.545966 0.483656,-0.738072 7.798747,1.451869 -0.538495,0.738972 0,26.093197"
       inkscape:connector-curvature="0" />
    <path
       id="path6313"
       style="fill:#d41e27;fill-opacity:1;fill-rule:nonzero;stroke:none"
       d="m 42.219957,30.296088 0.483656,-0.738072 7.798747,1.451869 -0.538495,0.737172 -7.743908,-1.450969"
       inkscape:connector-curvature="0" />
    <path
       id="path6315"
       style="fill:#e2273c;fill-opacity:1;fill-rule:nonzero;stroke:none"
       d="m 50.50236,22.916277 -7.798747,-1.505813 0,8.147552 7.798747,1.451869 0,-8.093608"
       inkscape:connector-curvature="0" />
    <path
       id="path6317"
       style="fill:#e43749;fill-opacity:1;fill-rule:nonzero;stroke:none"
       d="m 14.246072,57.842054 7.743008,0 0,-27.504613 -0.483662,-0.779425 -7.79784,1.450069 0.538494,0.780325 0,26.053644"
       inkscape:connector-curvature="0" />
    <path
       id="path6319"
       style="fill:#d71b31;fill-opacity:1;fill-rule:nonzero;stroke:none"
       d="m 21.98908,30.337441 -0.483662,-0.779425 -7.79784,1.450069 0.538494,0.780325 7.743008,-1.450969"
       inkscape:connector-curvature="0" />
    <path
       id="path6321"
       style="fill:#e43749;fill-opacity:1;fill-rule:nonzero;stroke:none"
       d="m 13.707578,22.997183 7.816719,-1.492322 -0.01886,8.053155 -7.79784,1.450069 0,-8.010902"
       inkscape:connector-curvature="0" />
  </g>
</svg>
