<?xml version="1.0" encoding="UTF-8" standalone="no"?>
<!-- Created with Inkscape (http://www.inkscape.org/) -->

<svg
   xmlns:dc="http://purl.org/dc/elements/1.1/"
   xmlns:cc="http://creativecommons.org/ns#"
   xmlns:rdf="http://www.w3.org/1999/02/22-rdf-syntax-ns#"
   xmlns:svg="http://www.w3.org/2000/svg"
   xmlns="http://www.w3.org/2000/svg"
   xmlns:sodipodi="http://sodipodi.sourceforge.net/DTD/sodipodi-0.dtd"
   xmlns:inkscape="http://www.inkscape.org/namespaces/inkscape"
   width="64px"
   height="64px"
   id="svg208066"
   version="1.1"
   inkscape:version="0.48.5 r10040"
   sodipodi:docname="Nowy dokument 85">
  <defs
     id="defs208068" />
  <sodipodi:namedview
     id="base"
     pagecolor="#ffffff"
     bordercolor="#666666"
     borderopacity="1.0"
     inkscape:pageopacity="0.0"
     inkscape:pageshadow="2"
     inkscape:zoom="5.5"
     inkscape:cx="32"
     inkscape:cy="32"
     inkscape:current-layer="layer1"
     showgrid="true"
     inkscape:document-units="px"
     inkscape:grid-bbox="true"
     inkscape:window-width="1366"
     inkscape:window-height="706"
     inkscape:window-x="-8"
     inkscape:window-y="-8"
     inkscape:window-maximized="1" />
  <metadata
     id="metadata208071">
    <rdf:RDF>
      <cc:Work
         rdf:about="">
        <dc:format>image/svg+xml</dc:format>
        <dc:type
           rdf:resource="http://purl.org/dc/dcmitype/StillImage" />
        <dc:title></dc:title>
      </cc:Work>
    </rdf:RDF>
  </metadata>
  <g
     id="layer1"
     inkscape:label="Layer 1"
     inkscape:groupmode="layer">
    <g
       id="g62953"
       transform="matrix(1.9158216,0,0,-1.9158216,41.732671,18.229284)">
      <path
         inkscape:connector-curvature="0"
         d="m 0,0 c 0.847,0.479 2.081,0.627 2.928,0.038 0.22,0.055 0.461,0.275 0.7,0.404 0.59,2.081 1.436,4.347 3.443,5.563 C 7.274,6.078 7.385,6.078 7.605,6.06 7.698,5.95 7.791,5.691 7.698,5.525 6.557,4.494 5.183,4.251 4.328,1.896 4.271,1.399 3.866,1.05 3.886,0.535 4.549,0.313 5.415,0.276 6.059,-0.128 c 0.94,1.97 1.787,4.383 3.885,5.599 0.369,0.018 0.775,0.368 1.106,0.054 l 0,-0.275 C 10.552,4.496 8.619,4.146 7.92,3.039 7.256,1.99 6.723,0.866 6.316,-0.313 6.962,-1.455 8.736,-0.691 9.233,-2.146 9.399,-2.975 9.549,-3.733 8.989,-4.897 8.179,-5.118 8.397,-6.004 8.048,-6.501 7.403,-7.956 6.501,-9.742 4.732,-10.074 c -0.441,-0.055 -0.938,0.037 -1.326,0.258 -0.478,-0.811 -1.362,-1.252 -2.302,-1.234 -0.257,0 -0.441,0.147 -0.7,0.129 -0.201,-1.346 0.165,-2.855 0.13,-4.016 -0.313,1.161 -0.461,2.542 -0.571,3.831 -0.847,-1.583 -0.755,-3.499 -0.941,-5.249 -0.256,1.474 -0.127,3.518 0.407,5.029 -1.603,-1.584 -3.5,-6.133 -3.5,-6.133 0.442,1.896 1.344,3.608 2.302,5.304 l -0.128,0 c -1.676,-1.51 -4.071,-5.176 -4.071,-5.176 0.587,1.339 1.676,3.205 3.002,4.604 -0.663,-0.183 -1.253,-0.754 -1.842,-1.196 -0.883,-0.811 -1.916,-1.75 -2.745,-2.56 0.829,1.307 1.899,2.099 2.967,3.167 -2.93,-1.161 -6.89,-0.681 -9.209,1.474 -1.124,0.847 -1.658,2.044 -2.21,3.168 -0.535,-0.332 -1.142,-0.995 -1.621,-1.4 -0.073,0.369 0.938,2.173 1.326,2.689 -0.7,2.855 0.221,5.47 2.154,7.478 1.456,1.601 4.204,2.153 6.376,2.06 -0.07,0.287 0.615,-1.188 2.039,-1.862 2.143,-1.015 3.437,-0.7 3.856,-0.7 0.419,0 1.374,-0.07 1.374,-0.07 0,0 0.255,0.233 0.501,0.479"
         style="fill:#000000;fill-opacity:1;fill-rule:nonzero;stroke:none"
         id="path62955" />
    </g>
    <g
       id="g62957"
       transform="matrix(1.9158216,0,0,-1.9158216,40.21534,7.6436034)">
      <path
         inkscape:connector-curvature="0"
         d="M 0,0 C 1.934,-2.603 0.644,-5.451 0.792,-5.525 0.546,-5.772 0.291,-6.004 0.291,-6.004 c 0,0 -0.71,-0.104 -1.129,-0.104 -0.42,0 -2.168,-0.281 -4.311,0.733 -1.424,0.675 -2.041,1.955 -2.294,2.739 -0.011,0.23 0.032,0.519 0.186,0.96 0.553,0.775 1.436,1.215 2.358,1.143 l 1.142,-0.314 c 0.294,0.572 0.404,1.493 1.196,1.603 C -1.584,1.051 -0.755,0.479 0,0"
         style="fill:#9eafb4;fill-opacity:1;fill-rule:nonzero;stroke:none"
         id="path62959" />
    </g>
    <g
       id="g62961"
       transform="matrix(1.9158216,0,0,-1.9158216,58.245367,21.862647)">
      <path
         inkscape:connector-curvature="0"
         d="M 0,0 C 0.645,-0.719 0.461,-1.86 0.055,-2.616 -0.037,-2.745 -0.092,-2.874 -0.222,-2.966 -0.147,-1.731 -0.59,-0.498 -1.197,0.57 -0.719,0.553 -0.351,0.276 0,0"
         style="fill:#ffffff;fill-opacity:1;fill-rule:nonzero;stroke:none"
         id="path62963" />
    </g>
    <g
       id="g62965"
       transform="matrix(1.9158216,0,0,-1.9158216,55.951746,20.770046)">
      <path
         inkscape:connector-curvature="0"
         d="M 0,0 C 0.476,-0.018 0.843,-0.291 1.189,-0.565 0.953,-0.835 0.812,-1.168 0.812,-1.528 0.812,-2.004 1.058,-2.434 1.451,-2.731 1.395,-2.893 1.328,-3.046 1.252,-3.187 1.16,-3.315 1.105,-3.444 0.976,-3.536 1.05,-2.302 0.607,-1.068 0,0"
         style="fill:#dce8eb;fill-opacity:1;fill-rule:nonzero;stroke:none"
         id="path62967" />
    </g>
    <g
       id="g62969"
       transform="matrix(1.9158216,0,0,-1.9158216,55.545591,23.553935)">
      <path
         inkscape:connector-curvature="0"
         d="M 0,0 C 0,0.436 0.352,0.787 0.787,0.787 1.221,0.787 1.572,0.436 1.572,0 1.572,-0.434 1.221,-0.786 0.787,-0.786 0.352,-0.786 0,-0.434 0,0"
         style="fill:#000000;fill-opacity:1;fill-rule:nonzero;stroke:none"
         id="path62971" />
    </g>
    <g
       id="g62973"
       transform="matrix(1.9158216,0,0,-1.9158216,57.10599,22.915966)">
      <path
         inkscape:connector-curvature="0"
         d="M 0,0 C 0,0.193 0.156,0.349 0.35,0.349 0.542,0.349 0.699,0.193 0.699,0 0.699,-0.194 0.542,-0.35 0.35,-0.35 0.156,-0.35 0,-0.194 0,0"
         style="fill:#ffffff;fill-opacity:1;fill-rule:nonzero;stroke:none"
         id="path62975" />
    </g>
    <g
       id="g62977"
       transform="matrix(1.9158216,0,0,-1.9158216,55.951746,22.569769)">
      <path
         inkscape:connector-curvature="0"
         d="m 0,0 c 0.987,-2.114 0.295,-3.923 0.184,-4.327 -0.552,-1.197 -1.418,-2.91 -2.911,-3.039 -1.049,-0.093 -1.877,0.718 -2.393,1.547 -1.272,2.21 -0.903,5.433 0.534,7.459 l 0.663,0.57 c 0.019,-0.441 -0.221,-0.828 -0.129,-1.233 0.295,0.349 0.35,0.903 0.442,1.381 l 0.22,0.129 C -1.935,2.358 -0.571,1.346 0,0"
         style="fill:#ebcd00;fill-opacity:1;fill-rule:nonzero;stroke:none"
         id="path62979" />
    </g>
    <g
       id="g62981"
       transform="matrix(1.9158216,0,0,-1.9158216,46.484981,26.676525)">
      <path
         inkscape:connector-curvature="0"
         d="M 0,0 C 0,2.132 1.226,3.861 2.737,3.861 4.248,3.861 5.475,2.132 5.475,0 5.475,-2.133 4.248,-3.861 2.737,-3.861 1.226,-3.861 0,-2.133 0,0"
         style="fill:#feec19;fill-opacity:1;fill-rule:nonzero;stroke:none"
         id="path62983" />
    </g>
    <g
       id="g62985"
       transform="matrix(1.9158216,0,0,-1.9158216,40.6382,9.4416097)">
      <path
         inkscape:connector-curvature="0"
         d="m 0,0 c 0.516,-1.271 0.718,-3.076 0.184,-4.421 -0.718,1.731 -1.86,3.739 -3.757,4.384 0.111,0.515 0.221,1.105 0.736,1.363 C -1.732,1.547 -0.406,1.104 0,0"
         style="fill:#dce8eb;fill-opacity:1;fill-rule:nonzero;stroke:none"
         id="path62987" />
    </g>
    <g
       id="g62989"
       transform="matrix(1.9158216,0,0,-1.9158216,52.845969,9.6885514)">
      <path
         inkscape:connector-curvature="0"
         d="M 0,0 0.074,0.221 C 0.498,0.606 0.995,1.05 1.492,1.326 1.4,0.663 0.479,0.479 0,0"
         style="fill:#b08c4b;fill-opacity:1;fill-rule:nonzero;stroke:none"
         id="path62991" />
    </g>
    <g
       id="g62993"
       transform="matrix(1.9158216,0,0,-1.9158216,58.773061,9.9355085)">
      <path
         inkscape:connector-curvature="0"
         d="M 0,0 C 0.498,0.313 1.087,0.976 1.806,1.067 1.401,0.404 0,0 0,0"
         style="fill:#b08c4b;fill-opacity:1;fill-rule:nonzero;stroke:none"
         id="path62995" />
    </g>
    <g
       id="g62997"
       transform="matrix(1.9158216,0,0,-1.9158216,33.085265,10.18245)">
      <path
         inkscape:connector-curvature="0"
         d="m 0,0 c -0.018,-0.995 0.461,-1.879 0.849,-2.744 -1.216,0.515 -2.654,0.626 -3.98,0.755 -0.239,0.515 -0.349,1.252 0.092,1.712 C -2.21,0.681 -0.829,0.57 0,0"
         style="fill:#dce8eb;fill-opacity:1;fill-rule:nonzero;stroke:none"
         id="path62999" />
    </g>
    <g
       id="g63001"
       transform="matrix(1.9158216,0,0,-1.9158216,40.391289,17.980427)">
      <path
         inkscape:connector-curvature="0"
         d="M 0,0 C -0.718,0.405 -1.639,0.847 -2.431,1.142 -2.965,2.007 -3.389,2.928 -3.444,3.978 -1.713,3.388 -0.663,1.564 0,0"
         style="fill:#bfced1;fill-opacity:1;fill-rule:nonzero;stroke:none"
         id="path63003" />
    </g>
    <g
       id="g63005"
       transform="matrix(1.9158216,0,0,-1.9158216,57.644719,13.394716)">
      <path
         inkscape:connector-curvature="0"
         d="M 0,0 0.056,0.036 0.186,0 0,0 z"
         style="fill:#000000;fill-opacity:1;fill-rule:nonzero;stroke:none"
         id="path63007" />
    </g>
    <g
       id="g63009"
       transform="matrix(1.9158216,0,0,-1.9158216,25.39577,14.947681)">
      <path
         inkscape:connector-curvature="0"
         d="m 0,0 c -2.505,-2.173 -4.566,-10.438 0.57,-15.194 -0.717,-0.166 -1.639,0.073 -2.376,0.313 -4.867,5.632 -2.688,12.505 -1.694,13.997 0.646,0.811 1.75,0.645 2.652,0.848 C -0.535,-0.092 -0.313,0.056 0,0"
         style="fill:#ebcd00;fill-opacity:1;fill-rule:nonzero;stroke:none"
         id="path63011" />
    </g>
    <g
       id="g63013"
       transform="matrix(1.9158216,0,0,-1.9158216,28.604388,16.88591)">
      <path
         inkscape:connector-curvature="0"
         d="m 0,0 c -2.19,-1.695 -3.618,-8.866 0.626,-13.74 0.093,-0.019 0.148,-0.129 0.222,-0.185 -0.406,-0.221 -1.032,-0.11 -1.511,-0.258 C -7.125,-8.133 -2.522,0 -1.233,1.012 l 0.349,0 L 0,0 z"
         style="fill:#000000;fill-opacity:1;fill-rule:nonzero;stroke:none"
         id="path63015" />
    </g>
    <g
       id="g63017"
       transform="matrix(1.9158216,0,0,-1.9158216,30.40618,15.194623)">
      <path
         inkscape:connector-curvature="0"
         d="M 0,0 C -0.24,-0.185 -0.424,-0.516 -0.718,-0.57 L -1.326,0.093 C -0.884,0.056 -0.387,0.166 0,0"
         style="fill:#58595a;fill-opacity:1;fill-rule:nonzero;stroke:none"
         id="path63019" />
    </g>
    <g
       id="g63021"
       transform="matrix(1.9158216,0,0,-1.9158216,34.037658,16.111351)">
      <path
         inkscape:connector-curvature="0"
         d="m 0,0 c -0.349,-0.276 -0.606,-0.553 -0.883,-0.884 -0.515,0.073 -0.958,0.331 -1.419,0.571 l 0.664,0.701 C -1.066,0.331 -0.478,0.202 0,0"
         style="fill:#fff5a0;fill-opacity:1;fill-rule:nonzero;stroke:none"
         id="path63023" />
    </g>
    <g
       id="g63025"
       transform="matrix(1.9158216,0,0,-1.9158216,37.921565,17.559513)">
      <path
         inkscape:connector-curvature="0"
         d="M 0,0 C -0.59,-1.141 -1.75,-0.239 -2.652,-0.257 -2.597,0.02 -2.1,0.443 -1.768,0.664 -1.142,0.517 -0.553,0.295 0,0"
         style="fill:#58595a;fill-opacity:1;fill-rule:nonzero;stroke:none"
         id="path63027" />
    </g>
    <g
       id="g63029"
       transform="matrix(1.9158216,0,0,-1.9158216,20.984169,43.209682)">
      <path
         inkscape:connector-curvature="0"
         d="m 0,0 c -1.603,0.497 -3.39,1.657 -3.757,3.444 -1.031,2.726 -0.939,6.133 0.276,8.747 0.626,0.738 1.271,1.346 2.063,1.769 C -2.486,12.321 -4.336,4.979 0,0"
         style="fill:#000000;fill-opacity:1;fill-rule:nonzero;stroke:none"
         id="path63031" />
    </g>
    <g
       id="g63033"
       transform="matrix(1.9158216,0,0,-1.9158216,31.6766,18.650198)">
      <path
         inkscape:connector-curvature="0"
         d="M 0,0 C -1.566,-2.026 -2.45,-8.436 1.104,-12.285 0.681,-12.636 0.092,-12.709 -0.405,-12.911 -6.235,-6.362 -2.211,0.018 -1.419,0.755 -0.94,0.533 -0.277,0.164 0,0"
         style="fill:#ebcd00;fill-opacity:1;fill-rule:nonzero;stroke:none"
         id="path63035" />
    </g>
    <g
       id="g63037"
       transform="matrix(1.9158216,0,0,-1.9158216,40.144378,18.650198)">
      <path
         inkscape:connector-curvature="0"
         d="m 0,0 -1.418,0 0.534,0.478 C -0.571,0.367 -0.258,0.164 0,0"
         style="fill:#fff5a0;fill-opacity:1;fill-rule:nonzero;stroke:none"
         id="path63039" />
    </g>
    <g
       id="g63041"
       transform="matrix(1.9158216,0,0,-1.9158216,46.636408,18.582761)">
      <path
         inkscape:connector-curvature="0"
         d="m 0,0 c -0.055,-0.423 -0.498,-0.699 -0.607,-1.104 -1.18,-2.321 -1.327,-5.784 0.478,-7.828 0.166,-0.22 0.682,-0.332 0.534,-0.663 -0.534,-0.681 -1.326,-0.847 -2.118,-0.737 -1.529,0.479 -2.191,2.101 -2.431,3.481 -0.294,2.044 -0.147,4.218 0.884,5.875 C -2.542,0.166 -1.087,0.351 0,0"
         style="fill:#b08c4b;fill-opacity:1;fill-rule:nonzero;stroke:none"
         id="path63043" />
    </g>
    <g
       id="g63045"
       transform="matrix(1.9158216,0,0,-1.9158216,36.228439,19.321885)">
      <path
         inkscape:connector-curvature="0"
         d="m 0,0 c -1.935,-2.966 -1.935,-7.515 -0.129,-10.536 l 0.533,-0.607 C -0.02,-11.401 -0.497,-11.714 -1.014,-11.862 -4.791,-6.931 -3.445,-1.364 -2.026,0.294 -1.363,0.202 -0.72,-0.037 0,0"
         style="fill:#000000;fill-opacity:1;fill-rule:nonzero;stroke:none"
         id="path63047" />
    </g>
    <g
       id="g63049"
       transform="matrix(1.9158216,0,0,-1.9158216,40.21534,19.428588)">
      <path
         inkscape:connector-curvature="0"
         d="m 0,0 c -1.713,-2.247 -1.842,-5.986 -0.571,-8.49 0.295,-0.387 0.442,-0.792 0.884,-1.179 -0.129,-0.185 -1.271,-1.014 -1.676,-1.289 -2.21,2.744 -2.413,6.776 -1.033,9.981 0.37,0.314 0.388,1.309 1.07,0.94 C -0.755,-0.092 -0.517,0.056 0,0"
         style="fill:#ebcd00;fill-opacity:1;fill-rule:nonzero;stroke:none"
         id="path63051" />
    </g>
    <g
       id="g63053"
       transform="matrix(1.9158216,0,0,-1.9158216,55.704834,24.334042)">
      <path
         inkscape:connector-curvature="0"
         d="m 0,0 c 0.486,-1.299 0.332,-2.302 -0.222,-3.186 -0.33,-0.405 -0.772,-0.754 -1.325,-0.792 -1.123,-0.239 -1.937,0.477 -2.468,1.584 -0.552,0.957 -0.35,2.376 0.165,3.279 0.461,0.699 1.217,1.105 2.044,0.975 C -1.271,1.64 -0.397,1.124 0,0"
         style="fill:#000000;fill-opacity:1;fill-rule:nonzero;stroke:none"
         id="path63055" />
    </g>
    <g
       id="g63057"
       transform="matrix(1.9158216,0,0,-1.9158216,13.715696,37.952483)">
      <path
         inkscape:connector-curvature="0"
         d="m 0,0 c -1.51,1.988 -1.824,5.084 -0.939,7.459 l 0.588,1.068 C -0.792,7.017 -1.276,3.143 0,0"
         style="fill:#ebcd00;fill-opacity:1;fill-rule:nonzero;stroke:none"
         id="path63059" />
    </g>
    <g
       id="g63061"
       transform="matrix(1.9158216,0,0,-1.9158216,48.08247,32.307891)">
      <path
         inkscape:connector-curvature="0"
         d="M 0,0 -0.258,-0.073 C -0.276,-0.46 0.459,-1.761 1.677,-1.179 1.438,-1.565 1.05,-1.51 0.626,-1.454 c -0.57,0.221 -1.05,0.735 -1.196,1.325 -0.165,0.074 -0.277,-0.238 -0.406,0 C -0.718,0.093 -0.276,0.368 0,0"
         style="fill:#000000;fill-opacity:1;fill-rule:nonzero;stroke:none"
         id="path63063" />
    </g>
    <g
       id="g63065"
       transform="matrix(1.9158216,0,0,-1.9158216,10.75215,34.143248)">
      <path
         inkscape:connector-curvature="0"
         d="m 0,0 -0.442,-0.275 0.313,0.626 C -0.074,0.276 -0.056,0.111 0,0"
         style="fill:#707072;fill-opacity:1;fill-rule:nonzero;stroke:none"
         id="path63067" />
    </g>
    <g
       id="g63069"
       transform="matrix(1.9158216,0,0,-1.9158216,12.763456,34.423923)">
      <path
         inkscape:connector-curvature="0"
         d="M 0,0 0.055,-0.129 0,0 z"
         style="fill:#ffffff;fill-opacity:1;fill-rule:nonzero;stroke:none"
         id="path63071" />
    </g>
    <g
       id="g63073"
       transform="matrix(1.9158216,0,0,-1.9158216,39.766271,28.126418)">
      <path
         inkscape:connector-curvature="0"
         d="M 0,0 C 0,1.694 0.439,3.068 0.979,3.068 1.521,3.068 1.958,1.694 1.958,0 1.958,-1.695 1.521,-3.069 0.979,-3.069 0.439,-3.069 0,-1.695 0,0"
         style="fill:#c9ac7a;fill-opacity:1;fill-rule:nonzero;stroke:none"
         id="path63075" />
    </g>
    <g
       id="g63077"
       transform="matrix(1.9158216,0,0,-1.9158216,48.049058,27.121761)">
      <path
         inkscape:connector-curvature="0"
         d="M 0,0 C -0.232,1.465 0.435,2.787 1.489,2.954 2.544,3.121 3.586,2.069 3.817,0.604 4.05,-0.859 3.383,-2.183 2.329,-2.35 1.274,-2.517 0.231,-1.465 0,0"
         style="fill:#ffffff;fill-opacity:1;fill-rule:nonzero;stroke:none"
         id="path63079" />
    </g>
    <g
       id="g63081"
       transform="matrix(1.9158216,0,0,-1.9158216,48.204163,27.029986)">
      <path
         inkscape:connector-curvature="0"
         d="M 0,0 C -0.11,0.694 -0.018,1.358 0.224,1.882 0.15,1.505 0.143,1.09 0.21,0.663 0.441,-0.802 1.484,-1.854 2.539,-1.687 3.093,-1.599 3.54,-1.192 3.805,-0.614 3.63,-1.532 3.077,-2.231 2.33,-2.351 1.274,-2.518 0.232,-1.466 0,0"
         style="fill:#dce8eb;fill-opacity:1;fill-rule:nonzero;stroke:none"
         id="path63083" />
    </g>
    <g
       id="g63085"
       transform="matrix(1.9158216,0,0,-1.9158216,48.22654,25.136587)">
      <path
         inkscape:connector-curvature="0"
         d="M 0,0 C 0,0.602 0.487,1.088 1.088,1.088 1.69,1.088 2.177,0.602 2.177,0 2.177,-0.602 1.69,-1.089 1.088,-1.089 0.487,-1.089 0,-0.602 0,0"
         style="fill:#000000;fill-opacity:1;fill-rule:nonzero;stroke:none"
         id="path63087" />
    </g>
    <g
       id="g63089"
       transform="matrix(1.9158216,0,0,-1.9158216,50.035842,24.491154)">
      <path
         inkscape:connector-curvature="0"
         d="M 0,0 C 0,0.319 0.258,0.577 0.576,0.577 0.895,0.577 1.152,0.319 1.152,0 1.152,-0.318 0.895,-0.576 0.576,-0.576 0.258,-0.576 0,-0.318 0,0"
         style="fill:#ffffff;fill-opacity:1;fill-rule:nonzero;stroke:none"
         id="path63091" />
    </g>
    <g
       id="g63093"
       transform="matrix(1.9158216,0,0,-1.9158216,40.6382,9.4416097)">
      <path
         inkscape:connector-curvature="0"
         d="m 0,0 c 0.516,-1.271 0.718,-3.076 0.184,-4.421 l -0.073,0.175 c 0.252,1.226 0.04,2.66 -0.391,3.721 C -0.685,0.58 -2.011,1.021 -3.117,0.801 -3.241,0.739 -3.341,0.658 -3.424,0.563 -3.319,0.88 -3.155,1.166 -2.837,1.326 -1.732,1.547 -0.406,1.104 0,0"
         style="fill:#ffffff;fill-opacity:1;fill-rule:nonzero;stroke:none"
         id="path63095" />
    </g>
    <g
       id="g63097"
       transform="matrix(1.9158216,0,0,-1.9158216,32.901959,10.10007)">
      <path
         inkscape:connector-curvature="0"
         d="m 0,0 c 1.244,-0.578 2.909,-2.09 3.688,-3.987 l -0.71,0.957 c -0.653,1.07 -1.786,1.972 -2.824,2.456 -1.05,0.531 -2.604,0.407 -2.979,-0.965 -0.049,-0.13 -0.067,-0.26 -0.063,-0.386 -0.14,0.305 -0.215,0.625 -0.091,0.959 C -2.59,0.253 -1.05,0.531 0,0"
         style="fill:#ffffff;fill-opacity:1;fill-rule:nonzero;stroke:none"
         id="path63099" />
    </g>
    <g
       id="g63101"
       transform="matrix(1.9158216,0,0,-1.9158216,24.336857,16.070153)">
      <path
         inkscape:connector-curvature="0"
         d="m 0,0 c -1.543,-1.949 -2.694,-6.12 -1.657,-9.961 -0.853,0.192 -1.635,0.515 -2.307,0.936 -0.846,3.598 0.076,6.9 0.777,8.306 C -2.25,-0.287 -1.162,-0.028 0,0"
         style="fill:#feec19;fill-opacity:1;fill-rule:nonzero;stroke:none"
         id="path63103" />
    </g>
    <g
       id="g63105"
       transform="matrix(1.9158216,0,0,-1.9158216,12.812041,22.523023)">
      <path
         inkscape:connector-curvature="0"
         d="m 0,0 c -0.141,-0.622 -0.269,-1.463 -0.322,-2.416 -0.041,0.229 -0.063,0.464 -0.063,0.702 0,0.601 0.135,1.178 0.385,1.714"
         style="fill:#feec19;fill-opacity:1;fill-rule:nonzero;stroke:none"
         id="path63107" />
    </g>
    <g
       id="g63109"
       transform="matrix(1.9158216,0,0,-1.9158216,34.166708,32.311722)">
      <path
         inkscape:connector-curvature="0"
         d="m 0,0 c -0.284,1.931 -0.005,3.968 0.762,5.748 0.037,0.031 0.07,0.069 0.1,0.111 C 1.389,5.129 1.69,4.289 1.69,3.396 1.69,2.091 1.051,0.9 0,0"
         style="fill:#feec19;fill-opacity:1;fill-rule:nonzero;stroke:none"
         id="path63111" />
    </g>
    <g
       id="g63113"
       transform="matrix(1.9158216,0,0,-1.9158216,35.467014,20.627709)">
      <path
         inkscape:connector-curvature="0"
         d="m 0,0 c -0.96,-1.852 -1.267,-4.161 -0.949,-6.317 -0.489,-0.372 -1.054,-0.686 -1.675,-0.927 -1.057,3.649 -0.051,6.998 0.995,8.22 C -1.363,0.938 -1.102,0.879 -0.836,0.821 -0.521,0.571 -0.242,0.296 0,0"
         style="fill:#58595a;fill-opacity:1;fill-rule:nonzero;stroke:none"
         id="path63115" />
    </g>
    <g
       id="g63117"
       transform="matrix(1.9158216,0,0,-1.9158216,31.6766,18.650198)">
      <path
         inkscape:connector-curvature="0"
         d="M 0,0 C -1.105,-1.431 -1.871,-5.041 -0.978,-8.396 -1.582,-8.601 -2.236,-8.735 -2.92,-8.791 -4.664,-3.895 -2.041,0.175 -1.419,0.755 -0.94,0.533 -0.277,0.164 0,0"
         style="fill:#feec19;fill-opacity:1;fill-rule:nonzero;stroke:none"
         id="path63119" />
    </g>
    <g
       id="g63121"
       transform="matrix(1.9158216,0,0,-1.9158216,12.435927,28.128334)">
      <path
         inkscape:connector-curvature="0"
         d="M 0,0 C 0.043,1.344 0.305,2.677 0.786,3.871 1.275,4.482 1.929,5.01 2.697,5.414 2.038,3.856 1.354,0.704 1.954,-2.535 1.008,-1.867 0.315,-0.991 0,0"
         style="fill:#58595a;fill-opacity:1;fill-rule:nonzero;stroke:none"
         id="path63123" />
    </g>
    <g
       id="g63125"
       transform="matrix(1.9158216,0,0,-1.9158216,28.604388,16.88591)">
      <path
         inkscape:connector-curvature="0"
         d="m 0,0 c -1.637,-1.268 -2.848,-5.592 -1.585,-9.729 -0.143,-0.008 -0.287,-0.011 -0.433,-0.011 -0.545,0 -1.077,0.051 -1.584,0.146 -1.285,4.232 0.637,8.409 1.836,10.019 0.539,-0.017 1.062,-0.081 1.561,-0.191 L 0,0 z"
         style="fill:#58595a;fill-opacity:1;fill-rule:nonzero;stroke:none"
         id="path63127" />
    </g>
    <g
       id="g63129"
       transform="matrix(1.9158216,0,0,-1.9158216,7.2347022,21.112411)">
      <path
         inkscape:connector-curvature="0"
         d="m 0,0 c 0,0 -3.682,-0.178 -1.462,-3.514 0,0 -1.065,2.533 1.462,3.514"
         style="fill:#d0bcd7;fill-opacity:1;fill-rule:nonzero;stroke:none"
         id="path63131" />
    </g>
    <g
       id="g63133"
       transform="matrix(1.9158216,0,0,-1.9158216,2.3835353,25.15173)">
      <path
         inkscape:connector-curvature="0"
         d="M 0,0 C -0.724,1.463 0.743,1.926 0.743,1.926 -1.853,1.441 0,0 0,0"
         style="fill:#d0bcd7;fill-opacity:1;fill-rule:nonzero;stroke:none"
         id="path63135" />
    </g>
    <g
       id="g63137"
       transform="matrix(1.9158216,0,0,-1.9158216,42.941171,11.518161)">
      <path
         inkscape:connector-curvature="0"
         d="M 0,0 C 0,0 2.034,1.753 -0.736,2.672 -0.736,2.672 1.011,1.697 0,0"
         style="fill:#d0bcd7;fill-opacity:1;fill-rule:nonzero;stroke:none"
         id="path63139" />
    </g>
    <g
       id="g63141"
       transform="matrix(1.9158216,0,0,-1.9158216,43.914255,7.024226)">
      <path
         inkscape:connector-curvature="0"
         d="M 0,0 C 1.072,-0.516 0.438,-1.438 0.438,-1.438 1.709,0.003 0,0 0,0"
         style="fill:#d0bcd7;fill-opacity:1;fill-rule:nonzero;stroke:none"
         id="path63143" />
    </g>
    <g
       id="g63689"
       transform="matrix(1.9158216,0,0,-1.9158216,28.30506,49.973115)">
      <path
         inkscape:connector-curvature="0"
         d="m 0,0 c -2.188,0.3 -4.332,-0.687 -5.806,-2.374 -1.217,-1.292 -1.244,-2.303 -1.501,-3.533 0,0 -0.159,-0.401 -0.269,-0.031 -0.043,2.43 2.235,4.803 4.003,5.594 C -2.487,0.057 -1.41,0.374 0,0"
         style="fill:#d0bcd7;fill-opacity:1;fill-rule:nonzero;stroke:none"
         id="path63691" />
    </g>
    <g
       id="g63981"
       transform="matrix(1.9158216,0,0,-1.9158216,18.3762,61.378185)">
      <path
         inkscape:connector-curvature="0"
         d="m 0,0 c 0,0 -0.86,3.807 -3.931,0.878 0,0 2.444,1.577 3.931,-0.878"
         style="fill:#d0bcd7;fill-opacity:1;fill-rule:nonzero;stroke:none"
         id="path63983" />
    </g>
    <g
       id="g63985"
       transform="matrix(1.9158216,0,0,-1.9158216,13.274138,57.062038)">
      <path
         inkscape:connector-curvature="0"
         d="M 0,0 C 1.394,1.023 2.146,-0.421 2.146,-0.421 1.163,2.195 0,0 0,0"
         style="fill:#d0bcd7;fill-opacity:1;fill-rule:nonzero;stroke:none"
         id="path63987" />
    </g>
    <g
       id="g64241"
       transform="matrix(1.9158216,0,0,-1.9158216,63.935051,48.090996)">
      <path
         inkscape:connector-curvature="0"
         d="M 0,0 C -0.768,0 -1.381,-0.558 -2.149,-0.422 -1.688,0 -0.768,0.134 0,0"
         style="fill:#c9ac7a;fill-opacity:1;fill-rule:nonzero;stroke:none"
         id="path64243" />
    </g>
  </g>
</svg>
