<?xml version="1.0" encoding="UTF-8" standalone="no"?>
<!-- Created with Inkscape (http://www.inkscape.org/) -->

<svg
   xmlns:dc="http://purl.org/dc/elements/1.1/"
   xmlns:cc="http://creativecommons.org/ns#"
   xmlns:rdf="http://www.w3.org/1999/02/22-rdf-syntax-ns#"
   xmlns:svg="http://www.w3.org/2000/svg"
   xmlns="http://www.w3.org/2000/svg"
   xmlns:sodipodi="http://sodipodi.sourceforge.net/DTD/sodipodi-0.dtd"
   xmlns:inkscape="http://www.inkscape.org/namespaces/inkscape"
   width="64px"
   height="64px"
   id="svg179851"
   version="1.1"
   inkscape:version="0.48.5 r10040"
   sodipodi:docname="Nowy dokument 61">
  <defs
     id="defs179853" />
  <sodipodi:namedview
     id="base"
     pagecolor="#ffffff"
     bordercolor="#666666"
     borderopacity="1.0"
     inkscape:pageopacity="0.0"
     inkscape:pageshadow="2"
     inkscape:zoom="5.5"
     inkscape:cx="32"
     inkscape:cy="32"
     inkscape:current-layer="layer1"
     showgrid="true"
     inkscape:document-units="px"
     inkscape:grid-bbox="true"
     inkscape:window-width="1366"
     inkscape:window-height="706"
     inkscape:window-x="-8"
     inkscape:window-y="-8"
     inkscape:window-maximized="1" />
  <metadata
     id="metadata179856">
    <rdf:RDF>
      <cc:Work
         rdf:about="">
        <dc:format>image/svg+xml</dc:format>
        <dc:type
           rdf:resource="http://purl.org/dc/dcmitype/StillImage" />
        <dc:title></dc:title>
      </cc:Work>
    </rdf:RDF>
  </metadata>
  <g
     id="layer1"
     inkscape:label="Layer 1"
     inkscape:groupmode="layer">
    <g
       transform="matrix(2.3713928,0,0,-2.3713928,25.511872,1.9698629)"
       id="g11573">
      <path
         id="path11575"
         style="fill:#000000;fill-opacity:1;fill-rule:nonzero;stroke:none"
         d="M 0,0 C 0.146,-0.205 0.214,-0.498 0.068,-0.723 -0.527,-0.955 0.175,-1.336 0.117,-1.688 0.408,-2.809 0.38,-3.93 0.039,-5.031 0.214,-5.148 0.408,-5.324 0.555,-5.383 1.609,-5.092 2.652,-5.5 3.393,-6.172 4.465,-6.377 5.509,-7.305 5.869,-8.357 6.27,-8.883 5.752,-9.564 6.123,-10.082 c 0.175,-1.268 0.203,-2.779 -0.741,-3.627 -0.021,-1.055 -0.146,-2.029 -0.663,-2.906 0.381,-0.545 0.595,-1.16 0.73,-1.805 0.127,-0.066 0.293,-0.037 0.42,-0.115 0.567,-0.02 0.955,-0.819 1.619,-0.488 0.487,0.009 0.965,-0.127 1.355,-0.45 0.819,0.313 1.716,0 2.358,-0.535 0.392,-0.486 0.83,-0.984 0.654,-1.687 -0.301,-0.965 -1.375,-1.52 -2.31,-1.588 -0.469,-0.127 -0.975,0.146 -1.502,0.029 -0.038,-0.322 -0.078,-0.684 -0.321,-0.869 -0.254,-0.127 -0.546,-0.088 -0.781,0.068 -0.262,0.254 -0.067,1.092 -0.74,0.772 -0.224,-0.225 -0.127,-0.635 -0.449,-0.772 -0.264,-0.144 -0.614,-0.224 -0.868,-0.019 -0.195,0.244 -0.185,0.586 -0.282,0.888 -0.157,0.086 -0.372,0.118 -0.556,0.067 -0.332,-0.194 -0.155,-0.701 -0.585,-0.819 -0.322,-0.068 -0.645,0.01 -0.916,0.118 -0.352,0.273 -0.313,0.73 -0.205,1.072 0.039,0.254 -0.205,0.342 -0.381,0.43 -0.467,-0.02 -0.458,-0.684 -0.955,-0.664 -0.352,0.322 -0.507,-0.291 -0.868,-0.086 -0.273,0.173 -0.615,0.457 -0.585,0.818 0.381,0.479 -0.37,0.584 -0.535,0.906 -0.274,-0.115 -0.537,-0.4 -0.849,-0.273 -0.177,0.107 -0.332,0.263 -0.44,0.439 -0.086,0.44 0.323,0.701 0.556,0.965 -0.029,0.215 -0.204,0.381 -0.272,0.584 -0.381,0.039 -0.8,0.061 -0.986,0.44 -0.058,0.263 -0.029,0.546 0.166,0.732 0.245,0.156 0.566,0.215 0.859,0.184 0.078,0.244 0.05,0.527 0.117,0.771 0.039,0.137 0.253,0.391 0.028,0.447 -0.261,0.061 -0.73,0 -0.769,0.42 -0.02,0.205 0.058,0.381 0.156,0.537 0.38,0.496 1.287,-0.048 1.501,0.653 0.049,0.215 0.282,0.449 0.137,0.654 -0.275,0.166 -0.741,0.223 -0.771,0.633 0.02,0.303 0.166,0.595 0.42,0.752 0.574,0.144 1.287,-0.547 1.638,0.232 0.048,0.186 0.214,0.332 0.166,0.518 -0.353,0.263 -1.015,0.019 -1.142,0.556 -0.01,0.213 0.069,0.399 0.235,0.545 0.283,0.186 0.759,0.069 0.886,0.489 -0.088,0.566 -0.731,0.681 -1.17,0.837 -1.062,0.34 -2.574,0.584 -2.787,1.969 -0.049,0.362 -0.03,0.762 0.164,1.055 -0.283,0.291 -0.311,0.769 -0.184,1.148 0.077,0.323 0.614,0.547 0.35,0.938 -0.339,1.14 -1.548,2.349 -2.69,2.689 -0.185,-0.193 -0.399,-0.437 -0.702,-0.398 -0.186,-0.01 -0.38,0.068 -0.449,0.254 -0.097,0.42 0.127,0.779 0.449,1.033 0.871,0.217 0.808,-0.439 0.79,-0.654 1.384,-0.205 2.272,-1.383 2.925,-2.534 0.107,-0.156 0.078,-0.38 0.234,-0.507 0.283,0.088 0.518,-0.059 0.75,-0.147 l 0.234,-0.398 c 0.186,0.379 0.498,0.75 0.916,0.867 0.488,1.336 0.577,2.525 0.186,3.93 -0.225,-0.041 -0.585,-0.12 -0.77,0.078 -0.185,0.156 -0.234,0.437 -0.146,0.652 0.136,0.176 0.322,0.342 0.516,0.44 C -0.479,0.154 -0.195,0.186 0,0"
         inkscape:connector-curvature="0" />
    </g>
    <g
       transform="matrix(2.3713928,0,0,-2.3713928,33.325384,17.115474)"
       id="g11577">
      <path
         id="path11579"
         style="fill:#09803b;fill-opacity:1;fill-rule:nonzero;stroke:none"
         d="m 0,0 c 0.486,-1.648 -0.779,-2.623 -1.307,-2.904 0.118,-0.022 1.795,1.099 1.639,1.968 l -0.051,0.868 c 1.24,-0.245 2.05,-1.463 2.244,-2.623 0.088,-1.469 -1.492,-2.184 -1.92,-2.34 0,0 1.57,0.398 1.852,1.189 L 2.574,-3.51 C 2.828,-4.807 2.886,-6.328 1.822,-7.273 1.248,-7.771 0.634,-8.201 -0.049,-8.424 c 0.147,-0.058 1.502,0.623 1.921,0.916 0.189,-3.197 -2.642,-4.33 -2.759,-4.426 0.194,-0.048 1.755,0.926 2.174,1.471 l 0.049,0 c 0.614,-0.828 0.829,-2.144 0.253,-3.06 -0.275,-0.715 -1.54,-1.92 -1.54,-1.92 1.111,0.711 2.008,1.802 2.126,3.138 0.692,-0.068 1.53,-0.381 1.783,-1.15 0.206,-0.635 0.157,-1.941 0.157,-1.941 0.156,0.878 0.36,1.775 -0.254,2.507 0.528,0.116 1.082,0.018 1.502,-0.283 1.004,-0.709 0.858,-2.342 0.858,-2.342 0.166,0.811 0.088,1.688 -0.507,2.272 0.809,0.265 1.608,-0.135 2.192,-0.66 0.276,-0.344 1.25,-1.774 -1.052,-2.664 -0.711,-0.282 -1.54,0.048 -2.271,-0.116 -0.156,-0.293 0.058,-0.781 -0.371,-0.918 -0.194,0.01 -0.419,-0.009 -0.517,0.186 0.03,0.273 -0.127,0.469 -0.233,0.682 -0.155,0.128 -0.42,0.068 -0.605,0.05 -0.448,-0.205 -0.136,-0.927 -0.77,-0.918 -0.185,-0.078 -0.36,0.039 -0.448,0.166 -0.157,0.282 0.049,0.731 -0.352,0.887 -0.205,0.059 -0.526,0.117 -0.702,-0.049 -0.304,-0.203 -0.136,-0.711 -0.585,-0.769 -0.292,0.029 -0.663,0.01 -0.799,0.283 -0.176,0.449 0.313,1.014 -0.322,1.268 -0.147,0.058 -0.341,0.146 -0.497,0.039 -0.293,-0.176 -0.332,-0.567 -0.673,-0.586 -0.292,0.019 -0.527,0.175 -0.652,0.449 0,0.342 0.339,0.545 0.418,0.867 0.087,0.352 -0.39,0.518 -0.566,0.772 0.049,0.046 0.243,-0.012 0.215,0.134 -0.312,0.032 -0.692,0.264 -1.034,0.078 0.215,0.186 0.088,0.528 0.03,0.743 -0.05,0.088 -0.108,0.214 -0.216,0.232 0.216,0 0.401,0.176 0.586,0.313 0.215,0.371 0.108,0.82 0,1.21 -0.117,0.272 -0.429,0.155 -0.635,0.282 0.206,-0.03 0.392,0.234 0.47,0.4 0.077,0.195 0.077,0.477 -0.069,0.633 0.156,0.019 0.4,0.051 0.585,0.117 0.184,0.147 0.216,0.371 0.304,0.557 0.184,0.281 0.535,0.603 0.417,0.896 -0.058,0.137 -0.214,0.176 -0.322,0.254 0.205,0.047 0.43,0.242 0.518,0.449 l 0.088,0.35 c 0.254,-0.049 0.486,-0.232 0.73,-0.029 0.283,0.41 0.731,0.877 0.488,1.384 -0.107,0.176 -0.283,0.176 -0.449,0.233 0.176,0.109 0.293,0.234 0.381,0.42 0.01,0.195 -0.01,0.371 -0.117,0.517 0.205,0.079 0.497,0.176 0.635,0.42 -0.104,0.961 -3.444,0.713 -4.73,1.52 -0.546,0.205 -1.102,0.703 -1.171,1.308 -0.028,0.291 -0.067,0.643 0.117,0.868 0.293,-0.186 0.702,-0.323 1.054,-0.166 l 0.536,0.564 c 0.235,-0.322 0.662,-0.564 1.073,-0.564 1.332,0.082 1.15,1.589 0.964,1.968 C -1.618,1.102 -0.693,0.691 0,0"
         inkscape:connector-curvature="0" />
    </g>
    <g
       transform="matrix(2.3713928,0,0,-2.3713928,34.761271,29.046426)"
       id="g11581">
      <path
         id="path11583"
         style="fill:#42984e;fill-opacity:1;fill-rule:nonzero;stroke:none"
         d="m 0,0 c 0,0 0.276,0.07 0.619,0.211 0.15,0.002 0.588,-0.063 0.449,-0.914 -0.166,-1.022 -1.519,-2.486 -1.519,-2.486 0,0 0.091,-0.002 0.203,-0.043 -0.133,-0.063 -0.269,-0.116 -0.406,-0.161 0.048,-0.019 0.223,0.039 0.453,0.139 0.225,-0.103 0.494,-0.373 0.303,-1.066 -0.305,-1.104 -1.518,-2.541 -1.518,-2.541 -0.041,-0.022 -0.066,-0.034 -0.076,-0.041 0.063,-0.018 0.272,0.076 0.539,0.228 0.466,0.147 1.121,0.225 1.193,-0.463 0.111,-1.076 -0.746,-3.148 -0.746,-3.148 0,0 0.473,0.615 1.084,1.125 -0.471,-0.621 -1.135,-1.252 -1.135,-1.252 0.649,0.414 1.223,0.957 1.613,1.603 0.377,0.237 0.77,0.379 1.118,0.291 1.102,-0.275 1.324,-1.656 1.324,-1.656 l 0.012,-0.191 0.078,0.443 c 0.158,0.404 0.508,1.141 0.932,1.018 0.55,-0.157 1.05,-1.135 1.101,-1.235 0.006,-0.209 -0.006,-0.343 -0.006,-0.343 0.037,0.179 0.061,0.363 0.072,0.544 0.13,0.379 0.492,1.161 1.288,1.329 0.115,-0.082 0.224,-0.17 0.326,-0.262 0.275,-0.344 1.25,-1.774 -1.053,-2.664 -0.711,-0.281 -1.539,0.049 -2.27,-0.115 -0.157,-0.293 0.057,-0.782 -0.372,-0.918 -0.194,0.009 -0.418,-0.01 -0.516,0.185 0.029,0.274 -0.127,0.469 -0.234,0.682 -0.155,0.129 -0.419,0.068 -0.604,0.051 -0.448,-0.205 -0.137,-0.928 -0.771,-0.918 -0.184,-0.078 -0.36,0.039 -0.448,0.166 -0.156,0.281 0.049,0.73 -0.351,0.886 -0.205,0.059 -0.527,0.118 -0.703,-0.048 -0.303,-0.204 -0.135,-0.711 -0.584,-0.77 -0.292,0.029 -0.664,0.01 -0.799,0.283 -0.176,0.449 0.312,1.014 -0.323,1.268 -0.146,0.058 -0.34,0.146 -0.497,0.039 -0.293,-0.176 -0.332,-0.567 -0.672,-0.586 -0.292,0.019 -0.528,0.176 -0.653,0.449 0,0.342 0.34,0.545 0.418,0.867 0.088,0.352 -0.39,0.518 -0.565,0.772 0.049,0.047 0.243,-0.012 0.215,0.135 -0.312,0.031 -0.693,0.263 -1.035,0.078 0.215,0.185 0.088,0.527 0.031,0.742 -0.05,0.088 -0.109,0.215 -0.216,0.232 0.216,0 0.4,0.176 0.586,0.313 0.215,0.371 0.107,0.82 0,1.211 -0.117,0.271 -0.43,0.154 -0.635,0.281 0.205,-0.029 0.392,0.234 0.47,0.4 0.077,0.196 0.077,0.477 -0.07,0.633 0.157,0.02 0.401,0.051 0.585,0.117 0.185,0.147 0.216,0.371 0.304,0.557 0.185,0.281 0.535,0.604 0.418,0.897 -0.059,0.136 -0.215,0.175 -0.322,0.253 0.205,0.047 0.429,0.243 0.517,0.45 l 0.088,0.349 c 0.254,-0.049 0.487,-0.232 0.731,-0.029 0.283,0.41 0.73,0.877 0.488,1.385 -0.107,0.175 -0.283,0.175 -0.449,0.232 0.176,0.11 0.293,0.235 0.381,0.42 0.009,0.195 -0.01,0.371 -0.118,0.518 0.206,0.078 0.498,0.175 0.635,0.42 -0.103,0.961 -3.443,0.712 -4.729,1.519 -0.546,0.205 -1.103,0.703 -1.171,1.309 -0.029,0.291 -0.068,0.642 0.117,0.867 0.293,-0.186 0.701,-0.322 1.054,-0.166 l 0.536,0.564 c 0.234,-0.322 0.662,-0.564 1.072,-0.564 0.767,0.047 1.031,0.566 1.084,1.07 0.783,-0.191 1.711,-0.64 1.381,-1.678 -0.359,-1.132 -1.574,-1.658 -1.574,-1.658 0,0 0.803,0.244 1.435,0.516 0.375,0.164 0.637,0.305 0.719,0.424 C -0.92,2.912 0.434,3.219 0.93,2.389 1.35,1.689 0.806,0.617 0.625,0.301 0.363,0.146 0.129,0.047 0,0"
         inkscape:connector-curvature="0" />
    </g>
    <g
       transform="matrix(2.3713928,0,0,-2.3713928,25.280196,2.2986329)"
       id="g11585">
      <path
         id="path11587"
         style="fill:#09803b;fill-opacity:1;fill-rule:nonzero;stroke:none"
         d="m 0,0 c 0.088,-0.164 0.039,-0.389 -0.049,-0.535 -0.224,-0.108 -0.449,-0.254 -0.722,-0.166 -0.098,0.058 -0.155,0.117 -0.214,0.205 C -1.063,0.055 -0.428,0.332 0,0"
         inkscape:connector-curvature="0" />
    </g>
    <g
       transform="matrix(2.3713928,0,0,-2.3713928,11.918119,6.1336489)"
       id="g11589">
      <path
         id="path11591"
         style="fill:#09803b;fill-opacity:1;fill-rule:nonzero;stroke:none"
         d="M 0,0 C -0.029,-0.283 0,-0.594 -0.283,-0.77 -0.43,-0.896 -0.664,-0.965 -0.85,-0.867 -1.005,-0.664 -0.859,-0.41 -0.801,-0.203 -0.537,0.236 -0.089,0.127 0,0"
         inkscape:connector-curvature="0" />
    </g>
    <g
       transform="matrix(2.3713928,0,0,-2.3713928,25.39592,13.669366)"
       id="g11593">
      <path
         id="path11595"
         style="fill:#09803b;fill-opacity:1;fill-rule:nonzero;stroke:none"
         d="M 0,0 -0.303,0.049 C -0.01,0.936 0.195,1.998 0.068,3.041 0.322,2.086 0.302,0.984 0,0"
         inkscape:connector-curvature="0" />
    </g>
    <g
       transform="matrix(2.3713928,0,0,-2.3713928,19.407433,14.340945)"
       id="g11597">
      <path
         id="path11599"
         style="fill:#09803b;fill-opacity:1;fill-rule:nonzero;stroke:none"
         d="m 0,0 c -0.059,-0.059 -0.176,-0.098 -0.263,-0.137 -0.137,1.2 -1.141,2.135 -2.155,2.78 L -2.604,2.74 C -1.277,2.447 -0.574,1.072 0,0"
         inkscape:connector-curvature="0" />
    </g>
    <g
       transform="matrix(2.3713928,0,0,-2.3713928,29.990503,20.459328)"
       id="g11601">
      <path
         id="path11603"
         style="fill:#000000;fill-opacity:1;fill-rule:nonzero;stroke:none"
         d="m 0,0 c -0.1,0.043 -0.177,0.102 -0.293,0.119 -0.131,-0.701 -0.503,-1.26 -1.27,-1.558 -1.001,-0.485 -2.077,0.148 -2.044,0.203 0.889,-0.397 2.826,-0.332 3.046,1.316 C -0.66,0.084 -0.753,-0.016 -0.83,0.043 -0.935,0.197 -0.722,0.207 -0.638,0.27 -0.205,0.311 0,0 0,0"
         inkscape:connector-curvature="0" />
    </g>
    <g
       transform="matrix(2.3713928,0,0,-2.3713928,31.61633,28.101663)"
       id="g11605">
      <path
         id="path11607"
         style="fill:#f5d75c;fill-opacity:1;fill-rule:nonzero;stroke:none"
         d="m 0,0 c -0.293,-0.389 -0.947,-0.066 -1.103,-0.633 -0.145,-0.205 -0.126,-0.478 -0.028,-0.701 0.166,-0.459 1.043,-0.107 0.731,-0.801 -0.147,-0.281 -0.313,-0.623 -0.585,-0.789 -0.4,0.069 -0.849,0.43 -1.238,0.088 -0.176,-0.176 -0.371,-0.389 -0.332,-0.674 -0.01,-0.39 0.389,-0.428 0.633,-0.584 -0.106,-0.418 -0.506,-0.732 -0.613,-1.15 -0.215,-0.244 -0.596,-0.108 -0.889,-0.186 -0.263,-0.273 -0.467,-0.564 -0.437,-0.955 0.029,-0.263 0.273,-0.459 0.507,-0.545 0.234,0.028 0.448,-0.099 0.428,-0.324 0.02,-0.33 0.108,-0.818 -0.311,-0.934 -0.215,-0.06 -0.507,-0.05 -0.585,-0.302 -0.088,-0.215 -0.137,-0.498 -0.02,-0.703 0.098,-0.186 0.244,-0.409 0.467,-0.448 0.244,-0.099 0.488,0.127 0.752,0.047 0.175,-0.222 0.361,-0.476 0.603,-0.633 0.01,-0.419 -0.545,-0.634 -0.418,-1.072 l 0.332,-0.469 c -0.088,-0.087 -0.254,-0.136 -0.351,-0.048 -0.166,0.175 -0.449,0.371 -0.381,0.634 0.42,0.498 -0.477,0.672 -0.604,1.053 -0.215,0.068 -0.439,-0.117 -0.634,-0.234 -0.069,0.234 -0.215,0.508 -0.487,0.535 0.117,0.314 0.624,0.4 0.467,0.82 -0.205,0.274 -0.322,0.584 -0.332,0.936 -0.018,0.039 -0.078,0.019 -0.117,0.019 -0.047,-0.107 -0.096,-0.252 -0.047,-0.371 l -0.4,0.07 c 0.088,0.145 0.166,0.379 0.096,0.584 l -0.116,0.254 c 0.195,0.106 0.566,-0.029 0.721,0.196 -0.01,0.672 0.264,1.236 0.498,1.822 -0.049,0.117 -0.166,0.049 -0.215,-0.029 l -0.205,-0.35 -0.467,0.096 c 0.088,0.068 0.205,0.217 0.252,0.371 0.01,0.127 0,0.244 -0.067,0.332 0.35,0.185 1.024,-0.127 1.141,0.467 0.086,0.302 0.34,0.547 0.262,0.888 -0.117,0.145 -0.262,0.233 -0.418,0.264 0.116,0.146 0.34,0.32 0.301,0.535 l -0.067,0.322 c 0.35,-0.039 0.731,-0.263 1.072,-0.039 0.311,0.282 0.448,0.633 0.565,1.004 -0.166,0.264 -0.488,0.352 -0.799,0.371 0.137,0.155 0.244,0.35 0.166,0.565 l -0.049,0.088 c 0.301,0.019 0.537,0.312 0.633,0.566 0.049,0.34 -0.273,0.516 -0.496,0.701 0,0 1.983,-0.099 2.184,-0.654"
         inkscape:connector-curvature="0" />
    </g>
    <g
       transform="matrix(2.3713928,0,0,-2.3713928,30.597333,29.829175)"
       id="g11609">
      <path
         id="path11611"
         style="fill:#fbea98;fill-opacity:1;fill-rule:nonzero;stroke:none"
         d="M 0,0 C 0.02,-0.186 0.01,-0.303 -0.088,-0.447 -0.215,-0.508 -0.361,-0.723 -0.488,-0.564 -0.535,-0.381 -0.595,-0.156 -0.438,0 -0.332,0.127 -0.029,0.342 0,0"
         inkscape:connector-curvature="0" />
    </g>
    <g
       transform="matrix(2.3713928,0,0,-2.3713928,25.995883,30.385029)"
       id="g11613">
      <path
         id="path11615"
         style="fill:#fbea98;fill-opacity:1;fill-rule:nonzero;stroke:none"
         d="m 0,0 c -0.087,-0.098 -0.097,-0.273 -0.253,-0.301 -0.156,-0.021 -0.166,0.155 -0.215,0.252 0.02,0.156 0.127,0.342 0.303,0.352 C 0.03,0.322 -0.048,0.098 0,0"
         inkscape:connector-curvature="0" />
    </g>
    <g
       transform="matrix(2.3713928,0,0,-2.3713928,23.661484,34.891625)"
       id="g11617">
      <path
         id="path11619"
         style="fill:#fbea98;fill-opacity:1;fill-rule:nonzero;stroke:none"
         d="m 0,0 c 0.078,-0.215 -0.098,-0.4 -0.254,-0.537 -0.116,0.078 -0.272,0.029 -0.282,0.215 -0.059,0.224 0.098,0.429 0.262,0.556 C -0.127,0.252 -0.01,0.137 0,0"
         inkscape:connector-curvature="0" />
    </g>
    <g
       transform="matrix(2.3713928,0,0,-2.3713928,27.823031,35.331565)"
       id="g11621">
      <path
         id="path11623"
         style="fill:#fbea98;fill-opacity:1;fill-rule:nonzero;stroke:none"
         d="m 0,0 c 0.02,-0.254 -0.117,-0.488 -0.322,-0.605 l -0.379,0 c -0.021,0.166 0.028,0.371 0.145,0.517 C -0.39,-0.02 -0.146,0.283 0,0"
         inkscape:connector-curvature="0" />
    </g>
    <g
       transform="matrix(2.3713928,0,0,-2.3713928,20.727369,41.204462)"
       id="g11625">
      <path
         id="path11627"
         style="fill:#fbea98;fill-opacity:1;fill-rule:nonzero;stroke:none"
         d="m 0,0 c -0.021,-0.146 -0.177,-0.166 -0.283,-0.215 -0.098,0.147 -0.07,0.332 0.027,0.469 C -0.031,0.564 0.146,0.146 0,0"
         inkscape:connector-curvature="0" />
    </g>
    <g
       transform="matrix(2.3713928,0,0,-2.3713928,24.400163,42.038054)"
       id="g11629">
      <path
         id="path11631"
         style="fill:#fbea98;fill-opacity:1;fill-rule:nonzero;stroke:none"
         d="m 0,0 c -0.02,-0.291 -0.029,-0.535 -0.312,-0.682 -0.097,0.02 -0.332,-0.058 -0.274,0.147 -0.047,0.291 0.148,0.476 0.274,0.701 C -0.166,0.234 -0.02,0.146 0,0"
         inkscape:connector-curvature="0" />
    </g>
    <g
       transform="matrix(2.3713928,0,0,-2.3713928,19.731612,47.47082)"
       id="g11633">
      <path
         id="path11635"
         style="fill:#fbea98;fill-opacity:1;fill-rule:nonzero;stroke:none"
         d="m 0,0 c -0.068,-0.049 -0.107,-0.166 -0.215,-0.117 -0.088,0.068 -0.117,0.215 -0.137,0.351 0,0.127 0.069,0.332 0.215,0.323 C 0.01,0.439 0.059,0.195 0,0"
         inkscape:connector-curvature="0" />
    </g>
    <g
       transform="matrix(2.3713928,0,0,-2.3713928,23.939411,49.203265)"
       id="g11637">
      <path
         id="path11639"
         style="fill:#fbea98;fill-opacity:1;fill-rule:nonzero;stroke:none"
         d="m 0,0 c 0.048,-0.176 0.048,-0.4 -0.088,-0.537 -0.156,0.01 -0.216,0.156 -0.304,0.254 -0.046,0.146 -0.076,0.32 -0.028,0.469 C -0.272,0.535 -0.03,0.164 0,0"
         inkscape:connector-curvature="0" />
    </g>
    <g
       transform="matrix(2.3713928,0,0,-2.3713928,21.510156,52.352664)"
       id="g11641">
      <path
         id="path11643"
         style="fill:#fbea98;fill-opacity:1;fill-rule:nonzero;stroke:none"
         d="M 0,0 0.049,-0.186 C -0.146,-0.195 -0.263,-0.01 -0.379,0.117 -0.361,0.43 -0.049,0.137 0,0"
         inkscape:connector-curvature="0" />
    </g>
    <g
       transform="matrix(2.3713928,0,0,-2.3713928,17.980822,17.161574)"
       id="g11645">
      <path
         id="path11647"
         style="fill:#ffffff;fill-opacity:1;fill-rule:nonzero;stroke:none"
         d="M 0,0 C 0,0.549 0.383,0.994 0.855,0.994 1.328,0.994 1.711,0.549 1.711,0 1.711,-0.549 1.328,-0.994 0.855,-0.994 0.383,-0.994 0,-0.549 0,0"
         inkscape:connector-curvature="0" />
    </g>
    <g
       transform="matrix(2.3713928,0,0,-2.3713928,22.496656,16.897686)"
       id="g11649">
      <path
         id="path11651"
         style="fill:#ffffff;fill-opacity:1;fill-rule:nonzero;stroke:none"
         d="M 0,0 C 0,0.578 0.414,1.049 0.926,1.049 1.436,1.049 1.85,0.578 1.85,0 1.85,-0.58 1.436,-1.049 0.926,-1.049 0.414,-1.049 0,-0.58 0,0"
         inkscape:connector-curvature="0" />
    </g>
    <g
       transform="matrix(2.3713928,0,0,-2.3713928,20.009539,19.519118)"
       id="g11653">
      <path
         id="path11655"
         style="fill:#dce8eb;fill-opacity:1;fill-rule:nonzero;stroke:none"
         d="m 0,0 c -0.158,0 -0.309,0.051 -0.436,0.139 l 0.024,0 c 0.471,0 0.855,0.445 0.855,0.994 0,0.363 -0.169,0.683 -0.42,0.855 C 0.485,1.975 0.855,1.535 0.855,0.994 0.855,0.445 0.473,0 0,0"
         inkscape:connector-curvature="0" />
    </g>
    <g
       transform="matrix(2.3713928,0,0,-2.3713928,24.692091,19.384802)"
       id="g11657">
      <path
         id="path11659"
         style="fill:#dce8eb;fill-opacity:1;fill-rule:nonzero;stroke:none"
         d="m 0,0 c -0.17,0 -0.326,0.049 -0.463,0.139 l 0.049,0 c 0.511,0 0.925,0.468 0.925,1.049 0,0.388 -0.187,0.726 -0.464,0.908 C 0.535,2.068 0.924,1.609 0.924,1.049 0.924,0.469 0.51,0 0,0"
         inkscape:connector-curvature="0" />
    </g>
    <g
       transform="matrix(2.3713928,0,0,-2.3713928,31.61633,28.166354)"
       id="g11661">
      <path
         id="path11663"
         style="fill:#f5d75c;fill-opacity:1;fill-rule:nonzero;stroke:none"
         d="m 0,0 c -0.293,-0.389 -0.947,-0.066 -1.103,-0.633 -0.145,-0.205 -0.126,-0.478 -0.028,-0.703 0.166,-0.457 1.043,-0.105 0.731,-0.799 -0.147,-0.283 -0.313,-0.623 -0.585,-0.789 -0.4,0.069 -0.849,0.43 -1.238,0.088 -0.176,-0.176 -0.371,-0.391 -0.332,-0.674 -0.01,-0.388 0.389,-0.428 0.633,-0.584 -0.106,-0.42 -0.506,-0.73 -0.613,-1.15 -0.215,-0.244 -0.596,-0.108 -0.889,-0.186 -0.263,-0.273 -0.467,-0.564 -0.437,-0.955 0.029,-0.263 0.273,-0.459 0.507,-0.547 0.234,0.03 0.448,-0.097 0.428,-0.322 0.02,-0.33 0.108,-0.818 -0.311,-0.935 -0.215,-0.059 -0.507,-0.049 -0.585,-0.301 -0.088,-0.217 -0.137,-0.498 -0.02,-0.703 0.098,-0.186 0.244,-0.411 0.467,-0.45 0.244,-0.095 0.488,0.127 0.752,0.049 0.175,-0.222 0.361,-0.476 0.603,-0.633 0.01,-0.419 -0.545,-0.634 -0.418,-1.072 l 0.332,-0.469 c -0.088,-0.087 -0.254,-0.136 -0.351,-0.048 -0.166,0.175 -0.449,0.371 -0.381,0.634 0.42,0.496 -0.477,0.672 -0.604,1.053 -0.215,0.068 -0.439,-0.117 -0.634,-0.234 -0.069,0.234 -0.215,0.508 -0.487,0.537 0.117,0.31 0.624,0.398 0.467,0.818 -0.205,0.274 -0.322,0.584 -0.332,0.936 -0.018,0.039 -0.213,-0.235 -0.164,-0.352 l -0.4,0.069 c 0.088,0.146 0.166,0.38 0.096,0.585 l -0.116,0.254 c 0.195,0.108 0.566,-0.031 0.721,0.196 -0.01,0.672 0.264,1.236 0.498,1.822 -0.049,0.117 -0.42,-0.381 -0.42,-0.381 l -0.467,0.1 c 0.088,0.066 0.205,0.213 0.252,0.369 0.01,0.127 0,0.244 -0.067,0.332 0.35,0.185 1.024,-0.127 1.141,0.467 0.086,0.302 0.34,0.547 0.262,0.888 -0.117,0.147 -0.262,0.235 -0.418,0.262 0.116,0.147 0.34,0.322 0.301,0.537 l -0.067,0.322 c 0.35,-0.039 0.731,-0.263 1.072,-0.039 0.311,0.284 0.448,0.633 0.565,1.004 -0.166,0.262 -0.488,0.352 -0.799,0.371 0.137,0.155 0.244,0.35 0.166,0.565 l -0.049,0.088 c 0.301,0.019 0.537,0.312 0.633,0.564 0.049,0.342 -0.273,0.518 -0.496,0.703 0,0 1.983,-0.099 2.184,-0.654"
         inkscape:connector-curvature="0" />
    </g>
    <g
       transform="matrix(2.3713928,0,0,-2.3713928,22.459662,43.242152)"
       id="g11665">
      <path
         id="path11667"
         style="fill:#fbea98;fill-opacity:1;fill-rule:nonzero;stroke:none"
         d="M 0,0 C 0.025,-0.24 0.23,-0.424 0.445,-0.521 0.326,-0.969 0.273,-1.475 0.277,-1.883 0.168,-1.92 0.077,-1.98 0.039,-2.105 -0.049,-2.32 -0.098,-2.604 0.02,-2.809 0.117,-2.994 0.264,-3.217 0.486,-3.256 0.613,-3.309 0.74,-3.271 0.869,-3.236 1.156,-3.566 1.498,-3.924 1.736,-4.168 1.637,-4.324 1.493,-4.465 1.434,-4.631 1.337,-4.576 1.223,-4.521 1.121,-4.467 1.029,-4.195 0.514,-4.025 0.419,-3.744 0.395,-3.736 0.372,-3.732 0.348,-3.73 0.256,-3.623 0.154,-3.5 0.043,-3.359 -0.07,-3.217 -0.16,-3.063 -0.23,-2.9 c 0.033,0.076 0.039,0.166 -0.004,0.277 -0.064,0.084 -0.12,0.174 -0.164,0.266 -0.09,0.435 -0.099,0.904 -0.088,1.359 0.02,0.018 0.039,0.037 0.056,0.062 -0.009,0.672 0.264,1.237 0.498,1.823 C 0.061,0.906 0.044,0.908 0.021,0.9 0.094,1.068 0.168,1.244 0.236,1.43 0.367,1.479 0.468,1.576 0.507,1.773 0.594,2.076 0.848,2.32 0.77,2.662 1.008,3.051 1.33,3.385 1.607,3.715 l 0.05,0.029 C 1.969,4.025 2.105,4.377 2.223,4.748 2.295,5.285 2.154,5.76 2.021,6.066 2.064,6.123 2.102,6.184 2.133,6.244 2.318,6.131 2.561,5.971 2.771,5.793 L 2.759,5.752 C 2.613,5.547 2.632,5.273 2.73,5.051 2.793,4.875 2.962,4.818 3.128,4.775 2.988,4.42 2.718,3.975 2.445,3.596 2.172,3.695 1.893,3.771 1.639,3.549 1.462,3.373 1.268,3.16 1.307,2.875 1.3,2.643 1.441,2.535 1.605,2.453 1.404,2.045 1.195,1.5 1.005,0.992 0.82,0.971 0.613,1.002 0.438,0.955 0.175,0.682 -0.029,0.391 0,0"
         inkscape:connector-curvature="0" />
    </g>
    <g
       transform="matrix(2.3713928,0,0,-2.3713928,30.79653,29.421485)"
       id="g11669">
      <path
         id="path11671"
         style="fill:#a0c597;fill-opacity:1;fill-rule:nonzero;stroke:none"
         d="M 0,0 C -0.016,0.029 -0.033,0.061 -0.055,0.09 0.15,0.168 0.442,0.266 0.58,0.51 0.477,1.471 -2.863,1.223 -4.149,2.029 -4.695,2.234 -5.252,2.732 -5.32,3.338 -5.349,3.629 -5.388,3.98 -5.203,4.205 -5.111,4.146 -5.009,4.094 -4.899,4.053 -4.982,3.84 -4.953,3.568 -4.93,3.338 -4.861,2.732 -4.306,2.234 -3.76,2.029 -2.475,1.223 0.866,1.471 0.969,0.51 0.889,0.367 0.418,0.162 0,0"
         inkscape:connector-curvature="0" />
    </g>
    <g
       transform="matrix(2.3713928,0,0,-2.3713928,28.059241,35.817796)"
       id="g11673">
      <path
         id="path11675"
         style="fill:#a0c597;fill-opacity:1;fill-rule:nonzero;stroke:none"
         d="M 0,0 0.066,0.262 C 0.32,0.213 0.553,0.029 0.797,0.232 1.08,0.643 1.527,1.109 1.285,1.617 1.178,1.793 1.002,1.793 0.836,1.85 0.9,1.889 0.955,1.932 1.006,1.977 1.313,1.836 1.625,1.699 1.675,1.617 1.918,1.109 1.306,0.297 1.022,-0.111 0.892,-0.223 0.434,-0.123 0,0"
         inkscape:connector-curvature="0" />
    </g>
    <g
       transform="matrix(2.3713928,0,0,-2.3713928,24.673594,41.820265)"
       id="g11677">
      <path
         id="path11679"
         style="fill:#a0c597;fill-opacity:1;fill-rule:nonzero;stroke:none"
         d="M 0,0 C -0.021,0.064 -0.051,0.123 -0.096,0.17 0.061,0.189 0.305,0.221 0.489,0.287 0.674,0.434 0.705,0.658 0.793,0.844 0.978,1.125 1.328,1.447 1.211,1.74 1.152,1.877 0.996,1.916 0.889,1.994 0.957,2.01 1.026,2.041 1.092,2.084 1.322,1.959 1.569,1.816 1.602,1.74 1.719,1.447 1.367,1.125 1.182,0.844 1.094,0.658 1.065,0.434 0.879,0.287 0.771,0.248 0.354,0.109 0,0"
         inkscape:connector-curvature="0" />
    </g>
    <g
       transform="matrix(2.3713928,0,0,-2.3713928,24.006512,48.48995)"
       id="g11681">
      <path
         id="path11683"
         style="fill:#a0c597;fill-opacity:1;fill-rule:nonzero;stroke:none"
         d="m 0,0 c -0.041,0.066 -0.092,0.133 -0.166,0.145 0.216,0 0.4,0.175 0.586,0.312 0.215,0.371 0.107,0.82 0,1.211 C 0.303,1.939 -0.01,1.822 -0.215,1.949 -0.1,1.934 0.011,2.01 0.098,2.107 0.38,1.996 0.73,1.852 0.81,1.668 0.916,1.277 1.025,0.828 0.81,0.457 0.681,0.361 0.295,0.131 0,0"
         inkscape:connector-curvature="0" />
    </g>
    <g
       transform="matrix(2.3713928,0,0,-2.3713928,28.281431,55.803325)"
       id="g11685">
      <path
         id="path11687"
         style="fill:#a0c597;fill-opacity:1;fill-rule:nonzero;stroke:none"
         d="m 0,0 c -0.047,-0.025 -0.1,-0.043 -0.164,-0.047 -0.292,0.02 -0.527,0.176 -0.652,0.449 0,0.342 0.339,0.545 0.418,0.868 0.087,0.351 -0.39,0.517 -0.566,0.771 0.049,0.047 0.243,-0.012 0.215,0.135 -0.312,0.031 -0.692,0.263 -1.034,0.078 0.112,0.098 0.131,0.236 0.115,0.377 C -1.189,2.57 -0.516,2.318 -0.286,2.297 -0.258,2.15 -0.525,2.088 -0.573,2.041 -0.398,1.787 0.08,1.621 -0.008,1.27 -0.086,0.947 -0.428,0.744 -0.428,0.402 -0.335,0.205 -0.188,0.066 0,0"
         inkscape:connector-curvature="0" />
    </g>
    <g
       transform="matrix(2.3713928,0,0,-2.3713928,33.566317,58.239599)"
       id="g11689">
      <path
         id="path11691"
         style="fill:#a0c597;fill-opacity:1;fill-rule:nonzero;stroke:none"
         d="M 0,0 C -0.031,-0.01 -0.063,-0.02 -0.102,-0.023 -0.394,0.006 -0.765,-0.014 -0.9,0.26 -1.076,0.709 -0.588,1.273 -1.223,1.527 L -1.33,1.566 c 0.156,0.108 0.351,0.02 0.498,-0.039 C -0.199,1.273 -0.687,0.709 -0.511,0.26 -0.418,0.072 -0.213,0.021 0,0"
         inkscape:connector-curvature="0" />
    </g>
    <g
       transform="matrix(2.3713928,0,0,-2.3713928,38.566162,58.827705)"
       id="g11693">
      <path
         id="path11695"
         style="fill:#a0c597;fill-opacity:1;fill-rule:nonzero;stroke:none"
         d="M 0,0 C -0.036,-0.006 -0.077,-0.01 -0.123,-0.01 -0.308,-0.088 -0.483,0.029 -0.571,0.156 -0.728,0.438 -0.522,0.887 -0.923,1.043 -0.97,1.057 -1.022,1.07 -1.078,1.08 -0.905,1.131 -0.687,1.088 -0.532,1.043 -0.133,0.887 -0.338,0.438 -0.183,0.156 -0.14,0.094 -0.075,0.035 0,0"
         inkscape:connector-curvature="0" />
    </g>
    <g
       transform="matrix(2.3713928,0,0,-2.3713928,41.534918,56.794567)"
       id="g11697">
      <path
         id="path11699"
         style="fill:#a0c597;fill-opacity:1;fill-rule:nonzero;stroke:none"
         d="M 0,0 C -0.036,0.029 -0.077,0.049 -0.121,0.061 0.052,0.082 0.259,0.107 0.39,0 0.496,-0.213 0.653,-0.408 0.623,-0.682 0.669,-0.771 0.739,-0.814 0.822,-0.838 0.8,-0.85 0.776,-0.857 0.75,-0.867 0.556,-0.857 0.331,-0.877 0.233,-0.682 0.263,-0.408 0.106,-0.213 0,0"
         inkscape:connector-curvature="0" />
    </g>
    <g
       transform="matrix(2.3713928,0,0,-2.3713928,19.418834,16.929937)"
       id="g11701">
      <path
         id="path11703"
         style="fill:#000000;fill-opacity:1;fill-rule:nonzero;stroke:none"
         d="M 0,0 C 0,0.313 0.253,0.564 0.565,0.564 0.878,0.564 1.132,0.313 1.132,0 1.132,-0.313 0.878,-0.566 0.565,-0.566 0.253,-0.566 0,-0.313 0,0"
         inkscape:connector-curvature="0" />
    </g>
    <g
       transform="matrix(2.3713928,0,0,-2.3713928,24.200966,16.476147)"
       id="g11705">
      <path
         id="path11707"
         style="fill:#000000;fill-opacity:1;fill-rule:nonzero;stroke:none"
         d="M 0,0 C 0,0.313 0.252,0.566 0.565,0.566 0.879,0.566 1.132,0.313 1.132,0 1.132,-0.313 0.879,-0.566 0.565,-0.566 0.252,-0.566 0,-0.313 0,0"
         inkscape:connector-curvature="0" />
    </g>
    <g
       transform="matrix(2.3713928,0,0,-2.3713928,19.483792,16.508588)"
       id="g11709">
      <path
         id="path11711"
         style="fill:#ffffff;fill-opacity:1;fill-rule:nonzero;stroke:none"
         d="M 0,0 C 0,0.152 0.124,0.277 0.276,0.277 0.429,0.277 0.553,0.152 0.553,0 0.553,-0.152 0.429,-0.275 0.276,-0.275 0.124,-0.275 0,-0.152 0,0"
         inkscape:connector-curvature="0" />
    </g>
    <g
       transform="matrix(2.3713928,0,0,-2.3713928,24.330691,15.980431)"
       id="g11713">
      <path
         id="path11715"
         style="fill:#ffffff;fill-opacity:1;fill-rule:nonzero;stroke:none"
         d="M 0,0 C 0,0.15 0.124,0.275 0.275,0.275 0.429,0.275 0.553,0.15 0.553,0 0.553,-0.154 0.429,-0.277 0.275,-0.277 0.124,-0.277 0,-0.154 0,0"
         inkscape:connector-curvature="0" />
    </g>
    <g
       transform="matrix(2.3713928,0,0,-2.3713928,9.7942999,7.1110429)"
       id="g11717">
      <path
         id="path11719"
         style="fill:#75ae6f;fill-opacity:1;fill-rule:nonzero;stroke:none"
         d="M 0,0 C 0,0.205 0.161,0.373 0.358,0.373 0.557,0.373 0.717,0.205 0.717,0 0.717,-0.205 0.557,-0.373 0.358,-0.373 0.161,-0.373 0,-0.205 0,0"
         inkscape:connector-curvature="0" />
    </g>
    <g
       transform="matrix(2.3713928,0,0,-2.3713928,22.955055,3.0489419)"
       id="g11721">
      <path
         id="path11723"
         style="fill:#75ae6f;fill-opacity:1;fill-rule:nonzero;stroke:none"
         d="M 0,0 C 0,0.205 0.167,0.371 0.373,0.371 0.579,0.371 0.746,0.205 0.746,0 0.746,-0.205 0.579,-0.373 0.373,-0.373 0.167,-0.373 0,-0.205 0,0"
         inkscape:connector-curvature="0" />
    </g>
    <g
       transform="matrix(2.3713928,0,0,-2.3713928,20.011683,21.186681)"
       id="g11725">
      <path
         id="path11727"
         style="fill:#a0c597;fill-opacity:1;fill-rule:nonzero;stroke:none"
         d="M 0,0 C 0,0.313 0.351,0.566 0.786,0.566 1.222,0.566 1.573,0.313 1.573,0 1.573,-0.313 1.222,-0.566 0.786,-0.566 0.351,-0.566 0,-0.313 0,0"
         inkscape:connector-curvature="0" />
    </g>
    <g
       transform="matrix(2.3713928,0,0,-2.3713928,9.8616474,7.2081749)"
       id="g11729">
      <path
         id="path11731"
         style="fill:#a0c597;fill-opacity:1;fill-rule:nonzero;stroke:none"
         d="M 0,0 C 0,0.092 0.074,0.166 0.166,0.166 0.258,0.166 0.33,0.092 0.33,0 0.33,-0.092 0.258,-0.166 0.166,-0.166 0.074,-0.166 0,-0.092 0,0"
         inkscape:connector-curvature="0" />
    </g>
    <g
       transform="matrix(2.3713928,0,0,-2.3713928,23.020031,3.2437749)"
       id="g11733">
      <path
         id="path11735"
         style="fill:#a0c597;fill-opacity:1;fill-rule:nonzero;stroke:none"
         d="m 0,0 c 0,0.143 0.117,0.26 0.263,0.26 0.143,0 0.26,-0.117 0.26,-0.26 0,-0.146 -0.117,-0.264 -0.26,-0.264 C 0.117,-0.264 0,-0.146 0,0"
         inkscape:connector-curvature="0" />
    </g>
  </g>
</svg>
