<?xml version="1.0" encoding="UTF-8" standalone="no"?>
<!-- Created with Inkscape (http://www.inkscape.org/) -->

<svg
   xmlns:dc="http://purl.org/dc/elements/1.1/"
   xmlns:cc="http://creativecommons.org/ns#"
   xmlns:rdf="http://www.w3.org/1999/02/22-rdf-syntax-ns#"
   xmlns:svg="http://www.w3.org/2000/svg"
   xmlns="http://www.w3.org/2000/svg"
   xmlns:sodipodi="http://sodipodi.sourceforge.net/DTD/sodipodi-0.dtd"
   xmlns:inkscape="http://www.inkscape.org/namespaces/inkscape"
   width="64px"
   height="64px"
   id="svg18604"
   version="1.1"
   inkscape:version="0.48.5 r10040"
   sodipodi:docname="Nowy dokument 8">
  <defs
     id="defs18606" />
  <sodipodi:namedview
     id="base"
     pagecolor="#ffffff"
     bordercolor="#666666"
     borderopacity="1.0"
     inkscape:pageopacity="0.0"
     inkscape:pageshadow="2"
     inkscape:zoom="5.5"
     inkscape:cx="32"
     inkscape:cy="32"
     inkscape:current-layer="layer1"
     showgrid="true"
     inkscape:document-units="px"
     inkscape:grid-bbox="true"
     inkscape:window-width="1366"
     inkscape:window-height="706"
     inkscape:window-x="-8"
     inkscape:window-y="-8"
     inkscape:window-maximized="1" />
  <metadata
     id="metadata18609">
    <rdf:RDF>
      <cc:Work
         rdf:about="">
        <dc:format>image/svg+xml</dc:format>
        <dc:type
           rdf:resource="http://purl.org/dc/dcmitype/StillImage" />
        <dc:title></dc:title>
      </cc:Work>
    </rdf:RDF>
  </metadata>
  <g
     id="layer1"
     inkscape:label="Layer 1"
     inkscape:groupmode="layer">
    <path
       id="path8713"
       style="fill:#5a5e5e;fill-opacity:1;fill-rule:nonzero;stroke:none"
       d="m 14.76453,50.283216 c -5.9543221,0 -10.780605,-4.82694 -10.780605,-10.780053 0,-5.954722 4.8262829,-10.781096 10.780605,-10.781096 5.9536,0 10.779878,4.826374 10.779878,10.781096 0,5.953113 -4.826278,10.780053 -10.779878,10.780053 z m 0,-22.829272 c -6.6550886,0 -12.0493809,5.394007 -12.0493809,12.049219 0,6.653006 5.3942923,12.048089 12.0493809,12.048089 6.653635,0 12.047928,-5.395083 12.047928,-12.048089 0,-6.655212 -5.394293,-12.049219 -12.047928,-12.049219"
       inkscape:connector-curvature="0" />
    <path
       id="path8715"
       style="fill:#5a5e5e;fill-opacity:1;fill-rule:nonzero;stroke:none"
       d="m 14.76453,38.164242 c -0.740664,0 -1.339869,0.599356 -1.339869,1.338921 0,0.738508 0.599205,1.338922 1.339869,1.338922 0.739211,0 1.338416,-0.600414 1.338416,-1.338922 0,-0.739565 -0.599205,-1.338921 -1.338416,-1.338921"
       inkscape:connector-curvature="0" />
    <path
       id="path8717"
       style="fill:#5a5e5e;fill-opacity:1;fill-rule:nonzero;stroke:none"
       d="m 14.551978,50.846211 0.423356,0 0,-22.545836 -0.423356,0 0,22.545836 z"
       inkscape:connector-curvature="0" />
    <path
       id="path8719"
       style="fill:#5a5e5e;fill-opacity:1;fill-rule:nonzero;stroke:none"
       d="m 3.4899091,39.784867 22.5472839,0 0,-0.421958 -22.5472839,0 0,0.421958 z"
       inkscape:connector-curvature="0" />
    <path
       id="path8721"
       style="fill:#5a5e5e;fill-opacity:1;fill-rule:nonzero;stroke:none"
       d="M 22.586111,47.694003 6.6433488,31.751603 6.9415003,31.452582 22.884985,47.395611 22.586111,47.694003"
       inkscape:connector-curvature="0" />
    <path
       id="path8723"
       style="fill:#5a5e5e;fill-opacity:1;fill-rule:nonzero;stroke:none"
       d="M 6.9415003,47.695152 6.6433488,47.395611 22.586833,31.452582 22.884985,31.751603 6.9415003,47.695152"
       inkscape:connector-curvature="0" />
    <path
       id="path8725"
       style="fill:#5a5e5e;fill-opacity:1;fill-rule:nonzero;stroke:none"
       d="m 10.621604,50.059619 -0.391006,-0.162688 8.675409,-20.8099 0.39028,0.162643 -8.674683,20.809945"
       inkscape:connector-curvature="0" />
    <path
       id="path8727"
       style="fill:#5a5e5e;fill-opacity:1;fill-rule:nonzero;stroke:none"
       d="M 25.088114,44.107103 4.2769975,35.431418 4.4394924,35.041225 25.251335,43.716312 25.088114,44.107103"
       inkscape:connector-curvature="0" />
    <path
       id="path8729"
       style="fill:#5a5e5e;fill-opacity:1;fill-rule:nonzero;stroke:none"
       d="m 18.858851,50.078558 -8.580375,-20.850141 0.390281,-0.160394 8.581101,20.850146 -0.391007,0.160389"
       inkscape:connector-curvature="0" />
    <path
       id="path8731"
       style="fill:#5a5e5e;fill-opacity:1;fill-rule:nonzero;stroke:none"
       d="M 4.4199086,44.06003 4.2581358,43.670388 25.108424,35.088574 25.269471,35.478492 4.4199086,44.06003"
       inkscape:connector-curvature="0" />
    <path
       id="path8733"
       style="fill:#5a5e5e;fill-opacity:1;fill-rule:nonzero;stroke:none"
       d="m 49.85282,50.283216 c -5.9536,0 -10.779878,-4.82694 -10.779878,-10.780053 0,-5.954722 4.826278,-10.781096 10.779878,-10.781096 5.954322,0 10.780605,4.826374 10.780605,10.781096 0,5.953113 -4.826283,10.780053 -10.780605,10.780053 z m 0,-22.829272 c -6.654361,0 -12.048654,5.394007 -12.048654,12.049219 0,6.653006 5.394293,12.048089 12.048654,12.048089 6.654362,0 12.049381,-5.395083 12.049381,-12.048089 0,-6.655212 -5.395019,-12.049219 -12.049381,-12.049219"
       inkscape:connector-curvature="0" />
    <path
       id="path8735"
       style="fill:#5a5e5e;fill-opacity:1;fill-rule:nonzero;stroke:none"
       d="m 49.85282,38.164242 c -0.739211,0 -1.338416,0.599356 -1.338416,1.338921 0,0.738508 0.599205,1.338922 1.338416,1.338922 0.739937,0 1.339143,-0.600414 1.339143,-1.338922 0,-0.739565 -0.599206,-1.338921 -1.339143,-1.338921"
       inkscape:connector-curvature="0" />
    <path
       id="path8737"
       style="fill:#5a5e5e;fill-opacity:1;fill-rule:nonzero;stroke:none"
       d="m 49.641722,50.846211 0.423071,0 0,-22.545836 -0.423071,0 0,22.545836 z"
       inkscape:connector-curvature="0" />
    <path
       id="path8739"
       style="fill:#5a5e5e;fill-opacity:1;fill-rule:nonzero;stroke:none"
       d="m 38.579647,39.784867 22.54642,0 0,-0.421958 -22.54642,0 0,0.421958 z"
       inkscape:connector-curvature="0" />
    <path
       id="path8741"
       style="fill:#5a5e5e;fill-opacity:1;fill-rule:nonzero;stroke:none"
       d="m 57.675124,47.694003 -15.943485,-15.9424 0.298878,-0.299021 15.943485,15.943029 -0.298878,0.298392"
       inkscape:connector-curvature="0" />
    <path
       id="path8743"
       style="fill:#5a5e5e;fill-opacity:1;fill-rule:nonzero;stroke:none"
       d="M 42.031244,47.695152 41.731639,47.395611 57.675124,31.452582 57.974002,31.751603 42.031244,47.695152"
       inkscape:connector-curvature="0" />
    <path
       id="path8745"
       style="fill:#5a5e5e;fill-opacity:1;fill-rule:nonzero;stroke:none"
       d="m 45.710617,50.059619 -0.391002,-0.162688 8.675409,-20.8099 0.391002,0.162643 -8.675409,20.809945"
       inkscape:connector-curvature="0" />
    <path
       id="path8747"
       style="fill:#5a5e5e;fill-opacity:1;fill-rule:nonzero;stroke:none"
       d="m 60.177132,44.107103 -20.811117,-8.675685 0.162494,-0.390193 20.811117,8.675087 -0.162494,0.390791"
       inkscape:connector-curvature="0" />
    <path
       id="path8749"
       style="fill:#5a5e5e;fill-opacity:1;fill-rule:nonzero;stroke:none"
       d="m 53.947868,50.078558 -8.581102,-20.850141 0.391007,-0.160394 8.581102,20.850146 -0.391007,0.160389"
       inkscape:connector-curvature="0" />
    <path
       id="path8751"
       style="fill:#5a5e5e;fill-opacity:1;fill-rule:nonzero;stroke:none"
       d="m 39.508926,44.06003 -0.161047,-0.389642 20.849562,-8.581814 0.161047,0.389918 -20.849562,8.581538"
       inkscape:connector-curvature="0" />
    <path
       id="path8753"
       style="fill:#3a6f81;fill-opacity:1;fill-rule:nonzero;stroke:none"
       d="m 49.85282,39.713982 c -0.282191,0 -0.538994,-0.188385 -0.612986,-0.473169 L 42.757395,14.438724 c -0.0885,-0.339134 0.114622,-0.685458 0.453392,-0.773596 0.336602,-0.08951 0.684806,0.113964 0.773313,0.453393 l 6.481707,24.801467 c 0.08923,0.338339 -0.113891,0.685458 -0.453393,0.774181 -0.05223,0.01333 -0.106637,0.01976 -0.159594,0.01976"
       inkscape:connector-curvature="0" />
    <path
       id="path8755"
       style="fill:#3a6f81;fill-opacity:1;fill-rule:nonzero;stroke:none"
       d="m 28.784902,40.067077 c -0.280739,0 -0.536816,-0.188108 -0.612261,-0.47179 L 21.971672,16.20159 c -0.08995,-0.337175 0.111716,-0.685457 0.451214,-0.774975 0.338775,-0.0893 0.685531,0.111863 0.77476,0.450781 l 6.200242,23.392561 c 0.09068,0.337742 -0.11099,0.685459 -0.450487,0.775928 -0.05441,0.01425 -0.108816,0.02115 -0.162499,0.02115"
       inkscape:connector-curvature="0" />
    <path
       id="path8757"
       style="fill:#3a6f81;fill-opacity:1;fill-rule:nonzero;stroke:none"
       d="m 23.711975,20.197692 c -0.339501,0 -0.620966,-0.269499 -0.6333,-0.612044 -0.01232,-0.35002 0.260429,-0.644109 0.611538,-0.656879 l 20.714631,-0.739574 c 0.346756,-0.02468 0.64346,0.26094 0.656516,0.610886 0.01232,0.350019 -0.261156,0.644108 -0.610813,0.656294 l -20.715357,0.740154 -0.02322,0.0013"
       inkscape:connector-curvature="0" />
    <path
       id="path8759"
       style="fill:#3a6f81;fill-opacity:1;fill-rule:nonzero;stroke:none"
       d="m 13.283929,39.643464 c -0.100839,0 -0.204572,-0.02483 -0.300327,-0.07595 -0.308307,-0.166642 -0.42365,-0.550307 -0.256803,-0.858904 L 23.012662,19.61364 c 0.166122,-0.307438 0.551327,-0.422782 0.859634,-0.256728 0.30758,0.166052 0.422924,0.551179 0.256802,0.859487 L 13.84251,39.310223 c -0.114617,0.213025 -0.332974,0.333237 -0.558581,0.333237"
       inkscape:connector-curvature="0" />
    <path
       id="path8761"
       style="fill:#3a6f81;fill-opacity:1;fill-rule:nonzero;stroke:none"
       d="m 13.649546,39.211346 c -0.158146,0 -0.309759,-0.08845 -0.383027,-0.24148 L 7.2657679,26.36783 C 7.1656603,26.156946 7.2541901,25.904207 7.465259,25.804173 7.6770846,25.703558 7.9288069,25.793144 8.0289206,26.004248 L 14.030394,38.60799 c 0.100839,0.209715 0.01163,0.461906 -0.199491,0.563087 -0.05875,0.02667 -0.120424,0.04045 -0.181357,0.04045"
       inkscape:connector-curvature="0" />
    <path
       id="path8763"
       style="fill:#3a6f81;fill-opacity:1;fill-rule:nonzero;stroke:none"
       d="m 32.448318,40.207056 c -0.214,0 -0.430178,-0.06487 -0.61734,-0.199786 -0.473703,-0.341465 -0.580344,-1.002237 -0.238662,-1.475727 L 44.462882,20.655075 c 0.341676,-0.47356 1.585789,1.448032 1.244835,1.921518 L 33.305778,39.768088 c -0.206024,0.286255 -0.529565,0.438968 -0.85746,0.438968"
       inkscape:connector-curvature="0" />
    <path
       id="path8765"
       style="fill:#5a5e5e;fill-opacity:1;fill-rule:nonzero;stroke:none"
       d="m 25.801936,35.787042 c -5.800534,0 -13.222401,1.676755 -13.222401,3.746738 0,2.069154 7.421867,3.745909 13.222401,3.745909 5.801261,0 7.784585,-1.676755 7.784585,-3.745909 0,-2.069983 -1.983324,-3.746738 -7.784585,-3.746738"
       inkscape:connector-curvature="0" />
    <path
       id="path8767"
       style="fill:#5a5e5e;fill-opacity:1;fill-rule:nonzero;stroke:none"
       d="m 24.831313,14.005499 c -0.357638,-0.119045 -0.77476,-0.204062 -1.230327,-0.251071 -0.509977,-0.06804 -1.023582,-0.0893 -1.509623,-0.03967 -0.170474,0.01843 -0.330794,0.04478 -0.486036,0.07733 -2.133484,0.278274 -3.746843,1.247156 -3.648182,2.222207 0.100839,0.992386 1.931819,1.621191 4.123337,1.437803 0.419302,0.0013 0.863988,-0.02009 1.324635,-0.06631 2.351843,-0.238885 4.195882,-1.044472 4.119715,-1.799065 -0.04716,-0.471022 -1.236133,-1.176285 -2.693519,-1.58122"
       inkscape:connector-curvature="0" />
    <path
       id="path8769"
       style="fill:#7b7e7e;fill-opacity:1;fill-rule:nonzero;stroke:none"
       d="m 27.869409,39.432599 c 0,-1.128057 0.915493,-2.042813 2.043536,-2.042813 1.128043,0 2.042809,0.914756 2.042809,2.042813 0,1.127828 -0.914766,2.043964 -2.042809,2.043964 -1.128043,0 -2.043536,-0.916136 -2.043536,-2.043964"
       inkscape:connector-curvature="0" />
    <path
       id="path8771"
       style="fill:#7b7e7e;fill-opacity:1;fill-rule:nonzero;stroke:none"
       d="m 28.92636,39.432599 c 0,-0.544376 0.441785,-0.986653 0.986585,-0.986653 0.544073,0 0.985858,0.442277 0.985858,0.986653 0,0.54525 -0.441785,0.986747 -0.985858,0.986747 -0.5448,0 -0.986585,-0.441497 -0.986585,-0.986747"
       inkscape:connector-curvature="0" />
    <path
       id="path8773"
       style="fill:#444346;fill-opacity:1;fill-rule:nonzero;stroke:none"
       d="m 29.912945,38.657914 c -0.427278,0 -0.77476,0.347119 -0.77476,0.774685 0,0.427659 0.347482,0.775606 0.77476,0.775606 0.427277,0 0.774759,-0.347947 0.774759,-0.775606 0,-0.427566 -0.347482,-0.774685 -0.774759,-0.774685 z m 0,1.972204 c -0.660865,0 -1.19841,-0.536057 -1.19841,-1.197519 0,-0.660818 0.537545,-1.197472 1.19841,-1.197472 0.660143,0 1.197683,0.536654 1.197683,1.197472 0,0.661462 -0.53754,1.197519 -1.197683,1.197519"
       inkscape:connector-curvature="0" />
    <path
       id="path8775"
       style="fill:#7b7e7e;fill-opacity:1;fill-rule:nonzero;stroke:none"
       d="m 32.131309,44.419101 c 0.129125,0.367255 0.05875,0.725177 -0.155966,0.799971 -0.214732,0.07535 -0.494022,-0.16039 -0.62242,-0.527644 l -1.677919,-4.78759 c -0.129125,-0.366656 -0.05876,-0.725637 0.155967,-0.799924 0.214726,-0.07539 0.494017,0.16039 0.62242,0.527368 l 1.677918,4.787819"
       inkscape:connector-curvature="0" />
    <path
       id="path8777"
       style="fill:#5a5e5e;fill-opacity:1;fill-rule:nonzero;stroke:none"
       d="m 33.577088,45.103411 c 0,0.389641 -0.812483,0.705363 -1.814297,0.705363 -1.002546,0 -1.815024,-0.315722 -1.815024,-0.705363 0,-0.388171 0.812478,-0.703295 1.815024,-0.703295 1.001814,0 1.814297,0.315124 1.814297,0.703295"
       inkscape:connector-curvature="0" />
    <path
       id="path8779"
       style="fill:#3a6f81;fill-opacity:1;fill-rule:nonzero;stroke:none"
       d="m 20.507027,25.922054 c 0,0.441206 -0.260429,0.799133 -0.581792,0.799133 l -12.2597577,0 c -0.321362,0 -0.5817911,-0.357927 -0.5817911,-0.799133 0,-0.442076 0.2604291,-0.799928 0.5817911,-0.799928 l 12.2597577,0 c 0.321363,0 0.581792,0.357852 0.581792,0.799928"
       inkscape:connector-curvature="0" />
    <path
       id="path8781"
       style="fill:#3a6f81;fill-opacity:1;fill-rule:nonzero;stroke:none"
       d="m 51.249273,15.063902 c -0.142185,0.290678 -0.54262,0.388465 -0.893003,0.216758 L 40.13352,10.280854 C 39.78241,10.108857 39.613384,9.7342436 39.755569,9.4434928 39.89848,9.1516512 40.298189,9.0549539 40.647846,9.2267344 l 10.224202,5.0000226 c 0.35111,0.170622 0.520132,0.54639 0.377225,0.837145"
       inkscape:connector-curvature="0" />
    <path
       id="path8783"
       style="fill:#5a5e5e;fill-opacity:1;fill-rule:nonzero;stroke:none"
       d="m 41.022897,9.8336992 c 0.02538,0.4108838 -0.04427,0.7486438 -0.153066,0.7554618 l -3.182461,0.189847 c -0.109537,0.0057 -0.218353,-0.322452 -0.242294,-0.732757 -0.02468,-0.4109532 0.04427,-0.7487131 0.153793,-0.7555359 l 3.18246,-0.1898419 c 0.108084,-0.0067 0.217627,0.3225259 0.241568,0.732826"
       inkscape:connector-curvature="0" />
    <path
       id="path8785"
       style="fill:#5a5e5e;fill-opacity:1;fill-rule:nonzero;stroke:none"
       d="m 50.227867,14.277246 c 0.379399,-0.157562 0.723255,-0.201234 0.763878,-0.101195 l 1.214366,2.94851 c 0.04132,0.101124 -0.234313,0.310845 -0.613713,0.466376 -0.381574,0.157566 -0.722523,0.201237 -0.765327,0.101194 l -1.212918,-2.949595 c -0.04133,-0.09916 0.232866,-0.309465 0.613714,-0.465289"
       inkscape:connector-curvature="0" />
    <path
       id="path8787"
       style="fill:#3a6f81;fill-opacity:1;fill-rule:nonzero;stroke:none"
       d="m 45.687406,12.08166 c 0.220528,0.238304 0.329343,0.495325 0.244469,0.573816 l -2.479516,2.288219 c -0.08415,0.07995 -0.331521,-0.05041 -0.551327,-0.288429 -0.220531,-0.237793 -0.330073,-0.494816 -0.243747,-0.573306 l 2.478795,-2.288219 c 0.08343,-0.07878 0.332248,0.04991 0.551326,0.287919"
       inkscape:connector-curvature="0" />
    <path
       id="path8789"
       style="fill:#3a6f81;fill-opacity:1;fill-rule:nonzero;stroke:none"
       d="m 48.724777,22.431797 -0.483136,0 c -1.133118,0 -2.052964,0.919261 -2.052964,2.052458 0,1.134862 0.919846,2.054413 2.052964,2.054413 l 0.483136,0 c 1.134571,0 1.134571,-4.106871 0,-4.106871"
       inkscape:connector-curvature="0" />
  </g>
</svg>
