<?xml version="1.0" encoding="UTF-8" standalone="no"?>
<!-- Created with Inkscape (http://www.inkscape.org/) -->

<svg
   xmlns:dc="http://purl.org/dc/elements/1.1/"
   xmlns:cc="http://creativecommons.org/ns#"
   xmlns:rdf="http://www.w3.org/1999/02/22-rdf-syntax-ns#"
   xmlns:svg="http://www.w3.org/2000/svg"
   xmlns="http://www.w3.org/2000/svg"
   xmlns:sodipodi="http://sodipodi.sourceforge.net/DTD/sodipodi-0.dtd"
   xmlns:inkscape="http://www.inkscape.org/namespaces/inkscape"
   width="64px"
   height="64px"
   id="svg177340"
   version="1.1"
   inkscape:version="0.48.5 r10040"
   sodipodi:docname="rozgwiazdy.svg">
  <defs
     id="defs177342" />
  <sodipodi:namedview
     id="base"
     pagecolor="#ffffff"
     bordercolor="#666666"
     borderopacity="1.0"
     inkscape:pageopacity="0.0"
     inkscape:pageshadow="2"
     inkscape:zoom="5.5"
     inkscape:cx="32"
     inkscape:cy="32"
     inkscape:current-layer="layer1"
     showgrid="true"
     inkscape:document-units="px"
     inkscape:grid-bbox="true"
     inkscape:window-width="1366"
     inkscape:window-height="706"
     inkscape:window-x="-8"
     inkscape:window-y="-8"
     inkscape:window-maximized="1" />
  <metadata
     id="metadata177345">
    <rdf:RDF>
      <cc:Work
         rdf:about="">
        <dc:format>image/svg+xml</dc:format>
        <dc:type
           rdf:resource="http://purl.org/dc/dcmitype/StillImage" />
        <dc:title></dc:title>
      </cc:Work>
    </rdf:RDF>
  </metadata>
  <g
     id="layer1"
     inkscape:label="Layer 1"
     inkscape:groupmode="layer">
    <g
       transform="matrix(2.1911194,0,0,-2.1555012,35.508263,2.9387356)"
       id="g23201">
      <path
         id="path23203"
         style="fill:#000000;fill-opacity:1;fill-rule:nonzero;stroke:none"
         d="m 0,0 c 1.103,-2.09 0.894,-4.712 1.235,-7.105 0.228,-0.609 0.475,-1.312 1.082,-1.654 3.06,-0.628 6.422,0.191 9.5,0.191 0.305,-0.096 0.514,-0.362 0.685,-0.647 -0.228,-1.121 -1.254,-1.995 -2.148,-2.773 -1.671,-1.446 -3.589,-2.266 -5.053,-3.957 -0.057,-2.603 1.729,-4.936 0.95,-7.634 -0.209,-0.323 -0.456,-0.627 -0.816,-0.76 -1.672,-0.151 -3.079,0.987 -4.163,1.995 -1.519,1.158 -2.716,2.604 -4.425,3.324 -0.856,0.116 -5.987,-4.617 -8.513,-5.642 -0.399,-0.02 -0.97,-0.19 -1.292,0.133 -0.779,1.064 0.152,2.47 0.551,3.552 0.874,2.129 2.508,3.954 2.831,6.289 -1.027,2.299 -3.857,3.478 -5.206,5.758 -0.513,0.989 -1.33,2.166 -0.684,3.364 3.382,1.386 5.263,-2.433 8.436,-2.452 0.988,0.133 1.368,1.045 1.92,1.767 1.158,2.28 1.5,5.396 4.065,6.612 C -0.608,0.438 -0.323,0.171 0,0"
         inkscape:connector-curvature="0" />
    </g>
    <g
       transform="matrix(2.1911194,0,0,-2.1555012,35.42479,4.7827738)"
       id="g23205">
      <path
         id="path23207"
         style="fill:#ebcd00;fill-opacity:1;fill-rule:nonzero;stroke:none"
         d="m 0,0 c 0.456,-1.976 0.57,-4.084 0.76,-6.156 -0.571,0.191 -1.121,0.57 -1.824,0.361 -0.456,-0.227 -0.836,-0.703 -1.045,-1.14 -0.266,0.513 -0.912,1.103 -1.596,1.273 L -4.75,-5.699 c 1.121,2.146 1.406,4.768 3.516,6.422 C -0.684,1.008 -0.152,0.494 0,0"
         inkscape:connector-curvature="0" />
    </g>
    <g
       transform="matrix(2.1911194,0,0,-2.1555012,21.310914,20.917563)"
       id="g23209">
      <path
         id="path23211"
         style="fill:#ebcd00;fill-opacity:1;fill-rule:nonzero;stroke:none"
         d="m 0,0 c -0.322,-0.817 -0.189,-1.899 0.229,-2.642 0.646,-0.796 1.558,-1.082 2.507,-1.005 0.989,0.284 1.368,1.253 1.692,2.089 0.133,-0.55 0.551,-1.406 1.273,-1.671 0.455,-0.209 0.969,-0.209 1.424,0 0.912,0.474 1.312,1.5 1.178,2.583 1.691,-0.722 3.174,-0.361 5.016,-0.304 l 4.427,0.398 c 0.285,-0.037 0.59,-0.075 0.779,-0.36 -0.209,-1.007 -1.177,-1.73 -1.919,-2.47 -1.842,-1.426 -4.028,-2.565 -5.471,-4.465 0,-0.115 1.576,-4.598 1.367,-6.935 -0.113,-0.305 -0.285,-0.627 -0.588,-0.817 -1.254,-0.057 -2.281,0.646 -3.25,1.424 -1.728,1.217 -3.135,3.098 -5.054,3.953 -1.215,0.037 -2.128,-0.931 -3.096,-1.634 -1.881,-1.291 -3.649,-3.288 -5.852,-4.067 -0.361,-0.075 -0.875,-0.094 -0.988,0.381 -0.209,0.988 0.361,1.768 0.683,2.584 0.951,2.186 2.528,4.104 2.964,6.479 -0.19,1.634 -1.823,2.565 -2.925,3.648 -1.292,1.33 -2.832,2.546 -3.097,4.427 0.056,0.342 -0.172,0.912 0.361,0.95 C -5.072,3.192 -3.306,-0.589 0,0"
         inkscape:connector-curvature="0" />
    </g>
    <g
       transform="matrix(2.1911194,0,0,-2.1555012,31.393551,18.762062)"
       id="g23213">
      <path
         id="path23215"
         style="fill:#feec19;fill-opacity:1;fill-rule:nonzero;stroke:none"
         d="M 0,0 C -0.107,-0.147 -0.198,-0.3 -0.27,-0.449 -0.535,0.063 -1.182,0.653 -1.865,0.823 L -2.91,0.786 c 1.109,2.125 1.4,4.715 3.45,6.369 C 0.652,6.547 0.712,5.696 0.66,4.506 0.55,1.978 0.146,0.901 0,0"
         inkscape:connector-curvature="0" />
    </g>
    <g
       transform="matrix(2.1911194,0,0,-2.1555012,21.310914,20.917563)"
       id="g23217">
      <path
         id="path23219"
         style="fill:#feec19;fill-opacity:1;fill-rule:nonzero;stroke:none"
         d="m 0,0 c -0.322,-0.817 -0.189,-1.899 0.229,-2.642 0.646,-0.796 1.558,-1.082 2.507,-1.005 0.989,0.284 1.368,1.253 1.692,2.089 0.133,-0.55 0.551,-1.406 1.273,-1.671 0.455,-0.209 0.969,-0.209 1.424,0 0.078,0.041 0.153,0.085 0.225,0.134 1.136,-0.427 2.394,-0.592 3.254,-0.554 1.724,0.072 -0.219,-1.872 -1.206,-3.116 -0.986,-1.242 -1.425,-2.082 -0.183,-4.793 1.244,-2.711 -2.705,0.256 -4.282,1.243 -1.579,0.987 -3.37,2.565 -5.898,0.109 -2.527,-2.455 -4.91,-5.489 -4.982,-4.318 -0.074,1.17 3.697,7.17 3.697,8.784 0,1.257 -3.687,5.199 -6.441,7.989 0.029,0.158 0.115,0.279 0.351,0.297 C -5.072,3.192 -3.306,-0.589 0,0"
         inkscape:connector-curvature="0" />
    </g>
    <g
       transform="matrix(2.1911194,0,0,-2.1555012,43.500152,27.388153)"
       id="g23221">
      <path
         id="path23223"
         style="fill:#000000;fill-opacity:1;fill-rule:nonzero;stroke:none"
         d="M 0,0 0.19,0 0,0 z"
         inkscape:connector-curvature="0" />
    </g>
    <g
       transform="matrix(2.1911194,0,0,-2.1555012,38.797133,31.4446)"
       id="g23225">
      <path
         id="path23227"
         style="fill:#000000;fill-opacity:1;fill-rule:nonzero;stroke:none"
         d="m 0,0 0,-0.133 c -0.113,0 -0.229,0.058 -0.323,0.191 -0.861,-1.829 -2.622,-1.558 -2.907,-1.197 0.38,-0.152 1.9,-0.009 2.507,1.368 C -0.836,0.494 -1.083,0.076 -1.141,0.418 -0.723,0.761 -0.229,0.381 0,0"
         inkscape:connector-curvature="0" />
    </g>
    <g
       transform="matrix(2.1911194,0,0,-2.1555012,21.980731,22.346867)"
       id="g23229">
      <path
         id="path23231"
         style="fill:#ffffff;fill-opacity:1;fill-rule:nonzero;stroke:none"
         d="M 0,0 C 0.157,1.275 1.124,2.207 2.159,2.08 3.196,1.953 3.909,0.814 3.753,-0.461 3.596,-1.736 2.629,-2.669 1.592,-2.542 0.556,-2.415 -0.157,-1.277 0,0"
         inkscape:connector-curvature="0" />
    </g>
    <g
       transform="matrix(2.1911194,0,0,-2.1555012,31.498304,23.112932)"
       id="g23233">
      <path
         id="path23235"
         style="fill:#ffffff;fill-opacity:1;fill-rule:nonzero;stroke:none"
         d="M 0,0 C -0.124,1.178 0.501,2.209 1.396,2.303 2.291,2.397 3.117,1.519 3.241,0.34 3.365,-0.838 2.74,-1.869 1.845,-1.963 0.95,-2.057 0.123,-1.178 0,0"
         inkscape:connector-curvature="0" />
    </g>
    <g
       transform="matrix(2.1911194,0,0,-2.1555012,28.337834,18.496711)"
       id="g23237">
      <path
         id="path23239"
         style="fill:#dce8eb;fill-opacity:1;fill-rule:nonzero;stroke:none"
         d="m 0,0 c 0.609,-0.442 0.967,-1.308 0.852,-2.247 -0.158,-1.275 -1.124,-2.208 -2.162,-2.081 -0.545,0.067 -1.002,0.415 -1.289,0.916 0.218,-0.157 0.47,-0.261 0.742,-0.294 1.037,-0.129 2.003,0.804 2.16,2.08 C 0.377,-1.022 0.256,-0.45 0,0"
         inkscape:connector-curvature="0" />
    </g>
    <g
       transform="matrix(2.1911194,0,0,-2.1555012,36.652904,18.74718)"
       id="g23241">
      <path
         id="path23243"
         style="fill:#dce8eb;fill-opacity:1;fill-rule:nonzero;stroke:none"
         d="m 0,0 c 0.465,-0.34 0.813,-0.955 0.889,-1.686 0.124,-1.177 -0.501,-2.209 -1.397,-2.302 -0.594,-0.062 -1.156,0.302 -1.505,0.899 0.286,-0.208 0.617,-0.313 0.957,-0.276 0.894,0.094 1.521,1.125 1.396,2.302 C 0.299,-0.666 0.178,-0.303 0,0"
         inkscape:connector-curvature="0" />
    </g>
    <g
       transform="matrix(2.1911194,0,0,-2.1555012,25.697307,21.281618)"
       id="g23245">
      <path
         id="path23247"
         style="fill:#000000;fill-opacity:1;fill-rule:nonzero;stroke:none"
         d="M 0,0 C 0,0.587 0.477,1.064 1.063,1.064 1.65,1.064 2.127,0.587 2.127,0 2.127,-0.588 1.65,-1.063 1.063,-1.063 0.477,-1.063 0,-0.588 0,0"
         inkscape:connector-curvature="0" />
    </g>
    <g
       transform="matrix(2.1911194,0,0,-2.1555012,33.961105,21.163721)"
       id="g23249">
      <path
         id="path23251"
         style="fill:#000000;fill-opacity:1;fill-rule:nonzero;stroke:none"
         d="m 0,0 c 0,0.537 0.436,0.973 0.973,0.973 0.535,0 0.97,-0.436 0.97,-0.973 0,-0.537 -0.435,-0.973 -0.97,-0.973 C 0.436,-0.973 0,-0.537 0,0"
         inkscape:connector-curvature="0" />
    </g>
    <g
       transform="matrix(2.1911194,0,0,-2.1555012,26.258006,20.258617)"
       id="g23253">
      <path
         id="path23255"
         style="fill:#ffffff;fill-opacity:1;fill-rule:nonzero;stroke:none"
         d="M 0,0 C 0,0.266 0.215,0.479 0.479,0.479 0.742,0.479 0.957,0.266 0.957,0 0.957,-0.264 0.742,-0.479 0.479,-0.479 0.215,-0.479 0,-0.264 0,0"
         inkscape:connector-curvature="0" />
    </g>
    <g
       transform="matrix(2.1911194,0,0,-2.1555012,34.121723,20.334491)"
       id="g23257">
      <path
         id="path23259"
         style="fill:#ffffff;fill-opacity:1;fill-rule:nonzero;stroke:none"
         d="M 0,0 C 0,0.243 0.198,0.44 0.442,0.44 0.686,0.44 0.883,0.243 0.883,0 0.883,-0.244 0.686,-0.443 0.442,-0.443 0.198,-0.443 0,-0.244 0,0"
         inkscape:connector-curvature="0" />
    </g>
    <g
       transform="matrix(2.1911194,0,0,-2.1555012,47.762756,35.570229)"
       id="g23261">
      <path
         id="path23263"
         style="fill:#0b989a;fill-opacity:1;fill-rule:evenodd;stroke:none"
         d="M 0,0 C -0.232,-0.225 -0.453,-0.459 -0.664,-0.707 -0.367,-0.18 -0.152,-0.004 0,0"
         inkscape:connector-curvature="0" />
    </g>
    <g
       transform="matrix(2.1911194,0,0,-2.1555012,35.638854,5.7469209)"
       id="g23265">
      <path
         id="path23267"
         style="fill:#0b989a;fill-opacity:1;fill-rule:nonzero;stroke:none"
         d="m 0,0 c 0.094,-0.463 0.172,-0.934 0.238,-1.408 -0.84,0.408 -1.954,0.652 -3.337,0.341 0.175,0.346 0.371,0.682 0.599,1.002 C -1.729,0.119 -0.861,0.185 0,0"
         inkscape:connector-curvature="0" />
    </g>
    <g
       transform="matrix(2.1911194,0,0,-2.1555012,36.747122,14.177294)"
       id="g23269">
      <path
         id="path23271"
         style="fill:#0b989a;fill-opacity:1;fill-rule:nonzero;stroke:none"
         d="m 0,0 0.086,-0.99 c -1.233,0.809 -3.019,1.49 -4.852,0.499 l -0.248,-0.133 c 0.153,0.352 0.291,0.709 0.426,1.068 1.07,0.316 2.324,0.487 3.385,0.088 C -0.731,0.356 -0.334,0.176 0,0"
         inkscape:connector-curvature="0" />
    </g>
    <g
       transform="matrix(2.1911194,0,0,-2.1555012,28.849224,8.0477028)"
       id="g23273">
      <path
         id="path23275"
         style="fill:#84bbad;fill-opacity:1;fill-rule:nonzero;stroke:none"
         d="M 0,0 C 0.175,0.347 0.371,0.683 0.599,1.002 0.983,1.095 1.396,1.157 1.817,1.173 1.836,0.858 1.845,0.503 1.838,0.104 1.29,0.173 0.677,0.153 0,0"
         inkscape:connector-curvature="0" />
    </g>
    <g
       transform="matrix(2.1911194,0,0,-2.1555012,25.761516,15.522344)"
       id="g23277">
      <path
         id="path23279"
         style="fill:#84bbad;fill-opacity:1;fill-rule:nonzero;stroke:none"
         d="M 0,0 C 0.152,0.35 0.291,0.709 0.426,1.068 1.266,1.316 2.217,1.475 3.1,1.34 3.064,1.048 3.026,0.783 2.986,0.543 2.133,0.711 1.197,0.646 0.248,0.133 L 0,0 z"
         inkscape:connector-curvature="0" />
    </g>
    <g
       transform="matrix(2.1911194,0,0,-2.1555012,5.8661522,23.885464)"
       id="g23281">
      <path
         id="path23283"
         style="fill:#0b989a;fill-opacity:1;fill-rule:evenodd;stroke:none"
         d="M 0,0 C -0.259,0.274 -0.505,0.556 -0.724,0.851 -0.412,1.877 0.187,2.896 1.242,3.584 1.709,3.377 2.156,3.11 2.6,2.835 1.733,2.433 0.573,1.614 0,0"
         inkscape:connector-curvature="0" />
    </g>
    <g
       transform="matrix(2.1911194,0,0,-2.1555012,11.087151,28.81963)"
       id="g23285">
      <path
         id="path23287"
         style="fill:#0b989a;fill-opacity:1;fill-rule:evenodd;stroke:none"
         d="M 0,0 C -0.215,0.185 -0.432,0.366 -0.636,0.551 -0.434,1.362 -0.09,2.157 0.483,2.739 1.098,3.362 1.633,3.778 2.07,4.056 2.402,3.903 2.744,3.78 3.103,3.7 1.922,3.093 0.287,1.921 0,0"
         inkscape:connector-curvature="0" />
    </g>
    <g
       transform="matrix(2.1911194,0,0,-2.1555012,7.2868565,21.201658)"
       id="g23289">
      <path
         id="path23291"
         style="fill:#84bbad;fill-opacity:1;fill-rule:nonzero;stroke:none"
         d="M 0,0 C -0.271,0.291 -0.545,0.582 -0.817,0.867 -0.479,1.426 -0.02,1.938 0.594,2.339 1.061,2.132 1.508,1.865 1.951,1.59 1.345,1.308 0.593,0.822 0,0"
         inkscape:connector-curvature="0" />
    </g>
    <g
       transform="matrix(2.1911194,0,0,-2.1555012,11.904439,26.289503)"
       id="g23293">
      <path
         id="path23295"
         style="fill:#84bbad;fill-opacity:1;fill-rule:nonzero;stroke:none"
         d="M 0,0 C -0.176,0.21 -0.358,0.423 -0.547,0.64 -0.371,0.979 -0.156,1.295 0.11,1.565 0.725,2.188 1.26,2.604 1.697,2.882 2.029,2.729 2.371,2.606 2.729,2.526 1.812,2.054 0.619,1.241 0,0"
         inkscape:connector-curvature="0" />
    </g>
    <g
       transform="matrix(2.1911194,0,0,-2.1555012,22.740172,46.250944)"
       id="g23297">
      <path
         id="path23299"
         style="fill:#0b989a;fill-opacity:1;fill-rule:evenodd;stroke:none"
         d="m 0,0 -0.139,-0.104 c -0.218,-0.15 -0.433,-0.307 -0.648,-0.472 -0.705,0.197 -1.379,0.511 -1.895,1.001 -0.918,0.874 -1.399,1.589 -1.65,2.088 0.155,0.305 0.303,0.614 0.434,0.928 C -3.355,2.293 -2.127,0.314 0,0"
         inkscape:connector-curvature="0" />
    </g>
    <g
       transform="matrix(2.1911194,0,0,-2.1555012,16.65894,50.97882)"
       id="g23301">
      <path
         id="path23303"
         style="fill:#0b989a;fill-opacity:1;fill-rule:evenodd;stroke:none"
         d="m 0,0 c -0.312,-0.252 -0.627,-0.497 -0.949,-0.729 -0.934,0.401 -1.805,1.081 -2.362,2.176 0.24,0.498 0.505,0.985 0.776,1.469 C -2.285,2.18 -1.617,0.779 0,0"
         inkscape:connector-curvature="0" />
    </g>
    <g
       transform="matrix(2.1911194,0,0,-2.1555012,13.507234,48.688609)"
       id="g23305">
      <path
         id="path23307"
         style="fill:#84bbad;fill-opacity:1;fill-rule:nonzero;stroke:none"
         d="m 0,0 c -0.319,-0.336 -0.618,-0.646 -0.89,-0.914 -0.327,0.301 -0.623,0.66 -0.868,1.089 0.212,0.454 0.463,0.962 0.73,1.491 C -0.853,1.209 -0.539,0.582 0,0"
         inkscape:connector-curvature="0" />
    </g>
    <g
       transform="matrix(2.1911194,0,0,-2.1555012,18.041308,44.040693)"
       id="g23309">
      <path
         id="path23311"
         style="fill:#84bbad;fill-opacity:1;fill-rule:nonzero;stroke:none"
         d="m 0,0 c -0.189,-0.191 -0.377,-0.384 -0.563,-0.576 -0.853,0.815 -1.322,1.492 -1.582,1.98 0.154,0.309 0.301,0.615 0.44,0.909 C -1.373,1.635 -0.817,0.711 0,0"
         inkscape:connector-curvature="0" />
    </g>
    <g
       transform="matrix(2.1911194,0,0,-2.1555012,45.781318,38.108978)"
       id="g23313">
      <path
         id="path23315"
         style="fill:#0b989a;fill-opacity:1;fill-rule:evenodd;stroke:none"
         d="m 0,0 c 0.064,-0.211 0.209,-0.662 0.381,-1.25 -0.627,-1.064 -1.582,-2.279 -2.836,-2.721 -0.871,-0.308 -1.561,-0.447 -2.088,-0.498 -0.287,0.264 -0.574,0.528 -0.867,0.78 1.514,10e-4 4.074,0.383 5.027,2.793 C -0.244,-0.545 -0.117,-0.248 0,0"
         inkscape:connector-curvature="0" />
    </g>
    <g
       transform="matrix(2.1911194,0,0,-2.1555012,48.105008,46.591944)"
       id="g23317">
      <path
         id="path23319"
         style="fill:#0b989a;fill-opacity:1;fill-rule:evenodd;stroke:none"
         d="M 0,0 C 0.077,-0.382 0.145,-0.764 0.195,-1.135 -0.354,-1.952 -1.141,-2.762 -2.182,-3.219 -2.666,-2.961 -3.121,-2.62 -3.564,-2.264 -2.471,-2.122 -1.09,-1.591 0,0"
         inkscape:connector-curvature="0" />
    </g>
    <g
       transform="matrix(2.1911194,0,0,-2.1555012,40.924062,44.512317)"
       id="g23321">
      <path
         id="path23323"
         style="fill:#84bbad;fill-opacity:1;fill-rule:nonzero;stroke:none"
         d="M 0,0 C 0.077,-0.193 0.166,-0.396 0.264,-0.611 L 0.322,-0.744 C 0.143,-0.845 -0.044,-0.932 -0.238,-1 -0.529,-1.104 -0.799,-1.188 -1.05,-1.255 c -0.323,0.177 -0.671,0.39 -1.02,0.61 0.672,0.09 1.404,0.28 2.07,0.645"
         inkscape:connector-curvature="0" />
    </g>
    <g
       transform="matrix(2.1911194,0,0,-2.1555012,42.197102,23.08341)"
       id="g23325">
      <path
         id="path23327"
         style="fill:#0b989a;fill-opacity:1;fill-rule:evenodd;stroke:none"
         d="M 0,0 C 0.601,-0.1 1.193,-0.098 1.806,-0.066 2.798,-0.784 3.89,-1.825 4.216,-3.09 4.326,-3.518 4.4,-3.901 4.45,-4.242 4.195,-4.424 3.944,-4.61 3.697,-4.801 3.614,-3.366 3.106,-1.646 1.332,-0.76 0.731,-0.459 0.302,-0.209 0,0"
         inkscape:connector-curvature="0" />
    </g>
    <g
       transform="matrix(2.1911194,0,0,-2.1555012,52.701328,22.771932)"
       id="g23329">
      <path
         id="path23331"
         style="fill:#0b989a;fill-opacity:1;fill-rule:evenodd;stroke:none"
         d="M 0,0 1.146,0.104 C 1.785,-0.473 2.369,-1.221 2.69,-2.128 2.549,-2.26 2.411,-2.391 2.28,-2.521 2.055,-2.695 1.826,-2.865 1.594,-3.031 1.475,-2.091 1.063,-0.994 0,0"
         inkscape:connector-curvature="0" />
    </g>
    <g
       transform="matrix(2.1911194,0,0,-2.1555012,45.609213,32.169539)"
       id="g23809">
      <path
         id="path23811"
         style="fill:#ebcd00;fill-opacity:1;fill-rule:nonzero;stroke:none"
         d="M 0,0 C 0.057,-0.152 -0.096,-0.323 -0.229,-0.323 -0.418,-0.418 -0.438,-0.019 -0.418,0.095 -0.305,0.266 -0.057,0.171 0,0"
         inkscape:connector-curvature="0" />
    </g>
  </g>
</svg>
