<?xml version="1.0" encoding="UTF-8" standalone="no"?>
<!-- Created with Inkscape (http://www.inkscape.org/) -->

<svg
   xmlns:dc="http://purl.org/dc/elements/1.1/"
   xmlns:cc="http://creativecommons.org/ns#"
   xmlns:rdf="http://www.w3.org/1999/02/22-rdf-syntax-ns#"
   xmlns:svg="http://www.w3.org/2000/svg"
   xmlns="http://www.w3.org/2000/svg"
   xmlns:sodipodi="http://sodipodi.sourceforge.net/DTD/sodipodi-0.dtd"
   xmlns:inkscape="http://www.inkscape.org/namespaces/inkscape"
   width="64px"
   height="64px"
   id="svg145255"
   version="1.1"
   inkscape:version="0.48.5 r10040"
   sodipodi:docname="Nowy dokument 29">
  <defs
     id="defs145257">
    <clipPath
       id="clipPath70801"
       clipPathUnits="userSpaceOnUse">
      <path
         inkscape:connector-curvature="0"
         id="path70803"
         d="M 0,800 1600,800 1600,0 0,0 0,800 z" />
    </clipPath>
    <clipPath
       id="clipPath70853"
       clipPathUnits="userSpaceOnUse">
      <path
         inkscape:connector-curvature="0"
         id="path70855"
         d="m 1323.28,73.0713 7.04,0 0,-22.9326 -7.04,0 0,22.9326 z" />
    </clipPath>
    <clipPath
       id="clipPath70905"
       clipPathUnits="userSpaceOnUse">
      <path
         inkscape:connector-curvature="0"
         id="path70907"
         d="m 1316.84,40.1787 4.18,0 0,-4.1767 -4.18,0 0,4.1767 z" />
    </clipPath>
    <clipPath
       id="clipPath70925"
       clipPathUnits="userSpaceOnUse">
      <path
         inkscape:connector-curvature="0"
         id="path70927"
         d="m 1320.45,50.2969 66.58,0 0,-14.3535 -66.58,0 0,14.3535 z" />
    </clipPath>
    <clipPath
       id="clipPath70941"
       clipPathUnits="userSpaceOnUse">
      <path
         inkscape:connector-curvature="0"
         id="path70943"
         d="m 1316.38,49.4199 66.58,0 0,-14.3525 -66.58,0 0,14.3525 z" />
    </clipPath>
    <clipPath
       id="clipPath70957"
       clipPathUnits="userSpaceOnUse">
      <path
         inkscape:connector-curvature="0"
         id="path70959"
         d="m 1326.68,48.3135 58.13,0 0,-5.6319 -58.13,0 0,5.6319 z" />
    </clipPath>
    <clipPath
       id="clipPath70973"
       clipPathUnits="userSpaceOnUse">
      <path
         inkscape:connector-curvature="0"
         id="path70975"
         d="m 1361.27,46.0469 8.93,0 0,-7.2891 -8.93,0 0,7.2891 z" />
    </clipPath>
    <clipPath
       id="clipPath70987"
       clipPathUnits="userSpaceOnUse">
      <path
         inkscape:connector-curvature="0"
         id="path70989"
         d="m 1318.76,42.6816 58.12,0 0,-5.7109 -58.12,0 0,5.7109 z" />
    </clipPath>
  </defs>
  <sodipodi:namedview
     id="base"
     pagecolor="#ffffff"
     bordercolor="#666666"
     borderopacity="1.0"
     inkscape:pageopacity="0.0"
     inkscape:pageshadow="2"
     inkscape:zoom="5.5"
     inkscape:cx="32"
     inkscape:cy="32"
     inkscape:current-layer="layer1"
     showgrid="true"
     inkscape:document-units="px"
     inkscape:grid-bbox="true"
     inkscape:window-width="1366"
     inkscape:window-height="706"
     inkscape:window-x="-8"
     inkscape:window-y="-8"
     inkscape:window-maximized="1" />
  <metadata
     id="metadata145260">
    <rdf:RDF>
      <cc:Work
         rdf:about="">
        <dc:format>image/svg+xml</dc:format>
        <dc:type
           rdf:resource="http://purl.org/dc/dcmitype/StillImage" />
        <dc:title></dc:title>
      </cc:Work>
    </rdf:RDF>
  </metadata>
  <g
     id="layer1"
     inkscape:label="Layer 1"
     inkscape:groupmode="layer">
    <g
       id="g70797"
       transform="matrix(0.77781421,0,0,-0.77781421,-1018.9973,69.666469)">
      <g
         id="g70799"
         clip-path="url(#clipPath70801)">
        <g
           id="g70805"
           transform="translate(1343.1348,17.8984)">
          <path
             inkscape:connector-curvature="0"
             d="M 0,0 C -0.217,0.477 -0.663,1.461 -0.743,1.992 L -1.618,4.334 C -1.859,4.227 -2.089,4.072 -2.302,3.86 c -1.302,-1.301 -0.425,-3.229 0.28,-4.778 0.258,-0.568 0.845,-1.863 0.746,-2.24 l 0.809,-2.168 c 0.255,0.132 0.506,0.308 0.745,0.549 0.705,0.703 0.771,1.591 0.572,2.506 L 0.006,-0.013 C 0.003,-0.008 0.001,-0.004 0,0"
             style="fill:#a7a5a6;fill-opacity:1;fill-rule:nonzero;stroke:none"
             id="path70807" />
        </g>
        <g
           id="g70809"
           transform="translate(1336.5693,13.9053)">
          <path
             inkscape:connector-curvature="0"
             d="m 0,0 1.571,-1.57 c 0.163,0.163 0.346,0.231 0.647,0.226 L 1.419,0.796 C 0.934,0.686 0.449,0.448 0,0"
             style="fill:#a7a5a6;fill-opacity:1;fill-rule:nonzero;stroke:none"
             id="path70811" />
        </g>
        <g
           id="g70813"
           transform="translate(1347.1699,23.0381)">
          <path
             inkscape:connector-curvature="0"
             d="m 0,0 c 0.242,-0.532 0.771,-1.698 0.755,-2.158 l 0.818,-2.193 c 0.258,0.107 0.503,0.266 0.728,0.491 1.302,1.302 0.426,3.23 -0.279,4.779 C 1.757,1.503 1.143,2.854 1.29,3.192 L 0.505,5.293 C 0.227,5.187 -0.038,5.021 -0.279,4.778 -1.1,3.958 -1.055,2.888 -0.732,1.821 L -0.32,0.719 C -0.215,0.474 -0.105,0.232 0,0"
             style="fill:#a7a5a6;fill-opacity:1;fill-rule:nonzero;stroke:none"
             id="path70815" />
        </g>
        <g
           id="g70817"
           transform="translate(1355.5283,25.2363)">
          <path
             inkscape:connector-curvature="0"
             d="m 0,0 c 1.302,1.301 0.425,3.229 -0.278,4.777 -0.271,0.596 -0.904,1.988 -0.736,2.285 0,0 0.001,10e-4 0.004,0.004 L -2.581,8.638 C -3.197,8.021 -3.324,7.264 -3.213,6.472 l 2.586,-6.919 C -0.406,-0.342 -0.196,-0.196 0,0"
             style="fill:#a7a5a6;fill-opacity:1;fill-rule:nonzero;stroke:none"
             id="path70819" />
        </g>
        <g
           id="g70821"
           transform="translate(1348.4658,26.25)">
          <path
             inkscape:connector-curvature="0"
             d="M 0,0 C 0.298,0.169 1.69,-0.465 2.284,-0.734 3.6,-1.333 5.188,-2.055 6.436,-1.461 L 3.85,5.458 C 3.974,4.58 4.392,3.66 4.762,2.846 5.032,2.251 5.665,0.859 5.488,0.553 5.19,0.384 3.798,1.017 3.203,1.287 1.942,1.86 0.43,2.548 -0.791,2.081 L -0.006,-0.02 C -0.004,-0.014 -0.003,-0.004 0,0"
             style="fill:#797677;fill-opacity:1;fill-rule:nonzero;stroke:none"
             id="path70823" />
        </g>
        <g
           id="g70825"
           transform="translate(1342.4082,20.1934)">
          <path
             inkscape:connector-curvature="0"
             d="m 0,0 c 0.297,0.168 1.689,-0.465 2.284,-0.735 1.281,-0.583 2.82,-1.282 4.051,-0.771 L 5.517,0.687 C 5.515,0.631 5.507,0.584 5.488,0.551 5.191,0.384 3.798,1.016 3.204,1.286 1.907,1.875 0.347,2.584 -0.892,2.039 l 0.875,-2.342 C -0.037,-0.169 -0.035,-0.062 0,0"
             style="fill:#797677;fill-opacity:1;fill-rule:nonzero;stroke:none"
             id="path70827" />
        </g>
        <g
           id="g70829"
           transform="translate(1346.4375,24.8594)">
          <path
             inkscape:connector-curvature="0"
             d="M 0,0 C 0.112,-0.371 0.259,-0.742 0.412,-1.103 L 0,0 z"
             style="fill:#ebebeb;fill-opacity:1;fill-rule:nonzero;stroke:none"
             id="path70831" />
        </g>
        <g
           id="g70833"
           transform="translate(1343.9844,15.627)">
          <path
             inkscape:connector-curvature="0"
             d="M 0,0 C -0.168,0.768 -0.523,1.552 -0.844,2.259 L 0,0 z"
             style="fill:#ebebeb;fill-opacity:1;fill-rule:nonzero;stroke:none"
             id="path70835" />
        </g>
        <g
           id="g70837"
           transform="translate(1341.8418,14.6914)">
          <path
             inkscape:connector-curvature="0"
             d="M 0,0 C -0.292,-0.293 -0.648,-0.279 -1.639,-0.088 -2.28,0.036 -3.067,0.187 -3.854,0.01 l 0.799,-2.14 c 0.241,-0.005 0.554,-0.054 0.993,-0.139 0.826,-0.16 1.895,-0.364 2.888,0.15 L 0.017,0.049 C 0.013,0.031 0.009,0.013 0,0"
             style="fill:#797677;fill-opacity:1;fill-rule:nonzero;stroke:none"
             id="path70839" />
        </g>
        <g
           id="g70841"
           transform="translate(1365.458,37.8926)">
          <path
             inkscape:connector-curvature="0"
             d="m 0,0 -6.096,-6.095 c 0,0 -0.886,-0.011 -1.323,0.426 l -0.729,0.73 c 0,0 -0.73,0.729 -1.29,0.168 C -10,-5.332 -10.747,-6.08 -10.747,-6.08 l -2.139,2.139 8.413,8.414 L 0,0 z"
             style="fill:#a7a5a6;fill-opacity:1;fill-rule:nonzero;stroke:none"
             id="path70843" />
        </g>
        <g
           id="g70845"
           transform="translate(1325.3232,73.9551)">
          <path
             inkscape:connector-curvature="0"
             d="m 0,0 2.949,-0.459 c 0,0 1.05,-0.195 0.687,-1.139 -0.363,-0.944 -1.839,-4.61 -1.839,-4.61 0,0 -0.424,-0.67 -1.335,-1.736 -0.91,-1.068 -1.93,-3.05 -2.031,-5.286 -0.102,-2.237 1.091,-5.245 2.22,-5.538 1.13,-0.293 2.556,-0.115 2.809,0.803 0.254,0.92 -0.079,1.506 -0.079,1.506 0,0 0.024,1.299 0.921,0.639 0.894,-0.662 1.251,-1.732 1.152,-2.702 -0.098,-0.971 -0.275,-2.361 -0.275,-2.361 0,0 -0.223,-0.799 -1.063,-0.642 l -0.839,0.156 c 0,0 -0.477,-0.309 -0.47,-0.594 0.006,-0.286 0.268,-0.686 0.58,-0.789 0.309,-0.103 0.784,-0.169 0.784,-0.169 0,0 0.834,-0.241 0.611,-1.112 -0.222,-0.871 -8.752,-3.592 -8.752,-3.592 l -1.86,0.475 c 0,0 -0.389,1.089 -0.342,1.906 0.046,0.814 -0.306,11.084 0.114,13.822 0.42,2.739 2.115,6.972 4.086,9.196 L 0,0 z"
             style="fill:#a7a5a6;fill-opacity:1;fill-rule:nonzero;stroke:none"
             id="path70847" />
        </g>
        <g
           id="g70849">
          <g
             id="g70851" />
          <g
             id="g70857">
            <g
               style="opacity:0.39999396"
               clip-path="url(#clipPath70853)"
               id="g70859">
              <g
                 transform="translate(1328.5605,50.7949)"
                 id="g70861">
                <path
                   inkscape:connector-curvature="0"
                   d="M 0,0 C 0.146,0.006 0.288,-0.012 0.428,-0.035 0.567,-0.06 0.712,-0.063 0.846,-0.113 L 0.853,-0.115 C 0.95,-0.166 1.055,-0.235 1.095,-0.344 1.112,-0.397 1.149,-0.446 1.127,-0.503 L 1.096,-0.656 c -0.028,0.102 -0.03,0.196 -0.085,0.265 -0.04,0.077 -0.126,0.115 -0.205,0.143 L 0.812,-0.25 C 0.67,-0.239 0.538,-0.183 0.401,-0.146 0.265,-0.109 0.13,-0.066 0,0"
                   style="fill:#ebebeb;fill-opacity:1;fill-rule:nonzero;stroke:none"
                   id="path70863" />
              </g>
              <g
                 transform="translate(1330.0381,53.2227)"
                 id="g70865">
                <path
                   inkscape:connector-curvature="0"
                   d="m 0,0 c -0.023,-0.134 -0.122,-0.291 -0.282,-0.321 -0.168,-0.058 -0.296,-0.003 -0.441,0.006 -0.276,0.046 -0.548,0.125 -0.819,0.194 l 0.022,0.005 -0.176,-0.076 0.142,0.129 0.006,0.004 0.018,0 c 0.14,-0.005 0.279,-0.031 0.419,-0.046 0.138,-0.024 0.28,-0.026 0.416,-0.066 0.128,-0.025 0.282,-0.089 0.388,-0.054 0.067,-0.004 0.11,0.047 0.17,0.073 0.047,0.041 0.1,0.09 0.137,0.152"
                   style="fill:#ebebeb;fill-opacity:1;fill-rule:nonzero;stroke:none"
                   id="path70867" />
              </g>
              <g
                 transform="translate(1323.9619,57.0957)"
                 id="g70869">
                <path
                   inkscape:connector-curvature="0"
                   d="m 0,0 c 0.294,-0.667 0.652,-1.32 1.168,-1.824 0.12,-0.137 0.281,-0.221 0.425,-0.323 0.168,-0.064 0.317,-0.142 0.505,-0.161 0.179,-0.029 0.36,-0.077 0.539,-0.076 0.182,-0.004 0.35,-0.034 0.535,-0.012 0.184,0.004 0.364,0.025 0.536,0.062 0.176,0.023 0.345,0.091 0.511,0.148 0.163,0.071 0.316,0.155 0.457,0.26 0.136,0.107 0.268,0.226 0.356,0.376 0.105,0.138 0.162,0.312 0.2,0.476 0.029,0.178 0.08,0.36 0.09,0.537 -0.009,0.176 0.021,0.353 -0.018,0.529 C 5.283,0.171 5.239,0.344 5.178,0.511 L 5.172,0.527 5.174,0.538 5.23,0.783 5.245,0.844 5.302,0.811 C 5.408,0.749 5.492,0.666 5.575,0.594 5.663,0.525 5.739,0.439 5.812,0.347 5.962,0.172 6.083,-0.026 6.164,-0.239 6.335,-0.662 6.394,-1.125 6.343,-1.571 6.369,-1.122 6.286,-0.669 6.099,-0.268 6.008,-0.068 5.892,0.128 5.745,0.287 5.677,0.372 5.604,0.453 5.513,0.522 5.424,0.597 5.346,0.671 5.255,0.721 L 5.326,0.748 5.279,0.524 5.275,0.551 C 5.345,0.376 5.394,0.195 5.418,0.01 5.462,-0.173 5.437,-0.366 5.447,-0.555 5.437,-0.74 5.392,-0.917 5.366,-1.098 5.326,-1.285 5.267,-1.473 5.154,-1.629 5.06,-1.796 4.917,-1.931 4.771,-2.05 4.62,-2.171 4.449,-2.253 4.275,-2.326 4.097,-2.385 3.92,-2.451 3.732,-2.474 3.545,-2.51 3.361,-2.526 3.179,-2.527 2.999,-2.546 2.802,-2.513 2.62,-2.504 2.432,-2.5 2.257,-2.449 2.076,-2.417 1.896,-2.396 1.715,-2.309 1.544,-2.236 1.394,-2.127 1.226,-2.033 1.104,-1.891 0.571,-1.365 0.262,-0.678 0,0"
                   style="fill:#ebebeb;fill-opacity:1;fill-rule:nonzero;stroke:none"
                   id="path70871" />
              </g>
              <g
                 transform="translate(1328.1904,73.0713)"
                 id="g70873">
                <path
                   inkscape:connector-curvature="0"
                   d="M 0,0 C 0.112,-0.027 0.228,-0.072 0.312,-0.155 0.414,-0.247 0.373,-0.378 0.343,-0.494 L 0.098,-1.153 -0.408,-2.466 -1.43,-5.085 -1.433,-5.094 -1.437,-5.098 c -0.412,-0.543 -0.822,-1.089 -1.246,-1.623 -0.438,-0.518 -0.801,-1.082 -1.122,-1.678 -0.139,-0.307 -0.304,-0.604 -0.415,-0.924 -0.13,-0.313 -0.236,-0.634 -0.323,-0.961 -0.106,-0.321 -0.16,-0.656 -0.236,-0.987 -0.066,-0.333 -0.086,-0.672 -0.132,-1.009 0.03,0.338 0.036,0.679 0.087,1.016 0.063,0.333 0.094,0.677 0.2,1.002 0.083,0.331 0.186,0.657 0.312,0.974 0.106,0.326 0.268,0.628 0.405,0.941 0.312,0.606 0.678,1.194 1.112,1.721 0.405,0.542 0.825,1.071 1.243,1.605 l -0.007,-0.013 1.062,2.603 0.536,1.3 0.273,0.648 c 0.035,0.095 0.079,0.237 -0.01,0.317 C 0.224,-0.083 0.111,-0.032 0,0"
                   style="fill:#ebebeb;fill-opacity:1;fill-rule:nonzero;stroke:none"
                   id="path70875" />
              </g>
            </g>
          </g>
        </g>
        <g
           id="g70877"
           transform="translate(1340.2578,85.7559)">
          <path
             inkscape:connector-curvature="0"
             d="m 0,0 c 0,0 9.648,-1.57 17.016,-9.461 7.366,-7.89 22.809,-24.604 22.809,-24.604 0,0 4.937,-4.562 3.964,-5.535 -0.973,-0.972 -4.86,-4.861 -4.86,-4.861 l -31.3,31.299 c 0,0 -6.918,6.17 -7.629,13.162"
             style="fill:#a7a5a6;fill-opacity:1;fill-rule:nonzero;stroke:none"
             id="path70879" />
        </g>
        <g
           id="g70881"
           transform="translate(1340.2578,85.7559)">
          <path
             inkscape:connector-curvature="0"
             d="m 0,0 c 0.711,-6.992 7.629,-13.162 7.629,-13.162 l 31.3,-31.299 c 0,0 0.184,0.186 0.486,0.486 l -31.3,31.299 c 0,0 -6.688,6.473 -8.115,12.676"
             style="fill:#cdcbcc;fill-opacity:1;fill-rule:nonzero;stroke:none"
             id="path70883" />
        </g>
        <g
           id="g70885"
           transform="translate(1351.4766,80.2969)">
          <path
             inkscape:connector-curvature="0"
             d="M 0,0 C 0,0 7.255,-6.059 8.9,-8.9 8.9,-8.9 2.955,-5.797 0,0"
             style="fill:#464344;fill-opacity:1;fill-rule:nonzero;stroke:none"
             id="path70887" />
        </g>
        <g
           id="g70889"
           transform="translate(1352.0068,79.8477)">
          <path
             inkscape:connector-curvature="0"
             d="m 0,0 c -0.334,0.285 -0.53,0.449 -0.53,0.449 2.955,-5.797 8.9,-8.9 8.9,-8.9 -0.084,0.145 -0.183,0.3 -0.296,0.461 C 6.666,-7.155 2.501,-4.424 0,0"
             style="fill:#ebebeb;fill-opacity:1;fill-rule:nonzero;stroke:none"
             id="path70891" />
        </g>
        <g
           id="g70893"
           transform="translate(1376.9727,53.7168)">
          <path
             inkscape:connector-curvature="0"
             d="M 0,0 -1.99,-2.012 -4.002,-4 -4.023,-3.979 c -0.001,0 0.194,0.306 0.517,0.733 0.172,0.203 0.356,0.457 0.583,0.699 0.226,0.242 0.468,0.501 0.709,0.76 0.259,0.241 0.518,0.482 0.76,0.709 0.24,0.228 0.495,0.41 0.698,0.582 0.427,0.324 0.733,0.517 0.733,0.517 L 0,0 z"
             style="fill:#676465;fill-opacity:1;fill-rule:nonzero;stroke:none"
             id="path70895" />
        </g>
        <g
           id="g70897"
           transform="translate(1316.4463,35.6191)">
          <path
             inkscape:connector-curvature="0"
             d="m 0,0 c -0.264,0.264 -0.264,0.691 0,0.953 0.263,0.264 0.69,0.264 0.953,0 C 1.217,0.691 1.217,0.264 0.953,0 0.69,-0.264 0.263,-0.264 0,0 m 3.897,3.898 c -0.634,0.635 -1.664,0.635 -2.298,0 l -2.161,-2.16 c -0.634,-0.634 -0.634,-1.664 0,-2.299 0.635,-0.634 1.665,-0.634 2.3,0 l 2.159,2.159 c 0.635,0.636 0.635,1.666 0,2.3"
             style="fill:#a7a5a6;fill-opacity:1;fill-rule:nonzero;stroke:none"
             id="path70899" />
        </g>
        <g
           id="g70901">
          <g
             id="g70903" />
          <g
             id="g70909">
            <g
               style="opacity:0.30000299"
               clip-path="url(#clipPath70905)"
               id="g70911">
              <g
                 transform="translate(1318.248,39.7031)"
                 id="g70913">
                <path
                   inkscape:connector-curvature="0"
                   d="m 0,0 -1.412,-1.412 c 0.597,-0.92 1.385,-1.701 2.309,-2.289 l 1.402,1.4 C 2.935,-1.665 2.935,-0.636 2.299,0 1.665,0.635 0.635,0.635 0,0"
                   style="fill:#a7a5a6;fill-opacity:1;fill-rule:nonzero;stroke:none"
                   id="path70915" />
              </g>
            </g>
          </g>
        </g>
        <g
           id="g70917"
           transform="translate(1387.0293,42.6816)">
          <path
             inkscape:connector-curvature="0"
             d="m 0,0 c 0,-4.205 -3.408,-7.614 -7.615,-7.614 l -55.422,0 c -4.205,0 -7.614,3.409 -7.614,7.614 0,4.206 3.409,7.615 7.614,7.615 l 55.422,0 C -3.408,7.615 0,4.206 0,0"
             style="fill:#b52126;fill-opacity:1;fill-rule:nonzero;stroke:none"
             id="path70919" />
        </g>
        <g
           id="g70921">
          <g
             id="g70923" />
          <g
             id="g70929">
            <g
               style="opacity:0.39999396"
               clip-path="url(#clipPath70925)"
               id="g70931">
              <g
                 transform="translate(1379.4141,48.0762)"
                 id="g70933">
                <path
                   inkscape:connector-curvature="0"
                   d="m 0,0 c 2.975,0 5.395,-2.42 5.395,-5.395 0,-2.973 -2.42,-5.393 -5.395,-5.393 l -2.688,0 6.236,-1.345 c 2.418,1.277 4.067,3.815 4.067,6.738 0,4.207 -3.408,7.616 -7.615,7.616 l -55.422,0 c -1.28,0 -2.486,-0.318 -3.547,-0.877 L -52.732,0 0,0 z"
                   style="fill:#b52126;fill-opacity:1;fill-rule:nonzero;stroke:none"
                   id="path70935" />
              </g>
            </g>
          </g>
        </g>
        <g
           id="g70937">
          <g
             id="g70939" />
          <g
             id="g70945">
            <g
               style="opacity:0.5"
               clip-path="url(#clipPath70941)"
               id="g70947">
              <g
                 transform="translate(1323.9922,35.0674)"
                 id="g70949">
                <path
                   inkscape:connector-curvature="0"
                   d="m 0,0 55.422,0 c 1.281,0 2.488,0.317 3.548,0.876 L 52.733,2.221 0,2.221 c -2.973,0 -5.394,2.42 -5.394,5.393 0,2.975 2.421,5.395 5.394,5.395 l 2.689,0 -6.236,1.344 C -5.964,13.077 -7.614,10.539 -7.614,7.614 -7.614,3.409 -4.205,0 0,0"
                   style="fill:#b52126;fill-opacity:1;fill-rule:nonzero;stroke:none"
                   id="path70951" />
              </g>
            </g>
          </g>
        </g>
        <g
           id="g70953">
          <g
             id="g70955" />
          <g
             id="g70961">
            <g
               style="opacity:0.80000299"
               clip-path="url(#clipPath70957)"
               id="g70963">
              <g
                 transform="translate(1326.6816,48.0762)"
                 id="g70965">
                <path
                   inkscape:connector-curvature="0"
                   d="m 0,0 c 0,0 3.824,0.053 9.562,0.133 2.868,0.021 6.213,0.047 9.799,0.072 3.586,0.011 7.41,0.022 11.235,0.032 3.824,-0.01 7.648,-0.021 11.234,-0.031 3.586,-0.026 6.932,-0.052 9.8,-0.073 0.358,-0.002 0.71,-0.006 1.053,-0.008 0.367,-0.029 0.681,-0.071 1.012,-0.107 0.647,-0.153 1.265,-0.36 1.759,-0.684 1.001,-0.618 1.71,-1.423 2.056,-2.191 0.222,-0.362 0.315,-0.729 0.404,-1.043 0.044,-0.157 0.095,-0.3 0.122,-0.434 0.012,-0.139 0.023,-0.264 0.032,-0.375 0.038,-0.447 0.059,-0.686 0.059,-0.686 0,0 -0.027,0.238 -0.079,0.683 -0.014,0.11 -0.027,0.234 -0.044,0.371 -0.031,0.133 -0.086,0.274 -0.134,0.428 -0.098,0.309 -0.199,0.667 -0.432,1.017 -0.361,0.747 -1.083,1.513 -2.07,2.082 -0.496,0.3 -1.073,0.472 -1.696,0.603 -0.321,0.028 -0.651,0.057 -0.989,0.086 -0.343,-0.004 -0.695,-0.006 -1.053,-0.01 -2.868,-0.021 -6.214,-0.046 -9.8,-0.072 -3.586,-0.01 -7.41,-0.021 -11.234,-0.031 -3.825,0.01 -7.649,0.021 -11.235,0.031 C 15.775,-0.18 12.43,-0.155 9.562,-0.134 3.824,-0.054 0,0 0,0"
                   style="fill:#e1a6a8;fill-opacity:1;fill-rule:nonzero;stroke:none"
                   id="path70967" />
              </g>
            </g>
          </g>
        </g>
        <g
           id="g70969">
          <g
             id="g70971" />
          <g
             id="g70977">
            <g
               clip-path="url(#clipPath70973)"
               id="g70979">
              <path
                 inkscape:connector-curvature="0"
                 d="m 1368.939,40.014 -1.485,0 0,4.777 1.485,0 0,-4.777 z m -6.412,4.777 3.67,0 0,-4.777 -3.67,0 0,4.777 z m -1.257,-6.033 8.927,0 0,7.289 -8.927,0 0,-7.289 z"
                 style="fill:#deddde;fill-opacity:1;fill-rule:nonzero;stroke:none"
                 id="path70981" />
            </g>
          </g>
        </g>
        <g
           id="g70983">
          <g
             id="g70985" />
          <g
             id="g70991">
            <g
               style="opacity:0.5"
               clip-path="url(#clipPath70987)"
               id="g70993">
              <g
                 transform="translate(1376.8848,37.2881)"
                 id="g70995">
                <path
                   inkscape:connector-curvature="0"
                   d="m 0,0 c 0,0 -3.824,-0.071 -9.561,-0.178 -2.869,-0.028 -6.214,-0.061 -9.8,-0.096 -3.585,-0.014 -7.41,-0.029 -11.235,-0.043 -3.824,0.014 -7.648,0.029 -11.234,0.042 -3.585,0.036 -6.932,0.068 -9.8,0.096 -0.358,0.004 -0.71,0.008 -1.053,0.012 -0.375,0.031 -0.683,0.072 -1.015,0.111 -0.651,0.157 -1.276,0.369 -1.77,0.697 -1.004,0.626 -1.711,1.437 -2.053,2.21 -0.222,0.363 -0.313,0.73 -0.401,1.046 -0.043,0.158 -0.093,0.301 -0.119,0.436 -0.012,0.138 -0.022,0.263 -0.03,0.375 -0.036,0.447 -0.056,0.686 -0.056,0.686 0,0 0.029,-0.238 0.083,-0.682 0.014,-0.111 0.028,-0.234 0.045,-0.371 0.032,-0.133 0.088,-0.274 0.137,-0.427 0.098,-0.308 0.202,-0.665 0.435,-1.013 0.364,-0.742 1.089,-1.502 2.073,-2.062 0.497,-0.298 1.068,-0.464 1.686,-0.592 0.32,-0.025 0.649,-0.053 0.985,-0.08 0.343,0.004 0.695,0.008 1.053,0.012 2.868,0.028 6.215,0.06 9.8,0.096 3.586,0.013 7.41,0.028 11.234,0.042 3.825,-0.014 7.65,-0.029 11.235,-0.043 3.586,-0.035 6.931,-0.068 9.8,-0.096 C -3.824,0.071 0,0 0,0"
                   style="fill:#b52126;fill-opacity:1;fill-rule:nonzero;stroke:none"
                   id="path70997" />
              </g>
            </g>
          </g>
        </g>
        <path
           inkscape:connector-curvature="0"
           d="m 1362.846,40.293 6.41,0 0,4.777 -6.41,0 0,-4.777 z m 7.668,-1.256 -8.926,0 0,7.291 8.926,0 0,-7.291 z"
           style="fill:#deddde;fill-opacity:1;fill-rule:nonzero;stroke:none"
           id="path70999" />
        <path
           inkscape:connector-curvature="0"
           d="m 1367.771,39.664 -1.257,0 0,6.035 1.257,0 0,-6.035 z"
           style="fill:#deddde;fill-opacity:1;fill-rule:nonzero;stroke:none"
           id="path71001" />
        <g
           id="g71003"
           transform="translate(1319.2158,43.5654)">
          <path
             inkscape:connector-curvature="0"
             d="m 0,0 0,-2.802 0.687,0 0,3.278 -3.44,0 C -2.784,0.319 -2.809,0.161 -2.829,0 L 0,0 z"
             style="fill:#68111e;fill-opacity:1;fill-rule:nonzero;stroke:none"
             id="path71005" />
        </g>
        <g
           id="g71007"
           transform="translate(1319.2158,43.5654)">
          <path
             inkscape:connector-curvature="0"
             d="m 0,0 -2.829,0 c -0.039,-0.315 -0.061,-0.636 -0.061,-0.962 0,-0.636 0.077,-1.25 0.225,-1.84 L 0,-2.802 0,0 z"
             style="fill:#deddde;fill-opacity:1;fill-rule:nonzero;stroke:none"
             id="path71009" />
        </g>
      </g>
    </g>
  </g>
</svg>
