<?xml version="1.0" encoding="UTF-8" standalone="no"?>
<!-- Created with Inkscape (http://www.inkscape.org/) -->

<svg
   xmlns:dc="http://purl.org/dc/elements/1.1/"
   xmlns:cc="http://creativecommons.org/ns#"
   xmlns:rdf="http://www.w3.org/1999/02/22-rdf-syntax-ns#"
   xmlns:svg="http://www.w3.org/2000/svg"
   xmlns="http://www.w3.org/2000/svg"
   xmlns:sodipodi="http://sodipodi.sourceforge.net/DTD/sodipodi-0.dtd"
   xmlns:inkscape="http://www.inkscape.org/namespaces/inkscape"
   width="64px"
   height="64px"
   id="svg176548"
   version="1.1"
   inkscape:version="0.48.5 r10040"
   sodipodi:docname="Nowy dokument 48">
  <defs
     id="defs176550" />
  <sodipodi:namedview
     id="base"
     pagecolor="#ffffff"
     bordercolor="#666666"
     borderopacity="1.0"
     inkscape:pageopacity="0.0"
     inkscape:pageshadow="2"
     inkscape:zoom="5.5"
     inkscape:cx="32"
     inkscape:cy="32"
     inkscape:current-layer="layer1"
     showgrid="true"
     inkscape:document-units="px"
     inkscape:grid-bbox="true"
     inkscape:window-width="1366"
     inkscape:window-height="706"
     inkscape:window-x="-8"
     inkscape:window-y="-8"
     inkscape:window-maximized="1" />
  <metadata
     id="metadata176553">
    <rdf:RDF>
      <cc:Work
         rdf:about="">
        <dc:format>image/svg+xml</dc:format>
        <dc:type
           rdf:resource="http://purl.org/dc/dcmitype/StillImage" />
        <dc:title></dc:title>
      </cc:Work>
    </rdf:RDF>
  </metadata>
  <g
     id="layer1"
     inkscape:label="Layer 1"
     inkscape:groupmode="layer">
    <g
       transform="matrix(0.506996,0,0,-0.70294817,30.915489,1.5608808)"
       id="g8409">
      <path
         id="path8411"
         style="fill:#000000;fill-opacity:1;fill-rule:nonzero;stroke:none"
         d="m 0,0 c -0.5,-0.907 -1.832,-1.56 -2.12,-1.869 1.576,-0.097 2.936,-0.955 3.845,-2.292 1.17,-1.409 0.477,-3.582 1.718,-4.919 1.481,-3.247 1.815,-7.545 -0.74,-10.386 -0.764,-0.93 -2.828,-2.574 -3.758,-3.218 0,0 -2.521,-2.559 -4.145,-4.446 l 0.693,-4.25 c 1.241,1.147 2.889,1.91 4.465,2.579 0.215,0.025 -0.358,-1.672 -0.524,-2.531 0.882,0 1.981,0.311 2.863,-0.048 2.101,3.987 5.921,7.928 10.266,9.287 3.153,0.454 5.707,-1.551 7.736,-3.963 3.51,-5.372 4.178,-12.128 3.653,-18.742 -0.119,-0.309 -0.166,-0.668 -0.214,-1.025 1.146,-0.527 2.864,-0.646 3.2,-2.125 -0.288,-0.955 -1.386,-1.17 -2.222,-1.362 1.29,-0.502 2.889,-0.955 3.725,-2.244 0.3,-1.248 -2.985,-1.194 -4.084,-1.265 1.267,-0.883 3.629,-1.504 3.511,-3.439 -0.907,-1.025 -2.316,-1.074 -3.677,-1.074 1.194,-0.787 2.817,-1.36 3.605,-2.649 0.251,-1.303 -4.369,-1.1 -6.017,-1.028 1.791,-0.788 4.962,-3.17 4.962,-4.856 -0.794,-0.895 -3.673,-1.256 -5.582,-1.327 3.654,-3.94 8.093,-6.495 12.773,-8.19 0.048,-0.19 -0.707,-1.066 -4.248,-0.573 -0.168,-0.597 -0.718,-0.954 -1.243,-1.218 -1.194,-0.309 -2.149,0.287 -3.056,0.813 -0.263,-0.526 -0.692,-1.002 -1.242,-1.194 -1.122,-0.335 -2.1,0.262 -2.984,0.787 -0.382,-0.572 -0.74,-1.383 -1.505,-1.55 -1.074,-0.193 -2.099,-0.097 -2.912,0.691 -0.287,-0.502 -0.955,-0.572 -1.433,-0.859 1.91,-0.574 3.94,-1.195 5.324,-2.793 0.454,-0.788 0.168,-1.838 -0.214,-2.532 -0.597,-0.501 -1.265,-1.097 -2.125,-1.097 -1.099,-0.025 -1.862,0.884 -2.698,1.337 -0.645,0.788 -1.313,1.766 -2.244,2.386 -0.311,0.025 -0.454,-0.309 -0.502,-0.572 -0.071,-1.672 1.648,-3.319 0.287,-5.038 -0.407,-0.525 -0.884,-0.979 -1.552,-1.145 -1.242,-0.192 -2.483,0.19 -3.151,1.312 -0.909,1.91 1.098,3.295 1.384,5.063 -0.024,0.213 -0.142,0.643 -0.478,0.38 -1.145,-0.525 -2.602,-1.504 -2.746,-2.912 -0.5,-0.907 -1.503,-1.457 -2.625,-1.479 -0.095,0.214 -0.358,-0.072 -0.526,0.095 -0.906,0.142 -1.718,0.811 -2.22,1.503 -0.5,-0.979 -1.289,-1.91 -2.411,-2.077 -0.74,0 -1.433,0.095 -2.005,0.479 -1.434,1.43 -0.836,4.033 -0.407,5.657 -1.432,-1.145 -2.914,-2.507 -3.319,-4.298 -0.429,-0.835 -2.651,-2.953 -4.989,-0.167 -0.334,0.598 -0.597,1.314 -0.406,2.053 0.168,0.574 0.645,1.075 1.026,1.506 l -0.573,0.619 c -0.405,-0.143 -0.812,0.024 -1.146,0.287 -0.333,0.216 -0.071,0.573 0,0.813 0.312,0.547 1.146,0.167 1.218,0.907 1.911,2.076 4.704,0.357 7.043,1.025 0.741,0.334 0.574,2.914 0.693,3.439 -3.176,1.479 -3.653,5.276 -3.558,8.26 l -0.119,0.12 c -3.127,0 -6.136,1.599 -7.784,4.345 -1.026,2.125 -1.886,4.609 -1.265,7.115 -0.478,0.668 -1.179,1.803 -1.179,1.803 -0.335,-0.549 -0.778,-1.254 -1.638,-1.229 -0.526,1.097 -0.383,2.411 -0.454,3.771 -0.693,-0.215 -1.193,-1.026 -2.054,-0.788 -0.189,1.314 1.458,4.25 1.601,4.584 -0.311,0.024 -0.979,-0.357 -1.145,0.097 0.093,1.122 1.025,1.957 1.884,2.649 -0.071,0.286 -1.408,0.645 -1.431,1.147 0.644,0.287 1.431,0.381 2.125,0.334 -1.696,1.694 -1.744,4.489 -1.314,6.661 1.863,4.799 6.423,8.356 10.601,11.46 -1.074,0.55 -2.697,0.429 -3.724,-0.119 -2.484,-2.269 -5.54,-3.2 -8.716,-3.796 -1.097,-0.693 -0.382,-2.388 -1.312,-3.2 -1.815,0.764 -2.604,2.769 -3.558,4.297 -1.528,3.175 -1.673,7.904 0.62,10.768 1.696,1.767 3.868,2.769 6.375,2.244 0.979,0.287 1.982,-0.883 2.627,0.119 0.287,-0.095 0.597,-0.095 0.86,-0.238 1.241,3.08 4.226,6.471 7.568,7.211 1.122,1.672 2.816,3.413 4.751,3.844 -0.621,0.763 -1.194,1.599 -1.839,2.292 0.382,0.047 2.244,-1.649 2.244,-1.649 0.311,0.599 0.478,1.338 1.099,1.721 0.095,-0.646 -0.405,-1.315 -0.478,-2.007 C -2.764,-2.036 -1.408,-0.286 0,0 m 4.471,-68.793 c -1.099,0.192 -2.293,-0.118 -3.439,-0.167 -0.094,-1.909 -0.884,-3.796 -2.626,-4.703 -0.049,-0.954 -0.071,-2.195 0.906,-2.65 1.434,0.143 2.937,0.501 4.37,0.12 1.558,3.093 0.813,7.257 0.789,7.4 m 2.65,-9.335 -1.098,0.789 c -0.335,-0.12 -0.621,-0.335 -0.979,-0.406 -0.933,-1.862 -2.651,-0.238 -4.228,-0.74 -0.5,-0.192 -1.67,0.023 -1.311,-0.979 0.166,-1.171 0.597,-2.245 1.527,-2.961 0.454,0.646 1.003,1.337 1.79,1.648 1.791,0.502 3.487,1.17 4.919,2.53 l -0.62,0.119 z"
         inkscape:connector-curvature="0" />
    </g>
    <g
       transform="matrix(0.506996,0,0,-0.70294817,32.019577,7.3903624)"
       id="g8413">
      <path
         id="path8415"
         style="fill:#f3dcca;fill-opacity:1;fill-rule:nonzero;stroke:none"
         d="m 0,0 c 1.791,-3.103 2.604,-7.544 0.191,-10.6 -1.194,-1.409 -2.769,-2.149 -4.082,-3.438 -3.271,-3.772 -6.853,-7.4 -8.763,-11.794 -0.334,-1.003 -0.334,-2.125 0.168,-3.032 0.222,-0.068 0.287,0.859 0.287,1.241 0.596,-0.979 1.408,-2.173 2.53,-2.626 -1.241,-0.74 -3.319,-1.337 -3.892,-2.984 0.12,-0.287 0.835,-0.239 1.028,-0.287 -1.314,-0.311 -2.078,-1.336 -3.105,-2.172 -2.483,0.548 -5.324,2.22 -6.303,4.87 -1.623,5.562 3.582,9.598 7.283,12.94 1.217,0.74 2.099,1.91 3.389,2.484 0.334,-0.144 1.105,-0.468 1.074,-0.288 -0.834,1.363 -2.412,1.696 -4.01,1.6 2.912,0.525 6.327,-0.262 8.094,2.698 0.716,1.05 1.312,2.626 0.572,3.892 -0.311,0.096 0.766,1.022 2.055,1.266 -0.479,0.406 -1.029,-0.047 -1.553,-0.072 -0.932,-0.335 -1.742,-0.931 -2.291,-1.839 0.07,-0.167 0.094,-0.358 0.237,-0.501 0.406,0.095 0.501,0.596 0.861,0.741 0.548,-0.836 0.214,-2.031 -0.168,-2.818 -1.862,-3.701 -6.637,-1.552 -9.408,-3.604 -0.977,0.166 -0.858,1.336 -1.264,2.005 -0.334,2.172 0.955,4.297 -0.215,6.182 l -0.931,0.861 c 1.169,3.15 4.011,6.254 7.329,7.115 1.91,2.41 4.512,4.392 7.641,3.723 C -0.39,4.986 -0.238,1.194 0,0"
         inkscape:connector-curvature="0" />
    </g>
    <g
       transform="matrix(0.506996,0,0,-0.70294817,32.019577,7.3903624)"
       id="g8417">
      <path
         id="path8419"
         style="fill:#edccb8;fill-opacity:1;fill-rule:nonzero;stroke:none"
         d="m 0,0 c 1.791,-3.103 2.604,-7.544 0.191,-10.6 -1.194,-1.409 -2.769,-2.149 -4.082,-3.438 -3.271,-3.772 -6.853,-7.4 -8.763,-11.794 -0.334,-1.003 -0.334,-2.125 0.168,-3.032 0.222,-0.068 0.287,0.859 0.287,1.241 0.596,-0.979 1.408,-2.173 2.53,-2.626 -1.241,-0.74 -3.319,-1.337 -3.892,-2.984 0.12,-0.287 0.835,-0.239 1.028,-0.287 -1.314,-0.311 -2.078,-1.336 -3.105,-2.172 -0.528,0.117 -1.072,0.284 -1.61,0.501 1.172,0.138 2.894,0.706 3.153,2.81 0.398,3.235 -4.713,4.542 -0.341,9.818 4.372,5.278 6.243,7.49 6.243,7.49 0,0 -0.906,0.939 -2.463,1.306 1.801,0.168 3.475,0.586 4.545,2.379 0.716,1.05 1.312,2.626 0.572,3.892 -0.311,0.096 0.766,1.022 2.055,1.266 -0.479,0.406 -1.029,-0.047 -1.553,-0.072 -0.932,-0.335 -1.742,-0.931 -2.291,-1.839 0.07,-0.167 0.094,-0.358 0.237,-0.501 0.406,0.095 0.501,0.596 0.861,0.741 0.548,-0.836 0.214,-2.031 -0.168,-2.818 -1.862,-3.701 -6.637,-1.552 -9.408,-3.604 -0.59,0.1 -0.781,0.566 -0.928,1.068 0.258,0.109 0.515,0.224 0.768,0.341 4.253,1.984 5.954,1.245 6.978,2.099 1.022,0.851 -0.285,3.068 0.625,4.03 0.908,0.962 3.688,2.379 3.973,3.344 0.285,0.965 -1.307,3.917 -1.307,3.917 0,0 2.105,3.539 -1.236,4.676 1.126,0.502 2.359,0.696 3.687,0.411 C -0.39,4.986 -0.238,1.194 0,0"
         inkscape:connector-curvature="0" />
    </g>
    <g
       transform="matrix(0.506996,0,0,-0.70294817,30.85759,5.2918483)"
       id="g8421">
      <path
         id="path8423"
         style="fill:#c96f4d;fill-opacity:1;fill-rule:nonzero;stroke:none"
         d="m 0,0 c -0.022,-0.31 -0.095,-0.693 -0.452,-0.74 -0.312,0.023 -0.646,0.119 -0.789,0.453 C -1.217,0 -1.146,0.406 -0.788,0.453 -0.502,0.406 -0.048,0.406 0,0"
         inkscape:connector-curvature="0" />
    </g>
    <g
       transform="matrix(0.506996,0,0,-0.70294817,30.748638,5.2918483)"
       id="g8425">
      <path
         id="path8427"
         style="fill:#edccb8;fill-opacity:1;fill-rule:nonzero;stroke:none"
         d="m 0,0 c 0.048,-0.239 -0.071,-0.382 -0.237,-0.525 -0.216,0.071 -0.431,0.071 -0.502,0.358 0,0.191 0.118,0.262 0.286,0.405 C -0.31,0.143 -0.095,0.19 0,0"
         inkscape:connector-curvature="0" />
    </g>
    <g
       transform="matrix(0.506996,0,0,-0.70294817,30.082698,6.0641079)"
       id="g8429">
      <path
         id="path8431"
         style="fill:#c96f4d;fill-opacity:1;fill-rule:nonzero;stroke:none"
         d="m 0,0 c 0.145,-0.43 -0.022,-0.859 -0.285,-1.193 -0.36,-0.287 -0.813,-0.454 -1.266,-0.287 -0.334,0.12 -0.574,0.478 -0.644,0.812 -0.072,0.572 0.428,1.073 0.859,1.313 C -0.883,0.932 -0.262,0.55 0,0"
         inkscape:connector-curvature="0" />
    </g>
    <g
       transform="matrix(0.506996,0,0,-0.70294817,29.938155,6.6682212)"
       id="g8433">
      <path
         id="path8435"
         style="fill:#edccb8;fill-opacity:1;fill-rule:nonzero;stroke:none"
         d="m 0,0 c -0.336,-0.358 -0.836,-0.621 -1.266,-0.334 -0.429,0.262 -0.429,0.836 -0.238,1.193 0.238,0.502 0.668,0.24 1.025,0.526 C -0.049,1.075 0.31,0.525 0,0"
         inkscape:connector-curvature="0" />
    </g>
    <g
       transform="matrix(0.506996,0,0,-0.70294817,28.824131,7.8764477)"
       id="g8437">
      <path
         id="path8439"
         style="fill:#000000;fill-opacity:1;fill-rule:nonzero;stroke:none"
         d="M 0,0 C 0,-0.096 -3.08,1.241 -4.751,1.146 -4.607,1.719 -3.986,2.34 -3.366,2.531 -2.006,2.292 -0.691,1.289 0,0"
         inkscape:connector-curvature="0" />
    </g>
    <g
       transform="matrix(0.506996,0,0,-0.70294817,28.448853,7.4734505)"
       id="g8441">
      <path
         id="path8443"
         style="fill:#ecc051;fill-opacity:1;fill-rule:nonzero;stroke:none"
         d="m 0,0 c -1.193,0.43 -2.22,0.883 -3.557,0.859 0.071,0.406 0.524,0.597 0.811,0.812 C -1.624,1.6 -0.669,0.906 0,0"
         inkscape:connector-curvature="0" />
    </g>
    <g
       transform="matrix(0.506996,0,0,-0.70294817,30.95463,6.617401)"
       id="g8445">
      <path
         id="path8447"
         style="fill:#c96f4d;fill-opacity:1;fill-rule:nonzero;stroke:none"
         d="m 0,0 c 0.096,-0.406 -0.263,-0.502 -0.478,-0.693 -0.287,0 -0.621,0.143 -0.668,0.454 -0.072,0.261 0.072,0.454 0.287,0.645 C -0.55,0.501 -0.191,0.238 0,0"
         inkscape:connector-curvature="0" />
    </g>
    <g
       transform="matrix(0.506996,0,0,-0.70294817,30.833307,6.6682212)"
       id="g8449">
      <path
         id="path8451"
         style="fill:#edccb8;fill-opacity:1;fill-rule:nonzero;stroke:none"
         d="m 0,0 c 0.12,-0.263 -0.167,-0.358 -0.333,-0.382 -0.216,0.096 -0.478,0.358 -0.287,0.621 0.238,0 0.477,0 0.62,-0.239"
         inkscape:connector-curvature="0" />
    </g>
    <g
       transform="matrix(0.506996,0,0,-0.70294817,28.860788,9.1518779)"
       id="g8453">
      <path
         id="path8455"
         style="fill:#000000;fill-opacity:1;fill-rule:nonzero;stroke:none"
         d="m 0,0 c 0.334,-0.741 0.453,-1.839 -0.168,-2.482 l 1.647,0.189 c -1.567,-0.569 -2.985,-1.192 -4.13,-2.578 -0.238,-0.096 -0.525,0.143 -0.334,0.383 0.072,0.071 0.072,0.166 0.168,0.238 -0.908,0.358 -3.342,1.614 -1.699,4.565 C -3.967,0.84 -1.905,2.413 0,0"
         inkscape:connector-curvature="0" />
    </g>
    <g
       transform="matrix(0.506996,0,0,-0.70294817,32.08001,10.696467)"
       id="g8457">
      <path
         id="path8459"
         style="fill:#c96f4d;fill-opacity:1;fill-rule:nonzero;stroke:none"
         d="m 0,0 c 0.12,-0.285 -0.214,-0.645 -0.501,-0.739 -0.31,-0.048 -0.549,0.286 -0.644,0.524 -0.214,0.431 0.286,0.479 0.525,0.693 C -0.333,0.502 -0.048,0.264 0,0"
         inkscape:connector-curvature="0" />
    </g>
    <g
       transform="matrix(0.506996,0,0,-0.70294817,31.971562,10.896875)"
       id="g8461">
      <path
         id="path8463"
         style="fill:#edccb8;fill-opacity:1;fill-rule:nonzero;stroke:none"
         d="M 0,0 -0.358,-0.216 C -0.526,-0.049 -0.765,0.119 -0.692,0.404 -0.358,0.596 0.144,0.404 0,0"
         inkscape:connector-curvature="0" />
    </g>
    <g
       transform="matrix(0.506996,0,0,-0.70294817,22.384215,12.055689)"
       id="g8465">
      <path
         id="path8467"
         style="fill:#ba5534;fill-opacity:1;fill-rule:nonzero;stroke:none"
         d="m 0,0 c 2.531,-2.148 -0.356,-5.969 2.579,-7.903 l 0.048,-0.238 c -1.241,-1.719 -5.034,-3.247 -8.715,-3.963 -0.573,-0.789 -0.524,-1.839 -0.788,-2.746 -3.079,2.912 -4.607,7.186 -3.559,11.531 C -9.901,0.472 -3.999,2.802 0,0"
         inkscape:connector-curvature="0" />
    </g>
    <g
       transform="matrix(0.506996,0,0,-0.70294817,22.820385,11.451569)"
       id="g8469">
      <path
         id="path8471"
         style="fill:#ba5534;fill-opacity:1;fill-rule:nonzero;stroke:none"
         d="m 0,0 c 2.172,-2.054 0.143,-4.561 0.859,-7.114 -0.502,2.1 0.502,5.825 -2.412,7.33 C -0.932,0.74 -0.26,0.067 0,0"
         inkscape:connector-curvature="0" />
    </g>
    <g
       transform="matrix(0.506996,0,0,-0.70294817,32.346386,12.223834)"
       id="g8473">
      <path
         id="path8475"
         style="fill:#c96f4d;fill-opacity:1;fill-rule:nonzero;stroke:none"
         d="m 0,0 c -0.023,-0.62 -0.5,-1.05 -1.026,-1.265 -0.501,0 -0.98,0.24 -1.146,0.693 -0.239,0.262 -0.071,0.669 0.047,0.93 0.216,0.335 0.455,0.407 0.812,0.574 C -0.691,1.052 -0.311,0.406 0,0"
         inkscape:connector-curvature="0" />
    </g>
    <g
       transform="matrix(0.506996,0,0,-0.70294817,32.226074,12.306922)"
       id="g8477">
      <path
         id="path8479"
         style="fill:#edccb8;fill-opacity:1;fill-rule:nonzero;stroke:none"
         d="m 0,0 c 0.071,-0.406 -0.407,-0.765 -0.741,-0.86 -0.238,-0.095 -0.549,0.023 -0.74,0.239 -0.288,0.263 -0.407,0.764 -0.166,1.098 0.237,0.24 0.595,0.429 0.955,0.287 C -0.336,0.644 -0.168,0.285 0,0"
         inkscape:connector-curvature="0" />
    </g>
    <g
       transform="matrix(0.506996,0,0,-0.70294817,20.89537,12.425017)"
       id="g8481">
      <path
         id="path8483"
         style="fill:#000000;fill-opacity:1;fill-rule:nonzero;stroke:none"
         d="M 0,0 C 0.359,-1.098 -0.739,-1.6 -1.36,-2.125 L -1.766,-2.22 c 0.024,0.334 0.526,0.263 0.74,0.5 1.29,0.622 -0.693,1.363 0.454,2.126 C -0.262,0.525 -0.071,0.191 0,0"
         inkscape:connector-curvature="0" />
    </g>
    <g
       transform="matrix(0.506996,0,0,-0.70294817,20.786471,12.576005)"
       id="g8485">
      <path
         id="path8487"
         style="fill:#ffffff;fill-opacity:1;fill-rule:nonzero;stroke:none"
         d="m 0,0 c -0.047,-0.238 0.096,-0.549 -0.119,-0.691 -0.286,0.142 -0.311,0.476 -0.286,0.788 l 0.118,0.286 C -0.096,0.406 0.024,0.167 0,0"
         inkscape:connector-curvature="0" />
    </g>
    <g
       transform="matrix(0.506996,0,0,-0.70294817,41.000958,20.27962)"
       id="g8489">
      <path
         id="path8491"
         style="fill:#7881a3;fill-opacity:1;fill-rule:nonzero;stroke:none"
         d="m 0,0 c 1.721,-3.198 3.08,-6.637 3.391,-10.479 0.215,-3.106 0.095,-5.159 -0.12,-8.143 -0.931,0.668 -2.101,1.79 -3.39,2.077 0.742,0.668 1.959,1.767 1.553,3.151 -0.191,0.622 -0.861,0.956 -1.195,1.481 l -0.071,-0.048 c 2.397,-3.033 -1.146,-4.584 -1.146,-4.584 1.504,-0.525 3.175,-1.266 4.082,-2.649 0,-0.98 -1.002,-1.577 -1.791,-1.887 -0.858,-0.263 -1.837,-0.023 -2.626,0.238 0.597,-0.978 2.556,-1.981 2.914,-3.51 -0.048,-0.405 -0.263,-0.93 -0.741,-1.026 -1.242,-0.357 -2.746,0.119 -3.891,0.454 1.289,-1.051 2.842,-2.388 3.437,-3.891 -0.07,-0.359 -0.023,-0.885 -0.525,-0.908 -2.123,-0.502 -4.416,0.047 -6.303,0.861 0,0 2.674,-1.84 3.891,-3.273 0.217,-0.358 0.551,-0.883 0.193,-1.264 -1.91,-1.41 -4.8,-0.526 -6.83,0.047 2.055,-0.955 4.943,-1.862 7.043,-0.335 0.358,0.408 0.573,-0.238 0.932,-0.238 2.674,-0.955 7.546,-3.112 7.162,-4.967 -1.617,-2.046 -18.881,-0.443 -22.584,7.377 -1.744,4.777 -0.239,10.197 0.691,14.852 1.125,4.068 4.034,9.55 5.491,12.486 0,0 -3.055,-4.942 -4.296,-7.329 l -0.407,-1.146 -0.454,0.167 c 0.071,0.335 0.717,0.405 0.813,0.859 0,0.334 -0.192,0.621 -0.407,0.86 0.192,0.12 0.477,0.215 0.574,0.454 0.024,0.644 -0.597,1.217 -1.146,1.67 0.334,0.215 0.764,0.24 0.979,0.622 -0.168,1.193 -1.482,1.551 -2.412,1.885 L -18,-6.016 c 0.334,0.407 1.121,0.31 1.098,0.978 l 0,0.335 c 2.053,3.892 5.8,7.593 10.027,8.716 C -3.961,4.083 -1.693,2.197 0,0"
         inkscape:connector-curvature="0" />
    </g>
    <g
       transform="matrix(0.506996,0,0,-0.70294817,28.242861,24.105345)"
       id="g8493">
      <path
         id="path8495"
         style="fill:#7881a3;fill-opacity:1;fill-rule:nonzero;stroke:none"
         d="m 0,0 c -0.189,-0.12 -0.189,-0.335 -0.381,-0.454 -0.168,0.621 0.359,1.36 -0.24,1.767 -1.215,-0.288 -1.838,-1.41 -2.578,-2.34 -0.812,1.146 0.572,1.958 0.908,2.913 l 1.838,2.292 C -0.119,2.863 0.121,1.432 0,0"
         inkscape:connector-curvature="0" />
    </g>
    <g
       transform="matrix(0.506996,0,0,-0.70294817,30.276776,24.138946)"
       id="g8497">
      <path
         id="path8499"
         style="fill:#ffffff;fill-opacity:1;fill-rule:nonzero;stroke:none"
         d="M 0,0 C 0.906,-0.049 1.982,0.382 2.984,0.215 L 1.337,-0.692 C 2.006,-1.338 2.984,-0.932 3.845,-1.219 4.537,-1.408 5.301,-1.695 5.682,-2.364 5.275,-2.723 4.513,-2.555 4.369,-3.152 4.847,-3.63 5.539,-3.868 5.921,-4.536 5.707,-4.918 4.941,-4.703 4.941,-5.157 5.229,-5.492 5.85,-5.706 5.634,-6.185 L 4.656,-6.948 c 0.191,-0.478 1.623,-0.668 0.859,-1.481 -0.693,-0.429 -1.41,-0.788 -2.172,-0.978 0.166,-0.526 1.145,-0.86 0.858,-1.433 -0.858,-0.692 -1.766,-1.218 -2.768,-1.552 0.358,-0.644 1.194,-0.836 1.551,-1.432 -0.787,-0.74 -2.053,-0.646 -3.08,-0.955 -0.095,-0.359 0.478,-0.598 0.621,-0.932 -0.763,-0.477 -1.671,-0.931 -2.697,-0.906 -0.049,-0.264 -0.336,-0.239 -0.502,-0.359 0.43,-0.19 0.74,-0.644 0.859,-1.075 -1.123,-0.739 -2.697,-0.453 -3.844,-0.93 l 0.622,-1.719 c -1.266,-0.359 -2.508,0.357 -3.725,0.644 -0.717,-0.072 -0.408,-2.364 -0.408,-2.364 -0.881,0.191 -1.717,0.718 -2.291,1.434 -0.357,-0.193 -0.644,-0.694 -0.859,-1.028 -0.501,0.382 -0.429,1.504 -1.241,1.385 -0.31,-0.502 -0.596,-0.954 -0.645,-1.552 -0.835,0.835 -1.862,1.768 -2.173,2.913 -0.31,0.406 -1.432,-0.811 -1.672,-1.145 -0.237,0.978 -0.237,2.626 0,3.676 -0.07,0.262 -1.598,-0.429 -2.1,-0.741 0.215,1.791 1.123,3.248 2.221,4.632 -0.597,0.359 -1.123,-0.19 -1.719,-0.167 0.501,0.836 1.313,1.648 2.125,2.125 -0.144,0.526 -0.836,0.574 -1.266,0.86 l 1.672,-0.073 c 1.17,-1.289 2.841,-1.884 4.417,-2.458 -0.217,-0.287 0.095,-0.502 0.333,-0.573 0.192,0.096 0.454,0.048 0.692,0.071 -0.906,-1.336 -1.312,-2.888 -1.431,-4.536 0,0 1.193,3.414 2.459,4.823 -0.168,0.526 -0.813,0.168 -1.194,0.287 0.884,1.003 2.004,1.933 3.246,2.292 0.192,0.167 0.597,0.454 0.645,0.788 -0.309,0.31 -0.739,0.334 -1.145,0.405 0.931,1.051 4.201,2.556 4.01,2.817 -1.719,0.382 -2.84,2.221 -3.557,3.654 0.144,0.55 0.311,1.123 0.621,1.599 0.191,-0.502 0.191,-1.145 0.692,-1.479 0.572,0 0.334,0.643 0.644,0.906 0.455,0.646 0.883,1.386 1.529,1.839 0,-0.812 -0.072,-1.72 0.524,-2.221 1.1,2.125 3.344,3.487 5.398,4.346 C 0.335,1.814 0.167,0.859 0,0"
         inkscape:connector-curvature="0" />
    </g>
    <g
       transform="matrix(0.506996,0,0,-0.70294817,32.782098,31.27211)"
       id="g8501">
      <path
         id="path8503"
         style="fill:#7881a3;fill-opacity:1;fill-rule:nonzero;stroke:none"
         d="m 0,0 c -0.168,0.119 -0.404,0.239 -0.572,0.454 l 0.74,0.358 C 0.264,0.573 -0.023,0.287 0,0"
         inkscape:connector-curvature="0" />
    </g>
    <g
       transform="matrix(0.506996,0,0,-0.70294817,33.944588,45.688733)"
       id="g8505">
      <path
         id="path8507"
         style="fill:#acb0ca;fill-opacity:1;fill-rule:nonzero;stroke:none"
         d="m 0,0 c 2.531,-2.005 5.658,-2.626 8.594,-3.677 0.431,-0.572 1.147,-1.219 1.027,-2.006 l 0.12,0 c -0.716,-1.838 -1.36,-4.25 -3.557,-4.919 -1.504,-0.141 -2.674,0.765 -3.557,1.84 -0.334,0.597 -0.502,1.288 -0.502,2.054 0.644,-0.024 1.289,-0.669 1.885,-0.335 -0.955,1.17 -2.65,1.289 -4.01,1.6 -2.078,0.214 -4.488,0.119 -6.423,-0.358 -0.549,-0.24 -1.17,-0.551 -1.598,-0.956 0.453,-0.119 1.957,0.526 2.338,0.454 -0.143,-1.599 -0.883,-3.151 -2.292,-4.011 -1.002,-0.334 -2.004,0.047 -2.793,0.573 -2.197,2.411 -2.627,5.825 -2.005,9.096 l 2.746,-2.506 c 0.381,0.072 -6.184,6.803 -7.617,9.86 0.166,0.334 0.214,0.836 0.668,0.955 0.359,-0.096 0.812,-0.287 1.146,-0.048 0.358,0.739 -0.166,1.528 0,2.173 1.385,-0.334 2.531,-0.812 3.916,-0.453 1.146,0.524 -0.215,1.241 -0.119,1.957 1.336,0.12 2.627,0.31 3.652,1.145 0.096,0.455 -0.095,0.789 -0.382,1.076 1.027,0.143 1.958,0.549 2.793,1.216 0.097,0.312 -0.119,0.501 -0.286,0.741 0.86,0.311 1.982,0.262 2.698,1.027 0.191,0.788 -0.621,1.17 -1.145,1.552 l 1.886,1.074 C -3.939,13.036 -6.184,4.584 0,0"
         inkscape:connector-curvature="0" />
    </g>
    <g
       transform="matrix(0.506996,0,0,-0.70294817,44.197418,34.981782)"
       id="g8509">
      <path
         id="path8511"
         style="fill:#707072;fill-opacity:1;fill-rule:nonzero;stroke:none"
         d="m 0,0 c 1.039,-1.156 -3.319,-1.599 -3.319,-1.599 1.551,-0.955 3.772,-1.003 4.918,-2.579 0.024,-0.453 -0.478,-0.309 -0.742,-0.453 -1.812,-0.167 -3.628,0 -5.203,0.502 0.215,1.67 -1.504,3.056 -2.936,3.843 1.192,-0.501 2.817,-0.334 3.796,0.525 0.31,0.312 0.525,0.646 0.668,1.028 C -1.84,0.933 -0.86,0.599 0,0"
         inkscape:connector-curvature="0" />
    </g>
    <g
       transform="matrix(0.506996,0,0,-0.70294817,41.994163,38.287887)"
       id="g8513">
      <path
         id="path8515"
         style="fill:#707072;fill-opacity:1;fill-rule:nonzero;stroke:none"
         d="M 0,0 C 1.813,-0.835 3.725,-1.671 5.252,-3.079 5.348,-3.295 5.539,-3.532 5.373,-3.771 3.58,-5.036 0.621,-4.32 -1.266,-3.938 c 0.407,1.743 -1.551,2.984 -2.818,4.057 0.957,-0.286 2.795,-0.739 3.846,0.168 C -0.119,0.216 0.071,0.144 0,0"
         inkscape:connector-curvature="0" />
    </g>
    <g
       transform="matrix(0.506996,0,0,-0.70294817,24.236425,40.251148)"
       id="g8517">
      <path
         id="path8519"
         style="fill:#acb0ca;fill-opacity:1;fill-rule:nonzero;stroke:none"
         d="M 0,0 0.072,0.048 C 0.98,-2.077 2.293,-4.083 3.892,-5.85 4.083,-6.685 3.654,-7.448 3.152,-8.021 2.722,-8.404 2.148,-8.548 1.6,-8.715 c -3.414,1.601 -4.942,5.539 -4.68,9.216 0.359,-0.263 0.644,-0.883 1.146,-0.62 0.288,0.405 0.358,0.931 0.454,1.432 C -1.217,0.837 -0.692,-0.143 0,0"
         inkscape:connector-curvature="0" />
    </g>
    <g
       transform="matrix(0.506996,0,0,-0.70294817,44.511296,43.52358)"
       id="g8521">
      <path
         id="path8523"
         style="fill:#58595a;fill-opacity:1;fill-rule:nonzero;stroke:none"
         d="m 0,0 0.358,-0.454 c -0.429,-0.405 -1.145,-0.381 -1.79,-0.454 -2.412,0.073 -4.798,0.24 -7.044,0.741 C -8.81,0 -8.737,0.549 -8.977,0.858 c -0.74,0.836 -1.55,1.649 -2.482,2.246 1.647,-0.24 3.51,-0.597 4.99,0.046 C -4.153,2.459 -1.957,1.479 0,0"
         inkscape:connector-curvature="0" />
    </g>
    <g
       transform="matrix(0.506996,0,0,-0.70294817,41.666896,52.099693)"
       id="g8525">
      <path
         id="path8527"
         style="fill:#dce8eb;fill-opacity:1;fill-rule:nonzero;stroke:none"
         d="m 0,0 c 1.17,-1.265 2.196,-2.722 3.678,-3.725 -0.096,-0.549 -0.382,-1.193 -0.98,-1.313 -0.836,-0.31 -1.457,0.239 -2.125,0.525 -1.91,2.006 -2.912,4.585 -4.224,6.925 0.427,0.309 1.216,0.167 1.765,0.119 L 0,0 z"
         inkscape:connector-curvature="0" />
    </g>
    <g
       transform="matrix(0.506996,0,0,-0.70294817,43.059159,52.183412)"
       id="g8529">
      <path
         id="path8531"
         style="fill:#58595a;fill-opacity:1;fill-rule:nonzero;stroke:none"
         d="M 0,0 C 1.72,-1.218 3.272,-2.651 5.11,-3.653 5.038,-4.084 4.655,-4.417 4.25,-4.513 2.411,-4.871 1.218,-3.224 -0.166,-2.293 -1.576,-0.812 -3.009,0.835 -4.06,2.531 -2.22,2.745 -1.384,0.883 0,0"
         inkscape:connector-curvature="0" />
    </g>
    <g
       transform="matrix(0.506996,0,0,-0.70294817,41.461411,55.003432)"
       id="g8533">
      <path
         id="path8535"
         style="fill:#58595a;fill-opacity:1;fill-rule:nonzero;stroke:none"
         d="M 0,0 C -0.215,-0.645 -0.787,-1.408 -1.361,-1.647 -2.029,-1.743 -2.818,-1.743 -3.367,-1.36 -4.154,-0.645 -4.059,0.43 -4.465,1.337 -4.775,2.34 -5.3,3.295 -5.611,4.298 -5.014,5.062 -5.109,6.732 -3.654,6.494 -2.316,4.37 -1.385,2.077 0,0"
         inkscape:connector-curvature="0" />
    </g>
    <g
       transform="matrix(0.506996,0,0,-0.70294817,44.718253,52.939221)"
       id="g8537">
      <path
         id="path8539"
         style="fill:#dce8eb;fill-opacity:1;fill-rule:nonzero;stroke:none"
         d="M 0,0 C 1.908,-0.883 3.795,-1.791 5.801,-2.459 3.771,-2.195 1.574,-2.722 0,-1.026 -1.625,0.215 -3.438,1.434 -4.801,2.984 -3.058,2.197 -1.648,0.979 0,0"
         inkscape:connector-curvature="0" />
    </g>
    <g
       transform="matrix(0.506996,0,0,-0.70294817,35.045735,52.301507)"
       id="g8541">
      <path
         id="path8543"
         style="fill:#dce8eb;fill-opacity:1;fill-rule:nonzero;stroke:none"
         d="m 0,0 1.386,-1.265 0,-1.886 c -0.478,-0.765 -0.382,-2.197 -1.552,-2.22 -0.646,-0.072 -1.17,0.238 -1.553,0.74 0.359,1.862 0.717,4.082 0.621,6.016 C -0.31,1.576 -0.524,0.382 0,0"
         inkscape:connector-curvature="0" />
    </g>
    <g
       transform="matrix(0.506996,0,0,-0.70294817,34.005021,55.322008)"
       id="g8545">
      <path
         id="path8547"
         style="fill:#58595a;fill-opacity:1;fill-rule:nonzero;stroke:none"
         d="m 0,0 c -0.645,-0.263 -1.123,-0.693 -1.791,-0.501 0.668,1.742 1.075,3.628 1.219,5.609 C -0.191,5.276 0.143,5.563 0.573,5.61 0.883,3.867 0.524,1.813 0,0"
         inkscape:connector-curvature="0" />
    </g>
    <g
       transform="matrix(0.506996,0,0,-0.70294817,39.343332,55.641214)"
       id="g8549">
      <path
         id="path8551"
         style="fill:#dce8eb;fill-opacity:1;fill-rule:nonzero;stroke:none"
         d="M 0,0 C -0.525,-0.692 -1.954,-2.112 -3.271,-0.405 -3.438,0.74 -3.821,1.814 -3.844,3.032 -3.01,3.415 -2.221,4.059 -1.648,4.751 -0.955,3.271 -0.359,1.672 0,0"
         inkscape:connector-curvature="0" />
    </g>
    <g
       transform="matrix(0.506996,0,0,-0.70294817,36.910311,53.660727)"
       id="g8553">
      <path
         id="path8555"
         style="fill:#edccb8;fill-opacity:1;fill-rule:nonzero;stroke:none"
         d="M 0,0 C -0.191,-0.765 -0.574,-1.814 0,-2.53 1.718,-5.706 5.537,-4.989 7.949,-7.114 8.283,-7.521 8.451,-8.069 8.308,-8.596 8.059,-7.893 7.328,-7.636 6.351,-8.428 6.23,-8.785 6.302,-9.335 6.637,-9.646 6.828,-9.788 7.043,-9.885 7.258,-9.932 6.709,-10.434 5.969,-9.955 5.371,-9.86 4.679,-9.454 4.465,-8.548 4.345,-7.854 4.178,-7.807 3.939,-8.499 3.939,-8.499 3.055,-7.878 2.435,-5.992 1.074,-6.494 0.715,-6.805 0.406,-7.092 0.334,-7.568 0.07,-9.454 2.459,-11.579 0.047,-13.013 c 0.12,0.431 -0.192,0.908 -0.405,1.314 -1.254,0.397 -1.767,-0.739 -1.767,-1.194 -0.573,0.359 -0.956,0.98 -0.86,1.601 0.334,1.551 1.623,2.769 1.481,4.464 -0.264,0.405 -0.764,0.597 -1.147,0.334 -0.93,-0.478 -1.766,-0.954 -2.458,-1.887 -0.024,0.359 -0.382,0.598 -0.573,0.813 -0.406,-1.003 0.476,-2.578 -1.098,-3.033 -0.597,-0.309 -1.457,-0.19 -2.054,0.095 0.453,0.144 0.835,0.478 1.098,0.932 0.095,0.239 -0.047,0.549 -0.239,0.741 -0.31,0.215 -0.945,0.332 -1.279,0.116 -0.191,-0.167 -0.487,-0.976 -0.321,-1.215 -0.118,0 -0.381,0.358 -0.453,0.573 -0.24,0.644 0.119,1.17 0.501,1.624 1.505,0.788 3.175,1.144 4.584,2.1 2.316,1.074 3.39,3.606 3.224,5.969 C -1.195,0.144 -0.621,0.023 0,0"
         inkscape:connector-curvature="0" />
    </g>
    <g
       transform="matrix(0.506996,0,0,-0.70294817,29.75594,53.509667)"
       id="g8557">
      <path
         id="path8559"
         style="fill:#edccb8;fill-opacity:1;fill-rule:nonzero;stroke:none"
         d="M 0,0 C -0.214,-0.765 0.167,-1.719 0.525,-2.459 2.078,-3.987 4.083,-2.148 5.801,-2.912 5.659,-3.461 6.208,-3.7 6.542,-3.844 5.588,-4.536 4.584,-3.7 3.51,-3.892 2.555,-4.012 1.409,-3.987 0.98,-4.99 c 0.357,-1.027 0.655,-2.47 0.655,-2.47 0.62,-0.406 1.493,-1.899 1.063,-2.686 -0.334,-0.455 -0.692,-0.956 -1.264,-1.147 0.405,0.358 0.668,0.859 0.453,1.385 -0.216,0.406 -0.741,0.74 -1.147,0.525 -0.334,-0.191 -0.668,-0.525 -0.859,-0.86 -0.07,-0.548 0.334,-0.979 0.764,-1.217 -0.334,0 -0.883,0.215 -1.265,0.454 -0.812,0.884 -0.405,2.483 -0.359,3.51 l 0.573,2.124 c -0.095,0.31 -0.573,0.358 -0.787,0.168 -1.409,-0.621 -2.22,-2.03 -3.224,-3.152 0,0.287 -0.358,0.478 -0.62,0.621 0.024,-1.217 0.167,-2.602 -1.147,-3.2 -0.668,-0.287 -1.599,-0.239 -2.171,0.167 0.238,0.263 0.787,0.598 0.906,1.027 -0.047,0.477 -0.285,1.027 -0.787,1.145 -0.525,-0.047 -0.836,-0.501 -1.098,-0.906 -0.24,0.621 0.096,1.481 0.691,2.006 2.221,2.124 5.802,1.79 7.377,4.751 0.36,0.858 0.36,1.957 0,2.816 C -0.835,0.048 -0.406,-0.144 0,0"
         inkscape:connector-curvature="0" />
    </g>
    <g
       transform="matrix(0.506996,0,0,-0.70294817,37.454927,55.556792)"
       id="g8561">
      <path
         id="path8563"
         style="fill:#58595a;fill-opacity:1;fill-rule:nonzero;stroke:none"
         d="m 0,0 c -0.263,0.477 -0.859,1.002 -0.573,1.718 l 0.118,0.335 C -0.479,1.671 -0.119,0.739 0,0"
         inkscape:connector-curvature="0" />
    </g>
    <g
       transform="matrix(0.506996,0,0,-0.70294817,28.133955,56.24526)"
       id="g8565">
      <path
         id="path8567"
         style="fill:#edccb8;fill-opacity:1;fill-rule:nonzero;stroke:none"
         d="m 0,0 c -1.599,-1.241 -3.604,-1.408 -5.229,-2.579 -0.429,0.334 -0.859,0.932 -0.667,1.553 C -4.512,0.954 -2.101,-0.524 0,0"
         inkscape:connector-curvature="0" />
    </g>
    <g
       transform="matrix(0.506996,0,0,-0.70294817,24.817698,57.772693)"
       id="g8569">
      <path
         id="path8571"
         style="fill:#f5d75c;fill-opacity:1;fill-rule:nonzero;stroke:none"
         d="m 0,0 c -0.311,0 -0.621,0.048 -0.787,0.334 -0.168,0.406 0.309,0.502 0.5,0.645 C -0.049,0.765 -0.072,0.334 0,0"
         inkscape:connector-curvature="0" />
    </g>
    <g
       transform="matrix(0.506996,0,0,-0.70294817,41.000958,20.27962)"
       id="g8573">
      <path
         id="path8575"
         style="fill:#eaf1f3;fill-opacity:1;fill-rule:nonzero;stroke:none"
         d="m 0,0 c 1.721,-3.198 3.08,-6.637 3.391,-10.479 0.215,-3.106 0.095,-5.159 -0.12,-8.143 -0.931,0.668 -2.101,1.79 -3.39,2.077 0.742,0.668 1.959,1.767 1.553,3.151 -0.191,0.622 -0.861,0.956 -1.195,1.481 l -0.071,-0.048 c 2.397,-3.033 -1.146,-4.584 -1.146,-4.584 1.504,-0.525 3.175,-1.266 4.082,-2.649 0,-0.98 -1.002,-1.577 -1.791,-1.887 -0.858,-0.263 -1.837,-0.023 -2.626,0.238 0.597,-0.978 2.556,-1.981 2.914,-3.51 -0.048,-0.405 -0.263,-0.93 -0.741,-1.026 -1.242,-0.357 -2.746,0.119 -3.891,0.454 1.289,-1.051 2.842,-2.388 3.437,-3.891 -0.07,-0.359 -0.023,-0.885 -0.525,-0.908 -2.123,-0.502 -4.416,0.047 -6.303,0.861 0,0 2.674,-1.84 3.891,-3.273 0.217,-0.358 0.551,-0.883 0.193,-1.264 -1.91,-1.41 -4.8,-0.526 -6.83,0.047 0.692,-0.322 1.48,-0.639 2.299,-0.858 -2.346,0.478 -3.844,1.754 -3.844,1.754 0,0 3.488,-0.794 4.184,0.597 0.695,1.388 -1.986,4.099 -1.986,4.099 0,0 3.39,-1.504 4.482,-0.098 1.093,1.404 -1.588,4.68 -1.588,4.68 0,0 2.795,-1.291 3.291,0 0.496,1.29 -2.596,4.001 -2.596,4.001 0,0 2.794,-1.108 3.29,0.298 0.402,1.135 -2.251,2.453 -3.284,2.919 -0.427,0.008 -0.402,0.173 -0.402,0.173 0,0 0.154,-0.062 0.402,-0.173 0.446,-0.009 1.391,0.155 3.385,0.868 C 1.322,-14.07 -1.104,1.434 0,0"
         inkscape:connector-curvature="0" />
    </g>
    <g
       transform="matrix(0.506996,0,0,-0.70294817,41.000958,20.27962)"
       id="g8577">
      <path
         id="path8579"
         style="fill:#868688;fill-opacity:1;fill-rule:nonzero;stroke:none"
         d="m 0,0 c 1.721,-3.198 3.08,-6.637 3.391,-10.479 0.215,-3.106 0.095,-5.159 -0.12,-8.143 -0.931,0.668 -2.101,1.79 -3.39,2.077 0.742,0.668 1.959,1.767 1.553,3.151 -0.072,0.233 -0.21,0.424 -0.372,0.601 -0.326,0.506 -0.976,1.232 -1.556,1.842 0.363,3.052 1.256,8.344 -3.572,14.396 C -2.453,2.733 -1.104,1.434 0,0"
         inkscape:connector-curvature="0" />
    </g>
    <g
       transform="matrix(0.506996,0,0,-0.70294817,30.276776,24.138946)"
       id="g8581">
      <path
         id="path8583"
         style="fill:#dce8eb;fill-opacity:1;fill-rule:nonzero;stroke:none"
         d="M 0,0 C 0.906,-0.049 1.982,0.382 2.984,0.215 L 1.337,-0.692 C 2.006,-1.338 2.984,-0.932 3.845,-1.219 4.537,-1.408 5.301,-1.695 5.682,-2.364 5.275,-2.723 4.513,-2.555 4.369,-3.152 4.847,-3.63 5.539,-3.868 5.921,-4.536 5.707,-4.918 4.941,-4.703 4.941,-5.157 5.229,-5.492 5.85,-5.706 5.634,-6.185 L 4.656,-6.948 c 0.191,-0.478 1.623,-0.668 0.859,-1.481 -0.693,-0.429 -1.41,-0.788 -2.172,-0.978 0.166,-0.526 1.145,-0.86 0.858,-1.433 -0.858,-0.692 -1.766,-1.218 -2.768,-1.552 0.358,-0.644 1.194,-0.836 1.551,-1.432 -0.787,-0.74 -2.053,-0.646 -3.08,-0.955 -0.095,-0.359 0.478,-0.598 0.621,-0.932 -0.763,-0.477 -1.671,-0.931 -2.697,-0.906 -0.049,-0.264 -0.336,-0.239 -0.502,-0.359 0.43,-0.19 0.74,-0.644 0.859,-1.075 -1.123,-0.739 -2.697,-0.453 -3.844,-0.93 l 0.622,-1.719 c -1.266,-0.359 -2.508,0.357 -3.725,0.644 -0.717,-0.072 -0.408,-2.364 -0.408,-2.364 -0.881,0.191 -1.717,0.718 -2.291,1.434 -0.357,-0.193 -0.644,-0.694 -0.859,-1.028 -0.501,0.382 -0.429,1.504 -1.241,1.385 -0.31,-0.502 -0.596,-0.954 -0.645,-1.552 -0.835,0.835 -1.862,1.768 -2.173,2.913 -0.31,0.406 -1.432,-0.811 -1.672,-1.145 -0.16,0.659 -0.213,1.624 -0.156,2.504 0.135,-0.303 0.244,-0.649 0.48,-0.829 0.215,0.334 0.502,0.836 0.86,1.026 0.572,-0.716 1.41,-1.241 2.292,-1.433 0,0 -0.31,2.292 0.407,2.365 0.365,-0.086 0.734,-0.211 1.104,-0.334 -0.017,-0.16 -0.032,-0.321 -0.043,-0.483 0,0 0.058,0.167 0.163,0.443 0.823,-0.271 1.656,-0.51 2.5,-0.271 l -0.621,1.719 c 1.147,0.477 2.721,0.19 3.844,0.932 -0.121,0.428 -0.43,0.882 -0.86,1.074 0.167,0.119 0.454,0.096 0.502,0.357 1.026,-0.023 1.934,0.431 2.698,0.907 -0.143,0.334 -0.717,0.574 -0.623,0.932 1.029,0.311 2.293,0.215 3.082,0.955 -0.358,0.597 -1.193,0.787 -1.553,1.433 1.004,0.334 1.91,0.858 2.77,1.552 0.287,0.573 -0.692,0.907 -0.86,1.432 0.764,0.191 1.481,0.55 2.174,0.979 0.764,0.811 -0.67,1.003 -0.861,1.479 l 0.98,0.766 c 0.215,0.476 -0.406,0.691 -0.693,1.025 0,0.454 0.765,0.239 0.98,0.621 -0.383,0.668 -1.076,0.908 -1.552,1.385 0.131,0.548 0.783,0.452 1.204,0.709 C 0.105,0.554 0.053,0.271 0,0"
         inkscape:connector-curvature="0" />
    </g>
    <g
       transform="matrix(0.506996,0,0,-0.70294817,35.821081,43.164587)"
       id="g8585">
      <path
         id="path8587"
         style="fill:#acb0ca;fill-opacity:1;fill-rule:nonzero;stroke:none"
         d="m 0,0 c 3.862,-5.337 11.125,-6.375 16.146,-6.382 -1.837,-1.978 -18.87,-0.34 -22.544,7.422 -1.745,4.776 -0.24,10.196 0.691,14.852 1.125,4.068 4.034,9.549 5.491,12.486 l -0.421,-0.685 c -0.357,-0.366 -1.406,-1.251 -3.15,-1.251 -1.121,0 -1.929,1.117 -2.451,2.211 2.125,3.589 5.645,6.869 9.58,7.915 C 5.333,36.616 7.024,35.75 8.436,34.494 0.368,24.897 -4.654,6.428 0,0"
         inkscape:connector-curvature="0" />
    </g>
    <g
       transform="matrix(0.506996,0,0,-0.70294817,33.944588,45.688733)"
       id="g8589">
      <path
         id="path8591"
         style="fill:#7881a3;fill-opacity:1;fill-rule:nonzero;stroke:none"
         d="m 0,0 c 2.531,-2.005 5.658,-2.626 8.594,-3.677 0.431,-0.572 1.147,-1.219 1.027,-2.006 l 0.12,0 C 9.025,-7.521 8.381,-9.933 6.184,-10.602 6,-10.618 5.822,-10.62 5.648,-10.608 c -1.254,1.322 -1.927,2.881 -2.155,3.48 0.175,-0.026 0.349,-0.011 0.517,0.085 -0.955,1.17 -2.65,1.289 -4.01,1.6 -2.078,0.214 -4.488,0.119 -6.423,-0.358 -0.456,-0.199 -0.964,-0.447 -1.368,-0.76 -0.537,0.044 -0.838,0.42 -0.184,1.272 0.994,1.29 5.093,1.305 5.093,1.305 0,0 0.694,1.688 -3.887,6.98 -3.613,4.174 -7.865,2.441 -9.499,1.524 -0.599,0.821 -1.089,1.579 -1.376,2.189 0.166,0.334 0.214,0.836 0.668,0.955 0.359,-0.096 0.812,-0.287 1.146,-0.048 0.358,0.739 -0.166,1.528 0,2.173 1.385,-0.334 2.531,-0.812 3.916,-0.453 1.146,0.524 -0.215,1.241 -0.119,1.957 1.336,0.12 2.627,0.31 3.652,1.145 0.096,0.455 -0.095,0.789 -0.382,1.076 1.027,0.143 1.958,0.549 2.793,1.216 0.097,0.312 -0.119,0.501 -0.286,0.741 0.86,0.311 1.982,0.262 2.698,1.027 0.191,0.788 -0.621,1.17 -1.145,1.552 l 1.886,1.074 C -3.939,13.036 -6.184,4.584 0,0 m -6.686,-6.508 c 0.43,0.124 0.831,0.237 1.003,0.205 -0.143,-1.599 -0.883,-3.151 -2.292,-4.011 -0.611,-0.205 -1.222,-0.141 -1.786,0.057 1.907,1.196 3.06,3.192 3.075,3.749"
         inkscape:connector-curvature="0" />
    </g>
    <g
       transform="matrix(0.506996,0,0,-0.70294817,24.236425,40.251148)"
       id="g8593">
      <path
         id="path8595"
         style="fill:#7881a3;fill-opacity:1;fill-rule:nonzero;stroke:none"
         d="M 0,0 0.072,0.048 C 0.98,-2.077 2.293,-4.083 3.892,-5.85 4.083,-6.685 3.654,-7.448 3.152,-8.021 l -0.1,-0.083 c -3.228,1.475 -4.771,4.997 -4.755,8.444 0.072,0.206 0.12,0.424 0.161,0.643 C -1.34,0.787 -1.15,0.523 -0.915,0.439 -0.661,0.146 -0.352,-0.072 0,0"
         inkscape:connector-curvature="0" />
    </g>
    <g
       transform="matrix(0.506996,0,0,-0.70294817,23.194702,16.900126)"
       id="g8597">
      <path
         id="path8599"
         style="fill:#90121c;fill-opacity:1;fill-rule:nonzero;stroke:none"
         d="m 0,0 c 0.215,-0.373 0.529,-0.714 0.98,-1.012 l 0.048,-0.237 c -1.241,-1.72 -5.034,-3.247 -8.715,-3.964 -0.573,-0.788 -0.524,-1.839 -0.788,-2.745 -0.125,0.118 -0.248,0.239 -0.367,0.361 -0.225,1.603 -0.423,3.802 0.067,4.465 C -8.068,-2.172 -3.904,-1.526 0,0"
         inkscape:connector-curvature="0" />
    </g>
    <g
       transform="matrix(0.506996,0,0,-0.70294817,22.493624,12.196418)"
       id="g8601">
      <path
         id="path8603"
         style="fill:#c96f4d;fill-opacity:1;fill-rule:nonzero;stroke:none"
         d="m 0,0 c 0.394,-0.399 0.627,-0.849 0.762,-1.328 -0.36,-0.586 -1.963,-2.977 -4.352,-3.276 -2.723,-0.341 -5.73,-1.024 -5.617,-2.836 0.114,-1.816 0,-1.929 0,-1.929 0,0 -3.519,8.284 4.594,9.477 C -1.422,0.578 -0.338,0.063 0,0"
         inkscape:connector-curvature="0" />
    </g>
    <g
       transform="matrix(0.506996,0,0,-0.70294817,22.942166,11.62527)"
       id="g8605">
      <path
         id="path8607"
         style="fill:#c96f4d;fill-opacity:1;fill-rule:nonzero;stroke:none"
         d="M 0,0 C 0.381,-0.432 0.596,-0.88 0.703,-1.345 0.49,-1.325 0.261,-1.375 0.233,-1.67 0.215,-1.867 0.177,-1.968 0.134,-2.018 -0.019,-1.458 -0.252,-0.934 -0.621,-0.479 -0.516,-0.202 -0.324,0.1 0,0"
         inkscape:connector-curvature="0" />
    </g>
    <g
       transform="matrix(0.506996,0,0,-0.70294817,23.492764,12.639839)"
       id="g8609">
      <path
         id="path8611"
         style="fill:#f8e9d5;fill-opacity:1;fill-rule:nonzero;stroke:none"
         d="M 0,0 C -0.059,0.455 -0.198,0.9 -0.467,1.332 L -0.709,1.555 C 0.182,2.398 2.183,6.513 3.916,6.414 5.901,6.3 3.742,1.592 2.156,0.739 0.568,-0.113 0,0 0,0"
         inkscape:connector-curvature="0" />
    </g>
    <g
       transform="matrix(0.506996,0,0,-0.70294817,18.096501,13.530896)"
       id="g8613">
      <path
         id="path8615"
         style="fill:#edccb8;fill-opacity:1;fill-rule:nonzero;stroke:none"
         d="M 0,0 C -0.214,0.588 0.96,1.556 2.623,2.161 4.286,2.767 5.808,2.779 6.022,2.191 6.236,1.603 5.062,0.635 3.399,0.028 1.737,-0.576 0.214,-0.589 0,0"
         inkscape:connector-curvature="0" />
    </g>
    <g
       transform="matrix(0.506996,0,0,-0.70294817,18.976341,12.422903)"
       id="g8617">
      <path
         id="path8619"
         style="fill:#ffffff;fill-opacity:1;fill-rule:nonzero;stroke:none"
         d="M 0,0 C 0,0.518 0.419,0.938 0.938,0.938 1.455,0.938 1.876,0.518 1.876,0 1.876,-0.519 1.455,-0.938 0.938,-0.938 0.419,-0.938 0,-0.519 0,0"
         inkscape:connector-curvature="0" />
    </g>
    <g
       transform="matrix(0.506996,0,0,-0.70294817,22.573328,11.683615)"
       id="g8621">
      <path
         id="path8623"
         style="fill:#ffffff;fill-opacity:1;fill-rule:nonzero;stroke:none"
         d="M 0,0 C 0,0.156 0.127,0.284 0.284,0.284 0.44,0.284 0.567,0.156 0.567,0 0.567,-0.157 0.44,-0.284 0.284,-0.284 0.127,-0.284 0,-0.157 0,0"
         inkscape:connector-curvature="0" />
    </g>
    <g
       transform="matrix(0.506996,0,0,-0.70294817,26.571398,10.167148)"
       id="g8625">
      <path
         id="path8627"
         style="fill:#ffffff;fill-opacity:1;fill-rule:nonzero;stroke:none"
         d="M 0,0 C 0,1.159 0.953,2.101 2.129,2.101 3.305,2.101 4.258,1.159 4.258,0 4.258,-1.16 3.305,-2.101 2.129,-2.101 0.953,-2.101 0,-1.16 0,0"
         inkscape:connector-curvature="0" />
    </g>
    <g
       transform="matrix(0.506996,0,0,-0.70294817,26.969945,9.0214838)"
       id="g8629">
      <path
         id="path8631"
         style="fill:#dce8eb;fill-opacity:1;fill-rule:nonzero;stroke:none"
         d="m 0,0 c 0.366,0.294 0.834,0.471 1.343,0.471 1.176,0 2.129,-0.942 2.129,-2.101 0,-1.072 -0.814,-1.957 -1.866,-2.085 0.481,0.385 0.786,0.973 0.786,1.63 0,1.161 -0.953,2.101 -2.129,2.101 C 0.175,0.016 0.087,0.011 0,0"
         inkscape:connector-curvature="0" />
    </g>
    <g
       transform="matrix(0.506996,0,0,-0.70294817,27.49129,10.246789)"
       id="g8633">
      <path
         id="path8635"
         style="fill:#000000;fill-opacity:1;fill-rule:nonzero;stroke:none"
         d="M 0,0 C 0,0.688 0.559,1.248 1.248,1.248 1.938,1.248 2.496,0.688 2.496,0 2.496,-0.69 1.938,-1.249 1.248,-1.249 0.559,-1.249 0,-0.69 0,0"
         inkscape:connector-curvature="0" />
    </g>
    <g
       transform="matrix(0.506996,0,0,-0.70294817,27.519987,9.9076875)"
       id="g8637">
      <path
         id="path8639"
         style="fill:#ffffff;fill-opacity:1;fill-rule:nonzero;stroke:none"
         d="M 0,0 C 0,0.328 0.266,0.595 0.594,0.595 0.922,0.595 1.188,0.328 1.188,0 1.188,-0.328 0.922,-0.595 0.594,-0.595 0.266,-0.595 0,-0.328 0,0"
         inkscape:connector-curvature="0" />
    </g>
    <g
       transform="matrix(0.506996,0,0,-0.70294817,38.736308,44.527885)"
       id="g8641">
      <path
         id="path8643"
         style="fill:#58595a;fill-opacity:1;fill-rule:nonzero;stroke:none"
         d="M 0,0 C 0.829,0.053 1.631,0.29 2.342,0.808 2.7,1.215 2.915,0.569 3.273,0.569 5.948,-0.386 10.819,-2.543 10.436,-4.397 9.245,-5.904 -0.43,-5.433 -6.929,-1.957 -3.184,-2.453 -0.078,-2.217 0.563,-1.404 0.657,-0.946 0.434,-0.471 0,0"
         inkscape:connector-curvature="0" />
    </g>
    <g
       transform="matrix(0.506996,0,0,-0.70294817,38.217448,45.971532)"
       id="g8645">
      <path
         id="path8647"
         style="fill:#868688;fill-opacity:1;fill-rule:nonzero;stroke:none"
         d="M 0,0 C 3.681,-1.916 8.054,-2.384 11.42,-2.389 10.072,-3.842 0.527,-3.345 -5.905,0.097 -3.521,-0.22 -1.396,-0.239 0,0"
         inkscape:connector-curvature="0" />
    </g>
    <g
       transform="matrix(0.506996,0,0,-0.70294817,25.222687,60.333955)"
       id="g8649">
      <path
         id="path8651"
         style="fill:#f5d75c;fill-opacity:1;fill-rule:nonzero;stroke:none"
         d="m 0,0 c 0,0.372 0.219,0.674 0.488,0.674 0.27,0 0.49,-0.302 0.49,-0.674 0,-0.373 -0.22,-0.675 -0.49,-0.675 C 0.219,-0.675 0,-0.373 0,0"
         inkscape:connector-curvature="0" />
    </g>
    <g
       transform="matrix(0.506996,0,0,-0.70294817,29.937137,60.89547)"
       id="g8653">
      <path
         id="path8655"
         style="fill:#f5d75c;fill-opacity:1;fill-rule:nonzero;stroke:none"
         d="M 0,0 C 0,0.358 0.267,0.648 0.598,0.648 0.927,0.648 1.195,0.358 1.195,0 1.195,-0.358 0.927,-0.649 0.598,-0.649 0.267,-0.649 0,-0.358 0,0"
         inkscape:connector-curvature="0" />
    </g>
    <g
       transform="matrix(0.506996,0,0,-0.70294817,32.244881,60.311956)"
       id="g8657">
      <path
         id="path8659"
         style="fill:#f5d75c;fill-opacity:1;fill-rule:nonzero;stroke:none"
         d="M 0,0 C 0,0.298 0.219,0.539 0.489,0.539 0.76,0.539 0.978,0.298 0.978,0 0.978,-0.3 0.76,-0.541 0.489,-0.541 0.219,-0.541 0,-0.3 0,0"
         inkscape:connector-curvature="0" />
    </g>
    <g
       transform="matrix(0.506996,0,0,-0.70294817,36.144902,62.549861)"
       id="g8661">
      <path
         id="path8663"
         style="fill:#f5d75c;fill-opacity:1;fill-rule:nonzero;stroke:none"
         d="M 0,0 C 0,0.373 0.269,0.675 0.599,0.675 0.929,0.675 1.195,0.373 1.195,0 1.195,-0.373 0.929,-0.674 0.599,-0.674 0.269,-0.674 0,-0.373 0,0"
         inkscape:connector-curvature="0" />
    </g>
    <g
       transform="matrix(0.506996,0,0,-0.70294817,40.33801,59.968703)"
       id="g8665">
      <path
         id="path8667"
         style="fill:#f5d75c;fill-opacity:1;fill-rule:nonzero;stroke:none"
         d="m 0,0 c 0,0.341 0.313,0.617 0.701,0.617 0.386,0 0.7,-0.276 0.7,-0.617 0,-0.342 -0.314,-0.618 -0.7,-0.618 C 0.313,-0.618 0,-0.342 0,0"
         inkscape:connector-curvature="0" />
    </g>
    <g
       transform="matrix(0.506996,0,0,-0.70294817,31.123918,60.642128)"
       id="g8669">
      <path
         id="path8671"
         style="fill:#e7bbb0;fill-opacity:1;fill-rule:nonzero;stroke:none"
         d="m 0,0 c -0.33,-0.449 -0.683,-0.942 -1.244,-1.14 0.391,0.366 0.643,0.861 0.432,1.378 -0.215,0.407 -0.74,0.741 -1.146,0.526 C -2.025,0.726 -2.093,0.681 -2.159,0.631 -2.563,1.452 -2.841,2.23 -2.841,3.332 l 0,1.609 -0.283,0.052 -0.092,-0.052 C -3.396,5.095 -3.724,5.09 -3.892,4.942 -5.3,4.321 -6.111,2.912 -7.115,1.79 c 0,0.287 -0.359,0.479 -0.62,0.621 0.024,-1.217 0.167,-2.601 -1.147,-3.199 -0.445,-0.191 -1.008,-0.233 -1.506,-0.12 0.143,0.114 0.282,0.235 0.416,0.366 0.4,0.387 0.825,0.618 0.825,1.185 l 0,1.003 c 0,0.875 0.849,1.133 1.544,1.647 1.184,0.889 2.06,1.198 3.127,2.215 0.606,0.579 1.352,0.862 1.352,1.712 0,0.45 -0.206,0.681 -0.411,1.081 -0.062,0.119 -0.109,0.248 -0.162,0.361 0.02,0.538 -0.07,1.083 -0.267,1.556 0.431,-0.024 0.86,-0.215 1.266,-0.072 C -2.912,9.382 -2.531,8.428 -2.173,7.688 -0.62,6.159 1.385,7.998 3.103,7.234 2.961,6.686 3.51,6.446 3.844,6.303 2.89,5.61 1.886,6.446 0.812,6.255 -0.144,6.135 -1.289,6.159 -1.718,5.156 -1.361,4.13 -1.063,2.687 -1.063,2.687 -0.443,2.28 0.43,0.787 0,0"
         inkscape:connector-curvature="0" />
    </g>
    <g
       transform="matrix(0.506996,0,0,-0.70294817,36.910311,53.660727)"
       id="g8673">
      <path
         id="path8675"
         style="fill:#e7bbb0;fill-opacity:1;fill-rule:nonzero;stroke:none"
         d="M 0,0 C -0.191,-0.765 -0.574,-1.814 0,-2.53 1.718,-5.706 5.537,-4.989 7.949,-7.114 8.283,-7.521 8.451,-8.069 8.308,-8.596 8.059,-7.893 7.328,-7.636 6.351,-8.428 6.23,-8.785 6.302,-9.335 6.637,-9.646 6.828,-9.788 7.043,-9.885 7.258,-9.932 6.709,-10.434 5.969,-9.955 5.371,-9.86 4.679,-9.454 4.465,-8.548 4.345,-7.854 4.178,-7.807 3.939,-8.499 3.939,-8.499 3.055,-7.878 2.435,-5.992 1.074,-6.494 0.715,-6.805 0.406,-7.092 0.334,-7.568 0.07,-9.454 2.459,-11.579 0.047,-13.013 c 0.12,0.431 -0.192,0.908 -0.405,1.314 -0.253,0.081 -0.476,0.098 -0.67,0.072 0.114,1.24 0.755,1.98 0.755,3.328 0,1.147 -0.979,1.636 -0.979,2.781 l 0,1.003 c 0,0.555 0.205,0.837 0.205,1.392 0,0.765 -0.18,1.646 -0.726,1.996 0.07,0.484 0.087,0.977 0.054,1.461 C -1.195,0.144 -0.621,0.023 0,0"
         inkscape:connector-curvature="0" />
    </g>
  </g>
</svg>
