<?xml version="1.0" encoding="UTF-8" standalone="no"?>
<!-- Created with Inkscape (http://www.inkscape.org/) -->

<svg
   xmlns:dc="http://purl.org/dc/elements/1.1/"
   xmlns:cc="http://creativecommons.org/ns#"
   xmlns:rdf="http://www.w3.org/1999/02/22-rdf-syntax-ns#"
   xmlns:svg="http://www.w3.org/2000/svg"
   xmlns="http://www.w3.org/2000/svg"
   xmlns:sodipodi="http://sodipodi.sourceforge.net/DTD/sodipodi-0.dtd"
   xmlns:inkscape="http://www.inkscape.org/namespaces/inkscape"
   width="64px"
   height="64px"
   id="svg170831"
   version="1.1"
   inkscape:version="0.48.5 r10040"
   sodipodi:docname="Nowy dokument 22">
  <defs
     id="defs170833" />
  <sodipodi:namedview
     id="base"
     pagecolor="#ffffff"
     bordercolor="#666666"
     borderopacity="1.0"
     inkscape:pageopacity="0.0"
     inkscape:pageshadow="2"
     inkscape:zoom="5.5"
     inkscape:cx="32"
     inkscape:cy="34.362637"
     inkscape:current-layer="layer1"
     showgrid="true"
     inkscape:document-units="px"
     inkscape:grid-bbox="true"
     inkscape:window-width="1366"
     inkscape:window-height="706"
     inkscape:window-x="-8"
     inkscape:window-y="-8"
     inkscape:window-maximized="1" />
  <metadata
     id="metadata170836">
    <rdf:RDF>
      <cc:Work
         rdf:about="">
        <dc:format>image/svg+xml</dc:format>
        <dc:type
           rdf:resource="http://purl.org/dc/dcmitype/StillImage" />
        <dc:title></dc:title>
      </cc:Work>
    </rdf:RDF>
  </metadata>
  <g
     id="layer1"
     inkscape:label="Layer 1"
     inkscape:groupmode="layer">
    <g
       transform="matrix(0.73569551,0,0,-0.73569551,23.779813,5.9717228)"
       id="g3681">
      <path
         id="path3683"
         style="fill:#000000;fill-opacity:1;fill-rule:nonzero;stroke:none"
         d="m 0,0 c 0.271,-1.909 0.565,-3.989 0.125,-5.951 3.886,1.011 8.431,1.808 12.449,0.345 l 0.034,0.503 c -0.478,0.879 -0.231,2.009 -0.884,2.798 0.269,-0.019 0.31,-0.393 0.466,-0.573 l 0.911,-2.9 c 0.128,-0.11 0.301,-0.055 0.392,-0.196 0.116,1.174 0.652,2.082 1.357,2.977 0.206,-0.419 -0.415,-0.612 -0.477,-1.013 -0.282,-0.655 -0.538,-1.414 -0.388,-2.167 1.055,0.601 1.999,1.548 3.249,1.562 -0.874,-0.445 -2.019,-0.872 -2.682,-1.669 2.766,-1.477 4.825,-4.389 6.525,-7.108 3.543,4.31 8.733,6.108 14.082,6.308 3.311,0.039 6.445,-1.498 8.52,-4.175 0.66,-1.194 1.096,-2.676 0.524,-4.088 -1.056,-3.978 -5.433,-4.786 -8.419,-6.941 -0.68,-0.526 -1.141,-1.338 -1.367,-2.166 0.662,-3.558 2.847,-7.087 1.192,-10.955 9.089,-6.326 5.424,-19.489 5.424,-19.489 1.111,-0.517 1.868,-1.752 1.991,-2.908 0.358,-6.776 -7.609,-6.93 -7.825,-6.645 0.755,1.163 2.079,2.692 1.251,4.37 -0.479,0.878 -0.913,1.921 -0.499,3.006 0.869,1.323 2.367,2.468 3.9,2.665 0.355,3.148 0.034,5.804 -0.852,8.568 -0.872,2.018 -1.531,4.192 -3.167,5.893 1.433,-7.656 -0.307,-13.551 -0.579,-14.072 -1.22,-4.879 -4.02,-9.208 -7.903,-12.582 0.492,-1.655 0.639,-3.42 1.992,-4.832 -0.804,-1.835 -4.474,-2.387 -9.168,-1.215 l -0.498,0.608 0.618,3.029 c -0.428,0.165 -0.943,0.032 -1.334,-0.244 0.224,-0.657 0.779,-1.405 0.257,-2.111 -1.89,-0.949 -4.53,-1.54 -6.574,-0.351 -0.294,0.628 0.061,1.347 0.204,1.944 -0.226,0.151 -0.57,0.074 -0.87,0.128 -0.057,-1.313 -0.093,-2.795 0.705,-3.931 0.294,-0.629 -0.107,-1.04 -0.596,-1.276 -2.814,-1.12 -6.636,-1.224 -9.172,0.642 -0.645,0.923 0.413,1.558 0.471,2.398 0.184,0.696 0.621,1.644 0.16,2.284 -0.655,-0.19 -1.544,0.614 -1.804,-0.211 -0.073,-0.735 -0.338,-1.935 -0.345,-2.981 -2.126,-0.966 -4.779,-0.273 -7.05,0.088 -0.326,0.158 -0.78,0.426 -0.855,0.803 0.117,0.701 1.126,1.137 1.495,1.583 l -1.475,3.041 c -6.195,2.662 -12.161,9.088 -12.475,16.167 -0.941,4.421 0.134,9.174 1.239,13.385 l 0.756,1.634 c -3.913,2.47 -6.436,6.934 -6.492,11.462 -1.036,0.14 -2.467,-0.03 -3.252,0.801 -0.57,0.547 -0.85,1.377 -0.431,2.056 0.781,1.026 2.106,1.136 3.322,1.152 1.437,0.744 -0.54,1.929 0.438,2.873 0.625,0.733 1.825,0.514 2.615,0.222 2.29,-2.49 -0.785,-6.393 2.762,-8.296 1.07,-0.615 2.238,-0.831 3.44,-0.544 1.798,1.089 -0.047,2.704 0.466,4.255 -5.787,0.159 -4.175,6.436 -3.165,8.325 2.317,3.686 6.812,6.647 6.008,11.565 -0.91,2.427 -2.034,5.68 0.048,7.931 1.248,1.432 3.096,1.776 4.841,1.62 C -2.966,6.825 -0.873,2.965 0,0"
         inkscape:connector-curvature="0" />
    </g>
    <g
       transform="matrix(0.73569551,0,0,-0.73569551,39.028309,16.944691)"
       id="g3685">
      <path
         id="path3687"
         style="fill:#e2e3ec;fill-opacity:1;fill-rule:evenodd;stroke:none"
         d="m 0,0 c 0,0 1.594,-3.151 1.758,-5.757 0.165,-2.607 -3.183,0.329 -3.183,0.329 L -1.671,0.055 0,0 z"
         inkscape:connector-curvature="0" />
    </g>
    <g
       transform="matrix(0.73569551,0,0,-0.73569551,39.145432,17.131117)"
       id="g3689">
      <path
         id="path3691"
         style="fill:#acb0ca;fill-opacity:1;fill-rule:nonzero;stroke:none"
         d="m 0,0 c -0.57,-0.433 -1.062,-1.175 -0.88,-1.964 0.181,-0.79 0.697,-1.13 1.382,-1.481 l 0.712,0.051 c 0.947,-4.32 1.524,-9.594 -0.718,-13.657 -2.323,-6.185 -9.429,-9.598 -22.309,-7.59 0.282,-0.324 17.294,-5.847 23.456,7.577 2.131,4.409 1.369,8.953 0.618,13.665 1.598,4.514 6.197,7.028 10.476,8.349 3.201,0.384 7.254,0.404 9.125,-2.765 0.388,-0.736 0.931,-1.652 0.398,-2.526 -1.574,-4.651 -7.947,-4.036 -9.586,-8.649 0.349,-3.704 3.032,-7.336 0.974,-11.176 -0.825,-1.664 -2.265,-3.42 -4.062,-4.004 -4.724,-1.904 -8.438,2.447 -8.438,2.447 1.167,-2.614 3.921,-3.785 6.73,-3.711 2.797,-0.061 5.386,2.189 6.632,4.566 4.627,-3.362 5.298,-8.743 5.336,-13.979 -0.522,4.121 -1.954,8.24 -5.058,11.191 -0.356,0.195 -0.999,0.205 -1.07,-0.33 2.486,-9.357 -0.132,-20.249 -7.778,-26.737 -0.506,-1.45 0.376,-2.828 0.752,-4.205 -0.63,0.145 -1.135,-0.326 -1.504,-0.773 l -0.129,-0.396 c -0.554,0.309 -1.143,1.059 -1.884,0.604 -0.454,-0.237 -0.819,-0.618 -0.984,-1.045 -0.557,0.242 -0.839,1.511 -1.854,1.007 l -0.42,-0.206 c 0.054,0.772 0.45,3.215 0.45,3.215 -2.849,-0.679 -7.071,-1.335 -9.87,-1.274 -0.233,-0.456 -0.106,-3.47 -0.106,-3.47 -0.644,-0.022 -1.443,-0.337 -1.693,-1.029 0.025,-0.137 -0.028,-0.403 -0.257,-0.286 -0.113,0.785 -0.94,1.044 -1.528,1.322 -0.685,-0.154 -1.139,-0.832 -1.317,-1.461 -0.369,0.499 -0.666,1.094 -1.181,1.467 -0.667,0.114 -1.213,-0.456 -1.625,-1.035 -0.008,-0.1 0.05,-0.239 -0.089,-0.297 0.44,1.455 1.235,3.155 0.97,4.693 -26.558,3.327 -23.804,23.644 -21.375,31.342 0.06,0.367 0.38,0.614 0.476,1.013 0.838,-0.093 1.566,-0.785 2.423,-1.081 6.955,-1.939 15.015,-1.591 19.52,4.408 1.391,2.03 2.52,4.179 2.676,6.869 2.055,0.789 4.362,-0.372 4.275,-0.164 -1.202,1.165 -3.228,1.644 -4.792,1.011 -0.625,-0.26 -1.399,-0.713 -1.484,-1.449 0.191,-0.149 0.443,-0.403 0.726,-0.22 l 0.075,0.096 c -0.525,-4.116 -3.353,-7.869 -7.319,-9.55 -5.078,-1.636 -11.641,-1.819 -16.179,1.368 -4.015,2.442 -6.107,6.808 -6.21,11.137 -0.427,1.111 -3.949,0.015 -3.986,1.9 0.871,1.83 5.001,0.056 3.939,3.202 -0.071,0.444 -0.309,1.933 1.55,0.938 1.416,-1.956 -0.447,-4.459 1,-6.451 1.197,-1.738 3.284,-2.795 5.505,-2.411 1.748,0.384 4.445,0.23 6.193,-2.695 -1.256,4.323 -4.41,3.583 -5.083,3.597 0.854,1.121 2.423,1.35 3.734,1.258 1.769,-0.292 3.604,-1.354 5.363,-3.447 -1.11,2.474 -3.629,4.103 -6.347,4.326 l -0.757,-0.183 c 0.605,1.409 2.125,1.911 3.5,2.253 1.653,-0.014 3.348,-0.402 4.25,-1.512 0.527,-1.151 1.267,-2.148 2.15,-3.054 0.272,0.015 0.63,0.327 0.682,0.594 -0.76,3.125 -3.909,4.426 -6.79,4.762 -0.41,-0.072 -0.847,-0.042 -1.32,-0.042 1.2,1.705 3.14,2.413 5.184,2.203 2.074,-0.28 4.313,-1.585 4.765,-3.811 -0.037,-0.064 0.356,2.427 -2.893,4.018 -1.354,0.905 -3.523,0.787 -4.976,0.28 1.491,2.023 3.821,3.008 6.253,2.534 2.136,-0.154 6.506,-3.527 6.881,-6.863 0.132,-0.042 -0.285,2.688 -0.285,2.688 1.606,0.259 3.367,1.317 4.152,2.883 l 1.062,-1.222 c -0.059,1.085 -0.763,1.948 -0.845,2.031 -0.081,0.411 0.635,3.346 -2.54,4.114 -4.151,0.711 -4.808,-3.539 -4.47,-5.022 -0.76,0.729 -1.785,1.037 -2.592,1.566 1.134,0.765 1.798,2.035 1.624,3.431 -0.288,1.169 -1.151,2.377 -2.418,2.6 -1.301,0.227 -2.475,-0.637 -3.09,-1.708 0.109,-1.324 -1.588,-0.969 -2.073,-1.644 0.528,-0.172 0.998,0.267 1.573,0.295 0.083,-0.749 0.188,-1.668 0.716,-2.313 -2.074,-0.226 -4.513,-1.777 -5.198,-3.856 -1.485,-0.943 -1.33,-3.081 -3.261,-3.655 -0.75,-0.589 -0.376,-2 -1.593,-2.016 -1.217,6.737 2.952,12.286 8.526,15.712 3.073,1.439 6.088,3.052 9.549,3.282 5.186,0.785 10.543,-0.838 13.498,-5.4 C -1.428,2.767 -0.643,1.429 0,0"
         inkscape:connector-curvature="0" />
    </g>
    <g
       transform="matrix(0.73569551,0,0,-0.73569551,24.098164,35.402777)"
       id="g3693">
      <path
         id="path3695"
         style="fill:#c8c9da;fill-opacity:1;fill-rule:nonzero;stroke:none"
         d="M 0,0 -0.445,0.06 0,0 z m -0.718,-0.061 c 0.839,-0.274 2.438,-0.691 4.437,-0.937 8.624,-2.6 10.948,-19.494 -1.004,-23.909 -3.95,-1.459 -7.881,-0.707 -10.561,-0.718 -11.534,5.965 -11.684,17.42 -10.257,24.573 1.709,-0.561 6.396,-1.931 9.793,-1.337 3.501,0.613 6.624,1.903 7.592,2.328 m 21.088,-30.84 c 0.052,0.743 0.421,3.034 0.448,3.205 l 2.055,0.488 c 0,0 0.692,-1.529 0.77,-3.441 -0.469,-0.245 -0.833,-0.626 -0.998,-1.053 -0.558,0.242 -0.84,1.511 -1.855,1.007 l -0.42,-0.206 z m -26.345,44.26 c -1.303,1.48 -3.208,2.417 -5.221,2.582 l -0.757,-0.183 c 0.605,1.409 2.125,1.911 3.5,2.253 1.653,-0.014 3.349,-0.402 4.25,-1.512 0.39,-0.852 0.897,-1.62 1.492,-2.329 -0.029,-0.52 -0.192,-1.015 -0.633,-1.284 -0.67,-0.41 -1.777,0.014 -2.631,0.473 m 3.903,2.313 c -1.283,1.965 -3.774,2.859 -6.089,3.129 -0.41,-0.072 -0.847,-0.042 -1.319,-0.042 1.199,1.705 3.139,2.413 5.183,2.203 0.913,-0.123 1.859,-0.446 2.67,-0.957 0.549,-0.863 1.589,-2.689 1.301,-3.773 -0.221,-0.829 -1.063,-0.767 -1.746,-0.56 m 2.366,2.673 c -0.271,0.84 -0.962,1.964 -2.719,2.824 -1.354,0.905 -3.523,0.787 -4.976,0.28 1.491,2.023 3.821,3.008 6.254,2.534 l 0.095,-0.009 c 1.026,-0.871 4.167,-3.706 4.237,-5.769 0.082,-2.466 -1.703,-1.48 -1.703,-1.48 L 0.495,18.04 0.294,18.345 z m 4.477,8.988 c -1.913,-0.968 -2.217,-3.63 -1.963,-4.741 -0.761,0.729 -1.786,1.037 -2.593,1.566 1.135,0.765 1.798,2.035 1.624,3.431 -0.288,1.169 -1.151,2.377 -2.418,2.6 -1.301,0.227 -2.475,-0.637 -3.09,-1.708 0.109,-1.324 -1.588,-0.969 -2.073,-1.644 0.528,-0.172 0.998,0.267 1.573,0.295 0.083,-0.749 0.189,-1.668 0.716,-2.313 -2.074,-0.226 -4.513,-1.777 -5.198,-3.856 -1.485,-0.943 -1.329,-3.081 -3.261,-3.655 -0.75,-0.589 -0.376,-2 -1.593,-2.016 -1.217,6.737 2.952,12.286 8.526,15.712 2.11,0.988 4.194,2.058 6.413,2.707 C 3.02,32.799 4.455,31.473 4.663,29.616 4.755,28.8 4.784,28.037 4.771,27.333 m -31.75,-9.578 c 1.004,1.612 4.903,0.003 3.868,3.071 -0.071,0.444 -0.309,1.933 1.55,0.938 1.416,-1.956 -0.447,-4.459 1,-6.451 1.197,-1.738 3.284,-2.795 5.505,-2.411 1.457,0.321 3.574,0.267 5.249,-1.453 -0.002,0.501 -0.064,0.862 -0.064,0.862 0,0 0.124,-0.203 0.334,-0.489 -1.466,2.504 -3.836,1.971 -4.409,1.982 0.854,1.121 2.424,1.35 3.734,1.258 1.207,-0.2 2.444,-0.757 3.668,-1.756 0.541,-0.814 1.096,-2.068 0.184,-2.944 -1.098,-1.053 -2.535,0.587 -3.177,1.46 -0.21,0.286 -0.334,0.489 -0.334,0.489 0,0 0.062,-0.361 0.064,-0.862 0.004,-1.644 -0.651,-4.793 -6.345,-1.663 -7.433,4.087 -6.036,6.364 -6.036,6.364 l -0.328,1.069 c 0,0 -3.108,-0.577 -4.463,0.536 M 6.776,-29.239 c 0,0 0.724,-1.397 0.59,-3.184 -0.685,-0.154 -1.138,-0.832 -1.317,-1.461 -0.369,0.499 -0.666,1.094 -1.181,1.467 -0.662,0.113 -1.205,-0.447 -1.616,-1.021 -0.01,-0.129 0.033,-0.257 -0.098,-0.311 l 0.088,0.28 c 0.446,1.374 1.09,2.894 0.901,4.292 l 2.633,-0.062 z m 16.867,-1.41 c -0.469,-0.245 -0.833,-0.626 -0.998,-1.053 -0.558,0.242 -0.84,1.511 -1.855,1.007 l -0.42,-0.206 c 0.052,0.743 0.421,3.034 0.448,3.205 -2.847,-0.669 -7.069,-1.325 -9.868,-1.264 -0.233,-0.456 -0.106,-3.47 -0.106,-3.47 -0.644,-0.022 -1.443,-0.337 -1.693,-1.029 0.025,-0.137 -0.028,-0.403 -0.256,-0.286 -0.114,0.785 -0.941,1.044 -1.529,1.322 -0.685,-0.154 -1.138,-0.832 -1.317,-1.461 -0.369,0.499 -0.666,1.094 -1.181,1.467 -0.662,0.113 -1.205,-0.447 -1.616,-1.021 -0.01,-0.129 0.033,-0.257 -0.098,-0.311 l 0.088,0.28 c 0.446,1.374 1.09,2.894 0.901,4.292 l 2.633,-0.062 c 0,0 0.724,-1.397 0.59,-3.184 0.588,-0.278 1.415,-0.537 1.529,-1.322 0.228,-0.117 0.281,0.149 0.256,0.286 0.25,0.692 1.049,1.007 1.693,1.029 0,0 -0.127,3.014 0.106,3.47 2.799,-0.061 7.021,0.595 9.87,1.274 l 2.053,0.478 c 0,0 0.692,-1.529 0.77,-3.441"
         inkscape:connector-curvature="0" />
    </g>
    <g
       transform="matrix(0.73569551,0,0,-0.73569551,22.926347,5.3908885)"
       id="g3697">
      <path
         id="path3699"
         style="fill:#c8c9da;fill-opacity:1;fill-rule:nonzero;stroke:none"
         d="m 0,0 c 0.591,-2.168 0.909,-4.857 0.316,-7.078 -1.12,-0.563 -2.404,-1.048 -3.535,-1.779 0.906,4.731 0.659,10.387 -3.533,13.212 -0.682,0.386 -1.517,0.512 -2.333,0.434 1.066,1.242 2.869,0.947 4.21,0.82 C -2.498,4.835 -0.893,2.19 0,0"
         inkscape:connector-curvature="0" />
    </g>
    <g
       transform="matrix(0.73569551,0,0,-0.73569551,19.323264,3.9960096)"
       id="g3701">
      <path
         id="path3703"
         style="fill:#acb0ca;fill-opacity:1;fill-rule:nonzero;stroke:none"
         d="m 0,0 c 1.696,-3.259 2.246,-7.45 1.013,-11.111 -4.095,-2.55 -8.006,-6.328 -8.976,-11.021 -0.318,-0.687 -1.078,-0.937 -1.76,-1.025 -0.932,0.673 -1.381,1.515 -1.611,2.544 -0.448,5.67 6.363,7.962 6.935,13.223 0.947,3.411 -2.639,6.194 -0.491,9.42 0.682,0.56 1.756,0.485 2.51,0.162 C -1.327,1.781 -0.649,0.856 0,0"
         inkscape:connector-curvature="0" />
    </g>
    <g
       transform="matrix(0.73569551,0,0,-0.73569551,55.103668,14.123299)"
       id="g3705">
      <path
         id="path3707"
         style="fill:#c8c9da;fill-opacity:1;fill-rule:nonzero;stroke:none"
         d="m 0,0 c 0.462,-0.64 0.749,-1.37 0.9,-2.089 -1.666,3.223 -5.17,3.805 -8.248,3.716 -3.796,-0.679 -7.526,-2.376 -10.259,-5.258 -0.815,-1.023 -1.356,-1.998 -2.007,-3.101 -0.518,1.286 -0.825,2.691 -1.584,3.892 1.018,1.55 2.882,2.601 4.465,3.503 C -12,3.168 -4.143,4.983 0,0"
         inkscape:connector-curvature="0" />
    </g>
    <g
       transform="matrix(0.73569551,0,0,-0.73569551,25.03644,15.001943)"
       id="g3709">
      <path
         id="path3711"
         style="fill:#f3dcca;fill-opacity:1;fill-rule:nonzero;stroke:none"
         d="M 0,0 C -1.336,0.195 -3.245,0.43 -4.597,-0.083 -4.126,3.119 -0.287,2.297 0,0"
         inkscape:connector-curvature="0" />
    </g>
    <g
       transform="matrix(0.73569551,0,0,-0.73569551,30.995279,17.877553)"
       id="g3713">
      <path
         id="path3715"
         style="fill:#f3dcca;fill-opacity:1;fill-rule:nonzero;stroke:none"
         d="M 0,0 C -1.372,1.143 -2.89,2.127 -4.35,2.972 -3.125,3.595 0.114,3.6 0,0"
         inkscape:connector-curvature="0" />
    </g>
    <g
       transform="matrix(0.73569551,0,0,-0.73569551,25.083819,15.377737)"
       id="g3717">
      <path
         id="path3719"
         style="fill:#ffffff;fill-opacity:1;fill-rule:nonzero;stroke:none"
         d="m 0,0 c 0.186,-1.228 -0.528,-2.259 -1.591,-2.961 -0.779,0.426 -1.717,0.559 -2.726,0.596 -0.321,0.731 -0.814,1.407 -0.65,2.307 C -3.218,0.326 -1.823,0.465 0,0"
         inkscape:connector-curvature="0" />
    </g>
    <g
       transform="matrix(0.73569551,0,0,-0.73569551,30.888279,18.342071)"
       id="g3721">
      <path
         id="path3723"
         style="fill:#ffffff;fill-opacity:1;fill-rule:nonzero;stroke:none"
         d="M 0,0 C -0.408,-1.491 -2.005,-2.595 -3.446,-2.933 -4.531,-2.992 -5.297,-1.892 -5.908,-0.971 -6.04,0.524 -6.043,2.414 -4.696,3.333 -3.288,2.222 -1.274,1.575 0,0"
         inkscape:connector-curvature="0" />
    </g>
    <g
       transform="matrix(0.73569551,0,0,-0.73569551,37.925472,17.518022)"
       id="g3725">
      <path
         id="path3727"
         style="fill:#c8c9da;fill-opacity:1;fill-rule:nonzero;stroke:none"
         d="m 0,0 c -0.088,-0.297 -0.272,-0.521 -0.23,-0.895 -0.513,-0.099 -0.959,-0.676 -1.541,-0.297 -0.382,0.33 -0.516,0.812 -0.423,1.177 0.394,0.344 0.672,0.932 1.269,0.789 C -0.484,0.777 -0.105,0.413 0,0"
         inkscape:connector-curvature="0" />
    </g>
    <g
       transform="matrix(0.73569551,0,0,-0.73569551,37.629428,17.497128)"
       id="g3729">
      <path
         id="path3731"
         style="fill:#7881a3;fill-opacity:1;fill-rule:nonzero;stroke:none"
         d="m 0,0 c 0.022,-0.643 -0.401,-0.917 -0.946,-0.98 -0.329,0.124 -0.545,0.409 -0.523,0.746 0.096,0.398 0.514,0.571 0.859,0.682 C -0.379,0.365 -0.153,0.214 0,0"
         inkscape:connector-curvature="0" />
    </g>
    <g
       transform="matrix(0.73569551,0,0,-0.73569551,39.939277,19.272432)"
       id="g3733">
      <path
         id="path3735"
         style="fill:#acb0ca;fill-opacity:1;fill-rule:nonzero;stroke:none"
         d="m 0,0 c -0.549,-0.131 -1.193,0.319 -1.389,0.907 -0.026,0.575 -0.188,1.161 0.445,1.522 L -0.777,2.417 0,0 z"
         inkscape:connector-curvature="0" />
    </g>
    <g
       transform="matrix(0.73569551,0,0,-0.73569551,38.456409,20.237)"
       id="g3737">
      <path
         id="path3739"
         style="fill:#c8c9da;fill-opacity:1;fill-rule:nonzero;stroke:none"
         d="m 0,0 c 0.248,-0.794 0.032,-1.455 -0.321,-2.173 -0.416,-0.646 -1.141,-0.865 -1.854,-0.917 -0.808,0.023 -1.27,0.663 -1.691,1.401 -0.116,0.751 -0.244,1.335 0.14,2.017 C -2.784,1.714 -0.689,1.263 0,0"
         inkscape:connector-curvature="0" />
    </g>
    <g
       transform="matrix(0.73569551,0,0,-0.73569551,37.998747,20.031817)"
       id="g3741">
      <path
         id="path3743"
         style="fill:#7881a3;fill-opacity:1;fill-rule:nonzero;stroke:none"
         d="m 0,0 c 0.398,-0.568 0.34,-1.408 0.157,-2.104 -0.491,-0.742 -1.294,-1.125 -2.147,-0.761 -0.591,0.243 -0.771,1.032 -0.933,1.618 -0.119,0.717 0.096,1.377 0.755,1.635 C -1.475,0.644 -0.574,0.48 0,0"
         inkscape:connector-curvature="0" />
    </g>
    <g
       transform="matrix(0.73569551,0,0,-0.73569551,22.76108,24.802729)"
       id="g3745">
      <path
         id="path3747"
         style="fill:#acb0ca;fill-opacity:1;fill-rule:nonzero;stroke:none"
         d="m 0,0 c -0.043,-0.133 0.12,-0.211 0.044,-0.341 l -0.18,-0.157 C -0.864,0.195 -1.4,1.212 -1.874,2.156 -0.919,1.819 -0.597,0.649 0,0"
         inkscape:connector-curvature="0" />
    </g>
    <g
       transform="matrix(0.73569551,0,0,-0.73569551,48.302074,37.146081)"
       id="g3749">
      <path
         id="path3751"
         style="fill:#c8c9da;fill-opacity:1;fill-rule:nonzero;stroke:none"
         d="M 0,0 C 0.206,-0.453 0.559,-1.188 0.056,-1.625 -0.562,-1.75 -1.22,-2.008 -1.843,-1.729 -2.323,-1.357 -2.439,-0.606 -2.195,-0.015 -1.635,0.756 -0.607,0.481 0,0"
         inkscape:connector-curvature="0" />
    </g>
    <g
       transform="matrix(0.73569551,0,0,-0.73569551,48.298485,37.915913)"
       id="g3753">
      <path
         id="path3755"
         style="fill:#7881a3;fill-opacity:1;fill-rule:nonzero;stroke:none"
         d="M 0,0 C -0.199,-0.425 -0.607,-0.464 -1.082,-0.499 -1.624,-0.528 -1.994,-0.03 -1.995,0.443 -1.932,1.849 -0.313,1.027 0,0"
         inkscape:connector-curvature="0" />
    </g>
    <g
       transform="matrix(0.73569551,0,0,-0.73569551,14.700742,35.989053)"
       id="g3757">
      <path
         id="path3759"
         style="fill:#c8c9da;fill-opacity:1;fill-rule:nonzero;stroke:none"
         d="m 0,0 c 0.083,-0.748 -0.297,-1.363 -0.863,-1.728 -0.597,-0.33 -1.239,-0.319 -1.861,-0.039 -0.491,0.203 -0.722,0.759 -0.721,1.266 C -3.45,0.377 -2.678,0.796 -2.043,1.19 -1.153,1.364 -0.057,1.119 0,0"
         inkscape:connector-curvature="0" />
    </g>
    <g
       transform="matrix(0.73569551,0,0,-0.73569551,14.182106,35.604284)"
       id="g3761">
      <path
         id="path3763"
         style="fill:#7881a3;fill-opacity:1;fill-rule:nonzero;stroke:none"
         d="m 0,0 c 0.312,-0.36 0.277,-0.864 0.242,-1.368 -0.545,-0.536 -1.079,-0.937 -1.838,-0.682 -0.351,0.295 -0.706,0.522 -0.74,0.997 -0.126,0.617 0.615,1.072 1.078,1.411 C -0.811,0.495 -0.315,0.326 0,0"
         inkscape:connector-curvature="0" />
    </g>
    <g
       transform="matrix(0.73569551,0,0,-0.73569551,47.077819,40.091438)"
       id="g3765">
      <path
         id="path3767"
         style="fill:#c8c9da;fill-opacity:1;fill-rule:nonzero;stroke:none"
         d="m 0,0 c -0.021,-1.247 0.121,-2.135 -0.687,-3.058 -0.962,-1.216 -2.64,-1.064 -3.963,-0.668 -1.112,0.517 -1.701,1.739 -1.65,2.952 0.022,0.808 0.146,1.61 0.561,2.223 C -5.262,2.529 -1.505,4.56 0,0"
         inkscape:connector-curvature="0" />
    </g>
    <g
       transform="matrix(0.73569551,0,0,-0.73569551,46.788307,39.971446)"
       id="g3769">
      <path
         id="path3771"
         style="fill:#7881a3;fill-opacity:1;fill-rule:nonzero;stroke:none"
         d="m 0,0 c 0.129,-1.056 0.118,-2.169 -0.55,-3.034 -0.763,-0.791 -1.857,-0.984 -2.89,-0.777 -0.275,0.424 -0.896,0.232 -1.303,0.665 -0.703,1.062 -0.914,2.394 -0.554,3.685 C -4.902,1.828 -1.688,3.739 0,0"
         inkscape:connector-curvature="0" />
    </g>
    <g
       transform="matrix(0.73569551,0,0,-0.73569551,12.888164,38.121761)"
       id="g3773">
      <path
         id="path3775"
         style="fill:#e2e3ec;fill-opacity:1;fill-rule:nonzero;stroke:none"
         d="m 0,0 c 0.26,-0.627 -0.234,-0.929 -0.752,-1.096 -0.472,0.033 -0.719,0.354 -0.896,0.705 -0.003,0.438 0.002,1.012 0.544,1.042 C -0.592,0.716 -0.207,0.419 0,0"
         inkscape:connector-curvature="0" />
    </g>
    <g
       transform="matrix(0.73569551,0,0,-0.73569551,12.62302,38.352033)"
       id="g3777">
      <path
         id="path3779"
         style="fill:#acb0ca;fill-opacity:1;fill-rule:nonzero;stroke:none"
         d="m 0,0 c 0.142,-0.381 -0.29,-0.283 -0.436,-0.442 -0.269,0.018 -0.516,0.34 -0.531,0.611 l 0.134,0.463 C -0.503,0.542 0,0.473 0,0"
         inkscape:connector-curvature="0" />
    </g>
    <g
       transform="matrix(0.73569551,0,0,-0.73569551,53.220582,46.730281)"
       id="g3781">
      <path
         id="path3783"
         style="fill:#444f7c;fill-opacity:1;fill-rule:nonzero;stroke:none"
         d="m 0,0 c 0.601,-1.562 0.221,-3.122 -0.383,-4.498 1.041,0.873 1.406,2.704 1.031,4.114 0.691,-0.284 1.318,-0.969 1.569,-1.729 0.469,-2.464 -1.147,-4.31 -3.155,-5.52 l -2.203,-0.589 c 1.275,1.802 0.246,4.001 -0.412,5.702 0.378,1.054 1.304,1.732 2.26,2.374 -0.455,-0.711 -0.714,-2.01 -0.684,-3.025 C -1.335,-2.203 -1.439,-0.305 0,0"
         inkscape:connector-curvature="0" />
    </g>
    <g
       transform="matrix(0.73569551,0,0,-0.73569551,37.436146,57.896446)"
       id="g3785">
      <path
         id="path3787"
         style="fill:#7881a3;fill-opacity:1;fill-rule:nonzero;stroke:none"
         d="m 0,0 -0.022,-0.337 c -1.624,-0.527 -3.339,-0.914 -5.164,-0.449 -0.123,0.177 -0.002,0.439 -0.022,0.643 1.174,1.336 3.13,1.3 4.676,0.72 C -0.272,0.424 -0.147,0.28 0,0"
         inkscape:connector-curvature="0" />
    </g>
    <g
       transform="matrix(0.73569551,0,0,-0.73569551,24.562239,56.946664)"
       id="g3789">
      <path
         id="path3791"
         style="fill:#7881a3;fill-opacity:1;fill-rule:nonzero;stroke:none"
         d="m 0,0 -0.37,-2.878 c -1.142,-0.394 -2.654,-0.288 -3.82,-0.07 -0.23,1.062 -1.829,3.301 -1.666,3.695 0.458,0.271 1.169,0.323 1.628,0.122 L 0,0 z"
         inkscape:connector-curvature="0" />
    </g>
    <g
       transform="matrix(0.73569551,0,0,-0.73569551,44.541729,58.593372)"
       id="g3793">
      <path
         id="path3795"
         style="fill:#dce8eb;fill-opacity:1;fill-rule:nonzero;stroke:none"
         d="m 0,0 c -0.371,-0.48 -1.353,-0.512 -2.009,-0.737 0.145,0.632 0.165,1.407 0.762,1.736 C -0.52,1.253 -0.31,0.394 0,0"
         inkscape:connector-curvature="0" />
    </g>
    <g
       transform="matrix(0.73569551,0,0,-0.73569551,42.775765,58.991383)"
       id="g3797">
      <path
         id="path3799"
         style="fill:#dce8eb;fill-opacity:1;fill-rule:nonzero;stroke:none"
         d="m 0,0 c 0.046,-0.306 -0.287,-0.25 -0.433,-0.375 l -1.96,-0.031 C -2.427,0.069 -2.402,0.405 -2.039,0.785 -1.299,1.712 -0.363,0.6 0,0"
         inkscape:connector-curvature="0" />
    </g>
    <g
       transform="matrix(0.73569551,0,0,-0.73569551,40.546373,59.256821)"
       id="g3801">
      <path
         id="path3803"
         style="fill:#ffffff;fill-opacity:1;fill-rule:nonzero;stroke:none"
         d="m 0,0 c -0.865,0.195 -1.954,0.068 -2.128,0.959 0.322,0.247 0.635,0.394 1.007,0.402 C -0.586,1.29 -0.2,0.52 0,0"
         inkscape:connector-curvature="0" />
    </g>
    <g
       transform="matrix(0.73569551,0,0,-0.73569551,21.059094,59.086949)"
       id="g3805">
      <path
         id="path3807"
         style="fill:#dce8eb;fill-opacity:1;fill-rule:nonzero;stroke:none"
         d="m 0,0 -1.832,0.364 c 0.029,0.404 0.594,0.77 0.82,1.091 C -0.503,1.014 -0.195,0.588 0,0"
         inkscape:connector-curvature="0" />
    </g>
    <g
       transform="matrix(0.73569551,0,0,-0.73569551,32.544948,60.361836)"
       id="g3809">
      <path
         id="path3811"
         style="fill:#dce8eb;fill-opacity:1;fill-rule:nonzero;stroke:none"
         d="m 0,0 c -0.507,-0.505 -1.319,-0.515 -2.011,-0.771 -0.16,0.619 0.089,1.277 0.522,1.686 0.388,0.243 0.717,0.118 0.987,0.099 C -0.288,0.695 -0.423,0.233 0,0"
         inkscape:connector-curvature="0" />
    </g>
    <g
       transform="matrix(0.73569551,0,0,-0.73569551,30.666217,60.951352)"
       id="g3813">
      <path
         id="path3815"
         style="fill:#dce8eb;fill-opacity:1;fill-rule:nonzero;stroke:none"
         d="m 0,0 c -0.819,-0.112 -1.939,-0.202 -2.599,0.013 0.217,0.694 0.202,1.438 0.943,1.893 C -0.65,1.802 -0.422,0.739 0,0"
         inkscape:connector-curvature="0" />
    </g>
    <g
       transform="matrix(0.73569551,0,0,-0.73569551,28.289568,60.834229)"
       id="g3817">
      <path
         id="path3819"
         style="fill:#ffffff;fill-opacity:1;fill-rule:nonzero;stroke:none"
         d="m 0,0 c -0.679,-0.054 -1.608,0.18 -2.079,0.685 0.136,0.497 0.406,0.985 0.987,1.08 C -0.406,1.446 -0.225,0.657 0,0"
         inkscape:connector-curvature="0" />
    </g>
    <g
       transform="matrix(0.73569551,0,0,-0.73569551,27.468354,14.201577)"
       id="g3821">
      <path
         id="path3823"
         style="fill:#c8c9da;fill-opacity:1;fill-rule:evenodd;stroke:none"
         d="m 0,0 c 0,0 2.795,1.398 5.072,0.083 2.279,-1.316 1.949,-3.922 1.949,-3.922 0,0 1.315,3.158 0.248,4.555 C 6.199,2.114 4.802,2.442 3.264,2.278 1.727,2.114 -0.164,0.576 -0.164,0.576 L 0,0 z"
         inkscape:connector-curvature="0" />
    </g>
    <g
       transform="matrix(0.73569551,0,0,-0.73569551,37.556918,16.844048)"
       id="g3825">
      <path
         id="path3827"
         style="fill:#c8c9da;fill-opacity:1;fill-rule:nonzero;stroke:none"
         d="M 0,0 C -2.344,5.812 -6.867,8.216 -9.493,9.154 -5.794,8.741 -2.375,6.977 -0.226,3.66 0.731,2.377 1.517,1.039 2.159,-0.39 1.589,-0.823 1.098,-1.565 1.279,-2.354 1.46,-3.144 1.977,-3.484 2.661,-3.835 l 0.712,0.051 c 0.947,-4.32 1.524,-9.594 -0.718,-13.657 -2.191,-5.836 -8.64,-9.203 -20.178,-7.879 l -2.963,0.747 0.821,0 c 0,0 3.922,-0.247 5.376,-0.247 1.456,0 5.566,0.387 7.68,1.044 2.112,0.658 5.235,1.891 7.103,5.237 C 2.36,-15.193 3.429,-8.501 0,0"
         inkscape:connector-curvature="0" />
    </g>
    <g
       transform="matrix(0.73569551,0,0,-0.73569551,30.111562,24.681339)"
       id="g3829">
      <path
         id="path3831"
         style="fill:#c8c9da;fill-opacity:1;fill-rule:nonzero;stroke:none"
         d="m 0,0 c -0.293,-0.046 -0.575,-0.122 -0.847,-0.231 -0.625,-0.26 -1.399,-0.713 -1.484,-1.449 0.153,-0.12 0.635,-0.28 0.852,-0.254 -0.324,-2.286 -2.032,-6.034 -3.583,-6.878 -1.079,-1.063 -2.359,-1.936 -3.787,-2.542 -2.418,-0.779 -5.172,-1.229 -7.884,-1.142 2.266,0.071 4.518,0.492 6.538,1.142 3.966,1.681 6.794,5.434 7.318,9.55 L -2.951,-1.9 c -0.283,-0.183 -0.535,0.071 -0.728,0.22 0.085,0.736 0.861,1.189 1.486,1.449 C -1.515,0.044 -0.748,0.109 0,0"
         inkscape:connector-curvature="0" />
    </g>
    <g
       transform="matrix(0.73569551,0,0,-0.73569551,49.244648,34.742196)"
       id="g3833">
      <path
         id="path3835"
         style="fill:#c8c9da;fill-opacity:1;fill-rule:nonzero;stroke:none"
         d="m 0,0 c 2.477,-9.405 -0.142,-20.297 -7.787,-26.785 -0.507,-1.45 0.376,-2.828 0.752,-4.205 -0.388,0.089 -1.781,3.411 -1.419,4.445 7.644,6.488 9.584,17.14 7.098,26.497 0.071,0.535 0.711,0.525 1.07,0.33 C -0.19,0.191 -0.096,0.097 0,0"
         inkscape:connector-curvature="0" />
    </g>
    <g
       transform="matrix(0.73569551,0,0,-0.73569551,49.522035,32.995581)"
       id="g3837">
      <path
         id="path3839"
         style="fill:#c8c9da;fill-opacity:1;fill-rule:nonzero;stroke:none"
         d="m 0,0 c 0.146,0.229 0.282,0.462 0.405,0.696 4.627,-3.362 5.298,-8.743 5.336,-13.979 -0.144,1.144 -0.359,2.287 -0.66,3.405 C 4.412,-6.114 2.919,-2.351 0,0"
         inkscape:connector-curvature="0" />
    </g>
    <g
       transform="matrix(0.73569551,0,0,-0.73569551,49.945207,13.370023)"
       id="g3841">
      <path
         id="path3843"
         style="fill:#c8c9da;fill-opacity:1;fill-rule:nonzero;stroke:none"
         d="m 0,0 c 2.753,0.109 5.676,-0.374 7.183,-2.927 0.387,-0.736 0.93,-1.652 0.397,-2.526 -1.574,-4.651 -7.946,-4.036 -9.586,-8.649 0.35,-3.704 3.032,-7.336 0.975,-11.176 -0.825,-1.664 -2.266,-3.42 -4.063,-4.004 -1.101,-0.444 -2.148,-0.548 -3.106,-0.446 0.565,0.061 1.154,0.203 1.76,0.446 1.796,0.584 3.236,2.34 4.061,4.004 2.059,3.84 -0.626,7.472 -0.974,11.176 1.639,4.613 8.011,3.998 9.585,8.649 0.534,0.874 -0.008,1.79 -0.396,2.526 C 4.572,-0.789 2.316,-0.102 0,0"
         inkscape:connector-curvature="0" />
    </g>
    <g
       transform="matrix(0.73569551,0,0,-0.73569551,25.03644,15.001943)"
       id="g3845">
      <path
         id="path3847"
         style="fill:#edccb8;fill-opacity:1;fill-rule:nonzero;stroke:none"
         d="M 0,0 C -0.585,0.085 -1.28,0.178 -1.989,0.213 -2.253,0.931 -2.813,1.497 -3.511,1.747 -2.203,2.521 -0.204,1.633 0,0"
         inkscape:connector-curvature="0" />
    </g>
    <g
       transform="matrix(0.73569551,0,0,-0.73569551,30.995279,17.877553)"
       id="g3849">
      <path
         id="path3851"
         style="fill:#edccb8;fill-opacity:1;fill-rule:nonzero;stroke:none"
         d="M 0,0 C -0.571,0.477 -1.17,0.925 -1.776,1.348 -1.788,2.044 -1.979,2.692 -2.304,3.239 -1.1,3.044 0.069,2.188 0,0"
         inkscape:connector-curvature="0" />
    </g>
    <g
       transform="matrix(0.73569551,0,0,-0.73569551,25.083819,15.377737)"
       id="g3853">
      <path
         id="path3855"
         style="fill:#dce8eb;fill-opacity:1;fill-rule:nonzero;stroke:none"
         d="m 0,0 c 0.186,-1.228 -0.528,-2.259 -1.591,-2.961 -0.467,0.254 -0.989,0.405 -1.55,0.492 0.748,0.45 1.252,1.294 1.252,2.26 0,0.17 -0.015,0.336 -0.046,0.497 C -1.322,0.267 -0.691,0.177 0,0"
         inkscape:connector-curvature="0" />
    </g>
    <g
       transform="matrix(0.73569551,0,0,-0.73569551,30.888279,18.342071)"
       id="g3857">
      <path
         id="path3859"
         style="fill:#dce8eb;fill-opacity:1;fill-rule:nonzero;stroke:none"
         d="m 0,0 c -0.408,-1.491 -2.005,-2.595 -3.446,-2.933 -0.806,-0.044 -1.438,0.554 -1.959,1.241 0.139,-0.019 0.283,-0.029 0.427,-0.029 1.703,0 3.108,1.379 3.319,3.164 C -1.049,1.042 -0.474,0.585 0,0"
         inkscape:connector-curvature="0" />
    </g>
    <g
       transform="matrix(0.73569551,0,0,-0.73569551,23.089436,16.127404)"
       id="g3861">
      <path
         id="path3863"
         style="fill:#000000;fill-opacity:1;fill-rule:nonzero;stroke:none"
         d="M 0,0 C 0,0.765 0.62,1.385 1.386,1.385 2.15,1.385 2.771,0.765 2.771,0 2.771,-0.765 2.15,-1.385 1.386,-1.385 0.62,-1.385 0,-0.765 0,0"
         inkscape:connector-curvature="0" />
    </g>
    <g
       transform="matrix(0.73569551,0,0,-0.73569551,28.678309,18.497968)"
       id="g3865">
      <path
         id="path3867"
         style="fill:#000000;fill-opacity:1;fill-rule:nonzero;stroke:none"
         d="M 0,0 C 0,0.787 0.639,1.426 1.426,1.426 2.214,1.426 2.853,0.787 2.853,0 2.853,-0.788 2.214,-1.427 1.426,-1.427 0.639,-1.427 0,-0.788 0,0"
         inkscape:connector-curvature="0" />
    </g>
    <g
       transform="matrix(0.73569551,0,0,-0.73569551,23.028402,15.833938)"
       id="g3869">
      <path
         id="path3871"
         style="fill:#ffffff;fill-opacity:1;fill-rule:nonzero;stroke:none"
         d="M 0,0 C 0,0.409 0.332,0.74 0.74,0.74 1.149,0.74 1.48,0.409 1.48,0 1.48,-0.408 1.149,-0.74 0.74,-0.74 0.332,-0.74 0,-0.408 0,0"
         inkscape:connector-curvature="0" />
    </g>
    <g
       transform="matrix(0.73569551,0,0,-0.73569551,28.859997,18.053603)"
       id="g3873">
      <path
         id="path3875"
         style="fill:#ffffff;fill-opacity:1;fill-rule:nonzero;stroke:none"
         d="M 0,0 C 0,0.409 0.331,0.74 0.738,0.74 1.147,0.74 1.479,0.409 1.479,0 1.479,-0.408 1.147,-0.74 0.738,-0.74 0.331,-0.74 0,-0.408 0,0"
         inkscape:connector-curvature="0" />
    </g>
    <g
       transform="matrix(0.73569551,0,0,-0.73569551,7.2913469,19.97149)"
       id="g3877">
      <path
         id="path3879"
         style="fill:#e2e3ec;fill-opacity:1;fill-rule:nonzero;stroke:none"
         d="M 0,0 C 0,0.409 0.331,0.74 0.74,0.74 1.149,0.74 1.48,0.409 1.48,0 1.48,-0.408 1.149,-0.739 0.74,-0.739 0.331,-0.739 0,-0.408 0,0"
         inkscape:connector-curvature="0" />
    </g>
    <g
       transform="matrix(0.73569551,0,0,-0.73569551,21.274623,18.619358)"
       id="g3881">
      <path
         id="path3883"
         style="fill:#e2e3ec;fill-opacity:1;fill-rule:nonzero;stroke:none"
         d="M 0,0 C 0,0.47 0.769,0.851 1.715,0.851 2.662,0.851 3.43,0.47 3.43,0 3.43,-0.47 2.662,-0.851 1.715,-0.851 0.769,-0.851 0,-0.47 0,0"
         inkscape:connector-curvature="0" />
    </g>
    <g
       transform="matrix(0.73569551,0,0,-0.73569551,19.056058,20.878532)"
       id="g3885">
      <path
         id="path3887"
         style="fill:#e2e3ec;fill-opacity:1;fill-rule:nonzero;stroke:none"
         d="M 0,0 C 0,0.409 0.534,0.74 1.19,0.74 1.85,0.74 2.383,0.409 2.383,0 2.383,-0.408 1.85,-0.739 1.19,-0.739 0.534,-0.739 0,-0.408 0,0"
         inkscape:connector-curvature="0" />
    </g>
    <g
       transform="matrix(0.73569551,0,0,-0.73569551,17.440236,23.158522)"
       id="g3889">
      <path
         id="path3891"
         style="fill:#e2e3ec;fill-opacity:1;fill-rule:nonzero;stroke:none"
         d="M 0,0 C 0,0.409 0.547,0.74 1.221,0.74 1.896,0.74 2.442,0.409 2.442,0 2.442,-0.408 1.896,-0.74 1.221,-0.74 0.547,-0.74 0,-0.408 0,0"
         inkscape:connector-curvature="0" />
    </g>
    <g
       transform="matrix(0.73569551,0,0,-0.73569551,51.706108,52.565523)"
       id="g3893">
      <path
         id="path3895"
         style="fill:#7881a3;fill-opacity:1;fill-rule:nonzero;stroke:none"
         d="m 0,0 -1.082,-0.29 c 1.274,1.802 0.246,4.001 -0.412,5.702 0.378,1.054 1.304,1.732 2.26,2.374 C 0.593,7.517 0.45,7.163 0.339,6.773 -0.069,6.387 -0.404,5.948 -0.596,5.412 0.028,3.801 0.981,1.744 0,0"
         inkscape:connector-curvature="0" />
    </g>
    <g
       transform="matrix(0.73569551,0,0,-0.73569551,49.128997,39.88662)"
       id="g3897">
      <path
         id="path3899"
         style="fill:#c8c9da;fill-opacity:1;fill-rule:nonzero;stroke:none"
         d="M 0,0 C 0.349,-0.328 0.102,-0.952 0.146,-1.293 0.03,-1.994 -0.743,-1.94 -1.228,-2.109 c -0.586,0.312 -0.992,0.779 -1.012,1.456 0.037,0.537 0.255,1.231 0.895,1.22 C -0.727,0.726 -0.458,0.201 0,0"
         inkscape:connector-curvature="0" />
    </g>
    <g
       transform="matrix(0.73569551,0,0,-0.73569551,49.031296,40.227541)"
       id="g3901">
      <path
         id="path3903"
         style="fill:#7881a3;fill-opacity:1;fill-rule:nonzero;stroke:none"
         d="m 0,0 c 0.087,-0.682 -0.185,-1.169 -0.797,-1.261 -0.474,-0.001 -0.906,0.57 -0.911,0.975 0.028,0.437 -0.029,1.049 0.548,1.076 0,0 1.032,-0.207 1.16,-0.79"
         inkscape:connector-curvature="0" />
    </g>
  </g>
</svg>
