<?xml version="1.0" encoding="UTF-8" standalone="no"?>
<!-- Created with Inkscape (http://www.inkscape.org/) -->

<svg
   xmlns:dc="http://purl.org/dc/elements/1.1/"
   xmlns:cc="http://creativecommons.org/ns#"
   xmlns:rdf="http://www.w3.org/1999/02/22-rdf-syntax-ns#"
   xmlns:svg="http://www.w3.org/2000/svg"
   xmlns="http://www.w3.org/2000/svg"
   xmlns:sodipodi="http://sodipodi.sourceforge.net/DTD/sodipodi-0.dtd"
   xmlns:inkscape="http://www.inkscape.org/namespaces/inkscape"
   width="64px"
   height="64px"
   id="svg21705"
   version="1.1"
   inkscape:version="0.48.5 r10040"
   sodipodi:docname="Nowy dokument 18">
  <defs
     id="defs21707" />
  <sodipodi:namedview
     id="base"
     pagecolor="#ffffff"
     bordercolor="#666666"
     borderopacity="1.0"
     inkscape:pageopacity="0.0"
     inkscape:pageshadow="2"
     inkscape:zoom="5.5"
     inkscape:cx="32"
     inkscape:cy="30.066933"
     inkscape:current-layer="layer1"
     showgrid="true"
     inkscape:document-units="px"
     inkscape:grid-bbox="true"
     inkscape:window-width="1366"
     inkscape:window-height="706"
     inkscape:window-x="-8"
     inkscape:window-y="-8"
     inkscape:window-maximized="1" />
  <metadata
     id="metadata21710">
    <rdf:RDF>
      <cc:Work
         rdf:about="">
        <dc:format>image/svg+xml</dc:format>
        <dc:type
           rdf:resource="http://purl.org/dc/dcmitype/StillImage" />
        <dc:title></dc:title>
      </cc:Work>
    </rdf:RDF>
  </metadata>
  <g
     id="layer1"
     inkscape:label="Layer 1"
     inkscape:groupmode="layer">
    <path
       id="path11456"
       style="fill:#5b5e5e;fill-opacity:1;fill-rule:nonzero;stroke:none"
       d="m 34.67432,11.156658 c 0,0.444063 -0.361171,0.80414 -0.800856,0.80414 l -2.803046,0 c -0.447546,0 -0.808717,-0.360077 -0.808717,-0.80414 l 0,-5.1796418 c 0,-0.4435158 0.361171,-0.8041398 0.808717,-0.8041398 l 2.803046,0 c 0.439685,0 0.800856,0.360624 0.800856,0.8041398 l 0,5.1796418"
       inkscape:connector-curvature="0" />
    <path
       id="path11458"
       style="fill:#565859;fill-opacity:1;fill-rule:nonzero;stroke:none"
       d="m 32.515104,11.960798 -1.444686,0 c -0.447546,0 -0.808717,-0.360077 -0.808717,-0.80414 l 0,-5.1796418 c 0,-0.4435158 0.361171,-0.8041398 0.808717,-0.8041398 l 1.444686,0 0,6.7879216"
       inkscape:connector-curvature="0" />
    <path
       id="path11460"
       style="fill:#eeebeb;fill-opacity:1;fill-rule:nonzero;stroke:none"
       d="m 21.342327,29.22816 21.904675,0 0,-18.556116 -21.904675,0 0,18.556116 z"
       inkscape:connector-curvature="0" />
    <path
       id="path11462"
       style="fill:#eae9e8;fill-opacity:1;fill-rule:nonzero;stroke:none"
       d="m 21.342327,29.22816 11.039483,0 0,-18.556116 -11.039483,0 0,18.556116 z"
       inkscape:connector-curvature="0" />
    <path
       id="path11464"
       style="fill:#e6dee0;fill-opacity:1;fill-rule:nonzero;stroke:none"
       d="m 22.629986,18.600598 19.329905,0 0,-6.708214 -19.329905,0 0,6.708214 z"
       inkscape:connector-curvature="0" />
    <path
       id="path11466"
       style="fill:#b3d9d6;fill-opacity:1;fill-rule:nonzero;stroke:none"
       d="m 23.281676,17.887808 18.035928,0 0,-5.282037 -18.035928,0 0,5.282037 z"
       inkscape:connector-curvature="0" />
    <path
       id="path11468"
       style="fill:#a7cec9;fill-opacity:1;fill-rule:nonzero;stroke:none"
       d="m 23.281676,17.887808 9.017939,0 0,-5.282037 -9.017939,0 0,5.282037 z"
       inkscape:connector-curvature="0" />
    <path
       id="path11470"
       style="fill:#e5dcbe;fill-opacity:1;fill-rule:nonzero;stroke:none"
       d="m 45.525182,57.319965 -26.200717,0 -8.550392,-30.41173 21.654656,-2.576611 21.646845,2.576611 -8.550392,30.41173"
       inkscape:connector-curvature="0" />
    <path
       id="path11472"
       style="fill:#e9e2cf;fill-opacity:1;fill-rule:nonzero;stroke:none"
       d="m 45.525182,57.319965 -13.096453,0 0,-32.988341 21.646845,2.576611 -8.550392,30.41173"
       inkscape:connector-curvature="0" />
    <path
       id="path11474"
       style="fill:#a7cec9;fill-opacity:1;fill-rule:nonzero;stroke:none"
       d="m 6.6127661,58.135797 c 0,0 21.2620899,-12.761652 45.8296509,0 l -45.8296509,0"
       inkscape:connector-curvature="0" />
    <path
       id="path11476"
       style="fill:#b3d9d6;fill-opacity:1;fill-rule:nonzero;stroke:none"
       d="m 60.262604,58.693052 c 0,0 -11.25129,-11.339754 -31.186464,0 l 31.186464,0"
       inkscape:connector-curvature="0" />
    <path
       id="path11478"
       style="fill:#9cc3be;fill-opacity:1;fill-rule:nonzero;stroke:none"
       d="m 34.014768,58.735991 c 0,0 -16.527555,-11.339108 -31.1864639,0 l 31.1864639,0"
       inkscape:connector-curvature="0" />
    <path
       id="path11480"
       style="fill:#57595b;fill-opacity:1;fill-rule:nonzero;stroke:none"
       d="m 42.235384,32.335358 c 0.204144,-0.007 0.376894,0.146279 0.376894,0.34316 0.008,0.105878 -0.03931,0.204343 -0.11782,0.272707 -0.133443,-0.105232 -0.329726,-0.08588 -0.431823,0.03881 -0.109909,-0.05707 -0.17275,-0.161654 -0.180561,-0.282211 -0.008,-0.196582 0.149165,-0.364057 0.35331,-0.372615 z m 2.732344,4.317437 -1.020724,1.342738 0.5889,-0.02388 c -0.09424,0.809762 -0.745926,1.483594 -1.617434,1.645795 l -0.164888,-4.317438 0.777322,-0.03135 c 0.164888,-0.0075 0.290519,-0.16409 0.282658,-0.35699 -0.008,-0.193199 -0.141354,-0.338881 -0.314054,-0.331816 l -0.777322,0.03085 -0.03135,-0.878673 c 0.423962,-0.177923 0.714482,-0.608503 0.698759,-1.08421 -0.03135,-0.620146 -0.557455,-1.104411 -1.185561,-1.07834 -0.628157,0.02488 -1.122771,0.548997 -1.091375,1.169192 0.01592,0.496804 0.369032,0.913601 0.840112,1.039382 l 0.03135,0.861208 -0.690947,0.02786 c -0.1727,0.007 -0.298331,0.163147 -0.298331,0.356345 0.01592,0.193547 0.149165,0.339528 0.321914,0.332762 l 0.698759,-0.02737 0.172749,4.298083 c -0.832251,-0.127273 -1.491803,-0.727517 -1.640968,-1.49643 l 0.549593,-0.02239 -1.052118,-1.259298 -1.020674,1.34214 0.628107,-0.02538 c 0.251262,1.267558 1.319054,2.206036 2.630296,2.307287 0.07065,0.125781 0.180561,0.200264 0.314054,0.195388 0.125631,-0.005 0.227678,-0.08344 0.282658,-0.20917 1.342637,-0.164689 2.394706,-1.211484 2.543921,-2.522925 l 0.596712,-0.02338 -1.052118,-1.260243"
       inkscape:connector-curvature="0" />
    <path
       id="path11482"
       style="fill:#e5dcbe;fill-opacity:1;fill-rule:nonzero;stroke:none"
       d="M 11.205946,28.429493 10.774073,26.908235 32.428729,24.331624 54.075574,26.908235 53.557376,28.73071 32.593617,26.049464 11.205946,28.429493"
       inkscape:connector-curvature="0" />
    <path
       id="path11484"
       style="fill:#d7d1b5;fill-opacity:1;fill-rule:nonzero;stroke:none"
       d="m 11.205946,28.429493 -0.431873,-1.521258 21.654656,-2.576611 -0.008,1.737792 -21.214971,2.360077"
       inkscape:connector-curvature="0" />
  </g>
</svg>
