<?xml version="1.0" encoding="UTF-8" standalone="no"?>
<!-- Created with Inkscape (http://www.inkscape.org/) -->

<svg
   xmlns:dc="http://purl.org/dc/elements/1.1/"
   xmlns:cc="http://creativecommons.org/ns#"
   xmlns:rdf="http://www.w3.org/1999/02/22-rdf-syntax-ns#"
   xmlns:svg="http://www.w3.org/2000/svg"
   xmlns="http://www.w3.org/2000/svg"
   xmlns:sodipodi="http://sodipodi.sourceforge.net/DTD/sodipodi-0.dtd"
   xmlns:inkscape="http://www.inkscape.org/namespaces/inkscape"
   width="64px"
   height="64px"
   id="svg203772"
   version="1.1"
   inkscape:version="0.48.5 r10040"
   sodipodi:docname="Nowy dokument 65">
  <defs
     id="defs203774" />
  <sodipodi:namedview
     id="base"
     pagecolor="#ffffff"
     bordercolor="#666666"
     borderopacity="1.0"
     inkscape:pageopacity="0.0"
     inkscape:pageshadow="2"
     inkscape:zoom="5.5"
     inkscape:cx="32"
     inkscape:cy="32"
     inkscape:current-layer="layer1"
     showgrid="true"
     inkscape:document-units="px"
     inkscape:grid-bbox="true"
     inkscape:window-width="1366"
     inkscape:window-height="706"
     inkscape:window-x="-8"
     inkscape:window-y="-8"
     inkscape:window-maximized="1" />
  <metadata
     id="metadata203777">
    <rdf:RDF>
      <cc:Work
         rdf:about="">
        <dc:format>image/svg+xml</dc:format>
        <dc:type
           rdf:resource="http://purl.org/dc/dcmitype/StillImage" />
        <dc:title></dc:title>
      </cc:Work>
    </rdf:RDF>
  </metadata>
  <g
     id="layer1"
     inkscape:label="Layer 1"
     inkscape:groupmode="layer">
    <g
       id="g70549"
       transform="matrix(1.6010247,0,0,-1.4592857,60.801788,5.4830137)">
      <path
         inkscape:connector-curvature="0"
         d="m 0,0 c 1.266,-3.986 -0.237,-5.918 -0.812,-6.339 1.979,-3.143 1.541,-7.238 -0.182,-10.384 -0.851,-0.978 -1.934,-1.952 -3.014,-2.662 -0.082,-2.71 -1.551,-4.768 -3.253,-6.758 l -0.661,-7.299 c 1.158,-0.418 2.24,0.357 3.502,0.171 l 2.562,-0.376 c -1.376,-0.472 -2.399,0.108 -3.939,-0.23 -1.55,-0.965 -3.353,0.754 -5.038,-0.243 -0.132,0.101 -0.163,0.234 -0.16,0.399 0.169,0.064 0.304,0.194 0.405,0.325 l -0.39,4.274 c -0.432,0.074 -0.874,-0.349 -1.276,-0.507 -0.594,-1.512 -0.791,-3.228 -1.284,-4.742 2.226,-0.436 4.691,-0.511 6.506,-1.635 -1.925,0.53 -4.555,0.741 -6.619,0.909 -0.208,-0.493 -0.535,-0.056 -0.872,-0.315 -2.569,-2.007 -5.585,0.857 -8.187,-1.05 -0.667,0.012 -1.184,0.914 -1.811,1.223 -0.41,-0.523 -0.869,-1.937 -1.725,-1.393 -0.429,2.191 -2.42,4.64 -0.58,6.859 -3.897,2.184 -5.52,6.546 -5.743,10.818 -0.095,0.299 -0.466,0.107 -0.634,0.077 0.117,-0.929 0.461,-2.258 -0.387,-3.103 -1.76,-2.348 -3.34,-0.339 -3.662,0.328 -0.518,0.836 -0.329,2.156 0.218,2.908 1.417,0.934 -0.966,1.969 -0.175,3.277 1.272,0.342 2.184,-0.897 2.902,-1.737 l 1.766,-0.03 c 0.936,3.854 3.34,7.881 7.306,9.666 0.936,2.068 3.257,3.152 5.491,3.213 1.227,-0.32 2.557,-0.54 3.337,-1.712 1.232,1.831 3.134,3.783 5.499,3.643 l 2.73,-0.146 c 0.101,1.917 1.599,3.71 3.35,4.706 C -2.914,3.061 -0.904,1.67 0,0 m -16.861,-35.504 -0.151,4.666 c -1.368,-0.075 -2.68,-0.747 -4.071,-0.226 -2.018,-0.957 -0.952,-2.961 -1.044,-4.349 1.68,0.665 3.5,-0.061 5.266,-0.091"
         style="fill:#000000;fill-opacity:1;fill-rule:nonzero;stroke:none"
         id="path70551" />
    </g>
    <g
       id="g70553"
       transform="matrix(1.6010247,0,0,-1.4592857,59.779182,5.9491679)">
      <path
         inkscape:connector-curvature="0"
         d="m 0,0 c 1.369,-3.196 -0.095,-5.392 -1.473,-5.997 -0.302,-0.094 -0.539,-0.355 -0.938,-0.314 -0.558,0.539 -0.579,1.235 -0.868,1.868 -0.682,1.004 -1.364,2.108 -2.52,2.657 2.629,-2.331 1.662,-5.885 4.311,-5.069 0.302,0.092 0.574,0.386 0.907,0.379 1.556,-2.607 1.251,-6.571 -0.161,-9.127 -0.669,-2.074 -4.037,-2.18 -3.451,-4.803 -0.467,-1.878 -1.698,-3.611 -3.121,-4.943 -2.411,-0.619 -2.741,3.423 -5.168,1.844 -0.806,-0.317 -1.418,-1.034 -2.35,-0.919 -1.18,1.245 -1.381,3.001 -2.726,4.249 -1.292,0.486 -2.669,-0.02 -3.614,-0.732 -0.713,-0.781 -1.468,-1.959 -2.607,-2.238 -1.731,0.13 -2.588,2.527 -4.61,1.338 -0.736,-0.153 -1.312,-0.705 -1.92,-1.157 -1.703,3.668 -0.922,8.22 1.467,11.421 1.125,1.369 2.316,2.706 3.829,3.506 -0.425,-1.382 -0.732,-3.726 -0.189,-5.092 0.704,0.221 1.087,1.106 1.791,1.392 1.87,0.133 3.643,0.5 5.321,1.099 -0.914,-2.697 -0.504,-5.847 1.762,-7.805 2.469,-1.896 6.393,-2.361 9.117,-1.018 -2.504,-0.222 -6.043,-0.491 -8.541,1.471 -2.202,1.825 -2.41,5.136 -1.467,7.668 0.28,0.657 0.788,1.176 0.836,1.97 -1.82,-2.634 -5.477,-2.419 -7.316,-2.751 l -1.079,-0.676 c 0.137,2.148 0.28,4.528 2.206,5.983 1.551,1.031 3.529,1.658 5.279,0.702 0.729,-0.277 1.016,-1.043 1.814,-1.123 1.264,1.698 3.23,3.55 5.43,3.544 l 3.033,-0.052 c 0.234,1.914 1.432,3.681 3.215,4.643 C -2.256,2.586 -0.642,1.433 0,0"
         style="fill:#f3dcca;fill-opacity:1;fill-rule:nonzero;stroke:none"
         id="path70555" />
    </g>
    <g
       id="g70557"
       transform="matrix(1.6010247,0,0,-1.4592857,36.020231,42.265886)">
      <path
         inkscape:connector-curvature="0"
         d="M 0,0 C 1.697,-0.096 3.41,2.455 4.808,0.446 5.032,-0.088 5.592,-0.461 6.087,-0.768 L 7.186,-0.853 C 5.764,-2.052 4.176,-3.314 2.495,-4.014 2.197,-5.861 1.766,-7.607 1.203,-9.317 l -1.682,-0.766 c -0.275,1.395 -0.24,7.184 -0.756,8.119 0.177,-4.435 -3.197,-3.551 -3.894,-3.373 1.196,1.666 1.932,5.525 1.932,5.525 -0.729,-1.543 -1.464,-3.582 -2.658,-5.182 l -1.94,-2.183 c 0.35,-0.931 0.231,-2.088 0.346,-3.115 -0.602,-0.09 -1.022,0.746 -1.584,0.92 -0.602,-0.055 -0.848,-0.812 -1.156,-1.271 l -1.309,3.365 c 0.088,1.157 1.006,2.166 0.791,3.228 -2.047,1.128 -4.045,3.18 -4.639,5.407 0.278,0.657 1.015,0.875 1.49,1.265 l -0.1,0.067 c 0.396,-0.238 0.936,0.117 1.37,0.208 1.4,0.009 2.143,-1.393 3.404,-1.712 1.504,0.205 2.532,1.742 3.416,2.785 0.429,-0.305 1.144,0.542 1.842,0.465 C -1.523,4.36 -2.018,0.961 0,0"
         style="fill:#b08c4b;fill-opacity:1;fill-rule:nonzero;stroke:none"
         id="path70559" />
    </g>
    <g
       id="g70561"
       transform="matrix(1.6010247,0,0,-1.4592857,59.779182,5.9491679)">
      <path
         inkscape:connector-curvature="0"
         d="m 0,0 c 1.199,-2.799 0.225,-4.831 -0.961,-5.699 -0.187,0.738 -0.728,2.374 -2.021,3.347 -1.104,0.831 -2.725,0.923 -3.737,0.883 0.502,1.409 1.533,2.64 2.918,3.387 C -2.256,2.586 -0.642,1.433 0,0"
         style="fill:#edccb8;fill-opacity:1;fill-rule:evenodd;stroke:none"
         id="path70563" />
    </g>
    <g
       id="g70565"
       transform="matrix(1.6010247,0,0,-1.4592857,59.027213,27.933832)">
      <path
         inkscape:connector-curvature="0"
         d="m 0,0 c -0.085,-0.186 -0.177,-0.364 -0.272,-0.537 -0.461,-1.428 -2.201,-1.923 -3.048,-2.948 -1.347,-0.318 -3.277,-0.747 -4.954,-1.027 -2.285,-0.127 -4.987,0 -7.008,1.587 -2.202,1.825 -2.41,5.137 -1.467,7.668 0.279,0.657 1.08,2.455 1.127,3.249 -1.818,-2.635 -4.322,-1.848 -7.156,-2.722 l -1.531,-1.984 c 0.138,2.149 0.281,4.528 2.206,5.984 1.551,1.031 3.53,1.658 5.28,0.702 0.728,-0.278 1.015,-1.043 1.814,-1.123 1.264,1.698 3.23,3.549 5.43,3.544 L -8.241,12.37 C -10.203,10.057 -13.81,4.678 -9.372,0.396 -6.323,-2.547 -2.729,-1.584 0,0"
         style="fill:#edccb8;fill-opacity:1;fill-rule:evenodd;stroke:none"
         id="path70567" />
    </g>
    <g
       id="g70569"
       transform="matrix(1.6010247,0,0,-1.4592857,19.400186,38.822905)">
      <path
         inkscape:connector-curvature="0"
         d="m 0,0 c -0.947,0.669 -1.785,1.534 -3.168,0.721 -0.736,-0.154 -1.312,-0.705 -1.92,-1.158 -1.703,3.668 -0.923,8.22 1.467,11.421 1.125,1.37 2.315,2.706 3.829,3.506 -0.425,-1.382 -0.732,-3.725 -0.189,-5.092 0.704,0.221 1.086,1.106 1.791,1.392 1.87,0.134 3.643,0.5 5.321,1.1 C 6.217,9.192 6.627,6.042 8.893,4.084 9.644,3.509 10.529,3.063 11.475,2.762 9.785,2.776 8.011,2.77 6.876,3.439 5.264,4.392 -0.243,5.691 -0.38,2.308 -0.413,1.501 -0.26,0.725 0,0"
         style="fill:#edccb8;fill-opacity:1;fill-rule:evenodd;stroke:none"
         id="path70571" />
    </g>
    <g
       id="g70573"
       transform="matrix(1.6010247,0,0,-1.4592857,21.231117,56.015042)">
      <path
         inkscape:connector-curvature="0"
         d="m 0,0 c -0.458,-0.185 -0.682,-0.817 -0.952,-1.221 l -1.309,3.365 c 0.088,1.157 1.006,2.166 0.791,3.228 -2.047,1.128 -4.045,3.18 -4.638,5.407 0.277,0.657 1.014,0.875 1.489,1.265 l -0.1,0.067 c 0.397,-0.238 0.937,0.117 1.37,0.208 1.045,0.007 1.723,-0.77 2.524,-1.299 C 0.097,9.083 1.64,7.63 1.997,7.156 2.528,6.454 -0.776,3.666 -0.415,2.171 -0.3,1.692 -0.15,0.882 0,0"
         style="fill:#764e33;fill-opacity:1;fill-rule:evenodd;stroke:none"
         id="path70575" />
    </g>
    <g
       id="g70577"
       transform="matrix(1.6010247,0,0,-1.4592857,36.992758,56.257401)">
      <path
         inkscape:connector-curvature="0"
         d="m 0,0 -1.086,-0.495 c -0.264,1.335 -0.242,6.689 -0.693,7.971 0.015,-4.262 -3.27,-3.4 -3.957,-3.225 0.648,0.904 1.162,2.451 1.495,3.679 0.246,-0.329 0.819,-0.844 1.95,-0.704 0.147,0.017 0.3,0.095 0.453,0.206 C -0.445,8.5 0.912,11.738 0,0"
         style="fill:#764e33;fill-opacity:1;fill-rule:evenodd;stroke:none"
         id="path70579" />
    </g>
    <g
       id="g70581"
       transform="matrix(1.6010247,0,0,-1.4592857,51.278509,14.941403)">
      <path
         inkscape:connector-curvature="0"
         d="m 0,0 c 0.19,-0.565 0.013,-1.158 -0.196,-1.684 -0.137,-0.228 -0.505,-0.288 -0.807,-0.382 0.197,-0.104 0.496,-0.207 0.797,-0.147 -1.236,-0.143 -2.774,-0.48 -3.923,-1.288 0.682,0.848 1.791,1.433 3.059,1.436 -0.599,0.01 -1.025,0.514 -1.249,0.98 -0.39,0.603 -0.18,2.021 0.904,2.136 C -0.747,1.104 -0.258,0.501 0,0"
         style="fill:#000000;fill-opacity:1;fill-rule:nonzero;stroke:none"
         id="path70583" />
    </g>
    <g
       id="g70585"
       transform="matrix(1.6010247,0,0,-1.4592857,43.209216,20.945138)">
      <path
         inkscape:connector-curvature="0"
         d="m 0,0 c -2.514,-0.605 -2.672,1.634 -2.491,2.426 0.112,0.659 0.46,1.123 1.457,1.298 C 0.997,3.837 1.158,0.607 0,0"
         style="fill:#000000;fill-opacity:1;fill-rule:nonzero;stroke:none"
         id="path70587" />
    </g>
    <g
       id="g70589"
       transform="matrix(1.6010247,0,0,-1.4592857,59.000572,21.434057)">
      <path
         inkscape:connector-curvature="0"
         d="m 0,0 c 0.596,-2.095 -0.283,-4.693 -2.107,-6.085 -2.129,-1.616 -5.096,-1.533 -7.477,-0.499 -1.588,0.756 -2.697,2.131 -2.563,4.015 -1.075,0.577 -1.845,-0.596 -1.845,-0.596 -0.125,0.465 0.389,1.282 1.056,1.304 0.768,-0.013 1.536,0.04 2.092,-0.499 l -0.005,-0.232 c -0.199,0.004 -0.433,-0.058 -0.565,0.076 -0.482,-0.885 0.069,-1.755 0.523,-2.458 1.504,-1.746 4.164,-2.089 6.272,-1.696 0.539,0.256 1.207,0.376 1.615,0.766 -1.803,-0.101 -3.723,0.726 -5,1.972 -0.591,0.574 -0.807,1.603 -0.693,2.328 0.517,0.984 1.431,1.762 2.375,2.341 -1.199,0.054 -2.254,-1.184 -3.227,-1.532 1.967,1.918 4.69,3.16 7.644,2.415 C -1.213,1.211 -0.285,0.864 0,0"
         style="fill:#000000;fill-opacity:1;fill-rule:nonzero;stroke:none"
         id="path70591" />
    </g>
    <g
       id="g70593"
       transform="matrix(1.6010247,0,0,-1.4592857,57.921865,21.996874)">
      <path
         inkscape:connector-curvature="0"
         d="m 0,0 c 0.334,-1.825 -0.166,-3.77 -1.688,-4.9 -0.201,-0.129 -0.734,-0.12 -1.103,-0.213 -1.834,-0.034 -3.847,1.159 -4.75,2.861 -0.506,1.597 2.469,4.004 5.5,3.775 C -1.209,1.376 -0.318,0.865 0,0"
         style="fill:#f3dcca;fill-opacity:1;fill-rule:nonzero;stroke:none"
         id="path70595" />
    </g>
    <g
       id="g70597"
       transform="matrix(1.6010247,0,0,-1.4592857,56.892983,22.70527)">
      <path
         inkscape:connector-curvature="0"
         d="m 0,0 c 0.026,-0.431 0.017,-0.993 -0.421,-1.185 -0.669,-0.12 -1.029,0.217 -1.253,0.75 -0.124,0.565 0.186,1.088 0.655,1.246 C -0.518,0.901 -0.16,0.366 0,0"
         style="fill:#000000;fill-opacity:1;fill-rule:nonzero;stroke:none"
         id="path70599" />
    </g>
    <g
       id="g70601"
       transform="matrix(1.6010247,0,0,-1.4592857,56.411394,22.793527)">
      <path
         inkscape:connector-curvature="0"
         d="m 0,0 c -0.006,-0.331 -0.012,-0.695 -0.348,-0.789 -0.3,-0.093 -0.463,0.141 -0.627,0.342 -0.194,0.334 -0.02,0.761 0.251,1.021 C -0.254,0.731 -0.264,0.17 0,0"
         style="fill:#e0a5a0;fill-opacity:1;fill-rule:nonzero;stroke:none"
         id="path70603" />
    </g>
    <g
       id="g70605"
       transform="matrix(1.6010247,0,0,-1.4592857,51.09548,24.449525)">
      <path
         inkscape:connector-curvature="0"
         d="m 0,0 c 0.025,-0.43 0.02,-0.827 -0.32,-1.118 -0.271,-0.227 -0.903,-0.184 -1.2,0.019 -0.392,0.438 -0.412,1.2 -0.136,1.691 C -1.182,1.113 0.051,1.025 0,0"
         style="fill:#000000;fill-opacity:1;fill-rule:nonzero;stroke:none"
         id="path70607" />
    </g>
    <g
       id="g70609"
       transform="matrix(1.6010247,0,0,-1.4592857,50.613892,24.440886)">
      <path
         inkscape:connector-curvature="0"
         d="M 0,0 C -0.072,-0.363 -0.08,-0.76 -0.416,-0.952 -0.784,-1.045 -1.113,-0.774 -1.141,-0.443 -1.168,-0.046 -1.16,0.352 -0.79,0.576 -0.422,0.636 -0.094,0.333 0,0"
         style="fill:#e0a5a0;fill-opacity:1;fill-rule:nonzero;stroke:none"
         id="path70611" />
    </g>
    <g
       id="g70613"
       transform="matrix(1.6010247,0,0,-1.4592857,4.8564777,30.670051)">
      <path
         inkscape:connector-curvature="0"
         d="M 0,0 -1.107,-0.444 C -1.33,0.155 -2.089,0.631 -1.742,1.386 -0.945,1.207 -0.488,0.637 0,0"
         style="fill:#edccb8;fill-opacity:1;fill-rule:nonzero;stroke:none"
         id="path70615" />
    </g>
    <g
       id="g70617"
       transform="matrix(1.6010247,0,0,-1.4592857,23.915588,33.289294)">
      <path
         inkscape:connector-curvature="0"
         d="M 0,0 C 0.121,-0.662 0.073,-1.522 -0.434,-1.911 -1.035,-2.032 -1.773,-2.285 -2.368,-1.943 -3.025,-1.469 -3.216,-0.837 -3.203,-0.11 -3.191,0.486 -2.042,2.677 0,0"
         style="fill:#000000;fill-opacity:1;fill-rule:nonzero;stroke:none"
         id="path70619" />
    </g>
    <g
       id="g70621"
       transform="matrix(1.6010247,0,0,-1.4592857,7.1299328,31.865615)">
      <path
         inkscape:connector-curvature="0"
         d="m 0,0 c -0.108,-0.461 -0.906,-0.348 -1.279,-0.705 -0.34,-0.391 -0.98,-0.678 -0.756,-1.311 0.259,-0.401 0.722,-0.608 1.125,-0.416 0.135,0.064 0.071,0.23 0.074,0.396 l -0.461,0.307 c 0.34,0.324 0.508,0.486 0.877,0.613 0.359,-0.405 0.311,-1.296 0.068,-1.822 -0.11,-0.56 -0.752,-1.045 -1.224,-1.334 -0.503,-0.191 -1.129,0.184 -1.357,0.519 -0.357,0.602 -0.61,1.334 -0.364,2.058 0.457,1.381 1.936,1.984 3.237,2.093 L 0,0 z"
         style="fill:#edccb8;fill-opacity:1;fill-rule:nonzero;stroke:none"
         id="path70623" />
    </g>
    <g
       id="g70625"
       transform="matrix(1.6010247,0,0,-1.4592857,23.374569,33.616991)">
      <path
         inkscape:connector-curvature="0"
         d="m 0,0 c 0.191,-0.566 0.012,-1.226 -0.492,-1.515 -0.807,-0.315 -1.598,0.195 -1.918,0.927 -0.256,0.634 0.089,1.257 0.66,1.577 l 0.803,0.052 C -0.416,0.9 -0.226,0.4 0,0"
         style="fill:#b08c4b;fill-opacity:1;fill-rule:nonzero;stroke:none"
         id="path70627" />
    </g>
    <g
       id="g70629"
       transform="matrix(1.6010247,0,0,-1.4592857,49.181807,37.83958)">
      <path
         inkscape:connector-curvature="0"
         d="M 0,0 C 0.158,-0.499 -0.443,-0.588 -0.744,-0.648 -1.546,-0.7 -1.633,0.062 -1.992,0.497 -1.346,1.215 -0.151,0.896 0,0"
         style="fill:#000000;fill-opacity:1;fill-rule:nonzero;stroke:none"
         id="path70631" />
    </g>
    <g
       id="g70633"
       transform="matrix(1.6010247,0,0,-1.4592857,48.645528,37.976403)">
      <path
         inkscape:connector-curvature="0"
         d="m 0,0 c -0.005,-0.265 -0.336,-0.159 -0.472,-0.289 -0.297,0.17 -0.892,0.412 -0.55,0.87 C -0.689,0.642 0.044,0.528 0,0"
         style="fill:#b08c4b;fill-opacity:1;fill-rule:nonzero;stroke:none"
         id="path70635" />
    </g>
    <g
       id="g70637"
       transform="matrix(1.6010247,0,0,-1.4592857,22.158303,44.171129)">
      <path
         inkscape:connector-curvature="0"
         d="m 0,0 c 0.023,-0.53 0.309,-1.362 -0.264,-1.716 -0.603,-0.155 -1.336,-0.142 -1.761,0.328 -0.493,0.406 -0.479,1.2 -0.204,1.691 C -2.123,0.6 -1.788,0.726 -1.52,0.82 -0.955,0.679 -0.324,0.567 0,0"
         style="fill:#000000;fill-opacity:1;fill-rule:nonzero;stroke:none"
         id="path70639" />
    </g>
    <g
       id="g70641"
       transform="matrix(1.6010247,0,0,-1.4592857,21.776747,44.503263)">
      <path
         inkscape:connector-curvature="0"
         d="m 0,0 c -0.107,-0.429 0.247,-1.13 -0.422,-1.25 -0.566,0.01 -1.363,0.188 -1.35,0.884 -0.124,0.564 0.18,0.791 0.584,1.014 C -0.887,0.743 -0.19,0.5 0,0"
         style="fill:#edccb8;fill-opacity:1;fill-rule:nonzero;stroke:none"
         id="path70643" />
    </g>
    <g
       id="g70645"
       transform="matrix(1.6010247,0,0,-1.4592857,55.381103,48.510695)">
      <path
         inkscape:connector-curvature="0"
         d="m 0,0 c 0.19,-0.599 0.012,-1.257 -0.495,-1.646 -0.442,-0.388 -1.145,-0.608 -1.774,-0.365 -0.565,0.109 -0.921,0.71 -1.113,1.21 -0.056,0.596 0.453,1.083 0.66,1.478 C -1.876,1.422 -0.415,1.033 0,0"
         style="fill:#000000;fill-opacity:1;fill-rule:nonzero;stroke:none"
         id="path70647" />
    </g>
    <g
       id="g70649"
       transform="matrix(1.6010247,0,0,-1.4592857,47.615236,47.084097)">
      <path
         inkscape:connector-curvature="0"
         d="m 0,0 c 0.107,-1.523 -0.289,-3.171 -0.417,-4.756 l -1.267,0.022 c 0.096,1.652 -0.91,3.191 0.545,4.422 C -0.801,-0.085 -0.429,0.239 0,0"
         style="fill:#764e33;fill-opacity:1;fill-rule:nonzero;stroke:none"
         id="path70651" />
    </g>
    <g
       id="g70653"
       transform="matrix(1.6010247,0,0,-1.4592857,54.469543,48.737176)">
      <path
         inkscape:connector-curvature="0"
         d="M 0,0 C 0.288,-0.667 -0.451,-0.984 -0.824,-1.31 -1.395,-1.53 -1.99,-1.288 -2.247,-0.755 -2.5,0.044 -1.428,0.322 -1.188,0.748 -0.791,0.51 -0.26,0.435 0,0"
         style="fill:#b08c4b;fill-opacity:1;fill-rule:nonzero;stroke:none"
         id="path70655" />
    </g>
    <g
       id="g70657"
       transform="matrix(1.6010247,0,0,-1.4592857,39.800827,18.724922)">
      <path
         inkscape:connector-curvature="0"
         d="M 0,0 C -0.191,0.825 0.18,1.615 0.83,1.765 1.479,1.913 2.162,1.365 2.354,0.538 2.546,-0.287 2.176,-1.077 1.525,-1.227 0.875,-1.375 0.193,-0.826 0,0"
         style="fill:#ffffff;fill-opacity:1;fill-rule:nonzero;stroke:none"
         id="path70659" />
    </g>
    <g
       id="g70661"
       transform="matrix(1.6010247,0,0,-1.4592857,47.985649,15.968857)">
      <path
         inkscape:connector-curvature="0"
         d="M 0,0 C -0.147,0.636 0.126,1.242 0.611,1.354 1.097,1.464 1.61,1.039 1.759,0.403 1.906,-0.233 1.633,-0.839 1.147,-0.95 0.662,-1.062 0.147,-0.636 0,0"
         style="fill:#ffffff;fill-opacity:1;fill-rule:nonzero;stroke:none"
         id="path70663" />
    </g>
    <g
       id="g70665"
       transform="matrix(1.6010247,0,0,-1.4592857,39.800827,18.724922)">
      <path
         inkscape:connector-curvature="0"
         d="M 0,0 C -0.191,0.825 0.18,1.615 0.83,1.765 0.93,1.787 1.031,1.794 1.131,1.785 0.746,1.466 0.563,0.854 0.71,0.223 0.873,-0.476 1.387,-0.976 1.934,-1.022 1.814,-1.121 1.678,-1.191 1.525,-1.227 0.875,-1.375 0.193,-0.826 0,0"
         style="fill:#dce8eb;fill-opacity:1;fill-rule:nonzero;stroke:none"
         id="path70667" />
    </g>
    <g
       id="g70669"
       transform="matrix(1.6010247,0,0,-1.4592857,47.985649,15.968857)">
      <path
         inkscape:connector-curvature="0"
         d="M 0,0 C -0.147,0.636 0.126,1.242 0.611,1.354 0.721,1.379 0.833,1.376 0.94,1.351 0.707,1.094 0.606,0.666 0.709,0.224 0.823,-0.268 1.157,-0.634 1.526,-0.723 1.424,-0.836 1.296,-0.916 1.147,-0.95 0.662,-1.062 0.147,-0.636 0,0"
         style="fill:#dce8eb;fill-opacity:1;fill-rule:nonzero;stroke:none"
         id="path70671" />
    </g>
    <g
       id="g70673"
       transform="matrix(1.6010247,0,0,-1.4592857,39.650715,17.959673)">
      <path
         inkscape:connector-curvature="0"
         d="M 0,0 C 0,0.46 0.375,0.832 0.838,0.832 1.301,0.832 1.676,0.46 1.676,0 1.676,-0.458 1.301,-0.831 0.838,-0.831 0.375,-0.831 0,-0.458 0,0"
         style="fill:#000000;fill-opacity:1;fill-rule:nonzero;stroke:none"
         id="path70675" />
    </g>
    <g
       id="g70677"
       transform="matrix(1.6010247,0,0,-1.4592857,47.743318,15.488577)">
      <path
         inkscape:connector-curvature="0"
         d="M 0,0 C 0,0.371 0.302,0.671 0.676,0.671 1.049,0.671 1.351,0.371 1.351,0 1.351,-0.37 1.049,-0.67 0.676,-0.67 0.302,-0.67 0,-0.37 0,0"
         style="fill:#000000;fill-opacity:1;fill-rule:nonzero;stroke:none"
         id="path70679" />
    </g>
    <g
       id="g70681"
       transform="matrix(1.6010247,0,0,-1.4592857,40.832655,17.375375)">
      <path
         inkscape:connector-curvature="0"
         d="M 0,0 C 0,0.203 0.166,0.368 0.371,0.368 0.575,0.368 0.742,0.203 0.742,0 0.742,-0.203 0.575,-0.368 0.371,-0.368 0.166,-0.368 0,-0.203 0,0"
         style="fill:#ffffff;fill-opacity:1;fill-rule:nonzero;stroke:none"
         id="path70683" />
    </g>
    <g
       id="g70685"
       transform="matrix(1.6010247,0,0,-1.4592857,48.670504,14.996856)">
      <path
         inkscape:connector-curvature="0"
         d="M 0,0 C 0,0.166 0.137,0.302 0.306,0.302 0.476,0.302 0.61,0.166 0.61,0 0.61,-0.168 0.476,-0.303 0.306,-0.303 0.137,-0.303 0,-0.168 0,0"
         style="fill:#ffffff;fill-opacity:1;fill-rule:nonzero;stroke:none"
         id="path70687" />
    </g>
    <g
       id="g70689"
       transform="matrix(1.6010247,0,0,-1.4592857,51.624074,48.82555)">
      <path
         inkscape:connector-curvature="0"
         d="m 0,0 c 0,0.483 0.395,0.875 0.881,0.875 0.486,0 0.88,-0.392 0.88,-0.875 0,-0.482 -0.394,-0.874 -0.88,-0.874 C 0.395,-0.874 0,-0.482 0,0"
         style="fill:#e0cfaf;fill-opacity:1;fill-rule:nonzero;stroke:none"
         id="path70691" />
    </g>
  </g>
</svg>
