<?xml version="1.0" encoding="UTF-8" standalone="no"?>
<!-- Created with Inkscape (http://www.inkscape.org/) -->

<svg
   xmlns:dc="http://purl.org/dc/elements/1.1/"
   xmlns:cc="http://creativecommons.org/ns#"
   xmlns:rdf="http://www.w3.org/1999/02/22-rdf-syntax-ns#"
   xmlns:svg="http://www.w3.org/2000/svg"
   xmlns="http://www.w3.org/2000/svg"
   xmlns:sodipodi="http://sodipodi.sourceforge.net/DTD/sodipodi-0.dtd"
   xmlns:inkscape="http://www.inkscape.org/namespaces/inkscape"
   width="64px"
   height="64px"
   id="svg139703"
   version="1.1"
   inkscape:version="0.48.5 r10040"
   sodipodi:docname="Nowy dokument 19">
  <defs
     id="defs139705">
    <clipPath
       id="clipPath61373"
       clipPathUnits="userSpaceOnUse">
      <path
         inkscape:connector-curvature="0"
         id="path61375"
         d="M 0,800 1600,800 1600,0 0,0 0,800 z" />
    </clipPath>
    <clipPath
       id="clipPath61497"
       clipPathUnits="userSpaceOnUse">
      <path
         inkscape:connector-curvature="0"
         id="path61499"
         d="m 838.869,181.443 21.092,0 0,-21.122 -21.092,0 0,21.122 z" />
    </clipPath>
    <clipPath
       id="clipPath61513"
       clipPathUnits="userSpaceOnUse">
      <path
         inkscape:connector-curvature="0"
         id="path61515"
         d="m 838.869,160.321 21.092,0 0,-23.989 -21.092,0 0,23.989 z" />
    </clipPath>
    <clipPath
       id="clipPath61537"
       clipPathUnits="userSpaceOnUse">
      <path
         inkscape:connector-curvature="0"
         id="path61539"
         d="m 844.961,175.396 9.18,0 0,-7.533 -9.18,0 0,7.533 z" />
    </clipPath>
    <clipPath
       id="clipPath61553"
       clipPathUnits="userSpaceOnUse">
      <path
         inkscape:connector-curvature="0"
         id="path61555"
         d="m 846.626,175.843 2.362,0 0,-2.363 -2.362,0 0,2.363 z" />
    </clipPath>
    <clipPath
       id="clipPath61569"
       clipPathUnits="userSpaceOnUse">
      <path
         inkscape:connector-curvature="0"
         id="path61571"
         d="m 843.76,178.244 11.31,0 0,-11.31 -11.31,0 0,11.31 z" />
    </clipPath>
    <clipPath
       id="clipPath61597"
       clipPathUnits="userSpaceOnUse">
      <path
         inkscape:connector-curvature="0"
         id="path61599"
         d="m 843.868,178.844 11.093,0 0,-6.002 -11.093,0 0,6.002 z" />
    </clipPath>
    <clipPath
       id="clipPath61621"
       clipPathUnits="userSpaceOnUse">
      <path
         inkscape:connector-curvature="0"
         id="path61623"
         d="m 845.097,161.814 9.179,0 0,-7.533 -9.179,0 0,7.533 z" />
    </clipPath>
    <clipPath
       id="clipPath61637"
       clipPathUnits="userSpaceOnUse">
      <path
         inkscape:connector-curvature="0"
         id="path61639"
         d="m 846.762,162.262 2.363,0 0,-2.364 -2.363,0 0,2.364 z" />
    </clipPath>
    <clipPath
       id="clipPath61653"
       clipPathUnits="userSpaceOnUse">
      <path
         inkscape:connector-curvature="0"
         id="path61655"
         d="m 843.896,164.663 11.31,0 0,-11.31 -11.31,0 0,11.31 z" />
    </clipPath>
    <clipPath
       id="clipPath61681"
       clipPathUnits="userSpaceOnUse">
      <path
         inkscape:connector-curvature="0"
         id="path61683"
         d="m 844.004,165.262 11.094,0 0,-6.001 -11.094,0 0,6.001 z" />
    </clipPath>
    <clipPath
       id="clipPath61705"
       clipPathUnits="userSpaceOnUse">
      <path
         inkscape:connector-curvature="0"
         id="path61707"
         d="m 845.232,148.369 9.18,0 0,-7.533 -9.18,0 0,7.533 z" />
    </clipPath>
    <clipPath
       id="clipPath61721"
       clipPathUnits="userSpaceOnUse">
      <path
         inkscape:connector-curvature="0"
         id="path61723"
         d="m 846.897,148.816 2.363,0 0,-2.363 -2.363,0 0,2.363 z" />
    </clipPath>
    <clipPath
       id="clipPath61737"
       clipPathUnits="userSpaceOnUse">
      <path
         inkscape:connector-curvature="0"
         id="path61739"
         d="m 844.031,151.218 11.311,0 0,-11.311 -11.311,0 0,11.311 z" />
    </clipPath>
    <clipPath
       id="clipPath61765"
       clipPathUnits="userSpaceOnUse">
      <path
         inkscape:connector-curvature="0"
         id="path61767"
         d="m 844.14,151.816 11.093,0 0,-6.001 -11.093,0 0,6.001 z" />
    </clipPath>
    <clipPath
       id="clipPath61781"
       clipPathUnits="userSpaceOnUse">
      <path
         inkscape:connector-curvature="0"
         id="path61783"
         d="m 847.494,132.244 4.535,0 0,-1.119 -4.535,0 0,1.119 z" />
    </clipPath>
  </defs>
  <sodipodi:namedview
     id="base"
     pagecolor="#ffffff"
     bordercolor="#666666"
     borderopacity="1.0"
     inkscape:pageopacity="0.0"
     inkscape:pageshadow="2"
     inkscape:zoom="5.5"
     inkscape:cx="32"
     inkscape:cy="32"
     inkscape:current-layer="layer1"
     showgrid="true"
     inkscape:document-units="px"
     inkscape:grid-bbox="true"
     inkscape:window-width="1366"
     inkscape:window-height="706"
     inkscape:window-x="-8"
     inkscape:window-y="-8"
     inkscape:window-maximized="1" />
  <metadata
     id="metadata139708">
    <rdf:RDF>
      <cc:Work
         rdf:about="">
        <dc:format>image/svg+xml</dc:format>
        <dc:type
           rdf:resource="http://purl.org/dc/dcmitype/StillImage" />
        <dc:title></dc:title>
      </cc:Work>
    </rdf:RDF>
  </metadata>
  <g
     id="layer1"
     inkscape:label="Layer 1"
     inkscape:groupmode="layer">
    <path
       inkscape:connector-curvature="0"
       d="m 35.343003,61.962398 -3.686058,0 0,-15.323763 3.686058,0 0,15.323763 z"
       style="fill:#231f20;fill-opacity:1;fill-rule:nonzero;stroke:none"
       id="path61359" />
    <path
       inkscape:connector-curvature="0"
       d="m 32.682701,61.962398 1.635359,0 0,-15.323763 -1.635359,0 0,15.323763 z"
       style="fill:#656263;fill-opacity:1;fill-rule:nonzero;stroke:none"
       id="path61361" />
    <path
       inkscape:connector-curvature="0"
       d="m 37.72614,46.638635 -8.45152,0 0,-3.412957 8.45152,0 0,3.412957 z"
       style="fill:#231f20;fill-opacity:1;fill-rule:nonzero;stroke:none"
       id="path61363" />
    <g
       id="g61365"
       transform="matrix(0.81280238,0,0,-0.81280238,32.682616,46.638798)">
      <path
         inkscape:connector-curvature="0"
         d="m 0,0 2.012,0 0.608,0 0,4.199 -3.228,0 L -0.608,0 0,0 z"
         style="fill:#656263;fill-opacity:1;fill-rule:nonzero;stroke:none"
         id="path61367" />
    </g>
    <g
       id="g61369"
       transform="matrix(0.81280238,0,0,-0.81280238,-657.18819,154.03665)">
      <g
         id="g61371"
         clip-path="url(#clipPath61373)">
        <g
           id="g61377"
           transform="translate(832.7969,170.1777)">
          <path
             inkscape:connector-curvature="0"
             d="m 0,0 c 0,0 2.714,-1.082 2.714,-3.59 l 1.958,0 0,9.061 -9.088,0 C -3.884,3.477 -2.689,1.013 0,0"
             style="fill:#231f20;fill-opacity:1;fill-rule:nonzero;stroke:none"
             id="path61379" />
        </g>
        <g
           id="g61381"
           transform="translate(828.0078,177.6875)">
          <path
             inkscape:connector-curvature="0"
             d="m 0,0 9.461,0 0,0.518 -9.503,0 C -0.035,0.381 -0.021,0.207 0,0"
             style="fill:#656263;fill-opacity:1;fill-rule:nonzero;stroke:none"
             id="path61383" />
        </g>
        <g
           id="g61385"
           transform="translate(837.4687,178.2051)">
          <path
             inkscape:connector-curvature="0"
             d="m 0,0 0,0.336 -9.516,0 c 0,0 0,-0.123 0.013,-0.336 L 0,0 z"
             style="fill:#a7a5a6;fill-opacity:1;fill-rule:nonzero;stroke:none"
             id="path61387" />
        </g>
        <g
           id="g61389"
           transform="translate(828.0078,177.6875)">
          <path
             inkscape:connector-curvature="0"
             d="m 0,0 c 0.053,-0.523 0.16,-1.243 0.373,-2.039 l 9.088,0 L 9.461,0 0,0 z"
             style="fill:#4f4c4c;fill-opacity:1;fill-rule:nonzero;stroke:none"
             id="path61391" />
        </g>
        <g
           id="g61393"
           transform="translate(832.7969,156.9004)">
          <path
             inkscape:connector-curvature="0"
             d="m 0,0 c 0,0 2.714,-1.083 2.714,-3.59 l 1.958,0 0,9.06 -9.088,0 C -3.884,3.477 -2.689,1.012 0,0"
             style="fill:#231f20;fill-opacity:1;fill-rule:nonzero;stroke:none"
             id="path61395" />
        </g>
        <g
           id="g61397"
           transform="translate(828.0078,164.4092)">
          <path
             inkscape:connector-curvature="0"
             d="m 0,0 9.461,0 0,0.519 -9.503,0 C -0.035,0.382 -0.021,0.207 0,0"
             style="fill:#656263;fill-opacity:1;fill-rule:nonzero;stroke:none"
             id="path61399" />
        </g>
        <g
           id="g61401"
           transform="translate(837.4687,164.9277)">
          <path
             inkscape:connector-curvature="0"
             d="m 0,0 0,0.334 -9.516,0 c 0,0 0,-0.123 0.013,-0.334 L 0,0 z"
             style="fill:#a7a5a6;fill-opacity:1;fill-rule:nonzero;stroke:none"
             id="path61403" />
        </g>
        <g
           id="g61405"
           transform="translate(828.0078,164.4092)">
          <path
             inkscape:connector-curvature="0"
             d="m 0,0 c 0.053,-0.522 0.16,-1.243 0.373,-2.039 l 9.088,0 L 9.461,0 0,0 z"
             style="fill:#4f4c4c;fill-opacity:1;fill-rule:nonzero;stroke:none"
             id="path61407" />
        </g>
        <g
           id="g61409"
           transform="translate(832.7969,143.623)">
          <path
             inkscape:connector-curvature="0"
             d="m 0,0 c 0,0 2.714,-1.084 2.714,-3.591 l 1.958,0 0,9.06 -9.088,0 C -3.884,3.477 -2.689,1.012 0,0"
             style="fill:#231f20;fill-opacity:1;fill-rule:nonzero;stroke:none"
             id="path61411" />
        </g>
        <g
           id="g61413"
           transform="translate(828.0078,151.1309)">
          <path
             inkscape:connector-curvature="0"
             d="m 0,0 9.461,0 0,0.519 -9.503,0 C -0.035,0.381 -0.021,0.207 0,0"
             style="fill:#656263;fill-opacity:1;fill-rule:nonzero;stroke:none"
             id="path61415" />
        </g>
        <g
           id="g61417"
           transform="translate(837.4687,151.6494)">
          <path
             inkscape:connector-curvature="0"
             d="m 0,0 0,0.335 -9.516,0 c 0,0 0,-0.123 0.013,-0.335 L 0,0 z"
             style="fill:#a7a5a6;fill-opacity:1;fill-rule:nonzero;stroke:none"
             id="path61419" />
        </g>
        <g
           id="g61421"
           transform="translate(828.0078,151.1309)">
          <path
             inkscape:connector-curvature="0"
             d="m 0,0 c 0.053,-0.521 0.16,-1.242 0.373,-2.039 l 9.088,0 L 9.461,0 0,0 z"
             style="fill:#4f4c4c;fill-opacity:1;fill-rule:nonzero;stroke:none"
             id="path61423" />
        </g>
        <g
           id="g61425"
           transform="translate(865.9434,170.1777)">
          <path
             inkscape:connector-curvature="0"
             d="m 0,0 c 0,0 -2.714,-1.082 -2.714,-3.59 l -1.958,0 0,9.061 9.088,0 C 3.884,3.477 2.689,1.013 0,0"
             style="fill:#231f20;fill-opacity:1;fill-rule:nonzero;stroke:none"
             id="path61427" />
        </g>
        <g
           id="g61429"
           transform="translate(870.7324,177.6875)">
          <path
             inkscape:connector-curvature="0"
             d="m 0,0 -9.461,0 0,0.518 9.503,0 C 0.035,0.381 0.021,0.207 0,0"
             style="fill:#656263;fill-opacity:1;fill-rule:nonzero;stroke:none"
             id="path61431" />
        </g>
        <g
           id="g61433"
           transform="translate(861.2715,178.2051)">
          <path
             inkscape:connector-curvature="0"
             d="m 0,0 0,0.336 9.516,0 c 0,0 0,-0.123 -0.013,-0.336 L 0,0 z"
             style="fill:#a7a5a6;fill-opacity:1;fill-rule:nonzero;stroke:none"
             id="path61435" />
        </g>
        <g
           id="g61437"
           transform="translate(870.7324,177.6875)">
          <path
             inkscape:connector-curvature="0"
             d="m 0,0 c -0.053,-0.523 -0.16,-1.243 -0.373,-2.039 l -9.088,0 0,2.039 L 0,0 z"
             style="fill:#4f4c4c;fill-opacity:1;fill-rule:nonzero;stroke:none"
             id="path61439" />
        </g>
        <g
           id="g61441"
           transform="translate(865.9434,156.9004)">
          <path
             inkscape:connector-curvature="0"
             d="m 0,0 c 0,0 -2.714,-1.083 -2.714,-3.59 l -1.958,0 0,9.06 9.088,0 C 3.884,3.477 2.689,1.012 0,0"
             style="fill:#231f20;fill-opacity:1;fill-rule:nonzero;stroke:none"
             id="path61443" />
        </g>
        <g
           id="g61445"
           transform="translate(870.7324,164.4092)">
          <path
             inkscape:connector-curvature="0"
             d="m 0,0 -9.461,0 0,0.519 9.503,0 C 0.035,0.382 0.021,0.207 0,0"
             style="fill:#656263;fill-opacity:1;fill-rule:nonzero;stroke:none"
             id="path61447" />
        </g>
        <g
           id="g61449"
           transform="translate(861.2715,164.9277)">
          <path
             inkscape:connector-curvature="0"
             d="m 0,0 0,0.334 9.516,0 c 0,0 0,-0.123 -0.013,-0.334 L 0,0 z"
             style="fill:#a7a5a6;fill-opacity:1;fill-rule:nonzero;stroke:none"
             id="path61451" />
        </g>
        <g
           id="g61453"
           transform="translate(870.7324,164.4092)">
          <path
             inkscape:connector-curvature="0"
             d="m 0,0 c -0.053,-0.522 -0.16,-1.243 -0.373,-2.039 l -9.088,0 0,2.039 L 0,0 z"
             style="fill:#4f4c4c;fill-opacity:1;fill-rule:nonzero;stroke:none"
             id="path61455" />
        </g>
        <g
           id="g61457"
           transform="translate(865.9434,143.623)">
          <path
             inkscape:connector-curvature="0"
             d="m 0,0 c 0,0 -2.714,-1.084 -2.714,-3.591 l -1.958,0 0,9.06 9.088,0 C 3.884,3.477 2.689,1.012 0,0"
             style="fill:#231f20;fill-opacity:1;fill-rule:nonzero;stroke:none"
             id="path61459" />
        </g>
        <g
           id="g61461"
           transform="translate(870.7324,151.1309)">
          <path
             inkscape:connector-curvature="0"
             d="m 0,0 -9.461,0 0,0.519 9.503,0 C 0.035,0.381 0.021,0.207 0,0"
             style="fill:#656263;fill-opacity:1;fill-rule:nonzero;stroke:none"
             id="path61463" />
        </g>
        <g
           id="g61465"
           transform="translate(861.2715,151.6494)">
          <path
             inkscape:connector-curvature="0"
             d="m 0,0 0,0.335 9.516,0 c 0,0 0,-0.123 -0.013,-0.335 L 0,0 z"
             style="fill:#a7a5a6;fill-opacity:1;fill-rule:nonzero;stroke:none"
             id="path61467" />
        </g>
        <g
           id="g61469"
           transform="translate(870.7324,151.1309)">
          <path
             inkscape:connector-curvature="0"
             d="m 0,0 c -0.053,-0.521 -0.16,-1.242 -0.373,-2.039 l -9.088,0 0,2.039 L 0,0 z"
             style="fill:#4f4c4c;fill-opacity:1;fill-rule:nonzero;stroke:none"
             id="path61471" />
        </g>
        <g
           id="g61473"
           transform="translate(849.4141,185.6562)">
          <path
             inkscape:connector-curvature="0"
             d="m 0,0 c 2.682,0 4.854,-1.524 4.854,-3.406 0,-1.881 -2.172,-3.406 -4.854,-3.406 3.918,0 7.094,1.525 7.094,3.406 C 7.094,-1.524 3.918,0 0,0"
             style="fill:#7b7979;fill-opacity:1;fill-rule:nonzero;stroke:none"
             id="path61475" />
        </g>
        <g
           id="g61477"
           transform="translate(844.5625,182.25)">
          <path
             inkscape:connector-curvature="0"
             d="M 0,0 C 0,1.882 2.172,3.406 4.852,3.406 0.936,3.406 -2.24,1.882 -2.24,0 -2.24,-1.881 0.936,-3.406 4.852,-3.406 2.172,-3.406 0,-1.881 0,0"
             style="fill:#231f20;fill-opacity:1;fill-rule:nonzero;stroke:none"
             id="path61479" />
        </g>
        <g
           id="g61481"
           transform="translate(854.2676,182.25)">
          <path
             inkscape:connector-curvature="0"
             d="m 0,0 c 0,1.882 -2.172,3.406 -4.854,3.406 -2.679,0 -4.851,-1.524 -4.851,-3.406 0,-1.881 2.172,-3.406 4.851,-3.406 C -2.172,-3.406 0,-1.881 0,0"
             style="fill:#444142;fill-opacity:1;fill-rule:nonzero;stroke:none"
             id="path61483" />
        </g>
        <g
           id="g61485"
           transform="translate(841.1084,135.4922)">
          <path
             inkscape:connector-curvature="0"
             d="m 0,0 c -1.698,0 -3.079,1.382 -3.079,3.08 l 0,40.631 c 0,1.698 1.381,3.08 3.079,3.08 l 16.612,0 c 1.699,0 3.08,-1.382 3.08,-3.08 l 0,-40.631 C 19.692,1.382 18.311,0 16.612,0 L 0,0 z"
             style="fill:#231f20;fill-opacity:1;fill-rule:nonzero;stroke:none"
             id="path61487" />
        </g>
        <g
           id="g61489"
           transform="translate(857.7207,183.123)">
          <path
             inkscape:connector-curvature="0"
             d="m 0,0 -16.612,0 c -2.161,0 -3.919,-1.759 -3.919,-3.92 l 0,-40.631 c 0,-2.161 1.758,-3.92 3.919,-3.92 l 16.612,0 c 2.161,0 3.92,1.759 3.92,3.92 l 0,40.631 C 3.92,-1.759 2.161,0 0,0 m 0,-1.68 c 1.237,0 2.24,-1.004 2.24,-2.24 l 0,-40.631 c 0,-1.236 -1.003,-2.24 -2.24,-2.24 l -16.612,0 c -1.238,0 -2.24,1.004 -2.24,2.24 l 0,40.631 c 0,1.236 1.002,2.24 2.24,2.24 L 0,-1.68"
             style="fill:#deddde;fill-opacity:1;fill-rule:nonzero;stroke:none"
             id="path61491" />
        </g>
        <g
           id="g61493">
          <g
             id="g61495" />
          <g
             id="g61501">
            <g
               style="opacity:0.39999396"
               clip-path="url(#clipPath61497)"
               id="g61503">
              <g
                 transform="translate(839.4287,179.2031)"
                 id="g61505">
                <path
                   inkscape:connector-curvature="0"
                   d="m 0,0 c 0,0.926 0.753,1.68 1.68,1.68 l 16.612,0 c 0.927,0 1.68,-0.754 1.68,-1.68 l 0,-18.882 0.56,0 0,18.882 c 0,1.236 -1.003,2.24 -2.24,2.24 L 1.68,2.24 C 0.442,2.24 -0.56,1.236 -0.56,0 l 0,-18.882 0.56,0 L 0,0 z"
                   style="fill:#deddde;fill-opacity:1;fill-rule:nonzero;stroke:none"
                   id="path61507" />
              </g>
            </g>
          </g>
        </g>
        <g
           id="g61509">
          <g
             id="g61511" />
          <g
             id="g61517">
            <g
               clip-path="url(#clipPath61513)"
               id="g61519">
              <g
                 transform="translate(841.1084,136.332)"
                 id="g61521">
                <path
                   inkscape:connector-curvature="0"
                   d="m 0,0 16.612,0 c 1.238,0 2.241,1.004 2.241,2.24 l 0,21.749 -0.561,0 0,-21.749 c 0,-0.926 -0.753,-1.679 -1.68,-1.679 L 0,0.561 c -0.927,0 -1.68,0.753 -1.68,1.679 l 0,21.749 -0.559,0 0,-21.749 C -2.239,1.004 -1.237,0 0,0"
                   style="fill:#231f20;fill-opacity:1;fill-rule:nonzero;stroke:none"
                   id="path61523" />
              </g>
            </g>
          </g>
        </g>
        <g
           id="g61525"
           transform="translate(849.415,167.3984)">
          <path
             inkscape:connector-curvature="0"
             d="m 0,0 c -2.862,0 -5.19,2.328 -5.19,5.191 0,2.862 2.328,5.19 5.19,5.19 2.862,0 5.19,-2.328 5.19,-5.19 C 5.19,2.328 2.862,0 0,0"
             style="fill:#a82526;fill-opacity:1;fill-rule:nonzero;stroke:none"
             id="path61527" />
        </g>
        <g
           id="g61529"
           transform="translate(849.415,178.2441)">
          <path
             inkscape:connector-curvature="0"
             d="m 0,0 c -3.118,0 -5.655,-2.537 -5.655,-5.654 0,-3.119 2.537,-5.657 5.655,-5.657 3.118,0 5.655,2.538 5.655,5.657 C 5.655,-2.537 3.118,0 0,0 m 0,-0.93 c 2.61,0 4.726,-2.115 4.726,-4.724 0,-2.612 -2.116,-4.727 -4.726,-4.727 -2.61,0 -4.726,2.115 -4.726,4.727 0,2.609 2.116,4.724 4.726,4.724"
             style="fill:#918f90;fill-opacity:1;fill-rule:nonzero;stroke:none"
             id="path61531" />
        </g>
        <g
           id="g61533">
          <g
             id="g61535" />
          <g
             id="g61541">
            <g
               style="opacity:0.30000299"
               clip-path="url(#clipPath61537)"
               id="g61543">
              <g
                 transform="translate(853.2109,175.3965)"
                 id="g61545">
                <path
                   inkscape:connector-curvature="0"
                   d="m 0,0 c 0.172,-0.492 0.271,-1.018 0.271,-1.568 0,-2.61 -2.116,-4.725 -4.726,-4.725 -1.557,0 -2.934,0.756 -3.795,1.918 0.646,-1.838 2.395,-3.158 4.454,-3.158 2.61,0 4.726,2.115 4.726,4.726 C 0.93,-1.755 0.581,-0.786 0,0"
                   style="fill:#a82526;fill-opacity:1;fill-rule:nonzero;stroke:none"
                   id="path61547" />
              </g>
            </g>
          </g>
        </g>
        <g
           id="g61549">
          <g
             id="g61551" />
          <g
             id="g61557">
            <g
               clip-path="url(#clipPath61553)"
               id="g61559">
              <g
                 transform="translate(848.9883,174.6621)"
                 id="g61561">
                <path
                   inkscape:connector-curvature="0"
                   d="m 0,0 c 0,-0.653 -0.528,-1.182 -1.182,-1.182 -0.652,0 -1.18,0.529 -1.18,1.182 0,0.652 0.528,1.181 1.18,1.181 C -0.528,1.181 0,0.652 0,0"
                   style="fill:#a82526;fill-opacity:1;fill-rule:nonzero;stroke:none"
                   id="path61563" />
              </g>
            </g>
          </g>
        </g>
        <g
           id="g61565">
          <g
             id="g61567" />
          <g
             id="g61573">
            <g
               style="opacity:0.5"
               clip-path="url(#clipPath61569)"
               id="g61575">
              <g
                 transform="translate(849.415,177.7793)"
                 id="g61577">
                <path
                   inkscape:connector-curvature="0"
                   d="m 0,0 c 2.862,0 5.19,-2.328 5.19,-5.189 l 0.465,0 c 0,3.117 -2.537,5.654 -5.655,5.654 -3.118,0 -5.655,-2.537 -5.655,-5.654 l 0.465,0 C -5.19,-2.328 -2.862,0 0,0"
                   style="fill:#918f90;fill-opacity:1;fill-rule:nonzero;stroke:none"
                   id="path61579" />
              </g>
              <g
                 transform="translate(849.415,177.7793)"
                 id="g61581">
                <path
                   inkscape:connector-curvature="0"
                   d="m 0,0 c -2.862,0 -5.19,-2.328 -5.19,-5.189 l 0.464,0 c 0,2.609 2.116,4.724 4.726,4.724 2.61,0 4.726,-2.115 4.726,-4.724 l 0.464,0 C 5.19,-2.328 2.862,0 0,0"
                   style="fill:#231f20;fill-opacity:1;fill-rule:nonzero;stroke:none"
                   id="path61583" />
              </g>
              <g
                 transform="translate(849.415,166.9336)"
                 id="g61585">
                <path
                   inkscape:connector-curvature="0"
                   d="m 0,0 c 3.118,0 5.655,2.537 5.655,5.656 l -0.465,0 C 5.19,2.793 2.862,0.465 0,0.465 c -2.862,0 -5.19,2.328 -5.19,5.191 l -0.465,0 C -5.655,2.537 -3.118,0 0,0"
                   style="fill:#231f20;fill-opacity:1;fill-rule:nonzero;stroke:none"
                   id="path61587" />
              </g>
              <g
                 transform="translate(849.415,167.8633)"
                 id="g61589">
                <path
                   inkscape:connector-curvature="0"
                   d="m 0,0 c -2.61,0 -4.726,2.115 -4.726,4.727 l -0.464,0 c 0,-2.864 2.328,-5.192 5.19,-5.192 2.862,0 5.19,2.328 5.19,5.192 l -0.464,0 C 4.726,2.115 2.61,0 0,0"
                   style="fill:#a7a5a6;fill-opacity:1;fill-rule:nonzero;stroke:none"
                   id="path61591" />
              </g>
            </g>
          </g>
        </g>
        <g
           id="g61593">
          <g
             id="g61595" />
          <g
             id="g61601">
            <g
               clip-path="url(#clipPath61597)"
               id="g61603">
              <g
                 transform="translate(849.415,177.9336)"
                 id="g61605">
                <path
                   inkscape:connector-curvature="0"
                   d="m 0,0 c 2.909,0 5.292,-2.242 5.523,-5.092 0.013,0.151 0.023,0.301 0.023,0.455 0,3.063 -2.483,5.547 -5.546,5.547 -3.063,0 -5.547,-2.484 -5.547,-5.547 0,-0.154 0.011,-0.304 0.023,-0.455 C -5.292,-2.242 -2.909,0 0,0"
                   style="fill:#444142;fill-opacity:1;fill-rule:nonzero;stroke:none"
                   id="path61607" />
              </g>
            </g>
          </g>
        </g>
        <g
           id="g61609"
           transform="translate(849.5508,153.8164)">
          <path
             inkscape:connector-curvature="0"
             d="m 0,0 c -2.862,0 -5.19,2.329 -5.19,5.191 0,2.863 2.328,5.192 5.19,5.192 2.861,0 5.19,-2.329 5.19,-5.192 C 5.19,2.329 2.861,0 0,0"
             style="fill:#ebd467;fill-opacity:1;fill-rule:nonzero;stroke:none"
             id="path61611" />
        </g>
        <g
           id="g61613"
           transform="translate(849.5508,164.6631)">
          <path
             inkscape:connector-curvature="0"
             d="m 0,0 c -3.119,0 -5.655,-2.536 -5.655,-5.655 0,-3.118 2.536,-5.656 5.655,-5.656 3.119,0 5.655,2.538 5.655,5.656 C 5.655,-2.536 3.119,0 0,0 m 0,-0.929 c 2.609,0 4.726,-2.117 4.726,-4.726 0,-2.61 -2.117,-4.727 -4.726,-4.727 -2.609,0 -4.726,2.117 -4.726,4.727 0,2.609 2.117,4.726 4.726,4.726"
             style="fill:#918f90;fill-opacity:1;fill-rule:nonzero;stroke:none"
             id="path61615" />
        </g>
        <g
           id="g61617">
          <g
             id="g61619" />
          <g
             id="g61625">
            <g
               style="opacity:0.30000299"
               clip-path="url(#clipPath61621)"
               id="g61627">
              <g
                 transform="translate(853.3457,161.8145)"
                 id="g61629">
                <path
                   inkscape:connector-curvature="0"
                   d="m 0,0 c 0.174,-0.49 0.271,-1.017 0.271,-1.566 0,-2.612 -2.115,-4.727 -4.724,-4.727 -1.558,0 -2.936,0.757 -3.796,1.919 0.647,-1.839 2.395,-3.159 4.454,-3.159 2.609,0 4.726,2.117 4.726,4.726 C 0.931,-1.754 0.582,-0.785 0,0"
                   style="fill:#a82526;fill-opacity:1;fill-rule:nonzero;stroke:none"
                   id="path61631" />
              </g>
            </g>
          </g>
        </g>
        <g
           id="g61633">
          <g
             id="g61635" />
          <g
             id="g61641">
            <g
               clip-path="url(#clipPath61637)"
               id="g61643">
              <g
                 transform="translate(849.125,161.0801)"
                 id="g61645">
                <path
                   inkscape:connector-curvature="0"
                   d="m 0,0 c 0,-0.652 -0.529,-1.182 -1.182,-1.182 -0.652,0 -1.181,0.53 -1.181,1.182 0,0.652 0.529,1.182 1.181,1.182 C -0.529,1.182 0,0.652 0,0"
                   style="fill:#ebd467;fill-opacity:1;fill-rule:nonzero;stroke:none"
                   id="path61647" />
              </g>
            </g>
          </g>
        </g>
        <g
           id="g61649">
          <g
             id="g61651" />
          <g
             id="g61657">
            <g
               style="opacity:0.5"
               clip-path="url(#clipPath61653)"
               id="g61659">
              <g
                 transform="translate(849.5508,164.1992)"
                 id="g61661">
                <path
                   inkscape:connector-curvature="0"
                   d="m 0,0 c 2.861,0 5.19,-2.329 5.19,-5.191 l 0.465,0 c 0,3.119 -2.536,5.655 -5.655,5.655 -3.119,0 -5.655,-2.536 -5.655,-5.655 l 0.465,0 C -5.19,-2.329 -2.862,0 0,0"
                   style="fill:#918f90;fill-opacity:1;fill-rule:nonzero;stroke:none"
                   id="path61663" />
              </g>
              <g
                 transform="translate(849.5508,164.1992)"
                 id="g61665">
                <path
                   inkscape:connector-curvature="0"
                   d="m 0,0 c -2.862,0 -5.19,-2.329 -5.19,-5.191 l 0.464,0 c 0,2.609 2.117,4.726 4.726,4.726 2.609,0 4.726,-2.117 4.726,-4.726 l 0.464,0 C 5.19,-2.329 2.861,0 0,0"
                   style="fill:#231f20;fill-opacity:1;fill-rule:nonzero;stroke:none"
                   id="path61667" />
              </g>
              <g
                 transform="translate(849.5508,153.3525)"
                 id="g61669">
                <path
                   inkscape:connector-curvature="0"
                   d="m 0,0 c 3.119,0 5.655,2.537 5.655,5.655 l -0.465,0 C 5.19,2.793 2.861,0.464 0,0.464 c -2.862,0 -5.19,2.329 -5.19,5.191 l -0.465,0 C -5.655,2.537 -3.119,0 0,0"
                   style="fill:#231f20;fill-opacity:1;fill-rule:nonzero;stroke:none"
                   id="path61671" />
              </g>
              <g
                 transform="translate(849.5508,154.2812)"
                 id="g61673">
                <path
                   inkscape:connector-curvature="0"
                   d="m 0,0 c -2.609,0 -4.726,2.117 -4.726,4.727 l -0.464,0 c 0,-2.863 2.328,-5.192 5.19,-5.192 2.861,0 5.19,2.329 5.19,5.192 l -0.464,0 C 4.726,2.117 2.609,0 0,0"
                   style="fill:#a7a5a6;fill-opacity:1;fill-rule:nonzero;stroke:none"
                   id="path61675" />
              </g>
            </g>
          </g>
        </g>
        <g
           id="g61677">
          <g
             id="g61679" />
          <g
             id="g61685">
            <g
               clip-path="url(#clipPath61681)"
               id="g61687">
              <g
                 transform="translate(849.5508,164.3525)"
                 id="g61689">
                <path
                   inkscape:connector-curvature="0"
                   d="m 0,0 c 2.91,0 5.292,-2.241 5.523,-5.092 0.013,0.152 0.024,0.302 0.024,0.455 0,3.064 -2.484,5.546 -5.547,5.546 -3.063,0 -5.547,-2.482 -5.547,-5.546 0,-0.153 0.011,-0.303 0.024,-0.455 C -5.292,-2.241 -2.91,0 0,0"
                   style="fill:#444142;fill-opacity:1;fill-rule:nonzero;stroke:none"
                   id="path61691" />
              </g>
            </g>
          </g>
        </g>
        <g
           id="g61693"
           transform="translate(849.6865,140.3711)">
          <path
             inkscape:connector-curvature="0"
             d="m 0,0 c -2.862,0 -5.19,2.329 -5.19,5.191 0,2.863 2.328,5.192 5.19,5.192 2.862,0 5.19,-2.329 5.19,-5.192 C 5.19,2.329 2.862,0 0,0"
             style="fill:#597f5c;fill-opacity:1;fill-rule:nonzero;stroke:none"
             id="path61695" />
        </g>
        <g
           id="g61697"
           transform="translate(849.6865,151.2178)">
          <path
             inkscape:connector-curvature="0"
             d="m 0,0 c -3.118,0 -5.655,-2.536 -5.655,-5.655 0,-3.119 2.537,-5.656 5.655,-5.656 3.118,0 5.655,2.537 5.655,5.656 C 5.655,-2.536 3.118,0 0,0 m 0,-0.929 c 2.61,0 4.726,-2.117 4.726,-4.726 0,-2.61 -2.116,-4.727 -4.726,-4.727 -2.61,0 -4.726,2.117 -4.726,4.727 0,2.609 2.116,4.726 4.726,4.726"
             style="fill:#918f90;fill-opacity:1;fill-rule:nonzero;stroke:none"
             id="path61699" />
        </g>
        <g
           id="g61701">
          <g
             id="g61703" />
          <g
             id="g61709">
            <g
               style="opacity:0.30000299"
               clip-path="url(#clipPath61705)"
               id="g61711">
              <g
                 transform="translate(853.4824,148.3691)"
                 id="g61713">
                <path
                   inkscape:connector-curvature="0"
                   d="m 0,0 c 0.172,-0.49 0.271,-1.017 0.271,-1.567 0,-2.611 -2.115,-4.726 -4.726,-4.726 -1.557,0 -2.934,0.757 -3.795,1.919 0.647,-1.839 2.395,-3.159 4.454,-3.159 2.61,0 4.726,2.117 4.726,4.726 C 0.93,-1.754 0.582,-0.785 0,0"
                   style="fill:#a82526;fill-opacity:1;fill-rule:nonzero;stroke:none"
                   id="path61715" />
              </g>
            </g>
          </g>
        </g>
        <g
           id="g61717">
          <g
             id="g61719" />
          <g
             id="g61725">
            <g
               clip-path="url(#clipPath61721)"
               id="g61727">
              <g
                 transform="translate(849.2598,147.6348)"
                 id="g61729">
                <path
                   inkscape:connector-curvature="0"
                   d="m 0,0 c 0,-0.652 -0.528,-1.182 -1.181,-1.182 -0.652,0 -1.181,0.53 -1.181,1.182 0,0.652 0.529,1.182 1.181,1.182 C -0.528,1.182 0,0.652 0,0"
                   style="fill:#597f5c;fill-opacity:1;fill-rule:nonzero;stroke:none"
                   id="path61731" />
              </g>
            </g>
          </g>
        </g>
        <g
           id="g61733">
          <g
             id="g61735" />
          <g
             id="g61741">
            <g
               style="opacity:0.5"
               clip-path="url(#clipPath61737)"
               id="g61743">
              <g
                 transform="translate(849.6865,150.7539)"
                 id="g61745">
                <path
                   inkscape:connector-curvature="0"
                   d="m 0,0 c 2.862,0 5.19,-2.329 5.19,-5.191 l 0.465,0 c 0,3.119 -2.537,5.655 -5.655,5.655 -3.118,0 -5.655,-2.536 -5.655,-5.655 l 0.465,0 C -5.19,-2.329 -2.862,0 0,0"
                   style="fill:#918f90;fill-opacity:1;fill-rule:nonzero;stroke:none"
                   id="path61747" />
              </g>
              <g
                 transform="translate(849.6865,150.7539)"
                 id="g61749">
                <path
                   inkscape:connector-curvature="0"
                   d="m 0,0 c -2.862,0 -5.19,-2.329 -5.19,-5.191 l 0.464,0 c 0,2.609 2.116,4.726 4.726,4.726 2.61,0 4.726,-2.117 4.726,-4.726 l 0.464,0 C 5.19,-2.329 2.862,0 0,0"
                   style="fill:#231f20;fill-opacity:1;fill-rule:nonzero;stroke:none"
                   id="path61751" />
              </g>
              <g
                 transform="translate(849.6865,139.9072)"
                 id="g61753">
                <path
                   inkscape:connector-curvature="0"
                   d="m 0,0 c 3.118,0 5.655,2.536 5.655,5.655 l -0.465,0 C 5.19,2.793 2.862,0.464 0,0.464 c -2.862,0 -5.19,2.329 -5.19,5.191 l -0.465,0 C -5.655,2.536 -3.118,0 0,0"
                   style="fill:#231f20;fill-opacity:1;fill-rule:nonzero;stroke:none"
                   id="path61755" />
              </g>
              <g
                 transform="translate(849.6865,140.8359)"
                 id="g61757">
                <path
                   inkscape:connector-curvature="0"
                   d="m 0,0 c -2.61,0 -4.726,2.117 -4.726,4.727 l -0.464,0 c 0,-2.863 2.328,-5.192 5.19,-5.192 2.862,0 5.19,2.329 5.19,5.192 l -0.464,0 C 4.726,2.117 2.61,0 0,0"
                   style="fill:#a7a5a6;fill-opacity:1;fill-rule:nonzero;stroke:none"
                   id="path61759" />
              </g>
            </g>
          </g>
        </g>
        <g
           id="g61761">
          <g
             id="g61763" />
          <g
             id="g61769">
            <g
               clip-path="url(#clipPath61765)"
               id="g61771">
              <g
                 transform="translate(849.6865,150.9072)"
                 id="g61773">
                <path
                   inkscape:connector-curvature="0"
                   d="m 0,0 c 2.909,0 5.292,-2.241 5.524,-5.092 0.012,0.152 0.023,0.302 0.023,0.455 0,3.064 -2.484,5.546 -5.547,5.546 -3.063,0 -5.547,-2.482 -5.547,-5.546 0,-0.153 0.011,-0.303 0.023,-0.455 C -5.292,-2.241 -2.909,0 0,0"
                   style="fill:#444142;fill-opacity:1;fill-rule:nonzero;stroke:none"
                   id="path61775" />
              </g>
            </g>
          </g>
        </g>
        <g
           id="g61777">
          <g
             id="g61779" />
          <g
             id="g61785">
            <g
               clip-path="url(#clipPath61781)"
               id="g61787">
              <g
                 transform="translate(847.4941,132.1895)"
                 id="g61789">
                <path
                   inkscape:connector-curvature="0"
                   d="M 0,0 2.268,0.055 4.535,0 l 0,-0.113 c 0,0.001 -0.283,-0.319 -0.709,-0.543 C 3.614,-0.779 3.366,-0.881 3.101,-0.949 2.967,-0.974 2.83,-1.027 2.69,-1.031 L 2.268,-1.064 1.845,-1.031 c -0.14,0 -0.277,0.056 -0.41,0.08 C 1.169,-0.885 0.921,-0.782 0.709,-0.659 0.283,-0.434 0,-0.112 0,-0.113 L 0,0 z"
                   style="fill:#6c696a;fill-opacity:1;fill-rule:nonzero;stroke:none"
                   id="path61791" />
              </g>
            </g>
          </g>
        </g>
      </g>
    </g>
  </g>
</svg>
