<?xml version="1.0" encoding="UTF-8" standalone="no"?>
<!-- Created with Inkscape (http://www.inkscape.org/) -->

<svg
   xmlns:dc="http://purl.org/dc/elements/1.1/"
   xmlns:cc="http://creativecommons.org/ns#"
   xmlns:rdf="http://www.w3.org/1999/02/22-rdf-syntax-ns#"
   xmlns:svg="http://www.w3.org/2000/svg"
   xmlns="http://www.w3.org/2000/svg"
   xmlns:sodipodi="http://sodipodi.sourceforge.net/DTD/sodipodi-0.dtd"
   xmlns:inkscape="http://www.inkscape.org/namespaces/inkscape"
   width="64px"
   height="64px"
   id="svg144953"
   version="1.1"
   inkscape:version="0.48.5 r10040"
   sodipodi:docname="Nowy dokument 27">
  <defs
     id="defs144955">
    <clipPath
       id="clipPath71811"
       clipPathUnits="userSpaceOnUse">
      <path
         inkscape:connector-curvature="0"
         id="path71813"
         d="M 0,800 1600,800 1600,0 0,0 0,800 z" />
    </clipPath>
    <clipPath
       id="clipPath71823"
       clipPathUnits="userSpaceOnUse">
      <path
         inkscape:connector-curvature="0"
         id="path71825"
         d="m 1529.79,31.1738 11.79,0 0,-20.7998 -11.79,0 0,20.7998 z" />
    </clipPath>
    <clipPath
       id="clipPath71839"
       clipPathUnits="userSpaceOnUse">
      <path
         inkscape:connector-curvature="0"
         id="path71841"
         d="m 1557.51,31.1738 11.79,0 0,-20.7998 -11.79,0 0,20.7998 z" />
    </clipPath>
    <clipPath
       id="clipPath71855"
       clipPathUnits="userSpaceOnUse">
      <path
         inkscape:connector-curvature="0"
         id="path71857"
         d="m 1539.76,30.6348 19.63,0 0,-1.6914 -19.63,0 0,1.6914 z" />
    </clipPath>
    <clipPath
       id="clipPath71871"
       clipPathUnits="userSpaceOnUse">
      <path
         inkscape:connector-curvature="0"
         id="path71873"
         d="m 1533.97,19.3096 31.41,0 0,-0.6758 -31.41,0 0,0.6758 z" />
    </clipPath>
    <clipPath
       id="clipPath71887"
       clipPathUnits="userSpaceOnUse">
      <path
         inkscape:connector-curvature="0"
         id="path71889"
         d="m 1534.58,16.5293 30.28,0 0,-0.3223 -30.28,0 0,0.3223 z" />
    </clipPath>
    <clipPath
       id="clipPath71915"
       clipPathUnits="userSpaceOnUse">
      <path
         inkscape:connector-curvature="0"
         id="path71917"
         d="m 1545.03,75.0938 8.11,0 0,-1.7833 -8.11,0 0,1.7833 z" />
    </clipPath>
    <clipPath
       id="clipPath71963"
       clipPathUnits="userSpaceOnUse">
      <path
         inkscape:connector-curvature="0"
         id="path71965"
         d="m 1539.49,45.0117 11.87,0 0,-9.6279 -11.87,0 0,9.6279 z" />
    </clipPath>
  </defs>
  <sodipodi:namedview
     id="base"
     pagecolor="#ffffff"
     bordercolor="#666666"
     borderopacity="1.0"
     inkscape:pageopacity="0.0"
     inkscape:pageshadow="2"
     inkscape:zoom="5.5"
     inkscape:cx="32"
     inkscape:cy="28.778222"
     inkscape:current-layer="layer1"
     showgrid="true"
     inkscape:document-units="px"
     inkscape:grid-bbox="true"
     inkscape:window-width="1366"
     inkscape:window-height="706"
     inkscape:window-x="-8"
     inkscape:window-y="-8"
     inkscape:window-maximized="1" />
  <metadata
     id="metadata144958">
    <rdf:RDF>
      <cc:Work
         rdf:about="">
        <dc:format>image/svg+xml</dc:format>
        <dc:type
           rdf:resource="http://purl.org/dc/dcmitype/StillImage" />
        <dc:title></dc:title>
      </cc:Work>
    </rdf:RDF>
  </metadata>
  <g
     id="layer1"
     inkscape:label="Layer 1"
     inkscape:groupmode="layer">
    <g
       id="g71807"
       transform="matrix(0.71494466,0,0,-0.71494466,-1077.8621,66.403739)">
      <g
         id="g71809"
         clip-path="url(#clipPath71811)">
        <g
           id="g71815"
           transform="translate(1567.7051,15.8418)">
          <path
             inkscape:connector-curvature="0"
             d="m 0,0 -0.531,0 c 0,0 -0.56,-0.06 -0.56,0.648 0,0.707 0.236,0.827 0.56,1.445 0.325,0.62 0.619,1.239 0.619,1.739 0,0.502 -0.529,1.857 -1.503,2.625 -0.974,0.767 -4.246,3.272 -4.246,3.272 0,0 -1.953,1.334 -1.953,2.861 0,0 -0.022,0.818 0.486,1.304 0,0 0.11,0.288 0.11,0.575 l 0,0.863 -11.144,0 -11.146,0 0,-0.863 c 0,-0.287 0.112,-0.575 0.112,-0.575 0.508,-0.486 0.486,-1.304 0.486,-1.304 0,-1.527 -1.953,-2.861 -1.953,-2.861 0,0 -3.274,-2.505 -4.246,-3.272 -0.974,-0.768 -1.503,-2.123 -1.503,-2.625 0,-0.5 0.294,-1.119 0.618,-1.739 0.325,-0.618 0.561,-0.738 0.561,-1.445 C -35.233,-0.06 -35.794,0 -35.794,0 l -0.53,0 c -1.593,0 -1.593,-1.387 -1.593,-1.387 l 0,-4.081 19.755,0 19.755,0 0,4.081 c 0,0 0,1.387 -1.593,1.387"
             style="fill:#deddde;fill-opacity:1;fill-rule:nonzero;stroke:none"
             id="path71817" />
        </g>
        <g
           id="g71819">
          <g
             id="g71821" />
          <g
             id="g71827">
            <g
               clip-path="url(#clipPath71823)"
               id="g71829">
              <g
                 transform="translate(1535.8252,15.8418)"
                 id="g71831">
                <path
                   inkscape:connector-curvature="0"
                   d="m 0,0 0.402,0 c 0,0 0.422,-0.06 0.422,0.648 0,0.707 -0.178,0.827 -0.422,1.445 -0.246,0.62 -0.467,1.239 -0.467,1.739 0,0.502 0.4,1.857 1.135,2.625 0.735,0.767 3.206,3.272 3.206,3.272 0,0 1.475,1.334 1.475,2.861 0,0 0.018,0.818 -0.366,1.304 0,0 -0.084,0.288 -0.084,0.575 l 0,0.863 -2.729,0 0,-0.863 c 0,-0.287 0.112,-0.575 0.112,-0.575 C 3.191,13.408 3.17,12.59 3.17,12.59 3.17,11.063 1.217,9.729 1.217,9.729 c 0,0 -3.274,-2.505 -4.246,-3.272 -0.974,-0.768 -1.503,-2.123 -1.503,-2.625 0,-0.5 0.294,-1.119 0.618,-1.739 0.325,-0.618 0.56,-0.738 0.56,-1.445 C -3.354,-0.06 -3.914,0 -3.914,0 l -0.53,0 c -1.593,0 -1.593,-1.387 -1.593,-1.387 l 0,-4.081 4.835,0 0,4.081 c 0,0 0,1.387 1.202,1.387"
                   style="fill:#deddde;fill-opacity:1;fill-rule:nonzero;stroke:none"
                   id="path71833" />
              </g>
            </g>
          </g>
        </g>
        <g
           id="g71835">
          <g
             id="g71837" />
          <g
             id="g71843">
            <g
               clip-path="url(#clipPath71839)"
               id="g71845">
              <g
                 transform="translate(1567.7051,15.8418)"
                 id="g71847">
                <path
                   inkscape:connector-curvature="0"
                   d="m 0,0 -0.531,0 c 0,0 -0.56,-0.06 -0.56,0.648 0,0.707 0.236,0.827 0.56,1.445 0.325,0.62 0.619,1.239 0.619,1.739 0,0.502 -0.529,1.857 -1.503,2.625 -0.974,0.767 -4.246,3.272 -4.246,3.272 0,0 -1.953,1.334 -1.953,2.861 0,0 -0.022,0.818 0.486,1.304 0,0 0.11,0.288 0.11,0.575 l 0,0.863 -2.727,0 0,-0.863 c 0,-0.287 -0.084,-0.575 -0.084,-0.575 -0.384,-0.486 -0.367,-1.304 -0.367,-1.304 0,-1.527 1.475,-2.861 1.475,-2.861 0,0 2.472,-2.505 3.206,-3.272 0.736,-0.768 1.136,-2.123 1.136,-2.625 0,-0.5 -0.222,-1.119 -0.468,-1.739 C -5.091,1.475 -5.27,1.355 -5.27,0.648 -5.27,-0.06 -4.847,0 -4.847,0 l 0.401,0 c 1.204,0 1.204,-1.387 1.204,-1.387 l 0,-4.081 4.835,0 0,4.081 c 0,0 0,1.387 -1.593,1.387"
                   style="fill:#deddde;fill-opacity:1;fill-rule:nonzero;stroke:none"
                   id="path71849" />
              </g>
            </g>
          </g>
        </g>
        <g
           id="g71851">
          <g
             id="g71853" />
          <g
             id="g71859">
            <g
               clip-path="url(#clipPath71855)"
               id="g71861">
              <g
                 transform="translate(1539.7568,30.5508)"
                 id="g71863">
                <path
                   inkscape:connector-curvature="0"
                   d="M 0,0 9.816,0.084 C 14.726,0.042 19.634,0 19.634,0 l 0,-0.17 c 0,0.001 -1.228,-0.48 -3.068,-0.822 -0.461,-0.09 -0.959,-0.186 -1.486,-0.248 -0.527,-0.07 -1.083,-0.158 -1.658,-0.194 -0.575,-0.037 -1.17,-0.117 -1.774,-0.124 -0.604,-0.016 -1.217,-0.033 -1.832,-0.049 -0.613,0.015 -1.226,0.033 -1.83,0.048 -0.604,0 -1.199,0.086 -1.774,0.122 -1.15,0.101 -2.224,0.255 -3.145,0.441 C 1.228,-0.654 0,-0.169 0,-0.17 L 0,0 z"
                   style="fill:#918f90;fill-opacity:1;fill-rule:nonzero;stroke:none"
                   id="path71865" />
              </g>
            </g>
          </g>
        </g>
        <g
           id="g71867">
          <g
             id="g71869" />
          <g
             id="g71875">
            <g
               clip-path="url(#clipPath71871)"
               id="g71877">
              <g
                 transform="translate(1533.9678,18.7344)"
                 id="g71879">
                <path
                   inkscape:connector-curvature="0"
                   d="M 0,0 C 0,0.001 0.491,0.052 1.35,0.113 2.209,0.159 3.437,0.273 4.908,0.324 6.381,0.371 8.1,0.48 9.94,0.5 c 1.841,0.023 3.804,0.05 5.768,0.075 1.964,-0.026 3.927,-0.052 5.768,-0.076 1.84,-0.022 3.559,-0.128 5.032,-0.176 1.471,-0.052 2.699,-0.165 3.558,-0.211 0.859,-0.061 1.35,-0.111 1.35,-0.112 l 0,-0.066 c 0,0 -7.854,-0.018 -15.708,-0.035 C 7.854,-0.084 0,-0.066 0,-0.066 L 0,0 z"
                   style="fill:#918f90;fill-opacity:1;fill-rule:nonzero;stroke:none"
                   id="path71881" />
              </g>
            </g>
          </g>
        </g>
        <g
           id="g71883">
          <g
             id="g71885" />
          <g
             id="g71891">
            <g
               clip-path="url(#clipPath71887)"
               id="g71893">
              <g
                 transform="translate(1534.5752,16.2422)"
                 id="g71895">
                <path
                   inkscape:connector-curvature="0"
                   d="M 0,0 C 0,0 0.473,0.018 1.301,0.048 2.129,0.069 3.313,0.144 4.731,0.154 7.57,0.19 11.355,0.238 15.141,0.287 18.926,0.238 22.711,0.189 25.55,0.154 26.969,0.143 28.152,0.068 28.98,0.047 29.809,0.017 30.281,0 30.281,0 l 0,-0.035 L 0,-0.035 0,0 z"
                   style="fill:#918f90;fill-opacity:1;fill-rule:nonzero;stroke:none"
                   id="path71897" />
              </g>
            </g>
          </g>
        </g>
        <g
           id="g71899"
           transform="translate(1565.4531,17.4043)">
          <path
             inkscape:connector-curvature="0"
             d="m 0,0 c 0,-0.195 -0.157,-0.354 -0.354,-0.354 l -31.113,0 c -0.196,0 -0.353,0.159 -0.353,0.354 0,0.195 0.157,0.354 0.353,0.354 l 31.113,0 C -0.157,0.354 0,0.195 0,0"
             style="fill:#f2f1f2;fill-opacity:1;fill-rule:nonzero;stroke:none"
             id="path71901" />
        </g>
        <g
           id="g71903"
           transform="translate(1549.543,30.4658)">
          <path
             inkscape:connector-curvature="0"
             d="m 0,0 -11.058,0 c 0,0 -6.19,0.53 -6.19,7.651 0,0 0.133,4.334 3.051,7.961 2.919,3.626 11.676,13.843 11.676,13.843 0,0 1.239,1.43 1.239,2.728 0,0 0.029,0.515 -0.944,0.515 l -5.456,-1.592 c 0,0 -1.37,-0.443 -2.284,-1.842 -0.914,-1.402 -1.268,-1.947 -1.268,-1.947 0,0 -0.958,-1.179 -1.843,-1.179 -0.885,0 -1.828,0.898 -1.828,1.739 l 0.083,0.76 -1.35,-0.089 c 0,0 -0.914,-0.11 -1.313,0.767 -0.397,0.877 -0.936,1.872 -0.802,3.383 0.132,1.512 0.397,3.115 0.397,3.701 0,0.585 0.044,1.825 1.382,2.344 1.338,0.52 2.554,1.127 3.97,2.498 1.416,1.371 13.444,12.538 13.444,12.538 L 1.6,54.384 c 0,0 0.36,0.324 0.36,1.23 l 0,1.608 c 0,0 0.103,1.938 1.682,1.938 1.577,0 14.668,-0.78 14.668,-13.341 0,-12.561 -0.62,-13.534 -2.565,-20.493 C 13.8,18.368 13.15,16.009 17.159,9.347 17.159,9.347 21.229,0 9.671,0 L 0,0 z"
             style="fill:#deddde;fill-opacity:1;fill-rule:nonzero;stroke:none"
             id="path71905" />
        </g>
        <g
           id="g71907"
           transform="translate(1544.3164,74.2168)">
          <path
             inkscape:connector-curvature="0"
             d="m 0,0 c 0,0 -0.464,1.99 0.73,2.498 1.195,0.509 2.764,0.221 3.671,-0.287 0.907,-0.509 4.07,-1.283 4.07,-1.283 0,0 -2.279,-0.375 -4.468,0.818 C 1.813,2.941 0.62,1.238 0.575,0.199 L 0,0 z"
             style="fill:#a7a5a6;fill-opacity:1;fill-rule:nonzero;stroke:none"
             id="path71909" />
        </g>
        <g
           id="g71911">
          <g
             id="g71913" />
          <g
             id="g71919">
            <g
               clip-path="url(#clipPath71915)"
               id="g71921">
              <g
                 transform="translate(1545.0322,74.2168)"
                 id="g71923">
                <path
                   inkscape:connector-curvature="0"
                   d="m 0,0 c 0.088,-0.148 0.2,-0.275 0.332,-0.376 0.132,-0.097 0.273,-0.186 0.433,-0.222 0.08,-0.015 0.15,-0.06 0.233,-0.059 L 1.239,-0.68 c 0.16,-0.014 0.325,0.028 0.485,0.037 0.056,-0.002 0.157,0.04 0.233,0.059 l 0.246,0.068 c 0.162,0.047 0.338,0.077 0.488,0.137 l 0.425,0.204 c 0.07,0.034 0.123,0.091 0.186,0.135 0.066,0.046 0.119,0.093 0.152,0.136 l 0.01,0.012 c 0.144,0.175 0.303,0.304 0.481,0.422 0.179,0.113 0.37,0.214 0.579,0.269 0.104,0.029 0.207,0.06 0.317,0.062 0.101,0.008 0.228,0.026 0.321,0.01 L 5.752,0.822 C 6.538,0.74 7.323,0.658 8.107,0.531 7.316,0.502 6.528,0.519 5.739,0.536 L 5.148,0.561 C 5.044,0.572 4.976,0.552 4.881,0.544 4.791,0.541 4.706,0.512 4.621,0.484 4.282,0.378 3.97,0.144 3.73,-0.109 l 0.009,0.012 C 3.666,-0.189 3.589,-0.252 3.514,-0.302 3.436,-0.354 3.364,-0.42 3.281,-0.459 L 2.775,-0.682 C 2.608,-0.742 2.442,-0.764 2.275,-0.806 L 2.024,-0.855 C 1.934,-0.869 1.873,-0.896 1.758,-0.897 1.577,-0.895 1.4,-0.922 1.222,-0.892 l -0.265,0.05 C 0.867,-0.835 0.787,-0.779 0.705,-0.747 0.539,-0.682 0.396,-0.562 0.272,-0.44 0.147,-0.316 0.056,-0.161 0,0"
                   style="fill:#a7a5a6;fill-opacity:1;fill-rule:nonzero;stroke:none"
                   id="path71925" />
              </g>
            </g>
          </g>
        </g>
        <g
           id="g71927"
           transform="translate(1554.1807,81.3477)">
          <path
             inkscape:connector-curvature="0"
             d="M 0,0 C 0,0 1.614,4.644 4.356,5.462 L 2.543,0.995 C 2.543,0.995 1.127,0.951 0,0"
             style="fill:#a7a5a6;fill-opacity:1;fill-rule:nonzero;stroke:none"
             id="path71929" />
        </g>
        <g
           id="g71931"
           transform="translate(1557.5039,79.6787)">
          <path
             inkscape:connector-curvature="0"
             d="M 0,0 C 0,0 2.349,4.476 1.026,7.131 L -1.05,2.629 c 0,0 0.967,-1.107 1.05,-2.629"
             style="fill:#ebebeb;fill-opacity:1;fill-rule:nonzero;stroke:none"
             id="path71933" />
        </g>
        <g
           id="g71935"
           transform="translate(1559.6377,36.8809)">
          <path
             inkscape:connector-curvature="0"
             d="m 0,0 c -1.769,2.83 -5.396,7.026 -3.538,13.231 1.857,6.205 4.6,10.951 4.6,10.951 0,0 3.361,6.843 1.768,9.762 C 2.508,34.537 2.177,34.971 1.856,35.287 1.699,34.535 0.227,28.844 -8.445,26.531 l -0.134,-0.16 0.177,-0.365 c 0,0 1.149,-1.004 0,-2.372 -1.15,-1.369 -11.764,-13.232 -12.649,-18.524 -0.885,-5.292 3.253,-8.942 6.58,-9.307 3.326,-0.365 19.69,0 19.69,0 0,0 -3.449,1.369 -5.219,4.197"
             style="fill:#ebebeb;fill-opacity:1;fill-rule:nonzero;stroke:none"
             id="path71937" />
        </g>
        <g
           id="g71939"
           transform="translate(1553.3906,82.3105)">
          <path
             inkscape:connector-curvature="0"
             d="M 0,0 C 0.382,0.51 0.762,1.012 1.107,1.537 1.293,1.792 1.442,2.063 1.601,2.328 L 1.847,2.74 C 1.933,2.875 2,3.012 2.102,3.146 2.305,3.421 2.519,3.68 2.745,3.909 c 0.229,0.233 0.47,0.45 0.721,0.658 0.249,0.21 0.513,0.404 0.789,0.586 0.136,0.094 0.292,0.169 0.438,0.253 0.144,0.086 0.339,0.138 0.509,0.202 L 5.31,5.649 5.429,5.569 C 5.554,5.485 5.611,5.408 5.678,5.332 5.749,5.255 5.81,5.176 5.849,5.092 5.933,4.928 6.048,4.762 6.083,4.588 6.191,4.243 6.288,3.898 6.304,3.553 6.346,3.207 6.387,2.862 6.35,2.523 6.325,2.184 6.315,1.842 6.279,1.507 L 6.1,0.514 C 6.032,0.186 5.999,-0.149 5.894,-0.468 5.706,-1.109 5.549,-1.756 5.383,-2.4 l -0.058,0.138 c 0.473,-0.301 0.863,-0.672 1.242,-1.063 0.376,-0.394 0.68,-0.849 0.958,-1.316 0.264,-0.474 0.505,-0.97 0.654,-1.498 0.089,-0.259 0.157,-0.525 0.203,-0.796 0.065,-0.268 0.102,-0.54 0.123,-0.813 0.073,-0.547 0.045,-1.1 0.009,-1.645 l -0.091,-0.82 C 8.376,-10.491 8.297,-10.772 8.213,-11.032 8.039,-11.561 7.815,-12.067 7.555,-12.554 7.293,-13.038 7.006,-13.513 6.669,-13.948 6.359,-14.408 5.958,-14.789 5.59,-15.197 5.174,-15.555 4.796,-15.961 4.342,-16.27 3.907,-16.604 3.466,-16.928 2.984,-17.188 2.521,-17.48 2.03,-17.715 1.532,-17.936 1.047,-18.182 0.536,-18.364 0.024,-18.542 l -0.767,-0.263 -0.787,-0.193 c -0.526,-0.121 -1.039,-0.285 -1.577,-0.338 l -1.593,-0.226 -0.012,0.07 1.547,0.41 c 0.518,0.122 1.015,0.312 1.519,0.476 l 0.751,0.252 0.727,0.313 c 0.489,0.197 0.975,0.398 1.431,0.659 0.468,0.237 0.928,0.486 1.356,0.786 0.449,0.269 0.872,0.571 1.278,0.897 0.43,0.297 0.779,0.684 1.169,1.025 0.345,0.386 0.707,0.757 1.014,1.172 0.328,0.399 0.608,0.836 0.866,1.282 0.257,0.447 0.478,0.915 0.652,1.398 0.086,0.245 0.159,0.476 0.215,0.722 l 0.124,0.768 c 0.06,0.514 0.106,1.034 0.08,1.551 0.001,0.26 -0.016,0.519 -0.058,0.776 C 7.934,-6.746 7.89,-6.489 7.82,-6.238 7.712,-5.729 7.513,-5.242 7.289,-4.77 6.796,-3.857 6.1,-3 5.208,-2.473 L 5.13,-2.428 5.15,-2.335 C 5.292,-1.69 5.442,-1.048 5.562,-0.4 5.64,-0.08 5.646,0.25 5.687,0.575 L 5.785,1.551 C 5.795,1.875 5.778,2.197 5.777,2.52 5.768,2.68 5.791,2.844 5.769,3 L 5.706,3.469 C 5.679,3.623 5.678,3.787 5.632,3.932 L 5.495,4.367 C 5.464,4.523 5.364,4.625 5.311,4.76 5.262,4.885 5.135,5 5.104,5.043 L 5.33,5.004 C 4.845,4.867 4.287,4.504 3.815,4.131 3.574,3.942 3.337,3.742 3.116,3.53 2.884,3.321 2.678,3.107 2.485,2.887 2.385,2.777 2.3,2.635 2.206,2.51 L 1.936,2.125 C 1.746,1.861 1.577,1.582 1.357,1.35 0.941,0.863 0.515,0.389 0.053,-0.047 L 0,0 z"
             style="fill:#a7a5a6;fill-opacity:1;fill-rule:nonzero;stroke:none"
             id="path71941" />
        </g>
        <g
           id="g71943"
           transform="translate(1539.7568,62.3789)">
          <path
             inkscape:connector-curvature="0"
             d="M 0,0 C -0.078,0.32 -0.201,0.673 -0.435,0.801 -0.648,0.914 -0.909,0.789 -1.158,0.621 -1.388,0.458 -1.679,0.21 -1.924,0.012 L -2.686,-0.627 C -3.2,-1.059 -3.758,-1.465 -4.35,-1.824 -4.674,-1.974 -4.957,-2.175 -5.322,-2.256 -5.501,-2.297 -5.658,-2.383 -5.851,-2.382 l -0.556,-0.009 0.032,10e-4 c -0.053,0.003 -0.128,-0.017 -0.168,-0.048 -0.041,-0.031 -0.058,-0.095 -0.06,-0.18 0.024,-0.083 0.035,-0.179 0.08,-0.265 l 0.126,-0.273 -0.221,0.216 c -0.07,0.076 -0.117,0.178 -0.173,0.276 -0.033,0.115 -0.054,0.255 0.027,0.393 0.088,0.126 0.201,0.197 0.344,0.236 l 0.033,0.001 0.445,0.1 c 0.144,0.027 0.286,0.123 0.426,0.179 0.286,0.109 0.547,0.327 0.822,0.478 0.257,0.205 0.531,0.374 0.79,0.584 l 0.79,0.608 c 0.26,0.206 0.54,0.409 0.823,0.607 0.291,0.204 0.539,0.362 0.886,0.542 0.163,0.084 0.35,0.148 0.557,0.165 C -0.646,1.249 -0.396,1.2 -0.244,1.037 0.044,0.713 0.045,0.332 0,0"
             style="fill:#a7a5a6;fill-opacity:1;fill-rule:nonzero;stroke:none"
             id="path71945" />
        </g>
        <g
           id="g71947"
           transform="translate(1534.8379,59.1904)">
          <path
             inkscape:connector-curvature="0"
             d="m 0,0 c 0,0 0.255,0.246 0.703,0.529 0.449,0.299 1.074,0.603 1.68,0.941 0.298,0.17 0.612,0.319 0.868,0.509 0.276,0.168 0.51,0.347 0.703,0.517 0.214,0.151 0.325,0.335 0.436,0.443 0.105,0.115 0.166,0.179 0.166,0.179 0,0 -0.039,-0.078 -0.109,-0.216 C 4.36,2.778 4.298,2.539 4.098,2.358 3.917,2.159 3.709,1.914 3.429,1.729 3.165,1.516 2.854,1.348 2.551,1.159 2.234,1.007 1.917,0.854 1.62,0.712 1.32,0.573 1.036,0.466 0.802,0.357 0.562,0.259 0.36,0.164 0.223,0.098 0.081,0.036 0,0 0,0"
             style="fill:#bdbcbc;fill-opacity:1;fill-rule:nonzero;stroke:none"
             id="path71949" />
        </g>
        <g
           id="g71951"
           transform="translate(1546.1221,21.5313)">
          <path
             inkscape:connector-curvature="0"
             d="m 0,0 c 0,-0.684 -1.649,-1.237 -3.686,-1.237 -2.035,0 -3.684,0.553 -3.684,1.237 0,0.684 1.649,1.239 3.684,1.239 C -1.649,1.239 0,0.684 0,0"
             style="fill:#ebebeb;fill-opacity:1;fill-rule:nonzero;stroke:none"
             id="path71953" />
        </g>
        <g
           id="g71955"
           transform="translate(1543.6455,64.4609)">
          <path
             inkscape:connector-curvature="0"
             d="M 0,0 C 0,0 3.303,4.246 5.779,2.83 5.779,2.83 9.612,1.533 0,0"
             style="fill:#c4c3c3;fill-opacity:1;fill-rule:nonzero;stroke:none"
             id="path71957" />
        </g>
        <g
           id="g71959">
          <g
             id="g71961" />
          <g
             id="g71967">
            <g
               clip-path="url(#clipPath71963)"
               id="g71969">
              <g
                 transform="translate(1540.9502,45.0117)"
                 id="g71971">
                <path
                   inkscape:connector-curvature="0"
                   d="m 0,0 c 0,0 -0.057,-0.375 -0.126,-1.025 -0.071,-0.647 -0.158,-1.574 -0.158,-2.652 0.005,-0.538 0.045,-1.114 0.138,-1.687 0.094,-0.575 0.299,-1.132 0.582,-1.577 0.302,-0.436 0.708,-0.707 1.244,-0.843 0.516,-0.14 1.22,-0.129 1.799,-0.014 0.348,0.075 0.777,0.107 1.057,0.214 0.283,0.117 0.574,0.166 0.857,0.319 0.57,0.286 1.127,0.595 1.585,1.019 0.232,0.207 0.459,0.414 0.654,0.65 0.211,0.222 0.406,0.453 0.569,0.702 0.183,0.235 0.332,0.485 0.475,0.731 0.158,0.237 0.285,0.484 0.404,0.724 0.241,0.478 0.441,0.937 0.6,1.351 0.16,0.416 0.29,0.787 0.385,1.098 0.198,0.62 0.285,0.99 0.285,0.99 0,0 0.063,-0.375 0.063,-1.043 -0.002,-0.334 -0.01,-0.742 -0.075,-1.205 -0.054,-0.467 -0.141,-0.994 -0.31,-1.555 C 9.873,-4.366 9.665,-4.979 9.328,-5.581 9.18,-5.893 8.992,-6.195 8.777,-6.496 8.59,-6.814 8.32,-7.084 8.059,-7.369 7.525,-7.929 6.875,-8.436 6.134,-8.804 5.775,-9.006 5.335,-9.123 4.93,-9.277 4.513,-9.424 4.187,-9.447 3.81,-9.535 2.93,-9.673 2.106,-9.674 1.208,-9.424 c -0.892,0.225 -1.689,0.924 -2.104,1.682 -0.418,0.765 -0.537,1.553 -0.56,2.248 -0.028,0.701 0.057,1.34 0.165,1.912 0.217,1.146 0.563,2.039 0.827,2.648 C -0.195,-0.325 0,0 0,0"
                   style="fill:#c4c3c3;fill-opacity:1;fill-rule:nonzero;stroke:none"
                   id="path71973" />
              </g>
            </g>
          </g>
        </g>
        <g
           id="g71975"
           transform="translate(1538.9443,37.5039)">
          <path
             inkscape:connector-curvature="0"
             d="m 0,0 c -0.278,0.671 -0.469,1.4 -0.552,2.18 -0.034,0.234 -0.046,0.371 -0.046,0.371 l 0.014,0 c -0.035,0.607 -0.003,1.244 0.107,1.907 0.885,5.292 11.499,17.153 12.649,18.522 1.151,1.37 0,2.373 0,2.373 l -0.177,0.365 0.136,0.161 c 0.805,0.215 1.547,0.459 2.232,0.725 L 8.941,25.488 c 0.268,-0.152 0.258,-0.375 0.258,-0.375 0,-1.297 -1.239,-2.726 -1.239,-2.726 0,0 -8.758,-10.217 -11.676,-13.844 -2.919,-3.626 -3.053,-7.961 -3.053,-7.961 0,-7.12 6.193,-7.65 6.193,-7.65 l 6.515,0 C 2.368,-5.086 0.737,-2.115 0,0"
             style="fill:#d3d2d2;fill-opacity:1;fill-rule:nonzero;stroke:none"
             id="path71977" />
        </g>
      </g>
    </g>
  </g>
</svg>
