<?xml version="1.0" encoding="UTF-8" standalone="no"?>
<!-- Created with Inkscape (http://www.inkscape.org/) -->

<svg
   xmlns:dc="http://purl.org/dc/elements/1.1/"
   xmlns:cc="http://creativecommons.org/ns#"
   xmlns:rdf="http://www.w3.org/1999/02/22-rdf-syntax-ns#"
   xmlns:svg="http://www.w3.org/2000/svg"
   xmlns="http://www.w3.org/2000/svg"
   xmlns:sodipodi="http://sodipodi.sourceforge.net/DTD/sodipodi-0.dtd"
   xmlns:inkscape="http://www.inkscape.org/namespaces/inkscape"
   width="64px"
   height="64px"
   id="svg166752"
   version="1.1"
   inkscape:version="0.48.5 r10040"
   sodipodi:docname="tygrys.svg">
  <defs
     id="defs166754" />
  <sodipodi:namedview
     id="base"
     pagecolor="#ffffff"
     bordercolor="#666666"
     borderopacity="1.0"
     inkscape:pageopacity="0.0"
     inkscape:pageshadow="2"
     inkscape:zoom="5.5"
     inkscape:cx="32"
     inkscape:cy="29.637363"
     inkscape:current-layer="layer1"
     showgrid="true"
     inkscape:document-units="px"
     inkscape:grid-bbox="true"
     inkscape:window-width="1366"
     inkscape:window-height="706"
     inkscape:window-x="-8"
     inkscape:window-y="-8"
     inkscape:window-maximized="1" />
  <metadata
     id="metadata166757">
    <rdf:RDF>
      <cc:Work
         rdf:about="">
        <dc:format>image/svg+xml</dc:format>
        <dc:type
           rdf:resource="http://purl.org/dc/dcmitype/StillImage" />
      </cc:Work>
    </rdf:RDF>
  </metadata>
  <g
     id="layer1"
     inkscape:label="Layer 1"
     inkscape:groupmode="layer">
    <g
       transform="matrix(0.79703677,0,0,-0.79703677,31.638933,5.3555263)"
       id="g8109">
      <path
         id="path8111"
         style="fill:#000000;fill-opacity:1;fill-rule:nonzero;stroke:none"
         d="M 0,0 C 1.287,1.827 3.311,3.28 5.666,2.798 7.547,2.309 9.414,0.695 9.718,-1.313 10.255,-4.507 7.163,-5.818 7.163,-5.818 c 2.608,-1.84 5.162,-3.751 6.431,-6.767 l -2.001,-0.104 c 0.783,-1.902 1.207,-4.039 1.237,-6.038 -0.732,-0.249 -1.383,0.449 -2.074,0.672 -0.108,-1.619 0.05,-3.572 -0.605,-5.148 -0.311,-0.338 -1.484,1.801 -2.064,2.369 -0.602,-1.502 -1.328,-3 -2.37,-4.236 -0.597,0.046 -0.673,0.772 -1.113,1.061 -0.501,-0.805 -1.052,-1.559 -1.677,-2.288 -0.325,-5.757 -1.233,-11.693 -0.904,-17.298 0.197,-0.831 0.082,-1.926 1.119,-2.31 3.907,-0.362 8.198,-1.187 9.881,-5.191 0.806,-2.675 0.459,-9.005 0.459,-9.005 2.924,-0.651 5.581,-0.369 8.554,-0.373 14.028,1.548 3.84,8.455 3.84,8.455 -3.772,2.104 -8.45,2.567 -11.608,5.799 -0.95,1.457 -1.238,3.215 -0.898,5.051 0.828,2.293 4.897,6.749 8.975,3.157 2.185,-2.498 -1.907,-4.552 -0.126,-7.187 3.997,-3.534 10.327,-3.906 12.729,-9.434 0.697,-2.221 -0.089,-4.716 -1.719,-6.332 -4.005,-5.304 -11.76,-3.559 -17.167,-2.521 1.147,-1.465 2.556,-3.312 1.779,-5.531 -0.562,-0.356 -1.144,-0.585 -1.866,-0.535 -2.263,-1.869 -5.718,-2.148 -8.423,-0.954 -0.485,1.191 -1.947,0.068 -2.744,0.819 -0.075,1.452 -1.489,0.277 -2.251,0.603 -0.322,0.087 -0.677,-0.101 -1.076,-0.012 -0.076,-0.771 0.121,-1.601 -0.5,-2.205 -0.923,-0.717 -2.127,-0.151 -3.076,-0.842 -2.183,-0.322 -4.218,-0.675 -6.44,-0.672 -1.353,-0.104 -2.691,0.917 -3.901,-0.115 -2.085,-0.401 -4.569,-0.715 -6.645,-0.117 -1.096,-0.636 -2.285,0.355 -3.296,-0.01 -0.453,-0.084 -0.894,0.157 -1.261,0.394 l -0.395,0.812 c -2.352,-0.092 -5.041,0.102 -7.155,1.075 -0.506,0.516 -0.657,1.221 -0.457,1.938 0.812,2.469 3.527,3.722 5.77,4.293 0.553,0.13 1.02,-0.085 1.502,0.122 -1.111,3.211 -1.198,7.908 1.511,10.385 1.567,1.269 4.544,2.114 4.059,4.703 -0.199,0.007 -0.514,-0.432 -0.777,-0.097 -0.889,1.728 -1.524,3.548 -1.3,5.688 -0.406,-0.21 -0.657,-0.95 -1.103,-0.86 -0.999,1.409 -0.671,3.694 -0.313,5.354 -0.401,-0.036 -0.631,-0.877 -1.222,-0.631 -0.479,1.265 0.295,2.711 0.689,3.946 0.643,1.276 1.215,2.605 2.275,3.691 -0.47,0.117 -1.453,-0.198 -1.659,0.358 l 0.005,0.174 c 1.269,1.279 2.786,1.826 4.28,2.423 0.199,0.667 -0.659,0.422 -0.866,0.93 -0.204,-0.119 -0.45,-0.01 -0.594,0.194 l 0.078,0.073 c -1.088,1.012 -2.58,1.913 -3.077,3.404 -0.782,-0.248 -2.491,-2.011 -2.691,-2.003 -1.095,1.722 -1.181,5.558 -1.181,5.558 -0.761,-0.347 -1.582,-1.017 -2.275,-1.543 -0.8,0.677 0.431,5.928 1.328,7.271 -0.826,-0.047 -1.51,-1.047 -2.426,-0.815 -0.276,0.659 2.323,5.037 3.696,6.463 -0.592,0.195 -1.259,-0.331 -1.845,0.065 0,0 2.93,3.662 6.284,4.75 -1.087,0.338 -4.328,1.778 -2.141,5.942 1.095,1.285 2.585,2.507 4.384,1.819 1.154,-0.539 2.067,-1.594 2.299,-2.827 2.481,3.135 6.054,6.756 10.307,5.559 C -4.091,4.438 -1.765,2.384 0,0"
         inkscape:connector-curvature="0" />
    </g>
    <g
       transform="matrix(0.79703677,0,0,-0.79703677,27.822657,2.3557993)"
       id="g8113">
      <path
         id="path8115"
         style="fill:#ecc051;fill-opacity:1;fill-rule:nonzero;stroke:none"
         d="m 0,0 -2.442,0.135 c 0.686,-1.073 1.935,-1.092 2.941,-1.602 0.393,-0.188 0.976,0.067 1.419,-0.099 1.09,-0.988 3.009,-3.226 3.009,-3.226 0.823,1.42 2.287,3.266 4.132,3.201 1.453,0.15 2.653,-0.542 3.723,-1.379 0.859,-1.128 1.432,-2.596 0.934,-3.977 -0.57,-1.279 -1.741,-1.962 -2.956,-2.419 0,0 3.015,-2.303 4.251,-3.445 0.277,-0.633 0.648,-1.42 0.302,-2.057 -0.844,0.153 -2.402,0.607 -2.333,0.456 0.936,-1.857 1.9,-3.537 2.506,-5.483 l -0.129,-0.12 c -0.762,0.327 -2.28,1.204 -2.28,1.204 0.425,-1.413 0.556,-4.813 0.476,-4.986 l -2.617,2.314 c -0.51,-0.331 -0.544,-3.427 -0.803,-4.416 l -1.559,1.851 c -0.703,-0.125 -1.638,-3.313 -2.068,-4.172 -0.252,0.657 -0.184,1.204 -0.586,1.819 -3.864,-5.547 -6.732,-6.133 -6.769,-6.482 0.604,-0.596 4.714,1.958 5.875,3.041 0.06,-0.426 -0.276,-1.487 0.412,-1.762 l 0.785,0.273 c -1.313,-1.853 -3.321,-2.83 -5.229,-3.838 -0.983,1.157 -2.443,2.232 -3.92,2.834 -0.5,0.717 0.422,0.658 0.713,1.122 0.936,1.067 1.969,3.479 1.969,3.479 -0.688,-1.076 -1.596,-2.092 -2.453,-3.037 -0.39,-0.435 -1.335,-0.328 -0.991,-1.164 0.019,-0.2 0.211,-0.38 0.032,-0.549 -0.695,-0.55 -1.24,0.966 -1.601,-0.07 0.144,-0.179 0.06,-0.452 0.153,-0.654 -0.726,-0.024 -1.243,0.918 -1.908,0.49 l 0.095,-0.901 c -0.59,0.245 -1.129,0.563 -1.721,0.784 -0.282,-0.24 -0.221,-0.642 -0.333,-0.963 -0.689,0.275 -0.805,1.253 -1.444,1.55 -0.411,-0.36 -0.234,-0.991 -0.474,-1.407 -0.239,0.283 -0.427,0.638 -0.741,0.925 l -0.744,-0.574 c -0.272,0.833 0.235,1.74 -0.314,2.457 l -1.17,-0.607 c 0.417,1.933 1.498,3.567 2.703,5.175 4.646,-2.809 7.972,-1.229 10.434,0.659 1.864,1.857 3.246,4.28 2.777,7.268 -0.367,0.938 -0.478,2.04 -1.531,2.676 0.547,1.153 2.349,0.717 2.377,0.817 -0.652,0.621 -1.665,0.257 -2.348,-0.018 -0.613,-0.379 -1.457,-0.975 -1.485,-1.746 0.097,-0.154 0.218,-0.233 0.418,-0.216 l 0.548,0.655 c 1.479,-1.25 1.483,-3.272 1.146,-5.084 -0.719,-2.697 -3.324,-5.052 -6.016,-5.658 -6.692,-0.805 -6.762,3.758 -7.031,4.616 3.233,0.312 5.86,2.618 8.038,4.939 0.191,1.891 0.547,3.502 0.837,5.363 0.409,0.011 1.134,-0.512 2.194,-0.8 2.461,0.413 3.176,2.261 3.022,2.841 0.735,0.323 2.166,-0.15 2.131,0.999 -0.411,1.114 -1.661,0.358 -2.233,1.103 -0.615,0.995 -1.4,2.095 -2.748,2.118 -1.028,-0.114 -1.916,-0.509 -2.546,-1.409 -0.176,-0.743 -0.694,-1.275 -1.451,-1.498 -0.468,0.167 -1.097,2.184 -3.669,0.778 -0.196,0.806 -1.04,1.634 -1.858,1.813 -1.044,0.161 -1.743,-0.54 -2.269,-1.294 0.01,-1.175 -1.747,-0.015 -1.722,-1.389 0.325,-0.735 1.182,-0.516 1.459,-1.124 0.878,-1.33 -1.135,-1.784 -1.669,-2.765 0.127,0.795 0.602,1.502 0.628,2.251 -0.291,0.261 -0.562,0.345 -0.893,0.155 -2.091,-1.224 -2.421,-3.56 -2.125,-5.792 -0.321,-0.589 -0.251,-1.465 0.052,-2.05 -0.835,-1.07 -0.889,-2.617 -0.737,-3.969 1.11,-4.201 5.293,-4.33 5.293,-4.33 -1.025,-1.462 -1.806,-3.033 -2.362,-4.712 -1.059,1.136 -2.361,4.627 -2.361,4.627 -0.859,-0.32 -1.637,-1.116 -2.561,-1.109 -0.372,1.486 1.054,5.856 1.054,5.856 -0.191,0.28 -2.97,-1.395 -4.162,-1.902 0.136,2.466 3.796,6.485 3.435,6.821 -1.128,-0.136 -2.19,-0.497 -3.272,-0.709 1.098,2.134 3.109,3.887 4.811,5.449 l -2.161,0.325 c 1.292,1.254 5.209,3.29 4.629,3.86 -0.904,-0.144 -2.005,-0.205 -2.782,0.447 -0.796,0.776 -2.223,4.033 1.403,5.818 1.26,0.33 2.467,-0.135 3.308,-1.064 0.405,-0.564 0.672,-2.222 0.874,-2.178 1.254,1.579 3.46,0.429 5.085,1.195 1.6,0.75 0.971,2.065 0.971,2.065 -1.414,-1.15 -3.736,-0.469 -5.024,-1.573 0.686,1.099 1.981,1.704 3.353,1.631 0.656,0.176 1.861,0.335 1.969,1.304 0.058,0.224 -0.061,0.402 -0.231,0.558 C -6.711,0.158 -7.173,-0.199 -7.796,-0.152 -5.64,1.52 -2.103,1.995 0,0"
         inkscape:connector-curvature="0" />
    </g>
    <g
       transform="matrix(0.79703677,0,0,-0.79703677,13.619207,6.6725513)"
       id="g8117">
      <path
         id="path8119"
         style="fill:#db923a;fill-opacity:1;fill-rule:nonzero;stroke:none"
         d="M 0,0 C 0.044,1.261 1.119,2.246 2.403,2.2 3.687,2.155 4.691,1.098 4.647,-0.162 4.603,-1.423 3.527,-2.408 2.243,-2.363 0.96,-2.318 -0.044,-1.261 0,0"
         inkscape:connector-curvature="0" />
    </g>
    <g
       transform="matrix(0.79703677,0,0,-0.79703677,27.822657,2.3557993)"
       id="g8121">
      <path
         id="path8123"
         style="fill:#db923a;fill-opacity:1;fill-rule:nonzero;stroke:none"
         d="m 0,0 -2.442,0.135 c 0.686,-1.073 1.935,-1.092 2.941,-1.602 0.393,-0.188 0.976,0.067 1.419,-0.099 1.09,-0.988 3.538,-4.715 3.538,-4.715 0.579,2.399 7.304,6.651 8.26,-0.666 -0.57,-1.279 -1.741,-1.962 -2.956,-2.419 0,0 3.015,-2.303 4.251,-3.445 0.277,-0.633 0.648,-1.42 0.302,-2.057 -0.844,0.153 -2.402,0.607 -2.333,0.456 0.936,-1.857 1.9,-3.537 2.506,-5.483 l -0.129,-0.12 c -0.762,0.327 -2.28,1.204 -2.28,1.204 0.425,-1.413 0.556,-4.813 0.476,-4.986 l -2.617,2.314 c -0.51,-0.331 -0.544,-3.427 -0.803,-4.416 l -1.559,1.851 c -0.703,-0.125 -1.638,-3.313 -2.068,-4.172 -0.252,0.657 -0.184,1.204 -0.586,1.819 -3.864,-5.547 -6.732,-6.133 -6.769,-6.482 0.604,-0.596 4.714,1.958 5.875,3.041 0.06,-0.426 -0.276,-1.487 0.412,-1.762 l 0.785,0.273 c -1.313,-1.853 -3.321,-2.83 -5.229,-3.838 -0.983,1.157 -2.443,2.232 -3.92,2.834 -0.5,0.717 0.422,0.658 0.713,1.122 0.936,1.067 1.969,3.479 1.969,3.479 -0.688,-1.076 -1.596,-2.092 -2.453,-3.037 -0.39,-0.435 -1.335,-0.328 -0.991,-1.164 0.019,-0.2 0.211,-0.38 0.032,-0.549 -0.695,-0.55 -1.24,0.966 -1.601,-0.07 0.144,-0.179 0.06,-0.452 0.153,-0.654 -0.691,-0.023 -1.193,0.832 -1.814,0.542 1.76,3.452 -0.902,4.021 -2.232,4.333 -1.097,0.257 -2.176,0.701 -2.785,0.975 0.249,0.363 0.512,0.721 0.78,1.079 4.646,-2.809 7.972,-1.229 10.434,0.659 1.864,1.857 3.246,4.28 2.777,7.268 -0.367,0.938 -0.478,2.04 -1.531,2.676 0.547,1.153 2.349,0.717 2.377,0.817 -0.652,0.621 -1.665,0.257 -2.348,-0.018 -0.613,-0.379 -1.457,-0.975 -1.485,-1.746 0.097,-0.154 0.218,-0.233 0.418,-0.216 l 0.548,0.655 c 1.479,-1.25 1.483,-3.272 1.146,-5.084 -0.719,-2.697 -3.324,-5.052 -6.016,-5.658 -6.692,-0.805 -6.762,3.758 -7.031,4.616 1.068,-2.436 2.759,-3.279 3.736,-3.473 1.008,-0.2 4.556,-0.407 4.637,1.927 0.061,1.765 -1.784,3.492 -2.687,4.227 0.839,0.7 1.62,1.479 2.352,2.258 0.191,1.891 0.547,3.502 0.837,5.363 0.409,0.011 1.134,-0.512 2.194,-0.8 2.461,0.413 3.176,2.261 3.022,2.841 0.735,0.323 2.166,-0.15 2.131,0.999 -0.411,1.114 -1.661,0.358 -2.233,1.103 -0.615,0.995 -1.4,2.095 -2.748,2.118 -1.028,-0.114 -1.916,-0.509 -2.546,-1.409 -0.176,-0.743 -0.694,-1.275 -1.451,-1.498 -0.272,0.096 -0.597,0.814 -1.322,1.128 0.643,0.887 1.332,2.216 1.675,4.087 0.366,1.993 -0.506,3.427 -1.486,4.371 C -3.797,1.595 -1.522,1.444 0,0 m -6.999,-32.821 0.082,-0.798 c -0.147,0.06 -0.29,0.127 -0.433,0.193 0.131,0.21 0.247,0.411 0.351,0.605"
         inkscape:connector-curvature="0" />
    </g>
    <g
       transform="matrix(0.79703677,0,0,-0.79703677,36.049926,6.1269003)"
       id="g8125">
      <path
         id="path8127"
         style="fill:#000000;fill-opacity:1;fill-rule:nonzero;stroke:none"
         d="M 0,0 C 0.631,-0.546 0.728,-1.349 0.525,-2.115 0.23,-2.729 -0.114,-3.316 -0.773,-3.569 -2.345,-4.237 -2.634,-1.78 -3.94,-1.31 c 0,0 -0.013,1.049 0.423,1.433 C -2.568,0.814 -0.952,0.583 0,0"
         inkscape:connector-curvature="0" />
    </g>
    <g
       transform="matrix(0.79703677,0,0,-0.79703677,36.321556,6.9130203)"
       id="g8129">
      <path
         id="path8131"
         style="fill:#edccb8;fill-opacity:1;fill-rule:nonzero;stroke:none"
         d="m 0,0 c 0.18,-0.555 -0.171,-1.316 -0.359,-1.71 -0.359,-0.262 -0.827,-0.769 -1.421,-0.625 -0.957,0.458 -1.313,1.744 -2.313,2.43 0.023,0.647 0.681,0.875 1.14,1.157 C -1.798,1.412 -0.483,1.191 0,0"
         inkscape:connector-curvature="0" />
    </g>
    <g
       transform="matrix(0.79703677,0,0,-0.79703677,16.575449,5.8443533)"
       id="g8133">
      <path
         id="path8135"
         style="fill:#000000;fill-opacity:1;fill-rule:nonzero;stroke:none"
         d="m 0,0 c 0.313,-0.336 0.474,-0.74 0.559,-1.144 -0.763,-0.422 -1.016,-2.662 -2.199,-1.496 -0.577,0.645 -1.1,1.411 -0.721,2.247 0.215,0.417 0.673,0.675 1.125,0.736 C -0.835,0.403 -0.392,0.214 0,0"
         inkscape:connector-curvature="0" />
    </g>
    <g
       transform="matrix(0.79703677,0,0,-0.79703677,16.75137,6.5075643)"
       id="g8137">
      <path
         id="path8139"
         style="fill:#edccb8;fill-opacity:1;fill-rule:nonzero;stroke:none"
         d="m 0,0 c -0.272,-0.665 -0.718,-1.248 -1.162,-1.832 -0.597,0.096 -0.923,0.78 -1.205,1.239 -0.01,0.477 -0.109,1.179 0.521,1.382 0.331,0.162 0.88,0.144 1.199,-0.043 C -0.328,0.586 -0.14,0.279 0,0"
         inkscape:connector-curvature="0" />
    </g>
    <g
       transform="matrix(0.79703677,0,0,-0.79703677,20.808926,8.8589053)"
       id="g8141">
      <path
         id="path8143"
         style="fill:#ffffff;fill-opacity:1;fill-rule:nonzero;stroke:none"
         d="M 0,0 -2.685,-1.804 C -2.982,-1.02 -2.927,1.402 -1.323,1.444 -0.348,1.229 0.161,0.319 0,0"
         inkscape:connector-curvature="0" />
    </g>
    <g
       transform="matrix(0.79703677,0,0,-0.79703677,23.968252,10.162698)"
       id="g8145">
      <path
         id="path8147"
         style="fill:#ecc051;fill-opacity:1;fill-rule:nonzero;stroke:none"
         d="m 0,0 c 0.466,-2.389 1.024,-4.955 0.589,-7.437 -0.693,1.656 -6.904,-2.118 -8.44,-1.378 -1.352,0.545 -2.289,1.627 -3.466,2.218 C -9.72,-2.198 -0.563,5.403 0,0"
         inkscape:connector-curvature="0" />
    </g>
    <g
       transform="matrix(0.79703677,0,0,-0.79703677,36.438307,11.553603)"
       id="g8149">
      <path
         id="path8151"
         style="fill:#000000;fill-opacity:1;fill-rule:nonzero;stroke:none"
         d="m 0,0 c 1.438,-5.294 -1.049,-9.978 -4.49,-13.428 -0.163,-0.392 -4.904,-3.874 -5.228,-3.838 0.071,0.573 6.491,5.308 7.258,11.908 0.281,2.337 0.831,4.491 0.289,6.833 0.02,0.573 0.61,0.327 0.905,0.193 C -0.809,1.177 -0.252,0.658 0,0"
         inkscape:connector-curvature="0" />
    </g>
    <g
       transform="matrix(0.79703677,0,0,-0.79703677,33.465742,15.748969)"
       id="g8153">
      <path
         id="path8155"
         style="fill:#000000;fill-opacity:1;fill-rule:nonzero;stroke:none"
         d="m 0,0 c -1.387,-3.961 -3.72,-5.664 -3.794,-5.661 0.62,1.327 1.414,2.598 1.593,4.14 0.277,2.212 0.638,4.698 -0.012,6.817 l 1.624,1.442 C 1.148,5.029 0.595,2.027 0,0"
         inkscape:connector-curvature="0" />
    </g>
    <g
       transform="matrix(0.79703677,0,0,-0.79703677,27.300439,12.189562)"
       id="g8157">
      <path
         id="path8159"
         style="fill:#ffffff;fill-opacity:1;fill-rule:nonzero;stroke:none"
         d="M 0,0 0.225,-0.009 0,0 z"
         inkscape:connector-curvature="0" />
    </g>
    <g
       transform="matrix(0.79703677,0,0,-0.79703677,16.896877,17.160917)"
       id="g8161">
      <path
         id="path8163"
         style="fill:#e0a5a0;fill-opacity:1;fill-rule:nonzero;stroke:none"
         d="M 0,0 C 1.995,-1.519 4.662,0.332 6.017,0.688 9.479,2.064 8.669,0.821 8.669,0.821 6.926,-1.19 4.646,-2.809 2.041,-3.067 0.451,-2.836 -0.861,-1.792 -1.864,-0.484 -2.141,0.225 -2.713,0.969 -2.46,1.76 -1.552,1.328 -0.833,0.455 0,0"
         inkscape:connector-curvature="0" />
    </g>
    <g
       transform="matrix(0.79703677,0,0,-0.79703677,18.125143,20.169253)"
       id="g8165">
      <path
         id="path8167"
         style="fill:#ffffff;fill-opacity:1;fill-rule:nonzero;stroke:none"
         d="m 0,0 c -0.193,-1.242 0.316,-2.383 1.032,-3.332 0,0 -4.326,-0.425 -5.571,3.491 -0.187,1.08 -0.293,2.332 0.242,3.337 C -3.356,1.84 -1.675,0.658 0,0"
         inkscape:connector-curvature="0" />
    </g>
    <g
       transform="matrix(0.79703677,0,0,-0.79703677,29.88067,24.360709)"
       id="g8169">
      <path
         id="path8171"
         style="fill:#ffffff;fill-opacity:1;fill-rule:nonzero;stroke:none"
         d="M 0,0 0.133,0.245 0.053,0.073 0,0 z"
         inkscape:connector-curvature="0" />
    </g>
    <g
       transform="matrix(0.79703677,0,0,-0.79703677,17.338181,27.883535)"
       id="g8173">
      <path
         id="path8175"
         style="fill:#ffffff;fill-opacity:1;fill-rule:nonzero;stroke:none"
         d="m 0,0 -0.175,0.006 c 0.003,0.075 0.082,0.172 0.181,0.168 L 0,0 z"
         inkscape:connector-curvature="0" />
    </g>
    <g
       transform="matrix(0.79703677,0,0,-0.79703677,28.169847,30.610115)"
       id="g8177">
      <path
         id="path8179"
         style="fill:#ffffff;fill-opacity:1;fill-rule:nonzero;stroke:none"
         d="m 0,0 c -3.445,-2.152 -7.769,-5.415 -8.074,-10.256 1.885,4.455 6.66,6.261 9.992,7.991 0.413,-0.313 0.571,-0.818 0.729,-1.298 -0.771,0.077 -1.507,0.427 -2.26,0.329 -0.259,-0.242 0.952,-2.032 1.102,-2.736 -3.48,-1.677 -8.134,-4.111 -8.633,-8.388 1.904,2.33 4.542,4.935 7.638,5.651 0.195,-1.58 0.17,-3.752 -0.258,-5.26 -0.645,0.098 -0.868,0.879 -1.327,1.32 -0.422,-0.634 -0.302,-1.512 -0.429,-2.283 0.048,-1.449 -1.619,-1.291 -2.371,-2.114 -0.512,-0.382 -0.877,-0.769 -1.169,-1.282 0.047,-0.102 1.65,0.765 2.433,1.038 -0.481,-0.932 -1.905,-2.741 -2.682,-3.538 l -0.165,1.366 c -0.747,-0.624 -0.828,-1.545 -1.206,-2.356 -0.075,0.002 -1.116,0.939 -1.116,0.939 -0.284,-0.267 0.03,-0.576 -0.082,-0.897 -2.252,1.277 -4.474,3.426 -5.312,5.878 -0.189,0.332 -1.71,-1.063 -1.71,-1.063 -0.507,1.216 -1.091,2.386 -0.94,3.853 2.216,-0.901 4.719,-2.163 6.194,-4.287 0.264,0.466 0.084,1.022 0.001,1.498 -1.615,3.079 -4.811,5.238 -7.811,6.566 -0.152,0.63 0.482,2.354 0.439,2.557 -0.225,0.707 -1.562,-0.371 -1.562,-0.371 0.013,1.024 0.497,2.057 0.881,3.041 1.664,-1.707 6.943,-3.299 7.659,-5.91 0.284,0.239 -0.126,2.127 -0.336,2.533 -1.259,2.541 -4.242,3.644 -5.431,6.058 -0.209,0.457 0.398,0.686 0.461,1.058 -0.307,0.46 -0.782,0.477 -1.306,0.469 0.971,0.666 1.989,1.23 3.053,1.643 0.29,-0.261 0.683,-0.424 1.064,-0.288 l 0.309,0.289 c 0.514,-0.292 0.607,-1.219 1.367,-0.946 0.185,0.318 0.247,0.639 0.336,1.062 0.284,-0.459 0.719,-0.85 1.267,-0.869 0.347,-0.062 0.608,0.204 0.521,0.582 l 0.007,0.224 c 0.594,-0.146 1.075,-0.687 1.703,-0.584 0.232,0.217 0.34,0.462 0.326,0.762 0.597,-0.045 1.245,-0.816 1.794,-0.112 -0.169,0.88 1.007,0.215 1.349,0.727 C -2.226,2.05 -1.006,1.233 0,0"
         inkscape:connector-curvature="0" />
    </g>
    <g
       transform="matrix(0.79703677,0,0,-0.79703677,31.983062,33.68931)"
       id="g8181">
      <path
         id="path8183"
         style="fill:#db923a;fill-opacity:1;fill-rule:nonzero;stroke:none"
         d="m 0,0 c -0.822,-0.67 -1.671,-1.365 -2.681,-1.704 l -0.671,1.521 c 0.566,-0.219 1.118,-0.163 1.71,-0.358 0.745,0.573 -0.615,2.418 -0.615,2.418 1.382,0.951 2.688,1.879 3.762,3.339 C 0.949,3.588 1.961,1.105 0,0"
         inkscape:connector-curvature="0" />
    </g>
    <g
       transform="matrix(0.79703677,0,0,-0.79703677,49.41432,36.646234)"
       id="g8185">
      <path
         id="path8187"
         style="fill:#dce8eb;fill-opacity:1;fill-rule:nonzero;stroke:none"
         d="m 0,0 c 0.177,-2.054 -1.847,-3.556 -1.047,-5.657 0.117,-0.203 -0.139,0.33 -0.208,0.482 -1.016,0.934 -2.655,1.191 -3.94,0.862 -0.962,-0.366 -1.997,-0.705 -2.752,-1.577 -0.58,1.968 -0.774,4.297 0.927,5.836 1.402,1.499 3.322,2.131 5.231,1.739 C -1.107,1.212 -0.294,0.884 0,0"
         inkscape:connector-curvature="0" />
    </g>
    <g
       transform="matrix(0.79703677,0,0,-0.79703677,32.678844,39.982311)"
       id="g8189">
      <path
         id="path8191"
         style="fill:#db923a;fill-opacity:1;fill-rule:nonzero;stroke:none"
         d="m 0,0 c -0.684,-1.725 -2.488,-2.585 -4.08,-3.153 -0.98,-0.166 -1.848,-0.71 -2.9,-0.798 0.295,0.589 0.286,1.038 0.482,1.655 0.521,-0.117 0.763,-1.05 1.347,-0.745 0.812,1.794 0.462,3.903 0.585,6.021 0.312,-0.36 0.756,-0.55 0.962,-1.056 0.765,0.423 -0.004,2.022 1.265,1.878 0.605,0.178 2.338,1.167 2.338,1.167 L 0,0 z"
         inkscape:connector-curvature="0" />
    </g>
    <g
       transform="matrix(0.79703677,0,0,-0.79703677,29.751486,37.771013)"
       id="g8193">
      <path
         id="path8195"
         style="fill:#dce8eb;fill-opacity:1;fill-rule:nonzero;stroke:none"
         d="m 0,0 c -0.276,-0.015 -0.215,0.283 -0.413,0.364 -0.021,0.152 0.208,0.218 0.355,0.162 L 0,0 z"
         inkscape:connector-curvature="0" />
    </g>
    <g
       transform="matrix(0.79703677,0,0,-0.79703677,49.652475,42.34696)"
       id="g8197">
      <path
         id="path8199"
         style="fill:#db923a;fill-opacity:1;fill-rule:nonzero;stroke:none"
         d="M 0,0 C 0.902,-0.63 1.938,-1.016 2.813,-1.696 2.13,-1.946 1.512,-2.475 1.189,-3.138 l -0.077,-0.797 -5.495,2.117 c -0.129,0.602 0.262,1.089 0.48,1.605 0.801,0.772 1.717,1.264 2.796,1.352 L 0,0 z"
         inkscape:connector-curvature="0" />
    </g>
    <g
       transform="matrix(0.79703677,0,0,-0.79703677,34.97737,42.550842)"
       id="g8201">
      <path
         id="path8203"
         style="fill:#db923a;fill-opacity:1;fill-rule:nonzero;stroke:none"
         d="m 0,0 c -0.749,-1.422 -2.327,-2.989 -3.857,-3.936 -1.49,-1.146 -3.252,-1.584 -4.832,-2.528 0.147,-0.754 6.019,0.09 7.953,1.096 2.054,0.929 3.98,2.458 5.115,4.217 0.849,-0.055 1.6,-0.656 2.253,-1.278 -1.402,-3.672 -5.087,-6.24 -8.373,-8.096 -1.35,-0.752 -2.654,-0.933 -3.958,-1.786 -0.186,-0.318 5.11,-0.279 7.433,0.465 2.506,0.986 5.055,2.47 6.925,4.552 0.278,-2.831 0.007,-5.544 -0.808,-8.186 -1.674,0.032 -3.029,-0.895 -4.427,-1.595 -1.466,-1.196 -3.064,-2.639 -3.157,-4.609 -1.007,-0.214 -2.171,0.026 -3.2,-0.087 -0.655,1.271 -1.792,2.31 -3.075,2.753 -1.463,0.301 -2.857,0.4 -4.408,0.33 0.346,4.881 0.246,10.628 0.593,15.56 -0.206,1.206 0.81,1.022 1.589,1.144 2.164,0.473 4.503,0.941 5.914,2.74 C -1.746,0.062 -0.846,0.105 0,0"
         inkscape:connector-curvature="0" />
    </g>
    <g
       transform="matrix(0.79703677,0,0,-0.79703677,55.922922,45.749911)"
       id="g8205">
      <path
         id="path8207"
         style="fill:#db923a;fill-opacity:1;fill-rule:nonzero;stroke:none"
         d="m 0,0 c -0.913,-0.394 -1.92,-1.356 -1.934,-2.454 l -2.291,1.628 C -4.163,0.221 -3.661,0.977 -2.771,1.47 -1.784,1.111 -0.879,0.58 0,0"
         inkscape:connector-curvature="0" />
    </g>
    <g
       transform="matrix(0.79703677,0,0,-0.79703677,18.556372,46.037878)"
       id="g8209">
      <path
         id="path8211"
         style="fill:#db923a;fill-opacity:1;fill-rule:nonzero;stroke:none"
         d="m 0,0 c 0.25,-4.977 -0.455,-10.87 -0.116,-15.453 -2.399,-0.739 -5.704,-0.299 -7.123,-3.047 -0.121,-0.595 -0.27,-1.288 -0.657,-1.648 -0.395,0.137 -1.459,-0.301 -1.482,0.475 0.027,0.798 0.475,1.456 0.798,2.119 -0.067,0.202 -1.648,-0.548 -1.338,-2.575 -1.223,0.043 -2.389,0.258 -3.449,0.646 -0.212,1.08 0.639,1.875 0.996,2.785 -0.648,0.023 -1.673,-2.162 -1.716,-2.687 -0.565,0.272 -0.668,0.899 -0.499,1.443 1.193,2.728 4.234,3.997 7.027,3.898 1.811,-0.363 5.107,-1.801 5.107,-1.801 -1.199,1.415 -2.929,1.925 -4.666,2.26 l -0.286,0.36 c -0.164,1.055 -0.504,2.04 -0.492,3.138 1.73,-0.584 3.708,-0.428 5.441,-0.115 0.28,0.165 0.759,0.273 0.822,0.621 -0.462,0.416 -1.191,0.241 -1.731,0.485 -1.561,0.379 -3.054,1.255 -4.42,2.177 0.136,1.02 0.516,1.93 1.119,2.732 1.917,-0.916 4.053,-1.24 6.251,-1.192 l 0.009,0.25 c -1.429,0.525 -2.723,1.394 -3.624,2.774 0.364,0.386 0.925,0.741 1.366,1.201 0.881,0.918 1.232,2.403 0.775,3.618 l 0.263,0.365 C -1.159,1.864 -0.668,0.898 0,0"
         inkscape:connector-curvature="0" />
    </g>
    <g
       transform="matrix(0.79703677,0,0,-0.79703677,26.467568,48.02505)"
       id="g8213">
      <path
         id="path8215"
         style="fill:#ecc051;fill-opacity:1;fill-rule:nonzero;stroke:none"
         d="M 0,0 C -1.181,-0.907 -2.737,-1.129 -4.087,-0.457 -4.122,-0.056 -3.81,0.332 -3.498,0.672 -2.904,0.5 -0.6,3.566 0.165,4.738 L 0.415,4.73 0,0 z"
         inkscape:connector-curvature="0" />
    </g>
    <g
       transform="matrix(0.79703677,0,0,-0.79703677,58.825412,48.677345)"
       id="g8217">
      <path
         id="path8219"
         style="fill:#db923a;fill-opacity:1;fill-rule:nonzero;stroke:none"
         d="m 0,0 c 0.396,-0.838 0.408,-1.888 0.325,-2.833 -0.495,0.092 -0.998,0.733 -1.644,0.782 -0.477,-0.033 -1.267,0.219 -1.563,-0.37 0.122,-0.829 1.037,-1.06 1.31,-1.845 0.199,-0.706 0.823,-1.451 0.051,-2.099 l -1.495,-1.322 c -1.161,1.04 -1.578,2.704 -1.097,4.285 0.507,0.956 0.301,2.236 -0.189,3.203 0.329,0.837 1.388,1.125 2.14,1.222 C -1.409,1.124 -0.034,1.175 0,0"
         inkscape:connector-curvature="0" />
    </g>
    <g
       transform="matrix(0.79703677,0,0,-0.79703677,22.017679,48.347288)"
       id="g8221">
      <path
         id="path8223"
         style="fill:#ecc051;fill-opacity:1;fill-rule:nonzero;stroke:none"
         d="M 0,0 C 0.226,0.042 0.087,0.347 0.14,0.42 L 0.144,0.544 C 0.418,0.535 0.382,0.235 0.603,0.104 0.831,-0.504 0.61,-1.12 0.587,-1.769 -0.665,-2.574 -1.83,-1.635 -3.044,-1.341 -4.115,-0.557 -3.09,0.906 -3.527,1.971 -2.406,1.183 -1.236,0.368 0,0"
         inkscape:connector-curvature="0" />
    </g>
    <g
       transform="matrix(0.79703677,0,0,-0.79703677,25.975637,51.252092)"
       id="g8225">
      <path
         id="path8227"
         style="fill:#ecc051;fill-opacity:1;fill-rule:nonzero;stroke:none"
         d="m 0,0 c -0.72,-0.599 -2.879,0.476 -2.388,-1.189 0.778,-0.603 1.784,-1.138 2.86,-1.049 L 0.431,-3.387 c -1.273,-0.729 -2.937,-0.447 -4.196,-0.027 -0.142,1.628 0.261,3.162 -0.036,4.67 0.302,0.064 0.364,-0.313 0.586,-0.369 1.013,-0.311 1.773,-0.037 2.693,-0.145 0.38,0.162 0.878,0.145 1.117,0.561 C 0.601,0.729 0.631,0.178 0,0"
         inkscape:connector-curvature="0" />
    </g>
    <g
       transform="matrix(0.79703677,0,0,-0.79703677,53.375338,53.124096)"
       id="g8229">
      <path
         id="path8231"
         style="fill:#db923a;fill-opacity:1;fill-rule:nonzero;stroke:none"
         d="m 0,0 c -0.319,-1.338 0.315,-2.459 0.648,-3.619 -2.118,-0.6 -4.579,-0.289 -6.773,-0.189 -0.503,0.618 -0.464,1.74 -0.163,2.479 0.434,0.26 1.029,0.164 1.506,0.247 0.102,-0.677 0.148,-1.503 0.728,-2.072 0.767,0.547 1.099,1.484 1.578,2.291 C -1.667,-0.567 -0.856,-0.245 0,0"
         inkscape:connector-curvature="0" />
    </g>
    <g
       transform="matrix(0.79703677,0,0,-0.79703677,22.500301,52.185345)"
       id="g8233">
      <path
         id="path8235"
         style="fill:#ecc051;fill-opacity:1;fill-rule:nonzero;stroke:none"
         d="m 0,0 0.021,-1.549 c -0.691,-0.475 -1.858,-0.285 -2.607,-0.284 -0.179,-0.118 1.529,-1.976 2.402,-2.007 0.028,-0.65 0.106,-1.277 0.055,-1.973 -1.271,-0.681 -3.135,-0.39 -4.177,0.519 -0.158,1.904 -0.101,3.5 0.069,5.492 C -2.903,-0.223 -1.384,-1.025 0,0"
         inkscape:connector-curvature="0" />
    </g>
    <g
       transform="matrix(0.79703677,0,0,-0.79703677,46.176374,54.107161)"
       id="g8237">
      <path
         id="path8239"
         style="fill:#db923a;fill-opacity:1;fill-rule:nonzero;stroke:none"
         d="M 0,0 C -0.197,-0.667 -0.448,-1.433 0.055,-2.049 -0.782,-1.695 -2.574,-2.231 -2.548,-0.76 -2.373,0.683 -0.885,-0.343 0,0"
         inkscape:connector-curvature="0" />
    </g>
    <g
       transform="matrix(0.79703677,0,0,-0.79703677,44.407909,56.871839)"
       id="g8241">
      <path
         id="path8243"
         style="fill:#db923a;fill-opacity:1;fill-rule:nonzero;stroke:none"
         d="M 0,0 C 0.86,-1.128 1.514,-2.424 1.236,-3.938 0.928,-4.202 0.551,-4.263 0.15,-4.324 c -0.201,1.405 -0.949,2.879 -2.153,3.445 0,0 1.508,-2.599 1.242,-3.763 -2.051,-1.527 -4.799,-1.581 -7.168,-0.774 -0.245,0.159 -0.611,0.396 -0.623,0.746 0.188,1.117 0.672,2.099 1.18,3.08 -1.189,-0.458 -1.464,-1.921 -1.778,-3.059 -0.454,-0.109 -1.357,-0.228 -1.791,0.187 -0.279,1.334 0.608,2.451 1.369,3.473 1.961,1.78 4.359,3.269 7.184,2.646 C -1.475,1.35 -0.646,0.773 0,0"
         inkscape:connector-curvature="0" />
    </g>
    <g
       transform="matrix(0.79703677,0,0,-0.79703677,26.13447,56.411872)"
       id="g8245">
      <path
         id="path8247"
         style="fill:#ecc051;fill-opacity:1;fill-rule:nonzero;stroke:none"
         d="m 0,0 c 0.392,-0.913 -2.213,-1.147 -2.453,-1.613 -0.199,-0.667 0.415,-0.963 0.909,-1.105 0.922,-0.082 1.855,0.184 2.599,0.758 1.629,0.168 2.914,-0.202 4.374,-0.578 0.902,-0.655 2.144,-1.548 2.226,-2.775 0.033,-0.474 0.162,-1.104 -0.177,-1.491 L 6.219,-7.11 c 0.046,2.769 -1.264,3.141 -1.264,3.141 0.001,-0.675 0.806,-1.227 0.653,-2.045 L 5.492,-7.209 C 4.831,-7.536 4.081,-7.56 3.331,-7.608 c -0.113,1.077 0.012,2.522 -1.09,3.134 0.151,-0.68 0.572,-1.492 0.444,-2.288 -0.086,-0.346 0.184,-1.18 -0.515,-1.18 -2.254,-0.196 -4.009,-0.384 -6.21,0.216 l 0.024,7.865 C -2.859,-0.351 -1.239,-0.433 0,0"
         inkscape:connector-curvature="0" />
    </g>
    <g
       transform="matrix(0.79703677,0,0,-0.79703677,22.371882,58.729012)"
       id="g8249">
      <path
         id="path8251"
         style="fill:#ecc051;fill-opacity:1;fill-rule:nonzero;stroke:none"
         d="m 0,0 0.001,-4.97 c -2.123,-0.724 -4.579,-0.988 -6.965,-0.655 -0.644,0.122 -0.47,0.866 -0.628,1.345 0.088,0.347 0.297,0.614 0.237,1.017 -0.42,0.139 -0.891,-1.893 -0.585,-2.453 -0.64,0.272 -1.957,-0.256 -2.171,0.8 0,0.699 -0.052,2.05 -0.176,2.104 -0.512,-0.332 -0.736,-1.762 -0.15,-2.867 -0.374,0.013 -0.841,0.205 -1.128,0.564 -0.164,1.055 0.106,2.344 0.836,3.218 1.824,1.459 4.13,1.028 6.185,1.931 l 0.109,0.295 C -3.085,-0.392 -1.426,-0.773 0,0"
         inkscape:connector-curvature="0" />
    </g>
    <g
       transform="matrix(0.79703677,0,0,-0.79703677,25.708661,9.7158733)"
       id="g8253">
      <path
         id="path8255"
         style="fill:#ffffff;fill-opacity:1;fill-rule:nonzero;stroke:none"
         d="M 0,0 C 0.049,1.375 1.059,2.455 2.257,2.413 3.455,2.371 4.386,1.223 4.339,-0.151 4.291,-1.526 3.281,-2.605 2.083,-2.564 0.884,-2.522 -0.048,-1.374 0,0"
         inkscape:connector-curvature="0" />
    </g>
    <g
       transform="matrix(0.79703677,0,0,-0.79703677,19.663934,19.379943)"
       id="g8257">
      <path
         id="path8259"
         style="fill:#edccb8;fill-opacity:1;fill-rule:nonzero;stroke:none"
         d="m 0,0 c -0.464,-0.138 -0.943,-0.234 -1.431,-0.283 -1.59,0.231 -2.902,1.275 -3.905,2.583 -0.276,0.709 -0.849,1.453 -0.596,2.244 0.608,-0.289 1.131,-0.776 1.661,-1.202 0.12,-0.258 0.253,-0.511 0.35,-0.761 1.003,-1.308 2.316,-2.353 3.904,-2.583 L 0,0 z"
         inkscape:connector-curvature="0" />
    </g>
    <g
       transform="matrix(0.79703677,0,0,-0.79703677,15.302804,16.98342)"
       id="g8261">
      <path
         id="path8263"
         style="fill:#ffffff;fill-opacity:1;fill-rule:nonzero;stroke:none"
         d="M 0,0 C 0.011,0.325 0.284,0.58 0.608,0.568 0.934,0.558 1.188,0.284 1.178,-0.041 1.166,-0.367 0.893,-0.621 0.567,-0.61 0.242,-0.599 -0.013,-0.326 0,0"
         inkscape:connector-curvature="0" />
    </g>
    <g
       transform="matrix(0.79703677,0,0,-0.79703677,16.805059,16.696965)"
       id="g8265">
      <path
         id="path8267"
         style="fill:#f5d75c;fill-opacity:1;fill-rule:nonzero;stroke:none"
         d="m 0,0 c -0.808,0.541 -1.511,1.189 -2.33,1.602 1.381,3.799 8.402,9.99 10.65,8.12 C 6.081,9.521 1.567,3.563 0,0"
         inkscape:connector-curvature="0" />
    </g>
    <g
       transform="matrix(0.79703677,0,0,-0.79703677,27.403927,24.954578)"
       id="g8269">
      <path
         id="path8271"
         style="fill:#ffffff;fill-opacity:1;fill-rule:nonzero;stroke:none"
         d="m 0,0 c 0.175,0.371 0.281,0.619 0.281,0.619 -0.687,-1.075 -1.595,-2.092 -2.453,-3.036 -0.39,-0.436 -1.335,-0.328 -0.99,-1.164 0.018,-0.2 0.211,-0.381 0.031,-0.55 -0.694,-0.55 -1.24,0.967 -1.6,-0.069 0.143,-0.18 0.059,-0.452 0.152,-0.654 -0.726,-0.025 -1.242,0.917 -1.907,0.49 l 0.094,-0.902 c -0.589,0.245 -1.129,0.564 -1.72,0.785 -0.283,-0.241 -0.222,-0.642 -0.333,-0.963 -0.69,0.274 -0.806,1.253 -1.445,1.549 -0.411,-0.36 -0.234,-0.991 -0.473,-1.407 -0.24,0.283 -0.428,0.639 -0.741,0.925 l -0.745,-0.573 c -0.271,0.833 0.236,1.739 -0.314,2.457 l -1.17,-0.608 c 0.417,1.933 1.498,3.568 2.703,5.175 4.647,-2.808 7.973,-1.228 10.435,0.659 C 1.533,4.456 2.85,6.667 2.655,9.364 2.981,8.012 2.986,6.148 1.933,3.83 1.174,2.165 0.528,0.922 0,0"
         inkscape:connector-curvature="0" />
    </g>
    <g
       transform="matrix(0.79703677,0,0,-0.79703677,28.387789,15.863341)"
       id="g8273">
      <path
         id="path8275"
         style="fill:#ffffff;fill-opacity:1;fill-rule:nonzero;stroke:none"
         d="m 0,0 c 0.795,-1.225 0.747,-2.843 0.472,-4.32 -0.719,-2.698 -3.324,-5.053 -6.016,-5.659 -6.692,-0.805 -6.762,3.758 -7.031,4.617 2.838,0.273 5.209,2.083 7.22,4.091 0.497,-0.678 1.303,-1.32 2.547,-1.199 C -0.983,-2.294 -0.259,-0.803 0,0"
         inkscape:connector-curvature="0" />
    </g>
    <g
       transform="matrix(0.79703677,0,0,-0.79703677,30.949337,9.0784093)"
       id="g8277">
      <path
         id="path8279"
         style="fill:#dce8eb;fill-opacity:1;fill-rule:nonzero;stroke:none"
         d="M 0,0 C -0.551,0.299 -1.368,0.008 -1.8,0.569 -2.415,1.564 -3.2,2.665 -4.548,2.688 -5.576,2.573 -6.464,2.179 -7.094,1.278 -7.27,0.535 -7.788,0.004 -8.545,-0.22 c -0.136,0.049 -0.286,0.253 -0.493,0.486 0.078,1.225 0.466,4.328 2.413,4.591 2.431,0.33 3.604,0.123 4.572,-0.572 0.967,-0.696 2.04,-3.153 2.04,-3.153 L 0,0 z"
         inkscape:connector-curvature="0" />
    </g>
    <g
       transform="matrix(0.79703677,0,0,-0.79703677,21.921142,8.3304703)"
       id="g8281">
      <path
         id="path8283"
         style="fill:#ffffff;fill-opacity:1;fill-rule:nonzero;stroke:none"
         d="m 0,0 c -0.267,-0.079 -0.561,-0.202 -0.887,-0.38 -0.196,0.806 -1.04,1.634 -1.858,1.813 -1.044,0.161 -1.742,-0.539 -2.269,-1.294 0.004,-0.499 -0.309,-0.577 -0.67,-0.607 -0.115,0.367 -0.22,0.795 -0.29,1.266 -0.135,0.919 0.311,1.664 0.891,2.225 0.077,-0.23 0.146,-0.381 0.208,-0.368 1.114,1.404 2.981,0.651 4.524,1.005 C -0.276,3.613 -0.201,3.563 -0.13,3.51 0.646,2.924 0.303,1.113 0,0"
         inkscape:connector-curvature="0" />
    </g>
    <g
       transform="matrix(0.79703677,0,0,-0.79703677,29.46653,4.8620853)"
       id="g8285">
      <path
         id="path8287"
         style="fill:#000000;fill-opacity:1;fill-rule:nonzero;stroke:none"
         d="M 0,0 C 0.536,-0.393 0.795,-0.851 0.898,-1.454 0.905,-1.979 1.104,-2.735 0.665,-3.12 -0.694,-1.324 -3.078,-0.916 -4.728,0.465 -5.037,0.9 -5.043,1.45 -5.327,1.884 -3.687,0.979 -1.612,0.98 0,0"
         inkscape:connector-curvature="0" />
    </g>
    <g
       transform="matrix(0.79703677,0,0,-0.79703677,30.434898,52.362842)"
       id="g8289">
      <path
         id="path8291"
         style="fill:#dce8eb;fill-opacity:1;fill-rule:nonzero;stroke:none"
         d="M 0,0 C -0.071,-0.124 0.681,-0.193 1.764,-0.189 4.75,-3.88 5.413,-6.84 4.252,-9.45 c -0.505,0.018 -1.01,0.042 -1.485,-0.011 -0.656,1.272 -1.792,2.311 -3.076,2.754 -1.462,0.301 -2.857,0.399 -4.408,0.329 0.346,4.882 0.246,10.629 0.593,15.561 -0.11,0.649 0.132,0.895 0.501,1.003 C -3.257,8.954 -2.797,7.605 -2.231,6.261 -2.487,6.133 -2.742,5.996 -2.99,5.847 -2.955,5.656 -2.546,5.566 -1.926,5.559 -1.117,3.76 -0.117,2.006 1.107,0.591 0.737,0.428 0.369,0.241 0,0"
         inkscape:connector-curvature="0" />
    </g>
    <g
       transform="matrix(0.79703677,0,0,-0.79703677,18.526721,51.175819)"
       id="g8293">
      <path
         id="path8295"
         style="fill:#dce8eb;fill-opacity:1;fill-rule:nonzero;stroke:none"
         d="m 0,0 c -0.117,-3.153 -0.279,-6.308 -0.079,-9.007 -0.653,-0.2 -1.375,-0.314 -2.107,-0.43 -0.271,1.101 -0.435,2.668 -0.033,4.575 0.107,0.505 0.241,0.973 0.397,1.414 0.114,0.08 0.201,0.178 0.226,0.313 l -0.083,0.067 C -1.22,-1.906 -0.614,-0.938 0,0"
         inkscape:connector-curvature="0" />
    </g>
    <g
       transform="matrix(0.79703677,0,0,-0.79703677,28.387789,15.863341)"
       id="g8297">
      <path
         id="path8299"
         style="fill:#dce8eb;fill-opacity:1;fill-rule:nonzero;stroke:none"
         d="m 0,0 c 0.795,-1.225 0.747,-2.843 0.472,-4.32 -0.719,-2.698 -3.324,-5.053 -6.016,-5.659 -6.692,-0.805 -6.762,3.758 -7.031,4.617 1.068,-2.437 2.759,-3.28 3.736,-3.474 1.008,-0.2 4.556,-0.407 4.637,1.927 0.061,1.765 -1.784,3.492 -2.687,4.227 0.534,0.446 1.045,0.923 1.534,1.411 0.497,-0.678 1.303,-1.32 2.547,-1.199 C -0.983,-2.294 -0.259,-0.803 0,0"
         inkscape:connector-curvature="0" />
    </g>
    <g
       transform="matrix(0.79703677,0,0,-0.79703677,27.403927,24.954578)"
       id="g8301">
      <path
         id="path8303"
         style="fill:#dce8eb;fill-opacity:1;fill-rule:nonzero;stroke:none"
         d="m 0,0 c 0.175,0.371 0.281,0.619 0.281,0.619 -0.687,-1.075 -1.595,-2.092 -2.453,-3.036 -0.39,-0.436 -1.335,-0.328 -0.99,-1.164 0.018,-0.2 0.211,-0.381 0.031,-0.55 -0.694,-0.55 -1.24,0.967 -1.6,-0.069 0.143,-0.18 0.059,-0.452 0.152,-0.654 -0.691,-0.024 -1.192,0.831 -1.814,0.541 1.76,3.453 -0.902,4.022 -2.232,4.334 -1.097,0.256 -2.176,0.701 -2.784,0.974 0.249,0.363 0.512,0.721 0.779,1.079 4.647,-2.808 7.973,-1.228 10.435,0.659 C 1.533,4.456 2.85,6.667 2.655,9.364 2.981,8.012 2.986,6.148 1.933,3.83 1.174,2.165 0.528,0.922 0,0 m -6.474,-4.468 0.082,-0.798 c -0.146,0.061 -0.29,0.127 -0.432,0.194 0.131,0.21 0.247,0.411 0.35,0.604"
         inkscape:connector-curvature="0" />
    </g>
    <g
       transform="matrix(0.79703677,0,0,-0.79703677,18.125143,20.169253)"
       id="g8305">
      <path
         id="path8307"
         style="fill:#dce8eb;fill-opacity:1;fill-rule:nonzero;stroke:none"
         d="m 0,0 c -0.193,-1.242 0.316,-2.383 1.032,-3.332 0,0 -4.01,-0.394 -5.42,3.07 1.531,-1.89 4.124,-1.954 4.124,-1.954 -0.47,0.815 -0.798,1.732 -0.744,2.678 C -0.675,0.287 -0.338,0.133 0,0"
         inkscape:connector-curvature="0" />
    </g>
    <g
       transform="matrix(0.79703677,0,0,-0.79703677,36.321556,6.9130203)"
       id="g8309">
      <path
         id="path8311"
         style="fill:#e7bbb0;fill-opacity:1;fill-rule:nonzero;stroke:none"
         d="M 0,0 C 0.18,-0.555 -0.171,-1.316 -0.359,-1.71 -0.718,-1.972 -1.186,-2.479 -1.78,-2.335 l -0.042,0.022 c 0.103,0.084 0.202,0.165 0.292,0.23 0.189,0.395 0.54,1.155 0.359,1.711 -0.4,0.986 -1.372,1.308 -2.35,1.298 0.188,0.118 0.393,0.219 0.568,0.326 C -1.798,1.412 -0.483,1.191 0,0"
         inkscape:connector-curvature="0" />
    </g>
    <g
       transform="matrix(0.79703677,0,0,-0.79703677,16.75137,6.5075643)"
       id="g8313">
      <path
         id="path8315"
         style="fill:#e7bbb0;fill-opacity:1;fill-rule:nonzero;stroke:none"
         d="m 0,0 c -0.272,-0.665 -0.718,-1.248 -1.162,-1.832 -0.25,0.04 -0.451,0.183 -0.623,0.369 0.24,0.347 0.457,0.705 0.614,1.091 -0.14,0.278 -0.329,0.585 -0.646,0.746 -0.115,0.066 -0.257,0.111 -0.411,0.135 0.082,0.123 0.203,0.221 0.382,0.28 0.331,0.162 0.88,0.144 1.199,-0.043 C -0.328,0.586 -0.14,0.279 0,0"
         inkscape:connector-curvature="0" />
    </g>
    <g
       transform="matrix(0.79703677,0,0,-0.79703677,20.808926,8.8589053)"
       id="g8317">
      <path
         id="path8319"
         style="fill:#dce8eb;fill-opacity:1;fill-rule:nonzero;stroke:none"
         d="m 0,0 -2.685,-1.804 c -0.071,0.189 -0.122,0.47 -0.136,0.79 l 1.574,1.059 c 0.125,0.247 -0.153,0.85 -0.739,1.209 0.182,0.115 0.404,0.184 0.663,0.19 C -0.348,1.229 0.161,0.319 0,0"
         inkscape:connector-curvature="0" />
    </g>
    <g
       transform="matrix(0.79703677,0,0,-0.79703677,27.007002,7.8579873)"
       id="g8321">
      <path
         id="path8323"
         style="fill:#dce8eb;fill-opacity:1;fill-rule:nonzero;stroke:none"
         d="M 0,0 C 0.201,0.061 0.411,0.09 0.628,0.082 1.826,0.04 2.757,-1.108 2.71,-2.482 2.662,-3.857 1.652,-4.937 0.454,-4.896 c -0.217,0.009 -0.425,0.053 -0.62,0.126 0.905,0.277 1.59,1.205 1.629,2.332 C 1.503,-1.313 0.884,-0.339 0,0"
         inkscape:connector-curvature="0" />
    </g>
    <g
       transform="matrix(0.79703677,0,0,-0.79703677,19.382229,8.7375133)"
       id="g8325">
      <path
         id="path8327"
         style="fill:#000000;fill-opacity:1;fill-rule:nonzero;stroke:none"
         d="M 0,0 C 0.017,0.485 0.424,0.865 0.907,0.849 1.393,0.831 1.773,0.425 1.756,-0.061 1.737,-0.546 1.332,-0.925 0.847,-0.907 0.361,-0.891 -0.018,-0.483 0,0"
         inkscape:connector-curvature="0" />
    </g>
    <g
       transform="matrix(0.79703677,0,0,-0.79703677,27.059925,9.2683403)"
       id="g8329">
      <path
         id="path8331"
         style="fill:#000000;fill-opacity:1;fill-rule:nonzero;stroke:none"
         d="M 0,0 C 0.026,0.759 0.664,1.352 1.422,1.325 2.181,1.3 2.774,0.662 2.748,-0.096 2.722,-0.854 2.085,-1.448 1.327,-1.422 0.567,-1.395 -0.026,-0.759 0,0"
         inkscape:connector-curvature="0" />
    </g>
    <g
       transform="matrix(0.79703677,0,0,-0.79703677,19.326883,8.4292963)"
       id="g8333">
      <path
         id="path8335"
         style="fill:#ffffff;fill-opacity:1;fill-rule:nonzero;stroke:none"
         d="M 0,0 C 0.007,0.228 0.199,0.405 0.426,0.397 0.655,0.391 0.833,0.198 0.825,-0.029 0.818,-0.257 0.626,-0.436 0.397,-0.428 0.17,-0.42 -0.008,-0.229 0,0"
         inkscape:connector-curvature="0" />
    </g>
    <g
       transform="matrix(0.79703677,0,0,-0.79703677,27.1432,8.7772063)"
       id="g8337">
      <path
         id="path8339"
         style="fill:#ffffff;fill-opacity:1;fill-rule:nonzero;stroke:none"
         d="M 0,0 C 0.014,0.371 0.324,0.661 0.695,0.648 1.066,0.635 1.356,0.324 1.345,-0.047 1.331,-0.418 1.02,-0.708 0.648,-0.694 0.277,-0.683 -0.013,-0.371 0,0"
         inkscape:connector-curvature="0" />
    </g>
    <g
       transform="matrix(0.79703677,0,0,-0.79703677,45.653263,40.00957)"
       id="g8341">
      <path
         id="path8343"
         style="fill:#ffffff;fill-opacity:1;fill-rule:evenodd;stroke:none"
         d="m 0,0 c -0.163,-0.022 -0.322,-0.055 -0.477,-0.093 -0.961,-0.366 -1.997,-0.705 -2.752,-1.577 -0.58,1.968 -0.773,4.297 0.928,5.836 0.663,0.71 1.445,1.226 2.285,1.529 C -0.48,3.924 -0.674,1.872 0,0"
         inkscape:connector-curvature="0" />
    </g>
    <g
       transform="matrix(0.79703677,0,0,-0.79703677,46.176374,54.107161)"
       id="g8345">
      <path
         id="path8347"
         style="fill:#ecc051;fill-opacity:1;fill-rule:evenodd;stroke:none"
         d="M 0,0 C -0.168,-0.565 -0.373,-1.202 -0.127,-1.758 -0.252,-1.805 -0.371,-1.859 -0.479,-1.927 -1.374,-1.824 -2.569,-1.965 -2.548,-0.76 -2.373,0.683 -0.885,-0.343 0,0"
         inkscape:connector-curvature="0" />
    </g>
    <g
       transform="matrix(0.79703677,0,0,-0.79703677,48.204737,55.404654)"
       id="g8349">
      <path
         id="path8351"
         style="fill:#ecc051;fill-opacity:1;fill-rule:evenodd;stroke:none"
         d="M 0,0 C -0.064,0.521 0.021,1.094 0.199,1.532 0.633,1.792 1.229,1.696 1.705,1.779 1.782,1.271 1.826,0.678 2.091,0.173 1.318,0.067 0.604,0.017 0,0"
         inkscape:connector-curvature="0" />
    </g>
    <g
       transform="matrix(0.79703677,0,0,-0.79703677,53.375338,53.124096)"
       id="g8353">
      <path
         id="path8355"
         style="fill:#ecc051;fill-opacity:1;fill-rule:evenodd;stroke:none"
         d="m 0,0 c -0.122,-0.512 -0.104,-0.992 -0.018,-1.454 -1.122,-0.524 -2.303,-0.86 -3.416,-1.075 0.375,0.506 0.633,1.116 0.958,1.666 C -1.667,-0.567 -0.856,-0.245 0,0"
         inkscape:connector-curvature="0" />
    </g>
    <g
       transform="matrix(0.79703677,0,0,-0.79703677,56.975266,50.305607)"
       id="g8357">
      <path
         id="path8359"
         style="fill:#ecc051;fill-opacity:1;fill-rule:evenodd;stroke:none"
         d="m 0,0 c -0.233,-0.036 -0.438,-0.137 -0.561,-0.378 0.038,-0.251 0.147,-0.448 0.29,-0.621 -0.161,-0.381 -0.39,-0.774 -0.694,-1.183 -0.297,-0.399 -0.626,-0.763 -0.979,-1.093 -0.09,0.621 -0.042,1.275 0.152,1.916 0.507,0.956 0.302,2.236 -0.188,3.203 0.176,0.45 0.563,0.74 0.999,0.927 C -0.242,1.879 0.11,0.971 0,0"
         inkscape:connector-curvature="0" />
    </g>
    <g
       transform="matrix(0.79703677,0,0,-0.79703677,54.711809,46.739193)"
       id="g8361">
      <path
         id="path8363"
         style="fill:#ecc051;fill-opacity:1;fill-rule:evenodd;stroke:none"
         d="m 0,0 c -0.248,-0.366 -0.408,-0.779 -0.414,-1.213 l -2.291,1.628 c 0.025,0.439 0.13,0.828 0.308,1.167 C -1.495,1.042 -0.691,0.519 0,0"
         inkscape:connector-curvature="0" />
    </g>
    <g
       transform="matrix(0.79703677,0,0,-0.79703677,50.896234,44.397895)"
       id="g8365">
      <path
         id="path8367"
         style="fill:#ecc051;fill-opacity:1;fill-rule:evenodd;stroke:none"
         d="m 0,0 c -0.147,-0.172 -0.273,-0.362 -0.371,-0.564 l -0.077,-0.797 -5.495,2.116 c -0.129,0.602 0.261,1.089 0.479,1.605 0.2,0.193 0.407,0.369 0.623,0.524 C -4.322,2.398 -3.692,1.953 -2.937,1.558 -1.899,1.016 -0.918,0.5 0,0"
         inkscape:connector-curvature="0" />
    </g>
    <g
       transform="matrix(0.79703677,0,0,-0.79703677,28.169847,30.610115)"
       id="g8369">
      <path
         id="path8371"
         style="fill:#dce8eb;fill-opacity:1;fill-rule:nonzero;stroke:none"
         d="m 0,0 c -3.445,-2.152 -7.769,-5.415 -8.074,-10.256 1.885,4.455 6.66,6.261 9.992,7.991 0.413,-0.313 0.571,-0.818 0.729,-1.298 -0.771,0.077 -1.507,0.427 -2.26,0.329 -0.259,-0.242 0.952,-2.032 1.102,-2.736 -3.48,-1.677 -8.134,-4.111 -8.633,-8.388 1.904,2.33 4.542,4.935 7.638,5.651 0.195,-1.58 0.17,-3.752 -0.258,-5.26 -0.645,0.098 -0.868,0.879 -1.327,1.32 -0.422,-0.634 -0.302,-1.512 -0.429,-2.283 0.048,-1.449 -1.619,-1.291 -2.371,-2.114 -0.512,-0.382 -0.877,-0.769 -1.169,-1.282 0.047,-0.102 1.65,0.765 2.433,1.038 -0.481,-0.932 -1.905,-2.741 -2.682,-3.538 l -0.165,1.366 c -0.747,-0.624 -0.828,-1.545 -1.206,-2.356 -0.045,0.002 -0.417,0.321 -0.718,0.586 0.214,0.548 0.42,1.14 0.644,1.807 0.233,0.716 0.617,1.095 0.645,1.859 l 0.036,1.094 -0.494,0.017 c -0.482,-0.169 -0.735,-0.326 -1.198,-0.536 -0.059,0.084 -0.243,0.132 -0.239,0.255 0.052,1.466 0.493,2.256 0.544,3.723 -0.418,-0.109 -0.595,-0.475 -1.028,-0.46 l -0.724,0.025 0.019,0.496 0.713,1.484 -0.155,0.336 -1.607,-0.44 c 0.244,1.665 0.772,2.577 1.73,3.928 l -0.579,0.021 c 0.193,1.337 1.016,1.866 1.269,3.201 -0.577,0.62 -1.328,-0.182 -2.179,-0.255 0.64,1.114 1.154,1.675 2.013,2.597 -1.654,1.173 -2.653,2.159 -4.677,2.228 l -1.961,0.07 c -0.603,0.022 -1.094,-0.02 -1.563,-0.126 -0.148,0.014 -0.304,0.014 -0.462,0.012 0.971,0.666 1.989,1.23 3.053,1.643 0.29,-0.261 0.683,-0.424 1.064,-0.288 l 0.309,0.289 c 0.514,-0.292 0.607,-1.219 1.367,-0.946 0.185,0.318 0.247,0.639 0.336,1.062 0.284,-0.459 0.719,-0.85 1.267,-0.869 0.347,-0.062 0.608,0.204 0.521,0.582 l 0.007,0.224 c 0.594,-0.146 1.075,-0.687 1.703,-0.584 0.232,0.217 0.34,0.462 0.326,0.762 0.597,-0.045 1.245,-0.816 1.794,-0.112 -0.169,0.88 1.007,0.215 1.349,0.727 C -2.226,2.05 -1.006,1.233 0,0"
         inkscape:connector-curvature="0" />
    </g>
    <g
       transform="matrix(0.79703677,0,0,-0.79703677,8.3162981,60.071706)"
       id="g8373">
      <path
         id="path8375"
         style="fill:#ecc051;fill-opacity:1;fill-rule:nonzero;stroke:none"
         d="M 0,0 C 0.176,0.3 0.355,0.598 0.477,0.909 0.207,0.92 -0.13,0.545 -0.433,0.065 -0.743,0.134 -1.057,0.245 -1.354,0.396 0.026,2.621 2.76,3.652 5.289,3.563 5.696,3.482 6.179,3.347 6.681,3.185 5.285,2.912 2.558,2.207 1.839,0.772 1.536,0.171 0.808,-0.071 0,0"
         inkscape:connector-curvature="0" />
    </g>
    <g
       transform="matrix(0.79703677,0,0,-0.79703677,16.680466,49.312424)"
       id="g8377">
      <path
         id="path8379"
         style="fill:#ecc051;fill-opacity:1;fill-rule:nonzero;stroke:none"
         d="m 0,0 c -0.64,0.463 -1.21,1.04 -1.676,1.753 0.364,0.387 0.925,0.741 1.366,1.201 0.881,0.918 1.233,2.403 0.776,3.618 L 0.729,6.938 C 0.95,6.478 1.18,6.016 1.43,5.563 1.155,4.005 0.711,2.009 0,0"
         inkscape:connector-curvature="0" />
    </g>
    <g
       transform="matrix(0.79703677,0,0,-0.79703677,14.974361,53.00111)"
       id="g8381">
      <path
         id="path8383"
         style="fill:#ecc051;fill-opacity:1;fill-rule:nonzero;stroke:none"
         d="m 0,0 c -1.152,0.449 -2.256,1.12 -3.29,1.817 0.136,1.02 0.517,1.93 1.119,2.733 C -0.955,3.969 0.348,3.627 1.699,3.466 1.387,2.701 1.034,1.947 0.635,1.227 0.394,0.794 0.184,0.385 0,0"
         inkscape:connector-curvature="0" />
    </g>
    <g
       transform="matrix(0.79703677,0,0,-0.79703677,14.177324,57.176945)"
       id="g8385">
      <path
         id="path8387"
         style="fill:#ecc051;fill-opacity:1;fill-rule:nonzero;stroke:none"
         d="M 0,0 C -0.53,0.163 -1.076,0.286 -1.624,0.391 L -1.91,0.751 C -2.074,1.806 -2.414,2.791 -2.401,3.889 -1.546,3.6 -0.632,3.492 0.284,3.495 -0.37,1.546 -0.18,0.475 0,0"
         inkscape:connector-curvature="0" />
    </g>
    <g
       transform="matrix(0.79703677,0,0,-0.79703677,37.679771,60.841484)"
       id="g8389">
      <path
         id="path8391"
         style="fill:#ecc051;fill-opacity:1;fill-rule:nonzero;stroke:none"
         d="M 0,0 C -0.064,0.093 -0.106,0.195 -0.11,0.311 0.077,1.428 0.562,2.409 1.069,3.391 -0.119,2.933 -0.395,1.47 -0.709,0.331 -1.162,0.223 -2.065,0.104 -2.5,0.519 -2.778,1.853 -1.892,2.97 -1.131,3.991 0.006,5.024 1.292,5.96 2.722,6.44 3.863,5.695 4.557,4.672 4.518,3.564 4.455,1.796 2.549,0.369 0,0"
         inkscape:connector-curvature="0" />
    </g>
    <g
       transform="matrix(0.79703677,0,0,-0.79703677,26.467568,48.02505)"
       id="g8393">
      <path
         id="path8395"
         style="fill:#db923a;fill-opacity:1;fill-rule:nonzero;stroke:none"
         d="M 0,0 C -1.181,-0.907 -2.737,-1.129 -4.087,-0.457 -4.122,-0.056 -3.81,0.332 -3.498,0.672 -2.904,0.5 -0.6,3.566 0.165,4.738 L 0.415,4.73 0,0 z m -5.583,-0.404 c 0.226,0.042 0.087,0.346 0.14,0.42 l 0.004,0.124 c 0.274,-0.009 0.238,-0.309 0.459,-0.441 0.228,-0.607 0.007,-1.223 -0.016,-1.872 -0.729,-0.469 -1.428,-0.347 -2.125,-0.103 -0.029,0.437 -0.051,0.688 -0.051,0.688 0,0 -0.891,1.586 -1.96,1.082 0.031,0.684 0.279,1.446 0.022,2.072 1.121,-0.788 2.291,-1.602 3.527,-1.97 m 4.966,-3.645 C -0.939,-4.317 -1.55,-4.251 -2.082,-4.243 l -0.043,0.947 c 0.32,0.017 0.641,0.029 0.985,-0.011 0.381,0.162 0.879,0.145 1.118,0.561 0.005,-0.574 0.036,-1.125 -0.595,-1.303 m -1.391,-1.827 c 0.57,-0.285 1.203,-0.465 1.862,-0.411 l -0.041,-1.149 c -0.527,-0.301 -1.123,-0.43 -1.729,-0.447 l -0.092,2.007 z m -2.97,0.656 0.021,-1.549 c -0.527,-0.363 -1.331,-0.337 -2.016,-0.304 0.004,0.477 0,0.943 -0.007,1.388 0.676,-0.094 1.354,-0.015 2.002,0.465 m -2.005,-2.647 c 0.537,-0.55 1.318,-1.175 1.822,-1.193 0.027,-0.65 0.105,-1.277 0.055,-1.973 -0.612,-0.328 -1.363,-0.431 -2.093,-0.347 0.129,1.146 0.192,2.352 0.216,3.513 m 6.565,-2.655 c 0.231,-0.538 -0.576,-0.839 -1.328,-1.092 l -0.038,0.824 c 0.477,0.031 0.943,0.12 1.366,0.268 m -1.254,-2.734 c 0.826,-0.008 1.643,0.261 2.309,0.774 1.629,0.168 2.914,-0.203 4.374,-0.579 0.902,-0.655 2.144,-1.547 2.226,-2.774 0.034,-0.475 0.162,-1.104 -0.177,-1.491 l -1.259,-0.307 c 0.046,2.77 -1.264,3.142 -1.264,3.142 0.001,-0.675 0.806,-1.228 0.653,-2.045 l -0.116,-1.195 c -0.661,-0.328 -1.411,-0.351 -2.161,-0.4 -0.113,1.077 0.012,2.523 -1.09,3.135 0.151,-0.681 0.572,-1.492 0.444,-2.288 -0.086,-0.347 0.184,-1.181 -0.515,-1.181 -2.254,-0.195 -4.009,-0.384 -6.21,0.217 l 0.005,1.475 c 0.668,-0.12 2.551,-0.417 3.979,-0.268 1.765,0.187 3.402,2.716 1.184,3.123 -2.218,0.408 -2.378,0.579 -2.378,0.579 l -0.004,0.083 z m -3.467,-0.174 0.001,-4.969 c -2.123,-0.725 -4.579,-0.989 -6.965,-0.656 -0.644,0.122 -0.469,0.867 -0.627,1.345 0.043,0.174 0.117,0.326 0.173,0.485 0.911,-0.062 1.824,-0.045 2.67,0.1 1.137,0.194 1.847,1.523 2.282,3.329 0.832,-0.136 1.685,-0.058 2.466,0.366 m -7.782,-3.765 c -0.229,-0.608 -0.356,-1.587 -0.158,-1.951 -0.64,0.272 -1.957,-0.255 -2.171,0.8 0,0.413 -0.018,1.051 -0.058,1.516 0.758,-0.158 1.569,-0.291 2.387,-0.365 m -2.848,0.466 c -0.23,-0.598 -0.234,-1.575 0.194,-2.379 -0.374,0.012 -0.842,0.205 -1.129,0.563 -0.098,0.63 -0.041,1.344 0.176,2.001 0.244,-0.062 0.497,-0.125 0.759,-0.185"
         inkscape:connector-curvature="0" />
    </g>
    <g
       transform="matrix(0.79703677,0,0,-0.79703677,51.327528,40.621299)"
       id="g8397">
      <path
         id="path8399"
         style="fill:#b18db8;fill-opacity:1;fill-rule:nonzero;stroke:none"
         d="M 0,0 C 0,0 6.589,3.468 -0.324,7.679 -0.324,7.679 3.789,3.953 0,0"
         inkscape:connector-curvature="0" />
    </g>
    <g
       transform="matrix(0.79703677,0,0,-0.79703677,53.58786,35.822735)"
       id="g8401">
      <path
         id="path8403"
         style="fill:#b18db8;fill-opacity:1;fill-rule:nonzero;stroke:none"
         d="M 0,0 C 2.572,-2.062 0.284,-4.161 0.284,-4.161 4.619,-1.058 0,0 0,0"
         inkscape:connector-curvature="0" />
    </g>
  </g>
</svg>
