<?xml version="1.0" encoding="UTF-8" standalone="no"?>
<!-- Created with Inkscape (http://www.inkscape.org/) -->

<svg
   xmlns:dc="http://purl.org/dc/elements/1.1/"
   xmlns:cc="http://creativecommons.org/ns#"
   xmlns:rdf="http://www.w3.org/1999/02/22-rdf-syntax-ns#"
   xmlns:svg="http://www.w3.org/2000/svg"
   xmlns="http://www.w3.org/2000/svg"
   xmlns:sodipodi="http://sodipodi.sourceforge.net/DTD/sodipodi-0.dtd"
   xmlns:inkscape="http://www.inkscape.org/namespaces/inkscape"
   width="64px"
   height="64px"
   id="svg21860"
   version="1.1"
   inkscape:version="0.48.5 r10040"
   sodipodi:docname="Nowy dokument 22">
  <defs
     id="defs21862" />
  <sodipodi:namedview
     id="base"
     pagecolor="#ffffff"
     bordercolor="#666666"
     borderopacity="1.0"
     inkscape:pageopacity="0.0"
     inkscape:pageshadow="2"
     inkscape:zoom="5.5"
     inkscape:cx="32"
     inkscape:cy="32"
     inkscape:current-layer="layer1"
     showgrid="true"
     inkscape:document-units="px"
     inkscape:grid-bbox="true"
     inkscape:window-width="1366"
     inkscape:window-height="706"
     inkscape:window-x="-8"
     inkscape:window-y="-8"
     inkscape:window-maximized="1" />
  <metadata
     id="metadata21865">
    <rdf:RDF>
      <cc:Work
         rdf:about="">
        <dc:format>image/svg+xml</dc:format>
        <dc:type
           rdf:resource="http://purl.org/dc/dcmitype/StillImage" />
        <dc:title></dc:title>
      </cc:Work>
    </rdf:RDF>
  </metadata>
  <g
     id="layer1"
     inkscape:label="Layer 1"
     inkscape:groupmode="layer">
    <path
       id="path9332"
       style="fill:#ddd2c9;fill-opacity:1;fill-rule:nonzero;stroke:none"
       d="m 55.306926,59.866934 -0.04019,0 c -0.198538,-0.01144 -1.957483,-0.14224 -2.95017,-0.887026 -0.983662,-0.737353 -1.65475,-2.369894 -1.728589,-2.552528 -0.133725,-0.333975 0.02869,-0.711099 0.361798,-0.844084 0.331442,-0.132103 0.710469,0.02755 0.845015,0.360487 0.163259,0.406341 0.713754,1.555909 1.30116,1.996511 0.580024,0.435249 1.822937,0.60156 2.252007,0.629737 0.357696,0.02288 0.629247,0.332674 0.606279,0.689991 -0.02132,0.344474 -0.30683,0.608212 -0.647302,0.608212"
       inkscape:connector-curvature="0" />
    <path
       id="path9334"
       style="fill:#ddd2c9;fill-opacity:1;fill-rule:nonzero;stroke:none"
       d="m 8.9492357,59.866934 c -0.3404665,0 -0.6259659,-0.263737 -0.6472974,-0.608212 -0.022979,-0.357316 0.2485827,-0.667271 0.6062787,-0.689991 0.4307132,-0.02807 1.671978,-0.194488 2.252008,-0.629737 0.587406,-0.440602 1.139539,-1.59017 1.301976,-1.99651 0.133725,-0.332675 0.51193,-0.492591 0.845015,-0.360488 0.333084,0.132986 0.495528,0.51011 0.362619,0.844084 -0.07383,0.182635 -0.745747,1.815175 -1.730231,2.552528 -0.993504,0.744786 -2.7524482,0.875537 -2.948528,0.887026 l -0.04185,0"
       inkscape:connector-curvature="0" />
    <path
       id="path9336"
       style="fill:#e6dcd4;fill-opacity:1;fill-rule:nonzero;stroke:none"
       d="m 53.211622,56.618957 -42.167076,0 c -4.6582502,0 -8.1597267,-17.114634 -8.1597267,-17.114634 l 58.4881707,0 c 0,0 -3.503124,17.113438 -8.161368,17.114634"
       inkscape:connector-curvature="0" />
    <path
       id="path9338"
       style="fill:#ded3c9;fill-opacity:1;fill-rule:nonzero;stroke:none"
       d="m 61.133433,37.422862 -57.9015858,0 c -1.1477421,0 -1.5661504,0.568805 -1.5661504,1.269401 0,0.699244 0.4184083,1.26779 1.5661504,1.26779 l 57.9015858,0 c 1.148564,0 1.564507,-0.568546 1.564507,-1.26779 0,-0.700596 -0.415943,-1.269401 -1.564507,-1.269401"
       inkscape:connector-curvature="0" />
    <path
       id="path9340"
       style="fill:#e6dcd4;fill-opacity:1;fill-rule:nonzero;stroke:none"
       d="m 58.148805,39.098292 c -0.538184,0 -0.974638,-0.436806 -0.974638,-0.974886 l 0,-27.943663 0.0047,-0.0968 c 0.01472,-0.2397188 -0.02058,-1.5357378 -2.25779,-1.8632127 -0.533262,-0.077201 -0.900804,-0.5723921 -0.823684,-1.1053257 0.07876,-0.5316335 0.578381,-0.8972678 1.105081,-0.8239638 3.311969,0.4852074 4.010953,2.7519021 3.920706,3.9308952 l 0,27.902072 c 0,0.53808 -0.436453,0.974886 -0.974637,0.974886"
       inkscape:connector-curvature="0" />
    <path
       id="path9342"
       style="fill:#e6dcd4;fill-opacity:1;fill-rule:nonzero;stroke:none"
       d="M 54.507854,12.036457 55.534178,6.8468704 C 55.611298,6.4580495 55.358613,6.2045532 54.969745,6.2818606 l -5.19151,1.0293184 c -0.38723,0.076214 -0.765436,0.4531311 -0.843377,0.843148 l 4.728803,4.726266 c 0.388052,-0.0759 0.767078,-0.454431 0.844193,-0.844136"
       inkscape:connector-curvature="0" />
    <path
       id="path9344"
       style="fill:#d6cec6;fill-opacity:1;fill-rule:nonzero;stroke:none"
       d="M 54.507854,12.036457 49.778235,7.311179 c -0.38723,0.076214 -0.765436,0.4531311 -0.843377,0.843148 l 4.728803,4.726266 c 0.388052,-0.0759 0.767078,-0.454431 0.844193,-0.844136"
       inkscape:connector-curvature="0" />
    <path
       id="path9346"
       style="fill:#a5dade;fill-opacity:1;fill-rule:nonzero;stroke:none"
       d="m 36.973382,30.59299 c 0,0 -1.437344,0.115675 -2.272517,0.912396 -0.364257,0.346451 -0.378206,0.922951 -0.03036,1.287285 0.347028,0.362776 0.922129,0.376917 1.287212,0.03068 0.404454,-0.38617 1.015656,-2.230459 1.015656,-2.230459"
       inkscape:connector-curvature="0" />
    <path
       id="path9348"
       style="fill:#8fc9cb;fill-opacity:1;fill-rule:nonzero;stroke:none"
       d="m 35.94788,32.549158 c -0.0047,0.218247 -0.432351,0.39194 -0.650578,0.385182 -0.21987,-0.0052 -0.584948,-0.174629 -0.578386,-0.393189 0.0047,-0.218247 1.234708,-0.210553 1.228964,0.0078"
       inkscape:connector-curvature="0" />
    <path
       id="path9350"
       style="fill:#a5dade;fill-opacity:1;fill-rule:nonzero;stroke:none"
       d="m 31.874577,30.706116 c 0,0 -1.438165,0.114375 -2.274154,0.912397 -0.363441,0.347699 -0.377389,0.922638 -0.0312,1.287285 0.346211,0.362775 0.924592,0.376916 1.287211,0.03016 0.40446,-0.386533 1.01812,-2.229575 1.01812,-2.229575"
       inkscape:connector-curvature="0" />
    <path
       id="path9352"
       style="fill:#8fc9cb;fill-opacity:1;fill-rule:nonzero;stroke:none"
       d="m 30.848254,32.662285 c -0.0058,0.217571 -0.433994,0.391628 -0.651399,0.385181 -0.218227,-0.0052 -0.584948,-0.173329 -0.577565,-0.391992 0.0031,-0.219443 1.233887,-0.213048 1.228964,0.0068"
       inkscape:connector-curvature="0" />
    <path
       id="path9354"
       style="fill:#a5dade;fill-opacity:1;fill-rule:nonzero;stroke:none"
       d="m 47.258772,30.59299 c 0,0 -1.438986,0.115675 -2.274976,0.912396 -0.363435,0.346451 -0.378205,0.922951 -0.02952,1.287285 0.346212,0.362776 0.922134,0.376917 1.286391,0.03068 0.40528,-0.38617 1.01812,-2.230459 1.01812,-2.230459"
       inkscape:connector-curvature="0" />
    <path
       id="path9356"
       style="fill:#8fc9cb;fill-opacity:1;fill-rule:nonzero;stroke:none"
       d="m 46.231632,32.549158 c -0.0042,0.218247 -0.432356,0.39194 -0.651404,0.385182 -0.219048,-0.0052 -0.584126,-0.174629 -0.578382,-0.393189 0.0058,-0.218247 1.234705,-0.210553 1.229786,0.0078"
       inkscape:connector-curvature="0" />
    <path
       id="path9358"
       style="fill:#a5dade;fill-opacity:1;fill-rule:nonzero;stroke:none"
       d="m 41.947486,30.706116 c 0,0 -1.438165,0.114375 -2.274976,0.912397 -0.364262,0.347699 -0.376567,0.922638 -0.0312,1.287285 0.347033,0.362775 0.924593,0.376916 1.288033,0.03016 0.404459,-0.386533 1.01812,-2.229575 1.01812,-2.229575"
       inkscape:connector-curvature="0" />
    <path
       id="path9360"
       style="fill:#8fc9cb;fill-opacity:1;fill-rule:nonzero;stroke:none"
       d="m 40.921163,32.662285 c -0.0058,0.217571 -0.433994,0.391628 -0.652221,0.385181 -0.218226,-0.0052 -0.584126,-0.173329 -0.578386,-0.391992 0.0047,-0.219443 1.234709,-0.213048 1.230607,0.0068"
       inkscape:connector-curvature="0" />
    <path
       id="path9362"
       style="fill:#a5dade;fill-opacity:1;fill-rule:nonzero;stroke:none"
       d="m 36.699367,25.548763 c 0,0 -1.438166,0.114427 -2.274155,0.91302 -0.364262,0.346451 -0.378206,0.921703 -0.03036,1.285414 0.347033,0.364751 0.923772,0.376864 1.288033,0.03068 0.403638,-0.38617 1.016478,-2.229211 1.016478,-2.229211"
       inkscape:connector-curvature="0" />
    <path
       id="path9364"
       style="fill:#8fc9cb;fill-opacity:1;fill-rule:nonzero;stroke:none"
       d="m 35.673043,27.503683 c -0.0058,0.219495 -0.433173,0.392564 -0.651399,0.387106 -0.218227,-0.0052 -0.583305,-0.175254 -0.578382,-0.393812 0.0047,-0.219547 1.234705,-0.211854 1.229781,0.0068"
       inkscape:connector-curvature="0" />
    <path
       id="path9366"
       style="fill:#a5dade;fill-opacity:1;fill-rule:nonzero;stroke:none"
       d="m 31.681784,25.660643 c 0,0 -1.438166,0.115673 -2.274976,0.912395 -0.364262,0.348323 -0.376568,0.923939 -0.03203,1.288585 0.347854,0.361476 0.925415,0.375617 1.288033,0.02911 0.405281,-0.385857 1.018942,-2.230145 1.018942,-2.230145"
       inkscape:connector-curvature="0" />
    <path
       id="path9368"
       style="fill:#8fc9cb;fill-opacity:1;fill-rule:nonzero;stroke:none"
       d="m 30.656281,27.61681 c -0.0066,0.218247 -0.434815,0.391576 -0.653042,0.387105 -0.218226,-0.0052 -0.584125,-0.175252 -0.577565,-0.393916 0.0042,-0.219442 1.233888,-0.2118 1.230607,0.0068"
       inkscape:connector-curvature="0" />
    <path
       id="path9370"
       style="fill:#a5dade;fill-opacity:1;fill-rule:nonzero;stroke:none"
       d="m 47.451572,25.548763 c 0,0 -1.438171,0.114427 -2.27416,0.91302 -0.364257,0.346451 -0.377384,0.921703 -0.0312,1.285414 0.34867,0.364751 0.924593,0.376864 1.288849,0.03068 0.403639,-0.38617 1.016483,-2.229211 1.016483,-2.229211"
       inkscape:connector-curvature="0" />
    <path
       id="path9372"
       style="fill:#8fc9cb;fill-opacity:1;fill-rule:nonzero;stroke:none"
       d="m 46.426064,27.503683 c -0.0066,0.219495 -0.433173,0.392564 -0.652221,0.387106 -0.218226,-0.0052 -0.584125,-0.175254 -0.577559,-0.393812 0.0031,-0.219547 1.233882,-0.211854 1.22978,0.0068"
       inkscape:connector-curvature="0" />
    <path
       id="path9374"
       style="fill:#a5dade;fill-opacity:1;fill-rule:nonzero;stroke:none"
       d="m 41.4495,25.660643 c 0,0 -1.439808,0.115673 -2.275798,0.912395 -0.363435,0.348323 -0.377383,0.923939 -0.03036,1.288585 0.347033,0.361476 0.923777,0.375617 1.287212,0.02911 0.40528,-0.385857 1.018941,-2.230145 1.018941,-2.230145"
       inkscape:connector-curvature="0" />
    <path
       id="path9376"
       style="fill:#8fc9cb;fill-opacity:1;fill-rule:nonzero;stroke:none"
       d="m 40.422355,27.61681 c -0.0058,0.218247 -0.432351,0.391576 -0.650578,0.387105 -0.219869,-0.0052 -0.584947,-0.175252 -0.579203,-0.393916 0.0047,-0.219442 1.235525,-0.2118 1.229781,0.0068"
       inkscape:connector-curvature="0" />
    <path
       id="path9378"
       style="fill:#a5dade;fill-opacity:1;fill-rule:nonzero;stroke:none"
       d="m 40.659453,20.79458 c 0,0 -1.438987,0.114166 -2.274154,0.912396 -0.364262,0.346139 -0.378211,0.92139 -0.03037,1.286089 0.346207,0.363763 0.922951,0.376864 1.287213,0.03068 0.405275,-0.385859 1.017298,-2.228899 1.017298,-2.228899"
       inkscape:connector-curvature="0" />
    <path
       id="path9380"
       style="fill:#8fc9cb;fill-opacity:1;fill-rule:nonzero;stroke:none"
       d="m 39.633129,22.749136 c -0.0047,0.219858 -0.432351,0.391992 -0.651399,0.386794 -0.219048,-0.0052 -0.584947,-0.174889 -0.578387,-0.393189 0.0047,-0.219443 1.23471,-0.211853 1.229786,0.0062"
       inkscape:connector-curvature="0" />
    <path
       id="path9382"
       style="fill:#a5dade;fill-opacity:1;fill-rule:nonzero;stroke:none"
       d="m 35.860919,20.906199 c 0,0 -1.438171,0.114998 -2.274982,0.912345 -0.362619,0.347698 -0.376562,0.924197 -0.03036,1.288272 0.347027,0.361787 0.924593,0.37624 1.287211,0.02911 0.405277,-0.385494 1.01812,-2.229731 1.01812,-2.229731"
       inkscape:connector-curvature="0" />
    <path
       id="path9384"
       style="fill:#8fc9cb;fill-opacity:1;fill-rule:nonzero;stroke:none"
       d="m 34.835411,22.861691 c -0.0066,0.218247 -0.433994,0.392564 -0.652221,0.387417 -0.218226,-0.0058 -0.584125,-0.174993 -0.575922,-0.39324 0.0026,-0.219807 1.233066,-0.211853 1.228143,0.0058"
       inkscape:connector-curvature="0" />
    <path
       id="path9386"
       style="fill:#a5dade;fill-opacity:1;fill-rule:nonzero;stroke:none"
       d="m 50.176128,20.79458 c 0,0 -1.439809,0.114166 -2.274976,0.912396 -0.364262,0.346139 -0.376568,0.92139 -0.03037,1.286089 0.34785,0.363763 0.923773,0.376864 1.288035,0.03068 0.403638,-0.385859 1.017298,-2.228899 1.017298,-2.228899"
       inkscape:connector-curvature="0" />
    <path
       id="path9388"
       style="fill:#8fc9cb;fill-opacity:1;fill-rule:nonzero;stroke:none"
       d="m 49.148982,22.749136 c -0.0058,0.219858 -0.433171,0.391992 -0.649756,0.386794 -0.219869,-0.0052 -0.585768,-0.174889 -0.580846,-0.393189 0.0058,-0.219443 1.235526,-0.211853 1.230602,0.0062"
       inkscape:connector-curvature="0" />
    <path
       id="path9390"
       style="fill:#a5dade;fill-opacity:1;fill-rule:nonzero;stroke:none"
       d="m 45.220073,20.906199 c 0,0 -1.437344,0.114998 -2.274155,0.912345 -0.364262,0.347698 -0.376567,0.924197 -0.03203,1.288272 0.347849,0.361787 0.925414,0.37624 1.288034,0.02911 0.40528,-0.385494 1.01812,-2.229731 1.01812,-2.229731"
       inkscape:connector-curvature="0" />
    <path
       id="path9392"
       style="fill:#8fc9cb;fill-opacity:1;fill-rule:nonzero;stroke:none"
       d="m 44.195392,22.861691 c -0.0066,0.218247 -0.433994,0.392564 -0.651403,0.387417 -0.219865,-0.0058 -0.585765,-0.174993 -0.579203,-0.39324 0.0042,-0.219807 1.233887,-0.211853 1.230606,0.0058"
       inkscape:connector-curvature="0" />
    <path
       id="path9394"
       style="fill:#a5dade;fill-opacity:1;fill-rule:nonzero;stroke:none"
       d="m 44.201953,15.795946 c 0,0 -1.438987,0.114375 -2.274155,0.912969 -0.364262,0.346138 -0.37821,0.92269 -0.03036,1.286713 0.347028,0.363139 0.923771,0.376916 1.288033,0.02911 0.404455,-0.386169 1.016478,-2.228899 1.016478,-2.228899"
       inkscape:connector-curvature="0" />
    <path
       id="path9396"
       style="fill:#8fc9cb;fill-opacity:1;fill-rule:nonzero;stroke:none"
       d="m 43.175629,17.750502 c -0.0047,0.219807 -0.433172,0.392565 -0.651398,0.387418 -0.218227,-0.0052 -0.583311,-0.175616 -0.578387,-0.393812 0.0042,-0.218871 1.234709,-0.211853 1.229785,0.0062"
       inkscape:connector-curvature="0" />
    <path
       id="path9398"
       style="fill:#a5dade;fill-opacity:1;fill-rule:nonzero;stroke:none"
       d="m 39.844794,15.908761 c 0,0 -1.43817,0.114374 -2.274159,0.912969 -0.362619,0.34645 -0.377384,0.922378 -0.03036,1.287024 0.346212,0.36314 0.923777,0.375617 1.287212,0.03068 0.404459,-0.387469 1.017304,-2.230459 1.017304,-2.230459"
       inkscape:connector-curvature="0" />
    <path
       id="path9400"
       style="fill:#8fc9cb;fill-opacity:1;fill-rule:nonzero;stroke:none"
       d="m 38.819288,17.864877 c -0.0066,0.218559 -0.433989,0.392564 -0.652221,0.38617 -0.218227,-0.0052 -0.584126,-0.175565 -0.576738,-0.393812 0.0031,-0.218559 1.23306,-0.211853 1.228959,0.0078"
       inkscape:connector-curvature="0" />
    <path
       id="path9402"
       style="fill:#a5dade;fill-opacity:1;fill-rule:nonzero;stroke:none"
       d="m 52.810443,15.538604 c 0,0 -1.438987,0.114062 -2.274977,0.912396 -0.36344,0.346451 -0.378204,0.922587 -0.02952,1.287285 0.346206,0.362464 0.922129,0.376864 1.286391,0.03068 0.405281,-0.387366 1.01812,-2.230094 1.01812,-2.230094"
       inkscape:connector-curvature="0" />
    <path
       id="path9404"
       style="fill:#8fc9cb;fill-opacity:1;fill-rule:nonzero;stroke:none"
       d="m 51.783298,17.49316 c -0.0047,0.219859 -0.432352,0.391888 -0.651399,0.386794 -0.219048,-0.0052 -0.584948,-0.174993 -0.577565,-0.393189 0.0047,-0.219546 1.234708,-0.211853 1.228964,0.0062"
       inkscape:connector-curvature="0" />
    <path
       id="path9406"
       style="fill:#a5dade;fill-opacity:1;fill-rule:nonzero;stroke:none"
       d="m 48.483635,15.908761 c 0,0 -1.439803,0.114374 -2.275797,0.912969 -0.36262,0.34645 -0.376563,0.922378 -0.0312,1.287024 0.34867,0.36314 0.924593,0.375617 1.288028,0.03068 0.404459,-0.387469 1.018941,-2.230459 1.018941,-2.230459"
       inkscape:connector-curvature="0" />
    <path
       id="path9408"
       style="fill:#8fc9cb;fill-opacity:1;fill-rule:nonzero;stroke:none"
       d="m 47.45649,17.864877 c -0.0066,0.218559 -0.433989,0.392564 -0.652221,0.38617 -0.218226,-0.0052 -0.583305,-0.175565 -0.576739,-0.393812 0.0042,-0.218559 1.233883,-0.211853 1.22896,0.0078"
       inkscape:connector-curvature="0" />
    <path
       id="path9410"
       style="fill:#a5dade;fill-opacity:1;fill-rule:nonzero;stroke:none"
       d="m 45.098655,11.574436 c 0,0 -1.439809,0.114374 -2.274977,0.912916 -0.36344,0.346451 -0.378204,0.92139 -0.03036,1.285413 0.347028,0.364751 0.923772,0.376916 1.287213,0.03068 0.40528,-0.385909 1.01812,-2.228847 1.01812,-2.228847"
       inkscape:connector-curvature="0" />
    <path
       id="path9412"
       style="fill:#8fc9cb;fill-opacity:1;fill-rule:nonzero;stroke:none"
       d="m 44.071509,13.529303 c -0.0047,0.219444 -0.432351,0.392201 -0.651399,0.387055 -0.218227,-0.0052 -0.58331,-0.175253 -0.577565,-0.393812 0.0042,-0.219548 1.233888,-0.211801 1.228964,0.0068"
       inkscape:connector-curvature="0" />
    <path
       id="path9414"
       style="fill:#a5dade;fill-opacity:1;fill-rule:nonzero;stroke:none"
       d="m 49.121912,11.558007 c 0,0 -1.438987,0.114479 -2.275797,0.912397 -0.363441,0.34775 -0.376568,0.92425 -0.03037,1.287337 0.347849,0.362827 0.925414,0.376915 1.287212,0.03068 0.404459,-0.387469 1.018942,-2.230511 1.018942,-2.230511"
       inkscape:connector-curvature="0" />
    <path
       id="path9416"
       style="fill:#8fc9cb;fill-opacity:1;fill-rule:nonzero;stroke:none"
       d="m 48.095588,13.514176 c -0.0066,0.218246 -0.433993,0.39194 -0.65222,0.385181 -0.219048,-0.0052 -0.584132,-0.173329 -0.577565,-0.391577 0.0047,-0.219859 1.234703,-0.2118 1.229785,0.0062"
       inkscape:connector-curvature="0" />
  </g>
</svg>
