<?xml version="1.0" encoding="UTF-8" standalone="no"?>
<!-- Created with Inkscape (http://www.inkscape.org/) -->

<svg
   xmlns:dc="http://purl.org/dc/elements/1.1/"
   xmlns:cc="http://creativecommons.org/ns#"
   xmlns:rdf="http://www.w3.org/1999/02/22-rdf-syntax-ns#"
   xmlns:svg="http://www.w3.org/2000/svg"
   xmlns="http://www.w3.org/2000/svg"
   xmlns:sodipodi="http://sodipodi.sourceforge.net/DTD/sodipodi-0.dtd"
   xmlns:inkscape="http://www.inkscape.org/namespaces/inkscape"
   width="64px"
   height="64px"
   id="svg144240"
   version="1.1"
   inkscape:version="0.48.5 r10040"
   sodipodi:docname="Nowy dokument 25">
  <defs
     id="defs144242">
    <clipPath
       id="clipPath61799"
       clipPathUnits="userSpaceOnUse">
      <path
         inkscape:connector-curvature="0"
         id="path61801"
         d="M 0,800 1600,800 1600,0 0,0 0,800 z" />
    </clipPath>
    <clipPath
       id="clipPath61819"
       clipPathUnits="userSpaceOnUse">
      <path
         inkscape:connector-curvature="0"
         id="path61821"
         d="m 949.787,147.848 12.683,0 0,-32.108 -12.683,0 0,32.108 z" />
    </clipPath>
    <clipPath
       id="clipPath61835"
       clipPathUnits="userSpaceOnUse">
      <path
         inkscape:connector-curvature="0"
         id="path61837"
         d="m 934.209,147.848 12.683,0 0,-32.108 -12.683,0 0,32.108 z" />
    </clipPath>
    <clipPath
       id="clipPath61863"
       clipPathUnits="userSpaceOnUse">
      <path
         inkscape:connector-curvature="0"
         id="path61865"
         d="m 942.319,149.043 10.253,0 0,-0.849 -10.253,0 0,0.849 z" />
    </clipPath>
    <clipPath
       id="clipPath61879"
       clipPathUnits="userSpaceOnUse">
      <path
         inkscape:connector-curvature="0"
         id="path61881"
         d="m 941.479,150.519 6.833,0 0,-2.325 -6.833,0 0,2.325 z" />
    </clipPath>
    <clipPath
       id="clipPath61883"
       clipPathUnits="userSpaceOnUse">
      <path
         inkscape:connector-curvature="0"
         id="path61885"
         d="m 945.163,150.519 3.149,0 0,-2.325 -3.149,0 0,2.325 z" />
    </clipPath>
    <clipPath
       id="clipPath61887"
       clipPathUnits="userSpaceOnUse">
      <path
         inkscape:connector-curvature="0"
         id="path61889"
         d="m 941.479,149.996 1.13,0 0,-1.279 -1.13,0 0,1.279 z" />
    </clipPath>
    <clipPath
       id="clipPath61891"
       clipPathUnits="userSpaceOnUse">
      <path
         inkscape:connector-curvature="0"
         id="path61893"
         d="m 942.609,150.388 2.554,0 0,-2.062 -2.554,0 0,2.062 z" />
    </clipPath>
    <clipPath
       id="clipPath61939"
       clipPathUnits="userSpaceOnUse">
      <path
         inkscape:connector-curvature="0"
         id="path61941"
         d="m 941.17,116.878 14.087,0 0,-1.158 -14.087,0 0,1.158 z" />
    </clipPath>
    <clipPath
       id="clipPath62003"
       clipPathUnits="userSpaceOnUse">
      <path
         inkscape:connector-curvature="0"
         id="path62005"
         d="m 949.929,184.584 11.274,0 0,-14.009 -11.274,0 0,14.009 z" />
    </clipPath>
    <clipPath
       id="clipPath62167"
       clipPathUnits="userSpaceOnUse">
      <path
         inkscape:connector-curvature="0"
         id="path62169"
         d="m 952.754,180.39 4.521,0 0,-5.689 -4.521,0 0,5.689 z" />
    </clipPath>
    <clipPath
       id="clipPath62223"
       clipPathUnits="userSpaceOnUse">
      <path
         inkscape:connector-curvature="0"
         id="path62225"
         d="m 935.288,177.248 9.149,0 0,-11.627 -9.149,0 0,11.627 z" />
    </clipPath>
    <clipPath
       id="clipPath62387"
       clipPathUnits="userSpaceOnUse">
      <path
         inkscape:connector-curvature="0"
         id="path62389"
         d="m 938.489,173.791 3.643,0 0,-4.678 -3.643,0 0,4.678 z" />
    </clipPath>
  </defs>
  <sodipodi:namedview
     id="base"
     pagecolor="#ffffff"
     bordercolor="#666666"
     borderopacity="1.0"
     inkscape:pageopacity="0.0"
     inkscape:pageshadow="2"
     inkscape:zoom="5.5"
     inkscape:cx="32"
     inkscape:cy="32"
     inkscape:current-layer="layer1"
     showgrid="true"
     inkscape:document-units="px"
     inkscape:grid-bbox="true"
     inkscape:window-width="1366"
     inkscape:window-height="706"
     inkscape:window-x="-8"
     inkscape:window-y="-8"
     inkscape:window-maximized="1" />
  <metadata
     id="metadata144245">
    <rdf:RDF>
      <cc:Work
         rdf:about="">
        <dc:format>image/svg+xml</dc:format>
        <dc:type
           rdf:resource="http://purl.org/dc/dcmitype/StillImage" />
        <dc:title></dc:title>
      </cc:Work>
    </rdf:RDF>
  </metadata>
  <g
     id="layer1"
     inkscape:label="Layer 1"
     inkscape:groupmode="layer">
    <g
       id="g61795"
       transform="matrix(0.82426397,0,0,-0.82426397,-748.778,154.72363)">
      <g
         id="g61797"
         clip-path="url(#clipPath61799)">
        <g
           id="g61803"
           transform="translate(941.1699,116.8779)">
          <path
             inkscape:connector-curvature="0"
             d="m 0,0 c 0.561,-0.657 3.5,-1.158 7.044,-1.158 3.543,0 6.483,0.501 7.043,1.158 C 12.47,-0.332 9.917,-0.546 7.044,-0.546 4.17,-0.546 1.617,-0.332 0,0"
             style="fill:#386b95;fill-opacity:1;fill-rule:nonzero;stroke:none"
             id="path61805" />
        </g>
        <g
           id="g61807"
           transform="translate(959.5654,128.9316)">
          <path
             inkscape:connector-curvature="0"
             d="m 0,0 c 0,2.568 -1.203,6.543 -4.628,9.52 -3.425,2.976 0.635,9.396 0.635,9.396 l 10e-4,0 c 0.128,0.38 0.282,0.771 0.465,1.172 0,0 1.019,1.449 -7.726,1.744 -8.745,-0.295 -7.726,-1.744 -7.726,-1.744 2.528,-5.545 -0.346,-9.082 -1.967,-10.305 -1.62,-1.222 -4.464,-5.137 -4.464,-10.213 0,-5.075 2.232,-7.888 5.014,-10.395 2.783,-2.508 9.143,-2.416 9.143,-2.416 0,0 0.584,-0.009 1.475,0.05 C 0.38,-11.032 0,-2.569 0,0"
             style="fill:#386b95;fill-opacity:1;fill-rule:nonzero;stroke:none"
             id="path61809" />
        </g>
        <g
           id="g61811"
           transform="translate(962.4697,128.502)">
          <path
             inkscape:connector-curvature="0"
             d="m 0,0 c 0,5.076 -2.844,8.99 -4.464,10.213 -1.504,1.135 -4.085,4.261 -2.432,9.133 l -0.001,0 c 0,0 -4.06,-6.42 -0.635,-9.397 3.425,-2.976 4.628,-6.951 4.628,-9.519 0,-2.57 0.38,-11.033 -9.779,-13.192 2.05,0.133 5.728,0.618 7.668,2.366 C -2.232,-7.889 0,-5.075 0,0"
             style="fill:#386b95;fill-opacity:1;fill-rule:nonzero;stroke:none"
             id="path61813" />
        </g>
        <g
           id="g61815">
          <g
             id="g61817" />
          <g
             id="g61823">
            <g
               style="opacity:0.30000299"
               clip-path="url(#clipPath61819)"
               id="g61825">
              <g
                 transform="translate(962.4697,128.502)"
                 id="g61827">
                <path
                   inkscape:connector-curvature="0"
                   d="m 0,0 c 0,5.076 -2.844,8.99 -4.464,10.213 -1.504,1.135 -4.085,4.261 -2.432,9.133 l -0.001,0 c 0,0 -4.06,-6.42 -0.635,-9.397 3.425,-2.976 4.628,-6.951 4.628,-9.519 0,-2.57 0.38,-11.033 -9.779,-13.192 2.05,0.133 5.728,0.618 7.668,2.366 C -2.232,-7.889 0,-5.075 0,0"
                   style="fill:#386b95;fill-opacity:1;fill-rule:nonzero;stroke:none"
                   id="path61829" />
              </g>
            </g>
          </g>
        </g>
        <g
           id="g61831">
          <g
             id="g61833" />
          <g
             id="g61839">
            <g
               style="opacity:0.30000299"
               clip-path="url(#clipPath61835)"
               id="g61841">
              <g
                 transform="translate(934.209,128.502)"
                 id="g61843">
                <path
                   inkscape:connector-curvature="0"
                   d="m 0,0 c 0,5.076 2.844,8.99 4.464,10.213 1.504,1.135 4.085,4.261 2.432,9.133 0,0 4.06,-6.42 0.635,-9.397 C 4.106,6.973 2.904,2.998 2.904,0.43 c 0,-2.57 -0.38,-11.033 9.779,-13.192 -2.05,0.133 -5.729,0.618 -7.668,2.366 C 2.231,-7.889 0,-5.075 0,0"
                   style="fill:#386b95;fill-opacity:1;fill-rule:nonzero;stroke:none"
                   id="path61845" />
              </g>
            </g>
          </g>
        </g>
        <g
           id="g61847"
           transform="translate(955.1465,149.3564)">
          <path
             inkscape:connector-curvature="0"
             d="m 0,0 c 0,-0.642 -3.06,-1.162 -6.834,-1.162 -3.774,0 -6.834,0.52 -6.834,1.162 0,0.642 3.06,1.162 6.834,1.162 C -3.06,1.162 0,0.642 0,0"
             style="fill:#386b95;fill-opacity:1;fill-rule:nonzero;stroke:none"
             id="path61849" />
        </g>
        <g
           id="g61851"
           transform="translate(948.3125,148.1943)">
          <path
             inkscape:connector-curvature="0"
             d="M 0,0 C 3.774,0 6.834,0.521 6.834,1.162 6.834,1.804 3.774,2.324 0,2.324 -3.774,2.324 -6.834,1.804 -6.834,1.162 -6.834,0.521 -3.774,0 0,0"
             style="fill:#386b95;fill-opacity:1;fill-rule:nonzero;stroke:none"
             id="path61853" />
        </g>
        <g
           id="g61855"
           transform="translate(948.3125,150.5186)">
          <path
             inkscape:connector-curvature="0"
             d="m 0,0 c -1.137,0 -2.207,-0.048 -3.149,-0.131 -1.035,-0.091 -1.913,-0.226 -2.554,-0.391 -0.714,-0.184 -1.131,-0.403 -1.131,-0.64 0,-0.237 0.417,-0.456 1.131,-0.64 0.641,-0.165 1.519,-0.3 2.554,-0.39 0.942,-0.084 2.012,-0.132 3.149,-0.132 3.774,0 6.834,0.52 6.834,1.162 C 6.834,-0.521 3.774,0 0,0"
             style="fill:#386b95;fill-opacity:1;fill-rule:nonzero;stroke:none"
             id="path61857" />
        </g>
        <g
           id="g61859">
          <g
             id="g61861" />
          <g
             id="g61867">
            <g
               style="opacity:0.39999396"
               clip-path="url(#clipPath61863)"
               id="g61869">
              <g
                 transform="translate(942.3193,148.7812)"
                 id="g61871">
                <path
                   inkscape:connector-curvature="0"
                   d="m 0,0 c 1.177,-0.351 3.394,-0.587 5.937,-0.587 1.636,0 3.139,0.099 4.316,0.262 C 9.076,0.025 6.859,0.262 4.316,0.262 2.679,0.262 1.177,0.163 0,0"
                   style="fill:#386b95;fill-opacity:1;fill-rule:nonzero;stroke:none"
                   id="path61873" />
              </g>
            </g>
          </g>
        </g>
        <g
           id="g61875">
          <g
             id="g61877" />
          <g
             id="g61895">
            <g
               clip-path="url(#clipPath61879)"
               id="g61897">
              <g
                 id="g61899">
                <g
                   id="g61901" />
                <g
                   id="g61903">
                  <g
                     style="opacity:0.19999701"
                     clip-path="url(#clipPath61883)"
                     id="g61905">
                    <g
                       transform="translate(945.1631,150.3877)"
                       id="g61907">
                      <path
                         inkscape:connector-curvature="0"
                         d="m 0,0 0,-2.062 c 0.942,-0.084 2.013,-0.131 3.149,-0.131 l 0,2.324 C 2.013,0.131 0.942,0.083 0,0"
                         style="fill:#231f20;fill-opacity:1;fill-rule:nonzero;stroke:none"
                         id="path61909" />
                    </g>
                  </g>
                </g>
              </g>
              <g
                 id="g61911">
                <g
                   id="g61913" />
                <g
                   id="g61915">
                  <g
                     style="opacity:0.69999701"
                     clip-path="url(#clipPath61887)"
                     id="g61917">
                    <g
                       transform="translate(942.6094,148.7168)"
                       id="g61919">
                      <path
                         inkscape:connector-curvature="0"
                         d="M 0,0 0,1.279 C -0.714,1.096 -1.131,0.877 -1.131,0.64 -1.131,0.402 -0.714,0.184 0,0"
                         style="fill:#231f20;fill-opacity:1;fill-rule:nonzero;stroke:none"
                         id="path61921" />
                    </g>
                  </g>
                </g>
              </g>
              <g
                 id="g61923">
                <g
                   id="g61925" />
                <g
                   id="g61927">
                  <g
                     style="opacity:0.39999396"
                     clip-path="url(#clipPath61891)"
                     id="g61929">
                    <g
                       transform="translate(942.6094,148.7168)"
                       id="g61931">
                      <path
                         inkscape:connector-curvature="0"
                         d="m 0,0 c 0.641,-0.165 1.52,-0.3 2.554,-0.391 l 0,2.062 C 1.52,1.58 0.641,1.444 0,1.279 L 0,0 z"
                         style="fill:#231f20;fill-opacity:1;fill-rule:nonzero;stroke:none"
                         id="path61933" />
                    </g>
                  </g>
                </g>
              </g>
            </g>
          </g>
        </g>
        <g
           id="g61935">
          <g
             id="g61937" />
          <g
             id="g61943">
            <g
               clip-path="url(#clipPath61939)"
               id="g61945">
              <g
                 transform="translate(941.1699,116.8779)"
                 id="g61947">
                <path
                   inkscape:connector-curvature="0"
                   d="m 0,0 c 0.561,-0.657 3.5,-1.158 7.044,-1.158 3.543,0 6.483,0.501 7.043,1.158 C 12.47,-0.332 9.917,-0.546 7.044,-0.546 4.17,-0.546 1.617,-0.332 0,0"
                   style="fill:#386b95;fill-opacity:1;fill-rule:nonzero;stroke:none"
                   id="path61949" />
              </g>
            </g>
          </g>
        </g>
        <g
           id="g61951"
           transform="translate(947.2988,147.9551)">
          <path
             inkscape:connector-curvature="0"
             d="M 0,0 C -0.098,2.857 0.31,9.787 1.521,16.25 3.066,24.506 5.33,29.324 8.25,30.574 L 8.73,29.45 C 2.957,26.979 1.018,6.055 1.223,0.043 L 0,0 z"
             style="fill:#597f5c;fill-opacity:1;fill-rule:nonzero;stroke:none"
             id="path61953" />
        </g>
        <g
           id="g61955"
           transform="translate(948.3125,150.5186)">
          <path
             inkscape:connector-curvature="0"
             d="m 0,0 c 3.774,0 6.834,-0.521 6.834,-1.162 0,-0.642 -3.06,-1.162 -6.834,-1.162 -3.774,0 -6.834,0.52 -6.834,1.162 C -6.834,-0.521 -3.774,0 0,0 m -6.532,-2.246 c 0.734,-0.236 1.74,-0.431 2.925,-0.562 1.08,-0.121 2.305,-0.189 3.607,-0.189 3.743,0 6.871,0.562 7.644,1.311 0.026,0.062 0.053,0.124 0.082,0.187 0,0 1.019,1.449 -7.726,1.744 -8.745,-0.295 -7.726,-1.744 -7.726,-1.744 0.029,-0.063 0.056,-0.125 0.083,-0.188 0.21,-0.203 0.591,-0.391 1.111,-0.559"
             style="fill:#7497b5;fill-opacity:1;fill-rule:nonzero;stroke:none"
             id="path61957" />
        </g>
        <g
           id="g61959"
           transform="translate(948.3164,150.5186)">
          <path
             inkscape:connector-curvature="0"
             d="M 0,0 C 0.074,0 0.148,-0.001 0.223,-0.001 0.225,0.077 0.228,0.157 0.23,0.236 0.153,0.239 0.078,0.242 0,0.245 -0.346,0.232 -0.675,0.22 -0.99,0.204 -0.993,0.131 -0.995,0.06 -0.998,-0.013 -0.672,-0.005 -0.339,0 0,0"
             style="fill:#597f5c;fill-opacity:1;fill-rule:nonzero;stroke:none"
             id="path61961" />
        </g>
        <g
           id="g61963"
           transform="translate(956.5947,177.832)">
          <path
             inkscape:connector-curvature="0"
             d="M 0,0 C 0.908,-3.829 1.172,-7.045 0.588,-7.184 0.004,-7.322 -1.205,-4.33 -2.113,-0.502 -3.022,3.326 -3.285,6.542 -2.702,6.681 -2.118,6.819 -0.908,3.828 0,0"
             style="fill:#a82526;fill-opacity:1;fill-rule:nonzero;stroke:none"
             id="path61965" />
        </g>
        <g
           id="g61967"
           transform="translate(956.4209,178.2852)">
          <path
             inkscape:connector-curvature="0"
             d="M 0,0 C 1.864,-3.358 2.981,-6.395 2.494,-6.783 2.007,-7.172 0.101,-4.766 -1.765,-1.408 -3.63,1.949 -4.747,4.986 -4.26,5.375 -3.772,5.764 -1.865,3.357 0,0"
             style="fill:#a82526;fill-opacity:1;fill-rule:nonzero;stroke:none"
             id="path61969" />
        </g>
        <g
           id="g61971"
           transform="translate(956.1387,178.6523)">
          <path
             inkscape:connector-curvature="0"
             d="M 0,0 C 2.597,-2.481 4.434,-4.973 4.101,-5.564 3.77,-6.157 1.395,-4.625 -1.202,-2.144 -3.798,0.338 -5.635,2.83 -5.302,3.422 -4.971,4.014 -2.596,2.482 0,0"
             style="fill:#a82526;fill-opacity:1;fill-rule:nonzero;stroke:none"
             id="path61973" />
        </g>
        <g
           id="g61975"
           transform="translate(955.7852,178.8916)">
          <path
             inkscape:connector-curvature="0"
             d="M 0,0 C 3.015,-1.307 5.349,-2.952 5.212,-3.677 5.075,-4.4 2.521,-3.928 -0.494,-2.621 -3.51,-1.315 -5.843,0.331 -5.707,1.055 -5.569,1.778 -3.016,1.307 0,0"
             style="fill:#a82526;fill-opacity:1;fill-rule:nonzero;stroke:none"
             id="path61977" />
        </g>
        <g
           id="g61979"
           transform="translate(955.4014,178.9727)">
          <path
             inkscape:connector-curvature="0"
             d="M 0,0 C 3.069,0.025 5.62,-0.576 5.695,-1.344 5.771,-2.113 3.343,-2.757 0.272,-2.783 -2.797,-2.81 -5.347,-2.208 -5.422,-1.439 -5.497,-0.671 -3.069,-0.027 0,0"
             style="fill:#a82526;fill-opacity:1;fill-rule:nonzero;stroke:none"
             id="path61981" />
        </g>
        <g
           id="g61983"
           transform="translate(955.0342,178.8848)">
          <path
             inkscape:connector-curvature="0"
             d="M 0,0 C 2.754,1.355 5.212,1.871 5.49,1.15 5.77,0.431 3.761,-1.252 1.007,-2.608 -1.747,-3.965 -4.205,-4.479 -4.483,-3.76 -4.762,-3.039 -2.754,-1.355 0,0"
             style="fill:#a82526;fill-opacity:1;fill-rule:nonzero;stroke:none"
             id="path61985" />
        </g>
        <g
           id="g61987"
           transform="translate(954.7285,178.6406)">
          <path
             inkscape:connector-curvature="0"
             d="M 0,0 C 2.106,2.521 4.176,4.092 4.624,3.506 5.071,2.921 3.726,0.402 1.619,-2.12 -0.487,-4.642 -2.558,-6.212 -3.005,-5.626 -3.452,-5.041 -2.107,-2.522 0,0"
             style="fill:#a82526;fill-opacity:1;fill-rule:nonzero;stroke:none"
             id="path61989" />
        </g>
        <g
           id="g61991"
           transform="translate(954.5195,178.2676)">
          <path
             inkscape:connector-curvature="0"
             d="M 0,0 C 1.205,3.385 2.638,5.819 3.199,5.439 3.762,5.061 3.241,2.009 2.036,-1.375 0.832,-4.759 -0.601,-7.194 -1.163,-6.814 -1.726,-6.434 -1.205,-3.384 0,0"
             style="fill:#a82526;fill-opacity:1;fill-rule:nonzero;stroke:none"
             id="path61993" />
        </g>
        <g
           id="g61995"
           transform="translate(954.4336,177.8125)">
          <path
             inkscape:connector-curvature="0"
             d="M 0,0 C 0.158,3.838 0.78,6.845 1.39,6.717 2,6.588 2.366,3.373 2.209,-0.465 2.051,-4.303 1.429,-7.309 0.819,-7.181 0.209,-7.053 -0.157,-3.838 0,0"
             style="fill:#a82526;fill-opacity:1;fill-rule:nonzero;stroke:none"
             id="path61997" />
        </g>
        <g
           id="g61999">
          <g
             id="g62001" />
          <g
             id="g62007">
            <g
               clip-path="url(#clipPath62003)"
               id="g62009">
              <g
                 transform="translate(955.0264,182.9141)"
                 id="g62011">
                <path
                   inkscape:connector-curvature="0"
                   d="m 0,0 c -0.046,-0.618 -0.147,-1.222 -0.22,-1.829 l -0.031,-0.254 -0.158,0.209 c -0.37,0.487 -0.728,0.983 -1.079,1.485 l -0.02,0.03 -10e-4,0.022 c -0.009,0.34 -0.023,0.679 0.002,1.021 0.013,0.17 0.027,0.34 0.068,0.51 0.012,0.085 0.05,0.17 0.081,0.253 0.056,0.1 0.109,0.168 0.212,0.205 0.237,0.014 0.347,-0.166 0.453,-0.289 0.107,-0.136 0.19,-0.285 0.271,-0.433 0.163,-0.299 0.291,-0.612 0.421,-0.922 L 0,0.005 0,0 z M -0.022,0.002 C -0.165,0.306 -0.307,0.611 -0.479,0.896 -0.566,1.039 -0.655,1.182 -0.763,1.307 -0.86,1.428 -1,1.564 -1.121,1.545 -1.181,1.518 -1.229,1.451 -1.251,1.397 -1.273,1.321 -1.306,1.25 -1.314,1.168 -1.348,1.009 -1.356,0.842 -1.363,0.676 -1.376,0.344 -1.353,0.008 -1.329,-0.325 l -0.021,0.052 c 0.379,-0.488 0.752,-0.983 1.113,-1.485 l -0.19,-0.045 c 0.136,0.604 0.242,1.212 0.405,1.805"
                   style="fill:#a82526;fill-opacity:1;fill-rule:nonzero;stroke:none"
                   id="path62013" />
              </g>
              <g
                 transform="translate(956.0498,172.2461)"
                 id="g62015">
                <path
                   inkscape:connector-curvature="0"
                   d="M 0,0 C 0.045,0.619 0.147,1.223 0.22,1.83 L 0.251,2.084 0.409,1.875 C 0.779,1.387 1.137,0.893 1.488,0.389 L 1.508,0.361 1.509,0.338 C 1.518,-0.002 1.532,-0.341 1.507,-0.682 1.494,-0.853 1.48,-1.023 1.439,-1.193 1.427,-1.279 1.388,-1.363 1.358,-1.447 1.308,-1.543 1.233,-1.619 1.16,-1.646 1.016,-1.668 0.949,-1.609 0.869,-1.557 0.808,-1.493 0.739,-1.434 0.693,-1.361 0.586,-1.226 0.503,-1.076 0.422,-0.928 0.259,-0.631 0.131,-0.316 0.001,-0.006 L 0,-0.004 0,0 z m 0.022,0 c 0.143,-0.305 0.285,-0.609 0.457,-0.896 0.087,-0.142 0.176,-0.286 0.284,-0.41 0.048,-0.069 0.111,-0.116 0.169,-0.173 0.058,-0.046 0.143,-0.064 0.174,-0.07 0.089,0.038 0.117,0.097 0.145,0.153 0.022,0.076 0.055,0.146 0.063,0.23 0.034,0.158 0.042,0.326 0.049,0.491 0.013,0.332 -0.01,0.667 -0.034,1.001 L 1.35,0.275 C 0.971,0.762 0.598,1.256 0.237,1.758 l 0.19,0.045 C 0.291,1.199 0.185,0.592 0.022,0"
                   style="fill:#a82526;fill-opacity:1;fill-rule:nonzero;stroke:none"
                   id="path62017" />
              </g>
              <g
                 transform="translate(957.458,172.5781)"
                 id="g62019">
                <path
                   inkscape:connector-curvature="0"
                   d="M 0,0 C -0.136,0.633 -0.208,1.27 -0.312,1.9 L -0.354,2.15 -0.14,2.002 C 0.322,1.68 0.78,1.353 1.232,1.014 L 1.263,0.991 1.271,0.967 C 1.369,0.647 1.472,0.328 1.54,-0.001 1.577,-0.164 1.606,-0.331 1.62,-0.501 1.635,-0.668 1.644,-0.848 1.56,-1.031 1.532,-1.094 1.405,-1.188 1.313,-1.162 1.212,-1.16 1.14,-1.109 1.059,-1.074 0.914,-0.98 0.786,-0.871 0.664,-0.756 0.423,-0.523 0.212,-0.264 0.003,-0.007 L 0.001,-0.005 0,0 z m 0.021,0.004 c 0.221,-0.246 0.441,-0.494 0.688,-0.711 0.125,-0.107 0.255,-0.207 0.394,-0.289 0.072,-0.027 0.144,-0.07 0.213,-0.066 0.079,0 0.105,0.018 0.156,0.099 0.043,0.123 0.046,0.289 0.021,0.449 -0.017,0.16 -0.052,0.322 -0.094,0.481 C 1.321,0.285 1.212,0.598 1.101,0.908 L 1.139,0.861 C 0.663,1.176 0.194,1.502 -0.272,1.832 L -0.1,1.934 C -0.06,1.288 0.013,0.646 0.021,0.004"
                   style="fill:#a82526;fill-opacity:1;fill-rule:nonzero;stroke:none"
                   id="path62021" />
              </g>
              <g
                 transform="translate(953.6182,182.584)"
                 id="g62023">
                <path
                   inkscape:connector-curvature="0"
                   d="m 0,0 c 0.136,-0.635 0.208,-1.271 0.312,-1.902 l 0.042,-0.25 -0.214,0.149 c -0.462,0.322 -0.92,0.649 -1.373,0.987 l -0.031,0.024 -0.007,0.024 C -1.37,-0.648 -1.472,-0.33 -1.54,0 -1.577,0.164 -1.606,0.33 -1.62,0.5 -1.635,0.666 -1.644,0.848 -1.56,1.029 -1.532,1.094 -1.404,1.187 -1.313,1.16 -1.212,1.158 -1.14,1.107 -1.059,1.072 -0.914,0.979 -0.786,0.87 -0.664,0.754 -0.423,0.522 -0.212,0.264 -0.003,0.006 L -0.001,0.004 0,0 z M -0.021,-0.006 C -0.242,0.242 -0.462,0.488 -0.71,0.705 -0.834,0.814 -0.964,0.914 -1.103,0.995 -1.175,1.022 -1.247,1.064 -1.316,1.061 -1.395,1.062 -1.421,1.043 -1.472,0.963 -1.515,0.84 -1.518,0.673 -1.493,0.513 c 0.017,-0.16 0.052,-0.322 0.094,-0.48 0.077,-0.319 0.187,-0.631 0.297,-0.942 l -0.038,0.048 c 0.476,-0.315 0.946,-0.642 1.412,-0.973 L 0.1,-1.935 c -0.04,0.646 -0.113,1.287 -0.121,1.929"
                   style="fill:#a82526;fill-opacity:1;fill-rule:nonzero;stroke:none"
                   id="path62025" />
              </g>
              <g
                 transform="translate(954.6943,181.0918)"
                 id="g62027">
                <path
                   inkscape:connector-curvature="0"
                   d="m 0,0 -1.154,1.44 0.151,0.056 c 0.12,-0.633 0.173,-1.267 0.144,-1.921 l -0.022,-0.003 c -0.174,0.624 -0.265,1.269 -0.29,1.914 L -1.183,1.783 -1.02,1.542 0.018,0.013 0,0 z"
                   style="fill:#a82526;fill-opacity:1;fill-rule:nonzero;stroke:none"
                   id="path62029" />
              </g>
              <g
                 transform="translate(956.3818,174.0684)"
                 id="g62031">
                <path
                   inkscape:connector-curvature="0"
                   d="M 0,0 1.154,-1.439 1.003,-1.496 C 0.883,-0.862 0.83,-0.229 0.859,0.426 L 0.881,0.428 C 1.055,-0.195 1.146,-0.84 1.171,-1.484 L 1.183,-1.781 1.02,-1.541 -0.018,-0.012 0,0 z"
                   style="fill:#a82526;fill-opacity:1;fill-rule:nonzero;stroke:none"
                   id="path62033" />
              </g>
              <g
                 transform="translate(952.4414,181.6484)"
                 id="g62035">
                <path
                   inkscape:connector-curvature="0"
                   d="M 0,0 C 0.301,-0.572 0.545,-1.162 0.809,-1.744 L 0.898,-1.94 0.681,-1.891 c -0.503,0.116 -1.004,0.238 -1.504,0.371 l -0.043,0.011 -0.017,0.027 c -0.177,0.269 -0.355,0.537 -0.505,0.826 -0.078,0.14 -0.146,0.289 -0.205,0.442 -0.053,0.157 -0.113,0.304 -0.1,0.499 0.006,0.078 0.029,0.17 0.113,0.238 0.074,0.059 0.174,0.077 0.256,0.069 C -1.152,0.588 -1,0.526 -0.849,0.469 -0.551,0.342 -0.275,0.176 -0.004,0.006 L -0.002,0.005 0,0 z M -0.019,-0.011 C -0.297,0.146 -0.577,0.297 -0.873,0.407 -1.021,0.456 -1.175,0.508 -1.324,0.503 -1.398,0.507 -1.47,0.486 -1.516,0.446 -1.562,0.414 -1.582,0.338 -1.586,0.262 c 0.015,-0.277 0.174,-0.582 0.325,-0.849 0.156,-0.274 0.339,-0.534 0.525,-0.792 l -0.06,0.037 c 0.514,-0.104 1.026,-0.22 1.537,-0.343 L 0.613,-1.832 c -0.216,0.607 -0.452,1.206 -0.632,1.821"
                   style="fill:#a82526;fill-opacity:1;fill-rule:nonzero;stroke:none"
                   id="path62037" />
              </g>
              <g
                 transform="translate(958.6338,173.5117)"
                 id="g62039">
                <path
                   inkscape:connector-curvature="0"
                   d="M 0,0 C -0.301,0.573 -0.544,1.163 -0.808,1.744 L -0.897,1.941 -0.68,1.891 C -0.177,1.775 0.324,1.654 0.824,1.521 L 0.867,1.509 0.884,1.483 C 1.061,1.213 1.239,0.945 1.389,0.657 1.467,0.516 1.535,0.367 1.594,0.215 1.647,0.058 1.707,-0.09 1.694,-0.285 1.687,-0.363 1.664,-0.455 1.58,-0.523 1.506,-0.582 1.407,-0.6 1.325,-0.592 1.152,-0.587 1,-0.525 0.849,-0.469 0.551,-0.341 0.275,-0.175 0.004,-0.006 L 0.002,-0.004 0,0 z m 0.019,0.012 c 0.278,-0.157 0.558,-0.308 0.854,-0.418 0.148,-0.049 0.303,-0.1 0.451,-0.096 0.075,-0.004 0.146,0.016 0.193,0.057 0.045,0.031 0.065,0.107 0.07,0.184 C 1.572,0.015 1.413,0.32 1.263,0.588 1.106,0.862 0.923,1.122 0.737,1.38 L 0.797,1.343 C 0.283,1.447 -0.229,1.562 -0.74,1.686 l 0.128,0.146 c 0.216,-0.607 0.451,-1.205 0.631,-1.82"
                   style="fill:#a82526;fill-opacity:1;fill-rule:nonzero;stroke:none"
                   id="path62041" />
              </g>
              <g
                 transform="translate(957.2578,174.5039)"
                 id="g62043">
                <path
                   inkscape:connector-curvature="0"
                   d="M 0,0 1.433,-0.921 1.309,-1.016 C 1.026,-0.437 0.797,0.153 0.656,0.791 l 0.02,0.01 C 1.015,0.249 1.266,-0.35 1.463,-0.961 L 1.545,-1.214 1.339,-1.056 -0.012,-0.018 0,0 z"
                   style="fill:#a82526;fill-opacity:1;fill-rule:nonzero;stroke:none"
                   id="path62045" />
              </g>
              <g
                 transform="translate(953.8184,180.6562)"
                 id="g62047">
                <path
                   inkscape:connector-curvature="0"
                   d="m 0,0 -1.434,0.922 0.124,0.094 c 0.284,-0.578 0.512,-1.168 0.654,-1.807 L -0.676,-0.8 c -0.339,0.552 -0.591,1.15 -0.788,1.762 L -1.546,1.215 -1.34,1.057 0.012,0.018 0,0 z"
                   style="fill:#a82526;fill-opacity:1;fill-rule:nonzero;stroke:none"
                   id="path62049" />
              </g>
              <g
                 transform="translate(958.3066,176.3906)"
                 id="g62051">
                <path
                   inkscape:connector-curvature="0"
                   d="M 0,0 C 0.479,0.156 0.962,0.264 1.439,0.391 L 1.484,0.402 1.524,0.376 C 1.781,0.203 2.02,0.006 2.245,-0.213 2.356,-0.322 2.467,-0.435 2.558,-0.568 2.654,-0.695 2.735,-0.836 2.776,-1.031 2.781,-1.097 2.786,-1.199 2.732,-1.293 2.689,-1.376 2.609,-1.447 2.532,-1.478 2.375,-1.559 2.213,-1.567 2.056,-1.58 1.74,-1.592 1.434,-1.551 1.129,-1.502 L 1.107,-1.498 1.094,-1.481 -0.016,-0.006 0,0 z m 0.022,-0.019 1.16,-1.394 -0.036,0.02 c 0.301,-0.037 0.604,-0.066 0.9,-0.044 0.144,0.017 0.297,0.035 0.41,0.102 0.063,0.025 0.103,0.073 0.126,0.12 0.028,0.041 0.022,0.096 0.015,0.182 C 2.56,-0.934 2.494,-0.798 2.396,-0.689 2.31,-0.574 2.2,-0.471 2.096,-0.365 1.887,-0.152 1.637,0.021 1.409,0.221 L 1.494,0.206 C 1.001,0.128 0.514,0.032 0.022,-0.019"
                   style="fill:#a82526;fill-opacity:1;fill-rule:nonzero;stroke:none"
                   id="path62053" />
              </g>
              <g
                 transform="translate(952.7695,178.7695)"
                 id="g62055">
                <path
                   inkscape:connector-curvature="0"
                   d="m 0,0 c -0.479,-0.155 -0.962,-0.263 -1.439,-0.391 l -0.045,-0.011 -0.04,0.027 c -0.257,0.172 -0.497,0.369 -0.721,0.588 -0.112,0.109 -0.222,0.223 -0.313,0.356 -0.096,0.127 -0.178,0.267 -0.219,0.462 -0.005,0.066 -0.011,0.169 0.044,0.264 0.044,0.082 0.124,0.153 0.201,0.184 0.157,0.08 0.319,0.089 0.476,0.102 0.316,0.012 0.622,-0.03 0.927,-0.079 L -1.107,1.499 -1.094,1.481 0.016,0.006 0,0 z m -0.022,0.02 -1.16,1.394 0.036,-0.021 C -1.447,1.43 -1.751,1.459 -2.047,1.437 -2.19,1.421 -2.344,1.402 -2.457,1.336 -2.52,1.311 -2.56,1.263 -2.583,1.216 -2.611,1.174 -2.604,1.12 -2.598,1.035 -2.56,0.934 -2.495,0.799 -2.396,0.689 -2.31,0.575 -2.201,0.471 -2.097,0.366 c 0.21,-0.214 0.46,-0.386 0.688,-0.587 l -0.085,0.016 c 0.493,0.078 0.98,0.174 1.472,0.225"
                   style="fill:#a82526;fill-opacity:1;fill-rule:nonzero;stroke:none"
                   id="path62057" />
              </g>
              <g
                 transform="translate(953.1504,179.8506)"
                 id="g62059">
                <path
                   inkscape:connector-curvature="0"
                   d="m 0,0 -1.536,0.288 0.084,0.125 c 0.198,-0.23 0.402,-0.457 0.586,-0.699 0.093,-0.119 0.169,-0.252 0.255,-0.379 0.087,-0.126 0.167,-0.257 0.236,-0.398 l -0.016,-0.014 c -0.119,0.099 -0.228,0.207 -0.332,0.32 -0.103,0.113 -0.216,0.22 -0.312,0.34 -0.195,0.236 -0.369,0.489 -0.55,0.736 L -1.721,0.508 -1.501,0.445 0.004,0.021 0,0 z"
                   style="fill:#a82526;fill-opacity:1;fill-rule:nonzero;stroke:none"
                   id="path62061" />
              </g>
              <g
                 transform="translate(957.9258,175.3105)"
                 id="g62063">
                <path
                   inkscape:connector-curvature="0"
                   d="M 0,0 1.536,-0.288 1.452,-0.414 C 1.254,-0.183 1.05,0.043 0.866,0.285 0.773,0.404 0.697,0.538 0.611,0.664 0.524,0.791 0.444,0.922 0.375,1.062 L 0.391,1.076 C 0.51,0.978 0.619,0.869 0.723,0.756 0.826,0.643 0.939,0.537 1.035,0.417 1.229,0.18 1.404,-0.072 1.584,-0.32 L 1.721,-0.508 1.501,-0.446 -0.004,-0.021 0,0 z"
                   style="fill:#a82526;fill-opacity:1;fill-rule:nonzero;stroke:none"
                   id="path62065" />
              </g>
              <g
                 transform="translate(959.5947,178.5527)"
                 id="g62067">
                <path
                   inkscape:connector-curvature="0"
                   d="m 0,0 c 0.294,-0.051 0.587,-0.118 0.866,-0.236 0.14,-0.061 0.279,-0.126 0.41,-0.215 0.066,-0.044 0.125,-0.101 0.187,-0.158 0.057,-0.076 0.119,-0.164 0.126,-0.231 l 0.015,-0.053 c 0.008,-0.059 0,-0.058 0,-0.089 C 1.598,-1.029 1.603,-1.082 1.578,-1.121 1.545,-1.21 1.497,-1.283 1.437,-1.342 1.324,-1.467 1.19,-1.553 1.054,-1.627 0.778,-1.768 0.49,-1.858 0.202,-1.943 L 0.165,-1.954 0.129,-1.93 -1.262,-0.992 -1.323,-0.949 -1.267,-0.908 -0.006,0 0,0 z m -0.001,-0.023 -1.205,-0.965 -0.005,0.083 1.439,-0.892 -0.073,0.013 c 0.278,0.093 0.552,0.197 0.799,0.339 0.235,0.133 0.491,0.343 0.429,0.548 -0.036,0.139 -0.106,0.194 -0.217,0.301 -0.107,0.088 -0.231,0.162 -0.358,0.231 -0.259,0.13 -0.535,0.232 -0.809,0.342"
                   style="fill:#a82526;fill-opacity:1;fill-rule:nonzero;stroke:none"
                   id="path62069" />
              </g>
              <g
                 transform="translate(951.3037,178.4834)"
                 id="g62071">
                <path
                   inkscape:connector-curvature="0"
                   d="m 0,0 1.467,-0.834 0.132,-0.075 -0.126,-0.108 -0.001,0 L 0.238,-1.931 0.196,-1.962 0.157,-1.95 c -0.288,0.086 -0.574,0.178 -0.847,0.31 -0.136,0.069 -0.269,0.143 -0.393,0.237 -0.112,0.088 -0.251,0.23 -0.278,0.382 -0.028,0.061 -0.012,0.184 0.014,0.248 0.032,0.079 0.076,0.144 0.133,0.199 0.109,0.114 0.24,0.192 0.372,0.263 0.268,0.137 0.554,0.228 0.838,0.31 L 0,0 z m -0.003,-0.024 c -0.279,-0.096 -0.555,-0.2 -0.807,-0.344 -0.237,-0.138 -0.52,-0.367 -0.445,-0.624 0.036,-0.145 0.136,-0.216 0.249,-0.31 0.116,-0.082 0.244,-0.147 0.376,-0.207 0.266,-0.117 0.55,-0.195 0.832,-0.271 l -0.081,-0.02 1.232,0.961 0.001,0.001 0.005,-0.183 -1.362,0.997 z"
                   style="fill:#a82526;fill-opacity:1;fill-rule:nonzero;stroke:none"
                   id="path62073" />
              </g>
              <g
                 transform="translate(958.3066,176.3906)"
                 id="g62075">
                <path
                   inkscape:connector-curvature="0"
                   d="M 0,0 1.449,0.379 1.418,0.232 C 0.921,0.499 0.463,0.807 0.047,1.205 l 0.01,0.018 C 0.584,1.011 1.069,0.708 1.516,0.364 L 1.667,0.248 1.484,0.219 0.004,-0.021 0,0 z"
                   style="fill:#a82526;fill-opacity:1;fill-rule:nonzero;stroke:none"
                   id="path62077" />
              </g>
              <g
                 transform="translate(952.7695,178.7705)"
                 id="g62079">
                <path
                   inkscape:connector-curvature="0"
                   d="m 0,0 -1.449,-0.379 0.031,0.146 c 0.496,-0.266 0.954,-0.575 1.371,-0.972 l -0.012,-0.019 c -0.525,0.213 -1.01,0.516 -1.457,0.86 l -0.151,0.116 0.183,0.029 1.48,0.24 L 0,0 z"
                   style="fill:#a82526;fill-opacity:1;fill-rule:nonzero;stroke:none"
                   id="path62081" />
              </g>
              <g
                 transform="translate(951.4863,176.6289)"
                 id="g62083">
                <path
                   inkscape:connector-curvature="0"
                   d="M 0,0 C 0.521,-0.039 1.025,-0.129 1.534,-0.194 L 1.682,-0.213 1.605,-0.35 C 1.335,-0.839 1.045,-1.314 0.748,-1.789 L 0.722,-1.831 0.684,-1.836 C 0.386,-1.878 0.086,-1.913 -0.22,-1.898 c -0.152,0.011 -0.306,0.029 -0.455,0.09 -0.074,0.026 -0.147,0.069 -0.214,0.136 -0.049,0.057 -0.103,0.123 -0.111,0.214 -0.038,0.169 0.029,0.323 0.095,0.458 0.072,0.136 0.162,0.257 0.257,0.373 0.192,0.231 0.415,0.43 0.638,0.624 L -0.007,0 0,0 z m 0.001,-0.022 c -0.213,-0.206 -0.421,-0.413 -0.598,-0.646 -0.086,-0.119 -0.167,-0.24 -0.228,-0.371 -0.056,-0.128 -0.104,-0.272 -0.068,-0.395 0.002,-0.059 0.054,-0.119 0.099,-0.166 0.043,-0.036 0.097,-0.068 0.165,-0.089 0.128,-0.047 0.273,-0.059 0.415,-0.065 0.288,-0.002 0.579,0.04 0.866,0.094 L 0.588,-1.707 c 0.271,0.494 0.551,0.988 0.849,1.468 l 0.072,-0.156 c -0.506,0.124 -1.016,0.223 -1.508,0.373"
                   style="fill:#a82526;fill-opacity:1;fill-rule:nonzero;stroke:none"
                   id="path62085" />
              </g>
              <g
                 transform="translate(959.5889,178.5312)"
                 id="g62087">
                <path
                   inkscape:connector-curvature="0"
                   d="M 0,0 C -0.521,0.039 -1.025,0.13 -1.533,0.195 L -1.68,0.214 -1.604,0.35 c 0.269,0.49 0.559,0.964 0.856,1.439 l 0.026,0.042 0.038,0.005 C -0.386,1.878 -0.086,1.913 0.22,1.898 0.372,1.887 0.526,1.869 0.675,1.809 0.749,1.782 0.822,1.74 0.889,1.672 0.938,1.615 0.991,1.549 1,1.459 1.038,1.289 0.971,1.135 0.905,1 0.833,0.864 0.743,0.743 0.648,0.627 0.456,0.396 0.233,0.197 0.011,0.003 L 0.007,0 0,0 z M -0.001,0.022 C 0.212,0.228 0.42,0.436 0.597,0.668 0.683,0.787 0.764,0.908 0.825,1.039 0.881,1.168 0.929,1.311 0.893,1.435 0.891,1.493 0.839,1.555 0.794,1.6 0.751,1.637 0.698,1.668 0.629,1.689 0.501,1.736 0.356,1.748 0.214,1.754 -0.074,1.757 -0.365,1.714 -0.652,1.66 l 0.064,0.047 C -0.859,1.213 -1.138,0.72 -1.437,0.24 l -0.071,0.155 c 0.506,-0.124 1.015,-0.223 1.507,-0.373"
                   style="fill:#a82526;fill-opacity:1;fill-rule:nonzero;stroke:none"
                   id="path62089" />
              </g>
              <g
                 transform="translate(958.3516,177.6133)"
                 id="g62091">
                <path
                   inkscape:connector-curvature="0"
                   d="M 0,0 1.187,0.996 1.218,0.846 C 0.701,0.892 0.21,1.009 -0.284,1.202 l 0.002,0.022 C 0.239,1.228 0.763,1.155 1.262,1.012 L 1.439,0.961 1.293,0.86 0.014,-0.018 0,0 z"
                   style="fill:#a82526;fill-opacity:1;fill-rule:nonzero;stroke:none"
                   id="path62093" />
              </g>
              <g
                 transform="translate(952.7236,177.5479)"
                 id="g62095">
                <path
                   inkscape:connector-curvature="0"
                   d="m 0,0 -1.187,-0.997 -0.031,0.15 c 0.517,-0.045 1.008,-0.162 1.503,-0.355 L 0.283,-1.224 c -0.521,-0.004 -1.046,0.068 -1.545,0.211 l -0.177,0.051 0.146,0.101 1.279,0.878 L 0,0 z"
                   style="fill:#a82526;fill-opacity:1;fill-rule:nonzero;stroke:none"
                   id="path62097" />
              </g>
              <g
                 transform="translate(958.9229,180.2686)"
                 id="g62099">
                <path
                   inkscape:connector-curvature="0"
                   d="m 0,0 c -0.472,-0.18 -0.948,-0.312 -1.419,-0.462 l -0.151,-0.049 0.027,0.163 c 0.101,0.601 0.236,1.191 0.374,1.784 l 0.01,0.042 0.027,0.017 c 0.258,0.17 0.521,0.338 0.813,0.459 0.147,0.054 0.298,0.113 0.471,0.106 C 0.225,2.069 0.352,2.023 0.403,1.979 0.465,1.941 0.522,1.835 0.544,1.763 0.576,1.599 0.565,1.437 0.528,1.285 0.5,1.131 0.447,0.985 0.395,0.841 0.289,0.551 0.147,0.277 0.008,0.006 L 0.006,0.003 0,0 z M -0.01,0.021 C 0.116,0.298 0.242,0.573 0.331,0.862 0.419,1.147 0.501,1.458 0.437,1.732 0.402,1.8 0.399,1.841 0.326,1.888 0.261,1.929 0.226,1.935 0.149,1.932 0.014,1.935 -0.129,1.876 -0.263,1.821 -0.532,1.696 -0.784,1.526 -1.027,1.349 l 0.036,0.06 C -1.1,0.807 -1.21,0.201 -1.355,-0.395 l -0.124,0.115 c 0.492,0.103 0.978,0.225 1.469,0.301"
                   style="fill:#a82526;fill-opacity:1;fill-rule:nonzero;stroke:none"
                   id="path62101" />
              </g>
              <g
                 transform="translate(952.1523,174.8916)"
                 id="g62103">
                <path
                   inkscape:connector-curvature="0"
                   d="M 0,0 C 0.473,0.18 0.949,0.312 1.42,0.462 L 1.571,0.511 1.544,0.348 C 1.443,-0.253 1.308,-0.843 1.17,-1.437 L 1.16,-1.479 1.133,-1.496 C 0.875,-1.666 0.612,-1.833 0.32,-1.954 0.172,-2.008 0.021,-2.067 -0.151,-2.06 c -0.074,-0.009 -0.2,0.036 -0.251,0.081 -0.062,0.038 -0.119,0.144 -0.141,0.216 -0.032,0.164 -0.022,0.326 0.016,0.478 0.027,0.153 0.081,0.3 0.132,0.444 0.106,0.29 0.249,0.564 0.387,0.835 L -0.006,-0.003 0,0 z m 0.01,-0.021 c -0.125,-0.277 -0.252,-0.552 -0.341,-0.841 -0.087,-0.285 -0.169,-0.596 -0.106,-0.87 0.036,-0.068 0.039,-0.109 0.112,-0.156 0.065,-0.041 0.1,-0.047 0.177,-0.044 0.135,-0.003 0.278,0.056 0.412,0.111 0.269,0.124 0.521,0.294 0.764,0.471 L 0.992,-1.409 c 0.109,0.602 0.219,1.208 0.364,1.804 L 1.48,0.28 C 0.987,0.177 0.501,0.055 0.01,-0.021"
                   style="fill:#a82526;fill-opacity:1;fill-rule:nonzero;stroke:none"
                   id="path62105" />
              </g>
              <g
                 transform="translate(953.0176,176.3291)"
                 id="g62107">
                <path
                   inkscape:connector-curvature="0"
                   d="m 0,0 -0.784,-1.493 -0.095,0.135 c 0.471,0.166 0.949,0.263 1.461,0.302 L 0.588,-1.077 C 0.135,-1.293 -0.353,-1.449 -0.848,-1.538 L -1.054,-1.575 -0.941,-1.403 -0.02,0.011 0,0 z"
                   style="fill:#a82526;fill-opacity:1;fill-rule:nonzero;stroke:none"
                   id="path62109" />
              </g>
              <g
                 transform="translate(958.0586,178.832)"
                 id="g62111">
                <path
                   inkscape:connector-curvature="0"
                   d="M 0,0 0.783,1.492 0.878,1.357 C 0.407,1.191 -0.07,1.094 -0.582,1.055 l -0.006,0.021 c 0.453,0.215 0.941,0.372 1.434,0.461 L 1.053,1.574 0.94,1.402 0.02,-0.012 0,0 z"
                   style="fill:#a82526;fill-opacity:1;fill-rule:nonzero;stroke:none"
                   id="path62113" />
              </g>
              <g
                 transform="translate(957.8486,181.6816)"
                 id="g62115">
                <path
                   inkscape:connector-curvature="0"
                   d="M 0,0 C -0.367,-0.376 -0.76,-0.712 -1.139,-1.062 L -1.277,-1.19 -1.3,-0.996 c -0.076,0.635 -0.113,1.27 -0.151,1.909 l -0.003,0.037 0.016,0.023 c 0.179,0.267 0.362,0.535 0.584,0.777 0.116,0.116 0.231,0.236 0.39,0.314 0.063,0.043 0.196,0.07 0.277,0.045 C -0.116,2.099 -0.012,2.002 0.018,1.933 0.161,1.611 0.136,1.281 0.124,0.963 0.106,0.641 0.056,0.323 0.005,0.008 L 0.004,0.004 0,0 z m -0.017,0.016 c 0.037,0.316 0.073,0.632 0.075,0.949 0,0.312 -0.003,0.649 -0.136,0.912 -0.051,0.064 -0.06,0.1 -0.15,0.12 C -0.3,2.006 -0.335,1.988 -0.407,1.951 -0.534,1.885 -0.643,1.767 -0.747,1.653 -0.949,1.415 -1.122,1.148 -1.286,0.877 l 0.013,0.06 c 0.067,-0.64 0.135,-1.282 0.165,-1.925 l -0.162,0.066 c 0.418,0.317 0.824,0.647 1.253,0.938"
                   style="fill:#a82526;fill-opacity:1;fill-rule:nonzero;stroke:none"
                   id="path62117" />
              </g>
              <g
                 transform="translate(953.2275,173.4775)"
                 id="g62119">
                <path
                   inkscape:connector-curvature="0"
                   d="M 0,0 C 0.366,0.377 0.759,0.712 1.138,1.063 L 1.276,1.191 1.299,0.997 C 1.375,0.362 1.413,-0.274 1.451,-0.913 L 1.454,-0.95 1.438,-0.972 C 1.259,-1.24 1.075,-1.508 0.854,-1.749 0.737,-1.866 0.622,-1.986 0.463,-2.064 0.4,-2.106 0.267,-2.133 0.187,-2.108 c -0.072,0.01 -0.176,0.107 -0.206,0.176 -0.142,0.321 -0.117,0.651 -0.105,0.97 0.017,0.322 0.068,0.639 0.119,0.955 L -0.004,-0.004 0,0 z m 0.017,-0.015 c -0.037,-0.316 -0.073,-0.632 -0.075,-0.949 0,-0.312 0.003,-0.649 0.135,-0.913 0.051,-0.063 0.06,-0.099 0.15,-0.119 0.072,-0.009 0.107,0.008 0.179,0.046 0.127,0.066 0.236,0.184 0.34,0.297 0.203,0.238 0.375,0.506 0.54,0.775 L 1.273,-0.937 C 1.205,-0.297 1.138,0.346 1.107,0.989 L 1.269,0.923 C 0.851,0.606 0.445,0.276 0.017,-0.015"
                   style="fill:#a82526;fill-opacity:1;fill-rule:nonzero;stroke:none"
                   id="path62121" />
              </g>
              <g
                 transform="translate(957.4629,179.8994)"
                 id="g62123">
                <path
                   inkscape:connector-curvature="0"
                   d="M 0,0 0.289,1.81 0.434,1.716 C 0.06,1.354 -0.35,1.049 -0.811,0.782 l -0.015,0.016 c 0.338,0.4 0.727,0.763 1.152,1.068 L 0.531,2.015 0.471,1.773 0.021,-0.004 0,0 z"
                   style="fill:#a82526;fill-opacity:1;fill-rule:nonzero;stroke:none"
                   id="path62125" />
              </g>
              <g
                 transform="translate(953.6133,175.2607)"
                 id="g62127">
                <path
                   inkscape:connector-curvature="0"
                   d="m 0,0 -0.289,-1.81 -0.145,0.093 c 0.374,0.362 0.784,0.667 1.245,0.935 l 0.013,-0.016 c -0.337,-0.4 -0.726,-0.763 -1.15,-1.069 l -0.205,-0.15 0.06,0.243 0.45,1.778 L 0,0 z"
                   style="fill:#a82526;fill-opacity:1;fill-rule:nonzero;stroke:none"
                   id="path62129" />
              </g>
              <g
                 transform="translate(954.5811,172.5586)"
                 id="g62131">
                <path
                   inkscape:connector-curvature="0"
                   d="M 0,0 C 0.219,0.529 0.481,1.027 0.723,1.537 L 0.82,1.743 0.907,1.525 C 1.145,0.931 1.354,0.328 1.562,-0.279 L 1.573,-0.312 1.567,-0.334 C 1.48,-0.658 1.397,-0.982 1.271,-1.297 1.209,-1.454 1.136,-1.609 1.042,-1.756 0.979,-1.823 0.942,-1.899 0.832,-1.951 0.782,-1.986 0.743,-1.978 0.701,-1.982 0.629,-1.988 0.602,-1.946 0.552,-1.928 0.408,-1.801 0.34,-1.638 0.285,-1.479 0.227,-1.32 0.186,-1.158 0.151,-0.994 0.078,-0.668 0.038,-0.337 -0.002,-0.008 l 0,0.003 L 0,0 z m 0.021,-0.008 c 0.054,-0.326 0.108,-0.653 0.195,-0.971 0.041,-0.16 0.09,-0.318 0.152,-0.468 0.057,-0.152 0.14,-0.301 0.247,-0.39 0.027,-0.007 0.066,-0.042 0.077,-0.031 0.04,0.005 0.091,0.003 0.104,0.03 0.044,0.024 0.094,0.096 0.141,0.153 0.08,0.137 0.144,0.285 0.2,0.439 0.11,0.307 0.184,0.63 0.255,0.951 L 1.396,-0.35 C 1.159,0.25 0.925,0.854 0.718,1.465 L 0.902,1.452 C 0.608,0.963 0.335,0.463 0.021,-0.008"
                   style="fill:#a82526;fill-opacity:1;fill-rule:nonzero;stroke:none"
                   id="path62133" />
              </g>
              <g
                 transform="translate(956.4951,182.6006)"
                 id="g62135">
                <path
                   inkscape:connector-curvature="0"
                   d="m 0,0 c -0.219,-0.528 -0.481,-1.026 -0.722,-1.536 l -0.097,-0.205 -0.087,0.217 c -0.238,0.595 -0.448,1.199 -0.656,1.805 l -0.011,0.032 0.006,0.024 c 0.087,0.323 0.17,0.647 0.296,0.962 0.062,0.157 0.135,0.311 0.229,0.458 0.063,0.068 0.101,0.143 0.211,0.195 0.051,0.035 0.088,0.026 0.131,0.031 0.072,0.005 0.099,-0.037 0.149,-0.056 C -0.408,1.8 -0.34,1.638 -0.285,1.479 -0.228,1.32 -0.186,1.157 -0.151,0.994 -0.078,0.668 -0.039,0.337 0.002,0.007 l 0,-0.002 L 0,0 z m -0.021,0.008 c -0.054,0.327 -0.109,0.653 -0.195,0.971 -0.041,0.159 -0.09,0.318 -0.152,0.468 -0.057,0.152 -0.139,0.3 -0.247,0.39 C -0.642,1.845 -0.68,1.878 -0.692,1.868 -0.731,1.863 -0.783,1.866 -0.796,1.839 -0.839,1.815 -0.89,1.743 -0.936,1.687 -1.017,1.55 -1.081,1.401 -1.137,1.248 -1.247,0.94 -1.321,0.618 -1.392,0.296 l -0.004,0.056 c 0.237,-0.6 0.471,-1.203 0.679,-1.815 l -0.184,0.012 c 0.294,0.489 0.566,0.989 0.88,1.459"
                   style="fill:#a82526;fill-opacity:1;fill-rule:nonzero;stroke:none"
                   id="path62137" />
              </g>
              <g
                 transform="translate(955.6738,181.1035)"
                 id="g62139">
                <path
                   inkscape:connector-curvature="0"
                   d="m 0,0 -0.74,1.783 0.168,0.011 C -0.632,1.18 -0.76,0.586 -0.96,-0.007 l -0.021,0.003 c 0.007,0.619 0.087,1.238 0.237,1.837 L -0.669,2.132 -0.576,1.844 0.02,0.008 0,0 z"
                   style="fill:#a82526;fill-opacity:1;fill-rule:nonzero;stroke:none"
                   id="path62141" />
              </g>
              <g
                 transform="translate(955.4033,174.0576)"
                 id="g62143">
                <path
                   inkscape:connector-curvature="0"
                   d="M 0,0 0.739,-1.782 0.571,-1.794 c 0.06,0.613 0.188,1.207 0.388,1.801 L 0.98,0.003 C 0.973,-0.616 0.893,-1.233 0.743,-1.833 L 0.668,-2.132 0.575,-1.845 -0.02,-0.008 0,0 z"
                   style="fill:#a82526;fill-opacity:1;fill-rule:nonzero;stroke:none"
                   id="path62145" />
              </g>
              <g
                 transform="translate(956.6338,180.6885)"
                 id="g62147">
                <path
                   inkscape:connector-curvature="0"
                   d="M 0,0 -0.238,1.91 -0.07,1.87 C -0.302,1.353 -0.589,0.873 -0.94,0.414 l -0.02,0.009 c 0.184,0.541 0.432,1.06 0.735,1.543 L -0.068,2.214 -0.057,1.926 0.021,0.002 0,0 z"
                   style="fill:#a82526;fill-opacity:1;fill-rule:nonzero;stroke:none"
                   id="path62149" />
              </g>
              <g
                 transform="translate(954.4414,174.4717)"
                 id="g62151">
                <path
                   inkscape:connector-curvature="0"
                   d="m 0,0 0.239,-1.911 -0.168,0.04 c 0.233,0.518 0.52,0.998 0.871,1.458 l 0.02,-0.01 C 0.777,-0.964 0.529,-1.484 0.226,-1.967 L 0.069,-2.215 0.058,-1.927 -0.021,-0.002 0,0 z"
                   style="fill:#a82526;fill-opacity:1;fill-rule:nonzero;stroke:none"
                   id="path62153" />
              </g>
            </g>
          </g>
        </g>
        <g
           id="g62155"
           transform="translate(958.5869,178.3037)">
          <path
             inkscape:connector-curvature="0"
             d="m 0,0 c 0.518,-2.181 -0.428,-4.272 -2.111,-4.672 -1.685,-0.399 -3.47,1.044 -3.988,3.225 -0.517,2.18 0.429,4.272 2.113,4.672 C -2.302,3.624 -0.517,2.181 0,0"
             style="fill:#9a1c1f;fill-opacity:1;fill-rule:nonzero;stroke:none"
             id="path62157" />
        </g>
        <g
           id="g62159"
           transform="translate(958.5869,178.3037)">
          <path
             inkscape:connector-curvature="0"
             d="m 0,0 c 0.518,-2.181 -0.428,-4.272 -2.111,-4.672 -1.685,-0.399 -3.47,1.044 -3.988,3.225 -0.517,2.18 0.429,4.272 2.113,4.672 C -2.302,3.624 -0.517,2.181 0,0 z"
             style="fill:none;stroke:#68111e;stroke-width:0.25;stroke-linecap:butt;stroke-linejoin:miter;stroke-miterlimit:10;stroke-opacity:1;stroke-dasharray:none"
             id="path62161" />
        </g>
        <g
           id="g62163">
          <g
             id="g62165" />
          <g
             id="g62171">
            <g
               clip-path="url(#clipPath62167)"
               id="g62173">
              <g
                 transform="translate(957.1758,178.0576)"
                 id="g62175">
                <path
                   inkscape:connector-curvature="0"
                   d="m 0,0 c 0.366,-1.545 -0.303,-3.026 -1.497,-3.31 -1.192,-0.283 -2.457,0.741 -2.824,2.285 -0.366,1.546 0.303,3.026 1.497,3.309 C -1.631,2.567 -0.366,1.544 0,0"
                   style="fill:#9a1c1f;fill-opacity:1;fill-rule:nonzero;stroke:none"
                   id="path62177" />
              </g>
            </g>
          </g>
        </g>
        <g
           id="g62179"
           transform="translate(949.2998,148.207)">
          <path
             inkscape:connector-curvature="0"
             d="m 0,0 c -0.183,2.324 -1.179,7.865 -2.75,12.995 -2.006,6.552 -4.28,10.252 -6.762,10.999 l -0.287,-0.955 c 4.906,-1.477 8.43,-18.158 8.812,-23.052 L 0,0 z"
             style="fill:#597f5c;fill-opacity:1;fill-rule:nonzero;stroke:none"
             id="path62181" />
        </g>
        <g
           id="g62183"
           transform="translate(939.0039,171.541)">
          <path
             inkscape:connector-curvature="0"
             d="m 0,0 c -0.387,-3.188 -0.307,-5.818 0.179,-5.878 0.485,-0.059 1.193,2.477 1.58,5.663 C 2.147,2.972 2.066,5.604 1.582,5.662 1.096,5.721 0.387,3.186 0,0"
             style="fill:#fbb03b;fill-opacity:1;fill-rule:nonzero;stroke:none"
             id="path62185" />
        </g>
        <g
           id="g62187"
           transform="translate(939.1035,171.9229)">
          <path
             inkscape:connector-curvature="0"
             d="m 0,0 c -1.205,-2.892 -1.834,-5.456 -1.403,-5.726 0.43,-0.271 1.757,1.854 2.963,4.747 C 2.765,1.913 3.395,4.476 2.964,4.747 2.532,5.018 1.206,2.894 0,0"
             style="fill:#fbb03b;fill-opacity:1;fill-rule:nonzero;stroke:none"
             id="path62189" />
        </g>
        <g
           id="g62191"
           transform="translate(939.2988,172.2471)">
          <path
             inkscape:connector-curvature="0"
             d="m 0,0 c -1.879,-2.249 -3.141,-4.437 -2.816,-4.886 0.322,-0.449 2.108,1.009 3.986,3.258 C 3.048,0.62 4.311,2.808 3.986,3.258 3.664,3.708 1.878,2.249 0,0"
             style="fill:#fbb03b;fill-opacity:1;fill-rule:nonzero;stroke:none"
             id="path62193" />
        </g>
        <g
           id="g62195"
           transform="translate(939.5635,172.4736)">
          <path
             inkscape:connector-curvature="0"
             d="m 0,0 c -2.324,-1.335 -4.066,-2.882 -3.89,-3.456 0.177,-0.574 2.204,0.041 4.53,1.376 2.326,1.333 4.067,2.881 3.891,3.456 C 4.354,1.95 2.326,1.333 0,0"
             style="fill:#fbb03b;fill-opacity:1;fill-rule:nonzero;stroke:none"
             id="path62197" />
        </g>
        <g
           id="g62199"
           transform="translate(939.8682,172.5742)">
          <path
             inkscape:connector-curvature="0"
             d="m 0,0 c -2.492,-0.26 -4.504,-0.98 -4.495,-1.609 0.009,-0.63 2.036,-0.931 4.527,-0.672 2.49,0.258 4.503,0.978 4.494,1.608 C 4.518,-0.043 2.49,0.258 0,0"
             style="fill:#fbb03b;fill-opacity:1;fill-rule:nonzero;stroke:none"
             id="path62201" />
        </g>
        <g
           id="g62203"
           transform="translate(940.1729,172.5371)">
          <path
             inkscape:connector-curvature="0"
             d="m 0,0 c -2.355,0.848 -4.396,1.041 -4.556,0.432 -0.161,-0.61 1.622,-1.791 3.978,-2.639 C 1.778,-3.056 3.817,-3.249 3.979,-2.64 4.138,-2.03 2.356,-0.85 0,0"
             style="fill:#fbb03b;fill-opacity:1;fill-rule:nonzero;stroke:none"
             id="path62205" />
        </g>
        <g
           id="g62207"
           transform="translate(940.4434,172.3662)">
          <path
             inkscape:connector-curvature="0"
             d="m 0,0 c -1.937,1.853 -3.759,2.937 -4.068,2.421 -0.31,-0.516 1.01,-2.435 2.949,-4.287 C 0.818,-3.719 2.64,-4.804 2.949,-4.287 3.259,-3.772 1.938,-1.853 0,0"
             style="fill:#fbb03b;fill-opacity:1;fill-rule:nonzero;stroke:none"
             id="path62209" />
        </g>
        <g
           id="g62211"
           transform="translate(940.6465,172.084)">
          <path
             inkscape:connector-curvature="0"
             d="M 0,0 C -1.285,2.633 -2.669,4.477 -3.089,4.117 -3.511,3.758 -2.811,1.332 -1.525,-1.301 -0.24,-3.936 1.144,-5.779 1.564,-5.42 1.986,-5.061 1.286,-2.635 0,0"
             style="fill:#fbb03b;fill-opacity:1;fill-rule:nonzero;stroke:none"
             id="path62213" />
        </g>
        <g
           id="g62215"
           transform="translate(940.7578,171.7217)">
          <path
             inkscape:connector-curvature="0"
             d="M 0,0 C -0.479,3.097 -1.257,5.478 -1.739,5.318 -2.223,5.159 -2.227,2.519 -1.748,-0.578 -1.27,-3.675 -0.491,-6.056 -0.009,-5.896 0.474,-5.736 0.477,-3.097 0,0"
             style="fill:#fbb03b;fill-opacity:1;fill-rule:nonzero;stroke:none"
             id="path62217" />
        </g>
        <g
           id="g62219">
          <g
             id="g62221" />
          <g
             id="g62227">
            <g
               clip-path="url(#clipPath62223)"
               id="g62229">
              <g
                 transform="translate(939.8301,175.8066)"
                 id="g62231">
                <path
                   inkscape:connector-curvature="0"
                   d="m 0,0 c 0.186,-0.465 0.327,-0.949 0.492,-1.426 l -0.157,0.02 c 0.246,0.439 0.503,0.875 0.766,1.304 L 1.089,-0.146 C 1.077,0.127 1.065,0.4 1.024,0.67 1.005,0.803 0.982,0.937 0.941,1.063 0.926,1.131 0.894,1.185 0.868,1.244 0.847,1.285 0.801,1.336 0.75,1.352 0.649,1.356 0.55,1.232 0.48,1.126 0.405,1.016 0.346,0.891 0.289,0.768 0.174,0.52 0.088,0.26 0,0 M -0.019,0.002 C 0.059,0.266 0.134,0.532 0.239,0.789 0.291,0.916 0.346,1.045 0.419,1.165 0.494,1.275 0.567,1.43 0.76,1.441 0.928,1.404 1.001,1.212 1.039,1.097 1.088,0.963 1.115,0.825 1.141,0.688 1.192,0.414 1.212,0.138 1.235,-0.139 L 1.236,-0.157 1.224,-0.182 C 0.985,-0.622 0.74,-1.057 0.485,-1.485 L 0.376,-1.67 0.328,-1.466 C 0.213,-0.98 0.075,-0.5 -0.018,-0.003 L -0.019,0 l 0,0.002 z"
                   style="fill:#fbb03b;fill-opacity:1;fill-rule:nonzero;stroke:none"
                   id="path62233" />
              </g>
              <g
                 transform="translate(939.9365,167.0586)"
                 id="g62235">
                <path
                   inkscape:connector-curvature="0"
                   d="m 0,0 c -0.186,0.466 -0.327,0.949 -0.491,1.426 l 0.157,-0.02 C -0.58,0.967 -0.837,0.532 -1.1,0.104 l 0.012,0.042 c 0.011,-0.272 0.023,-0.546 0.064,-0.814 0.02,-0.134 0.043,-0.269 0.084,-0.394 0.053,-0.131 0.063,-0.249 0.204,-0.292 0.024,0.008 0.091,0.03 0.134,0.074 0.041,0.05 0.089,0.094 0.122,0.155 0.076,0.11 0.134,0.234 0.191,0.358 C -0.175,-0.52 -0.088,-0.259 0,0 m 0.019,-0.002 c -0.078,-0.264 -0.153,-0.529 -0.258,-0.786 -0.052,-0.128 -0.106,-0.256 -0.18,-0.376 -0.08,-0.108 -0.135,-0.27 -0.352,-0.273 -0.063,0.015 -0.13,0.071 -0.179,0.144 -0.032,0.064 -0.071,0.129 -0.089,0.197 -0.049,0.135 -0.076,0.272 -0.102,0.409 -0.051,0.275 -0.07,0.55 -0.093,0.827 l -0.001,0.018 0.012,0.026 c 0.239,0.439 0.484,0.873 0.739,1.301 L -0.375,1.67 -0.327,1.467 C -0.213,0.98 -0.075,0.501 0.019,0.004 l 0,-0.004 0,-0.002 z"
                   style="fill:#fbb03b;fill-opacity:1;fill-rule:nonzero;stroke:none"
                   id="path62237" />
              </g>
              <g
                 transform="translate(938.7666,167.2051)"
                 id="g62239">
                <path
                   inkscape:connector-curvature="0"
                   d="M 0,0 C -0.052,0.521 -0.053,1.047 -0.079,1.574 L 0.07,1.508 C -0.277,1.197 -0.628,0.89 -0.985,0.592 l 0.026,0.041 c -0.062,-0.262 -0.122,-0.526 -0.156,-0.791 -0.019,-0.133 -0.032,-0.266 -0.032,-0.398 -0.005,-0.131 0.012,-0.266 0.058,-0.362 0.049,-0.061 0.072,-0.073 0.136,-0.065 0.057,0.003 0.111,0.044 0.167,0.073 0.105,0.078 0.202,0.171 0.293,0.269 0.181,0.2 0.337,0.42 0.493,0.641 m 0.016,-0.008 c -0.147,-0.228 -0.293,-0.457 -0.468,-0.668 -0.088,-0.104 -0.183,-0.205 -0.291,-0.293 -0.063,-0.036 -0.116,-0.084 -0.198,-0.095 -0.072,-0.031 -0.184,0.035 -0.212,0.084 -0.085,0.139 -0.095,0.287 -0.098,0.423 -0.005,0.139 0.004,0.277 0.02,0.412 0.025,0.274 0.079,0.541 0.129,0.81 l 0.004,0.021 0.023,0.021 c 0.336,0.315 0.678,0.622 1.022,0.926 L 0.106,1.773 0.097,1.566 C 0.07,1.045 0.069,0.523 0.018,-0.003 l 0,-0.003 -0.002,-0.002 z"
                   style="fill:#fbb03b;fill-opacity:1;fill-rule:nonzero;stroke:none"
                   id="path62241" />
              </g>
              <g
                 transform="translate(941.001,175.6621)"
                 id="g62243">
                <path
                   inkscape:connector-curvature="0"
                   d="m 0,0 c 0.052,-0.522 0.052,-1.049 0.078,-1.576 l -0.149,0.066 c 0.348,0.311 0.7,0.619 1.057,0.917 L 0.96,-0.635 C 1.021,-0.372 1.081,-0.109 1.115,0.156 1.134,0.289 1.146,0.423 1.147,0.555 1.151,0.687 1.134,0.821 1.089,0.917 1.04,0.979 1.017,0.99 0.953,0.982 0.896,0.979 0.842,0.938 0.786,0.91 0.681,0.831 0.585,0.738 0.493,0.639 0.312,0.44 0.156,0.221 0,0 M -0.016,0.008 C 0.131,0.234 0.277,0.465 0.452,0.674 0.54,0.779 0.635,0.879 0.743,0.969 0.806,1.004 0.86,1.053 0.942,1.063 1.013,1.094 1.125,1.029 1.153,0.979 1.238,0.84 1.248,0.692 1.251,0.557 1.256,0.417 1.247,0.279 1.231,0.143 1.206,-0.131 1.153,-0.398 1.103,-0.666 L 1.099,-0.687 1.076,-0.709 C 0.739,-1.024 0.397,-1.331 0.052,-1.635 l -0.16,-0.14 0.01,0.207 c 0.028,0.521 0.028,1.043 0.08,1.57 l 0,0.004 0.002,0.002 z"
                   style="fill:#fbb03b;fill-opacity:1;fill-rule:nonzero;stroke:none"
                   id="path62245" />
              </g>
              <g
                 transform="translate(940.2324,174.3652)"
                 id="g62247">
                <path
                   inkscape:connector-curvature="0"
                   d="M 0,0 0.7,1.334 0.811,1.545 0.829,1.303 C 0.867,0.777 0.852,0.246 0.768,-0.275 l -0.018,0 C 0.667,0.253 0.651,0.771 0.69,1.296 L 0.819,1.264 0.016,-0.009 0,0 z"
                   style="fill:#fbb03b;fill-opacity:1;fill-rule:nonzero;stroke:none"
                   id="path62249" />
              </g>
              <g
                 transform="translate(939.5352,168.5)"
                 id="g62251">
                <path
                   inkscape:connector-curvature="0"
                   d="m 0,0 -0.7,-1.333 -0.111,-0.21 -0.018,0.241 c -0.039,0.525 -0.024,1.056 0.06,1.577 l 0.018,0 c 0.084,-0.527 0.1,-1.046 0.061,-1.57 L -0.819,-1.264 -0.016,0.01 0,0 z"
                   style="fill:#fbb03b;fill-opacity:1;fill-rule:nonzero;stroke:none"
                   id="path62253" />
              </g>
              <g
                 transform="translate(942.04,175.0059)"
                 id="g62255">
                <path
                   inkscape:connector-curvature="0"
                   d="m 0,0 c -0.09,-0.515 -0.228,-1.021 -0.348,-1.533 l -0.117,0.107 c 0.403,0.146 0.809,0.286 1.216,0.418 L 0.706,-1.043 c 0.127,0.225 0.252,0.452 0.354,0.689 0.097,0.231 0.198,0.493 0.185,0.717 C 1.234,0.425 1.212,0.485 1.172,0.508 1.131,0.536 1.071,0.546 1.012,0.536 0.891,0.525 0.771,0.471 0.654,0.417 0.425,0.301 0.211,0.152 0,0 M -0.013,0.013 C 0.19,0.175 0.399,0.335 0.629,0.465 0.746,0.525 0.864,0.589 1.004,0.608 1.136,0.66 1.329,0.529 1.33,0.393 1.363,0.093 1.258,-0.148 1.168,-0.398 1.073,-0.646 0.953,-0.879 0.835,-1.114 L 0.823,-1.137 0.79,-1.15 C 0.396,-1.304 0.001,-1.448 -0.396,-1.588 l -0.173,-0.06 0.055,0.168 c 0.161,0.496 0.306,0.996 0.497,1.488 l 0.002,0.004 0.002,10e-4 z"
                   style="fill:#fbb03b;fill-opacity:1;fill-rule:nonzero;stroke:none"
                   id="path62257" />
              </g>
              <g
                 transform="translate(937.7285,167.8594)"
                 id="g62259">
                <path
                   inkscape:connector-curvature="0"
                   d="M 0,0 C 0.09,0.516 0.227,1.021 0.346,1.533 L 0.463,1.426 C 0.06,1.28 -0.346,1.14 -0.752,1.009 l 0.045,0.035 C -0.834,0.818 -0.959,0.591 -1.061,0.354 -1.158,0.123 -1.259,-0.139 -1.246,-0.363 c 0.017,-0.141 0.105,-0.188 0.234,-0.172 0.121,0.01 0.241,0.065 0.358,0.119 C -0.425,-0.3 -0.211,-0.152 0,0 m 0.013,-0.012 c -0.204,-0.162 -0.412,-0.322 -0.642,-0.453 -0.117,-0.059 -0.236,-0.123 -0.375,-0.142 -0.133,-0.053 -0.326,0.078 -0.327,0.214 -0.033,0.3 0.073,0.542 0.162,0.791 0.095,0.248 0.215,0.482 0.333,0.717 l 0.012,0.022 0.033,0.013 c 0.394,0.155 0.788,0.298 1.186,0.438 L 0.566,1.648 0.512,1.48 C 0.351,0.984 0.207,0.484 0.017,-0.008 L 0.015,-0.011 0.013,-0.012 z"
                   style="fill:#fbb03b;fill-opacity:1;fill-rule:nonzero;stroke:none"
                   id="path62261" />
              </g>
              <g
                 transform="translate(938.7812,168.7686)"
                 id="g62263">
                <path
                   inkscape:connector-curvature="0"
                   d="m 0,0 -1.001,-0.965 -0.152,-0.147 0.043,0.213 c 0.104,0.513 0.254,1.021 0.477,1.5 l 0.018,-0.006 c -0.057,-0.53 -0.189,-1.031 -0.364,-1.524 l -0.11,0.065 1.077,0.878 L 0,0 z"
                   style="fill:#fbb03b;fill-opacity:1;fill-rule:nonzero;stroke:none"
                   id="path62265" />
              </g>
              <g
                 transform="translate(940.9854,174.0967)"
                 id="g62267">
                <path
                   inkscape:connector-curvature="0"
                   d="M 0,0 1.003,0.966 1.155,1.112 1.112,0.899 C 1.007,0.386 0.857,-0.122 0.633,-0.601 l -0.018,0.006 c 0.058,0.531 0.19,1.032 0.366,1.525 L 1.091,0.864 0.012,-0.014 0,0 z"
                   style="fill:#fbb03b;fill-opacity:1;fill-rule:nonzero;stroke:none"
                   id="path62269" />
              </g>
              <g
                 transform="translate(937.7314,170.1992)"
                 id="g62271">
                <path
                   inkscape:connector-curvature="0"
                   d="m 0,0 c -0.402,-0.004 -0.807,0.029 -1.214,0.047 l 0.068,0.019 c -0.166,-0.182 -0.353,-0.345 -0.503,-0.537 -0.076,-0.094 -0.155,-0.189 -0.214,-0.29 -0.071,-0.096 -0.111,-0.213 -0.132,-0.298 0.002,-0.068 0.002,-0.115 0.028,-0.145 0.024,-0.036 0.061,-0.07 0.113,-0.086 0.098,-0.044 0.224,-0.044 0.342,-0.044 0.241,0.009 0.486,0.06 0.726,0.117 L -0.812,-1.236 0,0 z m 0.029,0.014 -0.765,-1.297 -0.009,-0.016 -0.018,-0.005 c -0.242,-0.067 -0.487,-0.129 -0.744,-0.148 -0.128,-0.004 -0.26,-0.012 -0.394,0.04 -0.066,0.017 -0.138,0.068 -0.18,0.131 -0.053,0.072 -0.057,0.154 -0.06,0.209 0.016,0.162 0.069,0.283 0.136,0.394 0.062,0.117 0.14,0.219 0.221,0.318 0.162,0.197 0.338,0.38 0.53,0.542 l 0.03,0.025 0.037,-0.006 C -0.788,0.143 -0.387,0.1 0.016,0.017 L 0.029,0.014 z"
                   style="fill:#fbb03b;fill-opacity:1;fill-rule:nonzero;stroke:none"
                   id="path62273" />
              </g>
              <g
                 transform="translate(942.0361,172.667)"
                 id="g62275">
                <path
                   inkscape:connector-curvature="0"
                   d="M 0,0 C 0.402,0.004 0.807,-0.03 1.214,-0.048 L 1.146,-0.067 C 1.312,0.116 1.499,0.278 1.65,0.471 1.726,0.565 1.804,0.659 1.864,0.761 1.934,0.857 1.974,0.974 1.995,1.058 1.993,1.128 1.994,1.173 1.968,1.204 1.943,1.239 1.906,1.274 1.854,1.289 1.756,1.333 1.631,1.334 1.512,1.334 1.271,1.325 1.026,1.273 0.786,1.216 L 0.812,1.236 0,0 z M -0.029,-0.015 0.736,1.283 0.745,1.298 0.763,1.304 C 1.005,1.37 1.25,1.433 1.507,1.452 1.636,1.455 1.768,1.463 1.902,1.411 1.968,1.395 2.039,1.344 2.082,1.281 2.135,1.21 2.139,1.125 2.142,1.071 2.126,0.91 2.072,0.789 2.006,0.677 1.944,0.561 1.865,0.459 1.784,0.36 1.622,0.163 1.446,-0.02 1.254,-0.183 l -0.03,-0.025 -0.037,0.006 c -0.399,0.059 -0.8,0.102 -1.203,0.185 l -0.013,0.002 z"
                   style="fill:#fbb03b;fill-opacity:1;fill-rule:nonzero;stroke:none"
                   id="path62277" />
              </g>
              <g
                 transform="translate(941.6064,173.5078)"
                 id="g62279">
                <path
                   inkscape:connector-curvature="0"
                   d="M 0,0 1.183,0.481 1.347,0.549 1.262,0.387 C 1.029,-0.055 0.76,-0.481 0.421,-0.854 l -0.014,0.01 c 0.189,0.473 0.446,0.891 0.739,1.295 L 1.226,0.356 0.006,-0.018 0,0 z"
                   style="fill:#fbb03b;fill-opacity:1;fill-rule:nonzero;stroke:none"
                   id="path62281" />
              </g>
              <g
                 transform="translate(938.1602,169.3574)"
                 id="g62283">
                <path
                   inkscape:connector-curvature="0"
                   d="m 0,0 -1.182,-0.48 -0.164,-0.068 0.085,0.161 c 0.233,0.443 0.502,0.869 0.841,1.241 L -0.406,0.845 C -0.594,0.372 -0.852,-0.047 -1.146,-0.45 L -1.225,-0.355 -0.006,0.018 0,0 z"
                   style="fill:#fbb03b;fill-opacity:1;fill-rule:nonzero;stroke:none"
                   id="path62285" />
              </g>
              <g
                 transform="translate(936.5098,171.832)"
                 id="g62287">
                <path
                   inkscape:connector-curvature="0"
                   d="m 0,0 c -0.213,-0.113 -0.427,-0.222 -0.625,-0.35 -0.097,-0.068 -0.19,-0.138 -0.27,-0.22 -0.081,-0.096 -0.131,-0.148 -0.147,-0.264 -0.032,-0.172 0.194,-0.319 0.397,-0.405 0.213,-0.093 0.445,-0.153 0.678,-0.202 L -0.024,-1.459 1.061,-0.604 1.063,-0.672 0,0 z M 0.001,0.02 1.106,-0.602 1.155,-0.63 1.109,-0.67 0.067,-1.558 0.041,-1.58 0.01,-1.574 c -0.241,0.042 -0.484,0.09 -0.72,0.178 -0.117,0.048 -0.233,0.105 -0.337,0.196 -0.054,0.043 -0.099,0.097 -0.134,0.167 -0.029,0.047 -0.052,0.181 -0.034,0.226 0.01,0.129 0.132,0.274 0.218,0.344 0.099,0.084 0.205,0.151 0.312,0.211 0.216,0.122 0.449,0.203 0.682,0.272 l 0.004,0 z"
                   style="fill:#fbb03b;fill-opacity:1;fill-rule:nonzero;stroke:none"
                   id="path62289" />
              </g>
              <g
                 transform="translate(943.2383,172.5322)"
                 id="g62291">
                <path
                   inkscape:connector-curvature="0"
                   d="m 0,0 -1.014,-0.933 -0.01,0.149 1.086,-0.667 -0.068,0.009 c 0.223,0.087 0.445,0.175 0.651,0.295 0.1,0.06 0.199,0.125 0.285,0.203 0.084,0.086 0.158,0.152 0.174,0.273 0.037,0.215 -0.213,0.375 -0.417,0.465 C 0.469,-0.111 0.235,-0.052 0,0 M 0,0.019 C 0.237,-0.021 0.478,-0.069 0.707,-0.156 0.82,-0.202 0.935,-0.254 1.032,-0.337 1.083,-0.376 1.126,-0.425 1.158,-0.485 1.185,-0.534 1.21,-0.633 1.193,-0.685 1.184,-0.811 1.085,-0.938 1.002,-1.021 0.91,-1.108 0.809,-1.181 0.705,-1.248 0.495,-1.38 0.271,-1.481 0.047,-1.577 l -0.031,-0.013 -0.037,0.022 -1.084,0.628 0,0.001 -0.113,0.075 0.101,0.072 1.113,0.811 0.004,0 z"
                   style="fill:#fbb03b;fill-opacity:1;fill-rule:nonzero;stroke:none"
                   id="path62293" />
              </g>
              <g
                 transform="translate(937.7461,170.1982)"
                 id="g62295">
                <path
                   inkscape:connector-curvature="0"
                   d="m 0,0 -1.222,0.059 -0.151,0.006 0.112,0.11 c 0.331,0.319 0.697,0.609 1.105,0.829 L -0.146,0.99 C -0.447,0.63 -0.791,0.338 -1.169,0.077 L -1.208,0.192 0.002,0.018 0,0 z"
                   style="fill:#fbb03b;fill-opacity:1;fill-rule:nonzero;stroke:none"
                   id="path62297" />
              </g>
              <g
                 transform="translate(942.0215,172.668)"
                 id="g62299">
                <path
                   inkscape:connector-curvature="0"
                   d="M 0,0 1.222,-0.059 1.373,-0.066 1.261,-0.175 C 0.93,-0.494 0.564,-0.784 0.156,-1.005 l -0.01,0.015 c 0.301,0.36 0.645,0.652 1.023,0.913 L 1.208,-0.192 -0.002,-0.018 0,0 z"
                   style="fill:#fbb03b;fill-opacity:1;fill-rule:nonzero;stroke:none"
                   id="path62301" />
              </g>
              <g
                 transform="translate(943.2568,171.0127)"
                 id="g62303">
                <path
                   inkscape:connector-curvature="0"
                   d="m 0,0 c -0.386,-0.167 -0.79,-0.293 -1.188,-0.439 l 0.043,0.132 c 0.286,-0.362 0.557,-0.737 0.823,-1.113 l -0.057,0.033 c 0.237,-0.018 0.478,-0.026 0.71,0.003 0.115,0.018 0.231,0.04 0.331,0.09 0.054,0.023 0.094,0.055 0.126,0.088 0.032,0.041 0.069,0.095 0.066,0.143 C 0.876,-0.847 0.696,-0.64 0.543,-0.47 0.379,-0.296 0.19,-0.147 0,0 M 0.007,0.017 C 0.206,-0.12 0.404,-0.263 0.581,-0.431 0.669,-0.517 0.753,-0.606 0.823,-0.71 0.889,-0.813 0.958,-0.933 0.942,-1.073 0.935,-1.21 0.832,-1.331 0.711,-1.386 0.596,-1.448 0.472,-1.478 0.35,-1.501 0.104,-1.54 -0.144,-1.54 -0.389,-1.533 L -0.42,-1.532 -0.445,-1.5 c -0.284,0.357 -0.563,0.716 -0.826,1.088 l -0.074,0.104 0.117,0.029 c 0.407,0.098 0.807,0.217 1.227,0.298 l 0.005,0 0.003,-0.002 z"
                   style="fill:#fbb03b;fill-opacity:1;fill-rule:nonzero;stroke:none"
                   id="path62305" />
              </g>
              <g
                 transform="translate(936.5117,171.8525)"
                 id="g62307">
                <path
                   inkscape:connector-curvature="0"
                   d="M 0,0 C 0.385,0.167 0.789,0.293 1.187,0.439 L 1.144,0.307 C 0.858,0.669 0.587,1.044 0.321,1.419 L 0.378,1.387 C 0.141,1.405 -0.099,1.413 -0.332,1.384 -0.447,1.366 -0.563,1.345 -0.663,1.294 -0.717,1.271 -0.757,1.239 -0.789,1.206 -0.821,1.164 -0.857,1.11 -0.854,1.063 -0.876,0.847 -0.695,0.64 -0.543,0.47 -0.379,0.296 -0.19,0.147 0,0 m -0.007,-0.017 c -0.198,0.137 -0.397,0.28 -0.574,0.448 -0.088,0.086 -0.172,0.175 -0.243,0.279 -0.065,0.102 -0.134,0.222 -0.119,0.363 0.008,0.137 0.11,0.257 0.232,0.313 0.114,0.062 0.238,0.092 0.36,0.115 0.247,0.04 0.494,0.039 0.739,0.032 L 0.419,1.532 0.444,1.5 C 0.728,1.143 1.007,0.784 1.271,0.412 L 1.344,0.308 1.227,0.279 C 0.82,0.181 0.42,0.062 0.001,-0.019 l -0.005,0 -0.003,0.002 z"
                   style="fill:#fbb03b;fill-opacity:1;fill-rule:nonzero;stroke:none"
                   id="path62309" />
              </g>
              <g
                 transform="translate(937.5898,171.1875)"
                 id="g62311">
                <path
                   inkscape:connector-curvature="0"
                   d="m 0,0 -1.116,0.596 -0.128,0.067 0.139,0.058 c 0.391,0.162 0.809,0.267 1.232,0.312 L 0.131,1.016 C -0.252,0.814 -0.64,0.674 -1.055,0.59 L -1.044,0.715 0.01,0.016 0,0 z"
                   style="fill:#fbb03b;fill-opacity:1;fill-rule:nonzero;stroke:none"
                   id="path62313" />
              </g>
              <g
                 transform="translate(942.1777,171.6777)"
                 id="g62315">
                <path
                   inkscape:connector-curvature="0"
                   d="M 0,0 1.117,-0.596 1.245,-0.664 1.106,-0.721 C 0.715,-0.883 0.296,-0.988 -0.127,-1.033 l -0.004,0.017 c 0.384,0.202 0.772,0.342 1.187,0.426 L 1.045,-0.715 -0.01,-0.015 0,0 z"
                   style="fill:#fbb03b;fill-opacity:1;fill-rule:nonzero;stroke:none"
                   id="path62317" />
              </g>
              <g
                 transform="translate(936.9004,173.3203)"
                 id="g62319">
                <path
                   inkscape:connector-curvature="0"
                   d="M 0,0 C 0.404,-0.016 0.81,-0.07 1.219,-0.108 L 1.129,-0.213 C 0.956,0.256 0.812,0.737 0.669,1.215 L 0.704,1.17 C 0.491,1.292 0.271,1.407 0.042,1.482 -0.072,1.516 -0.192,1.551 -0.303,1.535 -0.364,1.531 -0.393,1.522 -0.442,1.484 -0.497,1.439 -0.496,1.406 -0.519,1.348 -0.545,1.12 -0.45,0.876 -0.354,0.652 -0.255,0.426 -0.127,0.214 0,0 m -0.014,-0.013 c -0.136,0.208 -0.277,0.416 -0.388,0.642 -0.108,0.225 -0.224,0.459 -0.205,0.734 0.01,0.061 0.047,0.153 0.094,0.188 0.038,0.041 0.136,0.09 0.197,0.088 C -0.178,1.66 -0.05,1.627 0.075,1.596 0.323,1.525 0.551,1.413 0.776,1.299 L 0.8,1.287 0.812,1.253 C 0.977,0.785 1.14,0.318 1.275,-0.158 l 0.037,-0.13 -0.126,0.026 c -0.395,0.079 -0.793,0.143 -1.193,0.245 l -0.005,0.001 -0.002,0.003 z"
                   style="fill:#fbb03b;fill-opacity:1;fill-rule:nonzero;stroke:none"
                   id="path62321" />
              </g>
              <g
                 transform="translate(942.8672,169.5449)"
                 id="g62323">
                <path
                   inkscape:connector-curvature="0"
                   d="m 0,0 c -0.404,0.016 -0.811,0.07 -1.219,0.108 l 0.089,0.105 c 0.173,-0.47 0.318,-0.951 0.461,-1.43 l -0.035,0.045 c 0.213,-0.121 0.433,-0.236 0.662,-0.312 0.114,-0.033 0.235,-0.067 0.345,-0.051 0.062,0.004 0.09,0.012 0.139,0.051 0.055,0.045 0.054,0.078 0.077,0.136 C 0.545,-1.12 0.45,-0.875 0.354,-0.652 0.255,-0.426 0.127,-0.214 0,0 M 0.014,0.013 C 0.151,-0.195 0.291,-0.403 0.402,-0.629 0.51,-0.854 0.626,-1.088 0.607,-1.363 0.597,-1.424 0.56,-1.516 0.514,-1.551 0.475,-1.592 0.377,-1.641 0.316,-1.639 0.178,-1.661 0.05,-1.627 -0.075,-1.597 c -0.247,0.072 -0.476,0.183 -0.701,0.298 l -0.024,0.012 -0.012,0.033 c -0.165,0.469 -0.329,0.934 -0.464,1.411 l -0.037,0.13 0.126,-0.025 C -0.791,0.183 -0.393,0.119 0.007,0.017 L 0.012,0.016 0.014,0.013 z"
                   style="fill:#fbb03b;fill-opacity:1;fill-rule:nonzero;stroke:none"
                   id="path62325" />
              </g>
              <g
                 transform="translate(942.0557,170.6582)"
                 id="g62327">
                <path
                   inkscape:connector-curvature="0"
                   d="M 0,0 0.877,-1.062 0.983,-1.19 0.812,-1.18 c -0.409,0.028 -0.818,0.11 -1.206,0.243 l 0.004,0.017 c 0.418,0.016 0.815,-0.019 1.212,-0.111 L 0.758,-1.149 -0.014,-0.01 0,0 z"
                   style="fill:#fbb03b;fill-opacity:1;fill-rule:nonzero;stroke:none"
                   id="path62329" />
              </g>
              <g
                 transform="translate(937.7119,172.207)"
                 id="g62331">
                <path
                   inkscape:connector-curvature="0"
                   d="M 0,0 -0.877,1.062 -0.983,1.19 -0.812,1.18 C -0.404,1.152 0.005,1.07 0.393,0.937 L 0.389,0.919 C -0.029,0.904 -0.425,0.939 -0.822,1.031 L -0.758,1.149 0.014,0.01 0,0 z"
                   style="fill:#fbb03b;fill-opacity:1;fill-rule:nonzero;stroke:none"
                   id="path62333" />
              </g>
              <g
                 transform="translate(937.6484,174.5605)"
                 id="g62335">
                <path
                   inkscape:connector-curvature="0"
                   d="M 0,0 C 0.375,-0.196 0.733,-0.428 1.102,-0.645 L 0.977,-0.713 C 0.942,-0.189 0.938,0.337 0.935,0.861 L 0.95,0.814 C 0.793,1.02 0.629,1.221 0.443,1.395 0.348,1.477 0.249,1.562 0.14,1.605 0.078,1.629 0.049,1.641 -0.01,1.626 -0.08,1.601 -0.084,1.572 -0.119,1.516 -0.203,1.289 -0.175,1.016 -0.146,0.763 -0.115,0.506 -0.058,0.254 0,0 M -0.017,-0.008 C -0.086,0.243 -0.156,0.496 -0.2,0.755 -0.238,1.013 -0.289,1.278 -0.202,1.551 -0.185,1.609 -0.109,1.698 -0.053,1.713 0.01,1.74 0.121,1.732 0.176,1.703 0.312,1.654 0.416,1.566 0.521,1.483 0.723,1.307 0.896,1.107 1.065,0.906 L 1.08,0.889 1.081,0.859 C 1.108,0.338 1.136,-0.182 1.133,-0.703 L 1.132,-0.862 1.008,-0.771 c -0.339,0.25 -0.688,0.486 -1.02,0.757 l -0.004,0.003 -0.001,0.003 z"
                   style="fill:#fbb03b;fill-opacity:1;fill-rule:nonzero;stroke:none"
                   id="path62337" />
              </g>
              <g
                 transform="translate(942.1191,168.3047)"
                 id="g62339">
                <path
                   inkscape:connector-curvature="0"
                   d="m 0,0 c -0.375,0.195 -0.732,0.427 -1.101,0.645 l 0.125,0.068 c 0.035,-0.524 0.039,-1.051 0.041,-1.576 l -0.015,0.047 c 0.158,-0.204 0.322,-0.405 0.508,-0.58 0.094,-0.082 0.193,-0.166 0.302,-0.209 0.063,-0.025 0.092,-0.036 0.15,-0.022 0.071,0.025 0.075,0.055 0.11,0.111 0.083,0.225 0.055,0.499 0.026,0.752 C 0.116,-0.508 0.058,-0.254 0,0 M 0.017,0.007 C 0.086,-0.244 0.156,-0.496 0.2,-0.756 0.238,-1.014 0.289,-1.279 0.203,-1.552 0.186,-1.61 0.109,-1.699 0.053,-1.714 -0.01,-1.741 -0.12,-1.732 -0.176,-1.703 c -0.136,0.049 -0.24,0.136 -0.345,0.22 -0.202,0.175 -0.374,0.376 -0.544,0.577 l -0.015,0.015 -10e-4,0.032 c -0.027,0.521 -0.055,1.04 -0.051,1.562 l 10e-4,0.159 0.124,-0.091 C -0.668,0.521 -0.319,0.285 0.012,0.013 L 0.016,0.01 0.017,0.007 z"
                   style="fill:#fbb03b;fill-opacity:1;fill-rule:nonzero;stroke:none"
                   id="path62341" />
              </g>
              <g
                 transform="translate(938.0937,173.1328)"
                 id="g62343">
                <path
                   inkscape:connector-curvature="0"
                   d="M 0,0 -0.525,1.398 -0.597,1.589 -0.416,1.488 C -0.045,1.278 0.305,1.021 0.614,0.727 L 0.604,0.713 C 0.206,0.887 -0.153,1.098 -0.489,1.355 L -0.381,1.445 0.018,0.004 0,0 z"
                   style="fill:#fbb03b;fill-opacity:1;fill-rule:nonzero;stroke:none"
                   id="path62345" />
              </g>
              <g
                 transform="translate(941.6729,169.7324)"
                 id="g62347">
                <path
                   inkscape:connector-curvature="0"
                   d="m 0,0 0.526,-1.4 0.072,-0.191 -0.181,0.103 c -0.371,0.209 -0.72,0.467 -1.029,0.761 l 0.009,0.014 c 0.399,-0.174 0.758,-0.385 1.094,-0.644 l -0.109,-0.088 -0.4,1.44 L 0,0 z"
                   style="fill:#fbb03b;fill-opacity:1;fill-rule:nonzero;stroke:none"
                   id="path62349" />
              </g>
              <g
                 transform="translate(941.1025,167.4414)"
                 id="g62351">
                <path
                   inkscape:connector-curvature="0"
                   d="m 0,0 c -0.299,0.352 -0.565,0.732 -0.849,1.103 l 0.148,0.026 C -0.813,0.615 -0.948,0.104 -1.086,-0.403 l -10e-4,0.045 c 0.087,-0.254 0.177,-0.509 0.294,-0.748 0.06,-0.12 0.125,-0.234 0.203,-0.337 0.042,-0.043 0.09,-0.097 0.127,-0.112 0.014,-0.021 0.054,-0.015 0.087,-0.015 0.011,-0.008 0.039,0.024 0.06,0.032 0.079,0.082 0.132,0.211 0.165,0.339 0.037,0.127 0.062,0.26 0.081,0.393 C -0.029,-0.54 -0.016,-0.271 0,0 M 0.018,0.002 C 0.015,-0.27 0.013,-0.541 -0.017,-0.812 c -0.012,-0.136 -0.032,-0.272 -0.064,-0.407 -0.03,-0.133 -0.07,-0.271 -0.175,-0.386 -0.07,-0.057 -0.156,-0.082 -0.225,-0.045 -0.095,0.032 -0.131,0.09 -0.188,0.139 -0.09,0.111 -0.163,0.23 -0.228,0.351 -0.131,0.244 -0.229,0.499 -0.329,0.754 l -0.006,0.017 0.005,0.028 c 0.114,0.51 0.229,1.019 0.368,1.523 l 0.05,0.184 0.097,-0.158 C -0.47,0.797 -0.211,0.416 0.016,0.008 l 0.002,-0.004 0,-0.002 z"
                   style="fill:#fbb03b;fill-opacity:1;fill-rule:nonzero;stroke:none"
                   id="path62353" />
              </g>
              <g
                 transform="translate(938.665,175.4238)"
                 id="g62355">
                <path
                   inkscape:connector-curvature="0"
                   d="M 0,0 C 0.299,-0.353 0.565,-0.732 0.848,-1.102 L 0.7,-1.129 c 0.112,0.515 0.247,1.025 0.385,1.532 L 1.086,0.359 C 0.999,0.613 0.91,0.867 0.793,1.107 0.733,1.227 0.667,1.341 0.59,1.443 0.547,1.486 0.5,1.54 0.463,1.555 0.449,1.576 0.408,1.569 0.376,1.569 0.364,1.576 0.337,1.545 0.315,1.537 0.236,1.455 0.184,1.326 0.151,1.198 0.114,1.07 0.09,0.937 0.071,0.805 0.03,0.539 0.016,0.27 0,0 m -0.018,-0.002 c 0.003,0.27 0.005,0.542 0.036,0.814 0.011,0.135 0.031,0.27 0.063,0.405 0.03,0.133 0.07,0.271 0.175,0.387 C 0.325,1.661 0.411,1.687 0.48,1.65 0.575,1.618 0.612,1.561 0.669,1.512 0.759,1.4 0.832,1.282 0.897,1.16 1.027,0.917 1.125,0.662 1.225,0.407 L 1.231,0.389 1.226,0.361 C 1.112,-0.148 0.997,-0.657 0.858,-1.161 l -0.05,-0.185 -0.097,0.159 c -0.242,0.39 -0.501,0.77 -0.727,1.179 l -0.002,0.003 0,0.003 z"
                   style="fill:#fbb03b;fill-opacity:1;fill-rule:nonzero;stroke:none"
                   id="path62357" />
              </g>
              <g
                 transform="translate(939.4355,174.2812)"
                 id="g62359">
                <path
                   inkscape:connector-curvature="0"
                   d="M 0,0 0.315,1.543 0.364,1.784 0.452,1.549 C 0.629,1.077 0.75,0.583 0.813,0.082 L 0.796,0.078 C 0.579,0.54 0.421,1.01 0.317,1.502 L 0.454,1.508 0.018,-0.004 0,0 z"
                   style="fill:#fbb03b;fill-opacity:1;fill-rule:nonzero;stroke:none"
                   id="path62361" />
              </g>
              <g
                 transform="translate(940.3311,168.585)"
                 id="g62363">
                <path
                   inkscape:connector-curvature="0"
                   d="m 0,0 -0.315,-1.543 -0.049,-0.242 -0.088,0.235 c -0.176,0.473 -0.297,0.967 -0.36,1.468 l 0.017,0.004 c 0.216,-0.462 0.374,-0.933 0.478,-1.424 L -0.454,-1.509 -0.018,0.004 0,0 z"
                   style="fill:#fbb03b;fill-opacity:1;fill-rule:nonzero;stroke:none"
                   id="path62365" />
              </g>
              <g
                 transform="translate(938.6943,173.8525)"
                 id="g62367">
                <path
                   inkscape:connector-curvature="0"
                   d="M 0,0 -0.112,1.566 -0.129,1.802 0.021,1.614 C 0.311,1.251 0.559,0.853 0.758,0.431 L 0.742,0.422 c -0.326,0.34 -0.603,0.702 -0.839,1.1 L 0.036,1.57 0.018,0 0,0 z"
                   style="fill:#fbb03b;fill-opacity:1;fill-rule:nonzero;stroke:none"
                   id="path62369" />
              </g>
              <g
                 transform="translate(941.0742,169.0127)"
                 id="g62371">
                <path
                   inkscape:connector-curvature="0"
                   d="m 0,0 0.111,-1.567 0.017,-0.235 -0.149,0.187 c -0.291,0.363 -0.54,0.762 -0.739,1.184 l 0.016,0.01 c 0.327,-0.341 0.603,-0.703 0.84,-1.102 L -0.037,-1.571 -0.018,0 0,0 z"
                   style="fill:#fbb03b;fill-opacity:1;fill-rule:nonzero;stroke:none"
                   id="path62373" />
              </g>
            </g>
          </g>
        </g>
        <g
           id="g62375"
           transform="translate(937.3457,171.7412)">
          <path
             inkscape:connector-curvature="0"
             d="M 0,0 C -0.221,-1.815 0.737,-3.424 2.138,-3.595 3.54,-3.765 4.855,-2.433 5.076,-0.617 5.298,1.198 4.339,2.808 2.938,2.978 1.535,3.147 0.221,1.815 0,0"
             style="fill:#e5952e;fill-opacity:1;fill-rule:nonzero;stroke:none"
             id="path62377" />
        </g>
        <g
           id="g62379"
           transform="translate(937.3457,171.7412)">
          <path
             inkscape:connector-curvature="0"
             d="M 0,0 C -0.221,-1.815 0.737,-3.424 2.138,-3.595 3.54,-3.765 4.855,-2.433 5.076,-0.617 5.298,1.198 4.339,2.808 2.938,2.978 1.535,3.147 0.221,1.815 0,0 z"
             style="fill:none;stroke:#a77c39;stroke-width:0.204;stroke-linecap:butt;stroke-linejoin:miter;stroke-miterlimit:10;stroke-opacity:1;stroke-dasharray:none"
             id="path62381" />
        </g>
        <g
           id="g62383">
          <g
             id="g62385" />
          <g
             id="g62391">
            <g
               clip-path="url(#clipPath62387)"
               id="g62393">
              <g
                 transform="translate(938.5117,171.6699)"
                 id="g62395">
                <path
                   inkscape:connector-curvature="0"
                   d="m 0,0 c -0.155,-1.285 0.521,-2.426 1.517,-2.547 0.992,-0.121 1.924,0.824 2.081,2.11 C 3.753,0.85 3.076,1.989 2.082,2.11 1.089,2.23 0.156,1.285 0,0"
                   style="fill:#e5952e;fill-opacity:1;fill-rule:nonzero;stroke:none"
                   id="path62397" />
              </g>
            </g>
          </g>
        </g>
      </g>
    </g>
  </g>
</svg>
