<?xml version="1.0" encoding="UTF-8" standalone="no"?>
<!-- Created with Inkscape (http://www.inkscape.org/) -->

<svg
   xmlns:dc="http://purl.org/dc/elements/1.1/"
   xmlns:cc="http://creativecommons.org/ns#"
   xmlns:rdf="http://www.w3.org/1999/02/22-rdf-syntax-ns#"
   xmlns:svg="http://www.w3.org/2000/svg"
   xmlns="http://www.w3.org/2000/svg"
   xmlns:sodipodi="http://sodipodi.sourceforge.net/DTD/sodipodi-0.dtd"
   xmlns:inkscape="http://www.inkscape.org/namespaces/inkscape"
   width="64px"
   height="64px"
   id="svg19839"
   version="1.1"
   inkscape:version="0.48.5 r10040"
   sodipodi:docname="Nowy dokument 17">
  <defs
     id="defs19841" />
  <sodipodi:namedview
     id="base"
     pagecolor="#ffffff"
     bordercolor="#666666"
     borderopacity="1.0"
     inkscape:pageopacity="0.0"
     inkscape:pageshadow="2"
     inkscape:zoom="5.5"
     inkscape:cx="32"
     inkscape:cy="32"
     inkscape:current-layer="layer1"
     showgrid="true"
     inkscape:document-units="px"
     inkscape:grid-bbox="true"
     inkscape:window-width="1366"
     inkscape:window-height="706"
     inkscape:window-x="-8"
     inkscape:window-y="-8"
     inkscape:window-maximized="1" />
  <metadata
     id="metadata19844">
    <rdf:RDF>
      <cc:Work
         rdf:about="">
        <dc:format>image/svg+xml</dc:format>
        <dc:type
           rdf:resource="http://purl.org/dc/dcmitype/StillImage" />
        <dc:title></dc:title>
      </cc:Work>
    </rdf:RDF>
  </metadata>
  <g
     id="layer1"
     inkscape:label="Layer 1"
     inkscape:groupmode="layer">
    <path
       id="path9087"
       style="fill:#34291f;fill-opacity:1;fill-rule:nonzero;stroke:none"
       d="m 40.097562,26.079381 c -0.460075,-4.322174 -4.11692,-7.691388 -8.562665,-7.691388 -4.445043,0 -8.103284,3.369214 -8.562661,7.69348 l 5.547406,3.205852 5.29747,0 6.28045,-3.207944"
       inkscape:connector-curvature="0" />
    <path
       id="path9089"
       style="fill:#f6f7f8;fill-opacity:1;fill-rule:nonzero;stroke:none"
       d="m 39.564184,25.840615 c -0.43215,-4.054784 -3.861403,-7.212462 -8.029287,-7.212462 -4.16788,0 -7.59923,3.159076 -8.029284,7.21386 l -5.860868,23.2082 c 0,1.23221 1.804688,2.231245 4.033146,2.231245 l 19.714016,0 c 2.22776,0 4.033145,-0.999035 4.033145,-2.231245 L 39.564184,25.840615"
       inkscape:connector-curvature="0" />
    <path
       id="path9091"
       style="fill:#ecebec;fill-opacity:1;fill-rule:nonzero;stroke:none"
       d="m 39.564184,25.840615 -5.888098,-0.792384 -4.967249,0 -5.203224,0.793782 -5.860868,23.2082 c 0,1.23221 1.804688,2.231245 4.033146,2.231245 l 19.714016,0 c 2.22776,0 4.033145,-0.999035 4.033145,-2.231245 L 39.564184,25.840615"
       inkscape:connector-curvature="0" />
    <path
       id="path9093"
       style="fill:#e2e1df;fill-opacity:1;fill-rule:nonzero;stroke:none"
       d="m 28.708837,25.048231 -5.203224,0.793782 -5.860868,23.2082 c 0,1.23221 1.804688,2.231245 4.033146,2.231245 l 7.030946,-26.233227"
       inkscape:connector-curvature="0" />
    <path
       id="path9095"
       style="fill:#efefee;fill-opacity:1;fill-rule:nonzero;stroke:none"
       d="m 39.564184,25.840615 -5.888098,-0.792384 7.715821,26.233227 c 2.22776,0 4.033145,-0.999035 4.033145,-2.231245 L 39.564184,25.840615"
       inkscape:connector-curvature="0" />
    <path
       id="path9097"
       style="fill:#5e554a;fill-opacity:1;fill-rule:nonzero;stroke:none"
       d="m 31.380612,61.204095 c 1.666454,0 3.303588,-0.122874 4.909303,-0.347674 l 5.101992,-9.574963 -19.714016,0 4.362662,9.513527 c 1.741157,0.266691 3.523503,0.40911 5.340059,0.40911"
       inkscape:connector-curvature="0" />
    <path
       id="path9099"
       style="fill:#544738;fill-opacity:1;fill-rule:nonzero;stroke:none"
       d="m 17.742486,49.532625 -0.09774,-0.482412 c 0,0.165455 0.03561,0.326725 0.09774,0.482412"
       inkscape:connector-curvature="0" />
    <path
       id="path9101"
       style="fill:#544738;fill-opacity:1;fill-rule:nonzero;stroke:none"
       d="m 21.677891,51.281458 c -1.92826,0 -3.536072,-0.749098 -3.935405,-1.748833 l 1.945708,9.663626 c 2.038565,0.722572 4.161602,1.262231 6.352359,1.598734 l -4.362662,-9.513527"
       inkscape:connector-curvature="0" />
    <path
       id="path9103"
       style="fill:#6e6251;fill-opacity:1;fill-rule:nonzero;stroke:none"
       d="m 41.391907,51.281458 -5.101992,9.574963 c 2.460938,-0.346275 4.842287,-0.94388 7.113327,-1.77397 l 1.92407,-9.549826 c -0.398638,0.999735 -2.008543,1.748833 -3.935405,1.748833"
       inkscape:connector-curvature="0" />
    <path
       id="path9105"
       style="fill:#6e6251;fill-opacity:1;fill-rule:nonzero;stroke:none"
       d="m 45.327312,49.532625 c 0.06214,-0.155687 0.09774,-0.316957 0.09774,-0.482412 l -0.09774,0.482412"
       inkscape:connector-curvature="0" />
    <path
       id="path9107"
       style="fill:#544738;fill-opacity:1;fill-rule:nonzero;stroke:none"
       d="m 40.097562,26.079381 c -0.460075,-4.322174 -4.11692,-7.691388 -8.562665,-7.691388 -4.445043,0 -8.103284,3.369214 -8.562661,7.69348 l 5.547406,-0.846144 5.29747,-9.2e-4 6.28045,0.844746"
       inkscape:connector-curvature="0" />
    <path
       id="path9109"
       style="fill:#34291f;fill-opacity:1;fill-rule:nonzero;stroke:none"
       d="m 32.930478,22.099992 c 0,0.860107 -0.696744,1.557546 -1.556153,1.557546 -0.8615,0 -1.557545,-0.697439 -1.557545,-1.557546 0,-0.859408 0.696045,-1.556847 1.557545,-1.556847 0.859409,0 1.556153,0.697439 1.556153,1.556847"
       inkscape:connector-curvature="0" />
    <path
       id="path9111"
       style="fill:#4a4034;fill-opacity:1;fill-rule:nonzero;stroke:none"
       d="m 45.650551,40.830338 c -0.209444,0.20874 -0.578759,0.177325 -0.827993,-0.07121 l -0.382578,-0.383279 0.867088,-0.867782 0.832876,0.832876 -0.489393,0.489398 z m -1.230817,-2.210306 0.69744,0.698138 -0.867088,0.867088 -0.699536,-0.697443 0.869184,-0.867783 z m -0.889429,-0.888731 0.698138,0.698138 -0.867088,0.867088 -0.698138,-0.697439 0.867088,-0.867787 z m -0.983676,-0.984374 0.793083,0.793781 -0.867782,0.867788 -0.792389,-0.793782 0.867088,-0.867787 z m -0.921543,-0.920845 0.730252,0.730252 -0.866389,0.867787 -0.730951,-0.730252 0.867088,-0.867787 z m -0.888731,-0.888726 0.698837,0.698832 -0.868482,0.867088 -0.698138,-0.698837 0.867783,-0.867083 z m -0.951561,-0.952265 0.763065,0.762371 -0.868481,0.867084 -0.763066,-0.761668 0.868482,-0.867787 z m -0.888731,-0.889425 0.697444,0.698837 -0.867088,0.867088 -0.698138,-0.697443 0.867782,-0.868482 z m -0.952954,-0.951561 0.761667,0.761668 -0.867787,0.867787 -0.761667,-0.761672 0.867787,-0.867783 z m -0.88873,-0.88873 0.698836,0.697438 -0.867088,0.868487 -0.699536,-0.698138 0.867788,-0.867787 z m -0.952261,-0.952959 0.762367,0.762366 -0.868487,0.867787 -0.761667,-0.762366 0.867787,-0.867787 z m -0.88873,-0.888731 0.698138,0.698837 -0.867089,0.867088 -0.698836,-0.698138 0.867787,-0.867787 z m -1.533113,-0.553622 0.488,-0.490092 0.855918,0.85382 -0.86918,0.867089 -0.403527,-0.402824 c -0.248535,-0.249238 -0.280649,-0.619249 -0.07121,-0.827993 z m 12.661433,9.614059 0.382579,0.382579 c 0.249932,0.248535 0.281347,0.619248 0.07261,0.827993 l -0.465658,0.466353 -0.832882,-0.832877 0.843353,-0.844048 z m -11.12832,-9.440919 -0.85452,-0.853825 0.466353,-0.465659 c 0.209443,-0.208744 0.580153,-0.175931 0.827993,0.07261 l 0.403522,0.402824 -0.843348,0.844051 z m 0.88873,0.888726 -0.698137,-0.698138 0.843348,-0.844047 0.698837,0.698836 -0.844048,0.843349 z m 0.952261,0.95226 -0.761668,-0.761667 0.844048,-0.844048 0.760968,0.761667 -0.843348,0.844048 z m 0.88873,0.888731 -0.698138,-0.697439 0.844048,-0.844048 0.697439,0.698138 -0.843349,0.843349 z m 0.952954,0.952959 -0.762366,-0.762367 0.844052,-0.843353 0.761668,0.761672 -0.843354,0.844048 z m 0.888731,0.88873 -0.698837,-0.698836 0.843354,-0.843349 0.698836,0.698138 -0.843353,0.844047 z m 0.952959,0.95226 -0.762366,-0.762366 0.842654,-0.843353 0.763061,0.761672 -0.843349,0.844047 z m 0.887333,0.888731 -0.697439,-0.698138 0.843349,-0.844052 0.697443,0.698138 -0.843353,0.844052 z m 0.920146,0.920146 -0.729554,-0.729558 0.844048,-0.843349 0.729554,0.728855 -0.844048,0.844052 z m 0.985073,0.984374 -0.793782,-0.793786 0.843349,-0.843349 0.794481,0.793782 -0.844048,0.843353 z m 0.889429,0.888727 -0.699535,-0.698139 0.844047,-0.844047 0.698837,0.698138 -0.843349,0.844048 z m 0.887334,0.889429 -0.697444,-0.698837 0.843353,-0.844048 0.699536,0.699532 -0.845445,0.843353 z m 3.375495,-0.564098 c -0.01398,-0.09145 -0.05515,-0.180116 -0.124966,-0.250631 l -0.05516,-0.05375 -12.252322,-12.251619 -4.559537,-4.560939 c -0.175931,-0.175927 -0.460075,-0.175927 -0.635307,-0.0013 l -0.253423,0.25552 c -0.176627,0.174533 -0.176627,0.458673 0,0.633905 l 4.061768,4.062468 -2.126528,2.126528 c -0.27437,0.275066 -0.27437,0.721873 0.0013,0.996245 l 12.25095,12.251589 c 0.275765,0.275071 0.721877,0.275071 0.996244,0 l 2.516787,-2.516787 c 0.187102,-0.186403 0.245748,-0.45309 0.180121,-0.691157"
       inkscape:connector-curvature="0" />
    <path
       id="path9113"
       style="fill:#4a4034;fill-opacity:1;fill-rule:nonzero;stroke:none"
       d="m 17.076462,3.1664935 c 0.208745,-0.208745 0.580153,-0.175932 0.828688,0.07261 l 0.381884,0.381884 -0.867787,0.867783 -0.831484,-0.832178 0.488699,-0.490092 z m 1.231516,2.2110002 -0.69744,-0.6981382 0.867088,-0.867787 0.69744,0.698138 -0.867088,0.8677872 z m 0.88873,0.8887303 -0.698137,-0.6974385 0.867782,-0.8684859 0.698138,0.6988364 -0.867783,0.867088 z m 0.984375,0.9836765 -0.793088,-0.7930829 0.867788,-0.8677877 0.792388,0.7937818 -0.867088,0.8670888 z m 0.920146,0.9208442 -0.728859,-0.7295532 0.867088,-0.8684859 0.730252,0.7302521 -0.868481,0.867787 z m 0.888725,0.888731 -0.697438,-0.6974431 0.867787,-0.868482 0.697439,0.6988371 -0.867788,0.867088 z m 0.95296,0.9522603 -0.762367,-0.7609731 0.867787,-0.8677831 0.763066,0.7616678 -0.868486,0.8670884 z m 0.88873,0.889425 -0.697439,-0.698837 0.867089,-0.8677824 0.698137,0.6988364 -0.867787,0.867783 z m 0.952959,0.951561 -0.761667,-0.761667 0.867083,-0.867089 0.761672,0.760973 -0.867088,0.867783 z m 0.888731,0.889429 -0.698837,-0.698836 0.867088,-0.867089 0.699532,0.697444 -0.867783,0.868481 z m 0.951561,0.951562 -0.761668,-0.760969 0.868482,-0.867787 0.760274,0.761667 -0.867088,0.867089 z m 0.88873,0.889429 -0.698137,-0.698138 0.867782,-0.867787 0.699536,0.698138 -0.869181,0.867787 z m 1.533807,0.554321 -0.490092,0.490092 -0.853821,-0.853824 0.869181,-0.867783 0.402125,0.404221 c 0.249936,0.24784 0.281352,0.618549 0.07261,0.827294 z M 16.384607,5.5234035 16.003426,5.1401256 C 15.754887,4.8922903 15.722772,4.5208775 15.930816,4.3121365 l 0.465658,-0.465657 0.832877,0.832876 -0.844747,0.844048 z m 11.12832,9.4409195 0.85382,0.853126 -0.464959,0.465658 c -0.20874,0.208745 -0.578755,0.177325 -0.827993,-0.07191 l -0.402823,-0.403523 0.841955,-0.843353 z m -0.886639,-0.888731 0.697444,0.698837 -0.844747,0.843354 -0.697443,-0.698838 0.844746,-0.843353 z m -0.952954,-0.952955 0.760269,0.762367 -0.84265,0.844048 -0.762366,-0.762367 0.844747,-0.844048 z m -0.888731,-0.88873 0.698138,0.698837 -0.844048,0.843349 -0.697443,-0.698138 0.843353,-0.844048 z m -0.952959,-0.95226 0.761667,0.761668 -0.843348,0.844047 -0.761668,-0.761668 0.843349,-0.844047 z m -0.88873,-0.888731 0.698836,0.698138 -0.843348,0.843353 -0.700235,-0.697443 0.844747,-0.844048 z m -0.95296,-0.9522592 0.762372,0.7623662 -0.842655,0.844048 -0.763065,-0.763061 0.843348,-0.8433532 z M 21.101229,8.5519258 21.800065,9.2507629 20.956712,10.094116 20.258574,9.3952794 21.101229,8.5519258 z M 20.182476,7.6310854 20.912728,8.3620326 20.067982,9.2053854 19.338429,8.4751333 20.182476,7.6310854 z M 19.196708,6.6474059 19.991189,7.4404926 19.147836,8.2845405 18.353355,7.4907587 19.196708,6.6474051 z m -0.88873,-0.8887265 0.699536,0.6981382 -0.844053,0.8433482 -0.698837,-0.6981374 0.843354,-0.843349 z m -0.888731,-0.888731 0.697439,0.6988371 -0.841955,0.8426493 -0.698833,-0.6981374 0.843349,-0.843349 z m -3.373404,0.5627001 c 0.01327,0.091454 0.05446,0.1801166 0.123573,0.2499328 l 0.05446,0.055148 12.252317,12.2516237 4.560935,4.561634 c 0.175237,0.175232 0.459377,0.175232 0.63391,0 l 0.254821,-0.254822 c 0.175932,-0.175232 0.175932,-0.459371 0,-0.634603 l -4.062465,-4.063163 2.125829,-2.125135 c 0.275764,-0.275764 0.275764,-0.721873 0,-0.996244 L 17.738299,2.2253975 c -0.275765,-0.275066 -0.721873,-0.275066 -0.996244,0 L 14.225268,4.742184 c -0.187797,0.187102 -0.247141,0.4523951 -0.179423,0.6904622"
       inkscape:connector-curvature="0" />
    <path
       id="path9115"
       style="fill:#4a4034;fill-opacity:1;fill-rule:nonzero;stroke:none"
       d="m 12.532282,36.286157 c -0.20944,-0.209444 -0.176631,-0.579453 0.07261,-0.827993 l 0.38188,-0.382579 0.867088,0.867089 -0.832876,0.832876 -0.488699,-0.489393 z m 2.210306,-1.232214 -0.698837,0.698837 -0.867088,-0.868486 0.698836,-0.697439 0.867089,0.867088 z m 0.88873,-0.88873 -0.697443,0.698836 -0.868482,-0.867787 0.698138,-0.698137 0.867787,0.867088 z m 0.984375,-0.984375 -0.793786,0.793782 -0.867088,-0.867084 0.793785,-0.793786 0.867089,0.867088 z m 0.92084,-0.920145 -0.730947,0.730252 -0.867088,-0.867089 0.730252,-0.730252 0.867783,0.867089 z m 0.888731,-0.888731 -0.699532,0.698138 -0.867088,-0.867783 0.698837,-0.697439 0.867783,0.867083 z m 0.95226,-0.95226 -0.761668,0.761671 -0.867088,-0.867787 0.761667,-0.761667 0.867089,0.867783 z m 0.888731,-0.889426 -0.698838,0.698837 -0.867088,-0.867088 0.698838,-0.698837 0.867088,0.867088 z m 0.952958,-0.95226 -0.762366,0.762366 -0.867787,-0.867088 0.761668,-0.762366 0.868485,0.867088 z m 0.887333,-0.888031 -0.697439,0.697438 -0.868486,-0.867088 0.698837,-0.698138 0.867088,0.867788 z m 0.952959,-0.95296 -0.762366,0.761668 -0.867088,-0.867089 0.761667,-0.761667 0.867787,0.867088 z m 0.888726,-0.88873 -0.698137,0.698837 -0.867783,-0.868482 0.698837,-0.697443 0.867083,0.867088 z m 0.555021,-1.533807 0.488698,0.489394 -0.853126,0.854519 -0.867088,-0.867782 0.403527,-0.403528 c 0.24784,-0.248534 0.618549,-0.280648 0.827989,-0.07261 z M 14.8871,36.976615 14.506618,37.359194 c -0.249938,0.248539 -0.620646,0.281348 -0.828693,0.07191 l -0.465657,-0.465658 0.831483,-0.832877 0.843349,0.844048 z m 9.443016,-11.12832 0.853125,-0.853126 0.46496,0.465658 c 0.20874,0.208046 0.176626,0.57876 -0.07191,0.827993 l -0.402828,0.402828 -0.843349,-0.843354 z m -0.88943,0.88873 0.698138,-0.698137 0.844048,0.843348 -0.698138,0.698138 -0.844048,-0.843349 z m -0.95226,0.951561 0.761668,-0.760968 0.844051,0.843349 -0.762366,0.761667 -0.843353,-0.844048 z m -0.889425,0.88943 0.698138,-0.698138 0.843349,0.844048 -0.69744,0.698137 -0.844047,-0.844047 z m -0.951565,0.95226 0.760273,-0.761668 0.844747,0.844048 -0.762366,0.760969 -0.842654,-0.843349 z m -0.889426,0.889426 0.698837,-0.699532 0.843349,0.844047 -0.699532,0.698837 -0.842654,-0.843352 z m -0.95226,0.951565 0.761667,-0.761672 0.844048,0.844052 -0.763065,0.761667 -0.84265,-0.844047 z m -0.888731,0.889426 0.698138,-0.698837 0.843353,0.843352 -0.697443,0.699532 -0.844048,-0.844047 z m -0.920145,0.920145 0.728858,-0.729553 0.845441,0.843349 -0.730946,0.730252 -0.843353,-0.844048 z m -0.983676,0.984375 0.792388,-0.793782 0.844048,0.843349 -0.793087,0.793785 -0.843349,-0.843352 z m -0.890129,0.88873 0.698838,-0.698837 0.843353,0.844747 -0.697439,0.697439 -0.844752,-0.843349 z m -0.888725,0.888731 0.699531,-0.698837 0.842654,0.844048 -0.698837,0.698137 -0.843348,-0.843349 z m 0.562,3.374098 c 0.09355,-0.01327 0.182214,-0.05446 0.252026,-0.124967 l 0.05516,-0.05375 12.251624,-12.251622 4.559537,-4.561635 c 0.175232,-0.174533 0.175232,-0.458677 0,-0.633909 l -0.254128,-0.25482 c -0.175232,-0.174537 -0.458677,-0.174537 -0.63321,0 l -4.063163,4.063163 -2.125828,-2.125834 c -0.275066,-0.275065 -0.721179,-0.275065 -0.995546,0 L 11.590495,35.625022 c -0.275765,0.275069 -0.275066,0.720479 0,0.996244 l 2.516787,2.516786 c 0.186403,0.186403 0.452394,0.246442 0.689064,0.178724"
       inkscape:connector-curvature="0" />
    <path
       id="path9117"
       style="fill:#4a4034;fill-opacity:1;fill-rule:nonzero;stroke:none"
       d="m 50.195427,7.7113687 c 0.208744,0.209444 0.175931,0.5801526 -0.07191,0.8286922 l -0.382579,0.38188 -0.867783,-0.8670888 0.832178,-0.8328766 0.490093,0.4893932 z M 47.985125,8.9428842 48.683957,8.244746 49.551045,9.112533 48.851514,9.8113701 47.985125,8.9428842 z m -0.888731,0.8894292 0.69674,-0.6988363 0.86918,0.8677869 -0.698832,0.698833 -0.867088,-0.8677836 z m -0.985073,0.9843746 0.79448,-0.793786 0.867089,0.867089 -0.793782,0.793785 -0.867787,-0.867088 z m -0.920146,0.920146 0.730951,-0.730252 0.867088,0.867088 -0.730252,0.730946 -0.867787,-0.867782 z m -0.888731,0.88873 0.699536,-0.698837 0.867088,0.868482 -0.698836,0.698139 -0.867788,-0.867784 z m -0.95226,0.951561 0.762367,-0.760972 0.867088,0.867088 -0.761668,0.762366 -0.867787,-0.868482 z m -0.88873,0.890125 0.698137,-0.698837 0.867788,0.867787 -0.697439,0.698138 -0.868486,-0.867088 z m -0.952955,0.951561 0.762366,-0.760968 0.867088,0.867088 -0.760972,0.760968 -0.868482,-0.867088 z m -0.887333,0.88943 0.69674,-0.698837 0.869181,0.867787 -0.698138,0.698138 -0.867783,-0.867088 z m -0.952959,0.95226 0.761667,-0.762367 0.867787,0.867783 -0.76237,0.761672 -0.867084,-0.867088 z m -0.888731,0.888031 0.698837,-0.698137 0.867088,0.867782 -0.698837,0.698837 -0.867088,-0.868482 z m -0.555019,1.533807 -0.489393,-0.489394 0.853121,-0.85382 0.868486,0.867783 -0.404222,0.403527 c -0.248539,0.248534 -0.618553,0.280648 -0.827992,0.0719 z m 9.615452,-12.6621269 0.382579,-0.382579 c 0.248539,-0.2478406 0.619249,-0.2806534 0.827294,-0.071908 l 0.465659,0.464959 -0.831484,0.8328811 -0.844048,-0.8433528 z m -9.442313,11.1283199 -0.853125,0.853126 -0.465659,-0.464264 c -0.208045,-0.20944 -0.175931,-0.580154 0.07261,-0.828688 l 0.402823,-0.402828 0.843353,0.842654 z m 0.889426,-0.88873 -0.698837,0.698837 -0.844048,-0.843354 0.700235,-0.698137 0.84265,0.842654 z m 0.951561,-0.951561 -0.76027,0.760968 -0.844746,-0.843349 0.762366,-0.761667 0.84265,0.844048 z m 0.890129,-0.88943 -0.698838,0.698138 -0.842653,-0.84265 0.697438,-0.698836 0.844053,0.843348 z m 0.950862,-0.95226 -0.761668,0.762366 -0.842654,-0.844047 0.762367,-0.761668 0.841955,0.843349 z m 0.889429,-0.889426 -0.698138,0.698838 -0.843353,-0.843353 0.697439,-0.698837 0.844052,0.843352 z m 0.953654,-0.951561 -0.763066,0.761668 -0.842649,-0.843353 0.762366,-0.761667 0.843349,0.843352 z m 0.888031,-0.88873 -0.698137,0.698138 -0.844747,-0.844052 0.698837,-0.697439 0.844047,0.843353 z m 0.920146,-0.920845 -0.730252,0.730252 -0.844048,-0.844048 0.731651,-0.7295529 0.842649,0.8433489 z m 0.98368,-0.9843745 -0.793786,0.7937815 -0.844048,-0.8433487 0.794481,-0.7930867 0.843353,0.8426539 z m 0.889425,-0.8887303 -0.698138,0.6988371 -0.844047,-0.8433536 0.698137,-0.6988325 0.844048,0.843349 z M 48.49267,8.0541532 47.793134,8.7522914 46.951178,7.9089424 47.649317,7.2115039 48.49267,8.0541532 z M 47.930669,4.6800545 c -0.09285,0.013273 -0.181514,0.054458 -0.25203,0.1249664 l -0.05446,0.054458 -12.251619,12.2516231 -4.560239,4.561635 c -0.175932,0.175231 -0.175932,0.458672 0,0.633209 l 0.254121,0.255517 c 0.175932,0.175232 0.458677,0.175232 0.63391,0 l 4.063162,-4.063163 2.125834,2.125829 c 0.275066,0.275071 0.721174,0.275071 0.996938,0 L 51.136514,8.3725066 c 0.276463,-0.2750659 0.275069,-0.7211745 0,-0.9955406 L 48.619726,4.859479 C 48.434022,4.6730759 48.167336,4.6130371 47.930667,4.6800568"
       inkscape:connector-curvature="0" />
    <path
       id="path9119"
       style="fill:#34291f;fill-opacity:1;fill-rule:nonzero;stroke:none"
       d="m 32.654014,22.099992 c 0,0.707911 -0.572472,1.281782 -1.281082,1.281782 -0.70861,0 -1.279689,-0.573871 -1.279689,-1.281782 0,-0.707211 0.571079,-1.280383 1.279689,-1.280383 0.70861,0 1.281082,0.573172 1.281082,1.280383"
       inkscape:connector-curvature="0" />
    <path
       id="path9121"
       style="fill:#3b2e24;fill-opacity:1;fill-rule:nonzero;stroke:none"
       d="m 32.182074,22.099992 c 0,0.446807 -0.361635,0.809142 -0.809142,0.809142 -0.447506,0 -0.807748,-0.362335 -0.807748,-0.809142 0,-0.445409 0.360242,-0.807744 0.807748,-0.807744 0.447507,0 0.809142,0.362335 0.809142,0.807744"
       inkscape:connector-curvature="0" />
    <path
       id="path9123"
       style="fill:#45372b;fill-opacity:1;fill-rule:nonzero;stroke:none"
       d="m 30.898196,22.47559 c -0.23597,-0.234572 -0.234573,-0.615757 0,-0.85033 0.234576,-0.235276 0.615058,-0.23597 0.851728,-9.2e-4 0.234576,0.235272 -0.617152,1.086305 -0.851728,0.851029"
       inkscape:connector-curvature="0" />
    <path
       id="path9125"
       style="fill:#5e554a;fill-opacity:1;fill-rule:nonzero;stroke:none"
       d="m 32.927682,35.870765 c 0,0.391652 -0.316952,0.709308 -0.707911,0.709308 l -1.852161,0 c -0.391652,0 -0.710004,-0.317656 -0.710004,-0.709308 l 0,-3.152794 c 0,-0.390953 0.318352,-0.708609 0.710004,-0.708609 l 1.852161,0 c 0.390959,0 0.707911,0.317656 0.707911,0.708609 l 0,3.152794"
       inkscape:connector-curvature="0" />
    <path
       id="path9127"
       style="fill:#5e554a;fill-opacity:1;fill-rule:nonzero;stroke:none"
       d="m 32.927682,45.343799 c 0,0.392351 -0.316952,0.710007 -0.707911,0.710007 l -1.852161,0 c -0.391652,0 -0.710004,-0.317656 -0.710004,-0.710007 l 0,-3.152794 c 0,-0.391653 0.318352,-0.70861 0.710004,-0.70861 l 1.852161,0 c 0.390959,0 0.707911,0.316957 0.707911,0.70861 l 0,3.152794"
       inkscape:connector-curvature="0" />
  </g>
</svg>
