<?xml version="1.0" encoding="UTF-8" standalone="no"?>
<!-- Created with Inkscape (http://www.inkscape.org/) -->

<svg
   xmlns:dc="http://purl.org/dc/elements/1.1/"
   xmlns:cc="http://creativecommons.org/ns#"
   xmlns:rdf="http://www.w3.org/1999/02/22-rdf-syntax-ns#"
   xmlns:svg="http://www.w3.org/2000/svg"
   xmlns="http://www.w3.org/2000/svg"
   xmlns:sodipodi="http://sodipodi.sourceforge.net/DTD/sodipodi-0.dtd"
   xmlns:inkscape="http://www.inkscape.org/namespaces/inkscape"
   width="64px"
   height="64px"
   id="svg176979"
   version="1.1"
   inkscape:version="0.48.5 r10040"
   sodipodi:docname="Nowy dokument 50">
  <defs
     id="defs176981" />
  <sodipodi:namedview
     id="base"
     pagecolor="#ffffff"
     bordercolor="#666666"
     borderopacity="1.0"
     inkscape:pageopacity="0.0"
     inkscape:pageshadow="2"
     inkscape:zoom="5.5"
     inkscape:cx="32"
     inkscape:cy="32"
     inkscape:current-layer="layer1"
     showgrid="true"
     inkscape:document-units="px"
     inkscape:grid-bbox="true"
     inkscape:window-width="1366"
     inkscape:window-height="706"
     inkscape:window-x="-8"
     inkscape:window-y="-8"
     inkscape:window-maximized="1" />
  <metadata
     id="metadata176984">
    <rdf:RDF>
      <cc:Work
         rdf:about="">
        <dc:format>image/svg+xml</dc:format>
        <dc:type
           rdf:resource="http://purl.org/dc/dcmitype/StillImage" />
        <dc:title></dc:title>
      </cc:Work>
    </rdf:RDF>
  </metadata>
  <g
     id="layer1"
     inkscape:label="Layer 1"
     inkscape:groupmode="layer">
    <g
       transform="matrix(0.79073894,0,0,-0.88307645,42.009023,15.303678)"
       id="g8681">
      <path
         id="path8683"
         style="fill:#dce8eb;fill-opacity:1;fill-rule:evenodd;stroke:none"
         d="m 0,0 3.572,5.516 c 0,0 1.374,-0.476 2.407,-0.348 C 5.555,5.258 5.291,5.497 5.331,5.641 5.709,5.439 6.652,5.302 7.248,5.989 7.344,6.101 7.432,6.233 7.506,6.393 7.662,6.729 7.662,7.143 7.454,7.453 7.04,7.921 6.471,8.102 5.9,7.997 5.797,8.516 6.314,8.931 6.393,9.448 6.548,9.94 6.471,10.536 5.952,10.874 5.305,11.08 5.001,10.714 4.398,10.433 c 0.286,1.166 0.829,2.512 0.259,3.73 -0.259,0.492 -0.673,1.114 -1.296,1.114 -1.398,-0.673 -1.606,-2.383 -2.072,-3.73 -1.203,3.739 -3.523,0.44 -3.523,0.44 0.233,0.778 0.104,1.685 -0.129,2.436 -0.259,0.724 -1.037,1.01 -1.735,1.036 -1.27,-1.244 -0.83,-2.746 -0.57,-4.274 -0.52,0.387 -0.674,1.294 -1.426,1.423 -0.492,0.26 -1.165,0.105 -1.502,-0.363 -0.44,-0.932 0.518,-1.891 0.621,-2.693 C -7.337,9.889 -7.828,10.147 -8.347,9.94 -10.003,9.344 -8.891,7.765 -8.398,8.128 -8.23,7.399 -8.943,7.531 -9.02,6.962 -9.046,6.495 -9.409,5.796 -8.839,5.46 -8.49,5.362 -8.141,5.367 -7.822,5.456 L -6.773,6.371 -2.115,-0.487 0,0 z"
         inkscape:connector-curvature="0" />
    </g>
    <g
       transform="matrix(0.79073894,0,0,-0.88307645,42.009023,15.303678)"
       id="g8685">
      <path
         id="path8687"
         style="fill:#ffffff;fill-opacity:1;fill-rule:nonzero;stroke:none"
         d="M 0,0 3.115,4.811 0.172,1.37 l 0,7.373 -1.517,-6.772 -2.311,7.116 0.941,-7.116 -3.485,3.886 0,-0.33 4.085,-6.014 L 0,0 z"
         inkscape:connector-curvature="0" />
    </g>
    <g
       transform="matrix(0.79073894,0,0,-0.88307645,40.529475,14.989839)"
       id="g8689">
      <path
         id="path8691"
         style="fill:#000000;fill-opacity:1;fill-rule:nonzero;stroke:none"
         d="m 0,0 -0.492,-0.129 -2.979,5.181 c 0.725,-1.762 1.839,-3.342 2.539,-5.104 -10.665,-1.244 -15.233,-8.082 -18.29,-12.615 -2.253,-2.642 -4.844,-5.906 -8.703,-4.921 -1.19,0.441 -2.434,1.192 -2.979,2.486 4.17,0.803 8.886,3.756 9.947,8.212 0.57,2.953 -0.595,5.828 -1.606,8.134 -1.53,3.153 -4.3,4.222 -4.3,4.222 0,0 1.787,-2.564 1.192,-4.041 -2.332,-3.29 -7.02,-3.859 -8.834,-7.331 l -0.803,-2.305 c -1.606,4.714 -7.098,3.963 -10.698,5.855 -2.829,1.642 -2.591,4.921 -2.747,4.921 -1.241,-2.228 -1.397,-4.689 -1.604,-7.357 0.102,-3.393 1.345,-6.45 4.092,-8.626 2.745,-2.202 6.527,-2.254 9.843,-2.124 0.453,-18.593 16.891,-28.599 19.895,-30.205 -1.965,-0.818 -5.625,-6.974 -3.004,-7.227 1.166,0.363 2.304,0.803 3.498,1.062 9.575,-2.316 10.619,2.798 10.619,2.798 3.109,-1.011 6.762,-1.45 9.896,-1.062 3.626,0.621 7.045,1.606 10.31,3.238 0,0 6.19,-0.13 8.341,-1.554 0.363,-0.13 0.984,-0.078 0.984,0.44 0.259,2.046 -1.398,3.834 -2.797,5.413 4.274,4.12 6.553,9.223 6.294,15.285 -0.051,0.466 -0.13,0.958 -0.44,1.243 -0.492,0.207 -0.75,-0.596 -1.115,-0.311 0.26,3.109 -0.387,6.295 -1.139,9.196 0.648,0.777 1.088,1.632 1.062,2.694 0.026,1.192 -0.906,2.228 -1.918,2.798 -0.543,0.181 -1.113,0.388 -1.683,0.311 C 14.717,-0.16 2.357,-0.052 2.357,-0.052 c 0,0 2.073,3.783 2.979,5.518 C 4.067,3.757 2.928,1.71 1.684,-0.052 1.528,-0.077 1.321,-0.052 1.295,0.13 1.633,2.437 1.424,5.052 1.736,7.279 1.736,7.279 1.217,2.021 0.934,0.13 0.855,-0.025 0.648,-0.077 0.439,-0.052 -0.57,2.539 -1.967,7.779 -1.994,7.953 -2.179,7.964 -0.803,2.591 0,0"
         inkscape:connector-curvature="0" />
    </g>
    <g
       transform="matrix(0.79073894,0,0,-0.88307645,18.756397,16.202304)"
       id="g8693">
      <path
         id="path8695"
         style="fill:#b18db8;fill-opacity:1;fill-rule:nonzero;stroke:none"
         d="m 0,0 c -3.136,-1.657 -7.812,-4.299 -7.371,-8.444 0,0 -2.733,4.455 -5.375,5.025 -3.264,0.829 -7.953,1.373 -8.523,5.543 -0.984,-3.16 -1.426,-7.512 0.363,-10.438 2.593,-6.627 12.434,-5.156 12.434,-5.156 1.914,-22.092 20.284,-30.412 20.284,-30.412 3.11,2.229 6.346,2.125 6.346,2.125 -0.544,-0.545 -5.76,-0.08 -10.387,-7.668 -0.88,-2.847 2.797,-0.104 4.403,-0.414 2.642,-0.518 5.828,-0.985 8.03,0.985 2.935,1.416 1.761,6.449 2.177,8.521 0.959,5.259 2.306,10.543 4.844,15.232 -3.031,2.747 -4.949,6.425 -4.353,10.569 0.362,1.399 0.7,2.799 1.607,3.965 -0.465,0.751 -1.426,0.905 -2.176,1.06 0.051,0.337 3.172,0.35 4.662,-2.357 0.155,-0.207 0.053,-0.491 -0.181,-0.621 -0.673,0.284 -0.854,1.113 -1.554,1.503 -1.011,-1.27 -1.347,-2.824 -1.554,-4.431 -0.207,-2.772 0.699,-5.361 2.486,-7.46 0.285,0.155 0.7,0.311 1.01,0.078 0.39,-0.26 0.26,-1.295 0.311,-1.451 0.544,-0.647 1.718,0.532 2.591,-0.544 0,-0.259 0.077,-0.699 -0.103,-0.933 0.854,-0.388 1.812,-1.036 2.797,-1.114 0.416,0.57 1.088,1.114 1.787,1.244 0.596,-0.13 1.322,-2.176 1.322,-2.176 1.631,-0.259 3.601,-0.57 5.024,-0.389 0.105,0.441 0.467,0.881 0.882,1.063 0.465,0.156 1.606,-0.933 1.606,-0.933 1.658,0.052 3.186,0.363 4.715,0.674 0.103,0.751 0.208,1.554 0.932,1.994 0.441,0.311 0.907,0.026 1.243,-0.233 0.311,-1.451 1.528,-0.466 2.254,-0.13 0.182,0.052 0.414,0.157 0.492,0.363 0.104,5.103 -0.802,10.077 -3.29,14.247 -3.057,4.975 -8.367,9.223 -13.858,10.699 -2.021,0.57 -4.094,0.881 -6.037,1.114 -0.154,-0.13 -0.543,0 -0.49,-0.311 0.154,-0.051 0.336,-0.285 0.18,-0.44 -0.414,-0.595 -1.139,-0.674 -1.866,-0.622 -0.31,0.052 -0.699,0.103 -0.751,0.441 l 0,0.751 C 19.35,0.233 12.485,-5.621 8.521,-12.304 c -2.382,-2.798 -5.335,-5.751 -9.144,-4.585 -3.967,1.392 -3.576,3.808 -3.42,4.041 C 2.028,-12.419 6.008,-7.616 6.034,-3.6 5.725,-0.595 4.946,2.384 2.615,4.612 3.082,2.695 1.604,1.14 0,0"
         inkscape:connector-curvature="0" />
    </g>
    <g
       transform="matrix(0.79073894,0,0,-0.88307645,20.824336,12.129286)"
       id="g8697">
      <path
         id="path8699"
         style="fill:#835796;fill-opacity:1;fill-rule:nonzero;stroke:none"
         d="m 0,0 c 2.331,-2.229 3.109,-5.207 3.419,-8.212 -0.026,-4.017 -4.006,-8.819 -10.077,-9.248 -0.156,-0.233 -0.547,-2.649 3.42,-4.041 3.808,-1.166 6.761,1.787 9.144,4.585 3.964,6.683 10.828,12.537 18.392,12.822 l 0,-0.751 c 0.052,-0.338 0.441,-0.388 0.751,-0.44 0.726,-0.052 1.452,0.026 1.866,0.622 0.155,0.155 -0.026,0.389 -0.181,0.439 -0.052,0.312 0.336,0.182 0.491,0.312 0.339,-0.041 0.681,-0.084 1.026,-0.13 -2.889,-2.152 -6.378,-5.335 -5.694,-7.758 1.136,-4.03 3.632,-4.372 2.615,-5.878 -1.017,-1.508 -2.338,0.897 -2.708,-0.859 -0.259,-1.233 1.949,-8.587 8.604,-12.036 -0.361,-0.237 -0.679,-0.551 -0.916,-0.876 -0.984,0.078 -1.942,0.725 -2.797,1.114 0.181,0.233 0.104,0.674 0.104,0.933 -0.873,1.076 -2.047,-0.103 -2.591,0.544 -0.052,0.156 0.078,1.191 -0.311,1.451 -0.31,0.233 -0.725,0.077 -1.01,-0.078 -1.787,2.098 -2.693,4.688 -2.486,7.46 0.207,1.607 0.543,3.161 1.554,4.43 0.699,-0.389 0.881,-1.218 1.554,-1.503 0.233,0.13 0.336,0.414 0.181,0.621 -1.491,2.707 -4.611,2.695 -4.662,2.358 0.75,-0.155 1.71,-0.31 2.175,-1.061 -0.906,-1.166 -1.244,-2.565 -1.606,-3.965 -0.596,-4.143 1.322,-7.822 4.352,-10.568 -2.538,-4.689 -3.884,-9.974 -4.843,-15.232 -0.416,-2.073 0.757,-7.106 -2.177,-8.522 -2.202,-1.97 -5.388,-1.503 -8.03,-0.984 -1.606,0.309 -0.33,5.783 7.887,8.463 0,0 -5.139,-0.278 -8.25,-2.506 0,0 -18.369,8.32 -20.283,30.412 0,0 -9.842,-1.472 -12.434,5.155 -1.79,2.927 -1.347,7.279 -0.363,10.439 0.57,-4.17 5.259,-4.714 8.523,-5.543 2.642,-0.571 5.375,-5.026 5.375,-5.026 -0.441,4.146 4.235,6.787 7.371,8.445 C -1.011,-3.473 0.467,-1.917 0,0 m 38.459,-32.355 c -0.079,-0.132 -0.139,-0.273 -0.173,-0.416 -1.424,-0.18 -3.393,0.13 -5.024,0.39 0,0 -0.18,0.507 -0.434,1.031 1.643,-0.604 3.512,-0.975 5.631,-1.005 m 3.701,0.277 c 1.235,0.195 2.363,0.383 3.395,0.563 -0.026,-0.15 -0.047,-0.302 -0.067,-0.451 -1.528,-0.311 -3.056,-0.622 -4.715,-0.675 0,0 -0.168,0.161 -0.401,0.351 0.579,0.045 1.174,0.115 1.788,0.212"
         inkscape:connector-curvature="0" />
    </g>
    <g
       transform="matrix(0.79073894,0,0,-0.88307645,41.460808,17.229406)"
       id="g8701">
      <path
         id="path8703"
         style="fill:#b18db8;fill-opacity:1;fill-rule:nonzero;stroke:none"
         d="M 0,0 C 0.709,0.621 1.448,1.208 2.153,1.733 1.809,1.779 1.467,1.822 1.127,1.863 0.973,1.733 0.584,1.863 0.637,1.552 0.791,1.501 0.973,1.268 0.817,1.112 0.403,0.517 -0.322,0.438 -1.049,0.49 -1.358,0.542 -1.748,0.593 -1.8,0.931 l 0,0.751 c -7.563,-0.286 -14.428,-6.14 -18.391,-12.823 -2.383,-2.797 -5.336,-5.751 -9.145,-4.585 -1.117,0.392 -1.887,0.865 -2.416,1.347 0.17,-0.889 0.92,-2.204 3.467,-3.097 3.807,-1.166 6.761,1.788 9.143,4.585 3.964,6.683 10.829,12.537 18.392,12.823 L 0,0 z"
         inkscape:connector-curvature="0" />
    </g>
    <g
       transform="matrix(0.79073894,0,0,-0.88307645,38.030659,1.538373)"
       id="g8705">
      <path
         id="path8707"
         style="fill:#788b91;fill-opacity:1;fill-rule:nonzero;stroke:none"
         d="m 0,0 c -0.544,-0.726 -0.518,-1.839 -0.57,-2.616 -0.726,0.466 -1.684,0.439 -2.357,-0.104 -0.872,-0.809 -0.078,-2.254 -0.078,-2.254 -0.854,-0.285 -1.788,-0.569 -1.917,-1.605 0.078,-0.52 0.362,-1.064 0.803,-1.322 -0.518,-0.492 -0.518,-1.269 -0.492,-1.916 0.181,-0.337 0.543,-0.829 0.984,-0.803 1.543,-0.112 1.865,1.061 1.762,1.112 -0.441,-0.569 -1.192,-0.827 -1.943,-0.62 -0.57,0.336 -0.207,1.035 -0.18,1.502 0.076,0.569 0.789,0.438 0.621,1.166 -0.492,-0.363 -1.605,1.216 0.052,1.813 0.518,0.207 1.009,-0.052 1.372,-0.389 -0.104,0.803 -1.062,1.762 -0.621,2.693 0.336,0.468 1.009,0.623 1.501,0.364 0.752,-0.129 0.907,-1.037 1.426,-1.424 -0.259,1.528 -0.7,3.03 0.571,4.274 0.697,-0.026 1.475,-0.311 1.734,-1.036 0.233,-0.751 0.362,-1.658 0.129,-2.436 0,0 2.32,3.299 3.523,-0.44 0.466,1.347 0.674,3.057 2.073,3.73 0.623,0 1.037,-0.622 1.295,-1.114 0.57,-1.218 0.027,-2.564 -0.258,-3.73 0.602,0.281 0.906,0.647 1.553,0.441 0.519,-0.338 0.596,-0.933 0.441,-1.426 -0.078,-0.517 -0.596,-0.932 -0.492,-1.451 0.57,0.105 1.139,-0.076 1.553,-0.544 0.208,-0.31 0.208,-0.724 0.052,-1.06 -0.533,-1.134 -1.734,-0.986 -2.175,-0.752 -0.078,-0.285 1.041,-0.956 2.253,-0.052 0.544,0.44 0.752,1.113 0.544,1.788 -0.311,0.518 -0.829,1.062 -1.424,1.19 0.31,0.726 0.543,1.581 0.078,2.307 -0.336,0.413 -0.856,0.828 -1.451,0.544 0.156,1.035 0.312,2.537 -0.362,3.419 C 9.637,-0.233 9.117,0.232 8.496,0.311 7.615,0.389 7.176,-0.207 6.76,-0.854 L 6.217,-2.409 C 5.674,-1.943 4.844,-1.477 4.041,-1.865 L 3.42,-2.357 C 3.42,-1.321 3.082,-0.26 2.047,0.182 1.424,0.491 0.492,0.699 0,0"
         inkscape:connector-curvature="0" />
    </g>
    <g
       transform="matrix(0.79073894,0,0,-0.88307645,58.47324,25.466834)"
       id="g8709">
      <path
         id="path8711"
         style="fill:#ffffff;fill-opacity:1;fill-rule:nonzero;stroke:none"
         d="m 0,0 c 0.881,-1.373 1.555,-2.822 2.047,-4.352 0.44,0.311 0.544,0.908 0.622,1.425 -0.078,0.751 -0.26,1.451 -0.805,1.994 C 1.321,-0.414 0.7,-0.103 0,0"
         inkscape:connector-curvature="0" />
    </g>
    <g
       transform="matrix(0.79073894,0,0,-0.88307645,25.822048,29.972819)"
       id="g8713">
      <path
         id="path8715"
         style="fill:#d0bcd7;fill-opacity:1;fill-rule:nonzero;stroke:none"
         d="m 0,0 c 0.13,-0.388 0,-0.934 0.441,-1.114 0.362,-0.052 0.881,0 1.062,0.441 C 1.658,-0.259 1.477,0.285 1.011,0.44 0.596,0.466 0.053,0.44 0,0"
         inkscape:connector-curvature="0" />
    </g>
    <g
       transform="matrix(0.79073894,0,0,-0.88307645,23.712439,30.132304)"
       id="g8717">
      <path
         id="path8719"
         style="fill:#d0bcd7;fill-opacity:1;fill-rule:nonzero;stroke:none"
         d="m 0,0 c -0.207,-0.415 0.078,-0.777 0.259,-1.114 0.285,-0.389 0.776,-0.105 1.114,0 0.414,0.155 0.337,0.699 0.259,1.036 L 1.062,0.544 C 0.648,0.491 0.104,0.518 0,0"
         inkscape:connector-curvature="0" />
    </g>
    <g
       transform="matrix(0.79073894,0,0,-0.88307645,26.068442,30.132304)"
       id="g8721">
      <path
         id="path8723"
         style="fill:#835796;fill-opacity:1;fill-rule:nonzero;stroke:none"
         d="M 0,0 C -0.155,-0.183 0.052,-0.492 0.206,-0.699 0.466,-0.648 0.88,-0.829 0.933,-0.44 0.958,-0.104 0.906,0.232 0.569,0.361 0.155,0.544 0.337,0 0,0"
         inkscape:connector-curvature="0" />
    </g>
    <g
       transform="matrix(0.79073894,0,0,-0.88307645,23.916999,30.201269)"
       id="g8725">
      <path
         id="path8727"
         style="fill:#835796;fill-opacity:1;fill-rule:nonzero;stroke:none"
         d="M 0,0 C -0.024,-0.362 0.026,-0.699 0.233,-0.984 0.544,-0.855 0.985,-1.011 1.166,-0.621 1.142,-0.26 1.088,0.154 0.674,0.311 0.39,0.361 0.078,0.311 0,0"
         inkscape:connector-curvature="0" />
    </g>
    <g
       transform="matrix(0.79073894,0,0,-0.88307645,24.061471,32.328776)"
       id="g8729">
      <path
         id="path8731"
         style="fill:#d0bcd7;fill-opacity:1;fill-rule:nonzero;stroke:none"
         d="m 0,0 c 0.18,-0.777 0.284,-1.814 1.242,-2.046 0.44,-0.208 0.881,-0.208 1.296,0 0.31,0.258 0.673,0.44 0.88,0.803 C 3.651,-0.39 3.315,0.439 2.797,0.984 1.942,1.398 0.336,1.14 0,0"
         inkscape:connector-curvature="0" />
    </g>
    <g
       transform="matrix(0.79073894,0,0,-0.88307645,24.551804,32.12355)"
       id="g8733">
      <path
         id="path8735"
         style="fill:#835796;fill-opacity:1;fill-rule:nonzero;stroke:none"
         d="m 0,0 -0.181,0.078 c -0.31,-0.517 0,-1.113 0.13,-1.632 0.414,-0.44 1.166,-0.802 1.787,-0.544 0.26,0.363 0.57,0.363 0.751,0.751 C 2.591,-0.491 2.358,0.312 1.606,0.699 0.959,0.726 0.261,0.622 0,0"
         inkscape:connector-curvature="0" />
    </g>
    <g
       transform="matrix(0.79073894,0,0,-0.88307645,40.037636,37.155495)"
       id="g8737">
      <path
         id="path8739"
         style="fill:#ffffff;fill-opacity:1;fill-rule:nonzero;stroke:none"
         d="m 0,0 -0.181,0.311 -0.129,0 L 0,0 z"
         inkscape:connector-curvature="0" />
    </g>
    <g
       transform="matrix(0.79073894,0,0,-0.88307645,41.308669,38.208476)"
       id="g8741">
      <path
         id="path8743"
         style="fill:#ffffff;fill-opacity:1;fill-rule:nonzero;stroke:none"
         d="M 0,0 C 0.284,-0.233 0.569,-0.414 0.88,-0.492 1.062,0.13 0.414,0.26 0,0"
         inkscape:connector-curvature="0" />
    </g>
    <g
       transform="matrix(0.79073894,0,0,-0.88307645,40.529475,38.528418)"
       id="g8745">
      <path
         id="path8747"
         style="fill:#d0bcd7;fill-opacity:1;fill-rule:nonzero;stroke:none"
         d="m 0,0 c -2.461,-4.663 -3.859,-9.766 -4.792,-15.051 0,-1.58 -0.284,-3.445 0,-4.972 2.429,2.635 8.237,11.267 8.574,18.159 C 2.487,-1.347 1.217,-0.698 0,0"
         inkscape:connector-curvature="0" />
    </g>
    <g
       transform="matrix(0.79073894,0,0,-0.88307645,59.416117,40.174733)"
       id="g8749">
      <path
         id="path8751"
         style="fill:#d0bcd7;fill-opacity:1;fill-rule:nonzero;stroke:none"
         d="M 0,0 C 0.076,-3.006 -1.504,-5.312 -2.254,-7.979 -7.57,-20.2 -23.756,-20.905 -25.076,-20.776 c 7.9,-1.269 28.246,3.285 28.105,22.381 L 0,0 z"
         inkscape:connector-curvature="0" />
    </g>
    <g
       transform="matrix(0.79073894,0,0,-0.88307645,57.490269,39.580516)"
       id="g8753">
      <path
         id="path8755"
         style="fill:#ffffff;fill-opacity:1;fill-rule:nonzero;stroke:none"
         d="M 0,0 C 0.078,-0.259 -0.129,-0.363 -0.053,-0.621 0.363,-0.648 0.881,-0.336 1.243,-0.182 1.036,0.337 0.207,0.959 0,0"
         inkscape:connector-curvature="0" />
    </g>
    <g
       transform="matrix(0.79073894,0,0,-0.88307645,45.19982,40.128991)"
       id="g8757">
      <path
         id="path8759"
         style="fill:#ffffff;fill-opacity:1;fill-rule:nonzero;stroke:none"
         d="M 0,0 C 0.466,-0.363 1.218,-0.285 1.813,-0.57 1.762,-0.052 1.477,0.362 1.113,0.751 0.596,0.751 0.363,0.285 0,0"
         inkscape:connector-curvature="0" />
    </g>
    <g
       transform="matrix(0.79073894,0,0,-0.88307645,55.728029,41.273372)"
       id="g8761">
      <path
         id="path8763"
         style="fill:#d0bcd7;fill-opacity:1;fill-rule:nonzero;stroke:none"
         d="m 0,0 c -0.828,-8.082 -6.941,-15.672 -14.816,-17.849 -1.944,-0.569 -4.378,-1.166 -6.322,-1.19 l -0.077,-0.052 c 1.969,-0.493 15.879,0.506 22.019,10.128 C 2.385,-5.802 4.067,-2.59 4.146,1.113 2.799,0.647 1.426,0.259 0,0"
         inkscape:connector-curvature="0" />
    </g>
    <g
       transform="matrix(0.79073894,0,0,-0.88307645,43.826858,40.35753)"
       id="g8765">
      <path
         id="path8767"
         style="fill:#d0bcd7;fill-opacity:1;fill-rule:nonzero;stroke:none"
         d="m 0,0 c -1.486,-10.824 -8.859,-17.72 -9.092,-19.455 4.741,1.735 12.281,9.37 13.057,18.34 C 2.616,-0.829 1.297,-0.441 0,0"
         inkscape:connector-curvature="0" />
    </g>
    <g
       transform="matrix(0.79073894,0,0,-0.88307645,51.693286,41.068146)"
       id="g8769">
      <path
         id="path8771"
         style="fill:#ffffff;fill-opacity:1;fill-rule:nonzero;stroke:none"
         d="M 0,0 0.933,0.078 C 1.01,0.313 0.751,0.415 0.622,0.493 0.31,0.545 0.13,0.183 0,0"
         inkscape:connector-curvature="0" />
    </g>
    <g
       transform="matrix(0.79073894,0,0,-0.88307645,51.446974,41.731337)"
       id="g8773">
      <path
         id="path8775"
         style="fill:#d0bcd7;fill-opacity:1;fill-rule:nonzero;stroke:none"
         d="m 0,0 c -1.242,-6.476 -5.129,-12.771 -11.319,-16.035 -2.074,-0.88 -3.911,-1.786 -6.218,-2.098 C -9.041,-18.288 3.248,-13.668 4.896,0.44 3.369,0.078 1.606,0.233 0,0"
         inkscape:connector-curvature="0" />
    </g>
    <g
       transform="matrix(0.79073894,0,0,-0.88307645,47.310221,41.387197)"
       id="g8777">
      <path
         id="path8779"
         style="fill:#d0bcd7;fill-opacity:1;fill-rule:nonzero;stroke:none"
         d="m 0,0 c -1.308,-9.566 -8.161,-16.165 -12.306,-18.107 4.352,0.699 14.63,4.697 17.097,17.666 C 3.16,-0.39 1.528,-0.337 0,0"
         inkscape:connector-curvature="0" />
    </g>
    <g
       transform="matrix(0.79073894,0,0,-0.88307645,55.769786,54.175466)"
       id="g8781">
      <path
         id="path8783"
         style="fill:#835796;fill-opacity:1;fill-rule:nonzero;stroke:none"
         d="M 0,0 C -0.414,-0.544 -0.805,-1.295 -0.363,-1.943 0.259,-2.176 1.14,-2.28 1.865,-2.487 L 4.223,-3.626 C 4.3,-1.917 3.289,-0.466 2.123,0.803 1.191,1.088 0.674,0.363 0,0"
         inkscape:connector-curvature="0" />
    </g>
    <g
       transform="matrix(0.79073894,0,0,-0.88307645,37.330227,51.877177)"
       id="g8785">
      <path
         id="path8787"
         style="fill:#e6deeb;fill-opacity:1;fill-rule:nonzero;stroke:none"
         d="M 0,0 C -0.005,-0.782 -0.073,-1.631 -0.108,-2.472 -0.116,-2.647 -0.121,-2.821 -0.124,-2.991 2.492,0.417 6.552,7.162 7.047,12.767 6.133,13.157 5.231,13.605 4.356,14.088 2.168,9.722 0.879,4.961 0,0"
         inkscape:connector-curvature="0" />
    </g>
    <g
       transform="matrix(0.79073894,0,0,-0.88307645,59.323442,44.039077)"
       id="g8789">
      <path
         id="path8791"
         style="fill:#e6deeb;fill-opacity:1;fill-rule:nonzero;stroke:none"
         d="M 0,0 C -0.474,-1.268 -1.049,-2.491 -1.42,-3.806 L -1.453,-3.9 C -3.205,-7.928 -6.075,-10.745 -9.225,-12.711 -3.221,-9.68 1.998,-4.208 2.379,4.73 L 0.863,3.927 C 0.824,2.478 0.444,1.193 0,0"
         inkscape:connector-curvature="0" />
    </g>
    <g
       transform="matrix(0.79073894,0,0,-0.88307645,48.528749,55.44401)"
       id="g8793">
      <path
         id="path8795"
         style="fill:#e6deeb;fill-opacity:1;fill-rule:nonzero;stroke:none"
         d="m 0,0 c 3.474,1.495 6.944,3.843 9.259,7.452 0.773,1.547 1.571,3.105 2.185,4.731 0.484,1.277 0.844,2.574 0.991,3.924 C 11.565,15.838 10.683,15.604 9.782,15.42 8.972,9.256 5.229,3.435 0,0"
         inkscape:connector-curvature="0" />
    </g>
    <g
       transform="matrix(0.79073894,0,0,-0.88307645,38.144923,55.946742)"
       id="g8797">
      <path
         id="path8799"
         style="fill:#e6deeb;fill-opacity:1;fill-rule:nonzero;stroke:none"
         d="M 0,0 C 4.236,2.692 9.453,8.854 10.339,15.956 9.479,16.159 8.629,16.402 7.79,16.668 6.919,11.515 4.777,7.285 2.803,4.122 1.764,2.462 0.767,1.087 0.013,0.018 L 0,0 z"
         inkscape:connector-curvature="0" />
    </g>
    <g
       transform="matrix(0.79073894,0,0,-0.88307645,43.066958,56.292561)"
       id="g8801">
      <path
         id="path8803"
         style="fill:#e6deeb;fill-opacity:1;fill-rule:nonzero;stroke:none"
         d="M 0,0 C 6.578,1.832 13.126,6.633 14.617,16.024 14.109,15.965 13.598,15.938 13.107,15.917 12.477,15.89 11.842,15.874 11.221,15.813 9.865,9.487 6.024,3.352 0,0"
         inkscape:connector-curvature="0" />
    </g>
    <g
       transform="matrix(0.79073894,0,0,-0.88307645,41.136447,55.441452)"
       id="g8805">
      <path
         id="path8807"
         style="fill:#e6deeb;fill-opacity:1;fill-rule:nonzero;stroke:none"
         d="m 0,0 c 4.418,2.02 9.795,6.323 11.689,14.759 -0.531,0.019 -1.058,0.045 -1.583,0.085 C 9.539,14.888 8.978,14.948 8.427,15.038 7.297,8.375 3.58,3.176 0,0"
         inkscape:connector-curvature="0" />
    </g>
    <g
       transform="matrix(0.79073894,0,0,-0.88307645,41.773542,16.053147)"
       id="g8809">
      <path
         id="path8811"
         style="fill:#603081;fill-opacity:1;fill-rule:nonzero;stroke:none"
         d="m 0,0 c 0,0.204 -0.399,0.37 -0.892,0.37 -0.492,0 -0.891,-0.166 -0.891,-0.37 0,-0.204 0.399,-0.369 0.891,-0.369 C -0.399,-0.369 0,-0.204 0,0"
         inkscape:connector-curvature="0" />
    </g>
    <g
       transform="matrix(0.79073894,0,0,-0.88307645,55.599853,25.358216)"
       id="g8813">
      <path
         id="path8815"
         style="fill:#d0bcd7;fill-opacity:1;fill-rule:nonzero;stroke:none"
         d="M 0,0 C 0.879,2.176 -1.896,5.348 -6.198,7.085 -10.502,8.823 -14.7,8.47 -15.58,6.295 -16.459,4.119 -13.683,0.948 -9.381,-0.791 -5.078,-2.528 -0.879,-2.174 0,0"
         inkscape:connector-curvature="0" />
    </g>
    <g
       transform="matrix(0.79073894,0,0,-0.88307645,44.42141,25.420293)"
       id="g8817">
      <path
         id="path8819"
         style="fill:#000000;fill-opacity:1;fill-rule:nonzero;stroke:none"
         d="m 0,0 c -1.14,-1.685 -1.14,-4.274 0,-5.958 0.907,-1.089 2.28,-1.528 3.73,-1.321 1.295,0.285 2.59,1.373 3.03,2.746 0.571,1.735 0,3.729 -1.242,5.102 C 4.377,1.373 2.045,2.535 0,0"
         inkscape:connector-curvature="0" />
    </g>
    <g
       transform="matrix(0.79073894,0,0,-0.88307645,50.850833,19.925177)"
       id="g8821">
      <path
         id="path8823"
         style="fill:#ffffff;fill-opacity:1;fill-rule:nonzero;stroke:none"
         d="m 0,0 c 0,0.722 -0.75,1.307 -1.678,1.307 -0.926,0 -1.676,-0.585 -1.676,-1.307 0,-0.723 0.75,-1.308 1.676,-1.308 C -0.75,-1.308 0,-0.723 0,0"
         inkscape:connector-curvature="0" />
    </g>
    <g
       transform="matrix(0.79073894,0,0,-0.88307645,18.756397,16.202304)"
       id="g8825">
      <path
         id="path8827"
         style="fill:#b18db8;fill-opacity:1;fill-rule:nonzero;stroke:none"
         d="m 0,0 c -3.136,-1.657 -7.812,-4.299 -7.371,-8.444 0,0 -2.733,4.455 -5.375,5.025 -2.381,0.606 -5.52,1.058 -7.266,2.877 1.09,-3.341 5.309,-3.863 8.317,-4.627 2.641,-0.57 5.375,-5.026 5.375,-5.026 -0.442,4.145 4.234,6.787 7.369,8.445 1.606,1.14 3.082,2.694 2.617,4.611 C 4.053,2.49 4.398,2.099 4.705,1.689 4.205,2.749 3.529,3.738 2.615,4.612 3.082,2.695 1.604,1.14 0,0"
         inkscape:connector-curvature="0" />
    </g>
    <g
       transform="matrix(0.79073894,0,0,-0.88307645,12.216594,29.719201)"
       id="g8829">
      <path
         id="path8831"
         style="fill:#b18db8;fill-opacity:1;fill-rule:nonzero;stroke:none"
         d="M 0,0 C 0.815,-6.183 2.933,-11.221 5.502,-15.244 3.18,-11.118 1.381,-6.046 0.849,0.087 0.849,0.087 0.532,0.04 0,0"
         inkscape:connector-curvature="0" />
    </g>
    <g
       transform="matrix(0.79073894,0,0,-0.88307645,2.6512654,16.312688)"
       id="g8833">
      <path
         id="path8835"
         style="fill:#b18db8;fill-opacity:1;fill-rule:nonzero;stroke:none"
         d="m 0,0 c -0.457,0.604 -0.777,1.341 -0.901,2.249 -0.985,-3.16 -1.427,-7.512 0.362,-10.438 0.293,-0.749 0.679,-1.395 1.131,-1.951 l -0.08,0.201 C -1.184,-7.164 -0.875,-3.107 0,0"
         inkscape:connector-curvature="0" />
    </g>
    <g
       transform="matrix(0.79073894,0,0,-0.88307645,49.416824,28.046209)"
       id="g8837">
      <path
         id="path8839"
         style="fill:#ffffff;fill-opacity:1;fill-rule:nonzero;stroke:none"
         d="m 0,0 c 0,2.049 -1.511,3.71 -3.374,3.71 -1.863,0 -3.372,-1.661 -3.372,-3.71 0,-2.049 1.509,-3.71 3.372,-3.71 C -1.511,-3.71 0,-2.049 0,0"
         inkscape:connector-curvature="0" />
    </g>
    <g
       transform="matrix(0.79073894,0,0,-0.88307645,46.600611,24.774325)"
       id="g8841">
      <path
         id="path8843"
         style="fill:#dce8eb;fill-opacity:1;fill-rule:nonzero;stroke:none"
         d="m 0,0 c -1.775,-0.107 -3.185,-1.725 -3.185,-3.705 0,-2.049 1.509,-3.71 3.373,-3.71 0.648,0 1.254,0.202 1.769,0.551 C 1.895,-6.868 1.832,-6.87 1.769,-6.87 c -1.864,0 -3.373,1.661 -3.373,3.71 0,1.336 0.641,2.506 1.604,3.16"
         inkscape:connector-curvature="0" />
    </g>
    <g
       transform="matrix(0.79073894,0,0,-0.88307645,58.47324,25.466834)"
       id="g8845">
      <path
         id="path8847"
         style="fill:#dce8eb;fill-opacity:1;fill-rule:nonzero;stroke:none"
         d="m 0,0 c 0.881,-1.373 1.555,-2.822 2.047,-4.352 0.28,0.199 0.424,0.512 0.512,0.848 -0.771,0.244 -1.32,0.877 -1.32,1.619 0,0.417 0.174,0.8 0.465,1.099 C 1.198,-0.354 0.631,-0.093 0,0"
         inkscape:connector-curvature="0" />
    </g>
    <g
       transform="matrix(0.79073894,0,0,-0.88307645,59.885657,27.011335)"
       id="g8849">
      <path
         id="path8851"
         style="fill:#000000;fill-opacity:1;fill-rule:nonzero;stroke:none"
         d="m 0,0 c 0,0.639 -0.519,1.155 -1.156,1.155 -0.639,0 -1.155,-0.516 -1.155,-1.155 0,-0.638 0.516,-1.154 1.155,-1.154 C -0.519,-1.154 0,-0.638 0,0"
         inkscape:connector-curvature="0" />
    </g>
    <g
       transform="matrix(0.79073894,0,0,-0.88307645,59.842407,26.544803)"
       id="g8853">
      <path
         id="path8855"
         style="fill:#ffffff;fill-opacity:1;fill-rule:nonzero;stroke:none"
         d="m 0,0 c 0,0.316 -0.258,0.572 -0.574,0.572 -0.315,0 -0.571,-0.256 -0.571,-0.572 0,-0.316 0.256,-0.572 0.571,-0.572 C -0.258,-0.572 0,-0.316 0,0"
         inkscape:connector-curvature="0" />
    </g>
    <g
       transform="matrix(0.79073894,0,0,-0.88307645,47.416812,27.588337)"
       id="g8857">
      <path
         id="path8859"
         style="fill:#000000;fill-opacity:1;fill-rule:nonzero;stroke:none"
         d="m 0,0 c 0,1.028 -0.835,1.863 -1.862,1.863 -1.031,0 -1.865,-0.835 -1.865,-1.863 0,-1.029 0.834,-1.864 1.865,-1.864 C -0.835,-1.864 0,-1.029 0,0"
         inkscape:connector-curvature="0" />
    </g>
    <g
       transform="matrix(0.79073894,0,0,-0.88307645,47.244588,27.011335)"
       id="g8861">
      <path
         id="path8863"
         style="fill:#ffffff;fill-opacity:1;fill-rule:nonzero;stroke:none"
         d="m 0,0 c 0,0.549 -0.443,0.992 -0.991,0.992 -0.548,0 -0.991,-0.443 -0.991,-0.992 0,-0.548 0.443,-0.99 0.991,-0.99 C -0.443,-0.99 0,-0.548 0,0"
         inkscape:connector-curvature="0" />
    </g>
    <g
       transform="matrix(0.79073894,0,0,-0.88307645,37.266963,4.1884851)"
       id="g8865">
      <path
         id="path8867"
         style="fill:#ffffff;fill-opacity:1;fill-rule:evenodd;stroke:none"
         d="m 0,0 -0.097,0.021 c -0.492,0.26 -1.165,0.105 -1.502,-0.363 -0.088,-0.186 -0.121,-0.375 -0.115,-0.562 0.197,0.007 1.475,-1.16 1.992,-1.548 C 0.136,-1.615 -0.062,-0.784 0,0"
         inkscape:connector-curvature="0" />
    </g>
    <g
       transform="matrix(0.79073894,0,0,-0.88307645,42.704008,4.2644298)"
       id="g8869">
      <path
         id="path8871"
         style="fill:#ffffff;fill-opacity:1;fill-rule:evenodd;stroke:none"
         d="m 0,0 c -1.252,2.133 -3.113,-0.514 -3.113,-0.514 0.233,0.778 0.104,1.685 -0.129,2.436 -0.259,0.724 -1.037,1.01 -1.735,1.036 -0.352,-0.345 -0.572,-0.707 -0.701,-1.085 0.592,-0.098 1.169,-0.396 1.386,-1.003 0.233,-0.751 0.362,-1.656 0.129,-2.433 0,0 2.32,3.298 3.523,-0.442 C -0.42,-1.368 -0.257,-0.65 0,0"
         inkscape:connector-curvature="0" />
    </g>
    <g
       transform="matrix(0.79073894,0,0,-0.88307645,47.168912,10.415764)"
       id="g8873">
      <path
         id="path8875"
         style="fill:#ffffff;fill-opacity:1;fill-rule:evenodd;stroke:none"
         d="M 0,0 C 0.258,0.071 0.512,0.211 0.723,0.454 0.818,0.565 0.906,0.698 0.98,0.857 1.137,1.193 1.137,1.607 0.929,1.918 0.515,2.386 -0.055,2.566 -0.625,2.462 -0.729,2.98 -0.211,3.396 -0.133,3.913 0.022,4.405 -0.055,5.001 -0.573,5.339 -1.221,5.545 -1.524,5.179 -2.127,4.897 -1.842,6.063 -1.299,7.41 -1.868,8.628 -2.127,9.12 -2.541,9.742 -3.164,9.742 -3.676,9.495 -4.028,9.108 -4.293,8.651 l 0.078,0.041 c 0.623,0 1.037,-0.622 1.295,-1.114 0.57,-1.218 0.027,-2.564 -0.258,-3.73 0.604,0.28 0.907,0.647 1.555,0.44 C -1.105,3.951 -1.027,3.355 -1.184,2.863 -1.26,2.346 -1.779,1.931 -1.676,1.412 -1.105,1.517 -0.535,1.334 -0.121,0.868 0.048,0.615 0.078,0.293 0,0"
         inkscape:connector-curvature="0" />
    </g>
    <g
       transform="matrix(0.79073894,0,0,-0.88307645,46.504856,12.2138)"
       id="g8877">
      <path
         id="path8879"
         style="fill:#788b91;fill-opacity:1;fill-rule:nonzero;stroke:none"
         d="M 0,0 C 0,0.654 -0.529,1.186 -1.186,1.186 -1.84,1.186 -2.371,0.654 -2.371,0 c 0,-0.655 0.531,-1.187 1.185,-1.187 C -0.529,-1.187 0,-0.655 0,0"
         inkscape:connector-curvature="0" />
    </g>
    <g
       transform="matrix(0.79073894,0,0,-0.88307645,46.236081,12.225895)"
       id="g8881">
      <path
         id="path8883"
         style="fill:#dce8eb;fill-opacity:1;fill-rule:nonzero;stroke:none"
         d="m 0,0 c 0,0.426 -0.347,0.771 -0.772,0.771 -0.427,0 -0.771,-0.345 -0.771,-0.771 0,-0.426 0.344,-0.771 0.771,-0.771 C -0.347,-0.771 0,-0.426 0,0"
         inkscape:connector-curvature="0" />
    </g>
    <g
       transform="matrix(0.79073894,0,0,-0.88307645,46.236081,12.037008)"
       id="g8885">
      <path
         id="path8887"
         style="fill:#ffffff;fill-opacity:1;fill-rule:nonzero;stroke:none"
         d="m 0,0 c 0,0.309 -0.25,0.558 -0.558,0.558 -0.307,0 -0.557,-0.249 -0.557,-0.558 0,-0.307 0.25,-0.557 0.557,-0.557 C -0.25,-0.557 0,-0.307 0,0"
         inkscape:connector-curvature="0" />
    </g>
    <g
       transform="matrix(0.79073894,0,0,-0.88307645,37.766552,9.9862361)"
       id="g8889">
      <path
         id="path8891"
         style="fill:#788b91;fill-opacity:1;fill-rule:nonzero;stroke:none"
         d="m 0,0 c 0,0.655 -0.531,1.187 -1.187,1.187 -0.655,0 -1.186,-0.532 -1.186,-1.187 0,-0.655 0.531,-1.186 1.186,-1.186 C -0.531,-1.186 0,-0.655 0,0"
         inkscape:connector-curvature="0" />
    </g>
    <g
       transform="matrix(0.79073894,0,0,-0.88307645,37.495493,9.9974547)"
       id="g8893">
      <path
         id="path8895"
         style="fill:#dce8eb;fill-opacity:1;fill-rule:nonzero;stroke:none"
         d="m 0,0 c 0,0.426 -0.345,0.771 -0.771,0.771 -0.425,0 -0.771,-0.345 -0.771,-0.771 0,-0.425 0.346,-0.771 0.771,-0.771 C -0.345,-0.771 0,-0.425 0,0"
         inkscape:connector-curvature="0" />
    </g>
    <g
       transform="matrix(0.79073894,0,0,-0.88307645,37.495493,9.8086524)"
       id="g8897">
      <path
         id="path8899"
         style="fill:#ffffff;fill-opacity:1;fill-rule:nonzero;stroke:none"
         d="m 0,0 c 0,0.308 -0.249,0.557 -0.558,0.557 -0.306,0 -0.556,-0.249 -0.556,-0.557 0,-0.307 0.25,-0.556 0.556,-0.556 C -0.249,-0.556 0,-0.307 0,0"
         inkscape:connector-curvature="0" />
    </g>
    <g
       transform="matrix(0.79073894,0,0,-0.88307645,43.753476,5.0388039)"
       id="g8901">
      <path
         id="path8903"
         style="fill:#788b91;fill-opacity:1;fill-rule:nonzero;stroke:none"
         d="m 0,0 c 0,0.653 -0.532,1.185 -1.187,1.185 -0.655,0 -1.186,-0.532 -1.186,-1.185 0,-0.656 0.531,-1.188 1.186,-1.188 C -0.532,-1.188 0,-0.656 0,0"
         inkscape:connector-curvature="0" />
    </g>
    <g
       transform="matrix(0.79073894,0,0,-0.88307645,43.48162,5.0517818)"
       id="g8905">
      <path
         id="path8907"
         style="fill:#dce8eb;fill-opacity:1;fill-rule:nonzero;stroke:none"
         d="M 0,0 C 0,0.426 -0.345,0.771 -0.771,0.771 -1.196,0.771 -1.54,0.426 -1.54,0 c 0,-0.426 0.344,-0.771 0.769,-0.771 C -0.345,-0.771 0,-0.426 0,0"
         inkscape:connector-curvature="0" />
    </g>
    <g
       transform="matrix(0.79073894,0,0,-0.88307645,43.48162,4.8628944)"
       id="g8909">
      <path
         id="path8911"
         style="fill:#ffffff;fill-opacity:1;fill-rule:nonzero;stroke:none"
         d="m 0,0 c 0,0.309 -0.248,0.558 -0.556,0.558 -0.307,0 -0.557,-0.249 -0.557,-0.558 0,-0.307 0.25,-0.557 0.557,-0.557 C -0.248,-0.557 0,-0.307 0,0"
         inkscape:connector-curvature="0" />
    </g>
    <g
       transform="matrix(0.79073894,0,0,-0.88307645,48.432279,3.8236836)"
       id="g8913">
      <path
         id="path8915"
         style="fill:#788b91;fill-opacity:1;fill-rule:nonzero;stroke:none"
         d="m 0,0 c 0,0.482 -0.393,0.875 -0.876,0.875 -0.483,0 -0.875,-0.393 -0.875,-0.875 0,-0.484 0.392,-0.876 0.875,-0.876 C -0.393,-0.876 0,-0.484 0,0"
         inkscape:connector-curvature="0" />
    </g>
    <g
       transform="matrix(0.79073894,0,0,-0.88307645,48.232221,3.8332269)"
       id="g8917">
      <path
         id="path8919"
         style="fill:#dce8eb;fill-opacity:1;fill-rule:nonzero;stroke:none"
         d="m 0,0 c 0,0.314 -0.255,0.569 -0.569,0.569 -0.314,0 -0.569,-0.255 -0.569,-0.569 0,-0.313 0.255,-0.568 0.569,-0.568 C -0.255,-0.568 0,-0.313 0,0"
         inkscape:connector-curvature="0" />
    </g>
    <g
       transform="matrix(0.79073894,0,0,-0.88307645,48.232221,3.6935245)"
       id="g8921">
      <path
         id="path8923"
         style="fill:#ffffff;fill-opacity:1;fill-rule:nonzero;stroke:none"
         d="m 0,0 c 0,0.228 -0.185,0.411 -0.411,0.411 -0.227,0 -0.411,-0.183 -0.411,-0.411 0,-0.227 0.184,-0.411 0.411,-0.411 C -0.185,-0.411 0,-0.227 0,0"
         inkscape:connector-curvature="0" />
    </g>
    <g
       transform="matrix(0.79073894,0,0,-0.88307645,37.588958,12.912314)"
       id="g8925">
      <path
         id="path8927"
         style="fill:#788b91;fill-opacity:1;fill-rule:nonzero;stroke:none"
         d="m 0,0 c 0,0.482 -0.393,0.875 -0.876,0.875 -0.483,0 -0.876,-0.393 -0.876,-0.875 0,-0.484 0.393,-0.875 0.876,-0.875 C -0.393,-0.875 0,-0.484 0,0"
         inkscape:connector-curvature="0" />
    </g>
    <g
       transform="matrix(0.79073894,0,0,-0.88307645,37.388977,12.921851)"
       id="g8929">
      <path
         id="path8931"
         style="fill:#dce8eb;fill-opacity:1;fill-rule:nonzero;stroke:none"
         d="M 0,0 C 0,0.314 -0.255,0.57 -0.569,0.57 -0.884,0.57 -1.14,0.314 -1.14,0 c 0,-0.313 0.256,-0.568 0.571,-0.568 C -0.255,-0.568 0,-0.313 0,0"
         inkscape:connector-curvature="0" />
    </g>
    <g
       transform="matrix(0.79073894,0,0,-0.88307645,37.388977,12.781257)"
       id="g8933">
      <path
         id="path8935"
         style="fill:#ffffff;fill-opacity:1;fill-rule:nonzero;stroke:none"
         d="m 0,0 c 0,0.227 -0.185,0.411 -0.411,0.411 -0.227,0 -0.412,-0.184 -0.412,-0.411 0,-0.228 0.185,-0.412 0.412,-0.412 C -0.185,-0.412 0,-0.228 0,0"
         inkscape:connector-curvature="0" />
    </g>
    <g
       transform="matrix(0.79073894,0,0,-0.88307645,35.983518,1.7350377)"
       id="g8937">
      <path
         id="path8939"
         style="fill:#788b91;fill-opacity:1;fill-rule:nonzero;stroke:none"
         d="m 0,0 c 0,0.483 -0.392,0.876 -0.875,0.876 -0.483,0 -0.876,-0.393 -0.876,-0.876 0,-0.483 0.393,-0.876 0.876,-0.876 C -0.392,-0.876 0,-0.483 0,0"
         inkscape:connector-curvature="0" />
    </g>
    <g
       transform="matrix(0.79073894,0,0,-0.88307645,35.783543,1.7436919)"
       id="g8941">
      <path
         id="path8943"
         style="fill:#dce8eb;fill-opacity:1;fill-rule:nonzero;stroke:none"
         d="m 0,0 c 0,0.314 -0.255,0.57 -0.568,0.57 -0.315,0 -0.569,-0.256 -0.569,-0.57 0,-0.313 0.254,-0.569 0.569,-0.569 C -0.255,-0.569 0,-0.313 0,0"
         inkscape:connector-curvature="0" />
    </g>
    <g
       transform="matrix(0.79073894,0,0,-0.88307645,35.783543,1.6039884)"
       id="g8945">
      <path
         id="path8947"
         style="fill:#ffffff;fill-opacity:1;fill-rule:nonzero;stroke:none"
         d="m 0,0 c 0,0.227 -0.184,0.412 -0.411,0.412 -0.226,0 -0.411,-0.185 -0.411,-0.412 0,-0.228 0.185,-0.411 0.411,-0.411 C -0.184,-0.411 0,-0.228 0,0"
         inkscape:connector-curvature="0" />
    </g>
  </g>
</svg>
