<?xml version="1.0" encoding="UTF-8" standalone="no"?>
<!-- Created with Inkscape (http://www.inkscape.org/) -->

<svg
   xmlns:dc="http://purl.org/dc/elements/1.1/"
   xmlns:cc="http://creativecommons.org/ns#"
   xmlns:rdf="http://www.w3.org/1999/02/22-rdf-syntax-ns#"
   xmlns:svg="http://www.w3.org/2000/svg"
   xmlns="http://www.w3.org/2000/svg"
   xmlns:sodipodi="http://sodipodi.sourceforge.net/DTD/sodipodi-0.dtd"
   xmlns:inkscape="http://www.inkscape.org/namespaces/inkscape"
   width="64px"
   height="64px"
   id="svg138931"
   version="1.1"
   inkscape:version="0.48.5 r10040"
   sodipodi:docname="wrotka.svg">
  <defs
     id="defs138933">
    <clipPath
       id="clipPath4023"
       clipPathUnits="userSpaceOnUse">
      <path
         inkscape:connector-curvature="0"
         id="path4025"
         d="M 0,800 1600,800 1600,0 0,0 0,800 z" />
    </clipPath>
    <clipPath
       id="clipPath4067"
       clipPathUnits="userSpaceOnUse">
      <path
         inkscape:connector-curvature="0"
         id="path4069"
         d="m 434.201,742.441 0.861,0 0,-12.503 -0.861,0 0,12.503 z" />
    </clipPath>
    <clipPath
       id="clipPath4119"
       clipPathUnits="userSpaceOnUse">
      <path
         inkscape:connector-curvature="0"
         id="path4121"
         d="m 465.67,743.083 0.86,0 0,-12.504 -0.86,0 0,12.504 z" />
    </clipPath>
    <clipPath
       id="clipPath4173"
       clipPathUnits="userSpaceOnUse">
      <path
         inkscape:connector-curvature="0"
         id="path4175"
         d="m 425.26,754.083 10.765,0 0,-10.536 -10.765,0 0,10.536 z" />
    </clipPath>
    <clipPath
       id="clipPath4189"
       clipPathUnits="userSpaceOnUse">
      <path
         inkscape:connector-curvature="0"
         id="path4191"
         d="m 442.397,773.69 21.842,0 0,-22.33 -21.842,0 0,22.33 z" />
    </clipPath>
    <clipPath
       id="clipPath4205"
       clipPathUnits="userSpaceOnUse">
      <path
         inkscape:connector-curvature="0"
         id="path4207"
         d="m 458.719,752.729 11.531,0 0,-11.266 -11.531,0 0,11.266 z" />
    </clipPath>
    <clipPath
       id="clipPath4333"
       clipPathUnits="userSpaceOnUse">
      <path
         inkscape:connector-curvature="0"
         id="path4335"
         d="m 430.066,732.469 6.746,0 0,-6.745 -6.746,0 0,6.745 z" />
    </clipPath>
    <clipPath
       id="clipPath4353"
       clipPathUnits="userSpaceOnUse">
      <path
         inkscape:connector-curvature="0"
         id="path4355"
         d="m 431.054,732.464 2.384,0 0,-3.068 -2.384,0 0,3.068 z" />
    </clipPath>
    <clipPath
       id="clipPath4369"
       clipPathUnits="userSpaceOnUse">
      <path
         inkscape:connector-curvature="0"
         id="path4371"
         d="m 433.438,732.464 2.386,0 0,-3.068 -2.386,0 0,3.068 z" />
    </clipPath>
    <clipPath
       id="clipPath4385"
       clipPathUnits="userSpaceOnUse">
      <path
         inkscape:connector-curvature="0"
         id="path4387"
         d="m 432.053,732.768 2.771,0 0,-3.372 -2.771,0 0,3.372 z" />
    </clipPath>
    <clipPath
       id="clipPath4421"
       clipPathUnits="userSpaceOnUse">
      <path
         inkscape:connector-curvature="0"
         id="path4423"
         d="m 426.086,736.748 14.706,0 0,-7.352 -14.706,0 0,7.352 z" />
    </clipPath>
    <clipPath
       id="clipPath4441"
       clipPathUnits="userSpaceOnUse">
      <path
         inkscape:connector-curvature="0"
         id="path4443"
         d="m 461.662,733.011 6.746,0 0,-6.746 -6.746,0 0,6.746 z" />
    </clipPath>
    <clipPath
       id="clipPath4461"
       clipPathUnits="userSpaceOnUse">
      <path
         inkscape:connector-curvature="0"
         id="path4463"
         d="m 462.65,733.006 2.385,0 0,-3.068 -2.385,0 0,3.068 z" />
    </clipPath>
    <clipPath
       id="clipPath4477"
       clipPathUnits="userSpaceOnUse">
      <path
         inkscape:connector-curvature="0"
         id="path4479"
         d="m 465.035,733.006 2.384,0 0,-3.068 -2.384,0 0,3.068 z" />
    </clipPath>
    <clipPath
       id="clipPath4493"
       clipPathUnits="userSpaceOnUse">
      <path
         inkscape:connector-curvature="0"
         id="path4495"
         d="m 463.649,733.311 2.771,0 0,-3.373 -2.771,0 0,3.373 z" />
    </clipPath>
    <clipPath
       id="clipPath4529"
       clipPathUnits="userSpaceOnUse">
      <path
         inkscape:connector-curvature="0"
         id="path4531"
         d="m 457.682,737.29 14.705,0 0,-7.352 -14.705,0 0,7.352 z" />
    </clipPath>
  </defs>
  <sodipodi:namedview
     id="base"
     pagecolor="#ffffff"
     bordercolor="#666666"
     borderopacity="1.0"
     inkscape:pageopacity="0.0"
     inkscape:pageshadow="2"
     inkscape:zoom="5.5"
     inkscape:cx="32"
     inkscape:cy="32"
     inkscape:current-layer="layer1"
     showgrid="true"
     inkscape:document-units="px"
     inkscape:grid-bbox="true"
     inkscape:window-width="1366"
     inkscape:window-height="706"
     inkscape:window-x="-8"
     inkscape:window-y="-8"
     inkscape:window-maximized="1" />
  <metadata
     id="metadata138936">
    <rdf:RDF>
      <cc:Work
         rdf:about="">
        <dc:format>image/svg+xml</dc:format>
        <dc:type
           rdf:resource="http://purl.org/dc/dcmitype/StillImage" />
        <dc:title></dc:title>
      </cc:Work>
    </rdf:RDF>
  </metadata>
  <g
     id="layer1"
     inkscape:label="Layer 1"
     inkscape:groupmode="layer">
    <path
       inkscape:connector-curvature="0"
       d="m 15.295003,50.968061 -4.02373,0 0,-11.730642 4.02373,0 0,11.730642 z"
       style="fill:#c8c7c7;fill-opacity:1;fill-rule:nonzero;stroke:none"
       id="path4017" />
    <g
       id="g4019"
       transform="matrix(0.93815108,0,0,-0.93815108,-392.45453,734.55655)">
      <g
         id="g4021"
         clip-path="url(#clipPath4023)">
        <g
           id="g4027"
           transform="translate(429.9517,738.7153)">
          <path
             inkscape:connector-curvature="0"
             d="M 0,0 5.069,0 C 5.178,0 5.27,-0.062 5.322,-0.149 5.349,-0.105 5.368,-0.056 5.368,0 5.368,0.166 5.234,0.299 5.069,0.299 L 0,0.299 c -0.165,0 -0.299,-0.133 -0.299,-0.299 0,-0.056 0.02,-0.105 0.046,-0.149 C -0.201,-0.062 -0.109,0 0,0"
             style="fill:#c8c7c7;fill-opacity:1;fill-rule:nonzero;stroke:none"
             id="path4029" />
        </g>
        <g
           id="g4031"
           transform="translate(435.021,738.1172)">
          <path
             inkscape:connector-curvature="0"
             d="m 0,0 0.017,0 c 0.098,0 0.169,-0.057 0.22,-0.132 0.03,0.046 0.062,0.091 0.062,0.15 0,0.048 -0.03,0.084 -0.052,0.124 C 0.194,0.059 0.105,0 0,0"
             style="fill:#c8c7c7;fill-opacity:1;fill-rule:nonzero;stroke:none"
             id="path4033" />
        </g>
        <g
           id="g4035"
           transform="translate(435.0376,737.5547)">
          <path
             inkscape:connector-curvature="0"
             d="m 0,0 c 0.098,0 0.169,-0.058 0.221,-0.133 0.029,0.046 0.061,0.091 0.061,0.15 0,0.051 -0.03,0.09 -0.054,0.131 C 0.178,0.065 0.104,0 0,0"
             style="fill:#c8c7c7;fill-opacity:1;fill-rule:nonzero;stroke:none"
             id="path4037" />
        </g>
        <g
           id="g4039"
           transform="translate(429.9517,738.4165)">
          <path
             inkscape:connector-curvature="0"
             d="M 0,0 5.069,0 C 5.178,0 5.27,0.062 5.322,0.149 5.27,0.237 5.178,0.299 5.069,0.299 L 0,0.299 c -0.109,0 -0.201,-0.062 -0.253,-0.15 C -0.201,0.062 -0.109,0 0,0"
             style="fill:#c8c7c7;fill-opacity:1;fill-rule:nonzero;stroke:none"
             id="path4041" />
        </g>
        <g
           id="g4043"
           transform="translate(435.0376,738.4165)">
          <path
             inkscape:connector-curvature="0"
             d="m 0,0 -0.017,0 -5.069,0 -0.017,0 c -0.107,0 -0.183,-0.07 -0.23,-0.157 0.054,-0.084 0.141,-0.142 0.247,-0.142 l 5.069,0 c 0.105,0 0.195,0.058 0.247,0.142 C 0.183,-0.07 0.107,0 0,0"
             style="fill:#656263;fill-opacity:1;fill-rule:nonzero;stroke:none"
             id="path4045" />
        </g>
        <g
           id="g4047"
           transform="translate(435.0376,738.1172)">
          <path
             inkscape:connector-curvature="0"
             d="m 0,0 -0.017,0 -5.069,0 -0.017,0 c -0.096,0 -0.169,-0.057 -0.219,-0.132 0.05,-0.075 0.123,-0.132 0.219,-0.132 l 5.103,0 c 0.098,0 0.169,0.057 0.221,0.132 C 0.169,-0.057 0.098,0 0,0"
             style="fill:#c8c7c7;fill-opacity:1;fill-rule:nonzero;stroke:none"
             id="path4049" />
        </g>
        <g
           id="g4051"
           transform="translate(435.0376,737.8535)">
          <path
             inkscape:connector-curvature="0"
             d="m 0,0 -5.103,0 c -0.104,0 -0.178,-0.066 -0.227,-0.15 0.049,-0.083 0.123,-0.149 0.227,-0.149 l 5.103,0 c 0.104,0 0.178,0.066 0.228,0.149 C 0.178,-0.066 0.104,0 0,0"
             style="fill:#656263;fill-opacity:1;fill-rule:nonzero;stroke:none"
             id="path4053" />
        </g>
        <g
           id="g4055"
           transform="translate(435.0376,737.5547)">
          <path
             inkscape:connector-curvature="0"
             d="m 0,0 -5.103,0 c -0.096,0 -0.169,-0.058 -0.219,-0.133 0.05,-0.075 0.123,-0.132 0.219,-0.132 l 5.103,0 c 0.098,0 0.169,0.057 0.221,0.132 C 0.169,-0.058 0.098,0 0,0"
             style="fill:#c8c7c7;fill-opacity:1;fill-rule:nonzero;stroke:none"
             id="path4057" />
        </g>
        <g
           id="g4059"
           transform="translate(443.2324,740.8379)">
          <path
             inkscape:connector-curvature="0"
             d="m 0,0 -3.991,-11.2 -5.062,-0.242 0,12.078 L 0,0 z"
             style="fill:#9c9a9b;fill-opacity:1;fill-rule:nonzero;stroke:none"
             id="path4061" />
        </g>
        <g
           id="g4063">
          <g
             id="g4065" />
          <g
             id="g4071">
            <g
               clip-path="url(#clipPath4067)"
               id="g4073">
              <path
                 inkscape:connector-curvature="0"
                 d="m 435.062,729.937 -0.861,0 0,12.504 0.861,0 0,-12.504 z"
                 style="fill:#918f90;fill-opacity:1;fill-rule:nonzero;stroke:none"
                 id="path4075" />
            </g>
          </g>
        </g>
        <path
           inkscape:connector-curvature="0"
           d="m 466.1,729.296 -4.289,0 0,12.504 4.289,0 0,-12.504 z"
           style="fill:#c8c7c7;fill-opacity:1;fill-rule:nonzero;stroke:none"
           id="path4077" />
        <g
           id="g4079"
           transform="translate(461.4214,739.3564)">
          <path
             inkscape:connector-curvature="0"
             d="M 0,0 5.068,0 C 5.177,0 5.269,-0.062 5.322,-0.149 5.348,-0.104 5.367,-0.055 5.367,0 5.367,0.165 5.233,0.299 5.068,0.299 L 0,0.299 c -0.165,0 -0.299,-0.134 -0.299,-0.299 0,-0.055 0.019,-0.104 0.046,-0.149 C -0.201,-0.062 -0.109,0 0,0"
             style="fill:#c8c7c7;fill-opacity:1;fill-rule:nonzero;stroke:none"
             id="path4081" />
        </g>
        <g
           id="g4083"
           transform="translate(466.4897,738.7588)">
          <path
             inkscape:connector-curvature="0"
             d="m 0,0 0.018,0 c 0.097,0 0.169,-0.057 0.219,-0.132 0.03,0.046 0.062,0.091 0.062,0.15 0,0.048 -0.029,0.084 -0.051,0.123 C 0.195,0.059 0.105,0 0,0"
             style="fill:#c8c7c7;fill-opacity:1;fill-rule:nonzero;stroke:none"
             id="path4085" />
        </g>
        <g
           id="g4087"
           transform="translate(466.5073,738.1958)">
          <path
             inkscape:connector-curvature="0"
             d="m 0,0 c 0.097,0 0.169,-0.058 0.22,-0.132 0.03,0.045 0.061,0.09 0.061,0.149 0,0.051 -0.03,0.091 -0.054,0.132 C 0.177,0.065 0.104,0 0,0"
             style="fill:#c8c7c7;fill-opacity:1;fill-rule:nonzero;stroke:none"
             id="path4089" />
        </g>
        <g
           id="g4091"
           transform="translate(461.4214,739.0576)">
          <path
             inkscape:connector-curvature="0"
             d="M 0,0 5.068,0 C 5.177,0 5.269,0.062 5.322,0.149 5.269,0.237 5.177,0.299 5.068,0.299 L 0,0.299 c -0.109,0 -0.201,-0.062 -0.253,-0.15 C -0.201,0.062 -0.109,0 0,0"
             style="fill:#c8c7c7;fill-opacity:1;fill-rule:nonzero;stroke:none"
             id="path4093" />
        </g>
        <g
           id="g4095"
           transform="translate(466.5073,739.0576)">
          <path
             inkscape:connector-curvature="0"
             d="m 0,0 -0.018,0 -5.068,0 -0.018,0 c -0.107,0 -0.182,-0.07 -0.229,-0.158 0.053,-0.082 0.141,-0.141 0.247,-0.141 l 5.068,0 c 0.106,0 0.195,0.059 0.248,0.141 C 0.183,-0.07 0.106,0 0,0"
             style="fill:#656263;fill-opacity:1;fill-rule:nonzero;stroke:none"
             id="path4097" />
        </g>
        <g
           id="g4099"
           transform="translate(466.5073,738.7588)">
          <path
             inkscape:connector-curvature="0"
             d="m 0,0 -0.018,0 -5.068,0 -0.018,0 c -0.096,0 -0.169,-0.057 -0.219,-0.132 0.05,-0.076 0.123,-0.132 0.219,-0.132 l 5.104,0 c 0.097,0 0.169,0.056 0.22,0.132 C 0.169,-0.057 0.097,0 0,0"
             style="fill:#c8c7c7;fill-opacity:1;fill-rule:nonzero;stroke:none"
             id="path4101" />
        </g>
        <g
           id="g4103"
           transform="translate(466.5073,738.4946)">
          <path
             inkscape:connector-curvature="0"
             d="m 0,0 -5.104,0 c -0.104,0 -0.178,-0.066 -0.226,-0.15 0.048,-0.083 0.122,-0.149 0.226,-0.149 l 5.104,0 c 0.104,0 0.177,0.066 0.227,0.149 C 0.177,-0.066 0.104,0 0,0"
             style="fill:#656263;fill-opacity:1;fill-rule:nonzero;stroke:none"
             id="path4105" />
        </g>
        <g
           id="g4107"
           transform="translate(466.5073,738.1958)">
          <path
             inkscape:connector-curvature="0"
             d="m 0,0 -5.104,0 c -0.096,0 -0.169,-0.058 -0.219,-0.132 0.05,-0.076 0.123,-0.133 0.219,-0.133 l 5.104,0 c 0.097,0 0.169,0.057 0.22,0.133 C 0.169,-0.058 0.097,0 0,0"
             style="fill:#c8c7c7;fill-opacity:1;fill-rule:nonzero;stroke:none"
             id="path4109" />
        </g>
        <g
           id="g4111"
           transform="translate(474.7012,741.4795)">
          <path
             inkscape:connector-curvature="0"
             d="m 0,0 -3.991,-11.2 -5.062,-0.242 0,12.078 L 0,0 z"
             style="fill:#9c9a9b;fill-opacity:1;fill-rule:nonzero;stroke:none"
             id="path4113" />
        </g>
        <g
           id="g4115">
          <g
             id="g4117" />
          <g
             id="g4123">
            <g
               clip-path="url(#clipPath4119)"
               id="g4125">
              <path
                 inkscape:connector-curvature="0"
                 d="m 466.53,730.579 -0.86,0 0,12.504 0.86,0 0,-12.504 z"
                 style="fill:#918f90;fill-opacity:1;fill-rule:nonzero;stroke:none"
                 id="path4127" />
            </g>
          </g>
        </g>
        <g
           id="g4129"
           transform="translate(425.4062,744.5112)">
          <path
             inkscape:connector-curvature="0"
             d="m 0,0 c 0,0 -1.376,-2.78 -0.583,-4.38 0.794,-1.599 2.101,-1.325 3.477,-1.325 1.377,0 50.3,-0.018 50.3,-0.018 0,0 0.439,1.499 0.047,2.05 -0.39,0.55 -51.849,4.678 -51.849,4.678 L 0,0 z"
             style="fill:#252a26;fill-opacity:1;fill-rule:nonzero;stroke:none"
             id="path4131" />
        </g>
        <g
           id="g4133"
           transform="translate(481.2163,746.1592)">
          <path
             inkscape:connector-curvature="0"
             d="m 0,0 c -1.835,3.119 -5.688,8.441 -16.147,6.606 0,0 -5.908,-0.516 -9.761,5.172 -3.853,5.688 -9.668,15.722 -9.507,15.722 l -3.853,0 -10.825,0 -4.725,-12.316 c 0,0 -1.514,-1.652 -1.376,-3.028 0.043,-0.431 -0.077,-1.892 -0.199,-3.718 0.002,0 11.6,1.14 11.942,-11.883 8.569,-0.682 22.693,-1.876 25.184,-1.876 l 16.698,0 c 0,0 4.404,2.202 2.569,5.321"
             style="fill:#00587e;fill-opacity:1;fill-rule:nonzero;stroke:none"
             id="path4135" />
        </g>
        <g
           id="g4137"
           transform="translate(424.8232,754.5977)">
          <path
             inkscape:connector-curvature="0"
             d="m 0,0 c -0.265,-3.998 -0.537,-9.753 0.882,-10.319 2.069,-0.826 2.619,-1.101 4.546,-1.101 0.551,0 3.091,-0.191 6.514,-0.464 C 11.6,1.139 0.002,0 0,0"
             style="fill:#473f65;fill-opacity:1;fill-rule:nonzero;stroke:none"
             id="path4139" />
        </g>
        <g
           id="g4141"
           transform="translate(443.2324,773.6597)">
          <path
             inkscape:connector-curvature="0"
             d="m 0,0 c 0,-0.494 -0.4,-0.894 -0.895,-0.894 l -15.413,0 c -0.494,0 -0.894,0.4 -0.894,0.894 0,0.495 0.4,0.895 0.894,0.895 l 15.413,0 C -0.4,0.895 0,0.495 0,0"
             style="fill:#ebd467;fill-opacity:1;fill-rule:nonzero;stroke:none"
             id="path4143" />
        </g>
        <g
           id="g4145"
           transform="translate(450.0156,760.4771)">
          <path
             inkscape:connector-curvature="0"
             d="m 0,0 -4.405,7.293 -0.733,-17.706 -5.636,-7.453 c 1.597,-0.129 3.32,-0.269 5.085,-0.411 L -0.367,-10.39 0,0 z"
             style="fill:#ebd467;fill-opacity:1;fill-rule:nonzero;stroke:none"
             id="path4147" />
        </g>
        <g
           id="g4149"
           transform="translate(458.2925,755.3164)">
          <path
             inkscape:connector-curvature="0"
             d="M 0,0 C -0.853,0.688 -1.687,1.559 -2.441,2.672 -2.731,3.1 -3.034,3.558 -3.342,4.029 L -4.475,4.336 -5.026,-7.041 -9.87,-13.447 c 1.723,-0.138 3.418,-0.272 5.011,-0.395 L -0.255,-7.018 0,0 z"
             style="fill:#ebd467;fill-opacity:1;fill-rule:nonzero;stroke:none"
             id="path4151" />
        </g>
        <g
           id="g4153"
           transform="translate(427.5439,773.6597)">
          <path
             inkscape:connector-curvature="0"
             d="m 0,0 c 0,0 -1.651,-1.72 -1.514,-3.096 0.138,-1.377 0,-9.22 0,-9.22 0,0 6.743,-2.753 13.211,12.316 L 0,0 z"
             style="fill:#ebd467;fill-opacity:1;fill-rule:nonzero;stroke:none"
             id="path4155" />
        </g>
        <g
           id="g4157"
           transform="translate(469.5645,748.9116)">
          <path
             inkscape:connector-curvature="0"
             d="m 0,0 c -0.917,-1.927 -5.779,-4.128 -10,-4.128 0,0 -0.734,-0.046 -0.918,-0.643 -0.183,-0.596 -0.555,-3.1 -0.555,-3.101 1.844,-0.125 3.228,-0.202 3.858,-0.202 l 16.698,0 c 0,0 4.404,2.203 2.569,5.322 C 9.817,0.367 5.963,5.688 -4.496,3.854 -4.496,3.854 0.918,1.926 0,0"
             style="fill:#473f65;fill-opacity:1;fill-rule:nonzero;stroke:none"
             id="path4159" />
        </g>
        <g
           id="g4161"
           transform="translate(463.0952,753.957)">
          <path
             inkscape:connector-curvature="0"
             d="m 0,0 c 0,0 -1.964,0.631 -3.486,0.9 -1.786,0.315 -13.808,18.917 -13.808,18.917 -0.299,0.462 -1.072,0.402 -1.072,0.402 0,0 -1.707,0.058 -2.305,-0.086 -0.599,-0.144 -0.413,-0.491 -0.413,-0.491 C -15.396,4.034 -6.009,-1.89 -4.908,-2.742 -3.807,-3.593 1.709,-3.019 1.56,-1.204 1.412,0.61 0,0 0,0"
             style="fill:#473f65;fill-opacity:1;fill-rule:nonzero;stroke:none"
             id="path4163" />
        </g>
        <g
           id="g4165"
           transform="translate(438.8696,772.7656)">
          <path
             inkscape:connector-curvature="0"
             d="m 0,0 0,0 c 0,-0.202 -0.084,-0.365 -0.188,-0.365 l -11.695,0 c -0.105,0 -0.189,0.163 -0.189,0.365"
             style="fill:#a77c39;fill-opacity:1;fill-rule:nonzero;stroke:none"
             id="path4167" />
        </g>
        <g
           id="g4169">
          <g
             id="g4171" />
          <g
             id="g4177">
            <g
               clip-path="url(#clipPath4173)"
               id="g4179">
              <g
                 transform="translate(425.2729,753.9116)"
                 id="g4181">
                <path
                   inkscape:connector-curvature="0"
                   d="M 0,0 C 0,0 10.012,0.86 10.597,-10.356"
                   style="fill:none;stroke:#473f65;stroke-width:0.31200001;stroke-linecap:butt;stroke-linejoin:miter;stroke-miterlimit:10;stroke-opacity:1;stroke-dasharray:0.624;stroke-dashoffset:0"
                   id="path4183" />
              </g>
            </g>
          </g>
        </g>
        <g
           id="g4185">
          <g
             id="g4187" />
          <g
             id="g4193">
            <g
               clip-path="url(#clipPath4189)"
               id="g4195">
              <g
                 transform="translate(442.5439,773.6367)"
                 id="g4197">
                <path
                   inkscape:connector-curvature="0"
                   d="m 0,0 c 0,0 3.578,-9.725 8.808,-15.046 5.229,-5.322 6.743,-6.744 7.431,-6.927 0.689,-0.184 4.267,-0.505 5.322,1.285"
                   style="fill:none;stroke:#473f65;stroke-width:0.31200001;stroke-linecap:butt;stroke-linejoin:miter;stroke-miterlimit:10;stroke-opacity:1;stroke-dasharray:0.624;stroke-dashoffset:0"
                   id="path4199" />
              </g>
            </g>
          </g>
        </g>
        <g
           id="g4201">
          <g
             id="g4203" />
          <g
             id="g4209">
            <g
               clip-path="url(#clipPath4205)"
               id="g4211">
              <g
                 transform="translate(466.8105,752.5811)"
                 id="g4213">
                <path
                   inkscape:connector-curvature="0"
                   d="m 0,0 c 0,0 3.625,-1.192 3.257,-3.073 -0.366,-1.881 -0.778,-2.57 -3.072,-3.625 -2.294,-1.054 -6.331,-1.559 -6.331,-1.559 0,0 -1.514,-0.023 -1.606,-0.768 -0.092,-0.746 -0.184,-2.082 -0.184,-2.082"
                   style="fill:none;stroke:#473f65;stroke-width:0.31200001;stroke-linecap:butt;stroke-linejoin:miter;stroke-miterlimit:10;stroke-opacity:1;stroke-dasharray:0.624;stroke-dashoffset:0"
                   id="path4215" />
              </g>
            </g>
          </g>
        </g>
        <g
           id="g4217"
           transform="translate(426.5347,761.8472)">
          <path
             inkscape:connector-curvature="0"
             d="M 0,0 C 0,0 6.102,-1.146 11.147,10.093"
             style="fill:none;stroke:#a77c39;stroke-width:0.31200001;stroke-linecap:butt;stroke-linejoin:miter;stroke-miterlimit:10;stroke-opacity:1;stroke-dasharray:0.624;stroke-dashoffset:0"
             id="path4219" />
        </g>
        <g
           id="g4221"
           transform="translate(445.7012,772.4009)">
          <path
             inkscape:connector-curvature="0"
             d="m 0,0 c 0,-0.367 -0.298,-0.665 -0.665,-0.665 -0.367,0 -0.665,0.298 -0.665,0.665 0,0.368 0.298,0.666 0.665,0.666 C -0.298,0.666 0,0.368 0,0"
             style="fill:#231f20;fill-opacity:1;fill-rule:nonzero;stroke:none"
             id="path4223" />
        </g>
        <g
           id="g4225"
           transform="translate(445.7012,772.4009)">
          <path
             inkscape:connector-curvature="0"
             d="m 0,0 c 0,-0.367 -0.298,-0.665 -0.665,-0.665 -0.367,0 -0.665,0.298 -0.665,0.665 0,0.368 0.298,0.666 0.665,0.666 C -0.298,0.666 0,0.368 0,0 z"
             style="fill:none;stroke:#f3efd9;stroke-width:0.31200001;stroke-linecap:butt;stroke-linejoin:miter;stroke-miterlimit:10;stroke-opacity:1;stroke-dasharray:none"
             id="path4227" />
        </g>
        <g
           id="g4229"
           transform="translate(447.0317,769.6089)">
          <path
             inkscape:connector-curvature="0"
             d="m 0,0 c 0,-0.368 -0.297,-0.665 -0.665,-0.665 -0.367,0 -0.666,0.297 -0.666,0.665 0,0.368 0.299,0.666 0.666,0.666 C -0.297,0.666 0,0.368 0,0"
             style="fill:#231f20;fill-opacity:1;fill-rule:nonzero;stroke:none"
             id="path4231" />
        </g>
        <g
           id="g4233"
           transform="translate(447.0317,769.6089)">
          <path
             inkscape:connector-curvature="0"
             d="m 0,0 c 0,-0.368 -0.297,-0.665 -0.665,-0.665 -0.367,0 -0.666,0.297 -0.666,0.665 0,0.368 0.299,0.666 0.666,0.666 C -0.297,0.666 0,0.368 0,0 z"
             style="fill:none;stroke:#f3efd9;stroke-width:0.31200001;stroke-linecap:butt;stroke-linejoin:miter;stroke-miterlimit:10;stroke-opacity:1;stroke-dasharray:none"
             id="path4235" />
        </g>
        <g
           id="g4237"
           transform="translate(448.7773,766.877)">
          <path
             inkscape:connector-curvature="0"
             d="m 0,0 c 0,-0.367 -0.298,-0.665 -0.665,-0.665 -0.368,0 -0.665,0.298 -0.665,0.665 0,0.368 0.297,0.666 0.665,0.666 C -0.298,0.666 0,0.368 0,0"
             style="fill:#231f20;fill-opacity:1;fill-rule:nonzero;stroke:none"
             id="path4239" />
        </g>
        <g
           id="g4241"
           transform="translate(448.7773,766.877)">
          <path
             inkscape:connector-curvature="0"
             d="m 0,0 c 0,-0.367 -0.298,-0.665 -0.665,-0.665 -0.368,0 -0.665,0.298 -0.665,0.665 0,0.368 0.297,0.666 0.665,0.666 C -0.298,0.666 0,0.368 0,0 z"
             style="fill:none;stroke:#f3efd9;stroke-width:0.31200001;stroke-linecap:butt;stroke-linejoin:miter;stroke-miterlimit:10;stroke-opacity:1;stroke-dasharray:none"
             id="path4243" />
        </g>
        <g
           id="g4245"
           transform="translate(450.4619,764.1362)">
          <path
             inkscape:connector-curvature="0"
             d="m 0,0 c 0,-0.367 -0.297,-0.665 -0.665,-0.665 -0.367,0 -0.666,0.298 -0.666,0.665 0,0.368 0.299,0.666 0.666,0.666 C -0.297,0.666 0,0.368 0,0"
             style="fill:#231f20;fill-opacity:1;fill-rule:nonzero;stroke:none"
             id="path4247" />
        </g>
        <g
           id="g4249"
           transform="translate(450.4619,764.1362)">
          <path
             inkscape:connector-curvature="0"
             d="m 0,0 c 0,-0.367 -0.297,-0.665 -0.665,-0.665 -0.367,0 -0.666,0.298 -0.666,0.665 0,0.368 0.299,0.666 0.666,0.666 C -0.297,0.666 0,0.368 0,0 z"
             style="fill:none;stroke:#f3efd9;stroke-width:0.31200001;stroke-linecap:butt;stroke-linejoin:miter;stroke-miterlimit:10;stroke-opacity:1;stroke-dasharray:none"
             id="path4251" />
        </g>
        <g
           id="g4253"
           transform="translate(452.3589,761.5259)">
          <path
             inkscape:connector-curvature="0"
             d="m 0,0 c 0,-0.367 -0.298,-0.665 -0.665,-0.665 -0.368,0 -0.666,0.298 -0.666,0.665 0,0.368 0.298,0.666 0.666,0.666 C -0.298,0.666 0,0.368 0,0"
             style="fill:#231f20;fill-opacity:1;fill-rule:nonzero;stroke:none"
             id="path4255" />
        </g>
        <g
           id="g4257"
           transform="translate(452.3589,761.5259)">
          <path
             inkscape:connector-curvature="0"
             d="m 0,0 c 0,-0.367 -0.298,-0.665 -0.665,-0.665 -0.368,0 -0.666,0.298 -0.666,0.665 0,0.368 0.298,0.666 0.666,0.666 C -0.298,0.666 0,0.368 0,0 z"
             style="fill:none;stroke:#f3efd9;stroke-width:0.31200001;stroke-linecap:butt;stroke-linejoin:miter;stroke-miterlimit:10;stroke-opacity:1;stroke-dasharray:none"
             id="path4259" />
        </g>
        <g
           id="g4261"
           transform="translate(454.23,758.9863)">
          <path
             inkscape:connector-curvature="0"
             d="m 0,0 c 0,-0.367 -0.298,-0.665 -0.665,-0.665 -0.367,0 -0.666,0.298 -0.666,0.665 0,0.368 0.299,0.666 0.666,0.666 C -0.298,0.666 0,0.368 0,0"
             style="fill:#231f20;fill-opacity:1;fill-rule:nonzero;stroke:none"
             id="path4263" />
        </g>
        <g
           id="g4265"
           transform="translate(454.23,758.9863)">
          <path
             inkscape:connector-curvature="0"
             d="m 0,0 c 0,-0.367 -0.298,-0.665 -0.665,-0.665 -0.367,0 -0.666,0.298 -0.666,0.665 0,0.368 0.299,0.666 0.666,0.666 C -0.298,0.666 0,0.368 0,0 z"
             style="fill:none;stroke:#f3efd9;stroke-width:0.31200001;stroke-linecap:butt;stroke-linejoin:miter;stroke-miterlimit:10;stroke-opacity:1;stroke-dasharray:none"
             id="path4267" />
        </g>
        <g
           id="g4269"
           transform="translate(456.5557,756.5835)">
          <path
             inkscape:connector-curvature="0"
             d="m 0,0 c 0,-0.367 -0.298,-0.665 -0.665,-0.665 -0.368,0 -0.666,0.298 -0.666,0.665 0,0.368 0.298,0.666 0.666,0.666 C -0.298,0.666 0,0.368 0,0"
             style="fill:#231f20;fill-opacity:1;fill-rule:nonzero;stroke:none"
             id="path4271" />
        </g>
        <g
           id="g4273"
           transform="translate(456.5557,756.5835)">
          <path
             inkscape:connector-curvature="0"
             d="m 0,0 c 0,-0.367 -0.298,-0.665 -0.665,-0.665 -0.368,0 -0.666,0.298 -0.666,0.665 0,0.368 0.298,0.666 0.666,0.666 C -0.298,0.666 0,0.368 0,0 z"
             style="fill:none;stroke:#f3efd9;stroke-width:0.31200001;stroke-linecap:butt;stroke-linejoin:miter;stroke-miterlimit:10;stroke-opacity:1;stroke-dasharray:none"
             id="path4275" />
        </g>
        <g
           id="g4277"
           transform="translate(444.998,772.2837)">
          <path
             inkscape:connector-curvature="0"
             d="M 0,0 C -3.964,0.397 1.533,-12.9 -3.027,-15.39"
             style="fill:none;stroke:#ebd467;stroke-width:0.93599999;stroke-linecap:round;stroke-linejoin:miter;stroke-miterlimit:10;stroke-opacity:1;stroke-dasharray:none"
             id="path4279" />
        </g>
        <g
           id="g4281"
           transform="translate(446.002,769.3247)">
          <path
             inkscape:connector-curvature="0"
             d="m 0,0 c 0.102,0.218 0.464,0.455 0.67,0.59 0.25,0.163 0.513,0.35 0.774,0.494 0.17,0.094 0.73,0.297 0.689,-0.086"
             style="fill:none;stroke:#ebd467;stroke-width:0.93599999;stroke-linecap:round;stroke-linejoin:miter;stroke-miterlimit:10;stroke-opacity:1;stroke-dasharray:none"
             id="path4283" />
        </g>
        <g
           id="g4285"
           transform="translate(448.1001,766.8306)">
          <path
             inkscape:connector-curvature="0"
             d="M 0,0 C 0.057,0.252 0.374,0.525 0.567,0.684 0.792,0.869 1.051,1.075 1.321,1.188 1.467,1.249 1.75,1.39 1.916,1.345 2.05,1.309 2.013,1.153 2.013,0.998"
             style="fill:none;stroke:#ebd467;stroke-width:0.93599999;stroke-linecap:round;stroke-linejoin:miter;stroke-miterlimit:10;stroke-opacity:1;stroke-dasharray:none"
             id="path4287" />
        </g>
        <g
           id="g4289"
           transform="translate(449.7524,764.1475)">
          <path
             inkscape:connector-curvature="0"
             d="M 0,0 C 0.534,0.447 0.928,1.091 1.535,1.464 1.65,1.533 2.014,1.788 2.15,1.754 2.301,1.718 2.283,1.428 2.236,1.307"
             style="fill:none;stroke:#ebd467;stroke-width:0.93599999;stroke-linecap:round;stroke-linejoin:miter;stroke-miterlimit:10;stroke-opacity:1;stroke-dasharray:none"
             id="path4291" />
        </g>
        <g
           id="g4293"
           transform="translate(451.7129,761.5151)">
          <path
             inkscape:connector-curvature="0"
             d="M 0,0 C 0.024,0.206 0.338,0.362 0.489,0.477 0.717,0.649 0.94,0.794 1.191,0.928 1.45,1.066 1.679,1.204 1.923,1.359 2.246,1.565 2.572,1.129 2.323,0.843"
             style="fill:none;stroke:#ebd467;stroke-width:0.93599999;stroke-linecap:round;stroke-linejoin:miter;stroke-miterlimit:10;stroke-opacity:1;stroke-dasharray:none"
             id="path4295" />
        </g>
        <g
           id="g4297"
           transform="translate(453.4854,758.9521)">
          <path
             inkscape:connector-curvature="0"
             d="M 0,0 C 0.264,0.225 0.49,0.524 0.752,0.758 0.968,0.951 1.253,1.105 1.501,1.251 1.647,1.338 1.898,1.476 2.081,1.428 2.245,1.384 2.231,1.246 2.253,1.083"
             style="fill:none;stroke:#ebd467;stroke-width:0.93599999;stroke-linecap:round;stroke-linejoin:miter;stroke-miterlimit:10;stroke-opacity:1;stroke-dasharray:none"
             id="path4299" />
        </g>
        <g
           id="g4301"
           transform="translate(455.8765,756.5439)">
          <path
             inkscape:connector-curvature="0"
             d="M 0,0 C 0.101,0.037 0.133,0.219 0.202,0.31 0.299,0.438 0.437,0.536 0.563,0.632 0.742,0.769 0.911,0.917 1.102,1.035 1.238,1.121 1.4,1.228 1.566,1.254 1.783,1.29 1.776,1.154 1.806,0.963"
             style="fill:none;stroke:#ebd467;stroke-width:0.93599999;stroke-linecap:round;stroke-linejoin:miter;stroke-miterlimit:10;stroke-opacity:1;stroke-dasharray:none"
             id="path4303" />
        </g>
        <g
           id="g4305"
           transform="translate(441.4951,756.8936)">
          <path
             inkscape:connector-curvature="0"
             d="m 0,0 0.206,-0.401 -1.841,-0.86 c 0,0 -0.258,0 -0.086,0.206 C -1.549,-0.849 0,0 0,0"
             style="fill:#ebd467;fill-opacity:1;fill-rule:nonzero;stroke:none"
             id="path4307" />
        </g>
        <g
           id="g4309"
           transform="translate(441.8472,756.5688)">
          <path
             inkscape:connector-curvature="0"
             d="m 0,0 c -0.036,-0.024 -0.083,-0.015 -0.107,0.021 l -0.208,0.316 c -0.023,0.037 -0.013,0.084 0.023,0.107 0.036,0.024 0.083,0.014 0.106,-0.022 L 0.022,0.106 C 0.046,0.071 0.036,0.023 0,0"
             style="fill:#a77c39;fill-opacity:1;fill-rule:nonzero;stroke:none"
             id="path4311" />
        </g>
        <g
           id="g4313"
           transform="translate(470.2974,738.7886)">
          <path
             inkscape:connector-curvature="0"
             d="M 0,0 3.578,-5.887 8.808,-2.63 7.982,0 0,0 z"
             style="fill:#d3d2d2;fill-opacity:1;fill-rule:nonzero;stroke:none"
             id="path4315" />
        </g>
        <g
           id="g4317"
           transform="translate(482.5649,735.2178)">
          <path
             inkscape:connector-curvature="0"
             d="M 0,0 -2.971,2.434 C -3.353,2.748 -4.154,2.677 -4.75,2.277 L -5.461,1.8 C -6.057,1.401 -6.644,1.007 -6.765,0.925 -6.886,0.844 -7.473,0.451 -8.069,0.052 L -8.78,-0.426 C -9.375,-0.825 -9.744,-1.54 -9.599,-2.013 l 1.125,-3.672 c 0.079,-0.259 0.232,-0.463 0.405,-0.588 l 8.46,5.674 C 0.341,-0.391 0.21,-0.173 0,0"
             style="fill:#ebd467;fill-opacity:1;fill-rule:nonzero;stroke:none"
             id="path4319" />
        </g>
        <g
           id="g4321"
           transform="translate(476.6055,729.71)">
          <path
             inkscape:connector-curvature="0"
             d="M 0,0 1.118,0.75 C 1.713,1.149 2.3,1.542 2.421,1.624 2.542,1.705 3.129,2.099 3.725,2.498 l 1.117,0.75 C 5.439,3.647 6.09,4.191 6.29,4.456 6.38,4.576 6.391,4.739 6.35,4.909 L -2.109,-0.765 C -1.968,-0.867 -1.812,-0.92 -1.667,-0.882 -1.346,-0.797 -0.596,-0.4 0,0"
             style="fill:#a77c39;fill-opacity:1;fill-rule:nonzero;stroke:none"
             id="path4323" />
        </g>
        <g
           id="g4325"
           transform="translate(440.4492,729.3955)">
          <path
             inkscape:connector-curvature="0"
             d="m 0,0 c 0,-3.873 -3.138,-7.011 -7.011,-7.011 -3.871,0 -7.01,3.138 -7.01,7.011 0,3.873 3.139,7.011 7.01,7.011 C -3.138,7.011 0,3.873 0,0"
             style="fill:#ebd467;fill-opacity:1;fill-rule:nonzero;stroke:none"
             id="path4327" />
        </g>
        <g
           id="g4329">
          <g
             id="g4331" />
          <g
             id="g4337">
            <g
               clip-path="url(#clipPath4333)"
               id="g4339">
              <g
                 transform="translate(436.8115,729.0962)"
                 id="g4341">
                <path
                   inkscape:connector-curvature="0"
                   d="m 0,0 c 0,-1.863 -1.51,-3.373 -3.373,-3.373 -1.862,0 -3.372,1.51 -3.372,3.373 0,1.863 1.51,3.373 3.372,3.373 C -1.51,3.373 0,1.863 0,0"
                   style="fill:#ebd467;fill-opacity:1;fill-rule:nonzero;stroke:none"
                   id="path4343" />
              </g>
            </g>
          </g>
        </g>
        <g
           id="g4345"
           transform="translate(436.8115,729.3955)">
          <path
             inkscape:connector-curvature="0"
             d="m 0,0 c 0,-1.862 -1.51,-3.373 -3.373,-3.373 -1.862,0 -3.372,1.511 -3.372,3.373 0,1.862 1.51,3.373 3.372,3.373 C -1.51,3.373 0,1.862 0,0"
             style="fill:#a77c39;fill-opacity:1;fill-rule:nonzero;stroke:none"
             id="path4347" />
        </g>
        <g
           id="g4349">
          <g
             id="g4351" />
          <g
             id="g4357">
            <g
               style="opacity:0.5"
               clip-path="url(#clipPath4353)"
               id="g4359">
              <g
                 transform="translate(432.0532,732.4644)"
                 id="g4361">
                <path
                   inkscape:connector-curvature="0"
                   d="M 0,0 C -0.373,-0.169 -0.713,-0.398 -1,-0.684 L 1.385,-3.069 0,0 z"
                   style="fill:#a77c39;fill-opacity:1;fill-rule:nonzero;stroke:none"
                   id="path4363" />
              </g>
            </g>
          </g>
        </g>
        <g
           id="g4365">
          <g
             id="g4367" />
          <g
             id="g4373">
            <g
               style="opacity:0.5"
               clip-path="url(#clipPath4369)"
               id="g4375">
              <g
                 transform="translate(433.4385,729.3955)"
                 id="g4377">
                <path
                   inkscape:connector-curvature="0"
                   d="M 0,0 2.385,2.385 C 2.099,2.671 1.759,2.9 1.386,3.069 L 0,0 z"
                   style="fill:#a77c39;fill-opacity:1;fill-rule:nonzero;stroke:none"
                   id="path4379" />
              </g>
            </g>
          </g>
        </g>
        <g
           id="g4381">
          <g
             id="g4383" />
          <g
             id="g4389">
            <g
               clip-path="url(#clipPath4385)"
               id="g4391">
              <g
                 transform="translate(433.4385,732.7681)"
                 id="g4393">
                <path
                   inkscape:connector-curvature="0"
                   d="M 0,0 C -0.495,0 -0.961,-0.112 -1.385,-0.304 L 0,-3.373 1.386,-0.304 C 0.962,-0.112 0.495,0 0,0"
                   style="fill:#a77c39;fill-opacity:1;fill-rule:nonzero;stroke:none"
                   id="path4395" />
              </g>
            </g>
          </g>
        </g>
        <g
           id="g4397"
           transform="translate(435.6045,729.396)">
          <path
             inkscape:connector-curvature="0"
             d="m 0,0 c 0,-1.197 -0.97,-2.166 -2.165,-2.166 -1.197,0 -2.167,0.969 -2.167,2.166 0,1.196 0.97,2.165 2.167,2.165 C -0.97,2.165 0,1.196 0,0"
             style="fill:#c8c7c7;fill-opacity:1;fill-rule:nonzero;stroke:none"
             id="path4399" />
        </g>
        <g
           id="g4401"
           transform="translate(432.7212,728.1519)">
          <path
             inkscape:connector-curvature="0"
             d="M 0,0 -0.718,1.244 0,2.487 1.436,2.487 2.153,1.244 1.436,0 0,0 z"
             style="fill:#a7a5a6;fill-opacity:1;fill-rule:nonzero;stroke:none"
             id="path4403" />
        </g>
        <g
           id="g4405"
           transform="translate(434.1797,729.396)">
          <path
             inkscape:connector-curvature="0"
             d="m 0,0 c 0,-0.41 -0.332,-0.741 -0.741,-0.741 -0.409,0 -0.741,0.331 -0.741,0.741 0,0.409 0.332,0.741 0.741,0.741 C -0.332,0.741 0,0.409 0,0"
             style="fill:#706d6e;fill-opacity:1;fill-rule:nonzero;stroke:none"
             id="path4407" />
        </g>
        <g
           id="g4409"
           transform="translate(433.9805,729.396)">
          <path
             inkscape:connector-curvature="0"
             d="m 0,0 c 0,-0.299 -0.243,-0.542 -0.542,-0.542 -0.299,0 -0.541,0.243 -0.541,0.542 0,0.299 0.242,0.542 0.541,0.542 C -0.243,0.542 0,0.299 0,0"
             style="fill:#c8c7c7;fill-opacity:1;fill-rule:nonzero;stroke:none"
             id="path4411" />
        </g>
        <g
           id="g4413"
           transform="translate(433.4385,722.7266)">
          <path
             inkscape:connector-curvature="0"
             d="m 0,0 c -3.677,0 -6.668,2.992 -6.668,6.669 l -0.685,0 c 0,-4.054 3.299,-7.353 7.353,-7.353 4.055,0 7.353,3.299 7.353,7.353 l -0.684,0 C 6.669,2.992 3.677,0 0,0"
             style="fill:#a77c39;fill-opacity:1;fill-rule:nonzero;stroke:none"
             id="path4415" />
        </g>
        <g
           id="g4417">
          <g
             id="g4419" />
          <g
             id="g4425">
            <g
               clip-path="url(#clipPath4421)"
               id="g4427">
              <g
                 transform="translate(433.4385,736.748)"
                 id="g4429">
                <path
                   inkscape:connector-curvature="0"
                   d="m 0,0 c -4.054,0 -7.353,-3.298 -7.353,-7.353 l 0.685,0 c 0,3.677 2.991,6.669 6.668,6.669 3.677,0 6.669,-2.992 6.669,-6.669 l 0.684,0 C 7.353,-3.298 4.055,0 0,0"
                   style="fill:#ebd467;fill-opacity:1;fill-rule:nonzero;stroke:none"
                   id="path4431" />
              </g>
            </g>
          </g>
        </g>
        <g
           id="g4433"
           transform="translate(472.0454,729.9375)">
          <path
             inkscape:connector-curvature="0"
             d="m 0,0 c 0,-3.872 -3.138,-7.01 -7.011,-7.01 -3.871,0 -7.01,3.138 -7.01,7.01 0,3.872 3.139,7.011 7.01,7.011 C -3.138,7.011 0,3.872 0,0"
             style="fill:#ebd467;fill-opacity:1;fill-rule:nonzero;stroke:none"
             id="path4435" />
        </g>
        <g
           id="g4437">
          <g
             id="g4439" />
          <g
             id="g4445">
            <g
               clip-path="url(#clipPath4441)"
               id="g4447">
              <g
                 transform="translate(468.4077,729.6377)"
                 id="g4449">
                <path
                   inkscape:connector-curvature="0"
                   d="m 0,0 c 0,-1.862 -1.51,-3.373 -3.373,-3.373 -1.862,0 -3.373,1.511 -3.373,3.373 0,1.864 1.511,3.373 3.373,3.373 C -1.51,3.373 0,1.864 0,0"
                   style="fill:#ebd467;fill-opacity:1;fill-rule:nonzero;stroke:none"
                   id="path4451" />
              </g>
            </g>
          </g>
        </g>
        <g
           id="g4453"
           transform="translate(468.4077,729.9375)">
          <path
             inkscape:connector-curvature="0"
             d="m 0,0 c 0,-1.863 -1.51,-3.373 -3.373,-3.373 -1.862,0 -3.373,1.51 -3.373,3.373 0,1.863 1.511,3.373 3.373,3.373 C -1.51,3.373 0,1.863 0,0"
             style="fill:#a77c39;fill-opacity:1;fill-rule:nonzero;stroke:none"
             id="path4455" />
        </g>
        <g
           id="g4457">
          <g
             id="g4459" />
          <g
             id="g4465">
            <g
               style="opacity:0.5"
               clip-path="url(#clipPath4461)"
               id="g4467">
              <g
                 transform="translate(463.6494,733.0059)"
                 id="g4469">
                <path
                   inkscape:connector-curvature="0"
                   d="M 0,0 C -0.373,-0.169 -0.713,-0.398 -1,-0.684 L 1.385,-3.068 0,0 z"
                   style="fill:#a77c39;fill-opacity:1;fill-rule:nonzero;stroke:none"
                   id="path4471" />
              </g>
            </g>
          </g>
        </g>
        <g
           id="g4473">
          <g
             id="g4475" />
          <g
             id="g4481">
            <g
               style="opacity:0.5"
               clip-path="url(#clipPath4477)"
               id="g4483">
              <g
                 transform="translate(465.0347,729.9375)"
                 id="g4485">
                <path
                   inkscape:connector-curvature="0"
                   d="M 0,0 2.385,2.385 C 2.099,2.67 1.758,2.899 1.385,3.068 L 0,0 z"
                   style="fill:#a77c39;fill-opacity:1;fill-rule:nonzero;stroke:none"
                   id="path4487" />
              </g>
            </g>
          </g>
        </g>
        <g
           id="g4489">
          <g
             id="g4491" />
          <g
             id="g4497">
            <g
               clip-path="url(#clipPath4493)"
               id="g4499">
              <g
                 transform="translate(465.0347,733.3105)"
                 id="g4501">
                <path
                   inkscape:connector-curvature="0"
                   d="M 0,0 C -0.495,0 -0.961,-0.113 -1.385,-0.305 L 0,-3.373 1.385,-0.305 C 0.962,-0.113 0.495,0 0,0"
                   style="fill:#a77c39;fill-opacity:1;fill-rule:nonzero;stroke:none"
                   id="path4503" />
              </g>
            </g>
          </g>
        </g>
        <g
           id="g4505"
           transform="translate(467.2002,729.938)">
          <path
             inkscape:connector-curvature="0"
             d="m 0,0 c 0,-1.197 -0.969,-2.167 -2.165,-2.167 -1.197,0 -2.166,0.97 -2.166,2.167 0,1.195 0.969,2.166 2.166,2.166 C -0.969,2.166 0,1.195 0,0"
             style="fill:#c8c7c7;fill-opacity:1;fill-rule:nonzero;stroke:none"
             id="path4507" />
        </g>
        <g
           id="g4509"
           transform="translate(464.3174,728.6938)">
          <path
             inkscape:connector-curvature="0"
             d="M 0,0 -0.719,1.244 0,2.487 1.435,2.487 2.153,1.244 1.435,0 0,0 z"
             style="fill:#a7a5a6;fill-opacity:1;fill-rule:nonzero;stroke:none"
             id="path4511" />
        </g>
        <g
           id="g4513"
           transform="translate(465.7759,729.938)">
          <path
             inkscape:connector-curvature="0"
             d="m 0,0 c 0,-0.41 -0.332,-0.741 -0.741,-0.741 -0.409,0 -0.741,0.331 -0.741,0.741 0,0.409 0.332,0.741 0.741,0.741 C -0.332,0.741 0,0.409 0,0"
             style="fill:#706d6e;fill-opacity:1;fill-rule:nonzero;stroke:none"
             id="path4515" />
        </g>
        <g
           id="g4517"
           transform="translate(465.5762,729.938)">
          <path
             inkscape:connector-curvature="0"
             d="m 0,0 c 0,-0.3 -0.243,-0.542 -0.542,-0.542 -0.298,0 -0.541,0.242 -0.541,0.542 0,0.299 0.243,0.541 0.541,0.541 C -0.243,0.541 0,0.299 0,0"
             style="fill:#c8c7c7;fill-opacity:1;fill-rule:nonzero;stroke:none"
             id="path4519" />
        </g>
        <g
           id="g4521"
           transform="translate(465.0347,723.269)">
          <path
             inkscape:connector-curvature="0"
             d="m 0,0 c -3.677,0 -6.669,2.991 -6.669,6.668 l -0.684,0 c 0,-4.054 3.299,-7.353 7.353,-7.353 4.054,0 7.353,3.299 7.353,7.353 l -0.684,0 C 6.669,2.991 3.677,0 0,0"
             style="fill:#a77c39;fill-opacity:1;fill-rule:nonzero;stroke:none"
             id="path4523" />
        </g>
        <g
           id="g4525">
          <g
             id="g4527" />
          <g
             id="g4533">
            <g
               clip-path="url(#clipPath4529)"
               id="g4535">
              <g
                 transform="translate(465.0347,737.29)"
                 id="g4537">
                <path
                   inkscape:connector-curvature="0"
                   d="m 0,0 c -4.054,0 -7.353,-3.298 -7.353,-7.353 l 0.684,0 c 0,3.677 2.992,6.669 6.669,6.669 3.677,0 6.669,-2.992 6.669,-6.669 l 0.684,0 C 7.353,-3.298 4.054,0 0,0"
                   style="fill:#ebd467;fill-opacity:1;fill-rule:nonzero;stroke:none"
                   id="path4539" />
              </g>
            </g>
          </g>
        </g>
      </g>
    </g>
  </g>
</svg>
