<?xml version="1.0" encoding="UTF-8" standalone="no"?>
<!-- Created with Inkscape (http://www.inkscape.org/) -->

<svg
   xmlns:dc="http://purl.org/dc/elements/1.1/"
   xmlns:cc="http://creativecommons.org/ns#"
   xmlns:rdf="http://www.w3.org/1999/02/22-rdf-syntax-ns#"
   xmlns:svg="http://www.w3.org/2000/svg"
   xmlns="http://www.w3.org/2000/svg"
   xmlns:sodipodi="http://sodipodi.sourceforge.net/DTD/sodipodi-0.dtd"
   xmlns:inkscape="http://www.inkscape.org/namespaces/inkscape"
   width="64px"
   height="64px"
   id="svg173222"
   version="1.1"
   inkscape:version="0.48.5 r10040"
   sodipodi:docname="Nowy dokument 34">
  <defs
     id="defs173224" />
  <sodipodi:namedview
     id="base"
     pagecolor="#ffffff"
     bordercolor="#666666"
     borderopacity="1.0"
     inkscape:pageopacity="0.0"
     inkscape:pageshadow="2"
     inkscape:zoom="5.5"
     inkscape:cx="32"
     inkscape:cy="32"
     inkscape:current-layer="layer1"
     showgrid="true"
     inkscape:document-units="px"
     inkscape:grid-bbox="true"
     inkscape:window-width="1366"
     inkscape:window-height="706"
     inkscape:window-x="-8"
     inkscape:window-y="-8"
     inkscape:window-maximized="1" />
  <metadata
     id="metadata173227">
    <rdf:RDF>
      <cc:Work
         rdf:about="">
        <dc:format>image/svg+xml</dc:format>
        <dc:type
           rdf:resource="http://purl.org/dc/dcmitype/StillImage" />
        <dc:title></dc:title>
      </cc:Work>
    </rdf:RDF>
  </metadata>
  <g
     id="layer1"
     inkscape:label="Layer 1"
     inkscape:groupmode="layer">
    <g
       transform="matrix(0.7096144,0,0,-0.86255496,33.240367,7.2662516)"
       id="g3909">
      <path
         id="path3911"
         style="fill:#000000;fill-opacity:1;fill-rule:nonzero;stroke:none"
         d="m 0,0 c 2.401,2.308 6.086,4.085 9.606,2.516 4.343,-2.407 4.603,-7.411 4.073,-11.614 3.683,-3.106 6.088,-7.989 4.324,-12.852 -3.548,-9.419 -17.18,-8.974 -17.18,-8.974 0.017,-2.172 0.752,-4.292 1.179,-6.425 6.681,7.267 15.142,11.83 24.3,13.293 0.638,-0.079 1.434,-0.338 1.551,-1.092 0.462,-5.019 -2.331,-9.063 -4.805,-12.927 -3.144,-4.223 -6.985,-8.703 -11.731,-11.56 0,0 10.116,-2.335 14.672,-1.195 1.561,-0.007 3.481,-0.176 4.114,-1.814 0.313,-0.836 -0.406,-1.43 -1.043,-1.827 -0.722,-0.119 -0.653,-1.073 -1.161,-1.547 -0.826,-0.654 -1.742,-1.133 -2.761,-1.163 -1.159,-0.089 -1.304,1.244 -2.155,1.677 -0.325,-0.283 0.01,-0.815 -0.254,-1.204 -0.311,-0.555 -1.003,-1.252 -1.654,-1.342 -1.519,-0.369 -3,0.277 -4.163,1.105 -0.434,0.573 -1.004,1.156 -0.579,1.906 0.141,0.058 0.084,0.232 0.092,0.332 -0.765,0.224 -2.067,1.027 -2.235,-0.42 -1.202,-0.696 -2.668,-1.78 -4.029,-0.871 l -0.59,0.787 -0.718,-0.594 c 0.686,-0.353 1.419,-1.015 1.673,-1.745 0.037,-0.919 -0.761,-1.202 -1.395,-1.531 -4.509,-1.54 -5.431,1.398 -5.085,1.984 l 0.107,0.061 c -0.679,0.488 -1.995,0.58 -2.828,0.299 0.403,-0.537 0.382,-1.316 -0.058,-1.794 -1.221,-0.966 -3.183,-0.896 -4.563,-0.257 -2.458,1.815 -1.634,2.828 -1.096,3.265 0.664,0.767 1.719,0.321 2.577,0.464 0.446,0.545 1.087,0.976 1.401,1.598 -3.534,-1.551 -8.44,-0.902 -11.999,0.602 1.512,-1.666 3.721,-3.075 5.443,-4.621 0.938,-0.167 1.882,-0.742 2.328,-1.621 0.075,-0.887 -0.276,-1.541 -0.795,-2.149 -1.237,-0.728 -3.142,-0.323 -4.278,0.401 -0.438,0.54 -0.36,2.128 -0.356,2.195 -1.01,0.105 -1.946,-0.169 -2.964,-0.674 0.25,-0.798 1.523,-2.38 -0.723,-3.545 -4.3,-0.22 -5.141,1.708 -4.531,3.098 l 1.22,0.966 c -0.51,0.952 -1.603,1.334 -2.486,1.802 -0.445,-0.545 -0.557,-1.182 -1.321,-1.434 -1.465,-0.575 -3.223,-0.012 -4.417,0.852 -0.535,-0.844 -1.604,-1.109 -2.532,-1.282 -1.039,0.175 -2.002,0.48 -2.762,1.245 -0.283,0.325 -0.141,0.892 -0.499,1.12 -0.097,-0.908 -1.128,-1.108 -1.791,-1.367 -1.659,0.048 -3.108,0.184 -4.202,1.515 -0.242,0.424 -0.512,0.918 -0.24,1.408 -0.888,0.401 -1.795,1.007 -2.377,1.896 -0.242,0.898 0.508,1.456 1.226,1.542 1.331,0.111 3.198,0.116 4.36,-0.712 4.259,0.754 8.86,1.076 13.019,2.346 -6.532,4.561 -11.471,12.029 -14.71,19.073 -0.647,2.386 -1.869,5.762 0.246,7.886 1.937,1.018 7.73,0.296 15.408,-5.216 2.52,-1.804 4.885,-4.344 6.775,-6.918 0.562,2.233 0.916,4.854 0.965,7.022 -5.927,3.026 -12.5,8.472 -12.975,15.729 -0.232,3.951 1.86,7.197 5.291,9.229 1.538,0.639 3.173,1.237 4.891,1.049 0.915,3.396 3.5,6.878 6.979,8.127 1.995,0.403 4.09,-0.184 5.525,-1.505 C -1.567,3.297 -0.387,1.722 0,0"
         inkscape:connector-curvature="0" />
    </g>
    <g
       transform="matrix(0.7096144,0,0,-0.86255496,17.240118,12.629445)"
       id="g3913">
      <path
         id="path3915"
         style="fill:#456023;fill-opacity:1;fill-rule:evenodd;stroke:none"
         d="m 0,0 c 0,0 -4.282,-4.67 -0.271,-10.945 4.011,-6.275 4.942,-0.724 4.942,-0.724 0,0 -1.203,5.847 -1.023,7.478 0.182,1.629 0.75,4.462 0.75,4.462 L 3.286,1.928 0,0 z m 39.021,-7.749 c 0,0 1.449,-3.261 0.997,-5.189 -0.454,-1.927 -0.336,-4.282 -2.627,-4.553 -2.291,-0.272 -3.105,5.007 -3.105,5.007 l 1.54,3.648 3.195,1.087 z m -40.47,-12.757 c 0,0 2.199,-1.333 3.558,-2.355 1.359,-1.022 3.015,-2.471 3.649,-3.286 0.635,-0.815 3.286,-3.105 3.015,-3.739 -0.273,-0.635 -2.38,-3.739 -2.563,-4.192 -0.181,-0.453 -5.46,0.091 -5.46,0.091 0,0 -7.023,9.651 -7.387,10.014 -0.362,0.362 -1.746,0.181 -1.746,0.181 l 1.656,-4.101 2.264,-7.388 -1.267,-0.272 c 0,0 -4.555,5.913 -4.737,7.388 -0.181,1.475 0.726,5.576 0.726,5.576 l 1.538,0.543 6.754,1.54 z m 23.703,-6.547 c 0,0 0.996,-1.475 1.086,-2.471 0.092,-0.997 0.996,-4.916 0.996,-4.916 l -2.264,0.815 -1.655,5.187 1.837,1.385 z m 7.568,-0.206 c 0,0 4.891,3.945 7.181,4.488 2.29,0.544 3.558,-1.384 3.558,-1.384 l -5.823,-6.909 -2.924,-0.75 -1.992,4.555 z"
         inkscape:connector-curvature="0" />
    </g>
    <g
       transform="matrix(0.7096144,0,0,-0.86255496,33.000586,8.0943042)"
       id="g3917">
      <path
         id="path3919"
         style="fill:#81ae37;fill-opacity:1;fill-rule:nonzero;stroke:none"
         d="m 0,0 c 4.688,4.304 8.853,3.383 10.257,2.132 3.154,-2.426 3.276,-6.505 2.713,-10.196 0.484,-1.323 1.842,-1.791 2.642,-2.966 0.705,-1.067 1.575,-2.214 1.625,-3.438 -1.211,-0.322 -2.588,-1.108 -3.248,-2.283 -0.375,-1.5 -0.645,-4.097 2.789,-5.249 -4.276,-6.824 -12.75,-7.69 -20.138,-6.664 -4.8,0.742 -9.091,2.434 -12.942,5.077 -2.888,2.339 -6.153,5.62 -7.226,9.189 1.336,0.178 2.399,0.849 3.377,1.731 0.954,1.527 0.559,3.149 -0.25,4.664 -0.689,0.828 -1.674,1.304 -2.75,1.414 1.911,3.088 5.302,5.022 8.894,4.974 1.11,2.772 2.432,5.664 5.395,7.288 C -2.79,8.315 -0.24,0.932 0,0"
         inkscape:connector-curvature="0" />
    </g>
    <g
       transform="matrix(0.7096144,0,0,-0.86255496,22.592672,29.344381)"
       id="g3921">
      <path
         id="path3923"
         style="fill:#acc22d;fill-opacity:1;fill-rule:nonzero;stroke:none"
         d="m 0,0 c -0.555,0.331 -1.1,0.681 -1.635,1.049 -2.888,2.339 -6.153,5.62 -7.226,9.189 1.336,0.178 2.399,0.849 3.377,1.731 0.954,1.527 0.559,3.149 -0.25,4.664 -0.689,0.828 -1.674,1.304 -2.75,1.414 1.911,3.088 5.302,5.022 8.894,4.974 1.11,2.772 2.432,5.664 5.395,7.288 2.521,1.097 4.435,0.465 5.828,-0.715 C 9.268,29.411 6.309,28.738 5.511,26.585 4.127,22.846 6.327,17.476 6.327,17.476 l 0.452,-0.271 7.571,-1.656 3.647,-1.993 2.626,-1.475 c 0,0 -15.131,2.924 -13.119,-6.093 0.997,-4.464 9.38,-3.83 9.38,-3.83 l 3.014,0.091 -5.097,-0.906 -3.285,0.181 c 0,0 0,-5.501 -11.516,-1.524"
         inkscape:connector-curvature="0" />
    </g>
    <g
       transform="matrix(0.7096144,0,0,-0.86255496,52.454023,29.760132)"
       id="g3925">
      <path
         id="path3927"
         style="fill:#81ae37;fill-opacity:1;fill-rule:nonzero;stroke:none"
         d="m 0,0 c -0.403,-6.722 -4.817,-11.636 -8.897,-16.642 -2.42,-2.578 -5.193,-4.894 -8.216,-6.888 0.273,-0.46 1.002,-0.714 1.563,-0.923 4.623,-0.832 9.953,-2.222 14.643,-1.126 1.183,-0.049 2.607,-0.047 3.099,-1.268 0.068,-0.48 -0.483,-0.611 -0.744,-0.932 -0.402,0.063 -0.625,0.756 -1.056,0.888 -1.925,0.61 -3.692,0.089 -5.608,0.325 -1.606,0.315 -3.017,0.516 -4.687,0.395 -0.096,-0.4 6.487,-1.335 9.435,-1.372 0.388,-0.265 1,-0.239 1.162,-0.827 0.035,-0.952 -1.11,-1.347 -1.75,-1.743 -0.537,0.071 -1.013,-0.438 -1.459,0 -1.388,2.912 -5.297,2.338 -7.894,3.503 -0.729,0.254 -1.681,0.694 -2.418,0.338 1.137,-0.34 4.87,-2.138 6.855,-2.854 0.446,-0.437 1.185,-0.523 0.826,-1.278 -0.46,-0.782 -1.371,-0.684 -2.093,-0.837 -1.182,0.082 -2.158,0.659 -2.84,1.589 -0.092,0.617 0.707,0.9 0.098,1.384 -0.6,0.652 -1.69,0.593 -2.375,0.98 l 0.107,0.06 c -0.739,0.594 -1.827,1.044 -2.885,0.948 -1.898,-0.952 -5.793,0.5 -7.502,1.298 -0.09,-0.182 -0.452,1.177 -0.474,2.991 13.322,7.048 17.145,17.219 17.129,17.932 -0.755,-0.591 -3.082,-8.076 -14.237,-14.878 -1.969,0.443 -3.534,2.316 -4.013,4.181 -0.262,1.613 0.425,3.193 1.195,4.496 l 3.825,3.294 c 0.776,-1.038 1.931,-1.492 3.151,-1.509 1.161,0.088 2.139,1.003 2.487,2.098 0.506,0.914 0.004,2.001 -0.199,2.965 3.821,2.276 8.013,3.543 12.287,4.499 C -0.631,1.164 -0.009,0.849 0,0"
         inkscape:connector-curvature="0" />
    </g>
    <g
       transform="matrix(0.7096144,0,0,-0.86255496,35.228565,41.562558)"
       id="g3929">
      <path
         id="path3931"
         style="fill:#acc22d;fill-opacity:1;fill-rule:nonzero;stroke:none"
         d="M 0,0 0.021,0.218 C 1.178,1.351 3.426,3.471 6.225,5.703 6.582,5.507 6.967,5.373 7.368,5.294 4.205,3.157 1.354,1.029 0,0 m 10.803,7.526 c 0.181,0.483 0.125,1.005 0.008,1.526 3.35,2.21 7.007,4.067 10.365,4.587 2.947,0.457 2.69,-2.796 0.522,-7.334 C 19.53,1.768 11.053,-5.458 11.053,-5.458 c 0,0 12.576,15.224 8.908,16.686 -1.5,0.598 -5.25,-1.277 -9.158,-3.702"
         inkscape:connector-curvature="0" />
    </g>
    <g
       transform="matrix(0.7096144,0,0,-0.86255496,31.842637,8.1426933)"
       id="g3933">
      <path
         id="path3935"
         style="fill:#000000;fill-opacity:1;fill-rule:nonzero;stroke:none"
         d="m 0,0 c 0.438,-2.948 -0.535,-6.203 -3.045,-7.656 1.666,-0.422 3.335,-0.81 4.848,-1.492 -0.399,3.046 0.15,6.027 2.705,8.121 1.712,1.203 4.573,1.376 6.351,0.132 1.065,-1.262 1.498,-2.819 1.482,-4.513 0.329,-0.634 1.222,-0.968 1.418,-1.558 -0.504,0.069 -0.908,0.607 -1.396,0.912 -1.942,-4.426 -4.222,-5.098 -5.06,-5.921 0.185,-0.759 1.222,-0.967 1.191,-1.881 -5.822,5.006 -12.974,6.538 -19.676,6.26 0.59,0.671 1.811,0.179 2.645,0.46 -1.488,2.003 -1.589,4.927 -0.891,7.151 -0.761,-0.218 -1.431,-0.578 -2.162,-0.832 0.832,1.23 2.592,0.804 3.451,2.777 1.176,1.308 2.743,1.877 4.44,1.894 C -1.895,3.457 -0.275,1.885 0,0"
         inkscape:connector-curvature="0" />
    </g>
    <g
       transform="matrix(0.7096144,0,0,-0.86255496,31.268842,7.2456357)"
       id="g3937">
      <path
         id="path3939"
         style="fill:#c9d139;fill-opacity:1;fill-rule:nonzero;stroke:none"
         d="m 0,0 c -2.513,0.447 -5.102,0.289 -7.336,-0.131 0.76,1.168 2.129,2.327 3.772,2.517 C -1.074,2.505 -0.152,0.248 0,0"
         inkscape:connector-curvature="0" />
    </g>
    <g
       transform="matrix(0.7096144,0,0,-0.86255496,29.353451,14.601332)"
       id="g3941">
      <path
         id="path3943"
         style="fill:#ffffff;fill-opacity:1;fill-rule:nonzero;stroke:none"
         d="M 0,0 -4.551,0.42 C -5.894,2.549 -6.183,5.215 -5.166,7.62 -4.318,8.103 1.287,8.22 2.89,7.87 2.89,7.87 4.097,2.467 0,0"
         inkscape:connector-curvature="0" />
    </g>
    <g
       transform="matrix(0.7096144,0,0,-0.86255496,40.173652,12.273555)"
       id="g3945">
      <path
         id="path3947"
         style="fill:#c9d139;fill-opacity:1;fill-rule:nonzero;stroke:none"
         d="M 0,0 C -1.963,1.527 -4.045,2.792 -6.362,3.599 -5.019,4.387 -0.142,5.435 0,0"
         inkscape:connector-curvature="0" />
    </g>
    <g
       transform="matrix(0.7096144,0,0,-0.86255496,39.24782,12.048256)"
       id="g3949">
      <path
         id="path3951"
         style="fill:#ffffff;fill-opacity:1;fill-rule:nonzero;stroke:none"
         d="m 0,0 c 0.567,-0.617 1.803,-0.907 1.016,-1.971 -0.738,-2.289 -2.445,-3.9 -4.605,-5.207 l -4.374,2.443 c -0.789,2.294 -0.513,4.309 0.919,6.346 0.833,0.281 1.06,2.063 2.347,1.057 C -3.234,1.786 -1.449,1.118 0,0"
         inkscape:connector-curvature="0" />
    </g>
    <g
       transform="matrix(0.7096144,0,0,-0.86255496,19.529692,12.566738)"
       id="g3953">
      <path
         id="path3955"
         style="fill:#456023;fill-opacity:1;fill-rule:nonzero;stroke:none"
         d="m 0,0 c -0.033,-0.473 -0.361,-0.789 -0.49,-1.187 -0.285,0.292 -0.869,-0.312 -1.209,0.186 -0.178,0.352 -0.631,0.655 -0.428,1.15 C -1.662,0.964 -0.246,0.865 0,0"
         inkscape:connector-curvature="0" />
    </g>
    <g
       transform="matrix(0.7096144,0,0,-0.86255496,19.166585,12.594512)"
       id="g3957">
      <path
         id="path3959"
         style="fill:#5a7c2b;fill-opacity:1;fill-rule:nonzero;stroke:none"
         d="m 0,0 c 0.037,-0.444 -0.355,-0.722 -0.76,-0.693 -0.304,0.021 -0.317,0.327 -0.47,0.542 -0.079,0.344 0.33,0.383 0.539,0.437 C -0.46,0.201 -0.005,0.407 0,0"
         inkscape:connector-curvature="0" />
    </g>
    <g
       transform="matrix(0.7096144,0,0,-0.86255496,18.146511,15.257996)"
       id="g3961">
      <path
         id="path3963"
         style="fill:#5a7c2b;fill-opacity:1;fill-rule:nonzero;stroke:none"
         d="m 0,0 c 0.635,-1.13 1.236,-2.698 0.404,-3.929 -0.654,-1.108 -2,-1.454 -3.133,-1.646 -0.919,1.895 -0.458,4.611 0.229,6.666 0.552,0.13 1.147,-0.081 1.676,-0.287 L 0,0 z"
         inkscape:connector-curvature="0" />
    </g>
    <g
       transform="matrix(0.7096144,0,0,-0.86255496,45.498525,20.94715)"
       id="g3965">
      <path
         id="path3967"
         style="fill:#5a7c2b;fill-opacity:1;fill-rule:nonzero;stroke:none"
         d="m 0,0 c 0.563,-2.143 0.455,-4.645 -0.532,-6.645 -1.114,0.078 -2.002,0.954 -2.574,1.977 -0.232,1.068 -0.308,2.396 0.399,3.297 C -1.909,-0.647 -1.063,-0.163 0,0"
         inkscape:connector-curvature="0" />
    </g>
    <g
       transform="matrix(0.7096144,0,0,-0.86255496,35.103105,21.760798)"
       id="g3969">
      <path
         id="path3971"
         style="fill:#456023;fill-opacity:1;fill-rule:nonzero;stroke:none"
         d="m 0,0 c 0.19,-0.658 0.513,-1.393 0.19,-2.116 -0.724,-0.662 -1.353,-0.923 -2.278,-1.062 -0.873,0.129 -1.38,0.639 -1.94,1.357 -0.323,0.735 -0.263,1.578 0.158,2.261 0.558,0.707 1.426,0.986 2.274,0.994 C -0.711,1.474 -0.399,0.604 0,0"
         inkscape:connector-curvature="0" />
    </g>
    <g
       transform="matrix(0.7096144,0,0,-0.86255496,34.915341,22.096073)"
       id="g3973">
      <path
         id="path3975"
         style="fill:#5a7c2b;fill-opacity:1;fill-rule:nonzero;stroke:none"
         d="m 0,0 c -0.104,-0.501 0.408,-0.944 0.068,-1.462 -0.379,-0.551 -1.109,-0.805 -1.757,-0.862 -0.805,0.125 -1.489,0.545 -1.704,1.341 -0.201,0.523 -0.164,1.063 0.109,1.552 0.344,0.553 0.971,0.814 1.587,0.873 C -0.983,1.46 -0.221,0.728 0,0"
         inkscape:connector-curvature="0" />
    </g>
    <g
       transform="matrix(0.7096144,0,0,-0.86255496,37.509834,22.170597)"
       id="g3977">
      <path
         id="path3979"
         style="fill:#456023;fill-opacity:1;fill-rule:nonzero;stroke:none"
         d="m 0,0 c 0.17,-0.486 -0.351,-0.653 -0.635,-0.837 -0.705,0.117 -1.514,0.174 -1.449,1.085 0.049,0.709 0.736,0.355 1.103,0.737 C -0.433,1.082 -0.072,0.412 0,0"
         inkscape:connector-curvature="0" />
    </g>
    <g
       transform="matrix(0.7096144,0,0,-0.86255496,37.227759,22.058207)"
       id="g3981">
      <path
         id="path3983"
         style="fill:#5a7c2b;fill-opacity:1;fill-rule:nonzero;stroke:none"
         d="m 0,0 c 0.08,-0.311 -0.276,-0.557 -0.513,-0.541 -0.334,0.057 -0.97,0.17 -0.697,0.693 C -0.776,0.054 -0.222,0.727 0,0"
         inkscape:connector-curvature="0" />
    </g>
    <g
       transform="matrix(0.7096144,0,0,-0.86255496,19.541471,21.139585)"
       id="g3985">
      <path
         id="path3987"
         style="fill:#456023;fill-opacity:1;fill-rule:nonzero;stroke:none"
         d="m 0,0 c -0.201,-0.461 -0.187,-0.734 -0.775,-0.896 -0.546,-0.063 -0.953,0.44 -1.09,0.89 C -1.917,0.71 -1.244,0.629 -0.82,0.871 -0.415,0.843 -0.075,0.378 0,0"
         inkscape:connector-curvature="0" />
    </g>
    <g
       transform="matrix(0.7096144,0,0,-0.86255496,19.191557,21.373337)"
       id="g3989">
      <path
         id="path3991"
         style="fill:#5a7c2b;fill-opacity:1;fill-rule:nonzero;stroke:none"
         d="M 0,0 C -0.215,-0.155 -0.602,-0.365 -0.743,0.052 -0.902,0.198 -1.055,0.447 -0.837,0.635 -0.404,1.012 0.268,0.422 0,0"
         inkscape:connector-curvature="0" />
    </g>
    <g
       transform="matrix(0.7096144,0,0,-0.86255496,36.913899,24.57678)"
       id="g3993">
      <path
         id="path3995"
         style="fill:#456023;fill-opacity:1;fill-rule:nonzero;stroke:none"
         d="m 0,0 c -0.025,-0.372 -0.313,-0.589 -0.623,-0.669 -0.344,-0.078 -0.601,0.144 -0.793,0.293 -0.285,0.291 -0.354,0.771 -0.158,1.13 C -0.883,0.943 -0.322,0.701 0,0"
         inkscape:connector-curvature="0" />
    </g>
    <g
       transform="matrix(0.7096144,0,0,-0.86255496,36.567391,24.751966)"
       id="g3997">
      <path
         id="path3999"
         style="fill:#5a7c2b;fill-opacity:1;fill-rule:nonzero;stroke:none"
         d="m 0,0 c -0.387,-0.211 -0.772,0.121 -0.781,0.461 -0.053,0.242 0.173,0.056 0.32,0.215 C -0.198,0.556 0.025,0.371 0,0"
         inkscape:connector-curvature="0" />
    </g>
    <g
       transform="matrix(0.7096144,0,0,-0.86255496,41.947688,27.4622)"
       id="g4001">
      <path
         id="path4003"
         style="fill:#456023;fill-opacity:1;fill-rule:nonzero;stroke:none"
         d="m 0,0 c -0.01,-0.61 -0.034,-1.457 -0.844,-1.399 -0.687,-0.122 -1.232,0.323 -1.468,0.848 -0.104,0.448 -0.051,0.716 0.146,1.109 C -1.51,1.224 -0.176,0.894 0,0"
         inkscape:connector-curvature="0" />
    </g>
    <g
       transform="matrix(0.7096144,0,0,-0.86255496,41.645534,27.700178)"
       id="g4005">
      <path
         id="path4007"
         style="fill:#5a7c2b;fill-opacity:1;fill-rule:nonzero;stroke:none"
         d="m 0,0 c -0.119,-0.229 -0.111,-0.602 -0.453,-0.647 -0.584,-0.095 -0.934,0.235 -1.101,0.756 -0.011,0.306 0.138,0.499 0.382,0.618 C -0.744,0.527 0.082,0.706 0,0"
         inkscape:connector-curvature="0" />
    </g>
    <g
       transform="matrix(0.7096144,0,0,-0.86255496,50.126278,30.878693)"
       id="g4009">
      <path
         id="path4011"
         style="fill:#456023;fill-opacity:1;fill-rule:nonzero;stroke:none"
         d="M 0,0 C -0.132,-0.432 -0.441,-0.987 -0.953,-1.019 -1.531,-1.046 -2.082,-0.668 -2.111,-0.123 -2.3,0.568 -1.623,1.03 -1.141,1.131 -0.459,1.185 0.043,0.608 0,0"
         inkscape:connector-curvature="0" />
    </g>
    <g
       transform="matrix(0.7096144,0,0,-0.86255496,49.851157,30.65003)"
       id="g4013">
      <path
         id="path4015"
         style="fill:#6e9531;fill-opacity:1;fill-rule:nonzero;stroke:none"
         d="m 0,0 c 0.039,-0.41 -0.127,-0.839 -0.536,-0.879 -0.516,-0.1 -0.791,0.327 -0.863,0.74 -0.007,0.407 0.375,0.516 0.689,0.663 C -0.41,0.435 -0.08,0.311 0,0"
         inkscape:connector-curvature="0" />
    </g>
    <g
       transform="matrix(0.7096144,0,0,-0.86255496,16.688469,30.581371)"
       id="g4017">
      <path
         id="path4019"
         style="fill:#81ae37;fill-opacity:1;fill-rule:nonzero;stroke:none"
         d="m 0,0 c -1.527,-0.979 -2.138,-2.904 -1.791,-4.759 0.379,-1.35 1.424,-2.915 2.855,-3.287 1.446,-0.677 2.84,0.345 3.837,1.021 0.523,0.676 1.008,1.32 1.267,2.116 l 1.02,-0.953 c -0.215,-0.63 -0.496,-1.254 -0.131,-1.857 0.699,-1.643 2.721,0.59 2.731,-1.683 -0.793,-3.099 -0.213,-7.413 -4.485,-7.895 l -0.811,0.057 c -7.906,5.242 -11.87,14.092 -11.87,14.092 1.275,-3.108 3.134,-6.121 5.177,-8.909 2.773,-3.518 6.428,-6.08 9.892,-8.426 -0.242,-1.509 -0.226,-3.24 -0.746,-4.831 -2.273,-0.995 -4.431,-2.743 -7.138,-2.181 -0.77,-0.319 -1.75,-0.284 -2.285,-1.129 -0.256,-0.762 0.037,-1.427 -0.71,-1.918 -0.817,-0.519 -1.833,-0.516 -2.683,-0.049 -0.291,0.19 -0.623,0.315 -0.836,0.635 0.123,0.33 -0.205,0.964 0.375,1.025 2.164,0.391 4.074,1.513 6.178,2.01 1.465,1.051 3.357,0.953 4.783,1.938 0,0 -8.9,-1.65 -12.84,-3.172 -0.457,-0.714 -0.226,-1.782 -1.352,-1.872 -1.439,-0.206 -2.693,0.289 -3.683,1.173 -0.215,0.32 -0.195,0.59 0.061,0.877 1.736,0.557 3.658,0.389 5.359,0.948 2.689,0.626 5.205,1.196 7.803,1.964 0,0 -8.801,-2.165 -13.016,-2.278 -1.029,0.31 -1.982,0.749 -2.738,1.583 0.861,1.16 2.623,0.63 3.826,0.376 0.451,-0.336 1.08,-0.55 1.592,-0.518 4.728,0.687 9.568,1.502 14.111,2.439 l 0.264,0.388 c -3.485,2.551 -7.172,5.59 -9.704,9.159 0.306,0.996 1.095,2.094 0.565,3.217 -0.195,0.624 -0.856,0.873 -1.221,1.475 -0.801,0.192 -1.738,0.36 -2.56,0.248 -1.883,3.625 -4.41,7.261 -3.426,11.636 0.213,0.629 0.776,0.929 1.362,1.058 C -6.759,3.762 -3.367,1.829 0,0"
         inkscape:connector-curvature="0" />
    </g>
    <g
       transform="matrix(0.7096144,0,0,-0.86255496,42.678097,33.989929)"
       id="g4021">
      <path
         id="path4023"
         style="fill:#5a7c2b;fill-opacity:1;fill-rule:nonzero;stroke:none"
         d="m 0,0 c -0.043,-1.117 -0.459,-2.207 -1.412,-2.751 -0.781,-0.488 -1.711,-0.219 -2.541,0.042 -0.36,0.195 -0.67,0.59 -0.985,0.951 1.399,1.089 2.935,2.203 4.513,2.941 L 0,0 z"
         inkscape:connector-curvature="0" />
    </g>
    <g
       transform="matrix(0.7096144,0,0,-0.86255496,20.758386,34.291909)"
       id="g4025">
      <path
         id="path4027"
         style="fill:#5a7c2b;fill-opacity:1;fill-rule:nonzero;stroke:none"
         d="m 0,0 c -0.136,-1.449 -1.172,-2.699 -2.504,-3.319 -1.234,-0.185 -2.79,-0.11 -3.584,1.133 -0.962,1.288 -1.321,2.941 -0.735,4.528 0.314,0.623 0.738,1.34 1.47,1.627 C -3.349,3.05 -1.733,1.41 0,0"
         inkscape:connector-curvature="0" />
    </g>
    <g
       transform="matrix(0.7096144,0,0,-0.86255496,33.336733,36.56112)"
       id="g4029">
      <path
         id="path4031"
         style="fill:#81ae37;fill-opacity:1;fill-rule:nonzero;stroke:none"
         d="m 0,0 c -0.588,-0.162 -0.9,-0.75 -1.136,-1.209 -0.263,-0.863 -0.231,-1.849 0.472,-2.475 0.424,-0.708 1.229,-0.832 1.905,-0.879 0.91,-4.439 1.425,-8.716 2.476,-13.096 1.123,-0.927 2.721,-0.869 3.887,-1.663 1.086,0.026 2.117,-0.759 3.172,-0.222 0.863,0.211 1.995,0.403 2.84,-0.131 0.289,-0.223 0.091,-0.651 -0.061,-0.878 -0.92,-0.546 -1.863,-1.395 -3.018,-0.941 -0.683,0.42 -0.117,1.229 -1.029,1.293 -1.33,0.364 -2.94,1.121 -4.201,0.531 0.843,-1.992 2.961,-2.276 4.201,-3.957 -0.271,-0.931 -1.422,-0.918 -2.217,-1.134 -3.438,-0.176 -2.175,1.407 -2.048,1.771 0.267,0.422 1.216,0.39 1.132,1.142 -1.027,1.327 -2.619,1.845 -3.986,2.653 -0.973,-0.338 -1.787,-1.3 -2.584,-2.024 0.068,-0.988 0.496,-1.629 0.808,-2.499 -0.211,-0.595 -0.828,-0.688 -1.345,-0.821 -1.455,0.068 -2.991,0.413 -3.651,1.646 0.174,1.514 1.967,0.948 2.865,1.19 1.216,0.899 2.018,2.166 2.748,3.404 -1.918,5.561 -1.662,11.648 -3.998,17.035 0,0 0.147,-1.774 0.391,-2.639 -0.889,1.351 -2.539,2.958 -4.457,2.686 -0.808,-0.385 -1.806,-0.587 -2.304,-1.399 -0.176,0.385 0.527,1.218 -0.133,1.468 -1.825,-5.707 -3.19,-11.649 -4.424,-17.668 1.697,-1.917 3.94,-3.294 5.852,-5.056 0.808,-0.565 1.416,-0.608 2.177,-1.374 0,-0.474 -0.098,-0.909 -0.428,-1.259 -0.98,-0.44 -2.228,-0.352 -3.138,0.22 -0.389,0.265 -0.459,0.711 -0.264,1.07 0.254,0.253 0.926,0.647 0.484,1.119 -1.185,1.086 -3.593,2.931 -4.669,3.074 -0.866,-1.228 -0.757,-3.067 -0.789,-4.49 0.5,-0.611 1.446,-1.152 1.078,-2.043 -0.864,-0.719 -2.358,-0.75 -3.374,-0.238 -1.636,0.501 -1.636,2.221 0.338,2.418 0.936,1.257 1.257,2.931 1.139,4.635 -0.224,0.694 -0.871,0.163 -1.271,0.259 l -3.889,-1.764 c -0.246,-0.626 -0.444,-1.495 -1.328,-1.535 -1.336,-0.178 -2.633,0.185 -3.408,1.222 -0.158,1.131 1.144,0.836 1.714,1.237 2.587,-0.35 4.789,1.056 7.007,2.224 0.244,0.084 0.14,0.533 0.507,0.439 l 0.062,-0.072 c 0.524,0.709 2.919,14.584 3.931,21.297 2.908,2.782 6.872,0.774 9.839,-0.451 C -1.35,1.554 -0.414,0.878 0,0"
         inkscape:connector-curvature="0" />
    </g>
    <g
       transform="matrix(0.7096144,0,0,-0.86255496,27.158047,35.597128)"
       id="g4033">
      <path
         id="path4035"
         style="fill:#456023;fill-opacity:1;fill-rule:nonzero;stroke:none"
         d="m 0,0 c 0.143,-0.383 -0.152,-0.735 -0.312,-1.063 -0.332,-0.384 -1.012,-0.404 -1.505,-0.2 -0.462,0.202 -0.498,0.645 -0.743,1.035 -0.278,0.868 0.628,1.211 1.187,1.444 C -0.582,1.364 -0.269,0.528 0,0"
         inkscape:connector-curvature="0" />
    </g>
    <g
       transform="matrix(0.7096144,0,0,-0.86255496,26.722837,35.208806)"
       id="g4037">
      <path
         id="path4039"
         style="fill:#5a7c2b;fill-opacity:1;fill-rule:nonzero;stroke:none"
         d="m 0,0 c 0.281,-0.358 0.375,-0.942 0.043,-1.326 -0.291,-0.285 -0.901,-0.276 -1.219,0.018 -0.35,0.33 -0.445,0.913 -0.315,1.311 C -1.15,0.522 -0.34,0.465 0,0"
         inkscape:connector-curvature="0" />
    </g>
    <g
       transform="matrix(0.7096144,0,0,-0.86255496,43.700929,37.149554)"
       id="g4041">
      <path
         id="path4043"
         style="fill:#456023;fill-opacity:1;fill-rule:nonzero;stroke:none"
         d="m 0,0 c 0.342,-0.431 0.311,-0.903 0.145,-1.333 -0.131,-0.397 -0.624,-0.668 -1.038,-0.741 -0.67,0.115 -1.578,0.212 -1.69,1.034 -0.037,0.918 0.745,1.44 1.479,1.762 C -0.342,0.94 -0.531,0.173 0,0"
         inkscape:connector-curvature="0" />
    </g>
    <g
       transform="matrix(0.7096144,0,0,-0.86255496,43.627487,37.581608)"
       id="g4045">
      <path
         id="path4047"
         style="fill:#5a7c2b;fill-opacity:1;fill-rule:nonzero;stroke:none"
         d="m 0,0 c 0.063,-0.547 -0.177,-1.073 -0.76,-1.168 -0.617,-0.092 -1.134,0.283 -1.303,0.769 -0.156,0.69 0.606,0.908 0.967,1.222 C -0.705,0.592 -0.166,0.52 0,0"
         inkscape:connector-curvature="0" />
    </g>
    <g
       transform="matrix(0.7096144,0,0,-0.86255496,40.302586,38.059636)"
       id="g4049">
      <path
         id="path4051"
         style="fill:#456023;fill-opacity:1;fill-rule:nonzero;stroke:none"
         d="m 0,0 c -0.023,-0.338 0.32,-0.769 -0.073,-1.047 -0.495,-0.304 -1.176,-0.325 -1.738,-0.115 -0.524,0.274 -0.544,0.953 -0.445,1.387 0.262,0.355 0.748,0.524 1.165,0.665 C -0.659,0.758 -0.1,0.515 0,0"
         inkscape:connector-curvature="0" />
    </g>
    <g
       transform="matrix(0.7096144,0,0,-0.86255496,34.165489,40.14193)"
       id="g4053">
      <path
         id="path4055"
         style="fill:#5a7c2b;fill-opacity:1;fill-rule:nonzero;stroke:none"
         d="m 0,0 c -0.773,0.088 -1.556,0.549 -1.839,1.349 -0.438,0.54 -0.048,1.259 0.125,1.789 l 0.862,0.686 C -0.424,2.675 -0.422,1.25 0,0"
         inkscape:connector-curvature="0" />
    </g>
    <g
       transform="matrix(0.7096144,0,0,-0.86255496,23.014041,37.350443)"
       id="g4057">
      <path
         id="path4059"
         style="fill:#5a7c2b;fill-opacity:1;fill-rule:nonzero;stroke:none"
         d="m 0,0 c -0.222,-0.256 -0.757,-0.151 -1.054,-0.029 -0.371,0.027 -0.377,0.434 -0.534,0.614 l 0.237,0.968 C -0.943,1.083 -0.26,0.662 0,0"
         inkscape:connector-curvature="0" />
    </g>
    <g
       transform="matrix(0.7096144,0,0,-0.86255496,40.094669,38.744504)"
       id="g4061">
      <path
         id="path4063"
         style="fill:#5a7c2b;fill-opacity:1;fill-rule:nonzero;stroke:none"
         d="m 0,0 c -0.523,-0.201 -1.063,-0.163 -1.553,0.109 -0.049,0.274 -0.203,0.489 -0.111,0.822 l 1.011,0.404 C -0.332,1.075 0.281,0.625 0,0"
         inkscape:connector-curvature="0" />
    </g>
    <g
       transform="matrix(0.7096144,0,0,-0.86255496,31.76295,40.903393)"
       id="g4065">
      <path
         id="path4067"
         style="fill:#ced320;fill-opacity:1;fill-rule:nonzero;stroke:none"
         d="m 0,0 c 0.797,-4.126 1.106,-8.422 2.392,-12.378 -0.845,-1.874 -3.178,-1.779 -4.965,-2.095 -2.961,-0.165 -5.424,0.516 -7.854,1.669 1.162,4.973 1.948,9.904 3.462,14.58 0.51,0.982 1.446,1.29 2.386,1.631 C -2.396,3.56 -0.94,1.592 0,0"
         inkscape:connector-curvature="0" />
    </g>
    <g
       transform="matrix(0.7096144,0,0,-0.86255496,21.66407,38.640049)"
       id="g4069">
      <path
         id="path4071"
         style="fill:#456023;fill-opacity:1;fill-rule:nonzero;stroke:none"
         d="m 0,0 c 0.252,-0.764 0.017,-1.698 -0.334,-2.351 -0.383,-0.618 -1.125,-0.566 -1.746,-0.692 -0.709,0.015 -1.207,0.661 -1.471,1.256 -0.262,0.628 -0.308,1.412 -0.09,2.109 0.346,0.586 0.912,0.92 1.469,1.118 C -1.299,1.312 -0.342,0.939 0,0"
         inkscape:connector-curvature="0" />
    </g>
    <g
       transform="matrix(0.7096144,0,0,-0.86255496,21.415989,38.765982)"
       id="g4073">
      <path
         id="path4075"
         style="fill:#5a7c2b;fill-opacity:1;fill-rule:nonzero;stroke:none"
         d="m 0,0 c 0.326,-0.667 -0.031,-1.422 -0.21,-2.02 -0.44,-0.478 -1.17,-0.732 -1.827,-0.449 -0.646,0.486 -1.006,1.156 -0.984,1.935 -0.092,0.65 0.21,1.104 0.58,1.519 C -1.54,1.261 -0.303,1.005 0,0"
         inkscape:connector-curvature="0" />
    </g>
    <g
       transform="matrix(0.7096144,0,0,-0.86255496,12.534028,39.619652)"
       id="g4077">
      <path
         id="path4079"
         style="fill:#5a7c2b;fill-opacity:1;fill-rule:nonzero;stroke:none"
         d="m 0,0 c 0.401,-0.57 0.517,-1.325 0.268,-1.986 l -0.467,-0.849 -2.58,3.844 c 0.428,0.309 1.249,-0.088 1.856,-0.13 L 0,0 z"
         inkscape:connector-curvature="0" />
    </g>
    <g
       transform="matrix(0.7096144,0,0,-0.86255496,49.181781,54.408589)"
       id="g4081">
      <path
         id="path4083"
         style="fill:#ced320;fill-opacity:1;fill-rule:nonzero;stroke:none"
         d="M 0,0 -0.538,-0.437 -3.436,0.817 C -2.124,0.658 -1.311,0.16 0,0"
         inkscape:connector-curvature="0" />
    </g>
    <g
       transform="matrix(0.7096144,0,0,-0.86255496,39.776552,54.310948)"
       id="g4085">
      <path
         id="path4087"
         style="fill:#ced320;fill-opacity:1;fill-rule:nonzero;stroke:none"
         d="m 0,0 c -0.618,-0.126 -0.899,-1.226 -1.457,-0.949 -0.616,0.381 -1.262,0.868 -1.687,1.576 l 0.075,0.097 C -2.112,0.351 -1.019,0.478 0,0"
         inkscape:connector-curvature="0" />
    </g>
    <g
       transform="matrix(0.7096144,0,0,-0.86255496,37.402397,55.425278)"
       id="g4089">
      <path
         id="path4091"
         style="fill:#ced320;fill-opacity:1;fill-rule:nonzero;stroke:none"
         d="m 0,0 c -0.123,-0.297 -0.545,-0.505 -0.858,-0.619 -1.321,0.5 -2.754,0.871 -4.144,0.392 -0.203,0.014 -0.433,0.132 -0.452,0.336 0.17,0.972 1.187,1.444 1.939,2.002 C -2.226,1.648 -1.093,0.856 0,0"
         inkscape:connector-curvature="0" />
    </g>
    <g
       transform="matrix(0.7096144,0,0,-0.86255496,11.12587,55.298573)"
       id="g4093">
      <path
         id="path4095"
         style="fill:#ced320;fill-opacity:1;fill-rule:nonzero;stroke:none"
         d="M 0,0 0.017,0.236 C 2.726,1.132 5.498,1.99 8.216,2.512 5.544,1.681 2.944,-0.104 0,0"
         inkscape:connector-curvature="0" />
    </g>
    <g
       transform="matrix(0.7096144,0,0,-0.86255496,22.156117,55.183163)"
       id="g4097">
      <path
         id="path4099"
         style="fill:#ced320;fill-opacity:1;fill-rule:nonzero;stroke:none"
         d="m 0,0 c -0.236,-0.967 -0.109,-2.061 -0.671,-2.802 -0.715,0.931 -1.817,1.653 -2.869,2.134 1.11,0.363 2.16,1.307 3.421,1.389 L 0,0 z"
         inkscape:connector-curvature="0" />
    </g>
    <g
       transform="matrix(0.7096144,0,0,-0.86255496,26.203115,57.223712)"
       id="g4101">
      <path
         id="path4103"
         style="fill:#ced320;fill-opacity:1;fill-rule:nonzero;stroke:none"
         d="M 0,0 C -1.367,-0.142 -2.73,-0.25 -3.9,-0.949 -3.827,0.098 -3.908,1.359 -3.5,2.348 -2.252,1.751 -1.008,1.122 0,0"
         inkscape:connector-curvature="0" />
    </g>
    <g
       transform="matrix(0.7096144,0,0,-0.86255496,31.268842,7.2456357)"
       id="g4105">
      <path
         id="path4107"
         style="fill:#81ae37;fill-opacity:1;fill-rule:nonzero;stroke:none"
         d="m 0,0 c -0.936,0.167 -1.882,0.25 -2.815,0.265 -0.275,0.763 -0.687,1.455 -1.204,2.043 0.15,0.034 0.3,0.061 0.455,0.078 C -1.074,2.505 -0.152,0.248 0,0"
         inkscape:connector-curvature="0" />
    </g>
    <g
       transform="matrix(0.7096144,0,0,-0.86255496,29.353451,14.601332)"
       id="g4109">
      <path
         id="path4111"
         style="fill:#dce8eb;fill-opacity:1;fill-rule:nonzero;stroke:none"
         d="m 0,0 -4.551,0.42 c 2.75,0.581 4.818,3.118 4.818,6.162 0,0.513 -0.058,1.011 -0.17,1.488 C 1.269,8.059 2.326,7.993 2.89,7.87 2.89,7.87 4.097,2.467 0,0"
         inkscape:connector-curvature="0" />
    </g>
    <g
       transform="matrix(0.7096144,0,0,-0.86255496,40.173652,12.273555)"
       id="g4113">
      <path
         id="path4115"
         style="fill:#81ae37;fill-opacity:1;fill-rule:nonzero;stroke:none"
         d="M 0,0 C -0.783,0.61 -1.586,1.178 -2.416,1.691 -2.455,2.579 -2.621,3.417 -2.885,4.165 -1.42,3.893 -0.073,2.817 0,0"
         inkscape:connector-curvature="0" />
    </g>
    <g
       transform="matrix(0.7096144,0,0,-0.86255496,39.24782,12.048256)"
       id="g4117">
      <path
         id="path4119"
         style="fill:#dce8eb;fill-opacity:1;fill-rule:nonzero;stroke:none"
         d="m 0,0 c 0.567,-0.617 1.803,-0.907 1.016,-1.971 -0.738,-2.289 -2.445,-3.9 -4.605,-5.207 l -4.374,2.443 c -0.15,0.437 -0.262,0.863 -0.335,1.282 0.765,-1.098 1.808,-1.775 2.959,-1.775 2.279,0 4.138,2.65 4.235,5.972 C -0.723,0.516 -0.352,0.271 0,0"
         inkscape:connector-curvature="0" />
    </g>
    <g
       transform="matrix(0.7096144,0,0,-0.86255496,25.842773,9.7945727)"
       id="g4121">
      <path
         id="path4123"
         style="fill:#000000;fill-opacity:1;fill-rule:nonzero;stroke:none"
         d="m 0,0 c 0,1.314 1.066,2.38 2.381,2.38 1.314,0 2.38,-1.066 2.38,-2.38 0,-1.315 -1.066,-2.381 -2.38,-2.381 C 1.066,-2.381 0,-1.315 0,0"
         inkscape:connector-curvature="0" />
    </g>
    <g
       transform="matrix(0.7096144,0,0,-0.86255496,34.701889,12.227667)"
       id="g4125">
      <path
         id="path4127"
         style="fill:#000000;fill-opacity:1;fill-rule:nonzero;stroke:none"
         d="M 0,0 C 0,1.308 1.061,2.368 2.369,2.368 3.677,2.368 4.736,1.308 4.736,0 4.736,-1.308 3.677,-2.368 2.369,-2.368 1.061,-2.368 0,-1.308 0,0"
         inkscape:connector-curvature="0" />
    </g>
    <g
       transform="matrix(0.7096144,0,0,-0.86255496,25.842773,9.1699965)"
       id="g4129">
      <path
         id="path4131"
         style="fill:#ffffff;fill-opacity:1;fill-rule:nonzero;stroke:none"
         d="M 0,0 C 0,0.7 0.568,1.268 1.27,1.268 1.968,1.268 2.536,0.7 2.536,0 2.536,-0.7 1.968,-1.268 1.27,-1.268 0.568,-1.268 0,-0.7 0,0"
         inkscape:connector-curvature="0" />
    </g>
    <g
       transform="matrix(0.7096144,0,0,-0.86255496,34.830749,11.367613)"
       id="g4133">
      <path
         id="path4135"
         style="fill:#ffffff;fill-opacity:1;fill-rule:nonzero;stroke:none"
         d="M 0,0 C 0,0.707 0.574,1.28 1.281,1.28 1.988,1.28 2.563,0.707 2.563,0 2.563,-0.708 1.988,-1.282 1.281,-1.282 0.574,-1.282 0,-0.708 0,0"
         inkscape:connector-curvature="0" />
    </g>
    <g
       transform="matrix(0.7096144,0,0,-0.86255496,24.650837,16.852083)"
       id="g4137">
      <path
         id="path4139"
         style="fill:#ced320;fill-opacity:1;fill-rule:nonzero;stroke:none"
         d="M 0,0 C 0.111,0.799 2.041,1.189 4.309,0.871 6.576,0.552 8.324,-0.354 8.213,-1.154 8.1,-1.954 6.17,-2.343 3.901,-2.025 1.635,-1.706 -0.113,-0.8 0,0"
         inkscape:connector-curvature="0" />
    </g>
    <g
       transform="matrix(0.7096144,0,0,-0.86255496,38.355978,57.926605)"
       id="g4141">
      <path
         id="path4143"
         style="fill:#acc22d;fill-opacity:1;fill-rule:nonzero;stroke:none"
         d="m 0,0 c -3.166,-0.1 -1.954,1.424 -1.83,1.78 0.267,0.422 1.216,0.39 1.132,1.142 -0.086,0.112 -0.178,0.219 -0.273,0.321 L 0.246,2.122 C 0.246,2.122 -1.28,1.154 0,0 M -1.532,3.76 C -2.483,4.517 -3.647,4.963 -4.685,5.575 -5.657,5.237 -6.472,4.275 -7.269,3.551 -7.2,2.563 -6.772,1.922 -6.46,1.052 -6.671,0.457 -7.288,0.364 -7.806,0.231 c -1.454,0.068 -2.99,0.413 -3.65,1.646 0.174,1.514 1.967,0.948 2.865,1.19 1.216,0.899 2.018,2.166 2.748,3.404 -1.918,5.561 -1.662,11.648 -3.998,17.035 l -0.224,1.116 0.543,1.383 5.214,-19.691 2.776,-2.554 z m -20.399,-7.113 c -0.659,-0.067 -1.353,0.051 -1.908,0.33 -1.637,0.501 -1.637,2.221 0.338,2.418 0.936,1.257 1.257,2.931 1.139,4.635 -0.224,0.694 -0.871,0.163 -1.271,0.259 l -3.889,-1.764 c -0.247,-0.626 -0.444,-1.495 -1.329,-1.535 -1.336,-0.178 -2.632,0.185 -3.407,1.222 -0.158,1.131 1.144,0.836 1.714,1.237 2.587,-0.35 4.789,1.056 7.007,2.224 0.244,0.084 0.14,0.533 0.507,0.439 0.563,0.606 2.77,13.293 3.849,20.279 0.784,-0.712 1.379,-1.921 0.823,-3.943 -1.178,-4.283 -3.558,-16.949 -3.558,-16.949 l -0.453,-6.029 c 0,0 -2.417,-1.582 0.438,-2.823"
         inkscape:connector-curvature="0" />
    </g>
    <g
       transform="matrix(0.7096144,0,0,-0.86255496,31.76295,40.903393)"
       id="g4145">
      <path
         id="path4147"
         style="fill:#acc22d;fill-opacity:1;fill-rule:nonzero;stroke:none"
         d="m 0,0 c 0.797,-4.126 1.106,-8.422 2.392,-12.378 -0.845,-1.874 -3.178,-1.779 -4.965,-2.095 -2.961,-0.165 -5.424,0.516 -7.854,1.669 l 0.289,1.266 c 0.962,-0.484 2.487,-0.74 4.901,-0.344 4.89,0.8 5.095,8.492 4.864,12.485 C -0.239,0.399 -0.116,0.197 0,0"
         inkscape:connector-curvature="0" />
    </g>
    <g
       transform="matrix(0.7096144,0,0,-0.86255496,15.972604,31.394674)"
       id="g4149">
      <path
         id="path4151"
         style="fill:#acc22d;fill-opacity:1;fill-rule:nonzero;stroke:none"
         d="m 0,0 c -0.376,-0.505 -0.632,-1.098 -0.767,-1.732 -3.402,1.86 -6.478,3.003 -7.007,1.441 -1.269,-3.739 12.938,-20.144 12.938,-20.144 0,0 -4.825,4.171 -9.118,9.593 0.045,0.358 0.012,0.72 -0.16,1.086 -0.196,0.624 -0.857,0.873 -1.221,1.475 -0.202,0.048 -0.411,0.095 -0.624,0.136 -2.015,2.906 -3.675,6.012 -4.286,8.941 -0.611,2.92 2.652,2.834 7.297,0.906 C -2.053,1.33 -1.044,0.728 0,0 m 6.011,-5.952 c 0.14,0.185 0.279,0.368 0.41,0.553 1.736,-1.648 2.933,-2.913 2.933,-2.913 0,0 -1.373,1.018 -3.343,2.36"
         inkscape:connector-curvature="0" />
    </g>
    <g
       transform="matrix(0.7096144,0,0,-0.86255496,20.305868,35.794653)"
       id="g4153">
      <path
         id="path4155"
         style="fill:#6e9531;fill-opacity:1;fill-rule:nonzero;stroke:none"
         d="m 0,0 c -0.142,-0.21 -0.303,-0.407 -0.479,-0.591 -1.744,1.178 -3.887,2.56 -5.947,3.713 0.043,0.322 0.123,0.643 0.24,0.962 0.126,0.249 0.27,0.513 0.444,0.759 C -3.75,3.41 -1.662,1.563 0,0"
         inkscape:connector-curvature="0" />
    </g>
    <g
       transform="matrix(0.7096144,0,0,-0.86255496,40.947064,36.596484)"
       id="g4157">
      <path
         id="path4159"
         style="fill:#6e9531;fill-opacity:1;fill-rule:nonzero;stroke:none"
         d="m 0,0 c -0.471,0.004 -0.953,0.139 -1.41,0.28 1.197,0.941 2.488,1.894 3.832,2.795 L 2.439,3.022 C 2.416,2.416 2.283,1.818 2.015,1.311 1.34,0.883 0.664,0.443 0,0"
         inkscape:connector-curvature="0" />
    </g>
    <g
       transform="matrix(0.7096144,0,0,-0.86255496,8.8487912,30.032613)"
       id="g4161">
      <path
         id="path4163"
         style="fill:#ced320;fill-opacity:1;fill-rule:nonzero;stroke:none"
         d="M 0,0 C 0,0.782 1.283,1.416 2.865,1.416 4.449,1.416 5.731,0.782 5.731,0 5.731,-0.783 4.449,-1.417 2.865,-1.417 1.283,-1.417 0,-0.783 0,0"
         inkscape:connector-curvature="0" />
    </g>
    <g
       transform="matrix(0.7096144,0,0,-0.86255496,15.891572,55.979129)"
       id="g4165">
      <path
         id="path4167"
         style="fill:#ced320;fill-opacity:1;fill-rule:nonzero;stroke:none"
         d="M 0,0 C 0,0.525 0.694,0.951 1.551,0.951 2.409,0.951 3.104,0.525 3.104,0 3.104,-0.525 2.409,-0.951 1.551,-0.951 0.694,-0.951 0,-0.525 0,0"
         inkscape:connector-curvature="0" />
    </g>
    <g
       transform="matrix(0.7096144,0,0,-0.86255496,21.068136,59.712439)"
       id="g4169">
      <path
         id="path4171"
         style="fill:#ced320;fill-opacity:1;fill-rule:nonzero;stroke:none"
         d="M 0,0 C 0,0.451 0.528,0.815 1.178,0.815 1.828,0.815 2.355,0.451 2.355,0 2.355,-0.45 1.828,-0.815 1.178,-0.815 0.528,-0.815 0,-0.45 0,0"
         inkscape:connector-curvature="0" />
    </g>
    <g
       transform="matrix(0.7096144,0,0,-0.86255496,26.954319,58.618636)"
       id="g4173">
      <path
         id="path4175"
         style="fill:#acc22d;fill-opacity:1;fill-rule:nonzero;stroke:none"
         d="M 0,0 C 0,0.401 0.525,0.725 1.176,0.725 1.826,0.725 2.354,0.401 2.354,0 2.354,-0.4 1.826,-0.724 1.176,-0.724 0.525,-0.724 0,-0.4 0,0"
         inkscape:connector-curvature="0" />
    </g>
    <g
       transform="matrix(0.7096144,0,0,-0.86255496,30.635441,56.291201)"
       id="g4177">
      <path
         id="path4179"
         style="fill:#ced320;fill-opacity:1;fill-rule:nonzero;stroke:none"
         d="M 0,0 C 0,0.425 0.532,0.77 1.189,0.77 1.848,0.77 2.38,0.425 2.38,0 2.38,-0.425 1.848,-0.77 1.189,-0.77 0.532,-0.77 0,-0.425 0,0"
         inkscape:connector-curvature="0" />
    </g>
    <g
       transform="matrix(0.7096144,0,0,-0.86255496,37.291556,56.928029)"
       id="g4181">
      <path
         id="path4183"
         style="fill:#ced320;fill-opacity:1;fill-rule:nonzero;stroke:none"
         d="M 0,0 C 0,0.483 0.634,0.874 1.417,0.874 2.199,0.874 2.833,0.483 2.833,0 2.833,-0.482 2.199,-0.873 1.417,-0.873 0.634,-0.873 0,-0.482 0,0"
         inkscape:connector-curvature="0" />
    </g>
    <g
       transform="matrix(0.7096144,0,0,-0.86255496,7.5452302,55.276236)"
       id="g4185">
      <path
         id="path4187"
         style="fill:#acc22d;fill-opacity:1;fill-rule:nonzero;stroke:none"
         d="M 0,0 C 0,0.425 0.655,0.77 1.462,0.77 2.27,0.77 2.924,0.425 2.924,0 2.924,-0.425 2.27,-0.769 1.462,-0.769 0.655,-0.769 0,-0.425 0,0"
         inkscape:connector-curvature="0" />
    </g>
    <g
       transform="matrix(0.7096144,0,0,-0.86255496,12.337255,56.174155)"
       id="g4189">
      <path
         id="path4191"
         style="fill:#acc22d;fill-opacity:1;fill-rule:nonzero;stroke:none"
         d="M 0,0 C 0,0.3 0.427,0.543 0.951,0.543 1.476,0.543 1.903,0.3 1.903,0 1.903,-0.3 1.476,-0.544 0.951,-0.544 0.427,-0.544 0,-0.3 0,0"
         inkscape:connector-curvature="0" />
    </g>
    <g
       transform="matrix(0.7096144,0,0,-0.86255496,46.748014,55.588308)"
       id="g4193">
      <path
         id="path4195"
         style="fill:#acc22d;fill-opacity:1;fill-rule:nonzero;stroke:none"
         d="M 0,0 C 0,0.375 0.547,0.679 1.222,0.679 1.897,0.679 2.444,0.375 2.444,0 2.444,-0.375 1.897,-0.679 1.222,-0.679 0.547,-0.679 0,-0.375 0,0"
         inkscape:connector-curvature="0" />
    </g>
    <g
       transform="matrix(0.7096144,0,0,-0.86255496,50.17205,54.533314)"
       id="g4197">
      <path
         id="path4199"
         style="fill:#acc22d;fill-opacity:1;fill-rule:nonzero;stroke:none"
         d="M 0,0 C 0,0.4 0.65,0.724 1.449,0.724 2.25,0.724 2.898,0.4 2.898,0 2.898,-0.401 2.25,-0.725 1.449,-0.725 0.65,-0.725 0,-0.401 0,0"
         inkscape:connector-curvature="0" />
    </g>
    <g
       transform="matrix(0.7096144,0,0,-0.86255496,40.733611,54.299562)"
       id="g4201">
      <path
         id="path4203"
         style="fill:#acc22d;fill-opacity:1;fill-rule:nonzero;stroke:none"
         d="M 0,0 C 0,0.351 0.387,0.635 0.861,0.635 1.336,0.635 1.722,0.351 1.722,0 1.722,-0.35 1.336,-0.633 0.861,-0.633 0.387,-0.633 0,-0.35 0,0"
         inkscape:connector-curvature="0" />
    </g>
    <g
       transform="matrix(0.7096144,0,0,-0.86255496,25.39231,16.674397)"
       id="g4205">
      <path
         id="path4207"
         style="fill:#ffffff;fill-opacity:1;fill-rule:nonzero;stroke:none"
         d="M 0,0 C 0,0.425 0.514,0.769 1.146,0.769 1.779,0.769 2.291,0.425 2.291,0 2.291,-0.426 1.779,-0.77 1.146,-0.77 0.514,-0.77 0,-0.426 0,0"
         inkscape:connector-curvature="0" />
    </g>
    <g
       transform="matrix(0.7096144,0,0,-0.86255496,27.018111,3.6290294)"
       id="g4209">
      <path
         id="path4211"
         style="fill:#ffffff;fill-opacity:1;fill-rule:nonzero;stroke:none"
         d="M 0,0 C 0,0.432 0.507,0.782 1.132,0.782 1.757,0.782 2.265,0.432 2.265,0 2.265,-0.432 1.757,-0.783 1.132,-0.783 0.507,-0.783 0,-0.432 0,0"
         inkscape:connector-curvature="0" />
    </g>
    <g
       transform="matrix(0.7096144,0,0,-0.86255496,9.5556353,29.602975)"
       id="g4213">
      <path
         id="path4215"
         style="fill:#ffffff;fill-opacity:1;fill-rule:nonzero;stroke:none"
         d="M 0,0 C 0,0.507 0.567,0.918 1.269,0.918 1.97,0.918 2.536,0.507 2.536,0 2.536,-0.508 1.97,-0.919 1.269,-0.919 0.567,-0.919 0,-0.508 0,0"
         inkscape:connector-curvature="0" />
    </g>
    <g
       transform="matrix(0.7096144,0,0,-0.86255496,16.404334,55.705788)"
       id="g4217">
      <path
         id="path4219"
         style="fill:#ffffff;fill-opacity:1;fill-rule:nonzero;stroke:none"
         d="M 0,0 C 0,0.25 0.351,0.453 0.783,0.453 1.216,0.453 1.565,0.25 1.565,0 1.565,-0.25 1.216,-0.453 0.783,-0.453 0.351,-0.453 0,-0.25 0,0"
         inkscape:connector-curvature="0" />
    </g>
    <g
       transform="matrix(0.7096144,0,0,-0.86255496,30.956328,56.096263)"
       id="g4221">
      <path
         id="path4223"
         style="fill:#ffffff;fill-opacity:1;fill-rule:nonzero;stroke:none"
         d="M 0,0 C 0,0.25 0.305,0.453 0.68,0.453 1.055,0.453 1.358,0.25 1.358,0 1.358,-0.25 1.055,-0.453 0.68,-0.453 0.305,-0.453 0,-0.25 0,0"
         inkscape:connector-curvature="0" />
    </g>
    <g
       transform="matrix(0.7096144,0,0,-0.86255496,19.957947,12.082758)"
       id="g4225">
      <path
         id="path4227"
         style="fill:#81ae37;fill-opacity:1;fill-rule:evenodd;stroke:none"
         d="M 0,0 C 0,0 1.384,0.453 2.199,0.091 3.014,-0.271 3.83,-1.267 3.83,-1.267 l 0.453,-0.816 -1.449,-0.09 c 0,0 -0.906,-1.656 -1.087,-2.019 -0.183,-0.362 -0.997,-2.38 -0.726,-3.557 0.273,-1.178 0.543,-1.877 1.359,-3.08 0.815,-1.203 2.29,-3.195 3.468,-3.829 1.177,-0.634 2.833,-2.381 4.644,-2.834 1.812,-0.453 5.551,-1.267 5.551,-1.267 l 2.109,-0.272 -1.178,-1.294 -1.021,0.453 c 0,0 -2.471,-0.815 -4.283,-0.544 -1.811,0.272 -2.561,2.109 -3.196,2.471 -0.634,0.363 -5.46,3.468 -6.184,4.555 -0.726,1.087 -2.472,2.989 -2.561,5.188 -0.091,2.199 0.386,4.308 0.839,5.123 0.453,0.815 1.088,1.902 1.088,1.902 L 0,0 z"
         inkscape:connector-curvature="0" />
    </g>
    <g
       transform="matrix(0.7096144,0,0,-0.86255496,23.221889,13.641481)"
       id="g4229">
      <path
         id="path4231"
         style="fill:#000000;fill-opacity:1;fill-rule:nonzero;stroke:none"
         d="m 0,0 c -0.027,-0.405 -0.348,-0.62 -0.669,-0.36 l -0.477,0.44 c -1.438,-1.629 -2.401,-3.766 -2.231,-6.187 1.457,-5.359 6.635,-8.435 11.533,-9.693 5.416,-1.125 12.2,-1.599 15.315,3.644 0.791,1.607 1.68,4.156 0.16,5.687 -0.606,0.076 -0.951,-1.46 -1.424,-0.477 0.063,0.911 1.109,1.313 1.745,1.676 2.267,0.531 3.052,-0.485 3.14,-0.695 -0.815,-0.01 -1.832,0.976 -2.684,-0.05 1.278,-1.616 0.946,-3.932 0.245,-5.715 -1.61,-3.618 -5.332,-5.427 -9.1,-5.469 -2.42,-0.17 -4.777,0.063 -6.869,-0.741 -2.463,-0.302 -3.978,1.805 -5.564,3.374 -2.948,1.496 -5.64,4.228 -6.983,7.34 -0.812,2.94 0.416,5.941 2.187,7.988 C -2.152,1.711 -3.669,1.851 -4.449,1.838 -3.816,2.641 -1.042,2.26 0,0"
         inkscape:connector-curvature="0" />
    </g>
    <g
       transform="matrix(0.7096144,0,0,-0.86255496,30.585558,28.310867)"
       id="g4233">
      <path
         id="path4235"
         style="fill:#dc9879;fill-opacity:1;fill-rule:nonzero;stroke:none"
         d="M 0,0 C -1.435,-0.645 -3.156,-0.525 -4.455,0.312 L -5.748,1.691 C -3.896,1.019 -2.087,0.214 0,0"
         inkscape:connector-curvature="0" />
    </g>
  </g>
</svg>
