<?xml version="1.0" encoding="UTF-8" standalone="no"?>
<!-- Created with Inkscape (http://www.inkscape.org/) -->

<svg
   xmlns:dc="http://purl.org/dc/elements/1.1/"
   xmlns:cc="http://creativecommons.org/ns#"
   xmlns:rdf="http://www.w3.org/1999/02/22-rdf-syntax-ns#"
   xmlns:svg="http://www.w3.org/2000/svg"
   xmlns="http://www.w3.org/2000/svg"
   xmlns:sodipodi="http://sodipodi.sourceforge.net/DTD/sodipodi-0.dtd"
   xmlns:inkscape="http://www.inkscape.org/namespaces/inkscape"
   width="64px"
   height="64px"
   id="svg178227"
   version="1.1"
   inkscape:version="0.48.5 r10040"
   sodipodi:docname="Nowy dokument 58">
  <defs
     id="defs178229" />
  <sodipodi:namedview
     id="base"
     pagecolor="#ffffff"
     bordercolor="#666666"
     borderopacity="1.0"
     inkscape:pageopacity="0.0"
     inkscape:pageshadow="2"
     inkscape:zoom="5.5"
     inkscape:cx="32"
     inkscape:cy="32"
     inkscape:current-layer="layer1"
     showgrid="true"
     inkscape:document-units="px"
     inkscape:grid-bbox="true"
     inkscape:window-width="1366"
     inkscape:window-height="706"
     inkscape:window-x="-8"
     inkscape:window-y="-8"
     inkscape:window-maximized="1" />
  <metadata
     id="metadata178232">
    <rdf:RDF>
      <cc:Work
         rdf:about="">
        <dc:format>image/svg+xml</dc:format>
        <dc:type
           rdf:resource="http://purl.org/dc/dcmitype/StillImage" />
        <dc:title></dc:title>
      </cc:Work>
    </rdf:RDF>
  </metadata>
  <g
     id="layer1"
     inkscape:label="Layer 1"
     inkscape:groupmode="layer">
    <g
       transform="matrix(2.7580609,0,0,-3.3259778,32.814639,6.607284)"
       id="g30661">
      <path
         id="path30663"
         style="fill:#000000;fill-opacity:1;fill-rule:nonzero;stroke:none"
         d="m 0,0 c -0.764,-1.914 -0.484,-4.326 0.402,-6.085 -0.07,-0.265 -0.416,-0.319 -0.595,-0.499 -0.528,1.011 -1.485,1.773 -2.467,2.287 -1.069,0.471 -2.317,0.595 -3.522,0.332 0,0.347 0.055,0.86 -0.402,0.998 -0.387,0.056 -0.678,-0.069 -0.969,-0.263 -0.097,0.319 -0.375,0.541 -0.693,0.636 -0.305,0.043 -0.432,-0.248 -0.596,-0.442 -0.252,0.194 -0.568,0.36 -0.902,0.235 -0.235,-0.138 -0.471,-0.443 -0.373,-0.734 0.166,-0.348 -0.457,-0.208 -0.623,-0.43 -0.071,-0.111 -0.209,-0.235 -0.098,-0.361 l 0.332,-0.332 c -0.166,-0.112 -0.375,-0.166 -0.473,-0.374 -0.177,-0.374 0.28,-0.554 0.5,-0.762 0.071,-0.028 0.196,-0.07 0.098,-0.167 -0.139,-0.139 -0.18,-0.402 -0.068,-0.568 0.193,-0.403 0.732,-0.457 1.135,-0.457 -1.067,-2.675 -0.37,-5.675 1.46,-7.741 0,0 3.307,-0.146 4.528,-0.244 0.097,-0.123 -0.057,-0.416 0.138,-0.539 0.887,-0.791 2.508,-0.984 3.618,-0.5 l 0.097,0.472 c 1.287,-0.276 2.661,-0.347 3.936,-0.069 -0.014,-0.278 0.236,-0.498 0.457,-0.623 0.541,-0.181 1.041,0.207 1.539,-0.071 0.443,-0.041 0.789,0.166 1.164,0.332 0.166,-0.054 0.389,-0.095 0.555,-0.041 0.234,0.223 0.318,0.541 0.277,0.832 -0.18,0.444 -0.457,0.832 -0.943,0.971 -0.264,0.013 -0.555,0.124 -0.83,0.027 1.232,1.941 0.275,4.547 -0.291,6.528 l -0.043,0.028 c 1.109,0.042 2.064,0.971 2.605,1.899 0.68,1.275 0.777,2.814 0.5,4.186 L 9.244,-1.471 C 7.248,-1.887 5.338,-3.59 4.99,-5.655 L 4.963,-6.391 c -0.652,0.25 -1.4,0.444 -2.137,0.597 0.612,2.37 -0.234,4.878 -2.23,6.292 C 0.264,0.581 0.139,0.193 0,0"
         inkscape:connector-curvature="0" />
    </g>
    <g
       transform="matrix(2.7580609,0,0,-3.3259778,10.416141,25.003932)"
       id="g30665">
      <path
         id="path30667"
         style="fill:#acb0ca;fill-opacity:1;fill-rule:nonzero;stroke:none"
         d="M 0,0 C -1.678,-2.051 -1.678,-5.518 -0.361,-7.748 L 0.441,-8.98 c 0.555,-0.057 3.19,-0.139 3.924,-0.196 0.041,0.375 -0.209,0.708 -0.068,1.026 0.346,-0.221 0.387,-0.664 0.359,-1.026 0.498,-0.207 0.278,0.403 0.569,0.528 0.027,0.47 -0.237,0.817 -0.596,1.039 -0.666,0.332 -1.744,0.44 -2.69,0.027 2.456,4.419 -0.777,5.586 -0.707,5.655 0.957,-0.027 1.539,-1.094 1.76,-1.856 0.446,-1.221 -0.027,-2.371 -0.498,-3.424 0.819,0.223 1.83,0.18 2.535,-0.277 0.278,-0.222 0.555,-0.513 0.528,-0.887 0.097,0.139 0.47,0.083 0.332,0.332 -0.844,1.357 -0.664,3.215 -0.028,4.616 0.389,0.859 1.178,1.552 1.858,2.203 C 7.234,-0.208 6.277,0.499 5.32,0.998 3.922,1.622 1.898,1.635 0.664,0.609 L 0,0 z"
         inkscape:connector-curvature="0" />
    </g>
    <g
       transform="matrix(2.7580609,0,0,-3.3259778,10.416141,25.003932)"
       id="g30669">
      <path
         id="path30671"
         style="fill:#c8c9da;fill-opacity:1;fill-rule:nonzero;stroke:none"
         d="m 0,0 c -0.775,-0.945 -1.191,-2.193 -1.287,-3.48 2.838,1.854 2.482,-4.793 2.482,-4.793 0,0 1.821,-0.185 2.463,-0.215 0.188,-0.01 0.397,0.017 0.598,0.066 -0.008,0.092 0.002,0.184 0.041,0.272 0.086,-0.055 0.15,-0.123 0.203,-0.2 0.266,0.092 0.484,0.216 0.561,0.332 -0.108,0.166 -0.258,0.301 -0.432,0.409 -0.666,0.332 -1.744,0.44 -2.69,0.027 1.555,2.799 0.829,4.293 0.106,5.031 -0.092,0.092 -0.184,0.173 -0.27,0.242 -0.31,0.252 -0.562,0.362 -0.543,0.382 C 1.27,-1.928 1.305,-1.93 1.34,-1.934 l -0.082,0.067 c 0,0 0.797,0.276 1.658,0.276 0.857,0 2.316,-1.205 2.316,-1.205 0,0 0.063,0.192 0.645,0.959 0.334,0.442 1.027,0.845 1.557,1.108 C 7.541,-0.884 7.637,-1.048 7.719,-1.22 7.039,-1.871 6.25,-2.564 5.861,-3.423 5.225,-4.824 5.045,-6.682 5.889,-8.039 6.027,-8.288 5.654,-8.232 5.557,-8.371 c 0.027,0.374 -0.25,0.665 -0.528,0.887 -0.705,0.457 -1.716,0.5 -2.535,0.277 0.471,1.053 0.944,2.203 0.498,3.424 l -0.015,0.056 c 0,0.071 -0.032,0.146 -0.081,0.233 0.03,-0.078 0.055,-0.156 0.081,-0.233 l 0.015,-0.056 c 0.446,-1.221 -0.027,-2.371 -0.498,-3.424 0.819,0.223 1.83,0.18 2.535,-0.277 0.278,-0.222 0.555,-0.513 0.528,-0.887 0.097,0.139 0.47,0.083 0.332,0.332 -0.844,1.357 -0.664,3.215 -0.028,4.616 0.389,0.859 1.178,1.552 1.858,2.203 C 7.637,-1.048 7.541,-0.884 7.434,-0.729 6.908,0.027 6.113,0.584 5.32,0.998 3.922,1.622 1.898,1.635 0.664,0.609 L 0,0 z"
         inkscape:connector-curvature="0" />
    </g>
    <g
       transform="matrix(2.7580609,0,0,-3.3259778,32.89021,8.9620766)"
       id="g30673">
      <path
         id="path30675"
         style="fill:#c8c9da;fill-opacity:1;fill-rule:nonzero;stroke:none"
         d="m 0,0 c -0.375,-1.871 -0.125,-3.908 0.805,-5.419 -0.348,-0.457 -0.916,-0.693 -1.332,-1.123 -1.676,-1.357 -2.356,-3.562 -1.733,-5.6 0.139,-0.235 0.209,-0.512 0.405,-0.72 -0.196,1.04 0.566,2.093 1.496,2.661 0.22,0.097 0.72,0.347 1.093,0.291 -0.152,0.554 -0.152,1.289 0.139,1.761 0.361,0.375 0.777,0.693 1.289,0.541 0.791,-0.375 1.096,-1.235 1.041,-2.039 l -0.098,-0.221 0.499,-0.139 c -0.194,0.555 -0.098,1.22 0.167,1.692 0.346,0.416 0.969,0.484 1.497,0.332 0.541,-0.513 0.72,-1.401 0.525,-2.024 -0.125,-0.277 -0.373,-0.485 -0.637,-0.666 0.625,-0.596 1.387,-1.316 1.442,-2.23 0.707,1.634 0.111,3.631 -0.305,5.252 -0.125,0.293 -0.305,0.638 -0.264,0.901 0.25,0.166 0.596,0.097 0.86,0.235 1.746,0.652 2.369,2.467 2.398,4.187 C 9.273,-1.897 9.342,-1.44 9.148,-1.095 7.305,-1.386 5.586,-3.118 5.227,-4.947 5.143,-5.239 5.252,-5.53 5.268,-5.821 l 0.095,0 c 0.209,0.943 0.93,1.857 1.858,2.203 C 7.402,-3.7 7.512,-3.812 7.596,-3.991 7.596,-4.878 7,-5.517 6.529,-6.209 6.264,-6.431 5.988,-6.611 5.656,-6.653 5.488,-6.569 5.281,-6.403 5.268,-6.209 l 0,0.222 -0.235,-0.097 C 4.27,-5.696 3.438,-5.488 2.564,-5.351 L 2.496,-5.253 C 3.133,-2.952 2.316,-0.608 0.5,0.901 0.193,0.721 0.152,0.319 0,0"
         inkscape:connector-curvature="0" />
    </g>
    <g
       transform="matrix(2.7580609,0,0,-3.3259778,29.065331,47.129667)"
       id="g30677">
      <path
         id="path30679"
         style="fill:#ffffff;fill-opacity:1;fill-rule:nonzero;stroke:none"
         d="M 0,0 C -0.178,-0.416 -0.359,-0.888 -0.234,-1.387 0.666,-1.455 1.58,-2.205 1.857,-3.049 3.703,-3.41 6.293,-3.576 7.707,-1.886 8.025,-0.791 7.154,0.027 6.42,0.664 5.545,0.276 5.254,1.648 4.354,1.371 4.063,0.9 3.549,0.678 3.051,0.734 2.719,0.817 2.455,1.123 2.219,1.399 1.275,1.455 0.5,0.789 0,0"
         inkscape:connector-curvature="0" />
    </g>
    <g
       transform="matrix(2.7580609,0,0,-3.3259778,32.89021,8.9620766)"
       id="g30681">
      <path
         id="path30683"
         style="fill:#acb0ca;fill-opacity:1;fill-rule:nonzero;stroke:none"
         d="m 0,0 c -0.375,-1.871 -0.125,-3.908 0.805,-5.419 -0.348,-0.457 -0.916,-0.693 -1.332,-1.123 -1.676,-1.357 -2.356,-3.562 -1.733,-5.6 0.139,-0.235 0.209,-0.512 0.405,-0.72 -0.196,1.04 0.566,2.093 1.496,2.661 0.22,0.097 0.72,0.347 1.093,0.291 -0.152,0.554 -0.152,1.289 0.139,1.761 0.361,0.375 0.777,0.693 1.289,0.541 0.125,-0.06 0.238,-0.131 0.34,-0.213 0.412,1.125 0.932,2.036 1.068,2.269 -0.328,0.082 -0.664,0.148 -1.006,0.201 l -0.068,0.098 -0.67,0.044 c 0,0 -0.531,1.411 -0.775,2.954 -0.127,0.794 -0.1,1.848 -0.043,2.683 C 0.85,0.593 0.68,0.751 0.5,0.901 0.193,0.721 0.152,0.319 0,0 M 9.262,-1.438 C 9.242,-1.315 9.207,-1.2 9.148,-1.095 7.305,-1.386 5.586,-3.118 5.227,-4.947 5.143,-5.239 5.252,-5.53 5.268,-5.821 l 0.095,0 c 0.209,0.943 0.93,1.857 1.858,2.203 0.07,-0.031 0.131,-0.069 0.183,-0.111 0.676,1.189 1.323,1.884 1.858,2.291 M 5.291,-6.308 C 5.277,-6.274 5.27,-6.243 5.268,-6.209 l 0,0.222 -0.235,-0.097 -0.191,0.092 c 0.16,-0.105 0.316,-0.216 0.449,-0.316"
         inkscape:connector-curvature="0" />
    </g>
    <g
       transform="matrix(2.7580609,0,0,-3.3259778,29.065331,47.129667)"
       id="g30685">
      <path
         id="path30687"
         style="fill:#dce8eb;fill-opacity:1;fill-rule:nonzero;stroke:none"
         d="m 0,0 c -0.178,-0.416 -0.359,-0.888 -0.234,-1.387 0.9,-0.068 1.814,-0.818 2.091,-1.662 1.846,-0.361 4.436,-0.527 5.85,1.163 0.018,0.062 0.033,0.12 0.043,0.179 C 6.441,-2.111 4.994,-2.041 4.01,-0.947 3.592,-0.482 3.4,0.103 3.355,0.734 3.254,0.723 3.152,0.723 3.051,0.734 2.719,0.817 2.455,1.123 2.219,1.399 1.275,1.455 0.5,0.789 0,0"
         inkscape:connector-curvature="0" />
    </g>
    <g
       transform="matrix(2.7580609,0,0,-3.3259778,8.5792945,18.456066)"
       id="g30689">
      <path
         id="path30691"
         style="fill:#dce8eb;fill-opacity:1;fill-rule:nonzero;stroke:none"
         d="m 0,0 c -0.207,0.221 -0.402,0.553 -0.764,0.567 -0.082,-0.083 -0.22,-0.11 -0.261,-0.235 -0.112,-0.318 0.08,-0.723 0.068,-0.804 -0.291,0.027 -0.512,0 -0.805,-0.096 0,-0.348 0.448,-0.682 0.405,-0.694 -0.182,-0.097 -0.43,-0.083 -0.528,-0.263 0.014,-0.346 0.43,-0.555 0.721,-0.666 -0.041,-0.277 -0.389,-0.428 -0.166,-0.734 0.193,-0.36 0.65,-0.166 0.941,-0.138 0.43,1.163 1.567,2.079 2.662,2.591 0,0.236 0.139,0.499 0,0.707 C 2.148,0.401 1.871,0.318 1.703,0.305 1.498,0.166 1.275,0.014 1.137,-0.195 1.025,-0.195 0.916,0.305 0.9,0.43 0.762,0.553 0.609,0.651 0.443,0.692 0.223,0.498 0.291,0.11 0,0"
         inkscape:connector-curvature="0" />
    </g>
    <g
       transform="matrix(2.7580609,0,0,-3.3259778,35.184917,17.673132)"
       id="g30693">
      <path
         id="path30695"
         style="fill:#000000;fill-opacity:1;fill-rule:nonzero;stroke:none"
         d="M 0,0 C -0.195,-0.942 0,-2.079 0.609,-2.828 0.762,-2.966 0.998,-3.05 1.205,-2.966 1.775,-2.218 1.441,-1.247 1.109,-0.499 0.859,-0.208 0.402,0.665 0,0"
         inkscape:connector-curvature="0" />
    </g>
    <g
       transform="matrix(2.7580609,0,0,-3.3259778,35.567449,17.812823)"
       id="g30697">
      <path
         id="path30699"
         style="fill:#e7bbb0;fill-opacity:1;fill-rule:nonzero;stroke:none"
         d="m 0,0 c -0.07,-0.971 -0.139,-2.094 0.693,-2.786 0.235,-0.097 0.416,0.125 0.471,0.333 0.014,0.941 -0.014,1.996 -0.9,2.592 C 0.152,0.152 0.027,0.125 0,0"
         inkscape:connector-curvature="0" />
    </g>
    <g
       transform="matrix(2.7580609,0,0,-3.3259778,47.876123,29.752763)"
       id="g30701">
      <path
         id="path30703"
         style="fill:#e7bbb0;fill-opacity:1;fill-rule:nonzero;stroke:none"
         d="M 0,0 C 0.098,-0.152 0.305,-0.249 0.5,-0.166 1.33,0.416 1.871,1.33 1.955,2.328 1.648,2.551 1.33,2.203 1.053,2.037 0.43,1.496 0.139,0.763 0,0"
         inkscape:connector-curvature="0" />
    </g>
    <g
       transform="matrix(2.7580609,0,0,-3.3259778,39.618224,46.668341)"
       id="g30705">
      <path
         id="path30707"
         style="fill:#000000;fill-opacity:1;fill-rule:nonzero;stroke:none"
         d="m 0,0 c -0.027,-0.194 0.014,-0.43 0.221,-0.568 0.32,-0.181 0.638,-0.403 1.041,-0.264 0.236,0.056 0.5,0.25 0.568,0.498 0.027,0.195 0.014,0.347 -0.111,0.5 C 1.195,0.764 0.375,0.664 0,0"
         inkscape:connector-curvature="0" />
    </g>
    <g
       transform="matrix(2.7580609,0,0,-3.3259778,25.39711,54.736498)"
       id="g30709">
      <path
         id="path30711"
         style="fill:#acb0ca;fill-opacity:1;fill-rule:nonzero;stroke:none"
         d="M 0,0 C -0.125,-0.277 -0.402,-0.568 -0.236,-0.873 0.029,-1.207 0.445,-1.358 0.887,-1.33 0.998,-1.096 0.906,-0.287 0.666,0.027 1.027,-0.168 1.275,-0.568 1.262,-0.998 1.234,-1.137 1.166,-1.262 1.193,-1.428 1.484,-1.455 1.748,-1.525 2.053,-1.498 2.33,-1.053 2.01,-0.596 1.857,-0.209 2.121,-0.153 2.273,-0.514 2.426,-0.707 2.51,-0.957 2.398,-1.207 2.385,-1.469 2.537,-1.455 2.828,-1.51 2.924,-1.33 3.008,-0.596 2.426,-0.028 1.885,0.332 1.539,0.457 1.207,0.638 0.762,0.568 L 0,0 z"
         inkscape:connector-curvature="0" />
    </g>
    <g
       transform="matrix(2.7580609,0,0,-3.3259778,48.409532,56.717796)"
       id="g30713">
      <path
         id="path30715"
         style="fill:#acb0ca;fill-opacity:1;fill-rule:nonzero;stroke:none"
         d="m 0,0 -0.857,-0.402 c -0.098,-0.139 0.013,-0.291 0.054,-0.403 0.305,-0.304 0.887,-0.152 1.233,0 0.334,0.194 -0.235,0.596 0.236,0.639 0.125,-0.195 0.193,-0.472 0.07,-0.666 L 0.637,-0.943 c 0.361,-0.096 0.888,0.029 1.193,0.277 0.125,0.264 -0.402,0.61 0.068,0.693 0.223,-0.208 0.25,-0.568 0.237,-0.804 C 2.314,-0.791 2.398,-0.638 2.496,-0.5 2.592,-0.125 2.344,0.096 2.189,0.359 1.816,0.664 1.303,0.734 0.832,0.692 L 0,0 z"
         inkscape:connector-curvature="0" />
    </g>
    <g
       transform="matrix(2.7580609,0,0,-3.3259778,40.463845,47.240063)"
       id="g30717">
      <path
         id="path30719"
         style="fill:#e0a5a0;fill-opacity:1;fill-rule:nonzero;stroke:none"
         d="M 0,0 C 0,0.246 0.285,0.445 0.633,0.445 0.984,0.445 1.266,0.246 1.266,0 1.266,-0.246 0.984,-0.445 0.633,-0.445 0.285,-0.445 0,-0.246 0,0"
         inkscape:connector-curvature="0" />
    </g>
    <g
       transform="matrix(2.7580609,0,0,-3.3259778,42.241691,46.681299)"
       id="g30721">
      <path
         id="path30723"
         style="fill:#ffffff;fill-opacity:1;fill-rule:nonzero;stroke:none"
         d="M 0,0 C 0,0.137 0.119,0.246 0.266,0.246 0.412,0.246 0.529,0.137 0.529,0 0.529,-0.135 0.412,-0.244 0.266,-0.244 0.119,-0.244 0,-0.135 0,0"
         inkscape:connector-curvature="0" />
    </g>
    <g
       transform="matrix(2.7580609,0,0,-3.3259778,43.108825,40.185345)"
       id="g30725">
      <path
         id="path30727"
         style="fill:#ffffff;fill-opacity:1;fill-rule:nonzero;stroke:none"
         d="M 0,0 C 0,0.672 0.42,1.217 0.938,1.217 1.455,1.217 1.873,0.672 1.873,0 1.873,-0.672 1.455,-1.215 0.938,-1.215 0.42,-1.215 0,-0.672 0,0"
         inkscape:connector-curvature="0" />
    </g>
    <g
       transform="matrix(2.7580609,0,0,-3.3259778,35.281714,39.470605)"
       id="g30729">
      <path
         id="path30731"
         style="fill:#ffffff;fill-opacity:1;fill-rule:nonzero;stroke:none"
         d="M 0,0 C 0,0.74 0.461,1.339 1.031,1.339 1.6,1.339 2.063,0.74 2.063,0 2.063,-0.739 1.6,-1.338 1.031,-1.338 0.461,-1.338 0,-0.739 0,0"
         inkscape:connector-curvature="0" />
    </g>
    <g
       transform="matrix(2.7580609,0,0,-3.3259778,46.421808,36.300603)"
       id="g30733">
      <path
         id="path30735"
         style="fill:#dce8eb;fill-opacity:1;fill-rule:nonzero;stroke:none"
         d="m 0,0 c -0.084,0.031 -0.172,0.049 -0.264,0.049 -0.517,0 -0.937,-0.545 -0.937,-1.217 0,-0.672 0.42,-1.215 0.937,-1.215 0.092,0 0.18,0.017 0.264,0.049 -0.387,0.148 -0.67,0.615 -0.67,1.166 0,0.553 0.283,1.019 0.67,1.168"
         inkscape:connector-curvature="0" />
    </g>
    <g
       transform="matrix(2.7580609,0,0,-3.3259778,38.858654,35.163783)"
       id="g30737">
      <path
         id="path30739"
         style="fill:#dce8eb;fill-opacity:1;fill-rule:nonzero;stroke:none"
         d="m 0,0 c -0.086,0.029 -0.174,0.044 -0.266,0.044 -0.57,0 -1.031,-0.599 -1.031,-1.339 0,-0.739 0.461,-1.338 1.031,-1.338 0.092,0 0.18,0.015 0.266,0.043 -0.443,0.152 -0.768,0.675 -0.768,1.295 0,0.621 0.325,1.143 0.768,1.295"
         inkscape:connector-curvature="0" />
    </g>
    <g
       transform="matrix(2.7580609,0,0,-3.3259778,44.019272,42.325625)"
       id="g30741">
      <path
         id="path30743"
         style="fill:#000000;fill-opacity:1;fill-rule:nonzero;stroke:none"
         d="M 0,0 C 0,0.333 0.27,0.603 0.602,0.603 0.936,0.603 1.205,0.333 1.205,0 1.205,-0.334 0.936,-0.603 0.602,-0.603 0.27,-0.603 0,-0.334 0,0"
         inkscape:connector-curvature="0" />
    </g>
    <g
       transform="matrix(2.7580609,0,0,-3.3259778,36.380812,41.919855)"
       id="g30745">
      <path
         id="path30747"
         style="fill:#000000;fill-opacity:1;fill-rule:nonzero;stroke:none"
         d="M 0,0 C 0,0.35 0.283,0.633 0.633,0.633 0.982,0.633 1.266,0.35 1.266,0 1.266,-0.35 0.982,-0.633 0.633,-0.633 0.283,-0.633 0,-0.35 0,0"
         inkscape:connector-curvature="0" />
    </g>
    <g
       transform="matrix(2.7580609,0,0,-3.3259778,45.796832,41.718301)"
       id="g30749">
      <path
         id="path30751"
         style="fill:#ffffff;fill-opacity:1;fill-rule:nonzero;stroke:none"
         d="M 0,0 C 0,0.164 0.133,0.297 0.295,0.297 0.459,0.297 0.592,0.164 0.592,0 0.592,-0.162 0.459,-0.295 0.295,-0.295 0.133,-0.295 0,-0.162 0,0"
         inkscape:connector-curvature="0" />
    </g>
    <g
       transform="matrix(2.7580609,0,0,-3.3259778,38.158393,41.309206)"
       id="g30753">
      <path
         id="path30755"
         style="fill:#ffffff;fill-opacity:1;fill-rule:nonzero;stroke:none"
         d="M 0,0 C 0,0.18 0.145,0.326 0.326,0.326 0.506,0.326 0.652,0.18 0.652,0 0.652,-0.18 0.506,-0.326 0.326,-0.326 0.145,-0.326 0,-0.18 0,0"
         inkscape:connector-curvature="0" />
    </g>
    <g
       transform="matrix(2.7580609,0,0,-3.3259778,5.8319791,26.387539)"
       id="g30757">
      <path
         id="path30759"
         style="fill:#ffffff;fill-opacity:1;fill-rule:nonzero;stroke:none"
         d="M 0,0 C 0.014,-0.311 0.348,-0.51 0.627,-0.627 1.012,0.361 1.906,1.167 2.84,1.691 2.813,1.803 2.793,1.906 2.787,1.954 2.648,2.079 2.496,2.178 2.33,2.219 2.107,2.023 2.178,1.637 1.887,1.525 1.678,1.747 1.484,2.079 1.123,2.094 1.041,2.01 0.9,1.982 0.859,1.857 0.75,1.539 0.939,1.135 0.93,1.055 0.639,1.082 0.416,1.055 0.125,0.956 0.125,0.609 0.57,0.275 0.527,0.264 0.348,0.166 0.098,0.18 0,0"
         inkscape:connector-curvature="0" />
    </g>
    <g
       transform="matrix(2.7580609,0,0,-3.3259778,28.063603,55.43796)"
       id="g30761">
      <path
         id="path30763"
         style="fill:#c8c9da;fill-opacity:1;fill-rule:nonzero;stroke:none"
         d="M 0,0 C 0.135,-0.15 0.234,-0.338 0.273,-0.541 0.488,-0.726 0.814,-0.861 1.195,-0.916 1.197,-0.594 1.002,-0.277 0.891,0.002 1.154,0.058 1.307,-0.303 1.459,-0.496 1.508,-0.644 1.49,-0.791 1.463,-0.94 l 0.105,-0.002 c 0.137,0 0.27,0.009 0.397,0.03 C 1.93,-0.278 1.406,0.217 0.918,0.543 0.795,0.588 0.672,0.64 0.547,0.684 0.219,0.519 0.008,0.274 0,0 m 8.963,-1.203 c 0.09,0.043 0.174,0.095 0.244,0.152 0.125,0.264 -0.402,0.611 0.068,0.694 0.223,-0.208 0.25,-0.569 0.237,-0.805 0.179,-0.014 0.263,0.14 0.361,0.277 0.096,0.375 -0.152,0.596 -0.307,0.86 C 9.348,0.153 9.08,0.252 8.801,0.293 8.508,0.131 8.318,-0.127 8.318,-0.416 c 0,-0.34 0.26,-0.635 0.645,-0.787"
         inkscape:connector-curvature="0" />
    </g>
    <g
       transform="matrix(2.7580609,0,0,-3.3259778,36.553202,46.219999)"
       id="g30765">
      <path
         id="path30767"
         style="fill:#000000;fill-opacity:1;fill-rule:nonzero;stroke:none"
         d="M 0,0 0.023,-0.083 C -0.15,-0.051 -0.33,-0.137 -0.449,-0.17 0.496,-3.333 3.713,-1.632 3.594,-1.664 2.953,-2.23 0.418,-3.613 -0.926,-2.236 c -0.418,0.36 -0.506,0.899 -0.558,1.379 -0.118,-0.075 -0.405,-0.323 -0.407,-0.254 0.129,0.59 0.821,0.94 1.282,1.132 C -0.406,-0.018 -0.215,0.074 0,0"
         inkscape:connector-curvature="0" />
    </g>
    <g
       transform="matrix(2.7580609,0,0,-3.3259778,33.520438,47.95451)"
       id="g30769">
      <path
         id="path30771"
         style="fill:#dce8eb;fill-opacity:1;fill-rule:nonzero;stroke:none"
         d="M 0,0 C -0.041,-0.44 0.207,-0.906 0.527,-1.219 0.773,-1.437 1.439,-1.615 1.439,-1.615 0.832,-1.264 0.035,-0.766 0.182,0.086 L 0.387,0.242 C 0.523,-0.24 0.863,-0.717 1.201,-1.127 1.709,-1.474 2.316,-1.896 2.943,-1.836 2.105,-2.221 1.004,-2.205 0.291,-1.572 c -0.352,0.429 -0.543,0.959 -0.41,1.498 L 0,0 z"
         inkscape:connector-curvature="0" />
    </g>
    <g
       transform="matrix(2.7580609,0,0,-3.3259778,47.784577,50.76097)"
       id="g30773">
      <path
         id="path30775"
         style="fill:#000000;fill-opacity:1;fill-rule:nonzero;stroke:none"
         d="M 0,0 0.119,0.073 0,0 z"
         inkscape:connector-curvature="0" />
    </g>
    <g
       transform="matrix(2.7580609,0,0,-3.3259778,35.502645,54.13548)"
       id="g30777">
      <path
         id="path30779"
         style="fill:#ffffff;fill-opacity:1;fill-rule:nonzero;stroke:none"
         d="M 0,0 C 0.168,-0.084 0.346,-0.144 0.529,-0.183 0.58,-0.175 0.627,-0.157 0.67,-0.13 0.84,-0.024 0.9,0.211 0.855,0.481 0.727,0.563 0.602,0.649 0.482,0.731 0.273,0.983 0.064,1.263 -0.096,1.552 -0.189,1.56 -0.273,1.543 -0.346,1.498 -0.404,1.462 -0.449,1.411 -0.482,1.353 -0.285,0.845 0.27,0.504 0.721,0.243 c 0,0 -0.666,0.179 -0.912,0.397 -0.137,0.132 -0.26,0.295 -0.356,0.47 C -0.561,0.894 -0.49,0.625 -0.332,0.375 -0.236,0.221 -0.121,0.094 0,0"
         inkscape:connector-curvature="0" />
    </g>
  </g>
</svg>
