<?xml version="1.0" encoding="UTF-8" standalone="no"?>
<!-- Created with Inkscape (http://www.inkscape.org/) -->

<svg
   xmlns:dc="http://purl.org/dc/elements/1.1/"
   xmlns:cc="http://creativecommons.org/ns#"
   xmlns:rdf="http://www.w3.org/1999/02/22-rdf-syntax-ns#"
   xmlns:svg="http://www.w3.org/2000/svg"
   xmlns="http://www.w3.org/2000/svg"
   xmlns:sodipodi="http://sodipodi.sourceforge.net/DTD/sodipodi-0.dtd"
   xmlns:inkscape="http://www.inkscape.org/namespaces/inkscape"
   width="64px"
   height="64px"
   id="svg167807"
   version="1.1"
   inkscape:version="0.48.5 r10040"
   sodipodi:docname="Nowy dokument 10">
  <defs
     id="defs167809" />
  <sodipodi:namedview
     id="base"
     pagecolor="#ffffff"
     bordercolor="#666666"
     borderopacity="1.0"
     inkscape:pageopacity="0.0"
     inkscape:pageshadow="2"
     inkscape:zoom="5.5"
     inkscape:cx="32"
     inkscape:cy="32"
     inkscape:current-layer="layer1"
     showgrid="true"
     inkscape:document-units="px"
     inkscape:grid-bbox="true"
     inkscape:window-width="1366"
     inkscape:window-height="706"
     inkscape:window-x="-8"
     inkscape:window-y="-8"
     inkscape:window-maximized="1" />
  <metadata
     id="metadata167812">
    <rdf:RDF>
      <cc:Work
         rdf:about="">
        <dc:format>image/svg+xml</dc:format>
        <dc:type
           rdf:resource="http://purl.org/dc/dcmitype/StillImage" />
        <dc:title></dc:title>
      </cc:Work>
    </rdf:RDF>
  </metadata>
  <g
     id="layer1"
     inkscape:label="Layer 1"
     inkscape:groupmode="layer">
    <g
       transform="matrix(0.69703595,0,0,-0.69703595,28.58649,5.2029863)"
       id="g9553">
      <path
         id="path9555"
         style="fill:#000000;fill-opacity:1;fill-rule:nonzero;stroke:none"
         d="m 0,0 c 1.5,1.612 4.292,2.086 6.442,1.463 5.098,-1.628 6.686,-5.848 6.064,-6.359 -3.169,0.313 -6.253,0.652 -9.11,-0.536 4.017,-6.254 2.121,-14.345 1.357,-21.391 -0.085,-2.546 -0.452,-5.347 1.642,-7.073 5.036,0.254 9.053,3.339 14.316,3.253 3.934,0.057 7.978,-1.67 10.524,-5.347 1.33,0.029 2.688,0.283 3.396,1.557 -0.113,2.065 -2.519,2.801 -3.876,3.989 -1.386,0.821 -2.859,2.122 -3.254,3.677 -0.424,1.642 0.565,2.999 1.754,3.877 0.793,0.651 1.783,0.906 2.66,1.359 -1.472,2.206 -2.405,5.177 -1.019,7.724 0.707,0.65 0.566,1.641 0.679,2.517 -0.34,0.594 -0.651,1.273 -1.217,1.698 0,0.17 0.085,0.368 0.254,0.425 1.274,-0.086 2.293,-0.821 3.284,-1.584 1.244,0.226 2.489,-0.736 3.056,-1.755 1.696,-0.453 2.263,-2.348 2.432,-3.933 0.31,-2.15 -1.104,-4.018 -2.858,-5.092 -0.65,-0.283 -1.244,-0.679 -2.037,-0.623 -1.612,-0.651 -3.367,-1.783 -4.413,-3.395 -0.283,-1.613 1.386,-2.603 2.574,-3.311 2.236,-1.161 5.603,-3.027 5.32,-6.054 -0.483,-1.897 -2.407,-3.82 -4.301,-4.274 l -0.935,-0.084 c 0.369,-1.47 0.652,-3.254 0.538,-4.951 -0.084,-5.319 -2.432,-9.902 -4.554,-14.458 0,-1.132 1.244,-1.584 1.782,-2.433 l -0.142,-0.764 c -2.462,-2.886 -4.753,-5.829 -6.252,-9.082 0.509,-0.228 0.791,-0.594 1.018,-1.103 -0.112,-0.708 -0.396,-1.5 -1.16,-1.755 -0.877,-0.311 -0.028,-1.443 -0.481,-2.122 -0.226,-0.877 -1.019,-1.499 -1.754,-1.895 -1.443,-0.228 -3.14,-0.453 -4.555,-0.058 -0.877,0.51 -0.339,1.642 -0.397,2.378 0.255,1.754 0.85,3.678 2.718,4.47 l 1.555,0.622 c 1.16,1.981 2.122,4.047 2.575,6.31 0.114,2.433 -2.716,3.084 -4.13,4.215 -1.302,0.652 -2.49,1.584 -3.821,2.178 l -0.112,-0.281 c -0.765,0.084 -1.246,-0.425 -1.981,-0.34 -1.018,-3.169 -1.528,-6.48 -2.435,-9.79 0.285,-0.481 0.822,-0.849 0.596,-1.557 -0.396,-0.989 -2.01,-0.564 -2.038,-1.895 -0.282,-0.961 0.397,-2.376 -0.876,-2.858 -1.473,-0.594 -3.169,-0.594 -4.612,0 -0.34,1.161 -0.057,2.406 0.537,3.339 1.075,1.075 2.263,2.18 3.734,2.519 0.397,3.055 0.17,6.479 0.341,9.619 -1.444,0.057 -2.718,-0.084 -4.217,-0.113 -0.226,-1.698 -0.622,-3.479 -0.933,-5.235 -0.652,-2.517 -0.906,-5.177 -1.244,-7.808 0.396,-0.623 0.962,-1.33 0.565,-2.122 -0.537,-0.396 -1.047,-0.764 -1.698,-0.793 -0.282,-0.763 -0.028,-2.206 -0.282,-3.197 -0.679,-0.763 -1.812,-0.707 -2.773,-0.877 -1.33,-0.055 -2.688,0.255 -3.82,0.877 -0.226,0.906 0.34,1.981 0.821,2.859 0.849,1.159 1.923,1.952 3.111,2.574 -0.085,4.413 0.312,9.931 0.085,14.656 -0.367,0.226 -0.933,0.452 -1.102,0.085 -0.368,-1.924 -1.359,-3.594 -2.038,-5.378 -0.395,-0.536 -0.933,-0.366 -1.471,-0.394 -1.754,0.34 -3.282,1.188 -5.093,1.358 -0.141,-0.283 0.198,-0.509 0.34,-0.763 0.367,0.254 0.904,0.254 1.358,0.084 0.481,-0.453 0.481,-1.274 0.253,-1.839 0.793,-0.453 2.067,-0.114 2.52,-1.103 -0.085,-1.953 -1.755,-3.226 -3.198,-4.33 -0.622,-0.225 -1.499,-0.452 -2.093,-0.085 -3.367,2.717 -4.47,7.385 -3.198,11.63 l 0.397,0.339 c 2.263,-0.368 4.328,-0.623 6.535,-1.105 0.028,1.049 -0.594,1.953 -0.763,3 -0.651,2.01 -0.737,4.301 -2.237,5.97 -1.669,3.084 -1.526,7.413 -0.338,10.667 0.113,0.904 0.566,1.754 0.679,2.575 -4.387,-2.236 -10.3,-1.84 -14.118,1.301 -3.368,2.716 -5.489,6.876 -4.131,11.006 2.122,3.99 7.072,2.575 9.704,6.112 0.397,0.509 0.934,1.188 1.019,1.81 -0.568,0.43 -1.275,3.163 1.075,4.358 0.395,1.895 1.726,3.592 3.338,4.809 -2.771,1.854 -7.723,2.49 -8.149,2.517 -2.376,0.341 -3.253,2.944 -3.876,4.84 -0.14,0.764 2.869,2.785 9.027,2.094 3.236,-1.672 4.498,-6.763 4.838,-8.488 l 1.074,0.055 c -0.084,1.048 -1.323,5.748 -3.337,8.29 1.271,1.359 3.31,1.784 5.092,2.321 C -6.14,2.971 -2.914,1.754 0,0"
         inkscape:connector-curvature="0" />
    </g>
    <g
       transform="matrix(0.69703595,0,0,-0.69703595,22.334969,22.775191)"
       id="g9557">
      <path
         id="path9559"
         style="fill:#707072;fill-opacity:1;fill-rule:nonzero;stroke:none"
         d="m 0,0 c 1.019,-1.499 1.132,-3.396 1.217,-5.291 -0.34,-2.744 -1.812,-5.885 -4.754,-6.733 -3.989,-1.613 -8.912,-0.708 -12.278,1.838 -2.576,1.584 -3.623,4.358 -4.217,7.074 -0.084,1.896 0.425,3.961 2.32,4.895 C -14.95,3.708 -4.297,4.813 0,0"
         inkscape:connector-curvature="0" />
    </g>
    <g
       transform="matrix(0.69703595,0,0,-0.69703595,8.3615729,24.352372)"
       id="g9561">
      <path
         id="path9563"
         style="fill:#9b9c9d;fill-opacity:1;fill-rule:nonzero;stroke:none"
         d="m 0,0 c 0,2.892 3.078,5.234 6.877,5.234 3.799,0 6.878,-2.342 6.878,-5.234 0,-2.892 -3.079,-5.235 -6.878,-5.235 C 3.078,-5.235 0,-2.892 0,0"
         inkscape:connector-curvature="0" />
    </g>
    <g
       transform="matrix(0.69703595,0,0,-0.69703595,21.999332,10.03456)"
       id="g9565">
      <path
         id="path9567"
         style="fill:#58595a;fill-opacity:1;fill-rule:nonzero;stroke:none"
         d="m 0,0 -0.933,0 c -0.906,2.716 -1.443,5.573 -3.142,7.949 l 0,0.199 c 1.133,0.736 2.406,1.076 3.679,1.499 0,0 1.89,-5.153 0.396,-9.647"
         inkscape:connector-curvature="0" />
    </g>
    <g
       transform="matrix(0.69703595,0,0,-0.69703595,25.549197,4.3160047)"
       id="g9569">
      <path
         id="path9571"
         style="fill:#ffffff;fill-opacity:1;fill-rule:nonzero;stroke:none"
         d="m 0,0 c 0.198,-3.169 -0.934,-6.28 -2.234,-9.082 l -0.737,0.396 c 0.764,2.97 1.867,6.14 1.217,9.366 L 0,0 z"
         inkscape:connector-curvature="0" />
    </g>
    <g
       transform="matrix(0.69703595,0,0,-0.69703595,16.950562,4.9667582)"
       id="g9573">
      <path
         id="path9575"
         style="fill:#dce8eb;fill-opacity:1;fill-rule:nonzero;stroke:none"
         d="m 0,0 c 1.727,-1.895 2.943,-3.989 3.452,-6.394 -0.17,-0.283 -0.339,-0.453 -0.623,-0.623 -0.82,2.349 -2.376,4.867 -4.951,5.659 -2.648,0.67 -3.169,-1.528 -2.914,-2.178 1.67,-1.839 4.471,-1.302 6.111,-3.198 -2.037,1.217 -4.639,1.076 -6.93,1.641 -1.784,0.708 -2.321,2.66 -2.718,4.329 C -3.849,1.677 0,0 0,0"
         inkscape:connector-curvature="0" />
    </g>
    <g
       transform="matrix(0.69703595,0,0,-0.69703595,28.113397,5.5977872)"
       id="g9577">
      <path
         id="path9579"
         style="fill:#ffffff;fill-opacity:1;fill-rule:nonzero;stroke:none"
         d="M 0,0 C -0.425,-0.425 -0.99,-0.934 -1.415,-1.415 L -0.736,0.481 0,0 z"
         inkscape:connector-curvature="0" />
    </g>
    <g
       transform="matrix(0.69703595,0,0,-0.69703595,17.60204,7.8066217)"
       id="g9581">
      <path
         id="path9583"
         style="fill:#edccb8;fill-opacity:1;fill-rule:nonzero;stroke:none"
         d="m 0,0 c 0.564,-0.99 1.328,-1.867 1.556,-2.999 -0.851,0.084 -1.33,1.103 -2.151,1.499 -1.471,1.189 -3.565,0.821 -4.979,2.094 -0.227,0.283 -0.169,0.764 0,1.019 0.65,0.737 1.64,0.876 2.602,0.679 C -1.926,1.669 -0.651,1.132 0,0"
         inkscape:connector-curvature="0" />
    </g>
    <g
       transform="matrix(0.69703595,0,0,-0.69703595,32.648871,7.0177166)"
       id="g9585">
      <path
         id="path9587"
         style="fill:#f3dcca;fill-opacity:1;fill-rule:nonzero;stroke:none"
         d="M 0,0 C -0.453,-1.811 -2.519,-1.811 -3.791,-2.632 -5.573,-3.678 -7.555,-4.725 -8.884,-6.45 l -0.481,0 c 0.538,1.216 3.319,7.352 7.131,7.469 C -1.471,0.934 -0.565,0.821 0,0"
         inkscape:connector-curvature="0" />
    </g>
    <g
       transform="matrix(0.69703595,0,0,-0.69703595,30.992769,10.094506)"
       id="g9589">
      <path
         id="path9591"
         style="fill:#ffffff;fill-opacity:1;fill-rule:nonzero;stroke:none"
         d="m 0,0 c -1.16,-1.669 -2.631,-3.479 -3.934,-5.205 -0.14,0.706 -0.763,1.357 -0.819,2.036 1.074,1.557 1.866,4.16 4.073,4.329 L 0,0 z"
         inkscape:connector-curvature="0" />
    </g>
    <g
       transform="matrix(0.69703595,0,0,-0.69703595,23.044886,11.928269)"
       id="g9593">
      <path
         id="path9595"
         style="fill:#000000;fill-opacity:1;fill-rule:nonzero;stroke:none"
         d="M 0,0 C 1.131,-1.074 0.922,-4.555 0.639,-4.639 0.017,-3.056 -0.934,-0.905 -3.056,-0.622 -3.734,-0.594 -4.301,-1.048 -4.81,-1.159 -3.622,0.085 -1.698,1.273 0,0"
         inkscape:connector-curvature="0" />
    </g>
    <g
       transform="matrix(0.69703595,0,0,-0.69703595,32.096819,14.393752)"
       id="g9597">
      <path
         id="path9599"
         style="fill:#ffffff;fill-opacity:1;fill-rule:nonzero;stroke:none"
         d="m 0,0 c -1.472,-1.132 -3.112,-1.839 -4.413,-3.111 l -0.228,0 c -0.14,1.245 -0.169,2.546 -0.735,3.649 L -0.481,3.34 C -0.34,2.235 0.028,1.02 0,0"
         inkscape:connector-curvature="0" />
    </g>
    <g
       transform="matrix(0.69703595,0,0,-0.69703595,53.100519,14.72868)"
       id="g9601">
      <path
         id="path9603"
         style="fill:#868688;fill-opacity:1;fill-rule:nonzero;stroke:none"
         d="M 0,0 C 0.311,0.113 0.226,0.509 0.339,0.764 0.226,1.132 0.311,1.556 -0.057,1.839 1.441,1.217 1.244,-0.906 1.441,-2.433 2.009,-2.376 1.98,0.283 1.98,0.283 3.367,-0.848 3.508,-2.857 3.395,-4.414 2.914,-5.941 1.499,-7.3 -0.057,-7.667 c -0.905,-0.085 -1.924,-0.143 -2.518,0.056 -1.301,1.952 -2.603,4.895 -1.075,7.215 0.877,0.849 0.736,2.206 0.736,3.311 L -3.113,3.197 C -1.953,2.462 -0.255,1.528 0,0"
         inkscape:connector-curvature="0" />
    </g>
    <g
       transform="matrix(0.69703595,0,0,-0.69703595,31.998118,18.69307)"
       id="g9605">
      <path
         id="path9607"
         style="fill:#ffffff;fill-opacity:1;fill-rule:nonzero;stroke:none"
         d="m 0,0 c -1.442,-0.933 -2.83,-1.951 -4.271,-2.801 -0.114,0.652 -0.114,1.754 0,2.321 1.47,1.075 3.026,1.952 4.525,3.055 L 0,0 z"
         inkscape:connector-curvature="0" />
    </g>
    <g
       transform="matrix(0.69703595,0,0,-0.69703595,31.563837,21.769859)"
       id="g9609">
      <path
         id="path9611"
         style="fill:#ffffff;fill-opacity:1;fill-rule:nonzero;stroke:none"
         d="m 0,0 c -1.16,-0.48 -2.403,-0.735 -3.593,-1.159 l -0.055,2.377 c 1.3,0.255 2.659,0.595 3.931,0.735 L 0,0 z"
         inkscape:connector-curvature="0" />
    </g>
    <g
       transform="matrix(0.69703595,0,0,-0.69703595,50.59554,21.216413)"
       id="g9613">
      <path
         id="path9615"
         style="fill:#dce8eb;fill-opacity:1;fill-rule:nonzero;stroke:none"
         d="m 0,0 c -0.453,-0.596 -1.329,-1.02 -1.754,-1.613 l -0.679,0.735 C -1.867,-0.283 -1.132,0 -0.481,0.424 -0.256,0.424 -0.084,0.169 0,0"
         inkscape:connector-curvature="0" />
    </g>
    <g
       transform="matrix(0.69703595,0,0,-0.69703595,16.181368,22.340938)"
       id="g9617">
      <path
         id="path9619"
         style="fill:#000000;fill-opacity:1;fill-rule:nonzero;stroke:none"
         d="M 0,0 C 0.255,-0.962 -0.113,-1.812 -0.537,-2.575 -0.989,-3.027 -1.442,-3.084 -2.036,-2.914 -3.481,-1.303 -2.489,0.283 -1.612,0.819 -0.961,1.245 -0.142,0.65 0,0"
         inkscape:connector-curvature="0" />
    </g>
    <g
       transform="matrix(0.69703595,0,0,-0.69703595,16.043244,22.716015)"
       id="g9621">
      <path
         id="path9623"
         style="fill:#e7bbb0;fill-opacity:1;fill-rule:nonzero;stroke:none"
         d="m 0,0 c -0.113,-0.82 -0.197,-1.839 -1.159,-2.122 -0.652,-0.254 -0.821,0.538 -1.019,0.877 -0.057,0.594 0.028,1.443 0.481,1.981 0.312,0.141 0.622,0.537 0.962,0.481 C -0.197,1.048 -0.169,0.424 0,0"
         inkscape:connector-curvature="0" />
    </g>
    <g
       transform="matrix(0.69703595,0,0,-0.69703595,12.020287,22.716015)"
       id="g9625">
      <path
         id="path9627"
         style="fill:#000000;fill-opacity:1;fill-rule:nonzero;stroke:none"
         d="M 0,0 C 0.084,-0.933 -0.028,-1.669 -0.82,-2.178 -1.217,-2.376 -1.67,-2.433 -1.98,-2.122 -2.977,0.246 -1.165,2.427 0,0"
         inkscape:connector-curvature="0" />
    </g>
    <g
       transform="matrix(0.69703595,0,0,-0.69703595,11.743926,22.577791)"
       id="g9629">
      <path
         id="path9631"
         style="fill:#e7bbb0;fill-opacity:1;fill-rule:nonzero;stroke:none"
         d="M 0,0 C 0.17,-0.51 0.057,-0.962 0,-1.499 -0.254,-2.009 -0.82,-2.206 -1.301,-2.122 -2.029,-0.78 -0.676,1.521 0,0"
         inkscape:connector-curvature="0" />
    </g>
    <g
       transform="matrix(0.69703595,0,0,-0.69703595,21.111755,23.189091)"
       id="g9633">
      <path
         id="path9635"
         style="fill:#000000;fill-opacity:1;fill-rule:nonzero;stroke:none"
         d="m 0,0 c -0.735,-0.142 -1.387,0.367 -2.036,0 5.173,-8.93 -1.613,-10.44 -2.463,-10.525 0.368,0.453 1.048,0.17 1.358,0.736 -0.169,0.594 -0.905,0.961 -1.358,1.414 -4.491,-2.458 -7.016,0.227 -7.724,0.34 0,0 5.136,-2.798 8.545,1.442 1.301,1.698 2.122,4.159 0.876,6.168 -0.594,0.029 -1.131,-1.612 -1.469,-0.538 0.31,0.821 1.245,1.303 2.036,1.642 C -1.387,0.735 -0.565,0.537 0,0"
         inkscape:connector-curvature="0" />
    </g>
    <g
       transform="matrix(0.69703595,0,0,-0.69703595,49.076893,23.189091)"
       id="g9637">
      <path
         id="path9639"
         style="fill:#dce8eb;fill-opacity:1;fill-rule:nonzero;stroke:none"
         d="m 0,0 -0.057,-0.963 c -0.508,0.113 -1.245,-0.593 -1.215,0.341 l 0.055,1.159 C -0.792,0.425 -0.142,0.51 0,0"
         inkscape:connector-curvature="0" />
    </g>
    <g
       transform="matrix(0.69703595,0,0,-0.69703595,31.386901,23.62272)"
       id="g9641">
      <path
         id="path9643"
         style="fill:#ffffff;fill-opacity:1;fill-rule:nonzero;stroke:none"
         d="m 0,0 c 0.227,-1.33 -1.414,-1.528 -2.179,-2.18 -0.255,-0.196 -0.763,-0.225 -0.763,-0.593 l 0.141,-0.142 2.659,0.735 c 0.708,-1.527 -1.499,-1.47 -2.235,-2.177 l -0.141,0 C -2.914,-3.282 -3.17,-2.15 -3.283,-0.962 -2.149,-0.736 -1.217,-0.028 0,0"
         inkscape:connector-curvature="0" />
    </g>
    <g
       transform="matrix(0.69703595,0,0,-0.69703595,49.846086,24.90443)"
       id="g9645">
      <path
         id="path9647"
         style="fill:#dce8eb;fill-opacity:1;fill-rule:nonzero;stroke:none"
         d="M 0,0 C 0.594,-0.99 3.027,-1.02 2.037,-2.519 0.849,-1.613 -0.566,-1.048 -1.499,0.141 -1.188,0.594 -0.254,0.792 0,0"
         inkscape:connector-curvature="0" />
    </g>
    <g
       transform="matrix(0.69703595,0,0,-0.69703595,19.158771,29.736701)"
       id="g9649">
      <path
         id="path9651"
         style="fill:#ffffff;fill-opacity:1;fill-rule:nonzero;stroke:none"
         d="M 0,0 -1.271,1.16 C 0.284,2.801 1.472,4.726 1.359,7.13 3.729,1.845 0.397,0.538 0,0"
         inkscape:connector-curvature="0" />
    </g>
    <g
       transform="matrix(0.69703595,0,0,-0.69703595,53.5348,27.310737)"
       id="g9653">
      <path
         id="path9655"
         style="fill:#dce8eb;fill-opacity:1;fill-rule:nonzero;stroke:none"
         d="m 0,0 0.056,0.057 0,-0.255 c -0.481,0.113 -0.793,-0.34 -1.076,-0.567 l -1.5,1.105 0.962,0.679 C -0.992,0.819 -0.425,0.565 0,0"
         inkscape:connector-curvature="0" />
    </g>
    <g
       transform="matrix(0.69703595,0,0,-0.69703595,31.426325,26.798834)"
       id="g9657">
      <path
         id="path9659"
         style="fill:#ffffff;fill-opacity:1;fill-rule:nonzero;stroke:none"
         d="M 0,0 C -0.169,-0.904 1.019,-1.866 -0.057,-2.517 -0.65,-2.263 -1.16,-1.866 -1.641,-1.356 -1.16,-0.848 -0.65,-0.366 0,0"
         inkscape:connector-curvature="0" />
    </g>
    <g
       transform="matrix(0.69703595,0,0,-0.69703595,54.480929,28.789848)"
       id="g9661">
      <path
         id="path9663"
         style="fill:#dce8eb;fill-opacity:1;fill-rule:nonzero;stroke:none"
         d="m 0,0 c 0.396,-0.877 -0.143,-1.727 -0.623,-2.434 -0.113,0.622 -0.792,1.217 -1.273,1.641 0.056,0.68 0.284,1.217 1.017,1.415 C -0.481,0.65 -0.171,0.367 0,0"
         inkscape:connector-curvature="0" />
    </g>
    <g
       transform="matrix(0.69703595,0,0,-0.69703595,52.961614,31.531707)"
       id="g9665">
      <path
         id="path9667"
         style="fill:#dce8eb;fill-opacity:1;fill-rule:nonzero;stroke:none"
         d="m 0,0 c -0.367,-0.48 -1.047,-0.48 -1.498,-0.141 -0.566,0.255 -0.623,0.933 -0.481,1.444 l 1.301,0.593 C -0.339,1.33 0.029,0.765 0,0"
         inkscape:connector-curvature="0" />
    </g>
    <g
       transform="matrix(0.69703595,0,0,-0.69703595,36.967929,44.173704)"
       id="g9669">
      <path
         id="path9671"
         style="fill:#dce8eb;fill-opacity:1;fill-rule:nonzero;stroke:none"
         d="M 0,0 C -0.51,-0.763 -1.104,-1.696 -1.896,-2.148 L -4.95,-2.375 c 1.781,1.442 3.111,3.565 3.931,5.658 C -0.878,2.179 1.16,1.217 0,0"
         inkscape:connector-curvature="0" />
    </g>
    <g
       transform="matrix(0.69703595,0,0,-0.69703595,25.647898,45.631697)"
       id="g9673">
      <path
         id="path9675"
         style="fill:#dce8eb;fill-opacity:1;fill-rule:nonzero;stroke:none"
         d="m 0,0 0.283,-0.877 c -1.556,-0.368 -3.225,0.452 -4.272,1.611 -0.142,0.227 -0.115,0.595 0.113,0.68 C -2.574,2.575 -0.51,1.47 0,0"
         inkscape:connector-curvature="0" />
    </g>
    <g
       transform="matrix(0.69703595,0,0,-0.69703595,38.900447,45.119867)"
       id="g9677">
      <path
         id="path9679"
         style="fill:#dce8eb;fill-opacity:1;fill-rule:nonzero;stroke:none"
         d="m 0,0 c -0.65,-0.281 -1.81,-0.536 -2.716,-0.536 0.566,0.31 1.245,0.877 1.642,1.499 L 0,0 z"
         inkscape:connector-curvature="0" />
    </g>
    <g
       transform="matrix(0.69703595,0,0,-0.69703595,21.052478,46.914171)"
       id="g9681">
      <path
         id="path9683"
         style="fill:#dce8eb;fill-opacity:1;fill-rule:nonzero;stroke:none"
         d="m 0,0 c -0.085,-0.595 -0.396,-1.357 -0.056,-1.896 -0.31,0.029 -0.878,-0.028 -1.216,-0.283 -0.142,-0.509 0.084,-1.075 0.48,-1.47 0.34,-0.68 1.105,-0.115 1.612,-0.34 C 1.303,-4.696 -0.056,-5.037 0.622,-5.63 1.443,-6.026 2.405,-6.111 3.282,-6.452 3.226,-6.705 3.141,-7.328 2.717,-7.044 1.896,-6.904 0.877,-7.018 0.085,-7.271 -0.734,-7.611 -1.5,-8.007 -2.15,-8.629 c -0.821,0.536 -0.962,1.556 -1.443,2.319 -0.878,2.207 -0.652,4.528 -0.199,6.848 L 0,0 z"
         inkscape:connector-curvature="0" />
    </g>
    <g
       transform="matrix(0.69703595,0,0,-0.69703595,37.066629,47.288552)"
       id="g9685">
      <path
         id="path9687"
         style="fill:#dce8eb;fill-opacity:1;fill-rule:nonzero;stroke:none"
         d="m 0,0 c 0.141,-0.708 -0.283,-1.132 -0.424,-1.698 -0.736,-0.283 -1.443,-0.538 -2.18,-0.056 -0.084,0.509 -0.084,1.301 0,1.895 0.482,0.338 1.077,0.623 1.699,0.396 C -0.593,0.367 -0.227,0.367 0,0"
         inkscape:connector-curvature="0" />
    </g>
    <g
       transform="matrix(0.69703595,0,0,-0.69703595,22.630346,48.511085)"
       id="g9689">
      <path
         id="path9691"
         style="fill:#dce8eb;fill-opacity:1;fill-rule:nonzero;stroke:none"
         d="m 0,0 0.198,-0.228 c -0.425,0.03 -0.905,0.255 -1.217,0.68 -0.283,0.51 -0.112,1.244 0.058,1.642 C 0.284,2.121 -0.849,0.565 0,0"
         inkscape:connector-curvature="0" />
    </g>
    <g
       transform="matrix(0.69703595,0,0,-0.69703595,25.510386,47.525404)"
       id="g9693">
      <path
         id="path9695"
         style="fill:#dce8eb;fill-opacity:1;fill-rule:nonzero;stroke:none"
         d="m 0,0 c -0.34,-0.736 -0.425,-1.584 -0.962,-2.235 -1.048,0.424 -1.981,1.584 -2.037,2.631 l 0.084,0.141 C -2.066,-0.142 -0.851,-0.142 0,0"
         inkscape:connector-curvature="0" />
    </g>
    <g
       transform="matrix(0.69703595,0,0,-0.69703595,36.494836,49.89226)"
       id="g9697">
      <path
         id="path9699"
         style="fill:#dce8eb;fill-opacity:1;fill-rule:nonzero;stroke:none"
         d="M 0,0 C -0.085,-0.283 -0.114,-0.565 -0.142,-0.877 -0.623,-1.103 -1.33,-1.047 -1.84,-0.963 L -1.896,0.283 C -1.33,0.028 -0.679,-0.028 0,0"
         inkscape:connector-curvature="0" />
    </g>
    <g
       transform="matrix(0.69703595,0,0,-0.69703595,36.060555,51.6872)"
       id="g9701">
      <path
         id="path9703"
         style="fill:#dce8eb;fill-opacity:1;fill-rule:nonzero;stroke:none"
         d="m 0,0 c -0.198,-0.792 -0.594,-1.951 0.283,-2.574 -0.367,-0.765 -1.669,-0.651 -1.839,-1.697 -0.452,-0.764 0.084,-1.953 -0.481,-2.661 -0.707,1.077 -1.867,1.811 -2.914,2.433 0.764,1.16 2.207,1.613 3.452,2.266 L -1.357,0.058 0,0 z"
         inkscape:connector-curvature="0" />
    </g>
    <g
       transform="matrix(0.69703595,0,0,-0.69703595,23.044886,52.160348)"
       id="g9705">
      <path
         id="path9707"
         style="fill:#414042;fill-opacity:1;fill-rule:nonzero;stroke:none"
         d="M 0,0 C -0.65,-1.216 -1.924,-2.461 -3.311,-2.574 -3.933,-2.433 -4.442,-2.037 -4.81,-1.5 -3.708,-0.085 -1.613,0.313 0,0"
         inkscape:connector-curvature="0" />
    </g>
    <g
       transform="matrix(0.69703595,0,0,-0.69703595,34.265549,56.656994)"
       id="g9709">
      <path
         id="path9711"
         style="fill:#414042;fill-opacity:1;fill-rule:nonzero;stroke:none"
         d="M 0,0 C -0.962,-0.537 -2.233,-0.424 -3.253,-0.085 -3.593,0.709 -3.31,1.755 -2.716,2.292 -1.725,1.783 -0.707,0.991 0,0"
         inkscape:connector-curvature="0" />
    </g>
    <g
       transform="matrix(0.69703595,0,0,-0.69703595,43.693267,58.884933)"
       id="g9713">
      <path
         id="path9715"
         style="fill:#9b9c9d;fill-opacity:1;fill-rule:nonzero;stroke:none"
         d="m 0,0 c -1.302,-0.312 -2.943,-0.566 -4.216,-0.058 0.112,1.02 0,2.037 0.339,3.058 C -2.321,2.688 -0.566,1.642 0,0"
         inkscape:connector-curvature="0" />
    </g>
    <g
       transform="matrix(0.69703595,0,0,-0.69703595,27.77776,59.023152)"
       id="g9717">
      <path
         id="path9719"
         style="fill:#9b9c9d;fill-opacity:1;fill-rule:nonzero;stroke:none"
         d="M 0,0 0.085,0.057 0.623,-0.962 C -0.82,-1.443 -2.405,-1.131 -3.65,-0.537 -3.593,0.311 -3.225,1.188 -2.575,1.896 -1.555,1.499 -0.764,0.849 0,0"
         inkscape:connector-curvature="0" />
    </g>
    <g
       transform="matrix(0.69703595,0,0,-0.69703595,18.361697,29.009062)"
       id="g9721">
      <path
         id="path9723"
         style="fill:#dce8eb;fill-opacity:1;fill-rule:nonzero;stroke:none"
         d="M 0,0 -0.128,0.116 C 1.428,1.757 2.615,3.682 2.503,6.086 4.131,2.455 3.067,0.701 2.115,-0.215 2.504,0.619 2.752,1.769 2.721,3.365 2.173,1.887 1.192,0.816 0,0"
         inkscape:connector-curvature="0" />
    </g>
    <g
       transform="matrix(0.69703595,0,0,-0.69703595,36.829748,8.0040223)"
       id="g9725">
      <path
         id="path9727"
         style="fill:#ffffff;fill-opacity:1;fill-rule:evenodd;stroke:none"
         d="m 0,0 c -2.179,0.283 -4.498,0.058 -6.678,-0.057 0.623,0.143 0.85,0.822 1.16,1.275 -0.084,0.932 -1.102,1.329 -1.838,1.554 -3.084,0.51 -5.235,-2.347 -6.79,-4.611 -0.822,-1.16 -1.274,-2.462 -1.811,-3.734 0.255,-0.227 0.51,0.226 0.934,0.085 0.367,-2.774 0.198,-5.63 -1.699,-7.611 -0.169,0.056 -0.196,0.423 -0.479,0.397 0.026,-0.878 0.254,-1.953 0.084,-2.915 -2.631,-0.142 -4.98,-0.905 -6.988,-2.574 -1.585,0.423 -3.226,0.82 -4.838,0.932 -0.142,1.19 -1.669,2.265 -0.935,3.396 0.793,-0.482 1.698,-0.254 2.434,0.226 0.848,0.736 1.187,1.867 1.017,2.829 -0.169,0.934 -0.819,1.641 -1.639,2.122 l -0.538,0.057 c 0.169,0.622 0.453,1.273 0.961,1.697 0.567,0 1.02,-0.254 1.557,-0.395 0.141,0.424 -0.057,0.848 -0.282,1.217 l -0.453,0.395 c 1.272,1.302 2.999,2.349 5.007,1.982 1.668,0.225 3,-0.878 4.555,-1.162 0.736,0.594 0.68,1.641 1.217,2.377 1.472,2.716 3.734,5.716 6.593,7.272 C -6.31,5.547 -1.546,3.854 0,0 m -13.326,-16.099 c -0.934,-1.075 -2.066,-1.669 -3.253,-2.177 0.196,0.819 0.169,3.112 0.283,3.479 2.093,1.754 3.169,4.159 3.055,6.848 0.991,-2.462 1.98,-5.858 -0.085,-8.15 m -16.976,-0.877 c -0.623,-0.368 -1.755,0.114 -2.632,-0.14 l 1.699,1.357 c 0.367,-0.368 0.707,-0.708 0.933,-1.217 m 12.987,-0.735 c -0.141,-0.565 -0.311,-1.075 -0.339,-1.641 -1.047,0.226 -2.321,0.453 -3.34,0.056 -0.791,0.397 -1.527,0.906 -2.375,1.105 1.754,0.792 4.215,1.385 6.054,0.48 m 4.612,-4.357 c -1.755,-1.161 -3.651,-2.037 -5.773,-2.037 0.68,1.188 1.105,2.49 1.5,3.792 1.868,0.338 3.706,1.102 4.952,2.715 -0.205,-0.436 0.708,-3.34 -0.679,-4.47 m -5.519,0.877 c 0.03,-0.848 -0.508,-1.444 -0.791,-2.178 -0.34,1.046 -0.678,2.094 -1.301,2.999 0.82,0.027 1.5,-0.313 2.092,-0.821 m 7.019,-5.574 c -2.689,-2.631 -5.998,-3.707 -9.31,-4.809 l -0.141,0 c 1.076,1.386 1.5,3.054 1.84,4.753 2.575,-0.03 5.036,0.707 7.044,2.234 l 0.567,-2.178 z m 28.576,-4.131 c -4.669,1.359 -8.318,-1.754 -11.885,-4.017 -0.847,-0.567 -1.329,-1.273 -2.092,-1.896 0.169,0.678 1.075,1.018 1.613,1.896 -0.397,2.15 0.368,4.216 0.877,6.054 5.339,2.442 10.184,-0.706 11.487,-2.037 m -25.946,0.736 c -3.706,-5.15 -9.053,-8.658 -14.995,-9.225 -0.056,1.275 0.878,3.877 0.933,4.075 4.924,0.369 9.167,3.028 12.507,6.508 l 1.555,-1.358 z m 11.289,0.68 c 0.311,-1.982 0.369,-4.274 1.019,-6.227 l -1.357,-1.64 c -1.161,1.981 -0.963,4.613 -0.963,6.847 0.085,0.707 0.849,0.68 1.301,1.02 m -3.48,-1.416 c -0.395,-2.943 -0.085,-6.054 1.557,-8.489 -0.82,-0.99 -1.16,-2.148 -1.613,-3.253 -1.33,3.368 -3.481,7.215 -1.839,11.119 0.594,0.255 1.273,0.396 1.895,0.623 m -5.092,-1.5 c -0.707,-3.677 1.724,-6.422 2.574,-9.648 1.527,-4.272 0.199,-9.194 -3.055,-12.222 -0.142,-0.113 -0.341,-0.03 -0.537,-0.056 0.395,2.234 1.725,9.562 2.178,10.808 0.453,1.217 -1.471,1.386 -2.094,2.291 -1.868,1.386 -3.197,3.084 -4.302,5.037 1.33,1.273 2.237,2.517 3.197,3.932 l 2.039,-0.142 z m 25.747,-2.715 c 1.017,-1.952 0.848,-4.159 0.678,-6.367 -1.839,1.699 -4.158,2.292 -6.592,2.576 -4.498,-0.114 -8.744,-1.5 -11.827,-5.094 -0.933,-1.132 -1.839,-2.264 -2.432,-3.535 -0.255,1.073 -0.085,2.093 -0.143,3.252 0.708,3.509 3.905,6.281 6.792,8.234 2.433,1.358 4.979,2.46 7.949,2.574 2.066,-0.028 3.876,-0.678 5.575,-1.64 m -32.679,-2.434 c 1.556,-2.83 7.017,-8.007 7.017,-8.007 -0.057,-1.018 -0.737,-1.783 -0.764,-2.802 -1.244,1.019 -2.067,2.434 -2.858,3.736 -1.415,-0.227 -2.631,-1.189 -4.075,-1.217 -0.225,0.649 -1.047,1.585 -0.932,1.499 0.197,-2.886 1.017,-5.941 0.82,-8.826 -4.104,1.413 -8.828,4.413 -9.733,9.082 3.904,1.272 7.383,3.734 10.525,6.535 m 32.395,-8.572 c -0.14,-0.85 -0.565,-1.868 -0.877,-2.774 -1.584,1.217 -3.762,1.387 -5.912,1.161 -3.311,-0.368 -6.424,-2.461 -8.403,-5.376 -1.076,0.199 -1.727,1.415 -2.66,1.895 -0.34,0.651 0.283,1.415 0.537,2.037 2.772,3.424 6.508,4.951 10.609,5.178 2.435,-0.197 4.838,-0.509 6.706,-2.121 m -26.878,-5.151 c 0.085,-0.507 -0.17,-1.16 -0.142,-1.639 -1.046,0.538 -1.726,1.526 -2.235,2.517 -1.103,0.254 -2.008,-0.707 -3.055,-0.933 -0.085,0.282 -0.227,0.763 -0.085,1.132 -0.312,0.423 -0.227,1.017 -0.339,1.5 0.877,0.169 1.611,0.762 2.518,0.82 0.792,-1.33 1.809,-2.858 3.338,-3.397 m 24.163,-1.639 c -0.227,-0.341 -0.227,-0.85 -0.594,-1.075 -2.18,0.225 -4.216,-1.162 -5.433,-3 -1.075,0.565 -1.98,1.357 -3.055,1.838 1.753,1.784 4.215,2.434 6.79,2.66 0.762,-0.114 1.613,-0.029 2.292,-0.423 m -27.078,-0.058 c 0.312,-0.962 1.415,-1.894 2.151,-2.574 -0.113,-0.566 -0.142,-1.16 -0.339,-1.697 -0.905,0.508 -1.642,1.244 -2.377,2.092 -0.651,-0.225 -1.188,-0.678 -1.812,-0.876 l 0,2.178 c 0.737,0.397 1.558,0.594 2.377,0.877 m 27.898,-4.696 c -0.792,-0.849 -1.358,-1.726 -2.179,-2.632 -0.708,0.85 -1.98,0.792 -2.915,0.68 0.028,0.707 -0.424,1.187 -0.734,1.754 1.357,1.046 3.82,1.188 5.432,0.423 l 0.396,-0.225 z m -26.483,-1.952 -0.395,-1.982 c -1.33,0 -1.952,3.142 -3.339,1.161 l 0,2.093 c 0.366,-0.085 0.651,0.482 1.019,0.568 0.82,-0.653 1.697,-1.644 2.715,-1.84 m -0.622,-3.198 c -0.339,-1.923 -0.708,-3.762 -0.735,-5.629 0.226,-0.369 0.819,-0.765 0.621,-1.302 -0.509,-0.681 -1.413,-0.254 -1.924,-0.935 0.142,-1.018 0.085,-2.262 -0.197,-3.282 l -0.198,0 c -0.707,1.245 -2.151,2.377 -3.338,3.057 0.706,0.932 2.178,1.16 2.318,2.319 0.398,1.67 0.086,3.425 0.283,5.094 0.115,0.538 -0.31,1.415 0.34,1.64 1.02,0.085 2.151,-0.029 2.83,-0.962 m 23.426,0.339 c -0.48,-0.31 -0.649,-1.584 -1.415,-0.82 -0.366,-0.057 -0.764,-0.112 -1.017,-0.48 -0.057,-0.567 0.537,-0.765 0.82,-1.131 -0.084,-0.992 -2.235,-2.266 -0.283,-2.944 0.17,-0.029 0.368,-0.141 0.425,-0.34 0.141,-1.131 -1.443,-0.622 -1.5,-1.698 0.169,-0.989 0.057,-2.177 -0.821,-2.716 -0.763,1.584 -2.377,2.746 -4.017,2.999 0.509,2.236 3.507,1.925 4.3,3.933 0.622,1.132 1.217,2.292 1.557,3.537 0.622,0.227 1.386,0.398 1.951,-0.056 l 0,-0.284 z"
         inkscape:connector-curvature="0" />
    </g>
    <g
       transform="matrix(0.69703595,0,0,-0.69703595,27.540936,19.225399)"
       id="g9729">
      <path
         id="path9731"
         style="fill:#dce8eb;fill-opacity:1;fill-rule:nonzero;stroke:none"
         d="m 0,0 c -0.934,-1.075 -2.065,-1.669 -3.253,-2.178 0.196,0.82 0.169,3.113 0.283,3.48 2.093,1.754 3.169,4.159 3.055,6.847 C 1.076,5.688 2.065,2.292 0,0 M -3.989,-1.612 C -4.13,-2.178 -4.3,-2.688 -4.328,-3.253 c -1.047,0.226 -2.32,0.452 -3.34,0.056 -0.791,0.396 -1.527,0.906 -2.375,1.104 1.754,0.792 4.215,1.386 6.054,0.481 M 0.623,-5.97 c -1.755,-1.16 -3.65,-2.037 -5.772,-2.037 0.679,1.189 1.104,2.49 1.5,3.792 1.867,0.339 3.706,1.103 4.951,2.716 C 1.098,-1.936 2.01,-4.839 0.623,-5.97 m -5.519,0.877 c 0.03,-0.847 -0.508,-1.443 -0.791,-2.178 -0.339,1.046 -0.678,2.094 -1.301,3 0.82,0.027 1.5,-0.313 2.092,-0.822 m 7.019,-5.573 c -2.688,-2.632 -5.998,-3.707 -9.31,-4.81 l -0.141,0 c 1.076,1.387 1.5,3.055 1.84,4.753 2.575,-0.029 5.036,0.707 7.045,2.235 l 0.566,-2.178 z m 28.576,-4.131 c -2.445,0.711 -4.61,0.196 -6.631,-0.78 l 0.483,0.501 c 0,0 -2.933,-1.151 -6.325,-2.354 0.032,1.65 0.587,3.229 0.986,4.669 5.339,2.443 10.184,-0.706 11.487,-2.036 m -25.946,0.735 c -3.706,-5.149 -9.053,-8.658 -14.995,-9.224 -0.056,1.274 0.878,3.877 0.933,4.075 4.924,0.368 9.167,3.027 12.507,6.508 l 1.555,-1.359 z m 11.289,0.68 c 0.229,-1.451 0.32,-3.069 0.608,-4.598 -0.599,-0.206 -1.201,-0.408 -1.794,-0.602 -0.184,1.387 -0.115,2.854 -0.115,4.181 0.085,0.707 0.849,0.679 1.301,1.019 m -3.479,-1.415 c -0.202,-1.491 -0.22,-3.025 0.023,-4.492 -0.887,-0.26 -1.702,-0.476 -2.387,-0.623 -0.234,1.474 -0.169,2.978 0.468,4.492 0.594,0.255 1.273,0.396 1.896,0.623 m -5.093,-1.5 c -0.282,-1.462 -0.067,-2.776 0.347,-4.031 -2.229,-0.543 -1.963,-1.409 -1.963,-1.409 l 1.25,-3.902 c -0.226,0.149 -0.429,0.313 -0.568,0.515 -1.868,1.386 -3.197,3.084 -4.302,5.037 1.33,1.273 2.237,2.517 3.198,3.932 l 2.038,-0.142 z m 25.747,-2.716 c 1.017,-1.952 0.848,-4.158 0.679,-6.366 -1.839,1.698 -4.159,2.292 -6.593,2.575 -2.791,-0.071 -5.485,-0.631 -7.864,-1.905 0.085,0.566 0.261,1.108 0.539,1.62 1.13,2.079 1.843,3.481 2.288,4.428 1.669,0.716 3.432,1.215 5.377,1.289 2.065,-0.028 3.876,-0.679 5.574,-1.641 M 3.681,-25.489 c 1.909,-2.101 3.874,-3.964 3.874,-3.964 -0.057,-1.019 -0.737,-1.783 -0.764,-2.802 -1.244,1.019 -2.066,2.434 -2.857,3.735 -0.144,-0.022 -0.285,-0.052 -0.422,-0.089 l 0.071,1.039 0.098,2.081 z m -3.143,4.043 c 0.5,-0.908 1.4,-2.057 2.394,-3.2 -1.231,-0.618 -3.454,-2.024 -3.592,-4.171 -0.191,0.272 -0.366,0.493 -0.413,0.563 0.115,-1.658 0.433,-3.371 0.647,-5.076 -1.161,0.335 -5.91,1.821 -9.389,4.633 -0.068,0.234 -0.124,0.472 -0.172,0.716 3.904,1.272 7.383,3.734 10.525,6.535 m 32.396,-8.573 c -0.141,-0.849 -0.566,-1.868 -0.877,-2.773 -1.585,1.217 -3.763,1.387 -5.912,1.16 -1.408,-0.156 -2.777,-0.623 -4.04,-1.331 -0.721,1.193 -1.374,2.403 -1.859,3.591 1.841,0.893 3.861,1.358 5.982,1.475 2.434,-0.198 4.837,-0.509 6.706,-2.122 m -26.879,-5.15 c 0.086,-0.508 -0.17,-1.16 -0.142,-1.64 -1.046,0.538 -1.725,1.527 -2.235,2.518 -0.191,0.043 -0.375,0.051 -0.555,0.033 l 0.112,1.652 c 0.714,-1.082 1.606,-2.135 2.82,-2.563 m 24.163,-1.64 c -0.227,-0.34 -0.227,-0.849 -0.594,-1.075 -1.285,0.133 -2.521,-0.294 -3.567,-1.045 -0.411,0.623 -0.861,1.283 -1.328,1.965 1.014,0.308 2.095,0.483 3.197,0.578 0.762,-0.113 1.613,-0.028 2.292,-0.423 M 3.141,-36.866 c 0.311,-0.962 1.415,-1.895 2.15,-2.574 -0.113,-0.567 -0.142,-1.161 -0.339,-1.698 -0.823,0.462 -1.506,1.112 -2.175,1.863 l 0.161,2.34 0.203,0.069 z m 27.897,-4.697 c -0.792,-0.848 -1.358,-1.725 -2.179,-2.631 -0.241,0.289 -0.546,0.473 -0.883,0.586 l 0.044,0.258 c 0.092,0.598 -0.207,1.425 -0.74,2.416 1.147,0.186 2.404,0.051 3.363,-0.403 l 0.395,-0.226 z M 4.556,-43.515 4.16,-45.496 c -0.695,0 -1.197,0.857 -1.716,1.393 l 0.124,1.803 c 0.613,-0.534 1.264,-1.075 1.988,-1.215 m -0.622,-3.197 c -0.34,-1.924 -0.708,-3.763 -0.736,-5.63 0.226,-0.368 0.82,-0.764 0.621,-1.302 -0.508,-0.68 -1.413,-0.253 -1.923,-0.934 0.141,-1.019 0.084,-2.263 -0.198,-3.282 l -0.198,0 c -0.455,0.801 -1.213,1.554 -2.013,2.171 1.729,2.433 2.347,2.698 2.347,2.698 l 0.496,7.21 c 0.616,-0.102 1.192,-0.366 1.604,-0.931 m 23.425,0.339 c -0.364,-0.236 -0.55,-1.027 -0.954,-1.059 0.294,0.473 0.559,0.96 0.788,1.455 0.058,-0.032 0.113,-0.069 0.166,-0.113 l 0,-0.283 z m -1.769,-2.265 c 0.056,-0.053 0.111,-0.108 0.157,-0.167 -0.084,-0.991 -2.235,-2.265 -0.283,-2.943 0.17,-0.029 0.368,-0.142 0.425,-0.34 0.141,-1.132 -1.443,-0.622 -1.499,-1.698 0.169,-0.989 0.056,-2.177 -0.822,-2.716 -0.511,1.064 -1.404,1.933 -2.432,2.469 0.301,0.813 0.694,1.5 1.207,1.934 1.087,0.92 2.251,2.114 3.247,3.461 M 8.864,18.756 c 1.852,-0.889 3.282,-1.797 4.383,-2.647 -2.155,0.267 -4.446,0.045 -6.599,-0.067 0.623,0.143 0.85,0.821 1.161,1.274 -0.084,0.933 -1.103,1.33 -1.839,1.555 -3.084,0.51 -5.235,-2.348 -6.79,-4.611 -0.822,-1.16 -1.274,-2.462 -1.811,-3.735 0.255,-0.226 0.51,0.227 0.934,0.085 C -1.33,7.837 -1.499,4.98 -3.396,3 c -0.168,0.056 -0.196,0.423 -0.479,0.396 0.026,-0.877 0.254,-1.953 0.084,-2.915 -2.631,-0.141 -4.98,-0.905 -6.988,-2.574 -0.468,0.124 -0.941,0.248 -1.416,0.362 1.916,2.608 3.782,5.537 4.451,7.808 1.335,4.53 1.643,5.396 2.735,5.438 0.351,-0.13 0.708,-0.243 1.076,-0.311 0.069,0.055 0.129,0.114 0.186,0.176 0.837,-0.185 0.793,-0.462 0.767,-0.531 0.21,0.463 5.146,11.121 11.844,7.907"
         inkscape:connector-curvature="0" />
    </g>
    <g
       transform="matrix(0.69703595,0,0,-0.69703595,21.960521,18.317992)"
       id="g9733">
      <path
         id="path9735"
         style="fill:#000000;fill-opacity:1;fill-rule:nonzero;stroke:none"
         d="m 0,0 c -0.708,-0.538 -1.783,-0.453 -2.52,-0.085 -1.159,0.82 -1.724,2.291 -1.357,3.819 0.367,1.162 1.273,2.547 2.659,2.632 C 0.998,6.34 2.718,2.318 0,0"
         inkscape:connector-curvature="0" />
    </g>
    <g
       transform="matrix(0.69703595,0,0,-0.69703595,43.693267,58.884933)"
       id="g9737">
      <path
         id="path9739"
         style="fill:#707072;fill-opacity:1;fill-rule:nonzero;stroke:none"
         d="M 0,0 C -0.655,-0.156 -1.393,-0.299 -2.129,-0.337 -2.399,0.635 -2.311,1.603 -2.137,2.357 -1.184,1.831 -0.357,1.032 0,0"
         inkscape:connector-curvature="0" />
    </g>
    <g
       transform="matrix(0.69703595,0,0,-0.69703595,27.77776,59.023152)"
       id="g9741">
      <path
         id="path9743"
         style="fill:#707072;fill-opacity:1;fill-rule:nonzero;stroke:none"
         d="m 0,0 0.085,0.057 0.538,-1.019 c -0.616,-0.205 -1.256,-0.267 -1.886,-0.224 0.13,0.702 0.346,1.387 0.541,1.915 C -0.475,0.506 -0.236,0.263 0,0"
         inkscape:connector-curvature="0" />
    </g>
    <g
       transform="matrix(0.69703595,0,0,-0.69703595,53.100519,14.72868)"
       id="g9745">
      <path
         id="path9747"
         style="fill:#58595a;fill-opacity:1;fill-rule:nonzero;stroke:none"
         d="M 0,0 C 0.311,0.113 0.226,0.509 0.339,0.764 0.226,1.132 0.311,1.556 -0.057,1.839 1.441,1.217 1.244,-0.906 1.441,-2.433 2.009,-2.376 1.98,0.283 1.98,0.283 3.367,-0.848 3.508,-2.857 3.395,-4.414 2.914,-5.941 1.499,-7.3 -0.057,-7.667 c -0.601,-0.057 -1.252,-0.102 -1.795,-0.066 1.121,0.599 2.051,1.678 2.423,2.859 0.113,1.556 -0.029,3.564 -1.416,4.696 0,0 0.028,-2.658 -0.537,-2.716 -0.198,1.528 0,3.65 -1.5,4.273 C -2.514,1.096 -2.6,0.672 -2.485,0.304 -2.6,0.049 -2.514,-0.347 -2.825,-0.46 c -0.052,0.307 -0.161,0.59 -0.312,0.853 0.297,0.779 0.223,1.718 0.223,2.522 L -3.113,3.197 C -1.953,2.462 -0.255,1.528 0,0"
         inkscape:connector-curvature="0" />
    </g>
    <g
       transform="matrix(0.69703595,0,0,-0.69703595,24.781343,8.7610032)"
       id="g9749">
      <path
         id="path9751"
         style="fill:#dce8eb;fill-opacity:1;fill-rule:nonzero;stroke:none"
         d="m 0,0 c -0.338,-0.926 -0.728,-1.831 -1.133,-2.705 l -0.736,0.396 c 0.224,0.875 0.479,1.769 0.71,2.675 C -0.779,0.253 -0.392,0.131 0,0 m 6.664,-4.927 c -0.568,-0.735 -1.143,-1.47 -1.686,-2.191 -0.141,0.706 -0.764,1.357 -0.82,2.036 0.45,0.653 0.852,1.49 1.328,2.256 0.326,-0.313 0.587,-0.641 0.767,-0.985 0.158,-0.302 0.295,-0.678 0.411,-1.116 m 0.604,-5.291 c -0.415,-0.294 -0.814,-0.61 -1.186,-0.974 l -0.228,0 c -0.14,1.245 -0.168,2.546 -0.735,3.649 l 1.849,1.059 c 0.158,-1.098 0.25,-2.377 0.3,-3.734 m 0.034,-6.072 c -0.406,-0.263 -0.81,-0.519 -1.22,-0.76 -0.113,0.652 -0.113,1.754 0,2.321 0.408,0.297 0.823,0.582 1.241,0.858 -0.003,-0.82 -0.01,-1.634 -0.021,-2.419 m -0.045,-3.175 c -0.376,-0.109 -0.75,-0.225 -1.119,-0.357 l -0.056,2.377 c 0.397,0.078 0.802,0.164 1.206,0.25 -0.013,-0.807 -0.024,-1.572 -0.031,-2.27 m 0.254,-3.878 c -0.076,-0.05 -0.147,-0.101 -0.213,-0.158 -0.255,-0.196 -0.764,-0.226 -0.764,-0.594 l 0.142,-0.141 1.211,0.336 C 8.163,-24.22 8.53,-24.518 8.96,-24.792 8.395,-25.125 7.514,-25.28 7.1,-25.679 l -0.141,0 c -0.396,1.075 -0.652,2.207 -0.766,3.396 0.377,0.074 0.732,0.202 1.081,0.342 0.018,-0.392 0.043,-0.707 0.083,-0.934 0.028,-0.159 0.081,-0.315 0.154,-0.468 m 2.022,-2.535 c -0.169,-0.904 1.019,-1.866 -0.056,-2.517 -0.594,0.254 -1.104,0.651 -1.584,1.161 0.48,0.508 0.99,0.99 1.64,1.356"
         inkscape:connector-curvature="0" />
    </g>
    <g
       transform="matrix(0.69703595,0,0,-0.69703595,31.599915,8.1667105)"
       id="g9753">
      <path
         id="path9755"
         style="fill:#e7bbb0;fill-opacity:1;fill-rule:nonzero;stroke:none"
         d="M 0,0 C -0.752,-0.353 -1.625,-0.558 -2.286,-0.983 -4.068,-2.029 -6.05,-3.076 -7.379,-4.802 l -0.424,0 C -6.558,-2.576 -4.4,0.435 -1.741,0.515 -1.175,0.453 -0.527,0.374 0,0"
         inkscape:connector-curvature="0" />
    </g>
    <g
       transform="matrix(0.69703595,0,0,-0.69703595,15.657978,15.94919)"
       id="g9757">
      <path
         id="path9759"
         style="fill:#ffffff;fill-opacity:1;fill-rule:nonzero;stroke:none"
         d="M 0,0 C 0,1.169 0.779,2.117 1.741,2.117 2.706,2.117 3.485,1.169 3.485,0 3.485,-1.17 2.706,-2.118 1.741,-2.118 0.779,-2.118 0,-1.17 0,0"
         inkscape:connector-curvature="0" />
    </g>
    <g
       transform="matrix(0.69703595,0,0,-0.69703595,19.630525,16.232327)"
       id="g9761">
      <path
         id="path9763"
         style="fill:#ffffff;fill-opacity:1;fill-rule:nonzero;stroke:none"
         d="M 0,0 C 0,1.479 0.937,2.677 2.09,2.677 3.244,2.677 4.181,1.479 4.181,0 4.181,-1.478 3.244,-2.676 2.09,-2.676 0.937,-2.676 0,-1.478 0,0"
         inkscape:connector-curvature="0" />
    </g>
    <g
       transform="matrix(0.69703595,0,0,-0.69703595,16.479588,14.553028)"
       id="g9765">
      <path
         id="path9767"
         style="fill:#dce8eb;fill-opacity:1;fill-rule:nonzero;stroke:none"
         d="m 0,0 c 0.176,0.074 0.366,0.114 0.563,0.114 0.964,0 1.744,-0.948 1.744,-2.117 0,-1.17 -0.78,-2.118 -1.744,-2.118 -0.258,0 -0.503,0.068 -0.723,0.191 0.686,0.284 1.179,1.074 1.179,2.004 C 1.019,-1.071 0.601,-0.333 0,0"
         inkscape:connector-curvature="0" />
    </g>
    <g
       transform="matrix(0.69703595,0,0,-0.69703595,20.703291,14.431883)"
       id="g9769">
      <path
         id="path9771"
         style="fill:#dce8eb;fill-opacity:1;fill-rule:nonzero;stroke:none"
         d="m 0,0 c 0.177,0.062 0.36,0.094 0.551,0.094 1.154,0 2.091,-1.198 2.091,-2.677 0,-1.478 -0.937,-2.676 -2.091,-2.676 -0.26,0 -0.509,0.06 -0.737,0.171 0.887,0.309 1.54,1.348 1.54,2.583 C 1.354,-1.358 0.79,-0.381 0,0"
         inkscape:connector-curvature="0" />
    </g>
    <g
       transform="matrix(0.69703595,0,0,-0.69703595,16.637453,15.762665)"
       id="g9773">
      <path
         id="path9775"
         style="fill:#000000;fill-opacity:1;fill-rule:nonzero;stroke:none"
         d="M 0,0 C 0,0.611 0.496,1.108 1.108,1.108 1.721,1.108 2.217,0.611 2.217,0 2.217,-0.611 1.721,-1.108 1.108,-1.108 0.496,-1.108 0,-0.611 0,0"
         inkscape:connector-curvature="0" />
    </g>
    <g
       transform="matrix(0.69703595,0,0,-0.69703595,20.795858,15.980486)"
       id="g9777">
      <path
         id="path9779"
         style="fill:#000000;fill-opacity:1;fill-rule:nonzero;stroke:none"
         d="M 0,0 C 0,0.732 0.594,1.327 1.326,1.327 2.059,1.327 2.653,0.732 2.653,0 2.653,-0.732 2.059,-1.327 1.326,-1.327 0.594,-1.327 0,-0.732 0,0"
         inkscape:connector-curvature="0" />
    </g>
    <g
       transform="matrix(0.69703595,0,0,-0.69703595,16.678996,15.454296)"
       id="g9781">
      <path
         id="path9783"
         style="fill:#ffffff;fill-opacity:1;fill-rule:nonzero;stroke:none"
         d="M 0,0 C 0,0.335 0.271,0.605 0.606,0.605 0.941,0.605 1.213,0.335 1.213,0 1.213,-0.336 0.941,-0.608 0.606,-0.608 0.271,-0.608 0,-0.336 0,0"
         inkscape:connector-curvature="0" />
    </g>
    <g
       transform="matrix(0.69703595,0,0,-0.69703595,20.836676,15.651696)"
       id="g9785">
      <path
         id="path9787"
         style="fill:#ffffff;fill-opacity:1;fill-rule:nonzero;stroke:none"
         d="M 0,0 C 0,0.374 0.303,0.678 0.678,0.678 1.052,0.678 1.355,0.374 1.355,0 1.355,-0.375 1.052,-0.678 0.678,-0.678 0.303,-0.678 0,-0.375 0,0"
         inkscape:connector-curvature="0" />
    </g>
  </g>
</svg>
