<?xml version="1.0" encoding="UTF-8" standalone="no"?>
<!-- Created with Inkscape (http://www.inkscape.org/) -->

<svg
   xmlns:dc="http://purl.org/dc/elements/1.1/"
   xmlns:cc="http://creativecommons.org/ns#"
   xmlns:rdf="http://www.w3.org/1999/02/22-rdf-syntax-ns#"
   xmlns:svg="http://www.w3.org/2000/svg"
   xmlns="http://www.w3.org/2000/svg"
   xmlns:sodipodi="http://sodipodi.sourceforge.net/DTD/sodipodi-0.dtd"
   xmlns:inkscape="http://www.inkscape.org/namespaces/inkscape"
   width="64px"
   height="64px"
   id="svg174170"
   version="1.1"
   inkscape:version="0.48.5 r10040"
   sodipodi:docname="Nowy dokument 38">
  <defs
     id="defs174172" />
  <sodipodi:namedview
     id="base"
     pagecolor="#ffffff"
     bordercolor="#666666"
     borderopacity="1.0"
     inkscape:pageopacity="0.0"
     inkscape:pageshadow="2"
     inkscape:zoom="5.5"
     inkscape:cx="32"
     inkscape:cy="32"
     inkscape:current-layer="layer1"
     showgrid="true"
     inkscape:document-units="px"
     inkscape:grid-bbox="true"
     inkscape:window-width="1366"
     inkscape:window-height="706"
     inkscape:window-x="-8"
     inkscape:window-y="-8"
     inkscape:window-maximized="1" />
  <metadata
     id="metadata174175">
    <rdf:RDF>
      <cc:Work
         rdf:about="">
        <dc:format>image/svg+xml</dc:format>
        <dc:type
           rdf:resource="http://purl.org/dc/dcmitype/StillImage" />
        <dc:title></dc:title>
      </cc:Work>
    </rdf:RDF>
  </metadata>
  <g
     id="layer1"
     inkscape:label="Layer 1"
     inkscape:groupmode="layer">
    <g
       transform="matrix(0.62431699,0,0,-0.62431699,33.768471,1.1222882)"
       id="g4241">
      <path
         id="path4243"
         style="fill:#000000;fill-opacity:1;fill-rule:nonzero;stroke:none"
         d="m 0,0 c 0.434,-0.587 -0.041,-4.141 -2.134,-2.721 -0.37,0.247 -0.55,1.301 -1.198,0.715 -1.789,-1.482 -2.592,-3.734 -2.716,-5.925 l 1.851,-2.068 c 1.853,3.796 5.988,4.969 9.845,4.444 0.432,-0.031 1.352,-8.437 -8.3,-8.518 1.234,-4.66 1.264,-9.813 -0.588,-14.381 l 3.858,-20.368 c 1.419,-5.771 2.623,-11.666 4.876,-17.096 1.358,-2.13 3.58,-3.18 5.402,-4.661 -0.31,2.068 -0.218,4.568 1.047,6.296 1.266,1.851 3.828,3.672 2.44,6.203 -0.834,0.308 -3.153,-0.515 -4.6,2.16 -0.648,2.284 1.451,5.154 -0.956,6.728 0,0 5.419,0.12 6.819,-3.766 0.743,-1.511 0.28,-3.517 -0.74,-4.659 2.346,-3.889 -2.037,-6.604 -2.066,-10.308 -0.617,-2.068 0.34,-4.227 0.863,-6.233 0.926,-1.327 0.707,-3.934 -1.111,-5.771 0.094,-1.759 -0.957,-3.858 0.679,-5.185 l 0,-1.543 c 1.604,-2.222 3.241,-5.369 4.537,-7.683 -0.341,-0.68 -1.05,-1.451 -1.759,-1.728 -0.65,-0.186 -1.266,0.092 -1.697,0.617 -0.526,0.771 -0.495,1.789 -0.895,2.654 -0.895,1.913 -1.728,4.875 -3.303,6.418 0.063,0.247 -0.092,0.37 -0.154,0.525 L 9.506,-86.75 c 0.432,-2.839 1.172,-4.383 1.605,-7.222 -0.894,-0.957 -2.284,-1.327 -3.457,-0.834 l -0.617,0.618 c 0.309,2.438 0.37,4.074 0.247,6.698 -0.616,0.586 -0.895,1.388 -0.741,2.16 0.895,1.235 0.926,3.055 0.864,4.506 -1.11,0.37 -2.253,0.74 -3.332,1.203 -0.495,-1.265 -0.432,-2.746 0.525,-3.796 0.307,-1.235 -0.402,-2.253 -1.174,-3.178 -0.185,-2.932 -0.062,-6.511 0.586,-9.381 0.031,-0.556 -0.586,-0.741 -0.955,-0.957 -1.266,-0.247 -2.129,0.309 -2.963,1.019 0.709,2.777 1.295,6.417 1.388,9.473 -0.554,0.432 -0.679,1.08 -0.802,1.697 -0.37,-0.617 -1.295,-0.741 -1.42,-1.388 -0.555,-2.84 -0.988,-5.802 -1.326,-8.611 -0.432,-0.277 -1.143,-0.431 -1.637,-0.154 -0.524,0.185 -1.08,0.741 -1.234,1.265 0.896,2.747 2.068,5.401 2.439,8.364 -0.31,0.555 -0.371,1.296 -0.217,1.944 0.247,0.71 0.864,1.296 1.389,1.913 0.246,1.945 2.039,4.386 0.586,5.864 -0.616,2.932 -0.834,5.74 -1.326,8.733 -1.79,10.709 -3.612,21.634 -4.721,32.744 -3.735,-3.796 -9.013,-6.481 -14.752,-4.969 -3.797,1.08 -8.334,4.136 -8.89,8.456 -0.739,4.011 0.527,8.054 3.767,10.431 3.239,2.16 7.715,1.265 10.615,4.289 -0.432,0.371 -0.4,0.895 -0.617,1.328 -4.738,-0.026 -6.942,4.412 -7.035,5.925 2.807,1.82 6.882,0.925 9.349,-0.957 l 0.587,-0.741 1.049,1.79 c -0.184,1.944 -1.296,3.796 -3.116,4.722 -0.804,-0.741 -1.636,-1.574 -2.748,-1.327 -0.648,0.401 -0.894,1.203 -0.679,1.944 0.403,1.049 1.204,1.852 2.099,2.592 2.738,0.539 1.699,-2.314 1.699,-2.314 1.851,-0.772 3.641,-2.685 4.289,-4.599 0.863,0.556 2.191,0.371 3.116,0.248 0.834,2.345 2.283,5.092 4.97,5.832 C -3.145,2.17 -0.5,1.302 0,0 m 1.853,-78.973 c -0.433,-0.74 -0.833,-1.667 -1.235,-2.499 0.31,-0.556 0.31,-1.698 0.278,-1.945 0.987,1.204 0.864,2.963 0.957,4.444 M 10,-84.652 c 0.217,1.112 0,2.47 -0.371,3.457 -0.092,-1.049 -0.525,-2.623 0.371,-3.457"
         inkscape:connector-curvature="0" />
    </g>
    <g
       transform="matrix(0.62431699,0,0,-0.62431699,30.038427,22.966078)"
       id="g4245">
      <path
         id="path4247"
         style="fill:#764e33;fill-opacity:1;fill-rule:evenodd;stroke:none"
         d="M 0,0 C 0,0 3.445,-29.791 4.764,-32.173 6.083,-34.555 7.531,-34.5 7.531,-34.5 l 5.844,-2.436 3.096,-0.66 0.568,0.605 c 0,0 -3.829,3.298 -4.489,3.7 -0.659,0.404 -1.997,1.979 -2.381,3.042 -0.385,1.063 -1.155,3.371 -1.155,3.371 l -1.924,7.86 -1.777,7.787 -1.319,7.072 -1.062,5.478 c 0,0 0.166,1.832 -0.935,1.667 C 0.898,2.822 0,0 0,0"
         inkscape:connector-curvature="0" />
    </g>
    <g
       transform="matrix(0.62431699,0,0,-0.62431699,28.449605,12.511204)"
       id="g4249">
      <path
         id="path4251"
         style="fill:#764e33;fill-opacity:1;fill-rule:evenodd;stroke:none"
         d="M 0,0 2.68,0.994 3.422,3.206 4.113,4.503 5.064,4.028 c 0,0 2.904,-7.105 -0.734,-13.733 -3.639,-6.629 -0.612,0.13 -2.126,3.422 -1.513,3.293 -3.163,3.379 -3.163,3.379 L 0,0 z"
         inkscape:connector-curvature="0" />
    </g>
    <g
       transform="matrix(0.62431699,0,0,-0.62431699,24.635399,8.0218024)"
       id="g4253">
      <path
         id="path4255"
         style="fill:#b08c4b;fill-opacity:1;fill-rule:evenodd;stroke:none"
         d="M 0,0 C 0,0 -1.089,-0.822 -1.305,-1.081 -1.521,-1.34 -1.738,-2.119 -1.738,-2.119 l -2.082,0.217 c 0,0 -2.162,2.903 -2.118,3.077 0.043,0.172 2.163,0.475 2.163,0.475 L -1.003,1.218 0,0 z"
         inkscape:connector-curvature="0" />
    </g>
    <g
       transform="matrix(0.62431699,0,0,-0.62431699,31.504139,8.0492095)"
       id="g4257">
      <path
         id="path4259"
         style="fill:#b08c4b;fill-opacity:1;fill-rule:evenodd;stroke:none"
         d="M 0,0 0.647,-1.858 3.897,-1.037 5.633,1.348 5.504,2.256 4.286,2.429 2.299,1.737 1.166,1.175 0,0 z"
         inkscape:connector-curvature="0" />
    </g>
    <g
       transform="matrix(0.62431699,0,0,-0.62431699,31.515062,21.140388)"
       id="g4261">
      <path
         id="path4263"
         style="fill:#fbea98;fill-opacity:1;fill-rule:nonzero;stroke:none"
         d="m 0,0 c -0.401,-0.803 -1.358,-1.358 -1.049,-2.222 0.74,-0.988 2.623,-0.803 2.315,-2.469 l 0.369,-2.654 c -0.678,-0.71 -1.419,-1.42 -1.481,-2.377 0.525,-0.802 1.451,-1.08 2.222,-1.635 0.401,-1.019 0.34,-2.222 0.741,-3.241 -0.525,-0.864 -1.76,-1.758 -1.482,-2.963 0.711,-0.709 1.482,-1.357 2.345,-1.697 l 0.988,-3.487 c -0.339,-1.512 -3.302,-2.531 -1.573,-4.073 0.957,-0.741 1.882,-1.204 2.962,-1.636 l 0.957,-3.179 c -1.019,-1.234 -2.316,-2.345 -2.716,-3.857 0,-0.525 0.431,-1.049 0.957,-1.173 1.543,-0.401 2.839,0.309 4.134,0.802 0.217,-0.03 0.34,-0.216 0.526,-0.37 -0.031,-0.926 -0.68,-2.098 0.308,-2.654 0.432,-0.185 0.957,0 1.327,0.278 0.247,0.185 0.308,1.049 0.802,0.524 0.896,-0.432 -0.617,-0.709 0,-1.327 0.092,-0.215 0.31,-0.432 0.525,-0.524 0.401,0.061 0.834,0 1.11,0.432 1.574,-1.018 2.686,-2.809 3.026,-4.66 -0.155,-0.988 -0.34,-2.006 -0.956,-2.808 -0.125,0.03 -0.033,0.401 -0.279,0.308 -0.494,-1.574 -0.616,-3.271 -0.74,-4.968 0.246,-1.019 1.296,-1.883 0.802,-3.056 1.264,-2.16 3.24,-4.998 4.32,-7.22 -0.71,0.37 -1.636,0.494 -2.439,0.432 -0.494,1.512 -1.449,3.795 -2.189,5.183 0,1.328 -1.668,1.76 -1.545,3.179 0.526,1.173 -0.894,7.037 -0.894,7.037 -0.166,0.077 -0.216,-2.161 -0.216,-2.161 -1.976,0.124 -3.796,0.494 -5.4,1.482 l 0.277,2.746 c -0.988,-1.79 -1.111,-4.042 -1.326,-6.234 0.586,-0.586 0.987,-1.388 0.833,-2.222 -0.155,-1.049 -1.512,-1.666 -1.204,-2.808 -0.185,-2.469 -0.031,-5.647 0.463,-8.115 -0.555,0.616 -1.174,1.111 -1.944,1.172 0.308,2.13 0.956,5.462 0.833,7.776 -0.586,0.741 -0.864,1.759 -0.617,2.654 0.185,0.432 0.308,0.988 0.74,1.265 0.402,2.592 0.556,4.167 0.154,6.82 -0.061,0.093 -0.494,-1.45 -0.431,-2.159 -3.457,2.592 -2.223,7.591 -3.333,11.264 0.401,0 2.962,3.548 2.962,3.548 0.216,1.05 -4.227,3.766 -4.227,3.766 l -0.37,2.684 c 2.092,1.727 2.653,3.982 2.653,3.982 -1.172,0.987 -2.469,1.758 -3.703,2.468 0,0.834 -0.648,1.759 0,2.5 0.648,0.957 2.438,1.605 2.006,3.055 -0.772,0.988 -2.006,1.667 -3.024,2.222 0.03,1.111 -0.896,2.438 0.524,3.179 0.679,0.37 1.142,1.08 1.389,1.759 -0.495,1.666 -3.209,1.111 -2.809,3.117 0,0.957 0.433,1.913 1.328,2.315 C -0.68,0.031 -0.34,0.215 0,0"
         inkscape:connector-curvature="0" />
    </g>
    <g
       transform="matrix(0.62431699,0,0,-0.62431699,31.515062,21.140388)"
       id="g4265">
      <path
         id="path4267"
         style="fill:#f5d75c;fill-opacity:1;fill-rule:nonzero;stroke:none"
         d="m 0,0 c -0.401,-0.803 -1.358,-1.358 -1.049,-2.222 0.74,-0.988 2.623,-0.803 2.315,-2.469 L 1.635,-7.345 C 1.416,-7.574 1.191,-7.803 0.984,-8.04 c -0.1,0.591 -0.185,1.113 -0.257,1.554 -0.759,4.702 -2.307,4.287 -3.137,3.656 -0.016,0.151 -0.005,0.321 0.033,0.515 0,0.957 0.433,1.913 1.328,2.315 C -0.68,0.031 -0.34,0.215 0,0 m 1.466,-10.803 c 0.305,-0.174 0.619,-0.344 0.91,-0.554 0.401,-1.019 0.34,-2.222 0.741,-3.241 -0.193,-0.317 -0.481,-0.639 -0.756,-0.979 -0.338,1.725 -0.639,3.343 -0.895,4.774 m 1.532,-7.923 c 0.314,-0.215 0.642,-0.397 0.982,-0.532 l 0.988,-3.487 c -0.101,-0.45 -0.433,-0.856 -0.808,-1.245 -0.412,1.761 -0.803,3.539 -1.162,5.264 m 2.138,-9.185 c 0.389,-0.196 0.794,-0.372 1.221,-0.543 l 0.957,-3.179 c -0.265,-0.32 -0.549,-0.633 -0.83,-0.947 -0.465,1.45 -0.916,3.027 -1.348,4.669 m 2.796,-8.622 c 0.601,0.188 1.179,0.452 1.757,0.672 0.217,-0.03 0.34,-0.216 0.526,-0.37 -0.031,-0.926 -0.68,-2.098 0.308,-2.654 0.432,-0.185 0.957,0 1.327,0.278 0.247,0.185 0.308,1.049 0.802,0.524 0.896,-0.432 -0.617,-0.709 0,-1.327 0.092,-0.215 0.31,-0.432 0.525,-0.524 0.401,0.061 0.834,0 1.11,0.432 1.574,-1.018 2.686,-2.809 3.026,-4.66 -0.155,-0.988 -0.34,-2.006 -0.956,-2.808 -0.125,0.03 -0.033,0.401 -0.279,0.308 -0.494,-1.574 -0.616,-3.271 -0.74,-4.968 0.246,-1.019 1.296,-1.883 0.802,-3.056 1.264,-2.16 3.24,-4.998 4.32,-7.22 -0.427,0.222 -0.929,0.355 -1.437,0.413 -1.549,3.171 -3.529,7.315 -3.529,7.788 0,0.779 -0.68,1.459 -0.68,1.459 0,0 -0.098,5.343 0.194,5.927 0.292,0.583 -0.292,3.497 -4.565,6.023 -0.841,0.498 -1.687,1.854 -2.511,3.763"
         inkscape:connector-curvature="0" />
    </g>
    <g
       transform="matrix(0.62431699,0,0,-0.62431699,29.24099,17.075585)"
       id="g4269">
      <path
         id="path4271"
         style="fill:#b08c4b;fill-opacity:1;fill-rule:nonzero;stroke:none"
         d="m 0,0 c 0.957,-2.562 0.803,-5.863 -0.432,-8.24 -3.888,-4.104 -9.536,-5.925 -14.966,-3.981 -2.623,1.142 -5.618,3.024 -6.666,5.925 -1.235,3.395 -0.495,7.16 1.635,9.907 2.005,2.469 5.123,2.561 7.931,3.333 C -7.591,6.882 -2.098,4.907 0,0"
         inkscape:connector-curvature="0" />
    </g>
    <g
       transform="matrix(0.62431699,0,0,-0.62431699,28.472764,22.711857)"
       id="g4273">
      <path
         id="path4275"
         style="fill:#c9ac7a;fill-opacity:1;fill-rule:nonzero;stroke:none"
         d="m 0,0 c -3.84,-3.542 -9.098,-5.007 -14.168,-3.193 -2.623,1.142 -5.617,3.024 -6.666,5.925 -1.234,3.395 -0.494,7.16 1.636,9.907 2.005,2.469 5.123,2.561 7.93,3.333 2.237,-0.028 4.596,-0.454 6.698,-1.373 C -4.881,14.103 -5.209,13.672 -5.559,13.322 -9.333,9.547 -12.52,7.554 -10.832,2.945 -9.836,0.227 -5.329,-1.58 0,0"
         inkscape:connector-curvature="0" />
    </g>
    <g
       transform="matrix(0.62431699,0,0,-0.62431699,17.060066,15.497749)"
       id="g4277">
      <path
         id="path4279"
         style="fill:#e0cfaf;fill-opacity:1;fill-rule:nonzero;stroke:none"
         d="M 0,0 C 0,1.853 2.381,3.355 5.319,3.355 8.259,3.355 10.64,1.853 10.64,0 10.64,-1.853 8.259,-3.355 5.319,-3.355 2.381,-3.355 0,-1.853 0,0"
         inkscape:connector-curvature="0" />
    </g>
    <g
       transform="matrix(0.62431699,0,0,-0.62431699,33.499641,1.4499918)"
       id="g4281">
      <path
         id="path4283"
         style="fill:#ac7531;fill-opacity:1;fill-rule:nonzero;stroke:none"
         d="M 0,0 C 0.153,-0.648 0.062,-1.358 -0.371,-1.852 -0.618,-1.913 -0.833,-2.067 -1.11,-2.006 -3.479,0.347 -0.683,2.184 0,0"
         inkscape:connector-curvature="0" />
    </g>
    <g
       transform="matrix(0.62431699,0,0,-0.62431699,23.826972,2.1437959)"
       id="g4285">
      <path
         id="path4287"
         style="fill:#ac7531;fill-opacity:1;fill-rule:nonzero;stroke:none"
         d="m 0,0 c -0.031,-1.235 -0.925,-2.407 -1.974,-2.901 -0.587,-0.216 -0.587,0.463 -0.741,0.741 0.123,1.08 0.772,2.191 1.852,2.592 C -0.494,0.525 -0.152,0.34 0,0"
         inkscape:connector-curvature="0" />
    </g>
    <g
       transform="matrix(0.62431699,0,0,-0.62431699,29.579929,6.6969394)"
       id="g4289">
      <path
         id="path4291"
         style="fill:#f5d75c;fill-opacity:1;fill-rule:nonzero;stroke:none"
         d="M 0,0 C -0.432,0 -0.802,0.216 -1.203,0.37 -0.709,2.376 0.692,5.565 2.512,6.706 1.402,5.194 0.154,2.037 0,0"
         inkscape:connector-curvature="0" />
    </g>
    <g
       transform="matrix(0.62431699,0,0,-0.62431699,26.466895,5.8046655)"
       id="g4293">
      <path
         id="path4295"
         style="fill:#f5d75c;fill-opacity:1;fill-rule:nonzero;stroke:none"
         d="M 0,0 C -0.063,-0.154 -0.463,-0.555 -0.74,-0.74 -0.864,1.359 -2.346,2.963 -3.92,4.074 -2.1,3.519 -0.525,1.821 0,0"
         inkscape:connector-curvature="0" />
    </g>
    <g
       transform="matrix(0.62431699,0,0,-0.62431699,30.724926,7.6925376)"
       id="g4297">
      <path
         id="path4299"
         style="fill:#f5d75c;fill-opacity:1;fill-rule:nonzero;stroke:none"
         d="M 0,0 C 0.678,-1.419 1.266,-2.53 1.543,-4.135 0.864,-3.981 0.092,-4.32 -0.216,-4.968 -0.494,-5.462 -0.093,-5.863 0.063,-6.295 0.617,-7.53 2.809,-5.616 2.377,-7.622 l 0,-0.216 c -0.773,0.123 -1.451,0.956 -2.314,0.432 l -1.544,-1.636 c 0.463,-0.895 0.834,-1.913 1.852,-2.438 0.648,-0.062 1.42,0.062 2.006,0.432 l -0.094,-1.605 c -0.802,0.031 -1.666,0.864 -2.437,0.124 -0.525,-0.586 -1.358,-1.265 -0.803,-2.13 0.34,-0.463 0.463,-0.956 1.02,-1.203 l 1.418,-0.061 c -0.678,-2.315 -1.667,-4.6 -3.488,-6.358 1.111,3.271 0.773,7.777 -2.005,10.492 -2.747,2.655 -6.109,3.642 -9.752,4.074 0.956,0.432 2.253,0.802 2.592,2.006 0.711,-0.185 1.543,-0.926 2.5,-0.586 0.772,0.246 1.635,0.74 2.006,1.481 0.433,-1.42 1.944,-2.129 3.332,-2.222 1.174,-0.062 2.131,0.833 2.655,1.79 0.833,1.604 0.185,3.272 -0.864,4.568 -3.183,2.01 -4.289,-0.649 -4.969,-1.112 -0.494,0.648 -1.204,0.988 -1.851,1.358 0.555,1.297 1.543,3.087 3.24,3.087 C -3.024,2.716 -0.988,2.006 0,0"
         inkscape:connector-curvature="0" />
    </g>
    <g
       transform="matrix(0.62431699,0,0,-0.62431699,25.041459,7.9235971)"
       id="g4301">
      <path
         id="path4303"
         style="fill:#fbea98;fill-opacity:1;fill-rule:nonzero;stroke:none"
         d="M 0,0 -1.111,-0.37 C -2.098,0.771 -3.426,0.987 -4.908,0.957 -5.339,0.617 -5,0.062 -4.908,-0.308 -4.26,-1.265 -3.303,-1.79 -2.16,-1.697 -2.5,-2.098 -2.314,-3.025 -3.117,-2.901 -8.163,-2.529 -8.98,2.006 -8.98,2.006 -5.926,3.209 -2.191,2.562 0,0"
         inkscape:connector-curvature="0" />
    </g>
    <g
       transform="matrix(0.62431699,0,0,-0.62431699,34.424503,7.0950659)"
       id="g4305">
      <path
         id="path4307"
         style="fill:#edccb8;fill-opacity:1;fill-rule:nonzero;stroke:none"
         d="m 0,0 c -0.063,-1.543 -1.944,-2.037 -3.117,-2.5 -0.34,-0.154 -0.741,-0.062 -1.112,-0.092 -0.339,0.524 0.463,0.987 0.834,1.327 C -2.469,-0.185 -1.39,0.278 0,0"
         inkscape:connector-curvature="0" />
    </g>
    <g
       transform="matrix(0.62431699,0,0,-0.62431699,24.154989,8.2900716)"
       id="g4309">
      <path
         id="path4311"
         style="fill:#edccb8;fill-opacity:1;fill-rule:nonzero;stroke:none"
         d="m 0,0 c -0.061,-0.308 -0.401,-0.555 -0.588,-0.74 -0.77,0 -1.479,0.216 -2.066,0.648 -0.37,0.371 -0.555,0.803 -0.679,1.265 C -2.098,1.328 -0.895,0.926 0,0"
         inkscape:connector-curvature="0" />
    </g>
    <g
       transform="matrix(0.62431699,0,0,-0.62431699,32.015639,11.584467)"
       id="g4313">
      <path
         id="path4315"
         style="fill:#9c6024;fill-opacity:1;fill-rule:nonzero;stroke:none"
         d="m 0,0 c -0.556,0.031 -1.11,-0.185 -1.543,0.154 -0.216,0.371 -0.556,0.741 -0.308,1.205 0.401,0.308 0.987,0.37 1.481,0.215 L 0,0 z"
         inkscape:connector-curvature="0" />
    </g>
    <g
       transform="matrix(0.62431699,0,0,-0.62431699,29.800063,12.817555)"
       id="g4317">
      <path
         id="path4319"
         style="fill:#764e33;fill-opacity:1;fill-rule:nonzero;stroke:none"
         d="m 0,0 c 0.155,-0.493 -0.31,-0.679 -0.586,-0.894 -0.401,-0.093 -0.71,0.37 -0.833,0.647 0.031,0.34 0.185,0.679 0.523,0.834 C -0.586,0.371 -0.123,0.401 0,0"
         inkscape:connector-curvature="0" />
    </g>
    <g
       transform="matrix(0.62431699,0,0,-0.62431699,32.246702,12.87518)"
       id="g4321">
      <path
         id="path4323"
         style="fill:#9c6024;fill-opacity:1;fill-rule:nonzero;stroke:none"
         d="M 0,0 0.094,-2.284 C -0.617,-2.777 -1.419,-2.839 -2.221,-2.593 -2.623,-1.79 -4.32,-0.802 -2.869,0 -2.098,1.049 -0.895,0.339 0,0"
         inkscape:connector-curvature="0" />
    </g>
    <g
       transform="matrix(0.62431699,0,0,-0.62431699,29.606775,12.87518)"
       id="g4325">
      <path
         id="path4327"
         style="fill:#9c6024;fill-opacity:1;fill-rule:nonzero;stroke:none"
         d="M 0,0 C 0,-0.216 -0.184,-0.741 -0.492,-0.432 -0.802,-0.247 -0.925,0.154 -0.646,0.37 -0.369,0.401 -0.154,0.154 0,0"
         inkscape:connector-curvature="0" />
    </g>
    <g
       transform="matrix(0.62431699,0,0,-0.62431699,30.493244,15.283733)"
       id="g4329">
      <path
         id="path4331"
         style="fill:#764e33;fill-opacity:1;fill-rule:nonzero;stroke:none"
         d="m 0,0 c -0.308,-0.401 -0.895,-0.432 -1.326,-0.648 -0.37,0.278 -0.987,0.494 -1.203,0.957 0,0.494 0.277,0.895 0.617,1.265 0.216,0.339 0.709,0.339 1.017,0 C -0.432,1.173 -0.061,0.648 0,0"
         inkscape:connector-curvature="0" />
    </g>
    <g
       transform="matrix(0.62431699,0,0,-0.62431699,30.262807,14.994736)"
       id="g4333">
      <path
         id="path4335"
         style="fill:#9c6024;fill-opacity:1;fill-rule:nonzero;stroke:none"
         d="m 0,0 c 0.309,-0.555 -0.494,-0.679 -0.803,-0.833 -0.402,0.308 -0.894,0.432 -1.111,0.895 0.154,0.37 0.277,0.833 0.742,1.049 C -0.617,1.08 -0.277,0.432 0,0"
         inkscape:connector-curvature="0" />
    </g>
    <g
       transform="matrix(0.62431699,0,0,-0.62431699,19.103141,15.493441)"
       id="g4337">
      <path
         id="path4339"
         style="fill:#000000;fill-opacity:1;fill-rule:nonzero;stroke:none"
         d="m 0,0 c -0.062,-0.648 -0.463,-1.235 -0.957,-1.574 -0.277,-0.031 -0.524,0.062 -0.617,0.309 -0.063,0.678 0.308,1.172 0.834,1.635 C -0.463,0.34 -0.186,0.278 0,0"
         inkscape:connector-curvature="0" />
    </g>
    <g
       transform="matrix(0.62431699,0,0,-0.62431699,32.112598,15.880642)"
       id="g4341">
      <path
         id="path4343"
         style="fill:#9c6024;fill-opacity:1;fill-rule:nonzero;stroke:none"
         d="m 0,0 c -0.463,-0.834 0.185,-3.272 -1.852,-2.377 -0.494,0.216 -0.865,0.741 -1.049,1.204 -0.339,0.586 0.37,1.018 0.617,1.388 0.71,0.71 1.573,0 2.284,-0.215"
         inkscape:connector-curvature="0" />
    </g>
    <g
       transform="matrix(0.62431699,0,0,-0.62431699,18.909852,15.686417)"
       id="g4345">
      <path
         id="path4347"
         style="fill:#764e33;fill-opacity:1;fill-rule:nonzero;stroke:none"
         d="m 0,0 c -0.062,-0.37 -0.401,-0.741 -0.739,-0.956 l -0.157,0 C -1.172,-0.432 -0.739,0.093 -0.37,0.37 -0.215,0.309 0.062,0.247 0,0"
         inkscape:connector-curvature="0" />
    </g>
    <g
       transform="matrix(0.62431699,0,0,-0.62431699,23.653787,16.015371)"
       id="g4349">
      <path
         id="path4351"
         style="fill:#000000;fill-opacity:1;fill-rule:nonzero;stroke:none"
         d="m 0,0 c 0.031,-0.803 -0.246,-1.636 -1.049,-2.007 -0.4,0.093 -0.432,0.371 -0.586,0.679 -0.154,0.741 0.182,1.6 0.74,1.759 C -0.524,0.524 -0.154,0.339 0,0"
         inkscape:connector-curvature="0" />
    </g>
    <g
       transform="matrix(0.62431699,0,0,-0.62431699,23.5185,16.151034)"
       id="g4353">
      <path
         id="path4355"
         style="fill:#764e33;fill-opacity:1;fill-rule:nonzero;stroke:none"
         d="m 0,0 c -0.216,-0.647 -0.152,-1.141 -0.832,-1.481 -0.524,0.278 -0.246,0.834 -0.216,1.327 0,0.525 0.987,0.802 1.048,0.154"
         inkscape:connector-curvature="0" />
    </g>
    <g
       transform="matrix(0.62431699,0,0,-0.62431699,28.778806,18.134927)"
       id="g4357">
      <path
         id="path4359"
         style="fill:#000000;fill-opacity:1;fill-rule:nonzero;stroke:none"
         d="m 0,0 c -0.494,0 -0.987,0.277 -1.48,0.061 0.709,-3.085 -0.866,-6.017 -3.395,-8.085 0.308,-0.401 0.771,-0.648 1.109,-0.957 -0.215,-0.339 -0.801,0.031 -1.109,0.155 -0.494,1.173 -1.174,0.092 -1.791,0 -0.832,-0.186 -1.635,-0.679 -2.592,-0.371 0.123,0.432 7.84,1.13 7.129,8.826 -0.524,0.093 -0.772,-0.802 -1.266,-0.463 C -3.518,-0.062 -1.555,1.349 0,0"
         inkscape:connector-curvature="0" />
    </g>
    <g
       transform="matrix(0.62431699,0,0,-0.62431699,31.784582,21.333364)"
       id="g4361">
      <path
         id="path4363"
         style="fill:#9c6024;fill-opacity:1;fill-rule:nonzero;stroke:none"
         d="m 0,0 c 0.155,-0.988 0.309,-1.697 0.463,-2.654 -0.587,0.37 -1.543,0.648 -1.636,1.327 C -0.833,-0.741 -0.4,-0.432 0,0"
         inkscape:connector-curvature="0" />
    </g>
    <g
       transform="matrix(0.62431699,0,0,-0.62431699,20.687097,22.990426)"
       id="g4365">
      <path
         id="path4367"
         style="fill:#000000;fill-opacity:1;fill-rule:nonzero;stroke:none"
         d="M 0,0 C -0.123,-0.062 -0.217,-0.093 -0.371,-0.093 -0.248,-0.062 -0.154,0 0,0"
         inkscape:connector-curvature="0" />
    </g>
    <g
       transform="matrix(0.62431699,0,0,-0.62431699,31.456566,24.801508)"
       id="g4369">
      <path
         id="path4371"
         style="fill:#9c6024;fill-opacity:1;fill-rule:nonzero;stroke:none"
         d="M 0,0 C -0.4,-0.71 -1.203,-1.265 -1.758,-1.697 L -2.129,1.852 C -1.388,1.358 0.125,1.173 0,0"
         inkscape:connector-curvature="0" />
    </g>
    <g
       transform="matrix(0.62431699,0,0,-0.62431699,32.998439,27.845678)"
       id="g4373">
      <path
         id="path4375"
         style="fill:#9c6024;fill-opacity:1;fill-rule:nonzero;stroke:none"
         d="m 0,0 c -0.617,0.401 -1.419,0.555 -1.851,1.234 0.092,0.741 0.801,1.204 1.234,1.791 L 0,0 z"
         inkscape:connector-curvature="0" />
    </g>
    <g
       transform="matrix(0.62431699,0,0,-0.62431699,32.246702,29.156181)"
       id="g4377">
      <path
         id="path4379"
         style="fill:#9c6024;fill-opacity:1;fill-rule:nonzero;stroke:none"
         d="M 0,0 C 0.186,-1.141 -1.419,-1.913 -2.005,-2.715 -2.438,-1.234 -2.346,0.34 -2.653,1.791 -1.666,1.482 -0.709,0.741 0,0"
         inkscape:connector-curvature="0" />
    </g>
    <g
       transform="matrix(0.62431699,0,0,-0.62431699,33.961759,32.758802)"
       id="g4381">
      <path
         id="path4383"
         style="fill:#9c6024;fill-opacity:1;fill-rule:nonzero;stroke:none"
         d="m 0,0 c -0.587,0.062 -1.296,0.679 -1.851,1.204 -0.248,0.895 0.524,1.697 1.111,2.222 L 0,0 z"
         inkscape:connector-curvature="0" />
    </g>
    <g
       transform="matrix(0.62431699,0,0,-0.62431699,43.074731,34.242491)"
       id="g4385">
      <path
         id="path4387"
         style="fill:#9c6024;fill-opacity:1;fill-rule:nonzero;stroke:none"
         d="m 0,0 c 0.278,-0.772 0.402,-1.79 0.155,-2.654 -0.061,0.247 -0.218,0.895 -0.464,1.265 -0.586,-0.092 -0.802,-0.678 -1.017,-1.111 -0.309,-0.462 0.183,-0.802 0.123,-1.265 l -1.326,1.79 c -0.032,-0.895 0.616,-1.636 1.264,-2.315 -1.204,-0.308 -2.314,0.711 -3.024,1.574 -0.433,1.667 0.494,3.704 0.06,5.555 C -2.561,2.531 -0.586,1.883 0,0"
         inkscape:connector-curvature="0" />
    </g>
    <g
       transform="matrix(0.62431699,0,0,-0.62431699,33.306352,34.242491)"
       id="g4389">
      <path
         id="path4391"
         style="fill:#9c6024;fill-opacity:1;fill-rule:nonzero;stroke:none"
         d="M 0,0 C -0.432,-1.234 -1.543,-2.067 -2.344,-3.085 -2.746,-1.389 -3.116,0.309 -3.178,2.16 -2.037,1.605 -0.863,0.865 0,0"
         inkscape:connector-curvature="0" />
    </g>
    <g
       transform="matrix(0.62431699,0,0,-0.62431699,42.747898,36.727898)"
       id="g4393">
      <path
         id="path4395"
         style="fill:#9c6024;fill-opacity:1;fill-rule:nonzero;stroke:none"
         d="M 0,0 C -0.371,0.34 -0.524,0.988 -0.433,1.481 L 0,2.129 C 0.338,1.543 0.338,0.649 0,0"
         inkscape:connector-curvature="0" />
    </g>
    <g
       transform="matrix(0.62431699,0,0,-0.62431699,34.982952,36.823918)"
       id="g4397">
      <path
         id="path4399"
         style="fill:#9c6024;fill-opacity:1;fill-rule:nonzero;stroke:none"
         d="m 0,0 c 0.277,-0.895 0.4,-1.821 0.648,-2.747 -0.741,0.401 -2.192,0.926 -2.962,1.852 0.03,1.111 1.326,1.698 1.789,2.685 C -0.216,1.327 -0.247,0.587 0,0"
         inkscape:connector-curvature="0" />
    </g>
    <g
       transform="matrix(0.62431699,0,0,-0.62431699,34.520833,40.195729)"
       id="g4401">
      <path
         id="path4403"
         style="fill:#9c6024;fill-opacity:1;fill-rule:nonzero;stroke:none"
         d="M 0,0 C -0.34,-1.45 -1.789,-2.437 -2.686,-3.641 -3.148,-1.604 -3.519,0.617 -3.797,2.809 -2.654,1.76 -0.957,1.389 0,0"
         inkscape:connector-curvature="0" />
    </g>
    <g
       transform="matrix(0.62431699,0,0,-0.62431699,41.22494,44.954335)"
       id="g4405">
      <path
         id="path4407"
         style="fill:#f5d75c;fill-opacity:1;fill-rule:nonzero;stroke:none"
         d="M 0,0 C -0.494,0.123 -0.309,0.833 -0.462,1.234 -1.08,4.073 0.958,5.987 2.439,8.054 1.173,5.555 -0.309,3.054 0,0"
         inkscape:connector-curvature="0" />
    </g>
    <g
       transform="matrix(0.62431699,0,0,-0.62431699,37.391258,43.297523)"
       id="g4409">
      <path
         id="path4411"
         style="fill:#9c6024;fill-opacity:1;fill-rule:nonzero;stroke:none"
         d="m 0,0 c -1.172,-0.556 -2.53,-1.111 -3.95,-0.679 -0.525,0.216 -0.525,0.926 -0.279,1.358 l 2.223,2.808 C -1.389,2.376 -0.987,1.049 0,0"
         inkscape:connector-curvature="0" />
    </g>
    <g
       transform="matrix(0.62431699,0,0,-0.62431699,39.009928,44.684568)"
       id="g4413">
      <path
         id="path4415"
         style="fill:#9c6024;fill-opacity:1;fill-rule:nonzero;stroke:none"
         d="M 0,0 C -0.31,-0.34 -0.341,-0.895 -0.896,-0.895 -2.099,-1.05 -1.42,0.184 -1.574,0.802 -1.39,0.895 -1.667,1.358 -1.265,1.173 L 0,0 z"
         inkscape:connector-curvature="0" />
    </g>
    <g
       transform="matrix(0.62431699,0,0,-0.62431699,37.294924,46.110632)"
       id="g4417">
      <path
         id="path4419"
         style="fill:#764e33;fill-opacity:1;fill-rule:nonzero;stroke:none"
         d="m 0,0 c -0.339,-0.463 -0.864,-0.432 -1.327,-0.524 -0.803,0.092 -1.543,0.586 -1.728,1.388 -0.679,1.451 1.049,1.42 1.728,2.098 0.34,0.217 0.524,-0.03 0.864,-0.153 C 0.432,2.098 -0.339,0.895 0,0"
         inkscape:connector-curvature="0" />
    </g>
    <g
       transform="matrix(0.62431699,0,0,-0.62431699,37.102264,46.071925)"
       id="g4421">
      <path
         id="path4423"
         style="fill:#9c6024;fill-opacity:1;fill-rule:nonzero;stroke:none"
         d="m 0,0 c -0.401,-0.278 -1.049,-0.432 -1.481,-0.154 -0.586,0.092 -0.802,0.74 -0.957,1.203 -0.402,0.926 0.709,1.018 1.173,1.482 0.431,0.277 0.741,0.092 1.111,-0.155 C 0.309,1.605 -0.154,0.925 0,0"
         inkscape:connector-curvature="0" />
    </g>
    <g
       transform="matrix(0.62431699,0,0,-0.62431699,40.243322,45.648139)"
       id="g4425">
      <path
         id="path4427"
         style="fill:#9c6024;fill-opacity:1;fill-rule:nonzero;stroke:none"
         d="M 0,0 C -0.187,-0.247 -0.494,-0.247 -0.804,-0.247 -1.05,0 -1.019,0.463 -0.742,0.648 -0.525,0.37 -0.031,0.401 0,0"
         inkscape:connector-curvature="0" />
    </g>
    <g
       transform="matrix(0.62431699,0,0,-0.62431699,38.816699,46.071925)"
       id="g4429">
      <path
         id="path4431"
         style="fill:#764e33;fill-opacity:1;fill-rule:nonzero;stroke:none"
         d="m 0,0 c 0.125,-0.586 -0.308,-1.142 -0.802,-1.266 -0.34,0 -0.678,0.278 -0.741,0.587 -0.061,0.37 0.031,0.71 0.278,0.988 C -0.986,0.679 -0.185,0.556 0,0"
         inkscape:connector-curvature="0" />
    </g>
    <g
       transform="matrix(0.62431699,0,0,-0.62431699,38.624599,46.110632)"
       id="g4433">
      <path
         id="path4435"
         style="fill:#9c6024;fill-opacity:1;fill-rule:nonzero;stroke:none"
         d="m 0,0 c 0.093,-0.37 -0.062,-0.803 -0.433,-0.833 -0.277,-0.093 -0.37,0.185 -0.524,0.309 0.061,0.277 -0.153,0.647 0.216,0.802 C -0.524,0.093 -0.03,0.401 0,0"
         inkscape:connector-curvature="0" />
    </g>
    <g
       transform="matrix(0.62431699,0,0,-0.62431699,34.231839,50.734136)"
       id="g4437">
      <path
         id="path4439"
         style="fill:#ccae42;fill-opacity:1;fill-rule:nonzero;stroke:none"
         d="m 0,0 c -0.217,-1.111 -1.451,-2.037 -0.648,-3.272 -0.063,-0.771 0.154,-1.697 -0.525,-2.16 -0.524,-0.308 -0.864,-0.741 -1.05,-1.327 l -1.111,-6.944 c -2.283,1.173 0.217,3.21 0.154,4.876 0.309,1.543 0.649,3.055 0.309,4.598 0.247,0.833 0.926,1.637 1.481,2.223 L -0.587,0.277 0,0 z"
         inkscape:connector-curvature="0" />
    </g>
    <g
       transform="matrix(0.62431699,0,0,-0.62431699,39.182489,52.4492)"
       id="g4441">
      <path
         id="path4443"
         style="fill:#ccae42;fill-opacity:1;fill-rule:nonzero;stroke:none"
         d="m 0,0 c 0.063,-0.864 -0.215,-1.852 0.525,-2.439 0.432,-0.739 -0.154,-1.45 -0.37,-2.098 0.154,-0.617 0.308,-1.419 0.154,-1.975 0.648,-1.759 0.773,-2.654 1.328,-4.506 -0.586,0.432 -1.512,0.925 -2.376,1.11 0.03,2.5 0.616,3.952 -0.74,5.989 0.091,1.388 0.647,2.592 0.956,3.919 L 0,0 z"
         inkscape:connector-curvature="0" />
    </g>
    <g
       transform="matrix(0.62431699,0,0,-0.62431699,32.015639,60.040396)"
       id="g4445">
      <path
         id="path4447"
         style="fill:#774019;fill-opacity:1;fill-rule:nonzero;stroke:none"
         d="m 0,0 c -0.524,0.123 -1.203,0.278 -1.39,0.895 l 0.434,1.049 C -0.339,1.481 0.093,0.74 0,0"
         inkscape:connector-curvature="0" />
    </g>
    <g
       transform="matrix(0.62431699,0,0,-0.62431699,44.288587,60.21383)"
       id="g4449">
      <path
         id="path4451"
         style="fill:#9c6024;fill-opacity:1;fill-rule:nonzero;stroke:none"
         d="m 0,0 c -0.339,-0.555 -1.05,-0.832 -1.697,-0.585 -0.339,0.215 -0.618,0.4 -0.525,0.895 0.155,0.709 1.142,0.185 1.635,0.123 C -0.401,0.31 -0.154,0.217 0,0"
         inkscape:connector-curvature="0" />
    </g>
    <g
       transform="matrix(0.62431699,0,0,-0.62431699,40.243322,59.694399)"
       id="g4453">
      <path
         id="path4455"
         style="fill:#774019;fill-opacity:1;fill-rule:nonzero;stroke:none"
         d="m 0,0 c -0.773,-0.246 -1.668,-0.802 -2.438,-0.37 -0.649,0.432 0.153,1.018 0,1.604 C -1.544,1.049 -0.742,0.556 0,0"
         inkscape:connector-curvature="0" />
    </g>
    <g
       transform="matrix(0.62431699,0,0,-0.62431699,35.715217,61.0418)"
       id="g4457">
      <path
         id="path4459"
         style="fill:#9c6024;fill-opacity:1;fill-rule:nonzero;stroke:none"
         d="m 0,0 c -0.278,-0.525 -1.081,-0.278 -1.544,-0.216 -0.277,0.124 -0.523,0.432 -0.74,0.648 l 0.217,0.894 C -1.204,1.326 -0.586,0.555 0,0"
         inkscape:connector-curvature="0" />
    </g>
    <g
       transform="matrix(0.62431699,0,0,-0.62431699,25.736508,13.40379)"
       id="g4461">
      <path
         id="path4463"
         style="fill:#fbea98;fill-opacity:1;fill-rule:nonzero;stroke:none"
         d="m 0,0 c -1.799,0.779 -3.743,1.193 -5.773,1.433 0.956,0.432 2.252,0.802 2.591,2.006 0.711,-0.185 1.543,-0.926 2.5,-0.586 C 0.09,3.099 0.953,3.593 1.324,4.334 1.391,4.117 1.481,3.916 1.595,3.731 1.137,2.342 0.607,1.048 0,0 M 2.916,8.771 C 2.222,8.296 1.802,7.579 1.479,7.358 0.984,8.006 0.274,8.346 -0.373,8.716 c 0.556,1.297 1.543,3.087 3.24,3.087 0.207,0.005 0.414,0.004 0.619,-0.005 C 3.332,10.878 3.144,9.847 2.916,8.771"
         inkscape:connector-curvature="0" />
    </g>
    <g
       transform="matrix(0.62431699,0,0,-0.62431699,26.810774,9.8520504)"
       id="g4465">
      <path
         id="path4467"
         style="fill:#ffffff;fill-opacity:1;fill-rule:nonzero;stroke:none"
         d="M 0,0 C 0,1.641 1.225,2.972 2.734,2.972 4.242,2.972 5.467,1.641 5.467,0 5.467,-1.642 4.242,-2.973 2.734,-2.973 1.225,-2.973 0,-1.642 0,0"
         inkscape:connector-curvature="0" />
    </g>
    <g
       transform="matrix(0.62431699,0,0,-0.62431699,23.752619,9.5892748)"
       id="g4469">
      <path
         id="path4471"
         style="fill:#ffffff;fill-opacity:1;fill-rule:nonzero;stroke:none"
         d="M 0,0 C 0.239,1.36 1.393,2.293 2.574,2.084 3.756,1.876 4.521,0.605 4.28,-0.755 4.041,-2.114 2.889,-3.047 1.707,-2.839 0.524,-2.631 -0.24,-1.36 0,0"
         inkscape:connector-curvature="0" />
    </g>
    <g
       transform="matrix(0.62431699,0,0,-0.62431699,28.242892,8.0202414)"
       id="g4473">
      <path
         id="path4475"
         style="fill:#dce8eb;fill-opacity:1;fill-rule:nonzero;stroke:none"
         d="m 0,0 c 0.144,0.025 0.29,0.038 0.44,0.038 1.508,0 2.733,-1.331 2.733,-2.972 0,-1.642 -1.225,-2.973 -2.733,-2.973 -0.343,0 -0.671,0.069 -0.974,0.195 1.301,0.228 2.294,1.455 2.294,2.934 C 1.76,-1.51 1.03,-0.427 0,0"
         inkscape:connector-curvature="0" />
    </g>
    <g
       transform="matrix(0.62431699,0,0,-0.62431699,24.832937,8.3132339)"
       id="g4477">
      <path
         id="path4479"
         style="fill:#dce8eb;fill-opacity:1;fill-rule:nonzero;stroke:none"
         d="M 0,0 C 0.271,0.074 0.557,0.091 0.844,0.04 2.025,-0.168 2.79,-1.439 2.55,-2.799 2.311,-4.158 1.158,-5.091 -0.023,-4.883 c -0.204,0.036 -0.394,0.103 -0.571,0.196 0.846,0.231 1.55,1.016 1.731,2.044 C 1.336,-1.517 0.845,-0.451 0,0"
         inkscape:connector-curvature="0" />
    </g>
    <g
       transform="matrix(0.62431699,0,0,-0.62431699,24.979277,9.4719031)"
       id="g4481">
      <path
         id="path4483"
         style="fill:#000000;fill-opacity:1;fill-rule:nonzero;stroke:none"
         d="M 0,0 C 0,0.659 0.535,1.194 1.193,1.194 1.854,1.194 2.388,0.659 2.388,0 2.388,-0.659 1.854,-1.194 1.193,-1.194 0.535,-1.194 0,-0.659 0,0"
         inkscape:connector-curvature="0" />
    </g>
    <g
       transform="matrix(0.62431699,0,0,-0.62431699,28.392293,9.3987333)"
       id="g4485">
      <path
         id="path4487"
         style="fill:#000000;fill-opacity:1;fill-rule:nonzero;stroke:none"
         d="M 0,0 C 0,0.788 0.64,1.428 1.429,1.428 2.217,1.428 2.855,0.788 2.855,0 2.855,-0.789 2.217,-1.428 1.429,-1.428 0.64,-1.428 0,-0.789 0,0"
         inkscape:connector-curvature="0" />
    </g>
    <g
       transform="matrix(0.62431699,0,0,-0.62431699,25.076231,9.2042591)"
       id="g4489">
      <path
         id="path4491"
         style="fill:#ffffff;fill-opacity:1;fill-rule:nonzero;stroke:none"
         d="M 0,0 C 0,0.314 0.257,0.57 0.571,0.57 0.886,0.57 1.142,0.314 1.142,0 1.142,-0.315 0.886,-0.571 0.571,-0.571 0.257,-0.571 0,-0.315 0,0"
         inkscape:connector-curvature="0" />
    </g>
    <g
       transform="matrix(0.62431699,0,0,-0.62431699,28.471517,9.1679859)"
       id="g4493">
      <path
         id="path4495"
         style="fill:#ffffff;fill-opacity:1;fill-rule:nonzero;stroke:none"
         d="M 0,0 C 0,0.39 0.316,0.707 0.707,0.707 1.097,0.707 1.414,0.39 1.414,0 1.414,-0.39 1.097,-0.706 0.707,-0.706 0.316,-0.706 0,-0.39 0,0"
         inkscape:connector-curvature="0" />
    </g>
    <g
       transform="matrix(0.62431699,0,0,-0.62431699,32.015639,9.4069749)"
       id="g4497">
      <path
         id="path4499"
         style="fill:#fbea98;fill-opacity:1;fill-rule:nonzero;stroke:none"
         d="M 0,0 C -0.215,0.123 -0.215,0.463 -0.276,0.679 1.173,0.586 4.339,1.57 4.382,3.857 3.735,4.289 3.056,4.289 2.315,4.073 1.144,3.764 0.124,2.777 -0.647,1.944 -1.265,2.438 -0.771,3.209 -0.433,3.703 1.39,6.542 4.876,7.591 8.147,7.036 8.147,7.036 8.261,-0.949 0,0"
         inkscape:connector-curvature="0" />
    </g>
    <g
       transform="matrix(0.62431699,0,0,-0.62431699,25.041459,7.9235971)"
       id="g4501">
      <path
         id="path4503"
         style="fill:#f5d75c;fill-opacity:1;fill-rule:nonzero;stroke:none"
         d="m 0,0 -1.111,-0.37 c -0.987,1.141 -2.315,1.357 -3.797,1.327 -0.431,-0.34 -0.092,-0.895 0,-1.265 0.648,-0.957 1.605,-1.482 2.748,-1.389 -0.309,-0.365 -0.184,-1.162 -0.76,-1.212 -0.159,0.045 -0.318,0.095 -0.478,0.151 -2.381,0.819 -3.997,2.398 -3.608,3.526 0.388,1.128 2.633,1.378 5.014,0.558 C -1.6,1.191 -1.227,1.034 -0.88,0.862 -0.566,0.604 -0.271,0.317 0,0"
         inkscape:connector-curvature="0" />
    </g>
    <g
       transform="matrix(0.62431699,0,0,-0.62431699,31.745559,7.0950659)"
       id="g4505">
      <path
         id="path4507"
         style="fill:#f5d75c;fill-opacity:1;fill-rule:nonzero;stroke:none"
         d="M 0,0 C 0.291,0.454 0.627,0.862 0.994,1.225 3.731,2.546 6.44,2.591 7.061,1.322 7.683,0.044 5.957,-2.079 3.205,-3.422 2.955,-3.544 2.705,-3.655 2.457,-3.755 1.846,-3.801 1.173,-3.789 0.433,-3.703 0.218,-3.58 0.218,-3.24 0.156,-3.024 1.605,-3.117 4.685,-1.57 4.814,0.154 4.168,0.586 3.488,0.586 2.748,0.37 1.576,0.061 0.557,-0.926 -0.215,-1.759 -0.832,-1.265 -0.338,-0.494 0,0"
         inkscape:connector-curvature="0" />
    </g>
    <g
       transform="matrix(0.62431699,0,0,-0.62431699,22.243016,3.1525674)"
       id="g4509">
      <path
         id="path4511"
         style="fill:#cfa685;fill-opacity:1;fill-rule:nonzero;stroke:none"
         d="M 0,0 C 0,0.575 0.362,1.041 0.812,1.041 1.26,1.041 1.623,0.575 1.623,0 1.623,-0.575 1.26,-1.042 0.812,-1.042 0.362,-1.042 0,-0.575 0,0"
         inkscape:connector-curvature="0" />
    </g>
    <g
       transform="matrix(0.62431699,0,0,-0.62431699,32.436304,2.0111913)"
       id="g4513">
      <path
         id="path4515"
         style="fill:#cfa685;fill-opacity:1;fill-rule:nonzero;stroke:none"
         d="M 0,0 C 0,0.547 0.308,0.991 0.688,0.991 1.07,0.991 1.38,0.547 1.38,0 1.38,-0.547 1.07,-0.991 0.688,-0.991 0.308,-0.991 0,-0.547 0,0"
         inkscape:connector-curvature="0" />
    </g>
    <g
       transform="matrix(0.62431699,0,0,-0.62431699,31.034648,21.800977)"
       id="g4517">
      <path
         id="path4519"
         style="fill:#ffffff;fill-opacity:1;fill-rule:nonzero;stroke:none"
         d="m 0,0 c -0.263,-0.357 -0.438,-0.72 -0.279,-1.164 0.133,-0.178 0.302,-0.318 0.49,-0.437 l 0.242,-1.836 c -0.953,0.614 -2.357,0.699 -2.06,2.18 0,0.957 0.432,1.913 1.328,2.315 0.047,0.003 0.092,0.01 0.138,0.017 L 0,0 z"
         inkscape:connector-curvature="0" />
    </g>
    <g
       transform="matrix(0.62431699,0,0,-0.62431699,32.569843,33.289534)"
       id="g4521">
      <path
         id="path4523"
         style="fill:#ffffff;fill-opacity:1;fill-rule:nonzero;stroke:none"
         d="m 0,0 c -0.715,0.478 -1.443,0.906 -2.152,1.313 0,0.834 -0.649,1.759 0,2.5 0.332,0.492 0.967,0.902 1.447,1.381 C -0.451,3.301 -0.211,1.52 0,0"
         inkscape:connector-curvature="0" />
    </g>
    <g
       transform="matrix(0.62431699,0,0,-0.62431699,33.663651,39.240087)"
       id="g4525">
      <path
         id="path4527"
         style="fill:#ffffff;fill-opacity:1;fill-rule:nonzero;stroke:none"
         d="m 0,0 c -1.166,0.903 -2.484,1.71 -2.484,1.71 l -0.37,2.684 c 0.675,0.559 1.192,1.172 1.582,1.747 C -1.176,5.479 -1.104,5.022 -1.063,4.824 -0.953,4.275 -0.527,2.418 0,0"
         inkscape:connector-curvature="0" />
    </g>
    <g
       transform="matrix(0.62431699,0,0,-0.62431699,39.712284,50.370475)"
       id="g4529">
      <path
         id="path4531"
         style="fill:#ffffff;fill-opacity:1;fill-rule:nonzero;stroke:none"
         d="m 0,0 c -0.028,-0.625 0.047,-1.417 0.047,-1.417 -1.976,0.124 -3.796,0.494 -5.4,1.482 L -5.167,1.903 0,0 z"
         inkscape:connector-curvature="0" />
    </g>
    <g
       transform="matrix(0.62431699,0,0,-0.62431699,34.460465,43.064028)"
       id="g4533">
      <path
         id="path4535"
         style="fill:#ffffff;fill-opacity:1;fill-rule:nonzero;stroke:none"
         d="m 0,0 c -0.046,-0.122 -0.086,-0.247 -0.12,-0.374 0,-0.295 0.137,-0.59 0.349,-0.813 0.62,-3.269 1.114,-6.401 1.154,-8.248 -0.032,0.273 -0.07,0.556 -0.114,0.851 -0.062,0.093 -0.495,-1.45 -0.432,-2.159 -3.457,2.592 -2.223,7.591 -3.333,11.264 0.231,0 1.186,1.186 1.949,2.186 C -0.362,1.821 -0.179,0.911 0,0"
         inkscape:connector-curvature="0" />
    </g>
    <g
       transform="matrix(0.62431699,0,0,-0.62431699,31.69861,26.822921)"
       id="g4537">
      <path
         id="path4539"
         style="fill:#ffffff;fill-opacity:1;fill-rule:nonzero;stroke:none"
         d="m 0,0 c -0.076,-0.195 -0.126,-0.401 -0.14,-0.62 0.08,-0.122 0.17,-0.233 0.267,-0.334 l 0.219,-1.643 c -0.669,0.535 -1.443,0.96 -2.121,1.329 0.03,1.111 -0.896,2.438 0.524,3.179 0.355,0.194 0.652,0.482 0.89,0.809 L 0,0 z"
         inkscape:connector-curvature="0" />
    </g>
    <g
       transform="matrix(0.62431699,0,0,-0.62431699,31.456566,24.801508)"
       id="g4541">
      <path
         id="path4543"
         style="fill:#b9834e;fill-opacity:1;fill-rule:nonzero;stroke:none"
         d="M 0,0 C -0.297,-0.527 -0.815,-0.969 -1.291,-1.338 L -1.758,1.649 C -0.978,1.282 0.106,1 0,0"
         inkscape:connector-curvature="0" />
    </g>
    <g
       transform="matrix(0.62431699,0,0,-0.62431699,34.520833,40.195729)"
       id="g4545">
      <path
         id="path4547"
         style="fill:#b9834e;fill-opacity:1;fill-rule:nonzero;stroke:none"
         d="M 0,0 C -0.271,-1.156 -1.248,-2.018 -2.087,-2.929 L -2.88,2.137 C -1.869,1.518 -0.724,1.05 0,0"
         inkscape:connector-curvature="0" />
    </g>
    <g
       transform="matrix(0.62431699,0,0,-0.62431699,33.306352,34.242491)"
       id="g4549">
      <path
         id="path4551"
         style="fill:#b9834e;fill-opacity:1;fill-rule:nonzero;stroke:none"
         d="M 0,0 C -0.327,-0.936 -1.045,-1.641 -1.723,-2.371 L -2.365,1.735 C -1.498,1.247 -0.658,0.66 0,0"
         inkscape:connector-curvature="0" />
    </g>
    <g
       transform="matrix(0.62431699,0,0,-0.62431699,32.246702,29.156181)"
       id="g4553">
      <path
         id="path4555"
         style="fill:#b9834e;fill-opacity:1;fill-rule:nonzero;stroke:none"
         d="m 0,0 c 0.135,-0.828 -0.674,-1.462 -1.352,-2.054 l -0.552,3.53 C -1.191,1.102 -0.527,0.551 0,0"
         inkscape:connector-curvature="0" />
    </g>
    <g
       transform="matrix(0.62431699,0,0,-0.62431699,31.034648,21.800977)"
       id="g4557">
      <path
         id="path4559"
         style="fill:#dce8eb;fill-opacity:1;fill-rule:nonzero;stroke:none"
         d="m 0,0 c -0.263,-0.357 -0.438,-0.72 -0.279,-1.164 0.133,-0.178 0.302,-0.318 0.49,-0.437 l 0.034,-0.26 c -0.674,0.751 -1.401,0.457 -1.886,0.089 -0.015,0.151 -0.005,0.321 0.034,0.515 0,0.957 0.432,1.913 1.328,2.315 0.047,0.003 0.092,0.01 0.138,0.017 L 0,0 z"
         inkscape:connector-curvature="0" />
    </g>
    <g
       transform="matrix(0.62431699,0,0,-0.62431699,34.758638,53.789609)"
       id="g4561">
      <path
         id="path4563"
         style="fill:#ffffff;fill-opacity:1;fill-rule:nonzero;stroke:none"
         d="M 0,0 C 0,0.67 0.325,1.214 0.729,1.214 1.131,1.214 1.459,0.67 1.459,0 1.459,-0.671 1.131,-1.214 0.729,-1.214 0.325,-1.214 0,-0.671 0,0"
         inkscape:connector-curvature="0" />
    </g>
    <g
       transform="matrix(0.62431699,0,0,-0.62431699,40.702446,54.578246)"
       id="g4565">
      <path
         id="path4567"
         style="fill:#ffffff;fill-opacity:1;fill-rule:nonzero;stroke:none"
         d="m 0,0 c 0,0.403 0.151,0.73 0.341,0.73 0.187,0 0.34,-0.327 0.34,-0.73 0,-0.402 -0.153,-0.729 -0.34,-0.729 C 0.151,-0.729 0,-0.402 0,0"
         inkscape:connector-curvature="0" />
    </g>
    <g
       transform="matrix(0.62431699,0,0,-0.62431699,40.898106,35.938012)"
       id="g4569">
      <path
         id="path4571"
         style="fill:#b9834e;fill-opacity:1;fill-rule:nonzero;stroke:none"
         d="M 0,0 C 0.537,-0.655 1.307,-1.399 2.172,-1.586 0.986,-1.854 -0.104,-0.852 -0.803,0 -1.235,1.667 -0.309,3.704 -0.742,5.555 -0.467,5.505 -0.185,5.445 0.1,5.372 0.434,3.57 -0.42,1.612 0,0"
         inkscape:connector-curvature="0" />
    </g>
  </g>
</svg>
